<svg id="Capa_1" enable-background="new 0 0 512 512" height="512" viewBox="0 0 512 512" width="512" xmlns="http://www.w3.org/2000/svg"><g><path d="m256 426.667v-161.909l103.692 41.776s21.153 9.051 21.153 32.161c0 23.109-42.57 59.251-42.57 59.251z" fill="#5e9ad8"/><path d="m256 426.667v-161.909l-103.692 41.776s-21.153 9.051-21.153 32.161c0 23.109 42.57 59.251 42.57 59.251z" fill="#5e9ad8"/><g><path d="m327.984 370.536c-7.264-2.136-12.251-8.802-12.251-16.373v-13.144h-110.5l-32.36 81.239 110.202 22.949 82.765-63.536z" fill="#f4aa73"/></g><path d="m196.267 281.6v72.563c0 7.571-4.988 14.237-12.251 16.373l-21.133 6.216 25.954 10.155c14.523-4.272 24.497-17.602 24.497-32.741 0-1.979 1.954-3.286 3.807-2.59 12.101 4.545 25.192 7.048 38.86 7.048 21.998 0 42.469-6.516 59.733-17.606v-59.418z" fill="#e29a6c"/><path d="m424.047 398.79-65.208-19.179-102.839 81.189-101.15-72.706-59.958 17.635c-21.79 6.409-36.753 26.407-36.753 49.12v38.49l10.127 17.204c2.668.943 5.541 1.457 8.534 1.457h358.4c14.139 0 25.6-11.461 25.6-25.6v-38.49c0-22.713-14.963-42.711-36.753-49.12z" fill="#eceaec"/><path d="m92.764 415.167 72.403-21.297-17.256-12.715-59.958 17.635c-21.79 6.409-36.753 26.407-36.753 49.12v38.49c0 11.13 7.146 20.612 17.067 24.139v-62.631c0-15.139 9.973-28.468 24.497-32.741z" fill="#dbd8db"/><path d="m128 110.933h42.667v59.733h-42.667z" fill="#d48c64"/><path d="m341.333 110.933h42.667v59.733h-42.667z" fill="#d48c64"/><path d="m391.714 73.456c-5.781-41.507-41.416-73.456-84.514-73.456h-59.733l-8.583 3.782-8.484-3.782h-17.061l-17.061.42c-5.836.579-11.5 1.745-16.93 3.44l-16.756 7.293c-22.473 12.815-38.558 35.547-42.295 62.239l-.829 24.261v4.746c0 14.139 11.461 25.6 25.6 25.6h221.867c14.139 0 25.6-11.461 25.6-25.6v-4.746z" fill="#e29a6c"/><path d="m375.467 102.4h-34.133c-4.717 0-8.533-3.817-8.533-8.533s3.817-8.533 8.533-8.533h34.133c7.565 0 14.016-5.046 16.247-11.877.538 3.872.82 7.857.82 11.877v12.32c-5.041 2.939-10.822 4.746-17.067 4.746z" fill="#f4aa73"/><path d="m136.533 102.4h34.133c4.717 0 8.533-3.817 8.533-8.533s-3.817-8.533-8.533-8.533h-34.133c-7.565 0-14.007-5.11-16.238-11.941-.538 3.872-.829 7.921-.829 11.941v12.32c5.041 2.939 10.822 4.746 17.067 4.746z" fill="#d48c64"/><path d="m379.733 162.357h-12.8c-9.426 0-17.067-7.641-17.067-17.067v-54.243c0-13.467-14.868-21.629-26.229-14.398l-44.731 28.465c-13.976 8.894-31.837 8.894-45.814 0l-44.731-28.465c-2.926-1.862-6.085-2.704-9.163-2.696l-11.035 17.488 2.038 175.057c20.318 24.844 51.19 40.702 85.799 40.702 58.31 0 106.013-45.016 110.491-102.176h.442 12.8c11.782 0 21.333-9.551 21.333-21.333.001-11.782-9.55-21.334-21.333-21.334z" fill="#fbbd80"/><path d="m179.2 196.267v-122.343c-8.87.024-17.067 7.127-17.067 17.123v54.243c0 9.426-7.641 17.067-17.067 17.067h-12.8c-11.782 0-21.333 9.552-21.333 21.333 0 11.782 9.551 21.333 21.333 21.333h12.8.442c4.479 57.161 52.182 102.177 110.492 102.177 5.837 0 11.53-.569 17.122-1.438-53.169-8.204-93.922-54.029-93.922-109.495z" fill="#f4aa73"/><path d="m324.267 213.558h-102.4c-25.901 0-41.886 11.462-41.886 25.6v8.533c0 51.841 24.178 91.873 76.019 91.873 5.877 0 11.628 1.454 17.205.421 43.624-8.081 76.661-46.329 76.661-92.293v-8.533c.001-14.14-11.461-25.601-25.599-25.601z" fill="#d48c64"/><path d="m204.8 187.958c-4.717 0-8.533-3.817-8.533-8.533v-8.533c0-4.717 3.817-8.533 8.533-8.533 4.717 0 8.533 3.817 8.533 8.533v8.533c0 4.717-3.816 8.533-8.533 8.533z" fill="#7a4646"/><path d="m307.2 187.958c-4.717 0-8.533-3.817-8.533-8.533v-8.533c0-4.717 3.817-8.533 8.533-8.533 4.717 0 8.533 3.817 8.533 8.533v8.533c0 4.717-3.816 8.533-8.533 8.533z" fill="#7a4646"/><path d="m256 264.758c-12.8 0-24.608-4.108-31.592-10.992-3.358-3.308-3.392-8.708-.083-12.067 3.292-3.358 8.692-3.408 12.067-.083 2.842 2.8 9.683 6.075 19.608 6.075s16.767-3.275 19.608-6.075c3.375-3.308 8.775-3.267 12.067.083 3.308 3.358 3.275 8.758-.083 12.067-6.984 6.884-18.792 10.992-31.592 10.992z" fill="#fbbd80"/><path d="m213.333 153.825h-17.067c-4.717 0-8.533-3.817-8.533-8.533 0-4.717 3.817-8.533 8.533-8.533h17.067c4.717 0 8.533 3.817 8.533 8.533.001 4.716-3.816 8.533-8.533 8.533z" fill="#c6805d"/><path d="m315.733 153.825h-17.067c-4.717 0-8.533-3.817-8.533-8.533 0-4.717 3.817-8.533 8.533-8.533h17.067c4.717 0 8.533 3.817 8.533 8.533.001 4.716-3.816 8.533-8.533 8.533z" fill="#c6805d"/><path d="m168.442 40.217c1.175 3.608 4.517 5.892 8.117 5.892.875 0 1.767-.133 2.642-.417 4.483-1.467 6.933-6.283 5.475-10.758-3.243-9.945-4.976-20.352-5.328-31.073-5.886 1.837-11.494 4.292-16.756 7.293.831 9.896 2.793 19.675 5.85 29.063z" fill="#d48c64"/><path d="m232.008 76.875 38.578 32.226c2.868-1.046 5.678-2.305 8.321-3.987l7.675-4.884-43.623-36.439c-18.825-15.808-29.625-38.975-29.625-63.433l.005-.358h-8.539c-2.877 0-5.719.142-8.523.42.061 29.564 13.059 57.424 35.731 76.455z" fill="#d48c64"/><path d="m253.892 50.675 47.273 40.274 15.058-9.582-51.315-43.717c-11.083-9.308-17.442-22.95-17.442-37.425v-.225h-17.066v.225c0 19.533 8.583 37.933 23.492 50.45z" fill="#f4aa73"/><path d="m196.267 247.691v-8.534c0-14.138 11.461-25.6 25.6-25.6h-34.133c-14.139 0-25.6 11.462-25.6 25.6v8.534c0 51.841 42.026 93.866 93.867 93.866 5.837 0 11.663-.554 17.206-1.573-43.682-8.036-76.94-46.289-76.94-92.293z" fill="#c6805d"/><path d="m359.692 306.534c16.635 8.317 16.481 31.025 2.046 42.753l-96.806 78.655h-17.865l-96.806-78.655c-14.435-11.728-14.589-34.436 2.046-42.753-25.101 10.757-41.375 35.439-41.375 62.747v23.252c0 23.564 19.103 42.667 42.667 42.667h42.667c0 32.99 26.743 59.733 59.733 59.733s59.733-26.744 59.733-59.733h42.668c23.564 0 42.667-19.103 42.667-42.667v-23.252c0-27.308-16.275-51.989-41.375-62.747z" fill="#77b3ec"/><circle cx="256" cy="435.2" fill="#91ccff" r="25.6"/></g></svg>