<svg id="Capa_1" enable-background="new 0 0 512 512" height="512" viewBox="0 0 512 512" width="512" xmlns="http://www.w3.org/2000/svg"><g><path d="m315.786 0h-109.334c-38.848 0-69.31 33.357-65.793 72.045l9.967 109.632h220.988l6.757-74.323-5.368-18.925 8.371-14.107.207-2.277c3.516-38.688-26.947-72.045-65.795-72.045z" fill="#615260"/><path d="m206.452 57.806v-57.806h-10.238c-38.848 0-69.31 33.357-65.793 72.045l.207 2.277 9.654 15.788-6.651 17.244 6.757 74.323h66.065l16.516-107.355c-9.123.001-16.517-7.394-16.517-16.516z" fill="#4e3d4d"/><path d="m207.953 107.355h170.416l3.003-33.032h-59.712l-122.862 11.64z" fill="#ffd18d"/><path d="m223.036 90.839h115.545l-24.774-16.516h-183.179l3.003 33.032h74.323c-.807-8.869 6.176-16.516 15.082-16.516z" fill="#fbbd80"/><path d="m333.424 352.609-1.834-.539c-10.544-3.101-17.784-12.778-17.784-23.768v-20.592l-98.418.996-35.648 78.806 150.887 2.915z" fill="#e29a6c"/><path d="m198.194 272.516v55.787c0 10.99-7.24 20.666-17.784 23.766l-1.834.539 6.497 15.303c17.452-5.133 29.637-21.419 29.637-39.609 0-7.799 7.57-12.57 14.994-10.18 8.47 2.727 17.258 3.942 26.296 3.942 20.89 0 40.542-5.222 57.806-14.354v-35.194z" fill="#d48c64"/><path d="m418.626 377.668-85.202-25.059c-21.214 17.024-48.108 27.263-77.424 27.263-22.291 0-43.181-5.919-61.239-16.24l-16.185-3.648-74.695 25.059c-21.087 6.202-35.568 25.555-35.568 47.535v54.649l6.005 23.363c2.584.914 5.365 1.411 8.262 1.411h33.032l49.548-16.516h173.419l57.808 16.515h33.032c13.682 0 24.774-11.092 24.774-24.774v-62.023c.001-21.98-14.48-41.333-35.567-47.535z" fill="#ffd18d"/><path d="m194.761 363.631c-5.648-3.236-11.137-6.971-16.185-11.023l-85.202 25.059c-21.087 6.202-35.568 25.555-35.568 47.535v62.023c0 10.771 6.916 19.939 16.516 23.352v-85.376c0-14.548 9.75-27.581 23.71-31.685l87.04-25.605c3.445-1.013 6.708-2.469 9.689-4.28z" fill="#fbbd80"/><path d="m163.158 341.146-16.516 4.129c-3.676.919-6.255 4.222-6.255 8.012v76.133h33.032v-80.262c0-5.373-5.049-9.315-10.261-8.012z" fill="#736572"/><path d="m348.842 341.146 16.516 4.129c3.676.919 6.255 4.222 6.255 8.012v76.133h-33.032v-80.262c0-5.373 5.049-9.315 10.261-8.012z" fill="#736572"/><path d="m371.613 412.903h-231.226c-13.682 0-24.774 11.092-24.774 24.774l6.172 9.249-6.172 7.268v24.774l7.405 8.763-7.405 7.753v16.516h280.774v-16.516l-5.674-7.753 5.674-8.763v-24.774l-5.674-6.371 5.674-10.145c0-13.683-11.092-24.775-24.774-24.775z" fill="#615260"/><path d="m374.564 165.161h-11.21c-9.122 0-16.516-7.395-16.516-16.516v-24.774l-37.438-14.768-133.472 6.231-9.416 91.118c4.23 55.419 32.985 96.986 89.487 96.986 5.703 0 11.301 1.666 16.762.809 48.641-7.635 86.373-47.969 90.176-97.795h12.804c12.105 0 21.776-10.417 20.538-22.775-1.075-10.746-10.916-18.516-21.715-18.516z" fill="#f4aa73"/><path d="m181.677 198.194v-49.548c0-13.682 11.092-24.774 24.774-24.774h140.387v-16.516h-181.677v41.29c0 9.122-7.395 16.516-16.516 16.516h-11.21c-10.799 0-20.64 7.77-21.716 18.515-1.238 12.358 8.433 22.775 20.538 22.775h12.804c4.23 55.419 50.435 99.097 106.938 99.097 5.649 0 11.35-.461 16.762-1.302-51.453-7.941-91.084-52.377-91.084-106.053z" fill="#e29a6c"/><path d="m206.452 189.935c-4.565 0-8.258-3.698-8.258-8.258v-8.258c0-4.56 3.694-8.258 8.258-8.258s8.258 3.698 8.258 8.258v8.258c0 4.561-3.694 8.258-8.258 8.258z" fill="#4e3d4d"/><path d="m305.548 189.935c-4.565 0-8.258-3.698-8.258-8.258v-8.258c0-4.56 3.694-8.258 8.258-8.258 4.565 0 8.258 3.698 8.258 8.258v8.258c0 4.561-3.693 8.258-8.258 8.258z" fill="#4e3d4d"/><path d="m256 247.742c-12.387 0-23.823-3.976-30.573-10.637-3.25-3.202-3.282-8.431-.081-11.677 3.202-3.25 8.444-3.282 11.677-.081 2.75 2.714 9.371 5.879 18.976 5.879s16.226-3.165 18.976-5.879c3.234-3.202 8.476-3.169 11.677.081 3.202 3.246 3.169 8.476-.081 11.677-6.748 6.661-18.184 10.637-30.571 10.637z" fill="#d48c64"/><g fill="#615260"><path d="m214.71 156.903h-16.516c-4.565 0-8.258-3.698-8.258-8.258s3.694-8.258 8.258-8.258h16.516c4.565 0 8.258 3.698 8.258 8.258s-3.694 8.258-8.258 8.258z"/><path d="m313.806 156.903h-16.516c-4.565 0-8.258-3.698-8.258-8.258s3.694-8.258 8.258-8.258h16.516c4.565 0 8.258 3.698 8.258 8.258s-3.693 8.258-8.258 8.258z"/><path d="m322.073 132.125c-2.863 0-5.645-1.488-7.169-4.145-.315-.536-31.484-53.657-83.677-53.657-4.565 0-8.258-3.698-8.258-8.258s3.694-8.258 8.258-8.258c61.887 0 96.565 59.435 98.008 61.968 2.258 3.956.887 8.988-3.065 11.254-1.291.741-2.702 1.096-4.097 1.096z"/><path d="m355.097 144.048c-4.565 0-8.258-3.698-8.258-8.258 0-19.222-8.339-37.46-22.887-50.036-14.484-12.52-38.282-28.609-69.403-34.157-4.492-.798-7.476-5.089-6.677-9.577s5.024-7.524 9.581-6.681c27.556 4.911 54.29 18.024 77.306 37.923 18.169 15.714 28.597 38.504 28.597 62.528-.001 4.561-3.695 8.258-8.259 8.258z"/></g><path d="m115.613 478.968h280.774v16.516h-280.774z" fill="#736572"/><path d="m115.613 437.677h280.774v16.516h-280.774z" fill="#736572"/></g></svg>