<svg id="Capa_1" enable-background="new 0 0 512 512" height="512" viewBox="0 0 512 512" width="512" xmlns="http://www.w3.org/2000/svg"><g><path d="m338.581 379.871h-165.162c-18.243 0-33.032-14.789-33.032-33.032 0-18.243 14.789-33.032 33.032-33.032h165.161c18.243 0 33.032 14.789 33.032 33.032.001 18.243-14.788 33.032-33.031 33.032z" fill="#4e3d4d"/><path d="m352.149 374.632-20.559-6.047c-10.543-3.101-17.784-12.777-17.784-23.768v-28.849h-107.541v28.849c0 10.99-7.24 20.667-17.784 23.768l-22.418 6.593v48.426h186.086z" fill="#887f88"/><path d="m418.626 394.184-54.001-15.883-108.625 51.118-108.626-51.118-46.778 19.744c-21.087 6.202-35.424 21.693-35.424 43.674v45.507l9.14 23.361c2.586.915 5.369 1.413 8.268 1.413h49.548l29.898-10.374 36.168 10.374h49.548l8.898-7.684 7.618 7.684h49.548l30.72-9.029 35.345 9.029h49.548c13.682 0 24.774-11.092 24.774-24.774v-45.507c.001-21.98-14.479-41.333-35.567-47.535z" fill="#77b3ec"/><path d="m198.194 272.516v72.301c0 10.99-7.24 20.666-17.784 23.768l-6.845 2.014 5.783 15.513 5.725-1.684c17.571-5.169 29.637-21.296 29.637-39.611v-.243c0-10.47 9.562-18.019 19.867-16.167 6.953 1.25 14.106 1.917 21.423 1.917 20.89 0 40.542-5.222 57.806-14.354v-43.452h-115.612z" fill="#736572"/><path d="m98.032 410.032 71.853-21.137-22.511-10.594-54.001 15.883c-21.087 6.202-35.568 25.555-35.568 47.535v45.507c0 10.771 6.906 19.948 16.506 23.361l.01-68.865c.002-14.653 9.654-27.555 23.711-31.69z" fill="#5e9ad8"/><path d="m346.839 297.29h-33.032v24.774h30.835c17.975 0 25.034 23.313 10.078 33.284l-75.815 50.543c-13.869 9.246-31.938 9.246-45.807 0l-75.815-50.543c-14.956-9.971-7.898-33.284 10.078-33.284h30.835v-24.774h-33.032c-26.469 0-48.923 20.788-49.522 47.25-1.263 55.78 43.577 101.395 99.071 101.395h24.774c4.561 0 8.258 3.697 8.258 8.258v57.807h16.516v-57.806c0-4.561 3.697-8.258 8.258-8.258h24.774c55.494 0 100.334-45.615 99.071-101.395-.602-26.463-23.056-47.251-49.525-47.251z" fill="#91ccff"/><path d="m256 0c-4.488 0-8.916.268-13.28.733-62.166 6.628-86.746 109.215-86.746 123.138h223.897c0-68.412-55.459-123.871-123.871-123.871z" fill="#91ccff"/><path d="m242.72.733c-62.163 6.63-110.591 59.215-110.591 123.138h49.548v-16.516c0-45.449 24.552-85.07 61.043-106.622z" fill="#77b3ec"/><path d="m256 312.625c-59.291 0-93.3-46.883-93.3-106.173v-24.774h200.655v24.774c0 53.546-39.569 97.857-90.839 105.955-5.5.869-10.772.218-16.516.218z" fill="#b8b2b8"/><path d="m181.677 206.452v-24.774h-33.032v24.774c0 59.29 48.065 107.355 107.355 107.355 5.632 0 11.118-.564 16.516-1.4-51.428-7.963-90.839-52.297-90.839-105.955z" fill="#b0a8af"/><path d="m162.364 155.349 11.056 55.232 15.902 6.626c19.222 8.009 41.4.452 51.731-17.629l.607-1.064c6.341-11.096 22.34-11.096 28.68 0l.607 1.064c10.332 18.08 32.51 25.638 51.731 17.629l32.418-13.508 11.064-48.35z" fill="#b8ddff"/><path d="m363.355 148.645h-206.452l-11.691 25.537 11.691 29.517 16.516 6.882v-28.903c0-9.122 7.395-16.516 16.516-16.516h165.161z" fill="#91ccff"/><path d="m156.903 148.645h-33.032v30.28c0 6.668 4.009 12.681 10.164 15.246l22.868 9.528z" fill="#c9c5c9"/><path d="m355.097 148.645h33.032v30.28c0 6.668-4.009 12.681-10.164 15.246l-22.868 9.528z" fill="#dbd8db"/><path d="m206.452 198.194c-4.565 0-8.258-3.698-8.258-8.258v-8.258c0-4.56 3.694-8.258 8.258-8.258s8.258 3.698 8.258 8.258v8.258c0 4.56-3.694 8.258-8.258 8.258z" fill="#fff"/><path d="m305.548 198.194c-4.565 0-8.258-3.698-8.258-8.258v-8.258c0-4.56 3.694-8.258 8.258-8.258 4.565 0 8.258 3.698 8.258 8.258v8.258c0 4.56-3.693 8.258-8.258 8.258z" fill="#fff"/><path d="m206.452 478.968h-82.581c-4.561 0-8.258 3.697-8.258 8.258v8.258c0 9.122 7.395 16.516 16.516 16.516h66.065c9.122 0 16.516-7.395 16.516-16.516v-8.258c0-4.561-3.698-8.258-8.258-8.258z" fill="#91ccff"/><path d="m388.129 478.968h-82.581c-4.561 0-8.258 3.697-8.258 8.258v8.258c0 9.122 7.395 16.516 16.516 16.516h66.065c9.122 0 16.516-7.395 16.516-16.516v-8.258c0-4.561-3.697-8.258-8.258-8.258z" fill="#91ccff"/><path d="m379.871 107.354h-66.748c-6.077 0-11.428-3.471-14.524-8.701-8.62-14.558-24.452-24.331-42.599-24.331s-33.979 9.773-42.599 24.331c-3.096 5.229-8.447 8.701-14.524 8.701l-17.2.001c-4.561 0-8.258 3.697-8.258 8.258l8.258 33.032h206.452v-33.032c0-4.562-3.698-8.259-8.258-8.259z" fill="#b8b2b8"/><path d="m256 123.871c-4.565 0-8.258-3.698-8.258-8.258v-8.258c0-4.56 3.694-8.258 8.258-8.258s8.258 3.698 8.258 8.258v8.258c0 4.56-3.693 8.258-8.258 8.258z" fill="#91ccff"/><path d="m181.677 107.354h-49.547c-4.561 0-8.258 3.697-8.258 8.258v33.032h57.806v-41.29z" fill="#b0a8af"/></g></svg>