<svg id="Capa_1" enable-background="new 0 0 512 512" height="512" viewBox="0 0 512 512" width="512" xmlns="http://www.w3.org/2000/svg"><g><path d="m379.871 181.677h-123.871v-165.161h24.774c54.73 0 99.097 44.367 99.097 99.097l-5.272 13.079 5.272 3.82z" fill="#887f88"/><path d="m379.871 115.613-45.444 13.573c-4.363 1.339-6.815 5.96-5.476 10.315 1.089 3.556 4.363 5.839 7.895 5.839.798 0 1.613-.113 2.419-.363l40.605-12.464v-16.9z" fill="#736572"/><path d="m231.226 16.516c-40.038 0-74.531 23.745-90.164 57.921l-5.647 15.772c-2.144 8.108-3.286 16.622-3.286 25.404l7.48 10.136-7.48 6.8v49.128h123.871v-165.161z" fill="#615260"/><path d="m135.415 90.209 58.77 32.622c1.266.71 2.645 1.04 4 1.04 2.903 0 5.718-1.532 7.226-4.25 2.218-3.984.782-9.008-3.21-11.226l-61.14-33.958c-2.306 5.043-4.203 10.317-5.646 15.772z" fill="#4e3d4d"/><path d="m172.065 144.806c.806.25 1.621.363 2.419.363 3.532 0 6.806-2.282 7.895-5.839 1.339-4.355-1.113-8.976-5.476-10.315l-44.774-13.403v16.936z" fill="#4e3d4d"/><path d="m189.935 362.473-97.36 30.425c-20.685 6.464-27.625 25.621-27.625 47.293v47.035l9.372 23.311c2.588.917 5.356 1.463 8.258 1.463h123.871l8.258-107.355z" fill="#736572"/><path d="m322.065 355.097 97.36 30.425c20.685 6.464 34.769 25.621 34.769 47.293v54.411c0 13.682-11.092 24.774-24.774 24.774h-123.872l-8.258-107.355z" fill="#736572"/><path d="m408.472 253.105h-304.944c-.191 1.578.024 3.174.836 4.73l55.627 106.619-67.415 21.067c-20.685 6.464-34.769 25.621-34.769 47.293v54.411c0 10.771 6.916 19.898 16.516 23.31v-77.722c0-14.524 9.315-27.194 23.177-31.524l70.254-21.956 30.44 58.343-8.407 16.814c-5.051 10.101-4.591 22.083 1.22 31.768l15.445 25.742h41.29l7.106-5.447 9.41 5.447h41.29l15.445-25.741c5.81-9.684 6.271-21.666 1.22-31.768l-8.407-16.814 93.83-179.842c.798-1.528 1.008-3.177.836-4.73z" fill="#615260"/><path d="m256 437.677 152.472-184.572c-.399-3.494-2.971-6.597-6.799-7.235l-87.866-14.644h-115.613l-87.866 14.644c-3.829.638-6.4 3.741-6.799 7.235z" fill="#4e3d4d"/><path d="m214.71 387.694 34.924 42.276c3.303 3.998 9.43 3.998 12.733 0l51.44-62.269v-51.733l-101.557 2.818z" fill="#ffd18d"/><path d="m198.194 367.701 16.516 19.993v-43.121c0-10.47 9.562-18.019 19.867-16.167 6.953 1.249 14.106 1.917 21.423 1.917 20.89 0 40.542-5.222 57.806-14.354v-26.936h-115.612z" fill="#fbbd80"/><path d="m375.742 173.419h-13.801c-3.912 0-7.257-2.725-8.078-6.549-3.492-16.284-23.681-67.914-56.573-100.805h-72.86c-53.882 60.694-59.263 148.645-59.263 148.645 4.23 55.418 30.599 96.005 87.102 96.005 5.752 0 15.128 2.639 20.632 1.768 48.572-7.69 86.231-47.996 90.031-97.773h11.631c10.8 0 20.641-7.771 21.717-18.517 1.238-12.358-8.433-22.774-20.538-22.774z" fill="#ffe09c"/><path d="m181.677 206.452v-24.774c0-47.98 24.105-90.292 60.828-115.613h-27.795c-32.892 32.892-53.08 84.522-56.573 100.805-.821 3.824-4.166 6.549-8.078 6.549h-13.802c-12.104 0-21.775 10.415-20.537 22.773 1.076 10.746 10.917 18.517 21.717 18.517h11.63c4.23 55.418 50.43 99.097 106.933 99.097 5.649 0 11.491-.483 16.901-1.324-51.453-7.94-91.224-52.353-91.224-106.03z" fill="#ffd18d"/><path d="m272.516 256h-33.032c-4.565 0-8.258-3.694-8.258-8.258 0-4.565 3.694-8.258 8.258-8.258h33.032c4.565 0 8.258 3.694 8.258 8.258s-3.693 8.258-8.258 8.258z" fill="#fbbd80"/><path d="m206.452 198.194c-4.565 0-8.258-3.694-8.258-8.258v-8.258c0-4.565 3.694-8.258 8.258-8.258s8.258 3.694 8.258 8.258v8.258c0 4.564-3.694 8.258-8.258 8.258z" fill="#4e3d4d"/><path d="m305.548 198.194c-4.565 0-8.258-3.694-8.258-8.258v-8.258c0-4.565 3.694-8.258 8.258-8.258 4.565 0 8.258 3.694 8.258 8.258v8.258c0 4.564-3.693 8.258-8.258 8.258z" fill="#4e3d4d"/><g fill="#736572"><path d="m222.968 173.419c-.863 0-1.742-.137-2.613-.427l-24.774-8.258c-4.323-1.435-6.661-6.113-5.218-10.444 1.444-4.323 6.073-6.669 10.444-5.218l24.774 8.258c4.323 1.435 6.661 6.113 5.218 10.444-1.154 3.46-4.372 5.645-7.831 5.645z"/><path d="m289.032 173.419c-3.46 0-6.677-2.185-7.831-5.645-1.444-4.331.895-9.008 5.218-10.444l24.774-8.258c4.355-1.452 9 .895 10.444 5.218 1.444 4.331-.895 9.008-5.218 10.444l-24.774 8.258c-.871.29-1.75.427-2.613.427z"/><path d="m346.441 20.277c-15.014-7.141-48.349-20.277-90.441-20.277s-75.427 13.136-90.441 20.277c-4.812 2.289-6.076 8.4-2.801 12.603 17.266 22.167 40.703 38.769 59.76 49.804l13.945.438 2.83 8.512c3.969 1.952 7.394 3.535 10.097 4.719 4.241 1.858 8.978 1.858 13.219 0 16.331-7.155 59.245-28.313 86.632-63.474 3.275-4.203 2.012-10.313-2.8-12.602z"/><path d="m262.366 429.97c-3.302 3.998-9.43 3.998-12.733 0l-1.892-2.29v84.32h16.516v-84.32z"/></g><path d="m289.653 28.395c-21.597 26.275-49.004 44.466-67.135 54.29 6.396 3.721 11.733 6.473 16.776 8.951 18.802-11.115 43.155-28.471 63.117-52.757 2.895-3.524 2.387-8.726-1.137-11.621-3.524-2.911-8.734-2.387-11.621 1.137z" fill="#887f88"/></g></svg>