<svg id="Capa_1" enable-background="new 0 0 512 512" height="512" viewBox="0 0 512 512" width="512" xmlns="http://www.w3.org/2000/svg"><g><path d="m102.393 377.668c-21.087 6.202-35.567 25.555-35.567 47.535l.643 35.619 72.918 51.178h231.226l82.581-66.065v-20.732c0-21.98-14.481-41.333-35.568-47.535l-66.747-19.631z" fill="#ffd18d"/><path d="m152.561 360.26-59.188 17.408c-21.087 6.202-35.568 25.555-35.568 47.535v20.732c0 10.771 6.916 19.844 16.516 23.257v-43.991c0-14.548 9.75-27.581 23.71-31.685l61.413-18.066z" fill="#fbbd80"/><path d="m437.677 445.935-43.712 19.146-22.352 46.919h57.806c13.682 0 24.774-11.092 24.774-24.774v-41.29h-16.516z" fill="#fbbd80"/><path d="m256 404.645-17.741 35.214 17.741 37.217c1.682 0 3.365-.513 4.801-1.539l103.899-74.244c4.339-3.1 6.913-8.105 6.913-13.437v-32.76z" fill="#ff8086"/><path d="m140.387 355.097v32.759c0 5.333 2.575 10.337 6.914 13.438l103.898 74.243c1.436 1.026 3.118 1.539 4.801 1.539v-72.43z" fill="#ff646f"/><path d="m338.581 371.613v-17.488l-6.99-2.056c-10.543-3.101-17.784-12.777-17.784-23.768v-16.672l-108.842.772v25.223l-31.546 33.989 82.581 33.032z" fill="#fbbd80"/><path d="m270.774 333.145 43.032-21.516v-39.113h-115.612v55.786c0 10.99-7.24 20.666-17.784 23.767l-6.99 2.056 4.661 15.847 6.992-2.06c17.573-5.179 29.637-21.311 29.637-39.631 0-3.856 4.058-6.364 7.507-4.64l19.009 9.505c4.629 2.31 9.702 3.468 14.774 3.468 5.073-.001 10.145-1.158 14.774-3.469z" fill="#f4aa73"/><path d="m385.022 68.435-195.087-58.525c-30.371 6.165-54.689 28.997-62.992 58.534l96.024 237.105 25.646 12.823c4.65 2.325 10.122 2.325 14.772 0l56.935-28.468c11.191-5.595 18.26-17.033 18.26-29.545v-20.294c0-5.522 2.76-10.679 7.355-13.742l27.484-18.323c9.19-6.126 14.709-16.44 14.709-27.484v-89.677c.001-7.768-1.101-15.278-3.106-22.404z" fill="#ffd18d"/><path d="m322.065 9.91h-119.454l-12.675 18.019v65.71l62.975 25.191c1.969.788 4.165.788 6.134 0l125.977-50.395c-8.308-29.526-32.594-52.361-62.957-58.525z" fill="#ffe09c"/><path d="m259.045 118.83 33.676-13.471c-6.804-13.459-20.61-22.778-36.721-22.778-16.117 0-29.927 9.326-36.729 22.792l33.64 13.457c1.969.787 4.165.787 6.134 0z" fill="#ff8086"/><path d="m212.585 191.63-12.266-4.906c-6.271-2.508-10.383-8.582-10.383-15.335v-77.751l-62.992-25.194c-2.003 7.123-3.073 14.632-3.073 22.395v89.676c0 11.044 5.52 21.358 14.709 27.484l27.484 18.323c4.595 3.063 7.355 8.22 7.355 13.742v20.294c0 12.512 7.069 23.949 18.26 29.545l31.289 15.645v-98.584c0-6.753-4.112-12.826-10.383-15.334z" fill="#fbbd80"/><path d="m282.823 374.079c-16.799 8.8-36.846 8.8-53.645 0l-139.073-72.847c-3.422-1.793-7.524.69-7.524 4.553v15.904c0 6.144 3.41 11.78 8.853 14.631l164.566 86.201 164.567-86.201c5.442-2.851 8.853-8.487 8.853-14.631v-15.904c0-3.863-4.102-6.345-7.524-4.553z" fill="#ffe09c"/><path d="m404.645 445.935c-18.243 0-33.032 14.789-33.032 33.032v33.033l66.065-66.065z" fill="#ff8086"/><path d="m211.017 43.573-16.517-8.258c-2.798-1.399-4.565-4.258-4.565-7.386v-19.671c0-4.561 3.697-8.258 8.258-8.258h16.516c4.561 0 8.258 3.697 8.258 8.258v27.928c.001 6.139-6.46 10.132-11.95 7.387z" fill="#fbbd80"/><path d="m300.983 43.573 16.516-8.258c2.798-1.399 4.565-4.258 4.565-7.386v-19.671c0-4.561-3.697-8.258-8.258-8.258h-16.516c-4.561 0-8.258 3.697-8.258 8.258v27.928c0 6.139 6.461 10.132 11.951 7.387z" fill="#fbbd80"/><path d="m355.097 140.387v-12.118c0-5.792-5.802-9.775-11.186-7.638-21.004 8.336-65.68 26.14-81.882 32.599-3.891 1.551-8.167 1.551-12.058 0-16.203-6.458-60.878-24.262-81.882-32.599-5.384-2.137-11.186 1.846-11.186 7.638v12.119c0 6.753 4.112 12.826 10.382 15.335l67.008 26.803c3.135 1.254 5.191 4.291 5.191 7.667v101.995c0 3.128 1.767 5.987 4.565 7.386l4.565 2.283c4.65 2.325 10.123 2.325 14.772 0l4.565-2.283c2.798-1.399 4.565-4.258 4.565-7.386v-101.996c0-3.377 2.056-6.413 5.191-7.667l67.008-26.803c6.27-2.509 10.382-8.582 10.382-15.335z" fill="#ff8086"/><path d="m120.553 470.294-46.231-24.359-9.931 40.669 9.916 23.98c2.587.916 5.372 1.415 8.274 1.415h57.806z" fill="#fbbd80"/><path d="m107.355 445.935c18.243 0 33.032 14.789 33.032 33.032v33.033l-66.065-66.065z" fill="#ff8086"/><path d="m74.307 510.585.016-64.649h-16.517v41.29c0 10.771 6.901 19.946 16.501 23.359z" fill="#f4aa73"/></g></svg>