<svg id="Capa_1" enable-background="new 0 0 512 512" height="512" viewBox="0 0 512 512" width="512" xmlns="http://www.w3.org/2000/svg"><g><path d="m134.095 146.286h-56.889c-4.492 0-8.127-3.639-8.127-8.127s3.635-8.127 8.127-8.127h56.889c4.492 0 8.127 3.639 8.127 8.127s-3.635 8.127-8.127 8.127z" fill="#9ae59c"/><path d="m312.889 355.598v-20.264l-103.915 3.188-15.004 60.897 105.908 45.452 20.837-71.373c-4.873-4.509-7.826-10.937-7.826-17.9z" fill="#845252"/><path d="m199.111 308.825v46.773c0 6.969-2.958 13.401-7.839 17.912l10.199 12.686c8.626-7.544 13.893-18.592 13.893-30.596 0-6.487 6.105-11.057 12.409-9.531 9.056 2.192 18.493 3.392 28.226 3.392 20.559 0 39.899-5.139 56.889-14.126v-26.508h-113.777z" fill="#7a4646"/><path d="m416.045 404.181-62.008-18.238-101.817 29.804-68.62-25.263-80.321 13.698c-20.752 6.104-35.003 25.149-35.003 46.78v36.658l8.93 22.972c2.544.9 5.275 1.409 8.127 1.409h341.333c13.465 0 24.381-10.916 24.381-24.381v-36.658c.001-21.632-14.25-40.677-35.002-46.781z" fill="#6fd6a2"/><path d="m157.963 385.943-62.008 18.238c-20.752 6.104-35.003 25.149-35.003 46.78v36.658c0 10.6 6.806 19.614 16.254 22.973v-59.632c0-14.317 9.595-27.143 23.333-31.183l85.651-25.194z" fill="#3ec2a3"/><path d="m330.39 378.989c-3.69-1.085-6.981-3-9.675-5.49-17.231 15.342-39.829 24.723-64.716 24.723-18.992 0-36.657-5.457-51.619-14.86l-33.335 15.638c22.778 19.743 52.442 31.73 84.955 31.73 39.165 0 74.197-17.394 98.037-44.787z" fill="#9ae59c"/><path d="m377.905 162.54-226.739-9.356v41.864l16.254 32.508c0 58.349 30.231 104.43 88.58 104.43 6.995 0 20.447-.757 20.447-.757 48.564-9.523 85.203-52.32 85.203-103.674l16.254-32.508v-32.507z" fill="#a46a5a"/><path d="m272.254 211.302c-3.881 0-7.135-2.726-7.936-6.365-1.19-.722-4.079-1.762-8.317-1.762s-7.127 1.04-8.317 1.762c-.802 3.639-4.056 6.365-7.937 6.365-4.492 0-8.127-3.639-8.127-8.127 0-9.417 10.254-16.254 24.381-16.254s24.381 6.837 24.381 16.254c-.001 4.488-3.636 8.127-8.128 8.127z" fill="#9e959e"/><path d="m377.905 162.54v-16.254l-10.069-6.782h-221.634l-12.106 6.782v48.762l16.254 32.508c0 58.349 47.302 105.651 105.651 105.651 6.955 0 13.868-.694 20.447-1.977-48.621-9.478-85.463-52.279-85.463-103.674v-48.762c0-8.977 7.277-16.254 16.254-16.254z" fill="#845252"/><path d="m142.222 178.794h40.635v16.254h-40.635z" fill="#9e959e"/><path d="m329.143 178.794h40.635v16.254h-40.635z" fill="#9e959e"/><path d="m211.444 211.302c-4.492 0-8.127-3.639-8.127-8.127v-16.254c0-4.488 3.635-8.127 8.127-8.127s8.127 3.639 8.127 8.127v16.254c0 4.488-3.634 8.127-8.127 8.127z" fill="#4e3d4d"/><path d="m256 276.317c-12.19 0-23.444-3.913-30.087-10.468-3.198-3.151-3.23-8.298-.079-11.492 3.151-3.198 8.31-3.23 11.492-.079 2.706 2.671 9.222 5.786 18.675 5.786 9.452 0 15.968-3.115 18.675-5.786 3.183-3.151 8.341-3.119 11.492.079 3.151 3.194 3.119 8.341-.079 11.492-6.645 6.556-17.899 10.468-30.089 10.468z" fill="#7a4646"/><path d="m312.889 40.635h-113.778c-8.63 0-16.846 1.635-24.381 4.688l-28.529 96.387h231.703v-36.059c.001-35.907-29.108-65.016-65.015-65.016z" fill="#9ae59c"/><path d="m288.508 130.032 16.254 16.254h73.143v-16.254z" fill="#6fd6a2"/><path d="m174.73 45.323c-23.817 9.649-40.635 33.049-40.635 60.328v40.635h73.143l16.254-16.254h-32.508c-8.977 0-16.254-7.277-16.254-16.254z" fill="#6fd6a2"/><path d="m272.254 81.27h-32.508c-17.954 0-32.508 14.554-32.508 32.508l24.381 16.254h48.762l24.381-16.254c0-17.954-14.554-32.508-32.508-32.508z" fill="#845252"/><path d="m304.762 130.032-84.756 7.044 3.486-23.298h81.27z" fill="#615260"/><path d="m223.492 113.778h-16.254v32.508h97.524v-16.254h-65.016c-8.977 0-16.254-7.277-16.254-16.254z" fill="#4e3d4d"/><path d="m215.365 235.683h-8.127c-17.929 0-32.508-14.583-32.508-32.508v-16.254c0-4.488 3.635-8.127 8.127-8.127h48.762c8.96 0 16.254 7.29 16.254 16.254v8.127c0 17.924-14.579 32.508-32.508 32.508zm-24.381-40.635v8.127c0 8.964 7.294 16.254 16.254 16.254h8.127c8.96 0 16.254-7.29 16.254-16.254v-8.127z" fill="#b8b2b8"/><path d="m300.556 211.302c-4.492 0-8.127-3.639-8.127-8.127v-16.254c0-4.488 3.635-8.127 8.127-8.127s8.127 3.639 8.127 8.127v16.254c0 4.488-3.635 8.127-8.127 8.127z" fill="#4e3d4d"/><path d="m304.762 235.683h-8.127c-17.929 0-32.508-14.583-32.508-32.508v-8.127c0-8.964 7.294-16.254 16.254-16.254h48.762c4.492 0 8.127 3.639 8.127 8.127v16.254c0 17.924-14.58 32.508-32.508 32.508zm-24.381-40.635v8.127c0 8.964 7.294 16.254 16.254 16.254h8.127c8.96 0 16.254-7.29 16.254-16.254v-8.127z" fill="#b8b2b8"/><path d="m418.54 195.048h-16.254v-89.397c0-49.294-40.103-89.397-89.397-89.397l-56.889-8.127-56.889 8.127c-49.294 0-89.397 40.103-89.397 89.397v89.397h-16.254v-89.397c0-58.258 47.397-105.651 105.651-105.651l56.889 8.127 56.889-8.127c58.254 0 105.651 47.393 105.651 105.651z" fill="#887f88"/><path d="m190.984 325.079h-24.381c-35.849 0-65.016-29.167-65.016-65.016v-16.253h16.254v16.254c0 26.889 21.873 48.762 48.762 48.762h24.381z" fill="#887f88"/><path d="m410.413 186.921-8.127 8.127v40.635l8.127 8.127 16.254-8.127v-32.508c0-8.978-7.278-16.254-16.254-16.254z" fill="#b8b2b8"/><path d="m410.413 186.921h-24.381v65.016h24.381c8.977 0 16.254-7.277 16.254-16.254-8.977 0-16.254-7.277-16.254-16.254z" fill="#9e959e"/><path d="m377.905 178.794h8.127c4.488 0 8.127 3.639 8.127 8.127v56.889c0 4.488-3.639 8.127-8.127 8.127h-16.254v-65.016c0-4.489 3.638-8.127 8.127-8.127z" fill="#615260"/><path d="m394.159 243.81c-8.977 0-16.254-7.277-16.254-16.254v-48.762h-8.127c-4.488 0-8.127 3.639-8.127 8.127v65.016c0 4.488 3.639 8.127 8.127 8.127h16.254c4.488 0 8.127-3.639 8.127-8.127z" fill="#4e3d4d"/><path d="m199.111 0h113.778v16.254h-113.778z" fill="#615260"/><path d="m117.841 243.81-16.254-56.889c-8.977 0-16.254 7.277-16.254 16.254v32.508z" fill="#b8b2b8"/><path d="m101.587 186.921v32.508c0 8.977-7.277 16.254-16.254 16.254 0 8.977 7.277 16.254 16.254 16.254h32.508v-65.016z" fill="#9e959e"/><path d="m134.095 178.794h8.127c4.488 0 8.127 3.639 8.127 8.127v56.889c0 4.488-3.639 8.127-8.127 8.127h-16.254v-65.016c0-4.489 3.639-8.127 8.127-8.127z" fill="#615260"/><path d="m150.349 243.81c-8.977 0-16.254-7.277-16.254-16.254v-48.762h-8.127c-4.488 0-8.127 3.639-8.127 8.127v65.016c0 4.488 3.639 8.127 8.127 8.127h16.254c4.488 0 8.127-3.639 8.127-8.127z" fill="#4e3d4d"/><path d="m207.238 300.698h-8.127c-8.977 0-16.254 7.277-16.254 16.254 0 8.977 7.277 16.254 16.254 16.254h8.127c8.977 0 16.254-7.277 16.254-16.254 0-8.976-7.277-16.254-16.254-16.254z" fill="#615260"/><path d="m171.045 399 15.145-4.417c9.987-3.19 18.191-11.221 18.191-11.221-7.009-4.247-13.111-9.851-13.111-9.851-2.693 2.489-5.971 4.392-9.661 5.477l-23.646 6.955c4.082 4.69 8.379 8.99 13.082 13.057z" fill="#6fd6a2"/></g></svg>