<svg id="Capa_1" enable-background="new 0 0 512 512" height="512" viewBox="0 0 512 512" width="512" xmlns="http://www.w3.org/2000/svg"><g><path d="m413.32 326.72-5.683-2.067-250.734-12.283-50.366 21.172c-19.581 7.12-32.615 25.729-32.615 46.565v107.12l8.659 23.344c2.585.914 5.36 1.43 8.258 1.43h330.323c13.682 0 24.774-11.092 24.774-24.774v-113.94c-.001-20.837-13.035-39.447-32.616-46.567z" fill="#ff646f"/><path d="m66.065 373.285v113.941c0 10.771 6.916 19.931 16.516 23.344v-137.288c0-13.839 8.734-26.315 21.742-31.04l58.226-21.169-59.183 3.944-4.685 1.704c-19.582 7.119-32.616 25.729-32.616 46.564z" fill="#fb4455"/><path d="m370.467 374.202c14.015-16.487 27.366-34.95 37.17-49.549l-52.54-19.105h-198.194l-37.805 19.741-5.856 13.721c8.345 11.354 18.085 23.589 28.131 35.142 4.499 5.174 5.423 12.591 2.094 18.585-2.757 4.963-3.852 10.969-2.504 17.309 1.995 9.384 9.705 16.991 19.114 18.866 6.754 1.346 13.134-.063 18.249-3.297 5.671-3.585 13.04-2.849 18.325 1.284 7.564 5.916 15.457 11.605 23.799 16.911 4.668 2.969 9.683 5.471 14.953 7.152 19.34 6.172 39.642 3.338 56.021-7.074 8.409-5.341 16.361-11.072 23.98-17.033 5.264-4.118 12.619-4.813 18.269-1.241 5.116 3.235 11.496 4.645 18.251 3.299 9.408-1.875 17.119-9.481 19.114-18.865 1.356-6.378.24-12.418-2.553-17.399-3.324-5.925-2.418-13.271 1.982-18.447z" fill="#eceaec"/><path d="m113.271 338.988 49.277-17.916-5.645-15.524-53.538 19.468c2.965 4.4 6.348 9.129 9.906 13.972z" fill="#dbd8db"/><path d="m388.992 235.903c-10.218-18.169-29.524-29.452-50.387-29.452h-165.21c-20.863 0-40.169 11.282-50.387 29.452-10.226 18.177-9.847 40.565.992 58.403 22.129 36.46 59.927 87.169 114.29 121.702 5.403 3.435 11.556 5.153 17.71 5.153s12.306-1.718 17.71-5.153c54.363-34.532 92.161-85.242 114.29-121.694 10.839-17.846 11.218-40.233.992-58.411z" fill="#ff8086"/><path d="m338.608 239.484h-165.216c-19.356 0-31.206 21.136-21.16 37.681 8.066 13.284 18.535 28.927 31.455 44.9l72.313 38.872 72.315-38.872c12.93-15.982 23.383-31.608 31.453-44.9 10.047-16.546-1.803-37.681-21.16-37.681z" fill="#fb4455"/><path d="m280.774 355.097h-40.272v-91.127l40.272 8.016v17.046l-5.745 9.017 5.745 7.499z" fill="#c9c5c9"/><path d="m256 276.347c8.374 0 16.725-1.509 24.774-4.36v-40.761h-49.548v107.355h16.516v-33.032h33.032v-16.516h-33.032v-13.231c2.745.321 5.498.545 8.258.545z" fill="#b8b2b8"/><path d="m185.797 156.903 20.654 87.535 28.08 11.232c13.782 5.513 29.156 5.513 42.938 0l40.348-16.139c12.541-5.016 20.764-17.162 20.764-30.669v-51.959z" fill="#dbd8db"/><g fill="#c9c5c9"><path d="m206.452 156.903h-33.032v51.959c0 13.507 8.223 25.653 20.765 30.669l12.268 4.907v-87.535z"/><path d="m231.226 214.71c-4.565 0-8.258-3.694-8.258-8.258v-13.637c0-4.565 3.694-8.258 8.258-8.258 4.565 0 8.258 3.694 8.258 8.258v13.637c0 4.564-3.694 8.258-8.258 8.258z"/><path d="m256 214.71c-4.565 0-8.258-3.694-8.258-8.258v-13.637c0-4.565 3.694-8.258 8.258-8.258s8.258 3.694 8.258 8.258v13.637c0 4.564-3.693 8.258-8.258 8.258z"/><path d="m280.774 214.71c-4.565 0-8.258-3.694-8.258-8.258v-13.637c0-4.565 3.694-8.258 8.258-8.258s8.258 3.694 8.258 8.258v13.637c0 4.564-3.693 8.258-8.258 8.258z"/></g><path d="m343.959 41.29c-14.285-24.659-40.894-41.29-71.443-41.29-76.406 0-88.512 47.393-88.512 47.393l-8.52 94.613 14.451 34.166 7.845 2.615c4.503 1.501 8.113 4.884 9.946 9.263 2.494 5.958 8.379 10.144 15.242 10.144h66.065c6.863 0 12.748-4.186 15.242-10.144 1.833-4.379 5.443-7.762 9.946-9.263l23.937-7.979c10.116-3.372 16.94-12.839 16.94-23.503v-60.15c0-2.993.814-5.931 2.354-8.497l14.916-24.861c3.303-5.504-.662-12.507-7.081-12.507z" fill="#eceaec"/><path d="m189.935 82.581c0-45.609 36.973-82.581 82.581-82.581h-33.032c-30.548 0-57.158 16.631-71.443 41.29h-21.327c-6.419 0-10.384 7.003-7.081 12.507l14.916 24.861c1.54 2.567 2.354 5.504 2.354 8.497v60.15c0 10.663 6.824 20.131 16.94 23.503l16.092 5.364z" fill="#dbd8db"/><circle cx="214.71" cy="123.871" fill="#ff646f" r="24.774"/><circle cx="297.29" cy="123.871" fill="#ff646f" r="24.774"/><path d="m256 173.419c-4.565 0-8.258-3.694-8.258-8.258v-8.258c0-4.565 3.694-8.258 8.258-8.258s8.258 3.694 8.258 8.258v8.258c0 4.565-3.693 8.258-8.258 8.258z" fill="#ff646f"/><path d="m280.774 322.065c-7.991 0-15.099 3.784-19.629 9.657-2.687 3.484-7.603 3.484-10.29 0-4.53-5.874-11.638-9.657-19.629-9.657h-47.539c18.901 23.364 43.024 47.458 72.313 66.065 29.288-18.607 53.414-42.701 72.315-66.065z" fill="#dbd8db"/><circle cx="214.71" cy="123.871" fill="#ff8086" r="8.258"/><circle cx="297.29" cy="123.871" fill="#ff8086" r="8.258"/></g></svg>