<svg id="Capa_1" enable-background="new 0 0 512 512" height="512" viewBox="0 0 512 512" width="512" xmlns="http://www.w3.org/2000/svg"><g><path d="m318.556 334.587c-2.999-4.13-4.749-9.172-4.749-14.544v-20.634l-109.175-12.122v79.815l105.221 18.4z" fill="#fbbd80"/><path d="m198.194 256v64.043c0 5.371-1.729 10.429-4.729 14.558l.705 11.91 11.279-.502c5.839-7.205 9.261-16.309 9.261-25.97 0-6.947 6.565-12.215 13.264-10.375 9.005 2.472 18.374 4.142 28.027 4.142 20.876 0 40.533-5.239 57.806-14.397v-43.409z" fill="#f4aa73"/><path d="m418.626 369.41-87.036-25.599c-5.391-1.586-9.897-4.904-13.034-9.224-15.144 17.588-37.526 28.768-62.556 28.768-19.062 0-36.589-6.484-50.551-17.345l-25.039 4.681-81.152 25.599c-21.087 6.202-35.568 25.555-35.568 47.535v63.401l10.623 23.361c2.586.915 5.368 1.413 8.268 1.413h41.29l16.516-28.986h236.655l11.087 28.986h41.29c13.682 0 24.774-11.092 24.774-24.774v-70.281c.001-21.98-14.48-41.333-35.567-47.535z" fill="#615260"/><path d="m98.032 385.258 87.048-25.597c8.199-2.418 15.165-7.359 20.321-13.741-4.343-3.386-8.347-7.148-11.937-11.318-3.138 4.32-7.664 7.623-13.055 9.209l-87.035 25.599c-21.087 6.202-35.568 25.555-35.568 47.535v70.281c0 10.771 6.916 19.921 16.516 23.333v-93.616c.001-14.651 9.654-27.552 23.71-31.685z" fill="#4e3d4d"/><path d="m346.839 388.129c0 27.365-30.442 49.548-57.806 49.548h-66.065c-27.365 0-57.806-22.183-57.806-49.548l-34.964-10.041 10.189 133.912h247.742v-140.387z" fill="#b8b2b8"/><path d="m123.871 371.613h16.516v140.387h-16.516z" fill="#9e959e"/><path d="m381.878 349.431-33.032-8.278c-5.213-1.306-10.265 2.636-10.265 8.01v22.449c0 27.365-22.184 49.548-49.548 49.548h-66.065c-27.365 0-49.548-22.184-49.548-49.548v-22.449c0-5.374-5.052-9.317-10.265-8.01l-22.767 5.705-7.499 10.583v14.171c0 54.73 35.35 90.551 90.08 90.551l66.065 8.546c54.73 0 99.097-44.367 99.097-99.097v-14.171c-.002-3.787-2.579-7.089-6.253-8.01z" fill="#dbd8db"/><path d="m256 295.359c-59.291 0-82.42-46.133-82.42-105.423v-49.548h189.775v49.548c0 52.226-37.293 95.741-86.701 105.37 0-.001-13.589.053-20.654.053z" fill="#ffd18d"/><path d="m189.935 189.935c0-9.122 7.395-16.516 16.516-16.516h156.903v-33.032h-214.71v49.548c0 59.29 48.065 107.355 107.355 107.355 7.067 0 13.968-.681 20.654-1.985-49.404-9.631-86.718-53.146-86.718-105.37z" fill="#fbbd80"/><path d="m149.366 166.555 7.537 138.993c9.121 0 16.516-7.395 16.516-16.516v-41.29l-8.247-8.209 8.247-8.307v-57.806z" fill="#e29a6c"/><path d="m173.419 173.419v-16.516l-16.516-8.258-16.516 8.258-21.151 63.453c-1.783 5.348 2.198 10.87 7.835 10.87h5.058l-21.151 63.453c-1.783 5.348 2.198 10.87 7.835 10.87h38.091v-41.29c0-9.122 7.395-16.516 16.516-16.516v-16.516h-16.516v-41.29c-.001-9.123 7.394-16.518 16.515-16.518z" fill="#d48c64"/><path d="m370.35 107.351c-7.946-51.448-52.419-90.835-106.092-90.835h-16.516c-11.252 0-22.1 1.731-32.291 4.941-43.511 13.706-53.641 118.93-53.641 118.93h172.186z" fill="#f4aa73"/><path d="m206.452 107.355c-9.122 0-16.516-7.395-16.516-16.516 0-26.455 9.65-50.668 25.515-69.381-43.487 13.72-75.063 54.392-75.063 102.413v16.516h231.226v-16.516c0-5.632-.448-11.118-1.284-16.516z" fill="#e29a6c"/><path d="m264.258 0h-8.258c-4.561 0-8.258 3.697-8.258 8.258v132.129h24.774v-132.129c0-4.561-3.697-8.258-8.258-8.258z" fill="#dbd8db"/><path d="m256 90.839v-90.839h-8.258c-4.561 0-8.258 3.697-8.258 8.258v132.129h33.032v-33.032c-9.121 0-16.516-7.395-16.516-16.516z" fill="#c9c5c9"/><path d="m206.452 181.677c-4.565 0-8.258-3.694-8.258-8.258v-16.516c0-4.565 3.694-8.258 8.258-8.258s8.258 3.694 8.258 8.258v16.516c0 4.565-3.694 8.258-8.258 8.258z" fill="#845252"/><path d="m305.548 181.677c-4.565 0-8.258-3.694-8.258-8.258v-16.516c0-4.565 3.694-8.258 8.258-8.258 4.565 0 8.258 3.694 8.258 8.258v16.516c0 4.565-3.693 8.258-8.258 8.258z" fill="#845252"/><path d="m379.871 148.645h-189.935c-4.561 0-8.258-3.697-8.258-8.258v-8.258c0-4.561 3.697-8.258 8.258-8.258h189.935c4.561 0 8.258 3.697 8.258 8.258v8.258c0 4.561-3.697 8.258-8.258 8.258z" fill="#dbd8db"/><path d="m401.022 294.679-15.646-46.937-10.577-6.416 5.071-10.1h5.058c5.637 0 9.617-5.522 7.835-10.869l-15.646-46.937-28.998-6.752v122.365l6.977 16.516h38.091c5.637-.001 9.617-5.523 7.835-10.87z" fill="#f4aa73"/><path d="m379.871 231.226h-24.774v-41.29c0-9.122 7.395-16.516 16.516-16.516h5.506l-5.506-16.516-33.032-8.258v140.387c0 9.121 7.395 16.516 16.516 16.516v-41.29c0-9.122 7.395-16.516 16.516-16.516h13.764z" fill="#e29a6c"/><path d="m272.516 239.484h-33.032c-4.565 0-8.258-3.694-8.258-8.258 0-4.565 3.694-8.258 8.258-8.258h33.032c4.565 0 8.258 3.694 8.258 8.258s-3.693 8.258-8.258 8.258z" fill="#f4aa73"/><g fill="#c9c5c9"><path d="m206.452 140.387c-9.122 0-16.516-7.395-16.516-16.516h-57.806c-4.561 0-8.258 3.697-8.258 8.258v16.516c0 4.561 3.697 8.258 8.258 8.258h247.742c4.561 0 8.258-3.697 8.258-8.258v-8.258z"/><path d="m289.032 470.71c0-9.122-7.395-16.516-16.516-16.516h-49.548c-45.608 0-82.581-36.973-82.581-82.581v-24.755l-10.265 2.573c-3.674.921-6.251 4.223-6.251 8.011v14.171c0 54.729 44.367 99.097 99.097 99.097h24.774v41.29h16.516v-41.29z"/></g></g></svg>