<svg id="Capa_1" enable-background="new 0 0 512 512" height="512" viewBox="0 0 512 512" width="512" xmlns="http://www.w3.org/2000/svg"><g><path d="m418.272 401.475-46.659-13.346h-222.138l-46.659 13.346c-21.264 6.082-35.922 25.521-35.922 47.638v38.113l7.428 23.351c2.584.914 5.361 1.423 8.258 1.423h346.839c13.682 0 24.774-11.092 24.774-24.774v-38.113c.001-22.117-14.657-41.555-35.921-47.638z" fill="#c9c5c9"/><path d="m57.806 449.113v38.113c0 10.771 6.916 19.939 16.516 23.351v-61.464c0-14.669 9.847-27.726 23.944-31.758l46.661-13.347-4.54-15.879-46.659 13.346c-21.264 6.082-35.922 25.521-35.922 47.638z" fill="#b8b2b8"/><path d="m404.645 384c0 70.692-66.551 128-148.645 128-70.264 0-129.142-41.981-144.652-98.404l3.6-29.596c0-70.692 58.957-128 141.052-128s148.645 57.308 148.645 128z" fill="#dbd8db"/><path d="m256 239.484c-37.891 0-71.524 16.275-92.61 41.422l.261 2.904c-34.262 23.449-56.296 59.575-56.296 100.19 0 10.19 1.38 20.093 3.993 29.596 9.392-2.515 15.789-11.343 15.063-21.038-1.307-17.441-.925-44.184 14.904-62.658-.583 4.201-.928 8.468-.928 12.81 0 57.01 51.762 103.226 115.613 103.226s115.613-46.216 115.613-103.226-51.762-103.226-115.613-103.226z" fill="#c9c5c9"/><path d="m256 239.484c-54.73 0-99.097 33.275-99.097 74.323 0 24.865 16.281 46.879 41.285 60.371l115.631-.004c24.999-13.492 41.278-35.505 41.278-60.367 0-41.048-44.367-74.323-99.097-74.323z" fill="#b8b2b8"/><path d="m207.319 324.053 7.391 57.258c12.565 4.355 26.534 6.818 41.29 6.818 21.6 0 41.525-5.157 57.806-13.955v-33.689z" fill="#f4aa73"/><path d="m198.194 374.168c5.159 2.788 10.679 5.131 16.516 7.143v-2.886c0-11.719 12.332-19.342 22.815-14.102 5.79 2.895 12.129 4.347 18.476 4.347s12.685-1.452 18.468-4.339l23.024-11.516c10.381-5.725 16.315-12.329 16.315-12.329v-34.937h-115.614z" fill="#e29a6c"/><path d="m264.258 49.548h-16.516c-13.682 0-24.774-11.092-24.774-24.774 0-13.682 11.092-24.774 24.774-24.774h16.516c13.682 0 24.774 11.092 24.774 24.774 0 13.683-11.092 24.774-24.774 24.774z" fill="#dbd8db"/><path d="m275.709 41.29h-42.719c-18.704 0-36.153 4.738-51.321 13.012l-22.778 161.686 97.109 15.238 119.742-33.032 5.544-30.1c12.153-65.971-38.498-126.804-105.577-126.804z" fill="#eceaec"/><path d="m181.677 54.316c-38.285 20.924-62.095 64.417-54.728 111.072l5.608 35.412 49.12 10.605z" fill="#dbd8db"/><path d="m375.742 198.194h-10.451c-9.844 0-17.503-8.556-16.415-18.34l1.126-10.133c2.717-24.459-16.428-45.85-41.038-45.85h-105.929c-7.858 0-15.159 2.181-21.369 5.947l-16.385 109.666c4.23 55.419 34.216 99.097 90.719 99.097s102.708-43.678 106.938-99.097h11.627c10.799 0 20.641-7.771 21.716-18.517 1.236-12.358-8.435-22.773-20.539-22.773z" fill="#fbbd80"/><path d="m181.677 231.226-.011-101.408c-13.237 8.027-21.518 23.255-19.669 39.903l1.126 10.133c1.087 9.784-6.571 18.34-16.415 18.34h-9.27c-10.799 0-20.641 7.77-21.717 18.516-1.237 12.357 8.433 22.775 20.538 22.775h12.804c4.23 55.419 50.435 99.097 106.938 99.097 5.649 0 11.157-.55 16.568-1.392-51.455-7.942-90.892-52.287-90.892-105.964z" fill="#f4aa73"/><path d="m303.641 313.153-3.902-35.115c-1.394-12.546-11.999-22.038-24.623-22.038h-38.233l-18.579 47.651 26.456 40.356 30.941 1.239 14.396-7.198c9.284-4.642 14.69-14.579 13.544-24.895z" fill="#eceaec"/><path d="m249.736 332.263c-12.378-6.189-19.586-19.438-18.058-33.193l5.206-43.07c-12.432.215-23.245 9.636-24.623 22.038l-3.902 35.115c-1.146 10.316 4.26 20.253 13.543 24.895l23.019 11.509c6.974 3.487 15.184 3.487 22.158 0l8.622-4.311z" fill="#dbd8db"/><path d="m206.452 231.226c-4.565 0-8.258-3.694-8.258-8.258v-8.258c0-4.565 3.694-8.258 8.258-8.258s8.258 3.694 8.258 8.258v8.258c0 4.564-3.694 8.258-8.258 8.258z" fill="#c6805d"/><path d="m305.548 231.226c-4.565 0-8.258-3.694-8.258-8.258v-8.258c0-4.565 3.694-8.258 8.258-8.258 4.565 0 8.258 3.694 8.258 8.258v8.258c0 4.564-3.693 8.258-8.258 8.258z" fill="#c6805d"/><path d="m256 300.919c-8.508 0-16.169-1.806-21.016-4.968-3.823-2.484-4.911-7.597-2.419-11.419 2.484-3.823 7.597-4.927 11.419-2.419 1.226.79 5.298 2.29 12.016 2.29s10.79-1.5 12.016-2.29c3.815-2.508 8.944-1.403 11.419 2.419 2.492 3.823 1.403 8.935-2.419 11.419-4.847 3.162-12.508 4.968-21.016 4.968z" fill="#f4aa73"/><g fill="#eceaec"><path d="m189.935 165.161h24.774c13.682 0 24.774 11.092 24.774 24.774h-24.773c-13.683 0-24.775-11.091-24.775-24.774z"/><path d="m322.065 165.161h-24.775c-13.682 0-24.774 11.092-24.774 24.774h24.774c13.683 0 24.775-11.091 24.775-24.774z"/></g></g></svg>