<svg id="Capa_1" enable-background="new 0 0 512 512" height="512" viewBox="0 0 512 512" width="512" xmlns="http://www.w3.org/2000/svg"><g><path d="m421.302 425.821-20.925-6.155h-278.069l-20.925 6.155c-21.434 6.304-36.153 25.975-36.153 48.317v12.68l6.103 23.732c2.627.929 5.449 1.45 8.394 1.45h352.546c13.908 0 25.182-11.274 25.182-25.182v-12.68c0-22.342-14.719-42.013-36.153-48.317z" fill="#887f88"/><path d="m339.94 327.333h-165.509c-34.66 0-65.365 25.259-69.116 59.715-1.286 11.807.54 23.055 4.695 33.094l-19.311 5.68c-21.434 6.304-36.153 25.975-36.153 48.317v12.68c0 10.948 7.03 20.263 16.788 23.732v-36.413c0-14.788 9.91-28.035 24.1-32.207l13.279-3.8c5.853-1.675 12.076.03 16.422 4.293 12.097 11.869 28.639 19.213 46.928 19.213h165.579c35.766 0 66.996-26.99 69.307-62.682 2.53-39.111-28.443-71.622-67.009-71.622z" fill="#736572"/><path d="m339.94 360.909h-167.88c-13.908 0-25.182 11.274-25.182 25.182 0 8.279 3.995 15.624 10.163 20.214l197.966-.035c6.14-4.592 10.115-11.921 10.115-20.179 0-13.908-11.275-25.182-25.182-25.182z" fill="#615260"/><path d="m332.834 399.801c-10.717-3.152-18.076-12.988-18.076-24.159v-29.324l-109.034 7.116v30.765l-11.758 27.073h145.974c5.607 0 10.882-1.904 15.067-5.003z" fill="#e29a6c"/><path d="m157.041 406.305c4.185 3.099 9.412 4.967 15.019 4.967h21.906c12.144-7.531 20.064-20.92 20.064-35.633v-.245c0-10.642 9.72-18.315 20.194-16.433 7.068 1.27 14.338 1.948 21.776 1.948 21.234 0 41.21-5.308 58.758-14.591v-44.167h-117.516v73.491c0 11.171-7.359 21.007-18.076 24.159z" fill="#d48c64"/><path d="m381.909 201.847v-25.605c0-69.538-56.371-125.909-125.909-125.909-28.347 0-54.501 9.374-75.546 25.183l-17.232 159.485c0 60.266 47.857 106.243 90.928 106.243l18.931 1.548c49.42-7.778 87.752-48.767 91.616-99.397h13.015c11.59 0 20.985-9.396 20.985-20.985 0-10.154-7.209-18.619-16.788-20.563z" fill="#f4aa73"/><path d="m180.454 234.999v-16.788l9.887-18.033-9.887-30.081v-94.582c-30.531 22.975-50.364 59.574-50.364 100.727l16.788 58.758c0 60.266 48.855 109.122 109.122 109.122 5.742 0 11.581-.475 17.081-1.33-52.3-8.073-92.627-53.233-92.627-107.793z" fill="#e29a6c"/><path d="m186.999 193.029v17.024c0 9.272 7.516 16.788 16.788 16.788h18.638l16.788-8.63v-25.182z" fill="#b8ddff"/><path d="m197.242 201.423v-8.394h-16.788v25.182c0 9.272 7.516 16.788 16.788 16.788h25.182c9.272 0 16.788-7.516 16.788-16.788h-25.182c-9.271 0-16.788-7.516-16.788-16.788z" fill="#91ccff"/><path d="m247.606 167.847h-83.94l-9.332 25.182h93.272c4.636 0 8.394-3.758 8.394-8.394v-8.394c0-4.636-3.758-8.394-8.394-8.394z" fill="#b8b2b8"/><path d="m163.666 167.848h-16.788l-16.788 33.576h117.515c4.636 0 8.394-3.758 8.394-8.394v-8.394h-75.546c-9.27-.001-16.787-7.517-16.787-16.788z" fill="#b0a8af"/><path d="m113.303 167.847h33.575v50.364l-32.424 10.112-10.977-43.688z" fill="#dbd8db"/><path d="m306.364 226.605c-4.64 0-8.394-3.754-8.394-8.394v-8.394c0-4.64 3.754-8.394 8.394-8.394s8.394 3.754 8.394 8.394v8.394c0 4.64-3.755 8.394-8.394 8.394z" fill="#845252"/><path d="m289.576 201.423c-3.517 0-6.787-2.221-7.96-5.738-1.467-4.402.91-9.156 5.304-10.615l25.182-8.394c4.443-1.467 9.148.91 10.615 5.304 1.467 4.402-.91 9.156-5.304 10.615l-25.182 8.394c-.885.295-1.778.434-2.655.434z" fill="#d48c64"/><path d="m256 285.363c-10.509 0-20.862-3.295-29.936-9.525-3.82-2.623-4.787-7.853-2.164-11.673 2.615-3.82 7.861-4.787 11.673-2.164 12.525 8.607 28.33 8.607 40.855 0 3.82-2.623 9.05-1.656 11.673 2.164s1.656 9.05-2.164 11.673c-9.075 6.23-19.428 9.525-29.937 9.525z" fill="#d48c64"/><g fill="#91ccff"><path d="m251.215 3.205-20.397 49.585 17.752 33.771c3.146 5.984 11.714 5.984 14.86 0l17.752-33.771-20.397-49.585c-1.759-4.273-7.811-4.273-9.57 0z"/><circle cx="180.454" cy="461.636" r="16.788"/><circle cx="331.546" cy="461.636" r="16.788"/></g><path d="m130.091 218.211c-9.272 0-16.788-7.516-16.788-16.788v-33.576c-9.272 0-16.788 7.516-16.788 16.788v33.576c0 9.272 7.516 16.788 16.788 16.788h33.576v-16.788z" fill="#c9c5c9"/></g></svg>