<svg id="Capa_1" enable-background="new 0 0 512 512" height="512" viewBox="0 0 512 512" width="512" xmlns="http://www.w3.org/2000/svg"><g><path d="m412.705 385.435-299.924 4.428c-22.196 0-40.02 21.12-40.02 42.422v54.94l9.634 23.328c2.587.916 5.359 1.447 8.26 1.447h330.692c13.682 0 24.774-11.092 24.774-24.774v-54.94c-.001-21.302-13.217-40.086-33.416-46.851z" fill="#6fd6a2"/><path d="m412.705 385.435-41.277-13.823h-230.856l-40.878 13.689c-20.199 6.764-33.815 25.682-33.815 46.984v54.94c0 10.771 6.915 19.915 16.515 23.328v-78.267c0-.133.001-.267.002-.4.191-15.866 21.805-20.612 29.726-6.864 23.833 41.363 79.311 70.462 144.062 70.462 83.968 0 152.542-48.89 156.521-110.049z" fill="#3ec2a3"/><path d="m256.185 280.774c-77.534 0-140.387 44.367-140.387 99.097 0 4.649.454 9.223 1.331 13.702l6.712 19.439c3.125 6.217 7.104 12.149 11.838 17.726l12.301 12.274c5.317 4.534 11.195 8.729 17.558 12.531l14.81 7.735c8.111 3.682 16.793 6.791 25.933 9.245l16.227 3.574c8.212 1.427 16.709 2.344 25.419 2.701h16.516c8.723-.357 17.233-1.277 25.457-2.708l16.19-3.568c9.14-2.454 17.822-5.563 25.932-9.245l14.81-7.736c6.364-3.802 12.241-7.997 17.558-12.531l12.27-12.238c4.617-5.434 8.518-11.206 11.61-17.251l6.885-19.517c.934-4.617 1.417-9.336 1.417-14.135 0-54.728-62.853-99.095-140.387-99.095z" fill="#615260"/><path d="m186.984 392.607-21.447 62.935c4.681 2.798 9.634 5.384 14.81 7.735l21.881-64.217c-5.278-1.917-10.417-4.015-15.244-6.453z" fill="#4e3d4d"/><path d="m216.225 403.393c-.016.089-.075.157-.088.248l-9.855 68.883c5.252 1.411 10.695 2.61 16.227 3.574l9.885-69.43c-5.542-.808-10.918-1.934-16.169-3.275z" fill="#4e3d4d"/><g fill="#736572"><path d="m256.185 408.418c-2.788 0-5.516-.176-8.258-.312v70.69c2.747.113 5.47.172 8.258.172s5.511-.059 8.258-.172v-70.69c-2.742.135-5.47.312-8.258.312z"/><path d="m296.153 403.391c-5.254 1.342-10.632 2.469-16.176 3.277l9.923 69.423c5.532-.964 10.938-2.156 16.19-3.568l-9.856-68.883c-.014-.089-.065-.16-.081-.249z"/><path d="m310.141 399.061 21.88 64.218c5.176-2.351 10.13-4.938 14.81-7.736l-21.447-62.935c-4.825 2.437-9.964 4.535-15.243 6.453z"/><path d="m335.319 387.012 29.071 56c4.531-3.864 8.6-7.912 12.27-12.238l-27.862-53.652c-4.181 3.529-8.631 6.873-13.479 9.89z"/><path d="m368.644 354.392c-3.007 4.888-6.499 9.567-10.55 13.951l30.176 45.179c3.181-6.238 5.528-12.77 6.885-19.517z"/></g><path d="m163.571 377.122-27.893 53.615c3.669 4.326 7.77 8.41 12.301 12.274l29.071-56c-4.847-3.016-9.298-6.36-13.479-9.889z" fill="#4e3d4d"/><path d="m143.726 354.392-26.597 39.181c1.357 6.747 3.53 13.2 6.712 19.439l30.435-44.668c-4.051-4.385-7.543-9.064-10.55-13.952z" fill="#4e3d4d"/><path d="m404.05 256.282-7.45-124.048c-4.282-71.293-61.146-127.549-131.506-131.956-2.859-.179-6.078.068-8.999.083 0 0-9.844.847-14.511 1.328-68.213 6.089-117.705 83.823-117.705 130.232l-6.726 124.361c-2.926 48.763 10.241 90.618 44.765 119.588 24.042 22.768 56.391 36.647 93.898 36.647l.739.084c2.709 0 5.4.229 8.072.086 81.243-4.362 144.362-74.172 139.423-156.405z" fill="#6fd6a2"/><path d="m125.343 256.282 7.451-124.048c4.289-71.414 61.774-127.716 132.3-131.956-2.83-.17-6.039-.278-8.909-.278-74.413 0-135.953 57.955-140.415 132.234l-7.45 124.048c-5.102 84.937 62.406 156.621 147.496 156.621h.739c2.752 0 5.358-.068 8.072-.216-81.183-4.428-144.22-74.215-139.284-156.405z" fill="#3ec2a3"/><path d="m256.185 57.806h-.369c-49.548 0-99.097 115.613-99.097 206.452v33.032c0 32.056 15.221 60.557 38.83 78.67l121.019-.089c23.543-18.117 38.714-46.578 38.714-78.582 0-36.486 0-24.774 0-33.032-.001-90.838-49.549-206.451-99.097-206.451z" fill="#3ec2a3"/><path d="m284.68 366.777c-7.09-2.026-11.979-8.507-11.979-15.881v-21.733l-21.701-7.905-1.569 41.701-34.335 24.621c12.414 5.644 26.188 8.806 40.719 8.806h.369c22.692 0 43.677-7.685 60.382-20.515z" fill="#615260"/><path d="m239.669 350.897c0 7.374-4.889 13.855-11.979 15.881l-32.142 9.184c5.979 4.58 12.617 8.469 19.548 11.62l17.124-4.92c14.184-4.051 23.964-17.015 23.964-31.766v-5.073c0-8.476 6.448-15.376 14.863-16.382.559-.067 1.096-.202 1.653-.276v-31.875h-33.032v53.607z" fill="#4e3d4d"/><path d="m347.518 239.201c-5.07-87.972-51.454-173.867-91.334-173.867h-.369c-46.66 0-82.039 91.098-87.321 178.912 0 0 26.242 56.007 57.177 65.162 9.672 2.862 19.913 4.399 30.513 4.399 34.441 0 65.077-16.228 84.715-41.448z" fill="#615260"/><path d="m206.636 247.742c-4.565 0-8.258-3.698-8.258-8.258v-41.29c0-4.56 3.694-8.258 8.258-8.258s8.258 3.698 8.258 8.258v41.29c0 4.56-3.693 8.258-8.258 8.258z" fill="#736572"/><path d="m305.733 247.742c-4.565 0-8.258-3.698-8.258-8.258v-41.29c0-4.56 3.694-8.258 8.258-8.258s8.258 3.698 8.258 8.258v41.29c0 4.56-3.693 8.258-8.258 8.258z" fill="#736572"/><circle cx="206.636" cy="189.935" fill="#9ae59c" r="16.516"/><circle cx="305.733" cy="189.935" fill="#9ae59c" r="16.516"/><path d="m256.185 57.806h-.369c-27.483 0-54.936 35.586-73.953 82.766v-.057c-13.285 32.932-22.46 71.514-24.632 107.624 12.397 29.392 37.508 52.112 68.441 61.268-26.533-19.546-43.809-50.957-43.809-86.44v-.004c0-22.068 3.479-44.077 10.992-64.828 17.57-48.53 43.548-83.814 63.331-83.814 29.889 0 78.208 88.744 84.715 198.036 5.578-7.164 10.268-15.052 13.906-23.501-5.071-87.971-51.835-191.05-98.622-191.05z" fill="#4e3d4d"/></g></svg>