<svg id="Capa_1" enable-background="new 0 0 512 512" height="512" viewBox="0 0 512 512" width="512" xmlns="http://www.w3.org/2000/svg"><g><path d="m66.065 386.185-41.29 76.267v24.774c0 13.682 11.092 24.774 24.774 24.774h189.935l16.516-74.323-133.857-60.068z" fill="#887f88"/><path d="m445.935 386.185-56.078-8.576-133.857 60.068 16.516 74.323h189.935c13.682 0 24.774-11.092 24.774-24.774v-24.774z" fill="#887f88"/><path d="m330.323 336.929-26.409 51.2h-122.237v-123.871h148.646z" fill="#615260"/><path d="m330.323 336.929-14.438 5.775c-6.828 2.731-14.115 4.135-21.469 4.135h-63.19c-9.122 0-16.516 7.395-16.516 16.516v16.516h115.613z" fill="#736572"/><path d="m390.096 355.621c-5.974-9.957-18.062-14.429-29.078-10.757l-97.184 32.395c-5.085 1.695-10.583 1.695-15.669 0l-97.184-32.395c-11.016-3.672-23.104.8-29.078 10.757l-14.549 24.25 132.129 90.839h33.032l132.129-90.839z" fill="#9e959e"/><path d="m367.512 131.13c-9.871-51-44.727-84.192-94.996-91.137l-29.772.673c-50.269 6.945-91.54 45.158-101.411 96.158l-6.878 86.789 63.738 101.755 21.707 8.683c5.424 2.17 11.325-1.825 11.325-7.667v-12.577h49.548v12.577c0 5.842 5.901 9.837 11.325 7.667l21.707-8.683 76.91-43.014z" fill="#9e959e"/><path d="m251.419 205.065-20.194-13.462-7.314 2.864 7.314 20.243v99.097l20.194 13.462c2.774 1.849 6.388 1.849 9.161 0l20.194-13.462v-99.097l9.052-15.759-9.052-7.348-20.194 13.462c-2.773 1.849-6.387 1.849-9.161 0z" fill="#887f88"/><path d="m294.469 166.572c-8.393 4.197-13.695 12.775-13.695 22.159v25.979l38.516-25.678c6.892-4.595 11.032-12.33 11.032-20.614v-8.265c0-5.287-5.564-8.726-10.293-6.362z" fill="#ffe077"/><path d="m217.531 166.572c8.393 4.197 13.695 12.775 13.695 22.159v25.979l-38.517-25.678c-6.892-4.595-11.032-12.33-11.032-20.613v-8.265c0-5.287 5.564-8.726 10.293-6.362z" fill="#ffe077"/><g fill="#b8b2b8"><path d="m256 412.903c-9.121 0-16.516 7.394-16.516 16.516v82.581h33.032v-82.581c0-9.122-7.395-16.516-16.516-16.516z"/><path d="m437.677 379.871-49.548 99.097h99.097l7.071-8.258v-49.548c0-29.87-12.188-47.432-41.253-50.473z"/><path d="m272.517 34.165c50.269 6.945 91.54 45.158 101.411 96.158l29.421 152.007c.753 3.889-1.362 7.766-5.041 9.237l-84.501 33.8v-44.006c0-10.951 4.35-21.453 12.094-29.197l17.951-17.951c7.429-7.429 13.372-16.207 17.511-25.864l.005-.011c4.864-11.349 6.21-23.897 3.864-36.02l-7.52-38.859c-8.355-43.177-42.992-76.323-86.371-82.782h-15.341v-16.512z"/></g><path d="m239.483 34.165c-50.269 6.945-91.54 45.158-101.411 96.158l-29.42 152.007c-.753 3.889 1.362 7.766 5.041 9.237l84.501 33.8v-44.006c0-10.951-4.35-21.453-12.094-29.197l-17.951-17.951c-7.429-7.429-13.372-16.207-17.511-25.864l-.005-.011c-4.864-11.349-6.21-23.897-3.864-36.02l7.52-38.859c8.355-43.177 42.992-76.323 86.371-82.782h15.34v-16.512z" fill="#887f88"/><path d="m270.097 126.29-8.258 8.258c-3.225 3.225-8.454 3.225-11.679 0l-8.258-8.258c-1.549-1.549-2.419-3.649-2.419-5.839v-112.193c0-4.561 3.697-8.258 8.258-8.258h16.516c4.561 0 8.258 3.697 8.258 8.258v112.192c.001 2.191-.869 4.291-2.418 5.84z" fill="#b8b2b8"/><path d="m74.323 379.871 49.548 99.097h-99.097l-10.042-11.873-1.682-41.141c0-29.87 22.656-54.449 51.72-57.49z" fill="#b8b2b8"/><path d="m66.065 379.871h8.258l-5.84-11.679c-1.58-3.16-4.991-4.888-8.505-4.52-29.065 3.041-51.72 27.619-51.72 57.49v49.548c0 4.56 3.697 8.258 8.258 8.258h8.258v-57.806c0-22.767 18.524-41.291 41.291-41.291z" fill="#9e959e"/><path d="m503.742 470.71v-49.548c0-29.87-22.656-54.449-51.72-57.49-3.514-.368-6.925 1.36-8.505 4.52l-5.84 11.679h8.258c22.766 0 41.29 18.524 41.29 41.29v57.806h8.258c4.562.001 8.259-3.697 8.259-8.257z" fill="#c9c5c9"/><path d="m97.631 478.968c0 18.243 7.997 29.828 26.24 29.828 12.328 0 23.078-3.549 28.754-13.557 2.724-4.803 4.279-10.355 4.279-16.271 0-18.243-14.789-33.032-33.032-33.032-5.932 0-11.498 1.563-16.31 4.301-9.988 5.681-9.931 16.419-9.931 28.731z" fill="#b0a8af"/><path d="m136.258 499.613c-18.243 0-33.032-14.789-33.032-33.032 0-5.928 1.601-11.534 4.335-16.344-9.991 5.68-16.722 16.416-16.722 28.731 0 18.243 14.789 33.032 33.032 33.032 12.315 0 23.074-6.77 28.754-16.761-4.81 2.734-10.439 4.374-16.367 4.374z" fill="#9e959e"/><path d="m361.889 478.968c0 18.243 7.997 29.828 26.24 29.828 12.328 0 23.078-3.549 28.754-13.557 2.724-4.803 4.279-10.355 4.279-16.271 0-18.243-14.789-33.032-33.032-33.032-5.932 0-11.498 1.563-16.31 4.301-9.988 5.681-9.931 16.419-9.931 28.731z" fill="#b0a8af"/><path d="m400.516 499.613c-18.243 0-33.032-14.789-33.032-33.032 0-5.928 1.601-11.534 4.335-16.344-9.991 5.68-16.722 16.416-16.722 28.731 0 18.243 14.789 33.032 33.032 33.032 12.315 0 23.074-6.77 28.754-16.761-4.81 2.734-10.438 4.374-16.367 4.374z" fill="#9e959e"/></g></svg>