<svg id="Capa_1" enable-background="new 0 0 512 512" height="512" viewBox="0 0 512 512" width="512" xmlns="http://www.w3.org/2000/svg"><g><path d="m470.022 342.021c.228-15.763-1.679-28.201-4.198-37.471l-40.132-60.986-19.505-98.2-150.187-136.737c-3.179 0-6.358-.923-9.149-2.77-4.824-3.19-11.999-5.857-22.507-5.857-37.161 0-112.172 35.785-120.43 105.29-4.878 41.053-20.817 45.935-29.591 74.839-9.429 31.061-1.323 50.22-9.29 78.279-7.914 27.871-23.742 36.129-23.054 83.613.798 55.066-30.968 67.441-18.581 103.914 9.245 27.22 50.925 49.548 50.925 49.548h363.355s41.68-22.328 50.925-49.548c12.386-36.473-19.38-48.848-18.581-103.914z" fill="#615260"/><path d="m445.884 445.7-160.093-64.253 19.758-43.775v-17.763l-91.053-3.705-5.381 48.652-102.808 41.836c-19.809 6.992-33.057 25.716-33.057 46.723v33.811l9.332 23.318c2.587.916 5.357 1.456 8.258 1.456h330.323c13.682 0 24.774-11.092 24.774-24.774v-39.267c-.002-.756-.019-1.509-.053-2.259z" fill="#845252"/><path d="m78.095 429.601-11.982 16.164c-.032.728-.048 1.46-.048 2.195v39.267c0 10.771 6.916 19.905 16.516 23.318v-62.585c0-4.841 1.117-9.47 3.043-13.687-2.778-1.267-5.27-2.859-7.529-4.672z" fill="#7a4646"/><path d="m206.452 280.774v56.898l7.034 9.472 9.381-4.346c.065-.931.1-1.869.1-2.814v-.043c0-7.14 6.415-12.41 13.46-11.245 6.372 1.055 12.903 1.626 19.573 1.626 17.619 0 34.359-3.754 49.548-10.413v-39.135z" fill="#7a4646"/><path d="m320.205 367.436c-9.012-6.032-14.657-16.256-14.657-27.452v-2.312c-15.427 5.83-32.08 9.167-49.548 9.167-11.413 0-22.477-1.424-33.078-4.037l-20.534 45.147 119.387-2.466z" fill="#ffe09c"/><path d="m327.587 371.133c-2.623-.926-5.139-2.204-7.382-3.697-19.908 7.965-41.453 12.435-64.205 12.435-20.271 0-39.604-3.738-57.675-10.151l-56.471 40.872 108.513 17.039 97.303-10.762 14.698-33.462z" fill="#ffd18d"/><path d="m400.972 397.034-38.605-13.625c-31.067 18.714-67.455 29.494-106.367 29.494-33.971 0-66.019-8.216-94.282-22.756l-57.193 22.911s64.233 51.79 151.475 51.79c86.289 0 154.895-49.1 154.895-49.1z" fill="#ffe09c"/><path d="m412.878 401.236-11.906-4.202c-40.247 30.663-90.47 48.902-144.972 48.902-50.96 0-98.179-15.945-137-43.082l-25.909 8.188-17.824 30.267c52.132 41.384 109.002 55.826 180.733 55.826s122.492-9.917 174.624-51.301l1.77-31.735c-5.283-5.657-11.87-10.165-19.516-12.863z" fill="#ffd18d"/><path d="m162.481 77.462v128.99c0 59.29 34.229 106.222 93.519 106.222 5.711 0 16.787-.172 16.787-.172 51.317-8.058 90.568-52.47 90.568-106.05v-23.779l-31.827-95.377z" fill="#a46a5a"/><path d="m272.516 198.194c-4.565 0-8.258-3.694-8.258-8.258 0-4.556-3.702-8.258-8.258-8.258s-8.258 3.702-8.258 8.258c0 4.565-3.694 8.258-8.258 8.258s-8.258-3.694-8.258-8.258c0-13.661 11.113-24.774 24.774-24.774s24.774 11.113 24.774 24.774c0 4.564-3.693 8.258-8.258 8.258z" fill="#fbbd80"/><path d="m148.645 206.452c0 59.29 48.065 107.355 107.355 107.355 5.632 0 11.389-.469 16.787-1.305-51.428-7.963-91.109-52.391-91.109-106.05v-44.317c0-6.634 2.066-13.047 5.63-18.643.019-.029.037-.059.056-.088 13.524-21.29 26.234-24.427 40.944-28.065 8.855-2.194 18.508-4.573 27.694-10.629 9.185 6.056 18.839 8.435 27.694 10.629 14.71 3.637 27.419 6.774 40.944 28.065 12.6 19.824 26.675 30.8 38.718 39.27v-108.351l-214.71 3.139v128.99z" fill="#845252"/><path d="m446.968 258.408c-7.967-28.059.139-47.218-9.29-78.279-8.774-28.903-24.714-33.786-29.591-74.839-8.259-69.505-83.27-105.29-120.431-105.29-10.508 0-17.683 2.667-22.507 5.857-2.791 1.846-5.97 2.77-9.149 2.77v.674c0 9.282-10.314 15.512-18.091 10.445-.056-.036-.111-.073-.167-.109-3.089-2.04-7.718-3.121-13.395-3.121-31.653 0-97.065 32.024-104.032 90.726-3.355 28.266-11.734 42.234-19.129 54.548-4.387 7.306-8.169 13.613-11.056 23.137-4.234 13.944-4.363 25.25-4.5 37.218-.145 12.403-.29 25.226-4.71 40.774-3.008 10.605-7.032 18.79-10.573 26.016-.72 1.465-1.423 2.906-2.114 4.351 27.864-23.279 33.617-70.319 33.617-70.319 4.129-51.295 42.226-42.235 71.57-88.417 29.591-46.571 61.247-25.648 82.581-51.97 21.333 26.323 52.989 5.399 82.581 51.97 29.344 46.181 67.441 37.121 71.57 88.417 0 0 8.554 70.371 55.673 81.582-5.109-17.978-13.671-27.876-18.857-46.141z" fill="#736572"/><path d="m256 264.258c-12.395 0-23.823-3.976-30.573-10.637-3.25-3.21-3.282-8.435-.081-11.677 3.218-3.25 8.444-3.282 11.677-.081 2.75 2.71 9.363 5.879 18.976 5.879s16.226-3.169 18.976-5.879c3.234-3.202 8.46-3.169 11.677.081 3.202 3.242 3.169 8.468-.081 11.677-6.748 6.661-18.176 10.637-30.571 10.637z" fill="#845252"/><path d="m206.452 231.226c-22.766 0-41.29-18.524-41.29-41.29s18.524-41.29 41.29-41.29 41.29 18.524 41.29 41.29-18.524 41.29-41.29 41.29zm0-66.065c-13.661 0-24.774 11.113-24.774 24.774s11.113 24.774 24.774 24.774 24.774-11.113 24.774-24.774-11.113-24.774-24.774-24.774z" fill="#ffd18d"/><path d="m206.452 202.323c-4.565 0-8.258-3.694-8.258-8.258v-8.258c0-4.565 3.694-8.258 8.258-8.258s8.258 3.694 8.258 8.258v8.258c0 4.564-3.694 8.258-8.258 8.258z" fill="#4e3d4d"/><path d="m305.548 231.226c-22.766 0-41.29-18.524-41.29-41.29s18.524-41.29 41.29-41.29 41.29 18.524 41.29 41.29-18.523 41.29-41.29 41.29zm0-66.065c-13.661 0-24.774 11.113-24.774 24.774s11.113 24.774 24.774 24.774 24.774-11.113 24.774-24.774-11.112-24.774-24.774-24.774z" fill="#ffd18d"/><path d="m305.548 202.323c-4.565 0-8.258-3.694-8.258-8.258v-8.258c0-4.565 3.694-8.258 8.258-8.258 4.565 0 8.258 3.694 8.258 8.258v8.258c0 4.564-3.693 8.258-8.258 8.258z" fill="#4e3d4d"/><path d="m432.394 414.098c-47.542 40.427-109.097 64.87-176.394 64.87-63.486 0-121.861-21.753-168.183-58.157l-10.756 12.65 5.487 24.468c49.274 34.07 109.011 54.071 173.452 54.071 71.732 0 137.752-24.916 189.884-66.3-.522-12.081-5.555-23.107-13.49-31.602z" fill="#ffe09c"/><path d="m206.452 337.672v2.312c0 14.005-8.832 26.488-22.038 31.149l-85.291 30.103c-19.131 6.751-32.14 24.403-33.009 44.529 5.298 4.206 10.893 8.262 16.468 12.116v-9.921c0-14.008 8.833-26.492 22.042-31.154l85.273-30.096c18.938-6.67 31.952-24.024 33.027-43.908-5.555-1.378-11.19-3.134-16.472-5.13z" fill="#ffd18d"/></g></svg>