<svg id="Capa_1" enable-background="new 0 0 512 512" height="512" viewBox="0 0 512 512" width="512" xmlns="http://www.w3.org/2000/svg"><g><g fill="#615260"><path d="m133.481 9.689 14.434 86.604 66.513-74.827-70.357-21.107c-5.895-1.769-11.602 3.259-10.59 9.33z"/><path d="m378.517 9.689-14.434 86.604-66.513-74.827 70.357-21.107c5.895-1.769 11.602 3.259 10.59 9.33z"/><path d="m413.943 383.854-85.87-30.307c-13.296-4.693-22.188-17.26-22.188-31.361v-19.133l-93.933-1.045v43.708l-113.894 44.233c-19.945 7.039-26.505 25.891-26.505 47.042v50.066l9.85 23.499c2.626.939 5.366 1.444 8.315 1.444h8.313l157.937-16.32 158 16.32h8.315c13.775 0 24.942-11.167 24.942-24.942v-56.161c0-21.152-13.338-40.003-33.282-47.043z"/></g><path d="m402.877 415.21-87.223-30.985c-3.023-1.074-6.394-.313-8.662 1.956l-33.355 33.355c-9.741 9.741-25.533 9.741-35.274 0l-33.318-33.318c-2.267-2.267-5.636-3.029-8.658-1.957l-87.257 30.95c-6.651 2.347-11.098 8.633-11.098 15.686v81.103h315.937v-81.114c-.001-7.048-4.446-13.33-11.092-15.676z" fill="#736572"/><path d="m206.115 322.187c0 14.1-8.892 26.668-22.188 31.36l-85.87 30.307c-19.945 7.039-33.283 25.891-33.283 47.042v56.161c0 10.844 6.962 20.062 16.627 23.499v-79.658c0-14.102 8.892-26.671 22.19-31.365l85.879-30.315c19.938-7.038 33.272-25.885 33.272-47.029 0-7.059 6.291-12.332 13.269-11.265 6.517.996 13.183 1.538 19.988 1.538 17.628 0 34.459-3.327 49.886-9.407v-32.165h-99.77z" fill="#4e3d4d"/><path d="m270.985 13.152h-29.971c-25.545 0-48.878 8.817-67.274 23.477l-9.291 94.106 5.067 57.432c5.376 60.934 25.312 104.362 86.483 104.362 15.216 0 29.803.413 43.218-4.869 40.517-15.953 70.327-53.715 74.366-99.493l5.067-57.432c5.576-63.197-44.223-117.583-107.665-117.583z" fill="#736572"/><path d="m297.572 287.679c-18.403 0-33.259-18.987-33.259-37.39v-.004c0-4.154 1.414-8.183 4.008-11.426l10.128-12.66c4.355-5.444.479-13.508-6.492-13.508h-31.916c-6.971 0-10.847 8.064-6.492 13.508l10.128 12.66c2.595 3.243 4.008 7.273 4.008 11.426v.004c0 7.969-2.495 15.504-6.689 21.589-30.342-20.012-51.273-53.802-54.656-92.152l-12.6-143.097c-27.235 21.754-43.718 56.401-40.391 94.107l5.067 57.432c4.03 45.671 33.715 83.321 74.089 99.322l30.549 7.574c4.258.466 8.572.77 12.946.77 4.406 0 8.664-.284 12.946-.77l22.547-4.763c2.546-.797 5.29-1.69 7.725-2.64-.001-.002-1.051.018-1.646.018z" fill="#615260"/><path d="m289.256 187.749h16.628c18.367 0 33.257-14.889 33.257-33.257v-8.314c0-4.592-3.722-8.314-8.314-8.314h-16.628c-18.367 0-33.257 14.889-33.257 33.257v8.314c-.001 4.591 3.722 8.314 8.314 8.314z" fill="#9ae59c"/><path d="m272.627 462.115h-33.257c-4.596 0-8.314-3.719-8.314-8.314s3.719-8.314 8.314-8.314h33.257c4.595 0 8.314 3.719 8.314 8.314 0 4.596-3.718 8.314-8.314 8.314z" fill="#887f88"/><path d="m264.313 495.372h-16.628c-4.596 0-8.314-3.719-8.314-8.314s3.719-8.314 8.314-8.314h16.628c4.596 0 8.314 3.719 8.314 8.314s-3.718 8.314-8.314 8.314z" fill="#887f88"/><path d="m291.491 290.299c-18.546-2.053-35.706-8.642-50.623-18.509-6.063 9.164-15.534 15.976-26.383 15.91-.127-.001-1.98-.212-1.98-.212 9.561 3.767 19.992 6.417 30.548 7.574h.001c5.088-3.581 9.497-8.065 12.946-13.252 3.449 5.187 7.857 9.671 12.946 13.252 7.754-.849 15.295-2.436 22.544-4.706-.003-.018.003-.038.001-.057z" fill="#4e3d4d"/><path d="m222.742 187.749h-16.628c-18.367 0-33.257-14.889-33.257-33.257v-8.314c0-4.592 3.722-8.314 8.314-8.314h16.629c18.367 0 33.257 14.889 33.257 33.257v8.314c0 4.591-3.723 8.314-8.315 8.314z" fill="#9ae59c"/><path d="m214.428 171.121h-8.314c-9.184 0-16.628-7.445-16.628-16.628h8.314c9.184-.001 16.628 7.444 16.628 16.628z" fill="#baf39a"/><path d="m297.58 171.121h8.314c9.184 0 16.628-7.445 16.628-16.628h-8.314c-9.183-.001-16.628 7.444-16.628 16.628z" fill="#baf39a"/></g></svg>