<svg id="Capa_1" enable-background="new 0 0 512 512" height="512" viewBox="0 0 512 512" width="512" xmlns="http://www.w3.org/2000/svg"><g><path d="m361.25 25.115-229.121 82.244v66.061h247.743v-99.097c-.001-18.872-7.034-36.101-18.622-49.208z" fill="#dbd8db"/><path d="m451.466 408.769-8.057-14.636c-6.141-7.715-14.591-13.617-24.526-16.597l-24.734-7.42-245.492-6.76-47.27 14.18c-20.958 6.287-35.311 25.578-35.311 47.459v62.231l8.242 23.363c2.584.914 5.365 1.411 8.262 1.411h33.032l8.755-6.334 7.761 6.334h247.743l8.605-7.679 7.911 7.679h33.032c13.682 0 24.774-11.092 24.774-24.774v-62.231c.001-5.64-.952-11.108-2.727-16.226z" fill="#9ae59c"/><path d="m371.613 363.356h-231.226l-47.269 14.18c-20.959 6.287-35.312 25.578-35.312 47.459v62.231c0 10.771 6.916 19.939 16.516 23.352v-85.585c0-1.887.167-3.737.468-5.544l27.604 20.706c8.321 6.241 13.218 16.036 13.218 26.437v45.408h16.516v-45.41c0-15.598-7.344-30.286-19.823-39.645l-30.477-22.857c4.058-4.947 9.521-8.776 16.041-10.731l15.132-4.54c5.368-1.611 11.186-.389 15.453 3.244l111.456 94.893c4.661 3.98 10.379 5.968 16.089 5.968s11.427-1.988 16.081-5.964l104.178-88.908c8.867-7.566 14.861-17.365 17.89-27.934z" fill="#6fd6a2"/><path d="m379.871 512v-45.418c0-15.512 7.411-30.327 19.823-39.637l43.716-32.811c3.469 4.361 6.212 9.318 8.057 14.636l-41.861 31.385c-8.274 6.21-13.218 16.089-13.218 26.428v45.417z" fill="#6fd6a2"/><path d="m372.087 329.736-41.764-57.219h-148.646l-48.41 91.821c2.043 7.986 6.487 15.425 13.194 21.149l104.178 88.907c3.088 2.636 7.634 2.636 10.722 0l104.178-88.907c16.422-14.015 19.275-38.313 6.548-55.751z" fill="#b8b2b8"/><path d="m181.677 272.517-41.764 57.219c-7.509 10.287-9.57 23.059-6.646 34.602l54.495-74.632z" fill="#b0a8af"/><path d="m374.565 165.162h-11.21c-9.122 0-16.516-7.395-16.516-16.516v-62.684l-41.29-3.381-132.129 41.29-1.521 115.613h141.908c9.122 0 16.516-7.395 16.516-16.516 0-9.122 7.395-16.516 16.516-16.516h28.903c12.105 0 21.776-10.417 20.538-22.775-1.075-10.746-10.916-18.515-21.715-18.515z" fill="#f4aa73"/><path d="m337.844 74.323h-172.683v74.323c0 9.122-7.395 16.516-16.516 16.516h-11.21c-10.799 0-20.64 7.77-21.716 18.515-1.238 12.358 8.433 22.775 20.538 22.775h28.903c9.121 0 16.516 7.394 16.516 16.516v-64.806c0-16.731 12.475-30.987 29.11-32.778 41.055-4.42 87.391-18 127.058-51.061z" fill="#e29a6c"/><path d="m343.294 31.186-37.745 43.137-.519 28.042c-.117 6.308 6.542 10.425 12.116 7.468 12.755-6.769 32.821-20.07 48.218-41.596z" fill="#dbd8db"/><path d="m334.465 5.827-202.335 68.006c-.001.163-.002.327-.002.49v33.036c8.542 1.358 24.408 3.347 44.661 3.347 52.229 0 132.531-13.425 184.46-85.591-7.32-8.289-16.454-14.924-26.784-19.288z" fill="#c9c5c9"/><path d="m346.547 198.193c-8.96 0-16.224 7.264-16.224 16.225v.293c0 9.122-7.395 16.516-16.516 16.516h-49.549l-8.258-8.259-8.258 8.258h-49.549c-9.121 0-16.516-7.395-16.516-16.516v-.293l-11.124 1.047c5.37 83.655 42.15 163.753 42.15 163.753l18.523 8.913 18.168 24.223c3.303 4.405 9.91 4.405 13.213 0l18.168-24.223 10.063 5.031c3.732 1.866 8.266.692 10.56-2.795 13.511-20.543 56.028-91.247 61.399-174.902.598-9.345-6.885-17.271-16.25-17.271z" fill="#dbd8db"/><path d="m206.451 247.743h24.774c13.682 0 24.774-11.092 24.774-24.774v-8.258h-24.774c-13.682 0-24.774 11.092-24.774 24.774z" fill="#c9c5c9"/><path d="m305.549 247.743h-24.774c-13.682 0-24.774-11.092-24.774-24.774v-8.258h24.774c13.682 0 24.774 11.092 24.774 24.774z" fill="#c9c5c9"/><path d="m214.71 148.646h82.581v33.032h-82.581z" fill="#9ae59c"/><path d="m181.677 214.417c0-8.961-7.264-16.225-16.224-16.225-9.365 0-16.848 7.926-16.249 17.272 5.37 83.655 47.888 154.359 61.399 174.902 2.293 3.486 6.827 4.661 10.56 2.795l10.063-5.031c-39.149-74.156-49.549-122.583-49.549-173.42z" fill="#c9c5c9"/><path d="m334.465 5.827c-8.887-3.756-18.661-5.827-28.916-5.827h-99.097c-40.882 0-74.055 33.014-74.321 73.833.522.113 133.133 28.264 202.334-68.006z" fill="#b8b2b8"/><g fill="#baf39a"><circle cx="214.71" cy="165.162" r="16.516"/><circle cx="297.29" cy="165.162" r="16.516"/></g></g></svg>