<svg id="Capa_1" enable-background="new 0 0 512 512" height="512" viewBox="0 0 512 512" width="512" xmlns="http://www.w3.org/2000/svg"><g><path d="m373.4 277.201 52.02 65.025c4.966 6.208-.687 15.197-8.434 13.409l-85.515-19.735z" fill="#9ae59c"/><path d="m398.557 218.501 40.251 53.668c4.146 5.528.202 13.417-6.709 13.417h-58.7z" fill="#baf39a"/><path d="m138.6 277.201-52.02 65.025c-4.966 6.208.687 15.197 8.434 13.409l85.514-19.734z" fill="#6fd6a2"/><path d="m113.443 218.501-40.251 53.668c-4.146 5.528-.202 13.417 6.709 13.417h58.7z" fill="#6fd6a2"/><path d="m496.107 387.262-47.236 107.967-41.928-67.086 76.83-51.22c6.967-4.645 15.69 2.667 12.334 10.339z" fill="#ffefac"/><path d="m15.893 387.262 47.236 107.967 41.928-67.086-76.83-51.22c-6.967-4.645-15.69 2.667-12.334 10.339z" fill="#ffe077"/><path d="m418.201 409.166-78.344-31.337h-159.246l-78.344 31.337c-28.653 11.461-47.442 39.212-47.442 70.073v7.604l8.303 23.712c2.624.928 5.444 1.445 8.386 1.445h368.971c13.894 0 25.157-11.263 25.157-25.157v-7.604c0-30.861-18.788-58.612-47.441-70.073z" fill="#6fd6a2"/><path d="m146.986 337.22v22.751c0 9.061 1.147 17.979 3.171 26.653l-56.358 22.543c-28.653 11.461-47.442 39.212-47.442 70.073v7.604c0 10.938 7.023 20.247 16.771 23.712v-31.32c0-24.142 14.478-45.532 36.9-54.491l55.159-22.065c6.412 16.393 16.359 31.363 29.567 43.556l65.557 60.514c3.212 2.965 8.164 2.965 11.376 0l65.557-60.514c24.076-22.224 37.769-53.499 37.769-86.265v-82.77z" fill="#3ec2a3"/><path d="m339.857 277.201h-192.871v60.019l25.157 22.871v7.87c0 21.775 9.393 42.477 25.771 56.8l41.519 36.327c4.725 4.136 10.646 6.199 16.567 6.199s11.842-2.064 16.567-6.199l41.511-36.319c16.387-14.331 25.779-35.033 25.779-56.808z" fill="#00b0a0"/><path d="m96.672 117.872v113.847c0 23.626 9.967 46.156 27.449 62.049l64.794 58.904 16.771-16.771v-218.029z" fill="#3ec2a3"/><path d="m415.328 117.872v113.847c0 23.626-9.967 46.156-27.449 62.049l-64.794 58.904-16.771-16.772v-218.028z" fill="#9ae59c"/><path d="m373.4 42.401-92.243-8.386h-50.314l-92.243 8.386-40.177 8.736-11.954 26.018c1.187 8.391 1.817 16.863 1.817 25.361v.003c0 14.728 7.727 28.375 20.356 35.953l21.573 12.944 58.7 75.471v141.078c0 16.926 7.307 33.029 20.046 44.176l41.518 36.328c3.162 2.766 7.883 2.766 11.044 0l41.518-36.328c12.739-11.146 20.046-27.249 20.046-44.176v-141.079l58.7-75.471 21.573-12.944c12.629-7.578 20.356-21.225 20.356-35.953v-.003c0-8.498.63-16.969 1.817-25.361l-15.433-30.571z" fill="#6fd6a2"/><path d="m188.914 226.886-41.799-23.885c-10.451-5.972-16.901-17.086-16.901-29.123v-22.463l41.799 23.885c10.451 5.972 16.901 17.086 16.901 29.123z" fill="#ffe077"/><path d="m82.504 5.003c-6.538-4.358-14.942 1.861-12.684 9.387l10.831 36.102c2.621 8.738 4.543 17.653 5.818 26.662l52.131-34.753z" fill="#ffe077"/><path d="m429.496 5.003c6.538-4.358 14.941 1.861 12.684 9.387l-10.831 36.102c-2.621 8.738-4.543 17.653-5.818 26.662l-52.131-34.753z" fill="#ffefac"/><path d="m323.086 226.886 41.799-23.885c10.451-5.972 16.901-17.086 16.901-29.123v-22.463l-41.8 23.885c-10.451 5.972-16.901 17.086-16.901 29.123v22.463z" fill="#ffe077"/><path d="m281.157 34.015-17.966-29.944c-3.257-5.428-11.124-5.428-14.381 0l-17.966 29.944 19.228 19.228c3.275 3.275 8.584 3.275 11.859 0z" fill="#ffe077"/><path d="m256 411.372c-2.146 0-4.291-.819-5.929-2.457l-25.157-25.157c-3.276-3.276-3.276-8.582 0-11.858s8.582-3.276 11.858 0l19.228 19.228 19.228-19.228c3.276-3.276 8.582-3.276 11.858 0s3.276 8.582 0 11.858l-25.157 25.157c-1.638 1.638-3.783 2.457-5.929 2.457z" fill="#3ec2a3"/><path d="m223.543 139.518 25.633 35.887c3.344 4.682 10.303 4.682 13.647 0l25.633-35.887c3.964-5.55-.003-13.26-6.824-13.26h-51.267c-6.819 0-10.787 7.71-6.822 13.26z" fill="#baf39a"/></g></svg>