<svg id="Capa_1" enable-background="new 0 0 512 512" height="512" viewBox="0 0 512 512" width="512" xmlns="http://www.w3.org/2000/svg"><g><path d="m326.451 381.496c-12.998-4.587-21.689-16.872-21.689-30.655v-11.63l-93.138-.248-3.972 38.833-54.278 36.185 167.247 98.019 18.78-125.934z" fill="#f4aa73"/><path d="m207.238 308.825v42.016c0 13.783-8.691 26.067-21.688 30.654l-15.126 5.338 14.167 12.237 6.361-2.245c19.5-6.882 32.54-25.314 32.54-45.992 0-3.007 2.79-5.131 5.721-4.459 8.624 1.977 17.571 3.086 26.787 3.086 17.34 0 33.814-3.695 48.762-10.249v-30.386z" fill="#e29a6c"/><path d="m410.388 411.121-62.703-22.131c-22.345 25.534-55.088 41.74-91.685 41.74s-64.749-11.616-87.094-37.15l-62.703 22.131c-19.496 6.88-32.533 25.308-32.533 45.982v30.516l11.664 18.382c2.544.9 5.275 1.408 8.127 1.408h121.905l40.634-16.253 40.635 16.254h56.889l16.254-16.254 16.254 16.254h32.508c13.465 0 24.381-10.916 24.381-24.381v-30.516c0-20.674-13.038-39.102-32.533-45.982z" fill="#ffd05b"/><path d="m256 430.73c-34.26 0-65.026-14.318-87.163-37.081 7.525 12.277 32.793 56.544 46.528 118.351h81.27c13.735-61.807 39.003-106.073 46.528-118.351-22.137 22.763-52.903 37.081-87.163 37.081z" fill="#ff8086"/><path d="m107.024 426.448 70.334-24.825c-4.62-3.928-9.05-8.071-13.043-12.633l-62.703 22.131c-19.496 6.88-32.533 25.308-32.533 45.982v30.516c0 10.6 6.806 19.614 16.254 22.973v-53.485c0-13.785 8.693-26.071 21.691-30.659z" fill="#ffc244"/><path d="m247.873 430.73h16.254v48.762h-16.254z" fill="#ff9aa0"/><circle cx="256" cy="479.492" fill="#ffe09c" r="16.254"/><path d="m256 438.857c-36 0-70.762-15.246-95.365-41.829-3.048-3.294-2.849-8.436.444-11.484 3.286-3.052 8.437-2.853 11.492.444 21.849 23.611 51.476 36.615 83.429 36.615s61.579-13.004 83.429-36.615c3.048-3.298 8.198-3.496 11.492-.444 3.294 3.048 3.492 8.19.444 11.484-24.603 26.583-59.365 41.829-95.365 41.829z" fill="#ffe09c"/><path d="m366.145 279.708-53.688 8.907v57.771c0 13.783 8.691 26.067 21.688 30.655l16.229 5.728c6.499 2.294 10.844 8.436 10.844 15.327l8.56 113.904h16.254c0-65.016 24.381-81.27 24.381-130.032 0-52.712-32.11-68.033-44.268-102.26z" fill="#ff646f"/><path d="m348.087 371.893-16.226-5.725c-6.499-2.293-10.845-8.435-10.845-15.327v-11.665c0-5.06 2.25-9.959 6.349-12.927 16.526-11.966 29.933-27.96 38.78-46.542-2.839-7.991-4.599-17.003-4.599-27.771h.105l8.127-8.127v-24.381h-65.016v131.413c0 13.783 8.692 26.068 21.689 30.655l16.228 5.727c6.499 2.294 10.845 8.436 10.845 15.328v109.449h16.254v-109.454c0-13.783-8.693-26.067-21.691-30.653z" fill="#fb4455"/><path d="m256 331.682c-58.349 0-89.387-45.777-89.387-104.127v-138.158h62.221l143.196 97.524-10.379 40.635c0 52.75-38.659 96.471-89.19 104.376 0 0-10.861-.25-16.461-.25z" fill="#fbbd80"/><path d="m150.349 227.556c0 58.349 47.302 105.651 105.651 105.651 5.542 0 11.15-.452 16.461-1.275-50.612-7.836-89.604-51.569-89.604-104.376v-45.932c0-7.948 3.873-15.398 10.409-19.92 6.956-4.812 13.596-10.088 19.854-15.802 6.617-6.042 16.662-5.793 22.891.649 32.921 34.045 77.542 54.331 125.639 56.397l8.127-32.281-73.143-81.27h-146.285l-8.127 113.778z" fill="#f4aa73"/><g fill="#fb4455"><path d="m215.365 186.921h-16.254c-4.492 0-8.127-3.639-8.127-8.127s3.635-8.127 8.127-8.127h16.254c4.492 0 8.127 3.639 8.127 8.127s-3.635 8.127-8.127 8.127z"/><path d="m312.889 186.921h-16.254c-4.492 0-8.127-3.639-8.127-8.127s3.635-8.127 8.127-8.127h16.254c4.492 0 8.127 3.639 8.127 8.127s-3.635 8.127-8.127 8.127z"/><path d="m201.05 40.635h-1.939c-35.907 0-65.016 29.109-65.016 65.016v81.27h16.254v-4.665c0-9.228 5.257-17.582 13.494-21.743 34.745-17.55 62.623-46.648 78.679-82.269z"/></g><path d="m233.897 40.635h-32.847c11.859 82.675 82.772 146.286 168.728 146.286 2.744 0 5.415-.282 8.127-.41v-32.508z" fill="#ff646f"/><path d="m312.889 40.635h-78.992c11.532 64.654 67.911 113.778 135.88 113.778 2.744 0 5.423-.252 8.127-.41v-48.352c.001-35.907-29.108-65.016-65.015-65.016z" fill="#ff8086"/><path d="m207.238 219.429c-4.492 0-8.127-3.639-8.127-8.127v-8.127c0-4.488 3.635-8.127 8.127-8.127s8.127 3.639 8.127 8.127v8.127c0 4.488-3.635 8.127-8.127 8.127z" fill="#4e3d4d"/><path d="m304.762 219.429c-4.492 0-8.127-3.639-8.127-8.127v-8.127c0-4.488 3.635-8.127 8.127-8.127s8.127 3.639 8.127 8.127v8.127c0 4.488-3.635 8.127-8.127 8.127z" fill="#4e3d4d"/><path d="m256 276.317c-12.19 0-23.444-3.913-30.087-10.468-3.198-3.151-3.23-8.298-.079-11.492 3.151-3.198 8.31-3.23 11.492-.079 2.706 2.671 9.222 5.786 18.675 5.786 9.452 0 15.968-3.115 18.675-5.786 3.183-3.151 8.341-3.119 11.492.079 3.151 3.194 3.119 8.341-.079 11.492-6.645 6.556-17.899 10.468-30.089 10.468z" fill="#ff646f"/><path d="m418.54 195.048h-16.254v-89.397c0-49.294-40.103-89.397-89.397-89.397l-56.889-8.127-56.889 8.127c-49.294 0-89.397 40.103-89.397 89.397v89.397h-16.254v-89.397c0-58.258 47.397-105.651 105.651-105.651l56.889 8.127 56.889-8.127c58.254 0 105.651 47.393 105.651 105.651z" fill="#887f88"/><path d="m190.984 325.079h-24.381c-35.849 0-65.016-29.167-65.016-65.016v-16.253h16.254v16.254c0 26.889 21.873 48.762 48.762 48.762h24.381z" fill="#887f88"/><path d="m410.413 186.921-8.127 8.127v40.635l8.127 8.127 16.254-8.127v-32.508c0-8.978-7.278-16.254-16.254-16.254z" fill="#ffd05b"/><path d="m410.413 186.921h-24.381v65.016h24.381c8.977 0 16.254-7.277 16.254-16.254-8.977 0-16.254-7.277-16.254-16.254z" fill="#ffc244"/><path d="m377.905 178.794h8.127c4.488 0 8.127 3.639 8.127 8.127v56.889c0 4.488-3.639 8.127-8.127 8.127h-16.254v-65.016c0-4.489 3.638-8.127 8.127-8.127z" fill="#615260"/><path d="m394.159 243.81c-8.977 0-16.254-7.277-16.254-16.254v-48.762h-8.127c-4.488 0-8.127 3.639-8.127 8.127v65.016c0 4.488 3.639 8.127 8.127 8.127h16.254c4.488 0 8.127-3.639 8.127-8.127z" fill="#4e3d4d"/><path d="m199.111 0h113.778v16.254h-113.778z" fill="#615260"/><path d="m117.841 243.81-16.254-56.889c-8.977 0-16.254 7.277-16.254 16.254v32.508z" fill="#ffd05b"/><path d="m101.587 186.921v32.508c0 8.977-7.277 16.254-16.254 16.254 0 8.977 7.277 16.254 16.254 16.254h32.508v-65.016z" fill="#ffc244"/><path d="m134.095 178.794h8.127c4.488 0 8.127 3.639 8.127 8.127v56.889c0 4.488-3.639 8.127-8.127 8.127h-16.254v-65.016c0-4.489 3.639-8.127 8.127-8.127z" fill="#615260"/><path d="m150.349 243.81c-8.977 0-16.254-7.277-16.254-16.254v-48.762h-8.127c-4.488 0-8.127 3.639-8.127 8.127v65.016c0 4.488 3.639 8.127 8.127 8.127h16.254c4.488 0 8.127-3.639 8.127-8.127z" fill="#4e3d4d"/><path d="m207.238 300.698h-8.127c-8.977 0-16.254 7.277-16.254 16.254 0 8.977 7.277 16.254 16.254 16.254h8.127c8.977 0 16.254-7.277 16.254-16.254 0-8.976-7.277-16.254-16.254-16.254z" fill="#615260"/></g></svg>