<svg id="Capa_1" enable-background="new 0 0 512 512" height="512" viewBox="0 0 512 512" width="512" xmlns="http://www.w3.org/2000/svg"><g><path d="m338.581 355.097h-165.162c-18.243 0-33.032-14.789-33.032-33.032 0-18.243 14.789-33.032 33.032-33.032h165.161c18.243 0 33.032 14.789 33.032 33.032.001 18.243-14.788 33.032-33.031 33.032z" fill="#4e3d4d"/><path d="m388.129 140.387h-16.516v-41.29h24.774c9.122 0 16.516 7.395 16.516 16.516 0 13.682-11.092 24.774-24.774 24.774z" fill="#dbd8db"/><path d="m123.871 140.387h16.516v-41.29h-24.774c-9.122 0-16.516 7.395-16.516 16.516 0 13.682 11.092 24.774 24.774 24.774z" fill="#dbd8db"/><path d="m313.806 316.884v-23.538l-106.352 3.945-23.454 69.369 75.326 44.609 93.061-64.456-20.844-6.175c-10.519-3.117-17.737-12.782-17.737-23.754z" fill="#f4aa73"/><path d="m198.194 264.258v8.258l-5.785 12.59 5.785 12.184v19.593c0 10.972-7.217 20.637-17.737 23.754l-17.986 5.328 8.459 14.72 14.224-4.214c17.53-5.194 29.556-21.299 29.556-39.583 0-6.211 6.536-10.25 12.091-7.472l10.732 5.366c5.782 2.891 12.129 4.335 18.468 4.335s12.685-1.444 18.468-4.335c0 0 38.291-20.882 39.339-21.437v-29.087z" fill="#e29a6c"/><path d="m450.443 395.052-8.724-13.955c-6.001-6.77-13.879-11.932-22.999-14.634l-66.332-19.651c-33.282 19.969-96.388 57.833-96.388 57.833l-88.59-57.833-66.332 19.651c-21.04 6.233-35.474 25.563-35.474 47.508v73.255l8.721 23.365c2.582.913 5.361 1.409 8.256 1.409h33.032l8.526-8.803 7.99 8.803h107.355l15.812-8.803 17.22 8.803h107.355l7.928-8.803 8.588 8.803h33.032c13.682 0 24.774-11.092 24.774-24.774v-73.255c.001-6.643-1.322-13.046-3.75-18.919z" fill="#615260"/><g fill="#4e3d4d"><path d="m239.484 412.903h33.032v99.097h-33.032z"/><path d="m400.621 410.347s40.949-29.157 41.098-29.249c3.658 4.128 6.483 8.921 8.599 14.05l-40.1 28.639c-8.661 6.19-13.831 16.238-13.831 26.883v61.33h-16.516v-61.331c0-15.963 7.758-31.036 20.75-40.322z"/><path d="m111.379 410.347-27.413-19.581c3.825-3.873 8.582-6.86 14.01-8.468l66.331-19.649-4.694-15.837-66.332 19.651c-21.04 6.233-35.474 25.563-35.474 47.508v73.255c0 10.771 6.916 19.957 16.516 23.37v-96.624c0-3.049.517-6.003 1.324-8.852l26.136 18.666c8.661 6.19 13.831 16.238 13.831 26.883v61.331h16.516v-61.331c-.001-15.963-7.759-31.036-20.751-40.322z"/></g><path d="m256 289.032c-59.291 0-84.779-48.064-84.779-107.355v-123.871h192.134v123.871c0 59.291-48.065 107.355-107.355 107.355z" fill="#fbbd80"/><path d="m189.935 181.677v-74.323c0-13.682 11.092-24.774 24.774-24.774h148.645v-24.774h-214.71v123.871c0 59.29 48.065 107.355 107.355 107.355 7.067 0 13.96-.726 20.645-2.03-49.404-9.631-86.709-53.101-86.709-105.325z" fill="#f4aa73"/><path d="m280.774 0h-49.548c-2.783 0-5.539.114-8.265.34l-11.608 41.677 11.615 24.048h74.323c27.365 0 49.548 22.183 49.548 49.548v33.032h33.032v-49.548c0-54.73-44.367-99.097-99.097-99.097z" fill="#845252"/><path d="m222.961.34c-50.856 4.206-90.832 46.815-90.832 98.757v49.548h33.032v-33.032c0-27.365 22.183-49.548 49.548-49.548h8.258z" fill="#7a4646"/><path d="m303.643 263.605-3.902-35.115c-1.394-12.546-11.999-22.038-24.622-22.038h-7.966c-33.044 0-43.939 22.038-43.939 22.038l14.259 61.157 33.664 8.335 18.964-9.482c9.283-4.643 14.688-14.58 13.542-24.895z" fill="#845252"/><path d="m252.172 288.499c-9.283-4.642-14.69-14.579-13.543-24.894l3.901-35.115c1.394-12.546 11.999-22.038 24.623-22.038h-30.267c-12.623 0-23.229 9.492-24.622 22.038l-3.902 35.115c-1.146 10.316 4.26 20.253 13.543 24.894l23.018 11.509c6.975 3.487 15.184 3.487 22.159 0l4.054-2.027z" fill="#7a4646"/><path d="m272.516 247.742h-33.032c-4.565 0-8.258-3.698-8.258-8.258s3.694-8.258 8.258-8.258h33.032c4.565 0 8.258 3.698 8.258 8.258s-3.693 8.258-8.258 8.258z" fill="#f4aa73"/><path d="m165.161 132.129h-49.548c-9.121 0-16.516-7.395-16.516-16.516v41.29c0 9.121 7.395 16.516 16.516 16.516h49.548c4.561 0 8.258-3.698 8.258-8.258v-24.774c0-4.561-3.697-8.258-8.258-8.258z" fill="#eceaec"/><path d="m346.839 132.129h49.548c9.121 0 16.516-7.395 16.516-16.516v41.29c0 9.121-7.395 16.516-16.516 16.516h-49.548c-4.561 0-8.258-3.698-8.258-8.258v-24.774c0-4.561 3.697-8.258 8.258-8.258z" fill="#eceaec"/><path d="m346.839 272.516h-33.032v24.774h30.835c17.975 0 25.034 23.313 10.078 33.284l-75.815 50.543c-13.869 9.246-31.938 9.246-45.807 0l-75.815-50.543c-14.957-9.971-7.898-33.284 10.078-33.284h30.835v-24.774h-33.032c-27.365 0-49.548 22.183-49.548 49.548 0 54.729 44.367 99.097 99.097 99.097h82.581c54.73 0 99.097-44.367 99.097-99.097-.004-27.364-22.187-49.548-49.552-49.548z" fill="#736572"/><path d="m222.968 173.419h-57.806v-41.29h57.806c4.561 0 8.258 3.697 8.258 8.258v24.774c0 4.561-3.697 8.258-8.258 8.258z" fill="#fff"/><path d="m289.032 132.129h57.806v41.29h-57.806c-4.561 0-8.258-3.697-8.258-8.258v-24.774c0-4.561 3.697-8.258 8.258-8.258z" fill="#fff"/></g></svg>