<svg id="Capa_1" enable-background="new 0 0 512 512" height="512" viewBox="0 0 512 512" width="512" xmlns="http://www.w3.org/2000/svg"><g><path d="m214.767 305.121h82.465v32.986h-82.465z" fill="#e29a6c"/><path d="m256 313.367c14.489 0 28.32-2.645 41.233-7.236v-33.996h-82.465v33.996c12.912 4.591 26.743 7.236 41.232 7.236z" fill="#d48c64"/><path d="m297.233 323.428c-13.052 4.062-26.842 6.433-41.233 6.433s-28.181-2.37-41.233-6.433v171.362h82.465v-171.362z" fill="#736572"/><path d="m256 371.093c-14.472 0-29.169-2.291-43.681-6.809-4.349-1.353-6.781-5.975-5.428-10.324 1.353-4.341 5.959-6.809 10.324-5.42 25.851 8.037 51.718 8.037 77.569 0 4.365-1.385 8.963 1.079 10.324 5.42 1.353 4.349-1.079 8.971-5.428 10.324-14.511 4.518-29.208 6.809-43.68 6.809z" fill="#615260"/><path d="m256 402.932c-14.472 0-29.169-2.291-43.681-6.809-4.349-1.353-6.781-5.975-5.428-10.324 1.353-4.341 5.959-6.809 10.324-5.42 25.851 8.037 51.718 8.037 77.569 0 4.365-1.385 8.963 1.079 10.324 5.42 1.353 4.349-1.079 8.971-5.428 10.324-14.511 4.518-29.208 6.809-43.68 6.809z" fill="#615260"/><path d="m441.94 412.704-8.856-14.119c-5.427-6.076-12.385-10.849-20.426-13.687l-85.171-30.061c-13.189-4.655-22.008-17.12-22.008-31.106v-43.351h-16.493v41.233l-24.907 143.216c-1.583 9.103-14.646 9.115-16.246.016l-24.819-141.113-16.493 7.58c0 13.985-8.82 26.451-22.008 31.106l-85.171 30.061c-19.782 6.982-28.078 25.68-28.078 46.658v48.125l11.559 23.298c2.583.914 5.351 1.442 8.247 1.442h32.986l8.609-7.433 7.884 7.433h230.902l8.777-9.504 7.716 9.504h32.986c13.663 0 24.74-11.076 24.74-24.74v-55.705c0-6.61-1.313-12.992-3.73-18.853z" fill="#91ccff"/><path d="m206.521 272.135v51.597c0 13.985-8.819 26.451-22.008 31.106l-85.171 30.061c-19.782 6.982-33.011 25.68-33.011 46.658v55.705c0 10.756 6.906 19.89 16.493 23.298v-79.002c0-2.511.379-4.945.925-7.324l31.49 26.467c5.605 4.715 8.818 11.617 8.818 18.941v42.358h16.493v-42.36c0-12.205-5.355-23.705-14.697-31.565l-34.276-28.811c3.573-3.89 8.058-6.981 13.257-8.814l85.163-30.059c19.755-6.97 33.018-25.722 33.018-46.66v-51.597h-16.494z" fill="#77b3ec"/><path d="m363.205 156.684v-90.712h-201.04l2.908 131.814c11.076 47.408 40.144 97.838 90.927 97.838 5.734 0 11.362.799 16.85-.069 43.117-6.818 77.621-39.385 87.446-81.44.965.114 1.912.293 2.908.293 13.663 0 24.74-11.076 24.74-24.74v-8.247c0-13.661-11.076-24.737-24.739-24.737z" fill="#f4aa73"/><path d="m181.781 189.67v-35.992c0-9.912 2.977-19.596 8.546-27.797l36.464-53.696 1.435-6.213h-79.43v73.853c0 8.563-5.096 15.907-12.485 20.235-7.331 4.294-12.254 12.253-12.254 21.363v8.247c0 13.663 11.076 24.74 24.74 24.74.996 0 1.943-.179 2.908-.293 11.076 47.408 53.513 82.758 104.296 82.758 5.694 0 11.398-.462 16.85-1.319-51.465-7.858-91.07-52.226-91.07-105.886z" fill="#e29a6c"/><path d="m288.986 181.423h-32.986c-4.558 0-8.247-3.692-8.247-8.247 0-4.554 3.688-8.247 8.247-8.247h32.986c4.558 0 8.246 3.692 8.246 8.247.001 4.555-3.688 8.247-8.246 8.247z" fill="#887f88"/><path d="m305.479 214.409c-4.558 0-8.247-3.692-8.247-8.246v-16.493c0-4.554 3.688-8.247 8.247-8.247 4.558 0 8.246 3.692 8.246 8.247v16.493c.001 4.554-3.688 8.246-8.246 8.246z" fill="#b0a8af"/><circle cx="305.479" cy="173.177" fill="#736572" r="24.74"/><path d="m178.889 24.74h-3.752c-35.477 0-62.559 31.702-57.017 66.744l12.04 73.689c4.528-4.947 9.663-6.925 13.487-7.81 4.078-.944 7.641-3.339 9.993-6.803l57.778-85.091 9.403-40.73h-41.932z" fill="#c9c5c9"/><path d="m206.521 190.386c-4.558 0-8.247-3.692-8.247-8.247v-8.247c0-4.554 3.688-8.247 8.247-8.247 4.558 0 8.246 3.692 8.246 8.247v8.247c0 4.555-3.688 8.247-8.246 8.247z" fill="#fff"/><path d="m256 248.112c-12.37 0-23.789-3.97-30.53-10.622-3.245-3.197-3.278-8.42-.081-11.661 3.197-3.245 8.432-3.278 11.661-.081 2.746 2.71 9.358 5.871 18.949 5.871s16.203-3.161 18.949-5.871c3.229-3.197 8.464-3.165 11.661.081 3.197 3.241 3.165 8.464-.081 11.661-6.739 6.652-18.158 10.622-30.528 10.622z" fill="#d48c64"/><path d="m214.767 156.684h-16.493c-4.558 0-8.247-3.692-8.247-8.247 0-4.554 3.688-8.247 8.247-8.247h16.493c4.558 0 8.247 3.692 8.247 8.247 0 4.554-3.688 8.247-8.247 8.247z" fill="#dbd8db"/><path d="m222.332 15.599-33.352-2.035c-6.231 5.907-10.926 13.418-13.424 21.872-2.354 7.967-.066 16.563 5.459 22.767 22.424 25.179 93.226 97.851 184.616 124.182 5 1.441 10.041-2.241 10.387-7.433l2.418-36.272z" fill="#dbd8db"/><path d="m280.74 0h-57.726c-13.194 0-25.164 5.147-34.034 13.564 27.76 43.935 111.816 119.3 196.804 140.766 5.268 1.331 10.407-2.545 10.407-7.978v-30.901c0-63.762-51.69-115.451-115.451-115.451z" fill="#eceaec"/><path d="m386.148 438.075 46.936-39.491c3.722 4.172 6.727 8.924 8.862 14.117l-45.184 37.997c-5.605 4.715-8.818 11.617-8.818 18.941v42.361h-16.493v-42.36c0-12.205 5.355-23.705 14.697-31.565z" fill="#77b3ec"/></g></svg>