<svg id="Capa_1" enable-background="new 0 0 512 512" height="512" viewBox="0 0 512 512" width="512" xmlns="http://www.w3.org/2000/svg"><g><path d="m330.323 300.124v-11.325h-138.924v11.325c0 8.761-3.48 17.163-9.675 23.357l-56.39 56.39v99.097h271.052v-99.097l-56.39-56.39c-6.193-6.194-9.673-14.596-9.673-23.357z" fill="#fbbd80"/><path d="m183.677 335.161c6.11-5.624 9.691-11.921 11.777-17.645 3.14-8.616 12.294-13.179 20.977-10.231 12.428 4.22 25.73 6.522 39.568 6.522 27.903 0 53.591-9.383 74.323-25.008v-65.831h-148.645v77.156c0 8.761-3.48 17.163-9.675 23.357l-56.39 56.39 16.516 6.839z" fill="#f4aa73"/><path d="m433.778 365.585-53.907-10.488-93.198 24.774-5.818 39.696-.081 18.111c0 13.682-11.092 24.774-24.774 24.774s-24.774-11.092-24.774-24.774v-18.111l-96.549-54.704c-78.47 3.587-103.768 33.949-103.768 65.571v56.792l10.382 23.364c2.583.913 5.362 1.41 8.258 1.41h412.903c13.682 0 24.774-11.092 24.774-24.774v-56.793c0-31.622-22.408-58.81-53.448-64.848z" fill="#e29a6c"/><path d="m379.871 157.32v-49.965c0-59.29-48.065-107.355-107.355-107.355h-33.032c-21.289 0-41.117 6.22-57.806 16.909l-17.406 90.572 1.345 90.713c4.23 55.419 33.881 98.011 90.384 98.011 5.642 0 16.586-.189 16.586-.189 48.725-7.565 86.544-47.937 90.351-97.822h12.804c11.402 0 20.645-9.243 20.645-20.645 0-9.989-7.093-18.316-16.516-20.229z" fill="#ffd18d"/><path d="m264.258 253.571h-16.516c-9.122 0-16.516-7.395-16.516-16.516v-5.849h49.548v5.849c0 9.122-7.394 16.516-16.516 16.516z" fill="#f4aa73"/><path d="m181.677 189.935v-173.026c-29.768 19.083-49.548 52.462-49.548 90.446v49.965c-9.423 1.913-16.516 10.241-16.516 20.229 0 11.402 9.243 20.645 20.645 20.645h12.804c4.23 55.419 50.435 99.097 106.938 99.097 5.649 0 11.175-.433 16.586-1.275-51.453-7.941-90.909-52.404-90.909-106.081z" fill="#fbbd80"/><path d="m206.452 181.677c-4.565 0-8.258-3.694-8.258-8.258v-8.258c0-4.56 3.694-8.258 8.258-8.258s8.258 3.698 8.258 8.258v8.258c0 4.565-3.694 8.258-8.258 8.258z" fill="#c6805d"/><path d="m305.548 181.677c-4.565 0-8.258-3.694-8.258-8.258v-8.258c0-4.56 3.694-8.258 8.258-8.258 4.565 0 8.258 3.698 8.258 8.258v8.258c0 4.565-3.693 8.258-8.258 8.258z" fill="#c6805d"/><g fill="#f4aa73"><path d="m214.718 152.085c-.556 0-1.121-.056-1.694-.173l-16.516-3.44c-4.46-.931-7.331-5.302-6.395-9.77.919-4.464 5.234-7.351 9.766-6.399l16.516 3.44c4.46.931 7.331 5.302 6.395 9.77-.806 3.894-4.242 6.572-8.072 6.572z"/><path d="m297.282 152.085c-3.831 0-7.266-2.677-8.073-6.573-.935-4.468 1.935-8.839 6.395-9.77l16.516-3.44c4.508-.952 8.839 1.935 9.766 6.399.935 4.468-1.935 8.839-6.395 9.77l-16.516 3.44c-.572.117-1.136.174-1.693.174z"/><path d="m235.395 76.298-10.7-6.251 6.248-10.693c2.298-3.935.976-8.996-2.96-11.294-3.96-2.306-9.008-.968-11.298 2.964l-6.248 10.693-10.696-6.249c-3.96-2.306-9.008-.968-11.298 2.964-2.298 3.935-.976 8.996 2.96 11.294l10.701 6.252-6.249 10.696c-2.298 3.935-.976 8.996 2.96 11.294 1.315.766 2.75 1.129 4.161 1.129 2.839 0 5.605-1.464 7.137-4.093l6.249-10.696 10.694 6.248c1.315.766 2.75 1.129 4.161 1.129 2.839 0 5.605-1.464 7.137-4.093 2.299-3.935.977-8.995-2.959-11.294z"/></g><path d="m256.71 224.23c-2.994-7.589-12.01-11.475-20.137-8.679l-24.996 4.758c-7.567 1.682-13.176-2.835-12.107-9.248.42-2.522 2.273-4.335 4.37-5.061 4.315-1.476 6.605-6.177 5.121-10.492-1.468-4.298-6.185-6.613-10.492-5.121-6.839 2.347-12.137 7.468-14.516 14.048-2.282 6.298-1.046 12.962 1.952 19.073 8.521 17.371 37.667 27.909 61.512 19.526 8.108-2.851 12.288-11.215 9.293-18.804z" fill="#af6e4d"/><path d="m255.624 224.23c2.994-7.589 12.01-11.475 20.137-8.679l24.996 4.758c7.567 1.682 13.176-2.835 12.107-9.248-.42-2.522-2.273-4.335-4.37-5.061-4.315-1.476-6.605-6.177-5.121-10.492 1.468-4.298 6.185-6.613 10.492-5.121 6.839 2.347 12.137 7.468 14.516 14.048 2.282 6.298 1.046 12.962-1.952 19.073-8.521 17.371-37.667 27.909-61.512 19.526-8.107-2.851-12.287-11.215-9.293-18.804z" fill="#c6805d"/><path d="m293.192 366.741c25.099-6.428 47.663-19.154 65.796-36.527 6.872-6.584 18.003-5.643 24.15 1.622l15.372 18.167c2.72 3.215 2.657 8.029-.278 11.049-30.592 31.481-71.56 52.795-117.377 58.515v-36.914c0-7.503 5.069-14.05 12.337-15.912z" fill="#c6805d"/><path d="m231.226 382.653c0-7.503-5.069-14.05-12.337-15.912-25.099-6.428-47.663-19.154-65.796-36.527-6.872-6.584-18.003-5.643-24.15 1.622l-15.372 18.167c-2.152 2.544-2.487 6.056-1.111 8.921l-34.238 6.661c-31.04 6.039-53.448 33.227-53.448 64.849v56.792c0 10.771 6.916 19.954 16.516 23.367v-80.157c0-23.715 16.804-44.105 40.082-48.636l37.576-7.314c4.835-.941 9.77.409 13.622 3.479 27.776 22.139 61.621 36.977 98.656 41.601z" fill="#c6805d"/></g></svg>