<svg id="Capa_1" enable-background="new 0 0 512 512" height="512" viewBox="0 0 512 512" width="512" xmlns="http://www.w3.org/2000/svg"><g><path d="m251.568 3.352-37.338 104.544h35.432l16.49-90.345-5.071-14.199c-1.596-4.469-7.917-4.469-9.513 0z" fill="#f5c89d"/><path d="m233.887 107.896h64.532l-32.266-90.345z" fill="#fcdbb2"/><path d="m186.579 122.057 9.143 52.97-22.374-10.209c-15.853-7.234-28.286-20.331-34.686-36.539l-14.601-36.98c-1.358-3.439 2.041-6.812 5.481-5.455 12.624 4.981 38.95 18.266 57.037 36.213z" fill="#ffeac6"/><path d="m327.832 119.714-11.886 55.312 22.374-10.209c15.853-7.234 28.286-20.331 34.686-36.539l14.601-36.98c1.358-3.439-2.041-6.812-5.481-5.455-12.624 4.982-36.207 15.925-54.294 33.871z" fill="#ffeac6"/><path d="m71.385 496.868c0-3.248.177-6.109.453-8.8l-.453-1.325z" fill="#dbd8db"/><path d="m416.707 449.395-12.161-4.422-248.662-6.622-59.356 21.584c-16.91 6.149-23.157 13.228-24.689 28.133l7.691 22.472c2.636.932 5.464 1.46 8.419 1.46h336.753c2.488 0 4.89-.36 7.157-1.032 13.965-4.136 19.628-20.567 13.923-33.968-5.354-12.573-15.68-22.734-29.075-27.605z" fill="#dbd8db"/><path d="m357.35 427.812h-202.051l-59.356 21.584c-15.168 5.515-26.397 17.812-30.929 32.715-3.561 11.71 2.754 24.177 14.264 28.339l.252.091v-13.676c0-14.16 8.859-26.807 22.166-31.645l15.692-5.705c4.802-1.746 10.082-1.13 14.473 1.482 36.447 21.672 78.982 34.167 124.464 34.167 55.758 0 107.118-18.731 148.222-50.189z" fill="#c9c5c9"/><path d="m385.535 406.069-21.587-25.904c-2.919-3.503-8.019-3.946-11.664-1.207-7.359 5.531-15.21 10.443-23.475 14.657l-72.485 42.319-72.434-42.293c-8.284-4.221-16.152-9.142-23.526-14.684-3.645-2.739-8.745-2.296-11.664 1.207l-21.587 25.904c-3.026 3.631-2.538 9.128 1.212 12.007 35.467 27.218 79.837 43.412 127.999 43.412s92.532-16.193 127.999-43.412c3.75-2.878 4.238-8.375 1.212-12.006z" fill="#f2d1ff"/><path d="m328.752 394.223.058-.608c-21.758 11.096-46.384 17.359-72.485 17.359-26.1 0-50.677-6.238-72.434-17.333l.068.454c4.135 28.825 29.219 50.554 58.332 50.554h28.068c29.112 0 54.257-21.617 58.393-50.426z" fill="#dfbdf0"/><path d="m340.513 149.99-165.298 4.007 34.153 237.704c2.977 20.723 28.067 36.108 55.425 36.108h5.565c20.935 0 38.689-15.385 41.666-36.108l25.088-173.673c2.241-15.511 3.478-31.144 3.708-46.799z" fill="#fbf4db"/><path d="m223.127 391.702-14.907-103.754c-4.606-32.061 14.246-62.833 44.908-73.273 30.993-10.553 62.659-24.794 87.693-43.446.106-7.113.003-14.126-.307-21.239l-174.043 4.007 34.153 237.705c2.977 20.722 20.731 36.107 41.666 36.107h22.504c-20.936.001-38.69-15.384-41.667-36.107z" fill="#ffeac6"/><path d="m329.124 112.503-23.796-21.696c-9.564-5.214-20.505-8.167-32.166-8.167-19.101 0-37.74 4.481-54.512 12.862l-15.843 13.698-29.485 70.398-7.226 2.135c-19.916 5.885-34.212 23.342-36.054 44.027 0 0 143.12-16.838 210.471-75.769 0-13.876-4.196-26.772-11.389-37.488z" fill="#f2d1ff"/><circle cx="188.974" cy="234.179" fill="#77b3ec" r="16.838"/><circle cx="323.675" cy="234.179" fill="#91ccff" r="16.838"/><path d="m239.487 402.555c-2.154 0-4.308-.822-5.952-2.466l-8.419-8.419c-3.289-3.289-3.289-8.616 0-11.905s8.616-3.289 11.905 0l8.419 8.419c3.289 3.289 3.289 8.616 0 11.905-1.645 1.644-3.799 2.466-5.953 2.466z" fill="#f5c89d"/><path d="m273.162 402.555c-2.154 0-4.308-.822-5.952-2.466-3.289-3.289-3.289-8.616 0-11.905l8.419-8.419c3.289-3.289 8.616-3.289 11.905 0s3.289 8.616 0 11.905l-8.419 8.419c-1.645 1.644-3.799 2.466-5.953 2.466z" fill="#f5c89d"/><path d="m305.328 90.807c-16.116 13.758-41.491 26.417-68.807 37.024-13.376 5.194-26.641-7.915-21.815-21.428l3.944-10.901c-11.564 5.8-22.399 13.537-31.719 22.856-8.091 8.091-13.002 18.728-14.041 30.004-6.612 1.747-12.983 3.313-18.988 4.68-17.967 4.09-29.991 20.976-27.815 39.273 37.185-4.629 150.489-32.158 203.036-79.812-6.048-9.013-14.22-16.481-23.795-21.696z" fill="#dfbdf0"/></g></svg>