<svg id="Capa_1" enable-background="new 0 0 512 512" height="512" viewBox="0 0 512 512" width="512" xmlns="http://www.w3.org/2000/svg"><g><path d="m427.737 377.925-319.513-1.404c-20.685 6.464-34.769 18.106-34.769 39.778v70.927l9.126 23.346c2.585.914 5.36 1.429 8.258 1.429h91.664l76.833-13.963 70.161 13.962h91.664c13.682 0 24.774-11.092 24.774-24.774v-70.927c0-15.199-6.926-29.16-18.198-38.374z" fill="#615260"/><path d="m84.188 377.987c-11.227 9.215-18.123 23.147-18.123 38.311v70.927c0 10.771 6.916 19.932 16.516 23.345v-94.273c0-6.729 1.999-13.06 5.524-18.349l5.098-13.806z" fill="#4e3d4d"/><path d="m411.166 369.006-76.77-23.991-141.424 2.808-101.563 34.303-3.301 15.823c12.877 50.62 47.989 92.271 94.394 114.051h146.995c52.342-24.568 90.335-74.59 98.239-134.075-4.819-3.958-10.355-6.977-16.57-8.919z" fill="#736572"/><path d="m125.129 361.413-24.295 7.592c-6.215 1.942-11.826 5.024-16.646 8.981.9 6.771 2.262 13.465 3.917 19.963 4.083-6.125 10.213-10.851 17.653-13.175l22.872-7.148z" fill="#615260"/><path d="m379.303 115.356c-3.737-56.062-44.462-101.33-97.407-112.633-8.36-1.785-17.025-.168-25.897-.168-65.059 0-101.747 47.888-106.075 112.802l40.356 231.811 197.017-94.257z" fill="#736572"/><path d="m281.897 2.723c-8.273-1.746-17.125-2.723-25.897-2.723-65.059 0-118.976 50.442-123.303 115.356l-7.995 137.555 43.719 94.257 15.454-231.811c3.743-56.162 44.939-101.431 98.022-112.634z" fill="#615260"/><path d="m394.931 344.5-7.633-91.589c-5.645-67.726-63.302-120.782-131.262-120.782h-.073c-27.542 0-53.392 8.714-74.774 23.588l-41.129 59.828-17.273 128.955c-3.226 38.734 6.869 74.039 33.192 102.644 17.407 18.916 61.403 42.856 61.403 42.856 12.454 3.601 25.451 5.484 38.618 5.484 38.875 0 76.27-16.411 102.593-45.016s39.564-67.234 36.338-105.968z" fill="#ffe077"/><path d="m362.012 347.238-7.632-91.588c-.48-5.765-1.45-11.38-2.866-16.806 0 0-33.775-65.449-95.55-65.449-45.556 0-95.421 65.513-95.421 65.513-1.409 5.411-2.443 10.993-2.922 16.741l-7.632 91.588c-.182 2.192-.298 4.373-.347 6.542l212.715-.117c-.052-2.129-.166-4.271-.345-6.424z" fill="#4e3d4d"/><path d="m278.616 442.884c60.052 0 57.15-38.676 55.78-97.869l-3.205-1.002c-10.343-3.232-17.385-12.81-17.385-23.646v-20.915h-103.571l-26.231 66.083s34.56 77.349 94.612 77.349z" fill="#fbbd80"/><path d="m313.806 299.452v-26.936h-115.612v47.851c0 10.836-7.042 20.414-17.385 23.646l-3.205 1.002-.943 8.638 9.073 6.13c17.238-5.387 28.976-21.352 28.976-39.412 0-6.756 6.357-11.506 12.927-9.934 9.104 2.179 18.588 3.37 28.363 3.37 20.89-.001 40.542-5.223 57.806-14.355z" fill="#f4aa73"/><path d="m334.396 345.015c-6.737 9.355-26.932 35.701-53.18 54.317-15.002 10.64-35.43 10.64-50.431 0-17.668-12.531-32.541-28.492-42.465-40.488l-21.579-.034-15.988 11.881c7.049 51.391 51.045 91.762 105.247 91.762 60.052 0 107.726-49.595 106.356-108.789z" fill="#736572"/><path d="m188.319 358.843c-4.77-5.772-8.528-10.792-10.715-13.829l-27.963 8.765c-.134 5.773.349 11.359 1.111 16.911l34.981-10.908c.891-.278 1.727-.607 2.586-.939z" fill="#615260"/><path d="m256.036 172.05h-.073c-45.553 0-59.932 20.271-71.063 63 0 0 29.469 59.862 71.099 59.862 8.663 0 25.147-.59 25.147-.59 22.606-5.44 42.409-18.051 56.909-35.283l2.72-21.41c-11.131-42.73-39.186-65.579-84.739-65.579z" fill="#ffd18d"/><path d="m256.036 165.161h-.036-.036c-45.553 0-84.289 31.018-95.421 73.747 17.809 34.64 53.827 58.382 95.457 58.382 8.627 0 17.115-1.044 25.147-2.969-33.905-7.94-61.708-31.932-74.733-63.535-6.842-16.602 1.418-35.635 17.946-42.652 16.996-7.215 36.77-8.84 56.904-2.537 32.001 10.017 53.997 39.521 56.78 72.937l.011.505c5.157-6.139 9.759-13.001 13.457-20.195-11.13-42.73-49.923-73.683-95.476-73.683z" fill="#fbbd80"/><path d="m280.774 239.484c-2.097 0-4.194-.79-5.798-2.379-2.75-2.71-9.363-5.879-18.976-5.879s-16.226 3.169-18.976 5.879c-3.234 3.202-8.46 3.169-11.677-.081-3.202-3.242-3.169-8.468.081-11.677 6.75-6.661 18.177-10.637 30.573-10.637 12.395 0 23.823 3.976 30.573 10.637 3.25 3.21 3.282 8.435.081 11.677-1.623 1.637-3.752 2.46-5.881 2.46z" fill="#f4aa73"/><path d="m217.382 490c4.036-7.265 1.074-16.806-6.657-19.855-17.032-6.717-32.554-17.157-45.168-30.862-23.202-25.21-34.879-59.258-32.032-93.411l7.637-91.589c2.201-26.416 13.49-50.235 30.567-68.558 5.257-5.64 8.479-12.862 8.958-20.557l.503-9.451c-31.376 21.827-53.131 56.917-56.488 97.194l-7.633 91.589c-3.226 38.734 10.016 77.363 36.339 105.968 17.411 18.921 39.649 32.502 63.974 39.532z" fill="#ffd05b"/></g></svg>