<svg id="Capa_1" enable-background="new 0 0 512 512" height="512" viewBox="0 0 512 512" width="512" xmlns="http://www.w3.org/2000/svg"><g><path d="m305.548 364.391v-19.67h-84.218l-19.505 55.9 53.92 30.155 65.229-38.434c-9.46-5.958-15.426-16.442-15.426-27.951z" fill="#ffd18d"/><path d="m104.532 441.508 85.506-30.443c19.744-7.029 32.929-25.72 32.929-46.678 0-6.962 6.255-12.118 13.122-10.966 6.478 1.086 13.121 1.676 19.91 1.676 17.629 0 34.367-3.738 49.548-10.376v-30.914h-99.097v50.584c0 13.972-8.79 26.432-21.953 31.119l-85.506 30.444c-19.743 7.03-32.929 25.721-32.929 46.678v14.595c0 10.771 6.916 19.844 16.516 23.257v-37.858c.003-13.972 8.793-26.432 21.954-31.118z" fill="#fbbd80"/><path d="m413.007 425.953-85.506-30.444c-2.323-.827-4.45-1.971-6.476-3.247l-65.025 28.899-71.501-20.426-85.506 30.445c-19.743 7.03-25.748 25.72-25.748 46.678v9.368l9.335 23.257c2.592.921 5.35 1.517 8.258 1.517h156.903l8.003-14.413 8.514 14.413h156.903c13.682 0 24.774-11.092 24.774-24.774v-14.595c0-20.958-13.185-39.648-32.928-46.678z" fill="#f2d1ff"/><path d="m104.532 441.508 85.506-30.443c7.708-2.744 14.368-7.304 19.683-13.043l-15.714-7.857c-2.811 2.247-5.987 4.09-9.509 5.344l-85.506 30.444c-19.743 7.03-32.929 25.72-32.929 46.678v14.595c0 10.771 6.916 19.94 16.516 23.352v-37.953c.002-13.971 8.791-26.431 21.953-31.117z" fill="#dfbdf0"/><path d="m247.742 429.419h16.516v82.581h-16.516z" fill="#dfbdf0"/><path d="m256 337.392c-59.291 0-91.505-46.876-91.505-106.166v-165.161h198.86v165.161c0 53.591-39.268 98.01-90.6 106.055 0 0-11.055.111-16.755.111z" fill="#ffe09c"/><path d="m181.677 231.226v-66.065c0-9.122 7.395-16.516 16.516-16.516h165.161v-82.58h-214.71v165.161c0 59.29 48.065 107.355 107.355 107.355 5.632 0 11.357-.464 16.755-1.3-51.427-7.963-91.077-52.396-91.077-106.055z" fill="#ffd18d"/><path d="m280.774 0h-44.983c-82.094 0-138.556 71.345-138.556 153.44l18.378 143.851v11.092c0 8.761 3.48 17.163 9.675 23.357l20.47 20.47c4.113 4.113 11.145 1.2 11.145-4.616v-190.69c0-13.682 11.092-24.774 24.774-24.774h41.29c4.561 0 8.258-3.697 8.258-8.258v-24.775c0-4.565 3.694-8.258 8.258-8.258s8.258 3.694 8.258 8.258v24.774c0 4.561 3.697 8.258 8.258 8.258h8.258c4.561 0 8.258-3.697 8.258-8.258v-23.78c0-8.034 10.308-11.337 14.978-4.8l21.373 29.922c3.1 4.34 8.106 6.916 13.439 6.916h8.017c13.682 0 24.774 11.092 24.774 24.774v190.69c0 5.816 7.032 8.729 11.145 4.616l20.47-20.47c6.195-6.195 9.675-14.597 9.675-23.357v-11.092l6.209-20.092 10.307 3.533c10.841-10.841 16.516-25.086 16.516-40.417v-91.669c.001-82.094-66.549-148.645-148.644-148.645z" fill="#ff646f"/><path d="m115.613 148.645c0-82.095 66.551-148.645 148.645-148.645h-33.032c-82.094 0-148.645 66.55-148.645 148.645v91.669c0 15.331 6.09 30.034 16.931 40.875l16.101 16.101z" fill="#fb4455"/><path d="m206.452 223.685c-4.565 0-8.258-3.694-8.258-8.258v-8.258c0-4.565 3.694-8.258 8.258-8.258s8.258 3.694 8.258 8.258v8.258c0 4.565-3.694 8.258-8.258 8.258z" fill="#cbb0f2"/><path d="m305.548 223.685c-4.565 0-8.258-3.694-8.258-8.258v-8.258c0-4.565 3.694-8.258 8.258-8.258 4.565 0 8.258 3.694 8.258 8.258v8.258c0 4.565-3.693 8.258-8.258 8.258z" fill="#cbb0f2"/><g fill="#fbbd80"><path d="m198.185 189.935c-3.702 0-7.065-2.5-8-6.258-1.113-4.419 1.581-8.903 6.008-10.008l16.516-4.129c4.403-1.113 8.903 1.573 10.008 6.008 1.113 4.419-1.581 8.903-6.008 10.008l-16.516 4.129c-.669.17-1.346.25-2.008.25z"/><path d="m313.815 189.935c-.661 0-1.339-.081-2.008-.25l-16.516-4.129c-4.427-1.105-7.121-5.589-6.008-10.008 1.097-4.435 5.589-7.129 10.008-6.008l16.516 4.129c4.427 1.105 7.121 5.589 6.008 10.008-.936 3.758-4.299 6.258-8 6.258z"/><path d="m255.613 289.032c-12.395 0-23.823-3.976-30.573-10.637-3.25-3.21-3.282-8.435-.081-11.677 3.218-3.242 8.444-3.282 11.677-.081 2.75 2.71 9.363 5.879 18.976 5.879s16.226-3.161 18.968-5.871c3.25-3.202 8.476-3.177 11.677.065 3.21 3.242 3.177 8.476-.065 11.677-6.74 6.669-18.176 10.645-30.579 10.645z"/></g><path d="m307.3 389.737-34.784 14.908-16.516 16.516-16.516-16.516-34.784-14.908c-10.899-4.671-23.022 3.324-23.022 15.181v32.486c0 11.857 12.123 19.851 23.022 15.18l34.784-14.907 16.516-16.516 16.516 16.516 34.784 14.907c10.899 4.671 23.022-3.324 23.022-15.18v-32.486c.001-11.857-12.123-19.851-23.022-15.181z" fill="#ff646f"/><path d="m404.645 173.419c-4.561 0-8.258 3.697-8.258 8.258v115.613l16.101-16.101c.146-.146.27-.31.415-.458v-99.053c0-4.562-3.697-8.259-8.258-8.259z" fill="#fb4455"/><path d="m239.484 404.645h33.032v33.032h-33.032z" fill="#fb4455"/></g></svg>