<svg id="Capa_1" enable-background="new 0 0 512 512" height="512" viewBox="0 0 512 512" width="512" xmlns="http://www.w3.org/2000/svg"><g><path d="m396.326 322.055c10.284-7.527 17.035-19.463 17.035-33.034 0-7.657-2.152-14.79-5.875-20.905-6.694-10.995-10.929-23.258-10.929-36.071v-91.677c0-76.641-62.481-138.939-140.107-140.368-14.383.265-28.251 2.602-41.292 6.75l-49.99 89.943 91.282 349.239 127.094-47.899c18.477-6.726 29.817-26.919 29.817-42.944 0-13.571-6.752-25.507-17.035-33.034z" fill="#b8ddff"/><path d="m256.45 148.627-41.292-8.258v-133.619c-57.34 18.244-98.814 71.182-98.814 133.618v91.677c0 12.813-4.235 25.076-10.929 36.071-3.723 6.115-5.875 13.248-5.875 20.905 0 13.571 6.751 25.507 17.035 33.034-10.284 7.527-17.035 19.463-17.035 33.034 0 16.025 11.34 36.218 29.816 42.944l48.051 18.109 79.044-19.761v-247.754z" fill="#91ccff"/><path d="m413.785 401.23-85.295-30.104c-13.208-4.662-22.04-17.145-22.04-31.151v-20.255l-94.821-3.582v29.048c0 14.006-8.832 26.489-22.04 31.151l-108.949 34.252 175.81 93.152 175.81-93.152c-4.26-3.587-15.116-8.173-18.475-9.359z" fill="#d5eaff"/><path d="m306.45 319.72v-30.699h-100.001v50.954c0 14.006-8.832 26.489-22.039 31.151l-85.295 30.104c-3.359 1.186-14.214 5.771-18.474 9.359l17.174 9.1c2.515-1.18 5.132-2.296 6.797-2.887l85.304-30.112c19.805-6.991 33.049-25.711 33.049-46.714 0-7.014 6.243-12.581 13.157-11.401 6.61 1.128 13.394 1.739 20.328 1.739 17.807 0 34.698-3.828 50-10.594z" fill="#b8ddff"/><path d="m330.326 99.076h-134.815c-18.244 0-33.034 14.79-33.034 33.034v71.293c0 57.809 30.588 105.813 88.332 108.533 7.619.359 15.073 1.661 22.288.506 43.006-6.882 77.462-39.311 87.366-81.23l2.574-16.517c.211-2.725.322-5.479.322-8.258v-74.327c.001-18.244-14.789-33.034-33.033-33.034z" fill="#eaf3ff"/><path d="m255.998 264.964c-12.396 0-23.824-3.976-30.574-10.638-3.25-3.21-3.282-8.436-.081-11.678 3.218-3.25 8.444-3.29 11.678-.081 2.75 2.71 9.363 5.879 18.977 5.879s16.227-3.17 18.977-5.879c3.234-3.21 8.46-3.17 11.678.081 3.202 3.242 3.17 8.468-.081 11.678-6.75 6.662-18.178 10.638-30.574 10.638z" fill="#b8ddff"/><g><path d="m206.447 207.154c-4.565 0-8.258-3.694-8.258-8.258v-8.258c0-4.565 3.694-8.258 8.258-8.258s8.258 3.694 8.258 8.258v8.258c.001 4.565-3.693 8.258-8.258 8.258z" fill="#fff"/></g><g><path d="m305.549 207.154c-4.565 0-8.258-3.694-8.258-8.258v-8.258c0-4.565 3.694-8.258 8.258-8.258 4.565 0 8.258 3.694 8.258 8.258v8.258c.001 4.565-3.693 8.258-8.258 8.258z" fill="#fff"/></g><g><path d="m214.706 173.403h-16.517c-4.565 0-8.258-3.694-8.258-8.258 0-4.565 3.694-8.258 8.258-8.258h16.517c4.565 0 8.258 3.694 8.258 8.258s-3.693 8.258-8.258 8.258z" fill="#b8ddff"/></g><g><path d="m313.808 173.403h-16.517c-4.565 0-8.258-3.694-8.258-8.258 0-4.565 3.694-8.258 8.258-8.258h16.517c4.565 0 8.258 3.694 8.258 8.258s-3.694 8.258-8.258 8.258z" fill="#b8ddff"/></g><path d="m256.45 388.123-58.583-26.532c-3.716-1.683-7.177 2.774-4.628 5.958l56.354 70.381c3.293 4.113 9.544 4.132 12.862.039l56.993-70.312c2.576-3.178-.886-7.664-4.613-5.976z" fill="#fff"/><path d="m463.371 386.999-186.77 85.38c-13.083 5.981-28.12 5.981-41.203 0l-183.155-83.728-10.581 7.862 24.18 96.721 17.233 18.658c.767.072 1.542.108 2.325.108h341.202c11.369 0 21.278-7.737 24.036-18.767l24.18-96.72c1.677-6.714-5.152-12.391-11.447-9.514z" fill="#dbd8db"/><path d="m301.75 214.695c-11.033 0-21.404-4.299-29.203-12.097l-10.259-10.259c-3.226-3.226-8.452-3.226-11.678 0l-10.259 10.259c-7.799 7.799-18.17 12.097-29.203 12.097h-28.408c-.377-3.725-.617-7.484-.617-11.291v-54.776c0-18.244 14.79-33.034 33.034-33.034h41.292v-16.518h-74.776c-18.244 0-33.034 14.79-33.034 33.034v71.293c0 57.809 44.425 107.551 102.17 110.271 7.526.354 15.155-.108 22.288-1.232-42.824-6.812-76.795-39.744-87.416-81.23h25.467c15.444 0 29.961-6.016 40.881-16.936l4.42-4.42 4.42 4.42c10.92 10.92 25.437 16.936 40.881 16.936h58.713c1.269-5.364 2.143-10.876 2.574-16.517z" fill="#d5eaff"/><path d="m256.45 90.818 8.258 16.517-8.258 33.034-74.776-41.292 21.177-21.177c2.206-2.206 5.467-2.981 8.43-2.002z" fill="#dbd8db"/><path d="m301.618 75.897-45.168 14.921v49.551l74.776-41.292-21.177-21.177c-2.207-2.207-5.468-2.981-8.431-2.003z" fill="#fff"/><path d="m52.243 388.651-3.615-1.652c-6.294-2.877-13.124 2.8-11.445 9.514l24.18 96.72c2.562 10.248 11.365 17.661 21.711 18.658z" fill="#c9c5c9"/></g></svg>