<svg id="Capa_1" enable-background="new 0 0 512 512" height="512" viewBox="0 0 512 512" width="512" xmlns="http://www.w3.org/2000/svg"><g><path d="m97.639 45.174 15.519 10.407-4.781 21.807c-15.115 6.133-25.796 20.908-25.796 38.225v129.409c0 17.742-6.347 34.898-17.893 48.369l-20.166 23.527c-3.946 4.604-11.49 1.813-11.49-4.25v-180.539c0-40.963 27.347-75.625 64.607-86.955z" fill="#dbd8db"/><path d="m97.639 45.174 10.738 32.214c4.791-1.944 10.006-3.066 15.494-3.066h33.032l16.516-33.032h-49.548c-9.126 0-17.923 1.38-26.232 3.884z" fill="#91ccff"/><path d="m414.361 45.174-15.519 10.407 4.781 21.807c15.115 6.133 25.796 20.908 25.796 38.225v129.409c0 17.742 6.347 34.898 17.893 48.369l20.166 23.527c3.946 4.604 11.49 1.813 11.49-4.25v-180.539c0-40.963-27.347-75.625-64.607-86.955z" fill="#dbd8db"/><path d="m414.361 45.174-10.738 32.214c-4.791-1.944-10.006-3.066-15.494-3.066h-33.032l-16.516-33.032h49.548c9.126 0 17.923 1.38 26.232 3.884z" fill="#91ccff"/><path d="m395.685 126.48-64.529 3.204 14.144 119.032c31.201-25.749 51.088-64.717 51.088-108.33-.001-4.645-.262-9.376-.703-13.906z" fill="#eceaec"/><path d="m115.613 140.387c0 77.534 62.853 140.387 140.387 140.387v-280.774c-77.534 0-140.387 62.853-140.387 140.387z" fill="#c9c5c9"/><path d="m412.878 401.236-57.781-20.394-70.092 15.075 2.13-68.717-73.022-7.623v25.798c0 14.005-8.832 26.488-22.039 31.149l-85.291 30.103c-19.81 6.991-33.057 25.716-33.057 46.723v39.267l8.856 17.958c2.585.914 5.361 1.425 8.258 1.425h330.323c13.682 0 24.774-11.092 24.774-24.774v-39.267c-.002-21.007-13.249-39.732-33.059-46.723z" fill="#ffd18d"/><path d="m156.903 380.842-57.781 20.394c-19.81 6.991-33.057 25.716-33.057 46.723v39.267c0 10.771 6.916 19.936 16.516 23.349v-62.612c0-14.007 8.833-26.49 22.04-31.152l52.282-18.454 4.903-9.502z" fill="#fbbd80"/><path d="m223.013 308.815 16.471 20.264c5.404.757 10.905 1.243 16.516 1.243 5.608 0 11.108-.513 16.516-1.245l11.255-20.262z" fill="#fbbd80"/><path d="m208.664 363.52-51.761 34.837v14.546c0 18.243 14.789 33.032 33.032 33.032h132.129c18.243 0 33.032-14.789 33.032-33.032v-32.061l-27.51-9.709c-13.207-4.661-22.039-17.144-22.039-31.149v-20.076l-33.032 9.169v42.536c0 9.121-7.395 16.516-16.516 16.516s-16.516-7.395-16.516-16.516v-42.534l-18.937-11.296z" fill="#eceaec"/><path d="m305.548 319.908v-30.876h-33.032v40.045c11.575-1.571 22.685-4.631 33.032-9.169z" fill="#dbd8db"/><path d="m184.413 371.133-27.51 9.709v17.515l33.008-11.65c19.809-6.992 33.057-25.716 33.057-46.723 0-7.162 6.435-12.448 13.502-11.281.992.164 2.014.236 3.014.376v-40.047h-33.032v50.952c0 14.005-8.832 26.488-22.039 31.149z" fill="#dbd8db"/><path d="m362.004 148.085-106.004-72.401c-59.29 0-92.4 48.064-92.4 107.355v23.413c0 59.29 33.11 105.615 92.4 105.615 7.147 0 20.887-.291 20.887-.291 49.293-9.72 86.468-53.18 86.468-105.324v-41.29c0-5.812-.462-11.516-1.351-17.077z" fill="#ffe09c"/><path d="m189.935 206.452v-49.548c0-13.333 2.473-26.069 6.945-37.827 3.715-9.766 15.692-13.164 24.459-7.478 36.761 23.841 80.052 37.047 125.499 37.047 5.004 0 10.15-.229 15.165-.56-8.613-53.811-57.208-94.298-114.379-89.96-56.42 4.281-98.98 53.411-98.98 109.993v33.698c0 47.163 28.713 90.676 73.259 106.166 19.235 6.688 37.905 7.124 54.982 3.794-49.403-9.632-86.95-53.102-86.95-105.325z" fill="#ffd18d"/><path d="m222.968 173.419h66.065v16.516h-66.065z" fill="#eceaec"/><path d="m206.452 173.419h-57.806c-4.561 0-8.258-3.697-8.258-8.258 0-4.561 3.697-8.258 8.258-8.258h57.806z" fill="#dbd8db"/><path d="m305.548 156.903h57.806c4.561 0 8.258 3.697 8.258 8.258 0 4.561-3.697 8.258-8.258 8.258h-57.806z" fill="#eceaec"/><circle cx="206.452" cy="189.935" fill="#91ccff" r="33.032"/><circle cx="305.548" cy="189.935" fill="#91ccff" r="33.032"/><path d="m256 264.258c-12.387 0-23.823-3.976-30.573-10.637-3.25-3.202-3.282-8.431-.081-11.677 3.202-3.25 8.444-3.282 11.677-.081 2.75 2.714 9.371 5.879 18.976 5.879s16.226-3.165 18.976-5.879c3.234-3.202 8.476-3.169 11.677.081 3.202 3.246 3.169 8.476-.081 11.677-6.748 6.661-18.184 10.637-30.571 10.637z" fill="#fbbd80"/><circle cx="206.452" cy="189.935" fill="#b8ddff" r="16.516"/><circle cx="305.548" cy="189.935" fill="#b8ddff" r="16.516"/><path d="m388.592 94.203-195.14-79.494c-9.931 4.962-19.193 11.065-27.617 18.135 38.138 59.68 104.925 99.285 181.004 99.285 16.811 0 33.148-1.994 48.846-5.649-1.102-11.197-3.518-22.008-7.093-32.277z" fill="#dbd8db"/><path d="m193.452 14.709c32.239 50.663 88.887 84.388 153.387 84.388 14.325 0 28.384-1.759 41.753-4.893-19.099-54.837-71.246-94.204-132.592-94.204-22.486 0-43.716 5.3-62.548 14.709z" fill="#eceaec"/></g></svg>