<svg id="Capa_1" enable-background="new 0 0 512 512" height="512" viewBox="0 0 512 512" width="512" xmlns="http://www.w3.org/2000/svg"><g><path d="m280.774 0h-49.548c-27.365 0-49.548 22.184-49.548 49.548 0 27.365 22.184 49.548 49.548 49.548h49.548c27.365 0 49.548-22.184 49.548-49.548.001-27.364-22.183-49.548-49.548-49.548z" fill="#ffd18d"/><path d="m412.878 417.752-25.346-8.946-58.245 9.419-1.7-30.576c-13.207-4.661-22.039-17.144-22.039-31.149v-11.779l-91.949-3.172v21.806c0 14.005-8.832 26.488-22.039 31.149l-85.291 30.103c-19.81 6.992-33.057 25.716-33.057 46.723v22.751l9.368 16.484c2.585.915 5.359 1.436 8.258 1.436h330.323c13.682 0 24.774-11.092 24.774-24.774v-22.75c0-21.009-13.247-39.733-33.057-46.725z" fill="#a46a5a"/><path d="m104.621 433.327 85.29-30.103c19.81-6.992 33.057-25.716 33.057-46.723 0-3.052 2.83-5.208 5.806-4.529 8.762 2.002 17.856 3.125 27.226 3.125 17.629 0 34.367-3.738 49.548-10.376v-39.172h-99.097v50.951c0 14.005-8.832 26.488-22.038 31.149l-25.743 16.451-34.203 4.706-25.346 8.946c-19.81 6.992-33.057 25.716-33.057 46.723v22.75c0 10.771 6.916 19.925 16.516 23.338v-46.085c.001-14.006 8.833-26.49 22.041-31.151z" fill="#845252"/><path d="m387.532 408.806-53.11-18.745-78.422 72.391-82.696-70.882-35.073 29.894 84.067 77.31c9.198 8.528 21.166 13.226 33.702 13.226s24.504-4.698 33.702-13.226z" fill="#fbbd80"/><path d="m173.304 391.57-48.836 17.236 13.763 12.658 49.547-17.489z" fill="#f4aa73"/><path d="m363.355 190.101v-91.004h-170.606l-14.797 140.387s-.52 66.909 50.445 91.303c13.116 6.278 48.36 5.781 48.36 5.781 46.698-9.16 82.482-48.632 86.18-97.084h12.804c11.402 0 20.645-9.243 20.645-20.645 0-9.977-7.108-18.304-16.516-20.229z" fill="#c6805d"/><path d="m199.829 168.978c15.987-7.066 32.458-17.77 50.656-33.764 3.155-2.773 7.881-2.768 11.035.005 37.668 33.113 67.94 43.653 101.835 45.928v-82.05h-214.71v78.225l-16.516 21.503c-8.542 2.054-15.513 8.938-16.409 17.884-1.237 12.358 8.433 22.775 20.538 22.775h12.804c4.23 55.419 50.435 99.097 106.938 99.097 7.103 0 14.042-.696 20.757-2.013-49.46-9.588-86.822-53.08-86.822-105.342v-47.16c0-6.563 3.891-12.435 9.894-15.088z" fill="#a46a5a"/><path d="m363.355 198.194h12.387c1.414 0 2.794.145 4.129.416v-49.965h-41.29v24.774c0 13.683 11.091 24.775 24.774 24.775z" fill="#ffe09c"/><path d="m148.645 198.194h-11.437c-1.414 0-3.744.361-5.079.632v-50.18h41.29v24.774c0 13.682-11.091 24.774-24.774 24.774z" fill="#fbbd80"/><path d="m256 289.032c-12.387 0-23.823-3.976-30.573-10.637-3.25-3.202-3.282-8.431-.081-11.677s8.444-3.282 11.677-.081c2.75 2.714 9.371 5.879 18.976 5.879s16.226-3.165 18.976-5.879c3.234-3.202 8.476-3.165 11.677.081 3.202 3.246 3.169 8.476-.081 11.677-6.748 6.661-18.184 10.637-30.571 10.637z" fill="#a46a5a"/><path d="m214.71 222.968c-4.565 0-8.258-3.698-8.258-8.258v-16.516c0-4.56 3.694-8.258 8.258-8.258 4.565 0 8.258 3.698 8.258 8.258v16.516c0 4.56-3.694 8.258-8.258 8.258z" fill="#7a4646"/><path d="m198.185 206.452c-4.048 0-7.581-2.976-8.169-7.097-.637-4.516 2.5-8.698 7.016-9.339l33.032-4.694c4.516-.681 8.694 2.5 9.339 7.016.637 4.516-2.5 8.698-7.016 9.339l-33.032 4.694c-.395.056-.782.081-1.17.081z" fill="#fbbd80"/><path d="m395.326 132.916-129.806-99.884h-34.294c-63.851 0-115.613 51.762-115.613 115.613v8.258c0 4.56 3.697 8.258 8.258 8.258h8.258c41.29 0 74.323-8.258 123.871-57.806 49.548 49.548 82.581 57.806 123.871 57.806h8.258c4.561 0 8.258-3.698 8.258-8.258v-8.258c0-5.335-.361-10.586-1.061-15.729z" fill="#ffd18d"/><path d="m297.29 222.968c-4.565 0-8.258-3.698-8.258-8.258v-16.516c0-4.56 3.694-8.258 8.258-8.258s8.258 3.698 8.258 8.258v16.516c0 4.56-3.693 8.258-8.258 8.258z" fill="#7a4646"/><path d="m313.815 206.452c-.387 0-.774-.024-1.169-.081l-33.032-4.694c-4.516-.641-7.653-4.823-7.016-9.339.645-4.516 4.847-7.661 9.339-7.016l33.032 4.694c4.516.641 7.653 4.823 7.016 9.339-.59 4.121-4.122 7.097-8.17 7.097z" fill="#fbbd80"/><g fill="#ffe09c"><path d="m336.168 365.47-80.168 74.441-80.168-74.441c-10.544-9.791-25.772-11.378-37.827-5.052-5.03 2.639-5.882 9.546-1.719 13.411l108.476 100.728c3.169 2.94 7.202 4.411 11.238 4.411s8.069-1.472 11.238-4.411l108.476-100.728c4.162-3.865 3.31-10.772-1.719-13.411-12.055-6.325-27.284-4.738-37.827 5.052z"/><path d="m280.774 33.032h-15.254c-55.574 0-104.857 43.188-116.081 95.627 24.973-5.777 57.068-18.527 83.202-44.663 6.452-6.448 14.905-9.671 23.359-9.671s16.907 3.224 23.359 9.671c40.403 40.407 95.534 48.921 115.967 48.921l-.077-.476c-7.887-56.17-56.13-99.409-114.475-99.409z"/></g></g></svg>