<svg id="Capa_1" enable-background="new 0 0 512 512" height="512" viewBox="0 0 512 512" width="512" xmlns="http://www.w3.org/2000/svg"><g><path d="m418.626 377.668-35.8-10.53-280.773 10.53c-21.087 6.202-35.568 25.555-35.568 47.535v62.023l7.838 23.337c2.585.915 5.359 1.438 8.258 1.438h346.839c13.682 0 24.774-11.092 24.774-24.774v-62.023c0-21.981-14.481-41.334-35.568-47.536z" fill="#b8b2b8"/><path d="m129.174 367.138-35.8 10.53c-21.087 6.202-35.568 25.555-35.568 47.535v62.023c0 10.771 6.916 19.924 16.516 23.337v-85.361c0-14.548 9.75-27.581 23.71-31.685l36.738-10.807 4.169-9.769z" fill="#9e959e"/><g><path d="m256 487.226c-4.565 0-8.258-3.698-8.258-8.258v-24.774c0-4.56 3.694-8.258 8.258-8.258s8.258 3.698 8.258 8.258v24.774c0 4.56-3.693 8.258-8.258 8.258z" fill="#fff"/></g><g><path d="m145.053 441.27c-3.228-3.228-3.225-8.454 0-11.679l17.518-17.518c3.225-3.225 8.451-3.228 11.679 0s3.225 8.454 0 11.679l-17.518 17.518c-3.225 3.225-8.452 3.228-11.679 0z" fill="#fff"/></g><path d="m337.751 412.073c3.228-3.228 8.454-3.225 11.679 0l17.518 17.518c3.225 3.225 3.228 8.451 0 11.679s-8.454 3.225-11.679 0l-17.518-17.518c-3.225-3.225-3.228-8.451 0-11.679z" fill="#fff"/><g><path d="m391.882 408.774c-2.282 3.953-7.331 5.303-11.281 3.023l-21.455-12.387c-3.949-2.28-5.305-7.328-3.023-11.281s7.331-5.303 11.281-3.023l21.455 12.387c3.95 2.281 5.305 7.328 3.023 11.281z" fill="#fff"/></g><path d="m177.548 466.205c-3.953-2.282-5.303-7.331-3.023-11.281l12.387-21.455c2.28-3.949 7.328-5.305 11.281-3.023s5.303 7.331 3.023 11.281l-12.387 21.455c-2.28 3.95-7.328 5.305-11.281 3.023z" fill="#fff"/><path d="m296.61 481.879c-4.409 1.181-8.934-1.434-10.114-5.839l-6.412-23.93c-1.18-4.405 1.43-8.933 5.839-10.114s8.934 1.434 10.114 5.839l6.412 23.93c1.18 4.406-1.43 8.933-5.839 10.114z" fill="#fff"/><g><path d="m120.118 408.774c2.282 3.953 7.331 5.303 11.281 3.023l21.455-12.387c3.949-2.28 5.305-7.328 3.023-11.281s-7.331-5.303-11.281-3.023l-21.455 12.387c-3.95 2.281-5.305 7.328-3.023 11.281z" fill="#fff"/></g><path d="m334.452 466.205c3.953-2.282 5.303-7.331 3.023-11.281l-12.387-21.455c-2.28-3.949-7.328-5.305-11.281-3.023s-5.303 7.331-3.023 11.281l12.387 21.455c2.28 3.95 7.328 5.305 11.281 3.023z" fill="#fff"/><path d="m215.39 481.879c4.409 1.181 8.934-1.434 10.114-5.839l6.412-23.93c1.18-4.405-1.43-8.933-5.839-10.114s-8.934 1.434-10.114 5.839l-6.412 23.93c-1.18 4.406 1.43 8.933 5.839 10.114z" fill="#fff"/><path d="m351.148 357.821-183.735 7.496-32.645 17.382c20.274 46.905 66.882 79.753 121.232 79.753 60.182 0 110.871-40.275 126.826-95.314z" fill="#736572"/><path d="m167.413 365.317-6.561-7.496-31.677 9.317c1.549 5.344 3.413 10.519 5.593 15.56l32.019-9.412z" fill="#615260"/><path d="m331.59 352.069c-10.543-3.101-17.784-12.777-17.784-23.768h-102.17l-44.849 44.989c15.998 33.196 49.893 56.129 89.213 56.129 45.177 0 83.219-30.262 95.148-71.598z" fill="#ffd18d"/><path d="m166.787 373.29 18.285-5.379c17.452-5.133 29.637-21.419 29.637-39.609v-.001h-16.516c0 10.99-7.24 20.667-17.784 23.768l-19.558 5.753c1.548 5.359 3.553 10.522 5.936 15.468z" fill="#fbbd80"/><path d="m205.975 318.011-1.856 37.835c9.426 19.125 29.117 32.284 51.881 32.284 31.925 0 57.806-25.881 57.806-57.806v-13.455z" fill="#615260"/><path d="m198.194 280.774v49.548c0 9.09 2.187 17.871 5.925 25.523 4.434-5.028 7.554-11.317 9.151-17.918.627-2.592 1.778-5.029 3.664-6.915l.038-.038c3.132-3.132 7.636-4.603 11.962-3.653 8.726 1.916 17.756 3.001 27.066 3.001 20.761 0 40.326-4.922 57.806-13.455v-36.094h-115.612z" fill="#4e3d4d"/><path d="m256 313.806c-4.845 0-9.62-.298-14.309-.877 0 0-79.51-30.301-79.51-89.307v-108.01c0-45.608 36.973-82.581 82.581-82.581h44.27c45.608 0 82.581 36.973 82.581 82.581v82.581c0 63.852-51.762 115.613-115.613 115.613z" fill="#736572"/><path d="m181.677 198.194v-99.097c0-27.365 22.183-49.548 49.548-49.548h5.129v-16.517h-13.387c-45.608 0-82.581 36.972-82.581 82.581v82.581c0 63.851 51.762 115.613 115.613 115.613 7.058 0 13.935-.732 20.645-1.944-53.983-9.748-94.967-56.877-94.967-113.669z" fill="#615260"/><path d="m195.735 214.599 27.674-10.378c9.669-3.626 16.075-12.87 16.075-23.197v-7.606c0-13.682-11.092-24.774-24.774-24.774h-16.516c-13.682 0-24.774 11.092-24.774 24.774v25.716c-.001 11.533 11.517 19.515 22.315 15.465z" fill="#ffd18d"/><path d="m222.968 181.031c0 3.44-2.134 6.519-5.355 7.727l-16.52 6.195c-5.399 2.025-11.158-1.966-11.158-7.732v-13.801c0-4.561 3.697-8.258 8.258-8.258h16.516c4.561 0 8.258 3.697 8.258 8.258v7.611z" fill="#ffe09c"/><path d="m316.265 214.599-27.674-10.378c-9.669-3.626-16.075-12.87-16.075-23.197v-7.606c0-13.682 11.092-24.774 24.774-24.774h16.516c13.682 0 24.774 11.092 24.774 24.774v25.716c.001 11.533-11.517 19.515-22.315 15.465z" fill="#ffd18d"/><path d="m289.032 173.419c0-4.561 3.697-8.258 8.258-8.258h16.516c4.561 0 8.258 3.697 8.258 8.258v13.801c0 5.766-5.759 9.757-11.158 7.732l-16.52-6.195c-3.221-1.208-5.355-4.287-5.355-7.727v-7.611z" fill="#ffe09c"/><path d="m206.452 189.935c-4.565 0-8.258-3.698-8.258-8.258v-8.258c0-4.56 3.694-8.258 8.258-8.258s8.258 3.698 8.258 8.258v8.258c0 4.561-3.694 8.258-8.258 8.258z" fill="#4e3d4d"/><path d="m305.548 189.935c-4.565 0-8.258-3.698-8.258-8.258v-8.258c0-4.56 3.694-8.258 8.258-8.258 4.565 0 8.258 3.698 8.258 8.258v8.258c0 4.561-3.693 8.258-8.258 8.258z" fill="#4e3d4d"/><circle cx="256" cy="280.774" fill="#887f88" r="41.29"/><path d="m140.387 231.226c-4.561 0-8.258 3.697-8.258 8.258v61.376l46.093-11.827c2.212-5.059 3.456-10.641 3.456-16.516-.001-22.805-18.487-41.291-41.291-41.291z" fill="#887f88"/><path d="m272.516 0h-24.774c-4.561 0-8.258 3.697-8.258 8.258v66.065l8.258 23.368c2.583.912 5.363 1.406 8.258 1.406 13.682 0 24.774-11.092 24.774-24.774v-66.065c0-4.561-3.697-8.258-8.258-8.258z" fill="#b8b2b8"/><path d="m140.387 289.032v-57.806h-16.516c-4.561 0-8.258 3.697-8.258 8.258v49.381l24.774 24.942c16.922 0 31.458-10.204 37.835-24.774h-37.835z" fill="#736572"/><path d="m132.129 289.032c-4.561 0-8.258-3.698-8.258-8.258v-49.548h-8.258c-4.561 0-8.258 3.697-8.258 8.258v66.065c0 4.56 3.697 8.258 8.258 8.258h24.774v-24.774h-8.258z" fill="#615260"/><path d="m371.613 231.226c-22.804 0-41.29 18.486-41.29 41.29 0 5.87 1.212 11.46 3.421 16.516l37.87 8.539c4.561 0 8.258-3.698 8.258-8.258v-49.829c-.001-4.561-3.698-8.258-8.259-8.258z" fill="#887f88"/><path d="m396.387 231.226h-24.774v57.806h-37.869c6.377 14.571 20.947 24.774 37.869 24.774l33.032-24.774v-49.548c0-4.561-3.697-8.258-8.258-8.258z" fill="#736572"/><path d="m404.645 305.548v-16.516h-33.032v24.774h24.774c4.561 0 8.258-3.697 8.258-8.258z" fill="#615260"/><circle cx="256" cy="280.774" fill="#736572" r="24.774"/><path d="m247.742 0h-8.258c-4.561 0-8.258 3.697-8.258 8.258v66.065c0 10.771 6.916 19.955 16.516 23.368z" fill="#9e959e"/></g></svg>