<svg id="Capa_1" enable-background="new 0 0 512 512" height="512" viewBox="0 0 512 512" width="512" xmlns="http://www.w3.org/2000/svg"><g><path d="m345.256 405.616-27.51-9.709c-13.207-4.661-22.038-17.144-22.038-31.149v-20.037l-90.379.418v19.619c0 14.005-8.832 26.488-22.039 31.149l-85.291 30.103c-19.81 6.991-33.057 25.716-33.057 46.723v14.492l7.798 23.352c2.584.914 5.361 1.422 8.258 1.422h41.29l33.679-14.853 90.193 14.854 93.204-11.266 30.667 11.266h66.064z" fill="#c9c5c9"/><path d="m94.781 441.585 18.589-18.872 42.206-2.583 24.488-8.645c19.814-6.993 33.065-25.722 33.065-46.734 0-7.152 6.424-12.432 13.48-11.27 6.364 1.048 12.888 1.617 19.552 1.617 17.629 0 34.367-3.738 49.548-10.376v-39.172h-99.097v59.21c0 14.005-8.832 26.488-22.038 31.149l-85.293 30.101c-19.81 6.992-33.057 25.716-33.057 46.723v14.492c0 10.771 6.916 19.939 16.516 23.352v-37.841c0-14.006 8.833-26.49 22.041-31.151z" fill="#b8b2b8"/><path d="m270.942.204-16.525 8.522c-54.641 0-90.827 44.456-90.827 99.097v24.306l214.698 132.129v198.194l49.548-17.342v-279.949c.001-88.297-69.65-160.635-156.894-164.957z" fill="#b8ddff"/><path d="m171.837 99.097c0-45.608 36.973-82.581 82.581-82.581 8.979 0 16.299-7.387 16.525-16.312-2.741-.135-5.494-.204-8.267-.204h-8.258c-54.641 0-99.097 44.456-99.097 99.097v8.258 24.774l16.516 9.787z" fill="#91ccff"/><path d="m427.837 503.742v-58.632c-18.847-3.826-33.032-20.488-33.032-40.464v-239.485c0-72.973-59.156-132.129-132.129-132.129h-8.258c-36.486 0-66.064 29.578-66.064 66.064l13.575 11.865 19.457-11.865 33.032-16.516 33.032 16.516c31.926 0 57.806 25.881 57.806 57.806v264.258c0 45.609 36.973 82.582 82.581 82.582z" fill="#dfbdf0"/><g fill="#887f88"><path d="m114.895 410.12c-3.403 0-6.597-2.125-7.79-5.52l-2.685-7.625c-1.516-4.302.742-9.016 5.048-10.532 4.274-1.512 9.016.742 10.532 5.048l2.685 7.625c1.516 4.302-.742 9.016-5.048 10.532-.903.319-1.831.472-2.742.472z"/><path d="m143.153 400.096c-3.403 0-6.589-2.125-7.79-5.516l-2.685-7.621c-1.516-4.302.742-9.02 5.048-10.536 4.274-1.496 9.008.75 10.532 5.044l2.685 7.621c1.516 4.302-.742 9.02-5.048 10.536-.903.318-1.831.472-2.742.472z"/><path d="m86.637 420.14c-3.403 0-6.597-2.125-7.79-5.52l-2.685-7.625c-1.516-4.302.742-9.016 5.048-10.532 4.282-1.508 9.016.75 10.532 5.048l2.685 7.625c1.516 4.302-.742 9.016-5.048 10.532-.903.319-1.831.472-2.742.472z"/></g><path d="m122.289 512h123.871l-84.7-28.233c-19.271-6.424-39.171 7.919-39.171 28.233z" fill="#736572"/><path d="m330.859 483.767-84.699 28.233h123.87c0-20.314-19.9-34.657-39.171-28.233z" fill="#736572"/><path d="m237.901 99.097h-49.548c-5.788 0-11.353.992-16.516 2.816l-16.318 46.732 4.932 97.958c11.2 47.325 34.96 82.581 85.708 82.581 59.29 0 84.236-48.065 84.236-107.355v-73.184c0-27.365-65.129-49.548-92.494-49.548z" fill="#dbd8db"/><path d="m254.418 115.613h8.258c27.365 0 49.548 22.183 49.548 49.548v115.613h29.115c7.738-14.832 12.175-31.661 12.175-49.548v-82.581c0-27.365-22.183-49.548-49.548-49.548h-66.064c-.001 9.121 7.394 16.516 16.516 16.516z" fill="#c9c5c9"/><path d="m171.837 231.226v-129.313c-19.232 6.809-33.032 25.168-33.032 46.732v49.548c-13.682 0-24.774 11.092-24.774 24.774v8.258c0 13.682 11.092 24.774 24.774 24.774h2.988c2.143 9.056 5.449 17.661 9.718 25.671l16.563.244 9.744-15.589c-3.818-11.002-5.981-22.79-5.981-35.099z" fill="#c9c5c9"/><path d="m312.224 264.997c-18.419-10.744-40.227-23.466-53.602-31.268-7.714-4.5-17.231-4.488-24.945.012l-55.859 32.584c-10.865 27.248 27.305 71.079 68.342 71.079 5.719 0 11.334.729 16.81-.133 18.391-2.895 35.226-10.464 49.26-21.45l8.077-28.637z" fill="#736572"/><path d="m312.224 315.814c11.756-9.209 21.574-20.829 28.661-34.097-5.797-3.382-16.502-9.626-28.661-16.719z" fill="#615260"/><path d="m177.818 266.325-26.307 15.346c18.041 33.846 53.612 56.91 94.649 56.91 5.466 0 10.755-.407 16-1.196.319-.067.81-.114.81-.114-39.627-6.136-72.327-33.995-85.152-70.946z" fill="#615260"/><path d="m196.611 231.226c-4.565 0-8.258-3.698-8.258-8.258v-8.258c0-4.56 3.694-8.258 8.258-8.258s8.258 3.698 8.258 8.258v8.258c0 4.56-3.693 8.258-8.258 8.258z" fill="#ff646f"/><path d="m295.708 231.226c-4.565 0-8.258-3.698-8.258-8.258v-8.258c0-4.56 3.694-8.258 8.258-8.258s8.258 3.698 8.258 8.258v8.258c0 4.56-3.694 8.258-8.258 8.258z" fill="#77b3ec"/><path d="m204.869 197.476h-16.516c-4.565 0-8.258-3.698-8.258-8.258s3.694-8.258 8.258-8.258h16.516c4.565 0 8.258 3.698 8.258 8.258s-3.693 8.258-8.258 8.258z" fill="#736572"/><path d="m303.966 197.476h-16.516c-4.565 0-8.258-3.698-8.258-8.258s3.694-8.258 8.258-8.258h16.516c4.565 0 8.258 3.698 8.258 8.258s-3.694 8.258-8.258 8.258z" fill="#736572"/><path d="m448.046 486.354c-2.263-4.527-6.89-7.386-11.951-7.386-41.047 0-74.323-33.276-74.323-74.323v-239.484c0-54.73-44.367-99.097-99.097-99.097h-8.258c-18.243 0-33.032 14.789-33.032 33.032h16.516l24.774-8.799c36.486 0 73.1 29.578 73.1 66.065v239.446c0 59.29 41.029 107.355 100.319 107.355l16.516-7.679z" fill="#ff8086"/><path d="m89.281 442.528c-6.806 0-13.181-4.238-15.577-11.024-3.032-8.601 1.48-18.036 10.081-21.073l60.798-21.456c8.617-3.04 18.04 1.48 21.073 10.081s-1.48 18.036-10.081 21.073l-60.798 21.456c-1.819.641-3.674.943-5.496.943z" fill="#b0a8af"/><path d="m345.256 404.645v-239.484c0-45.608-36.973-82.581-82.581-82.581h-8.258c-9.121 0-16.516 7.394-16.516 16.516h24.774c36.486 0 66.065 29.578 66.065 66.065v239.484c0 59.29 48.065 107.355 107.355 107.355h11.412c6.139 0 10.132-6.461 7.386-11.951l-2.282-4.565h-16.516c-50.169 0-90.839-40.67-90.839-90.839z" fill="#ff646f"/></g></svg>