<svg id="Capa_1" enable-background="new 0 0 512 512" height="512" viewBox="0 0 512 512" width="512" xmlns="http://www.w3.org/2000/svg"><g><path d="m421.161 512h-8.258c-4.561 0-8.258-3.697-8.258-8.258v-41.692l24.774 8.66v33.032c0 4.561-3.697 8.258-8.258 8.258z" fill="#b8b2b8"/><path d="m396.387 437.677v66.065c0 4.561 3.697 8.258 8.258 8.258h8.258v-24.774c0-9.122 7.395-16.516 16.516-16.516v-33.032h-33.032z" fill="#9e959e"/><path d="m338.581 306.006c-9.122 0-16.516-7.395-16.516-16.516l8.258-41.748h8.258c9.122 0 16.516 7.395 16.516 16.516v33.032z" fill="#c9c5c9"/><path d="m330.323 280.774v-33.032h-16.516v49.548c0 9.121 7.395 16.516 16.516 16.516h8.258c9.121 0 16.516-7.395 16.516-16.516h-8.258c-9.122 0-16.516-7.394-16.516-16.516z" fill="#b8b2b8"/><path d="m305.548 0h-16.516c-11.61 0-22.521 2.995-32.002 8.254-.359.199-.676.458-1.031.664-.355-.206-.672-.465-1.031-.664-9.48-5.259-20.39-8.254-32-8.254h-16.516c-68.413 0-123.871 55.459-123.871 123.871v25.604c0 15.332 6.09 30.035 16.931 40.876l16.101 16.101 8.258-33.032h264.258l8.258 33.032 16.101-16.101c10.841-10.841 16.931-25.544 16.931-40.876v-25.604c0-68.412-55.458-123.871-123.871-123.871z" fill="#c9c5c9"/><path d="m305.548 33.032h-16.516c-18.243 0-33.032 14.789-33.032 33.033l-23.125 140.387h113.964c0-13.682 11.092-24.774 24.774-24.774s24.774 11.092 24.774 24.774v-82.581c0-50.169-40.669-90.839-90.839-90.839z" fill="#b0a8af"/><path d="m206.452 33.032h16.516c18.243 0 33.032 14.789 33.032 33.032v140.387h-90.839c0-13.682-11.092-24.774-24.774-24.774s-24.774 11.092-24.774 24.774v-82.581c0-50.168 40.669-90.838 90.839-90.838z" fill="#9e959e"/><path d="m107.355 512h-8.258c-4.561 0-8.258-3.697-8.258-8.258v-41.692l24.774 8.66v33.032c0 4.561-3.697 8.258-8.258 8.258z" fill="#b8b2b8"/><path d="m82.581 437.677v66.065c0 4.561 3.697 8.258 8.258 8.258h8.258v-24.774c0-9.122 7.395-16.516 16.516-16.516v-33.032h-33.032z" fill="#9e959e"/><path d="m416.51 395.817-103.572-31.072-79.614 3.476-132.502 34.975c-17.465 5.24-24.214 15.732-24.214 33.966l5.974 13.182 53.532 8.72c11.987 1.953 20.791 12.307 20.791 24.452v20.225c0 4.561 3.697 8.258 8.258 8.258h33.032l59.343-16.208 56.268 16.209h33.032c4.561 0 8.258-3.697 8.258-8.258v-20.225c0-12.145 8.804-22.499 20.791-24.452l63.118-10.281c3.996-.651 6.93-4.102 6.93-8.151v-5.267c0-18.234-11.96-34.309-29.425-39.549z" fill="#736572"/><path d="m66.065 435.366v5.267c0 4.048 2.934 7.5 6.93 8.151l9.586 1.561v-14.982c0-11.024 7.097-20.556 17.653-23.726l111.321-33.394-12.493-13.497-103.572 31.072c-17.465 5.239-29.425 21.314-29.425 39.548z" fill="#615260"/><path d="m280.774 355.097h-36.241l-40.417 25.384c9.387 19.196 29.072 32.422 51.884 32.422 28.631 0 52.336-20.835 56.938-48.157z" fill="#b8b2b8"/><path d="m204.117 380.481 38.455-11.502-11.346-13.882-32.163 9.649c.935 5.554 2.658 10.837 5.054 15.735z" fill="#9e959e"/><path d="m231.226 280.774v74.323c0 13.682 11.092 24.774 24.774 24.774s24.774-11.092 24.774-24.774v-74.323z" fill="#615260"/><path d="m173.419 247.742-8.701 21.159 8.071 37.666 25.405-9.277v-49.548z" fill="#c9c5c9"/><path d="m305.548 66.065h-17.591c-3.912 0-7.03 2.814-8.068 6.586-2.884 10.485-12.487 18.188-23.889 18.188 0 0-26.295 3.359-29.179-7.127l-18.609-10.313c-31.926 0-47.194 18.744-47.194 50.669l2.69 81.385 34.004 24.55c0 50.781 25.881 73.056 57.806 73.056l8.739 2.489c31.926 0 57.806-25.881 57.806-57.806v-2.489c0-8.702 4.565-16.765 12.027-21.242l9.219-5.532c12.436-7.462 20.045-20.902 20.045-35.405v-59.202c.001-31.927-25.88-57.807-57.806-57.807z" fill="#736572"/><path d="m256 289.032h-8.258c-22.804 0-41.29-18.486-41.29-41.29v-2.492c0-14.502-7.608-27.942-20.043-35.405l-9.226-5.537c-7.458-4.476-12.022-12.537-12.022-21.235v-59.202c0-22.804 18.486-41.29 41.29-41.29 6.453 0 12.575 2.975 16.438 8.144 3.784 5.064 8.685 9.194 14.286 12.071 8.603 4.42 18.825-2.285 18.825-11.957-11.402 0-21.005-7.702-23.889-18.188-1.037-3.772-4.155-6.586-8.068-6.586h-17.592c-31.926 0-57.806 25.881-57.806 57.806v59.201c0 14.503 7.609 27.943 20.045 35.406l9.22 5.533c7.461 4.477 12.026 12.541 12.026 21.242v2.489c0 31.926 25.881 57.806 57.806 57.806h8.258z" fill="#615260"/><circle cx="206.452" cy="165.161" fill="#9ae59c" r="16.516"/><circle cx="305.548" cy="165.161" fill="#baf39a" r="16.516"/><path d="m419.774 259.677c-9.895-14.847-15.129-32.129-15.129-49.968v-85.839c0-54.645-44.452-99.097-99.097-99.097h-16.516c-13.554 0-25.499 6.654-33.032 16.772-7.533-10.118-19.478-16.772-33.032-16.772h-16.516c-54.645 0-99.097 44.452-99.097 99.097v85.839c0 17.839-5.234 35.121-15.129 49.968-2.532 3.798-1.508 8.919 2.29 11.452 1.411.935 3 1.387 4.573 1.387 2.669 0 5.29-1.29 6.879-3.677 11.71-17.573 17.903-38.016 17.903-59.129v-85.839c0-45.532 37.048-82.581 82.581-82.581h16.516c13.661 0 24.774 11.113 24.774 24.774 0 4.565 3.694 8.258 8.258 8.258s8.258-3.694 8.258-8.258c0-13.661 11.113-24.774 24.774-24.774h16.516c45.532 0 82.581 37.048 82.581 82.581v85.839c0 21.113 6.194 41.556 17.903 59.129 1.589 2.387 4.21 3.677 6.879 3.677 1.573 0 3.161-.452 4.573-1.387 3.798-2.532 4.822-7.653 2.29-11.452z" fill="#b8b2b8"/><path d="m256 454.194c-31.925 0-57.806 25.881-57.806 57.806h16.516l40.585-20.243 41.995 20.243h16.516c0-31.926-25.881-57.806-57.806-57.806z" fill="#9ae59c"/><path d="m264.258 305.548h-16.516v-16.516c0-4.561 3.697-8.258 8.258-8.258 4.561 0 8.258 3.697 8.258 8.258z" fill="#9ae59c"/><path d="m173.419 280.774v-33.032c-9.121 0-16.516 7.394-16.516 16.516v33.032c0 9.121 7.395 16.516 16.516 16.516h8.258c9.121 0 16.516-7.395 16.516-16.516h-8.258c-9.121 0-16.516-7.394-16.516-16.516z" fill="#b8b2b8"/><g fill="#baf39a"><path d="m256 470.71c-22.804 0-41.29 18.486-41.29 41.29h82.581c-.001-22.804-18.487-41.29-41.291-41.29z"/><path d="m264.258 289.032h-16.516v-82.581c0-4.561 3.697-8.258 8.258-8.258 4.561 0 8.258 3.697 8.258 8.258z"/></g></g></svg>