<svg id="Capa_1" enable-background="new 0 0 512 512" height="512" viewBox="0 0 512 512" width="512" xmlns="http://www.w3.org/2000/svg"><g><path d="m375.202 396.196-47.614-16.805c-13.207-4.661-22.039-17.144-22.039-31.149v-3.337l-89.098 6.689c0 14.005-8.832 26.488-22.039 31.149l-53.006 20.238 21.075 32.285 168.15 4.036z" fill="#fbbd80"/><path d="m206.452 313.806v34.435c0 14.005-8.832 26.488-22.038 31.149l-45.39 16.02 7.339 14.925 43.54-15.368c12.312-4.344 22.04-13.274 27.637-24.452 4.686-9.358 15.21-14.604 25.585-13.231 4.27.565 8.571.852 12.874.852 17.165 0 34.292-4.47 49.548-13.232v-31.098z" fill="#f4aa73"/><path d="m412.878 409.494-32.964-11.635c-28.703 29.204-73.468 48.076-123.914 48.076s-95.211-18.872-123.914-48.076l-27 17.229c-21.523 4.484-31.712 20.122-31.712 41.129v31.009l9.208 23.349c2.585.914 5.361 1.425 8.258 1.425h330.323c13.682 0 24.774-11.092 24.774-24.774v-31.009c-.002-21.007-13.249-39.732-33.059-46.723z" fill="#91ccff"/><path d="m104.618 425.07 41.745-14.734c-5.068-3.931-9.915-8.038-14.277-12.476l-32.964 11.635c-19.81 6.991-33.057 25.716-33.057 46.723v31.009c0 10.771 6.916 19.936 16.516 23.349v-54.357c0-14.006 8.831-26.489 22.037-31.149z" fill="#77b3ec"/><circle cx="132.129" cy="57.806" fill="#91ccff" r="57.806"/><circle cx="379.871" cy="57.806" fill="#b8ddff" r="57.806"/><path d="m396.119 139.893-234.512-95.165c-28.255 25.681-45.994 62.727-45.994 103.917 0 20.632 4.561 40.161 12.555 57.806h255.664c7.993-17.645 12.555-37.175 12.555-57.806 0-2.939-.09-5.857-.268-8.752z" fill="#77b3ec"/><path d="m374.565 181.677h-5.983c-2.887 0-5.226-2.34-5.226-5.226 0-6.853-.624-13.593-1.821-20.154l-105.535-79.752c-1.732-.001-3.44-.108-5.19-.025-57.742 2.719-84.294 42.125-84.294 99.931l2.69 53.447 86.794 26.102 99.097-33.032h20.645c12.105 0 21.776-10.417 20.538-22.775-1.076-10.746-10.917-18.516-21.715-18.516z" fill="#ffd18d"/><path d="m361.534 156.297c-8.899-48.785-49.447-87.714-100.344-90.11-3.488-.013-6.892-.013-10.38 0-7.895.372-15.468 1.766-22.746 3.866-.002-.053-.018-.105-.02-.159-46.233 12.797-79.398 56.633-79.398 106.556 0 2.887-2.34 5.226-5.226 5.226h-5.983c-10.799 0-20.64 7.77-21.716 18.515-1.238 12.358 8.433 22.775 20.538 22.775h20.645l24.774 8.258v-81.028c0-12.607 3.536-24.785 9.93-35.141 4.899-7.934 15.202-10.697 23.121-5.774 44.083 27.4 94.515 43.914 146.805 47.016z" fill="#fbbd80"/><path d="m206.452 206.452c-4.565 0-8.258-3.698-8.258-8.258v-8.258c0-4.56 3.694-8.258 8.258-8.258s8.258 3.698 8.258 8.258v8.258c0 4.56-3.694 8.258-8.258 8.258z" fill="#615260"/><path d="m305.548 206.452c-4.565 0-8.258-3.698-8.258-8.258v-8.258c0-4.56 3.694-8.258 8.258-8.258 4.565 0 8.258 3.698 8.258 8.258v8.258c0 4.56-3.693 8.258-8.258 8.258z" fill="#615260"/><path d="m198.185 173.218c-4.121 0-7.685-3.081-8.194-7.274-.54-4.528 2.685-8.637 7.218-9.181l16.516-1.984c4.54-.52 8.637 2.694 9.185 7.214.54 4.528-2.685 8.637-7.218 9.181l-16.516 1.984c-.329.04-.668.06-.991.06z" fill="#5e9ad8"/><path d="m313.815 173.218c-.323 0-.661-.02-.992-.06l-16.516-1.984c-4.532-.544-7.758-4.653-7.218-9.181.548-4.52 4.669-7.73 9.185-7.214l16.516 1.984c4.532.544 7.758 4.653 7.218 9.181-.508 4.193-4.073 7.274-8.193 7.274z" fill="#5e9ad8"/><path d="m363.355 248.731v-23.445c0-5.372-5.049-9.314-10.261-8.012l-47.868 11.967c-5.001 1.25-10.298.094-14.323-3.126l-19.427-15.541c-9.048-7.238-21.905-7.238-30.953 0l-19.426 15.541c-4.025 3.22-9.323 4.376-14.323 3.126l-25.096-6.274-9.556 39.552 77.349 54.817z" fill="#91ccff"/><path d="m396.119 139.893c-4.517-73.458-65.524-131.635-140.119-131.635-36.379 0-69.454 13.772-94.393 36.47 54.306 58.695 131.994 95.659 218.264 95.659 5.395 0 10.923-.21 16.248-.494z" fill="#91ccff"/><path d="m305.302 263.27c-2.649.665-5.339.988-8.012.988-7.423 0-14.714-2.504-20.633-7.238l-.023-.019c-12.064-9.65-29.205-9.65-41.268 0l-.023.019c-8.049 6.439-18.643 8.75-28.643 6.25l-25.023-6.256v-34.047l-22.771-5.693c-5.212-1.303-10.261 2.639-10.261 8.012v23.592l17.422 26.084c26.232 40.132 81.367 70.347 106.641 65.146 14.258-2.935 27.895-9.668 39.304-20.2l35.402-32.678c10.161-9.38 15.941-22.579 15.941-36.408v-2.091z" fill="#77b3ec"/><path d="m233.02 319.909-42.368-39.109c-5.72-5.28-8.974-12.711-8.974-20.496v-3.288l-33.032-8.137v.103 1.84c0 13.829 5.779 27.029 15.941 36.408l35.402 32.678c20.175 18.623 47.499 25.332 72.721 20.2-14.326-2.914-28.232-9.623-39.69-20.199z" fill="#5e9ad8"/><path d="m318.578 313.849-6.565 6.06c-2.053 1.896-4.264 3.504-6.464 5.13v2.273c39.019 8.621 66.065 27.032 66.065 48.43 0 29.645-51.762 53.677-115.613 53.677s-115.613-24.032-115.613-53.677c0-21.398 27.046-39.809 66.065-48.43v-2.273c-2.2-1.627-4.411-3.234-6.464-5.13l-6.565-6.06c-46.085 12.865-77.809 39.406-77.809 70.151 0 43.328 62.853 78.452 140.387 78.452s140.385-35.124 140.385-78.452c0-30.745-31.724-57.286-77.809-70.151z" fill="#ffe177"/></g></svg>