<svg id="Capa_1" enable-background="new 0 0 512 512" height="512" viewBox="0 0 512 512" width="512" xmlns="http://www.w3.org/2000/svg"><g><path d="m129.69 5.441c-4.394 4.791-8.386 9.956-11.934 15.437-4.327 6.685-2.853 15.594 3.071 20.916l26.392 23.706 28.336-41.004-22.473-20.253c-6.787-6.117-17.216-5.535-23.392 1.198z" fill="#dbd8db"/><path d="m382.032 5.441c4.394 4.791 8.386 9.956 11.934 15.437 4.327 6.685 2.853 15.594-3.071 20.916l-26.392 23.706-28.336-41.004 22.473-20.253c6.787-6.117 17.216-5.535 23.392 1.198z" fill="#eceaec"/><path d="m256 487.209 115.671-140.458-40.044-10.845c-10.549-3.102-17.793-12.784-17.793-23.78v-21.296l-108.114-34.965v56.262c0 10.996-7.244 20.678-17.793 23.78l-40.044 10.845 108.114 140.458v.004l.002-.002.002.002v-.005z" fill="#d48c64"/><path d="m185.035 351.758c17.461-5.136 29.653-21.431 29.653-39.63 0-7.362 6.993-12.688 14.091-10.738 8.78 2.412 17.891 4.049 27.221 4.049 20.793 0 40.477-5.339 57.834-14.609v-34.966h-57.834-57.837v56.262c0 10.996-7.244 20.678-17.793 23.78l-40.044 10.845 11.528 13.998z" fill="#c6805d"/><path d="m379.936 148.87v-25.204l-16.525-16.525h-214.823l-16.525 16.525v25.204c-9.428 1.914-16.525 10.246-16.525 20.24 0 11.408 9.248 20.656 20.656 20.656h12.811c4.232 55.448 50.462 99.149 106.994 99.149s102.762-43.701 106.994-99.149h12.811c11.408 0 20.656-9.248 20.656-20.656.001-9.994-7.095-18.326-16.524-20.24z" fill="#e29a6c"/><path d="m181.638 181.503v-57.837-16.525h-33.05l-16.525 16.525v25.204c-9.428 1.914-16.525 10.246-16.525 20.24 0 11.408 9.248 20.656 20.656 20.656h12.811c4.232 55.448 50.462 99.149 106.994 99.149 5.652 0 11.163-.551 16.577-1.392-51.48-7.946-90.938-52.315-90.938-106.02z" fill="#d48c64"/><path d="m231.213 115.403h49.575v57.837h-49.575z" fill="#b8b2b8"/><path d="m210.557 198.028c-15.971 0-28.919-12.947-28.919-28.918v-53.706h57.837v53.706c0 15.97-12.947 28.918-28.918 28.918z" fill="#c9c5c9"/><path d="m301.443 198.028c-15.971 0-28.919-12.947-28.919-28.918v-53.706h57.837v53.706c.001 15.97-12.946 28.918-28.918 28.918z" fill="#c9c5c9"/><path d="m173.376 371.539h165.249v82.624h-165.249z" fill="#c9c5c9"/><path d="m210.557 173.688c-4.567 0-8.262-3.7-8.262-8.262v-8.262c0-4.563 3.696-8.262 8.262-8.262s8.262 3.7 8.262 8.262v8.262c0 4.563-3.695 8.262-8.262 8.262z" fill="#fff"/><path d="m301.443 173.688c-4.567 0-8.262-3.7-8.262-8.262v-8.262c0-4.563 3.695-8.262 8.262-8.262s8.262 3.7 8.262 8.262v8.262c.001 4.563-3.695 8.262-8.262 8.262z" fill="#fff"/><path d="m297.309.176h-82.624c-11.756 0-22.939 2.455-33.063 6.881l-27.881 65.6 193.147 51.009h33.047v-40.866c-.002-45.632-36.994-82.624-82.626-82.624z" fill="#91ccff"/><path d="m181.621 7.057c-29.172 12.754-49.561 41.868-49.561 75.743v40.865h33.053l16.514-78.354z" fill="#77b3ec"/><path d="m297.312 32.779h-82.624c-12.678 0-24.295 4.703-33.061 12.533l-5.517 36.836 5.528 41.518h165.249v-41.312c0-27.38-22.196-49.575-49.575-49.575z" fill="#eceaec"/><path d="m256 239.34c-12.41 0-23.843-3.982-30.597-10.647-3.244-3.207-3.276-8.44-.065-11.684 3.203-3.252 8.432-3.276 11.684-.073 2.743 2.711 9.36 5.878 18.978 5.878 9.61 0 16.234-3.167 18.986-5.882 3.236-3.203 8.48-3.171 11.684.081 3.203 3.248 3.171 8.48-.081 11.684-6.754 6.665-18.195 10.643-30.589 10.643z" fill="#c6805d"/><path d="m439.539 341.831-66.92-22.307c-10.372-3.457-21.784.289-28.088 9.221l-47.716 67.597-15.947 54.136-48.453 1.795-17.228-55.931-47.716-67.598c-.299-.423-.609-.834-.929-1.234l-24.752-3.997-61.912 18.317c-23.618 7.874-39.548 29.975-39.548 54.87v29.104l91.728 86.19 247.878.006 99.149-107.412v-7.888c.001-24.895-15.929-46.996-39.546-54.869z" fill="#91ccff"/><path d="m139.382 319.524-66.92 22.307c-23.617 7.872-39.547 29.974-39.547 54.869v7.882l16.525 25.708v-33.589c0-17.812 11.353-33.562 28.249-39.194l88.853-29.995c-6.457-8.02-17.288-11.278-27.16-7.988z" fill="#77b3ec"/><path d="m479.086 404.588-85.447 42.724c-8.398 4.199-13.702 12.782-13.702 22.17v25.993l70.403-11.012 28.746-38.563z" fill="#dbd8db"/><path d="m41.294 466.63 8.145-53.783 68.917 34.459c8.398 4.199 13.702 12.782 13.702 22.17l.005 25.998z" fill="#dbd8db"/><path d="m32.914 404.585v41.316l16.525 13.388v-46.441z" fill="#c9c5c9"/><path d="m479.086 487.213v-41.312l-99.149 49.575v16.524h74.362c13.689 0 24.787-11.098 24.787-24.787z" fill="#eceaec"/><path d="m49.439 454.163-7.248 16.841 7.248 39.55c2.588.916 5.361 1.446 8.263 1.446h74.362v-16.525z" fill="#eceaec"/><g fill="#dbd8db"><path d="m214.604 452.828c5.826 8.254 13.671 15.112 23.085 18.779 22.166 8.633 46.039.575 58.812-17.512l18.415-26.088c5.52-7.82 3.262-18.68-4.918-23.651l-13.184-8.013-27.314 38.694c-6.584 9.327-20.417 9.327-27 0l-27.314-38.695-13.184 8.013c-8.18 4.971-10.438 15.831-4.918 23.651z"/><path d="m49.439 510.554v-56.391l-16.525-8.262v41.312c0 10.777 6.92 19.927 16.525 23.341z"/><path d="m165.113 82.354v41.312h16.525l-.011-78.354c-10.12 9.076-16.514 22.378-16.514 37.042z"/></g></g></svg>