<svg id="Capa_1" enable-background="new 0 0 512 512" height="512" viewBox="0 0 512 512" width="512" xmlns="http://www.w3.org/2000/svg"><g><path d="m346.839 371.613-49.063-10.201-68.484 1.677-64.131 13.882v77.223h181.678z" fill="#b8b2b8"/><path d="m214.224 361.412-49.063 10.201v15.223l52.534-10.92z" fill="#9e959e"/><path d="m441.39 419.621-9.378-13.702c-5.421-5.611-12.206-9.983-19.957-12.567l-34.796-11.599c-3.372-1.124-5.647-4.28-5.647-7.834v-18.822c0-9.122-7.395-16.516-16.516-16.516h-8.258c-4.561 0-8.258 3.697-8.258 8.258v13.687c0 43.984-33.192 82.389-77.083 85.231-48.097 3.114-88.078-34.975-88.078-82.402v-16.516c0-4.561-3.697-8.258-8.258-8.258h-8.258l-10.565 41.08-46.394 19.358c-20.232 6.744-26.247 25.678-26.247 47.006v41.202l8.884 23.347c2.585.914 5.361 1.427 8.258 1.427h33.04l8.11-7.683 8.406 7.683h231.218l7.445-7.683 9.071 7.683h33.032c13.682 0 24.774-11.092 24.774-24.774v-46.868c0-7.328-1.61-14.373-4.545-20.738z" fill="#c9c5c9"/><path d="m220.997 329.664-12.338 48.093c6.253 20.204 25.083 34.88 47.341 34.88 27.365 0 49.548-22.183 49.548-49.548v-35.08z" fill="#9e959e"/><path d="m256 412.638c2.82 0 5.567-.29 8.258-.743v-73.635h-16.516v73.634c2.691.453 5.438.744 8.258.744z" fill="#b0a8af"/><path d="m305.548 328.01v-22.461h-99.097v57.541c0 4.23.589 8.309 1.591 12.224l.616 2.444c8.694-1.807 14.309-10.068 14.309-18.947v-4.772c0-9.809 8.505-17.576 18.239-16.372 4.86.601 9.797.914 14.793.914 17.5 0 34.27-3.812 49.549-10.571z" fill="#887f88"/><path d="m247.742 338.26c2.749.191 5.469.32 8.258.32 2.784 0 5.514-.131 8.258-.32v-32.712h-16.516z" fill="#9e959e"/><path d="m379.871 182.094v-16.932l-6.53-8.132 6.53-8.385c0-5.602-.372-11.117-1.092-16.522l-3.398-16.511c-14.459-52.371-62.411-90.838-119.381-90.838-27.881 0-53.621 9.197-74.323 24.742l-17.403 99.129 3.139 74.323c4.23 55.419 32.085 97.505 88.587 97.505 5.642 0 11.181 1.157 16.586.318 48.725-7.565 86.544-47.937 90.351-97.822h12.804c11.402 0 20.645-9.243 20.645-20.645.001-9.989-7.092-18.317-16.515-20.23z" fill="#c9c5c9"/><path d="m371.613 512v-34.181c0-11.851 5.097-23.141 13.984-30.972l46.415-40.928c3.884 4.019 7.039 8.614 9.377 13.702l-44.873 39.613c-5.331 4.702-8.387 11.476-8.387 18.585v34.181z" fill="#b8b2b8"/><path d="m140.387 355.097v18.822c0 3.554-2.275 6.71-5.647 7.834l-34.796 11.599c-20.232 6.744-33.88 25.678-33.88 47.006v46.868c0 10.771 6.916 19.934 16.516 23.347v-70.214c0-3.103.504-6.101 1.318-8.981l31.593 27.856c5.331 4.702 8.387 11.476 8.387 18.585v34.181h16.516v-34.181c0-11.851-5.097-23.141-13.984-30.972l-33.995-29.975c3.519-3.475 7.828-6.211 12.745-7.852l34.806-11.601c10.129-3.379 16.935-12.823 16.935-23.5v-35.339c-9.119.001-16.514 7.395-16.514 16.517z" fill="#b8b2b8"/><path d="m256.008 264.976c-12.387 0-23.823-3.976-30.573-10.637-3.25-3.202-3.282-8.431-.081-11.677 3.202-3.25 8.444-3.282 11.677-.081 2.75 2.714 9.371 5.879 18.976 5.879s16.226-3.165 18.976-5.879c3.234-3.202 8.476-3.169 11.677.081 3.202 3.246 3.169 8.476-.081 11.677-6.748 6.661-18.184 10.637-30.571 10.637z" fill="#9e959e"/><path d="m206.46 207.169c-4.565 0-8.258-3.698-8.258-8.258v-8.258c0-4.56 3.694-8.258 8.258-8.258 4.565 0 8.258 3.698 8.258 8.258v8.258c0 4.561-3.694 8.258-8.258 8.258z" fill="#d5eaff"/><path d="m305.556 207.169c-4.565 0-8.258-3.698-8.258-8.258v-8.258c0-4.56 3.694-8.258 8.258-8.258s8.258 3.698 8.258 8.258v8.258c.001 4.561-3.693 8.258-8.258 8.258z" fill="#d5eaff"/><path d="m238.051 132.592h35.899l17.833-5.942 9.579-105.364c.738-8.124-4.521-15.733-12.473-17.555-10.578-2.421-21.575-3.731-32.889-3.731s-22.311 1.31-32.888 3.732c-7.951 1.821-13.211 9.431-12.473 17.555l9.579 105.364z" fill="#b8b2b8"/><path d="m181.677 214.71v-49.548h8.258c4.565 0 8.258-3.698 8.258-8.258s-3.694-8.258-8.258-8.258h-8.258v-99.129c-21.553 16.219-37.666 39.359-45.053 66.094l-3.368 16.518c-.723 5.406-1.127 10.916-1.127 16.516l4.933 8.805-4.933 7.711v16.932c-9.423 1.913-16.516 10.241-16.516 20.229 0 11.402 9.243 20.645 20.645 20.645h12.804c4.23 55.419 50.435 99.097 106.938 99.097 5.649 0 11.175-.433 16.586-1.275-51.453-7.94-90.909-52.402-90.909-106.079z" fill="#b8b2b8"/><path d="m156.903 132.129c4.565 0 8.258-3.698 8.258-8.258s-3.694-8.258-8.258-8.258h-20.272c-1.485 5.37-2.624 10.879-3.376 16.516z" fill="#9e959e"/><path d="m322.065 165.161c-4.565 0-8.258-3.698-8.258-8.258s3.694-8.258 8.258-8.258h57.806v16.516z" fill="#b8b2b8"/><path d="m355.097 132.129c-4.565 0-8.258-3.698-8.258-8.258s3.694-8.258 8.258-8.258h20.284c1.485 5.37 2.645 10.873 3.398 16.51z" fill="#b8b2b8"/><g fill="#9e959e"><path d="m291.782 126.651h-71.565l1.385 15.231c.773 8.508 7.906 15.021 16.448 15.021h35.899c8.542 0 15.675-6.514 16.448-15.021z"/><path d="m132.129 148.645h49.548v16.516h-49.548z"/></g></g></svg>