<svg id="Capa_1" enable-background="new 0 0 512 512" height="512" viewBox="0 0 512 512" width="512" xmlns="http://www.w3.org/2000/svg"><g><path d="m326.34 391.133c-4.327-2.458-7.744-6.168-9.921-10.556l-105.627.202-55.49 52.239 108.961 45.288s63.709-86.246 62.077-87.173z" fill="#fbbd80"/><path d="m313.806 369.592v-31.011h-115.612v31.011c0 9.044-4.903 17.198-12.515 21.53l1.528 8.527 11.008 2.751c2.277-1.752 4.461-3.68 6.323-5.85 4.254-4.959 10.934-6.974 17.199-5.116 9.034 2.678 18.492 4.355 28.296 4.817 2.024.097 4.032.137 6.04.137 21.48 0 42.059-5.536 60.346-15.81-1.659-3.344-2.613-7.073-2.613-10.986z" fill="#f4aa73"/><path d="m346.839 512h82.581c13.682 0 24.774-11.092 24.774-24.774v-20.732c0-21.98-14.48-41.333-35.568-47.535l-39.533-11.628z" fill="#91ccff"/><path d="m137.141 414.185-39.533 11.628c-21.088 6.202-30.417 18.701-30.417 40.681v20.732l7.132 23.323c2.587.916 5.358 1.451 8.258 1.451h82.581z" fill="#91ccff"/><path d="m132.907 407.331-39.533 11.628c-21.088 6.202-35.568 25.555-35.568 47.535v20.732c0 10.771 6.916 19.91 16.516 23.323v-44.057c0-14.652 9.653-27.552 23.71-31.685l41.994-12.348z" fill="#77b3ec"/><path d="m331.59 393.359c-1.85-.544-3.625-1.305-5.25-2.226l-53.804 48.24c-9.41 8.434-23.661 8.434-33.071 0l-41.25-36.973-53.171 11.841 77.924 97.759h66.065l81.56-107.169z" fill="#ffaa5a"/><path d="m185.679 391.122c-1.626.921-3.419 1.693-5.269 2.237l-42.678 12.552 8.636 14.681 38.713-11.384c4.87-1.436 9.251-3.828 13.134-6.809z" fill="#ff8b57"/><path d="m395.95 222.968-50.751-25.809h-174.204l-5.834 91.873h181.677l16.516-41.29h12.387c11.402 0 20.645-9.243 20.645-20.645.001-1.416-.164-2.794-.436-4.129z" fill="#ffd18d"/><path d="m198.194 222.968h197.756c-1.913-9.423-10.22-16.516-20.208-16.516l-12.387-16.516h-214.71l-12.387 16.516c-12.104 0-21.775 10.416-20.538 22.774 1.075 10.746 10.916 18.516 21.715 18.516h11.21l16.516 41.29h16.516v-49.548c0-9.122 7.395-16.516 16.517-16.516z" fill="#fbbd80"/><path d="m346.839 231.226c-9.121 0-16.516 7.394-16.516 16.516 0 13.682-11.092 24.774-24.774 24.774h-41.29l-8.259-8.258-8.258 8.258h-41.29c-13.682 0-24.774-11.092-24.774-24.774l-17.296 10.96c0 57.806 28.687 116.668 86.429 119.386 7.47.352 14.641 1.582 21.724.477 51.371-8.012 90.821-52.431 90.821-106.049v-24.774c-.001-9.122-7.396-16.516-16.517-16.516z" fill="#c9c5c9"/><path d="m181.677 269.484v-21.742c0-9.122-7.395-16.516-16.516-16.516s-16.516 7.394-16.516 16.516v21.742c0 57.806 44.423 107.545 102.165 110.265 7.424.35 14.681-.094 21.724-1.183-52.128-8.21-90.857-55.115-90.857-109.082z" fill="#b8b2b8"/><path d="m356.976 61.319-7.802-26.008c-6.287-20.959-25.578-35.311-47.459-35.311h-27.444c-49.02 0-55.153 14.665-61.23 35.936l-22.765 79.676 65.724 8.259 82.581-8.258-9.371-32.798 4.667-6.724 16.492 3.693c5.726-3.863 8.792-11.18 6.607-18.465z" fill="#91ccff"/><path d="m203.865 115.613 22.765-79.676c6.077-21.272 25.519-35.937 47.642-35.937h-30.446c-22.122 0-41.565 14.665-47.642 35.936l-22.765 79.676h30.446z" fill="#77b3ec"/><path d="m346.839 115.613h-132.129c-9.122 0-16.516 7.395-16.516 16.516v9.876h116.514l48.647-9.876c0-9.122-7.395-16.516-16.516-16.516z" fill="#ffd05b"/><path d="m214.71 115.613h-49.548c-9.122 0-16.516 7.395-16.516 16.516v33.032h214.71v-33.032h-132.13c-9.122 0-16.516-7.394-16.516-16.516z" fill="#ffc263"/><path d="m206.403 231.226c-4.565 0-8.258-3.694-8.258-8.258v-16.516c0-4.565 3.694-8.258 8.258-8.258s8.258 3.694 8.258 8.258v16.516c0 4.564-3.693 8.258-8.258 8.258z" fill="#615260"/><path d="m305.5 231.226c-4.565 0-8.258-3.694-8.258-8.258v-16.516c0-4.565 3.694-8.258 8.258-8.258s8.258 3.694 8.258 8.258v16.516c0 4.564-3.693 8.258-8.258 8.258z" fill="#615260"/><path d="m424.613 187.628-61.258-38.982h-165.161l-65.761 52.549h277.539l17.215-11.259c-.688-.856-1.532-1.646-2.574-2.308z" fill="#91ccff"/><path d="m148.645 148.645-61.258 38.982c-8.618 5.484-4.733 18.824 5.482 18.824h326.263c8.98 0 13.05-10.297 8.055-16.516h-227.662c-13.849 0-21.548-16.02-12.897-26.834l11.565-14.457h-49.548z" fill="#77b3ec"/><g fill="#b8b2b8"><path d="m207.15 283.166c-.728 2.998 1.729 5.866 4.814 5.866h19.262c13.682 0 24.774-11.092 24.774-24.774h-24.774c-11.662 0-21.441 8.057-24.076 18.908z"/><path d="m280.774 264.258h-24.774c0 13.682 11.092 24.774 24.774 24.774h19.262c3.085 0 5.542-2.868 4.814-5.866-2.635-10.851-12.414-18.908-24.076-18.908z"/></g><path d="m155.191 383.978c-3.778-7.135-12.16-10.494-19.82-7.941l-47.212 15.737c-6.09 2.03-7.636 9.927-2.763 14.104l35.621 30.532c6.342 5.436 7.627 14.751 2.994 21.701l-4.282 6.423c-2.341 3.511-1.658 8.223 1.584 10.925l43.848 36.541h57.806z" fill="#dbd8db"/><path d="m390.983 436.411 35.621-30.532c4.874-4.177 3.327-12.074-2.763-14.104l-47.212-15.737c-7.659-2.553-16.042.805-19.82 7.941l-67.777 128.021h57.806l43.848-36.54c3.242-2.702 3.925-7.413 1.584-10.925l-4.282-6.423c-4.632-6.95-3.347-16.265 2.995-21.701z" fill="#dbd8db"/><path d="m324.919 33.032c-5.518 0-9.459 5.344-7.828 10.616l12.118 39.166 11.947-.234c3.464 0 6.606-1.035 9.212-2.797l-17.917-41.785c-1.291-3.012-4.254-4.966-7.532-4.966z" fill="#77b3ec"/></g></svg>