<svg id="Capa_1" enable-background="new 0 0 512 512" height="512" viewBox="0 0 512 512" width="512" xmlns="http://www.w3.org/2000/svg"><g><path d="m412.878 401.236-33.007-11.65-25.928 8.013-23.62-25.5-2.736-.966c-13.207-4.661-22.038-17.144-22.038-31.149v-20.037l-90.161-4.854v32.733c0 14.005-17.767 26.488-30.974 31.149l-85.291 30.103c-19.81 6.991-26.326 17.873-26.326 38.881v39.267l9.777 23.361c2.585.915 5.367 1.413 8.266 1.413h41.29l36.176-35.931h180.706l30.859 35.931h41.29c13.682 0 24.774-11.092 24.774-24.774v-39.267c0-21.007-13.247-39.732-33.057-46.723z" fill="#fbbd80"/><path d="m104.621 416.81 85.29-30.104c19.81-6.992 33.057-25.716 33.057-46.723 0-7.156 6.428-12.439 13.488-11.276 6.362 1.047 12.883 1.615 19.544 1.615 17.629 0 34.367-3.738 49.548-10.376v-39.172h-99.097v59.21c0 14.005-8.832 26.488-22.038 31.149l-2.736.966-24.134 16.981-25.414.507-33.007 11.65c-19.81 6.992-33.057 25.716-33.057 46.723v39.267c0 10.771 6.916 19.925 16.516 23.338v-62.601c0-14.008 8.832-26.492 22.04-31.154z" fill="#f4aa73"/><path d="m256 311.169c-59.291 0-78.503-45.427-78.503-104.718v-140.386h185.858v140.387c0 52.226-37.293 95.741-86.701 105.37-6.684 1.302-13.589-.653-20.654-.653z" fill="#ffd18d"/><path d="m189.935 206.452v-16.516c0-9.122 7.395-16.516 16.516-16.516h156.903v-107.355h-214.71v135.751c0 47.163 28.713 90.676 73.259 106.166 19.235 6.688 37.672 7.169 54.749 3.84-49.403-9.632-86.717-53.147-86.717-105.37z" fill="#fbbd80"/><path d="m206.452 206.452c-4.565 0-8.258-3.698-8.258-8.258v-8.258c0-4.56 3.694-8.258 8.258-8.258s8.258 3.698 8.258 8.258v8.258c0 4.56-3.694 8.258-8.258 8.258z" fill="#7a4646"/><path d="m305.548 206.452c-4.565 0-8.258-3.698-8.258-8.258v-8.258c0-4.56 3.694-8.258 8.258-8.258 4.565 0 8.258 3.698 8.258 8.258v8.258c0 4.56-3.693 8.258-8.258 8.258z" fill="#7a4646"/><path d="m256 264.258c-12.387 0-23.823-3.976-30.573-10.637-3.25-3.202-3.282-8.431-.081-11.677 3.202-3.25 8.444-3.282 11.677-.081 2.75 2.714 9.371 5.879 18.976 5.879s16.226-3.165 18.976-5.879c3.234-3.202 8.476-3.169 11.677.081 3.202 3.246 3.169 8.476-.081 11.677-6.748 6.661-18.184 10.637-30.571 10.637z" fill="#f4aa73"/><path d="m411.746 173.91-14.137-61.26c-15.218-65.94-73.935-112.65-141.608-112.65h-.001-.001c-14.269 0-28.141 2.075-41.29 5.971l-49.094 88.509s49.095 1.794 49.095 37.649v16.516c0 4.561 3.697 8.258 8.258 8.258 4.561 0 8.258-3.697 8.258-8.258v-57.806c0-4.56 3.694-8.258 8.258-8.258s8.258 3.698 8.258 8.258v57.806c0 4.561 3.697 8.258 8.258 8.258h33.032c4.561 0 8.258-3.697 8.258-8.258v-24.774c0-4.56 3.694-8.258 8.258-8.258 4.565 0 8.258 3.698 8.258 8.258v24.774c0 4.561 3.697 8.258 8.258 8.258h8.258c4.561 0 8.258 3.697 8.258 8.258v55.991c0 5.211 4.768 9.12 9.878 8.098l31.645-6.329c22.478-4.495 36.798-26.674 31.643-49.011z" fill="#ffe077"/><path d="m342.71 412.903-86.71 57.807-86.71-57.807v66.065l86.71 33.032 90.839-41.29z" fill="#b8b2b8"/><path d="m379.871 389.586-49.548-17.487v90.353l-74.323 49.548h123.871z" fill="#ffe077"/><path d="m181.677 389.613-24.358-3.673-25.19 21.161v104.899h123.871l-74.323-49.548z" fill="#ffe077"/><g fill="#ffd05b"><path d="m132.129 389.586v17.515l49.548-17.488v-17.515z"/><path d="m214.71 5.971c-49.191 14.592-88.314 54.659-100.319 106.68l-14.137 61.259c-5.155 22.336 9.165 44.516 31.644 49.012l31.644 6.329c5.11 1.022 9.878-2.887 9.878-8.098v-55.991c0-4.561 3.697-8.258 8.258-8.258h8.258c4.561 0 8.258-3.698 8.258-8.258v-16.516c0-4.56 3.694-8.258 8.258-8.258s8.258 3.698 8.258 8.258z"/></g></g></svg>