<svg id="Capa_1" enable-background="new 0 0 512 512" height="512" viewBox="0 0 512 512" width="512" xmlns="http://www.w3.org/2000/svg"><g><path d="m448.26 429.554-8.813-13.635c-4.589-4.689-10.345-8.302-16.914-10.354l-78.705-24.595c-3.187-.996-6.081-2.47-8.727-4.297l-135.396-20.94-24.712 30.007-77.997 19.826c-16.964 5.301-28.514 21.012-28.514 38.785v43.269l8.718 22.99c2.544.9 5.281 1.39 8.133 1.39h32.508l6.845-7.997 9.409 7.997h243.809l8.021-7.997 8.233 7.997h32.508c13.465 0 24.381-10.916 24.381-24.381v-43.268c.001-5.176-.98-10.177-2.787-14.797z" fill="#ff8086"/><path d="m404.556 460.19 43.705-30.636c-1.996-5.122-4.991-9.727-8.815-13.635l-44.208 30.954c-10.857 7.599-17.333 20.044-17.333 33.29v31.837h16.254v-31.837c0-7.949 3.889-15.417 10.397-19.973z" fill="#ff646f"/><path d="m176.899 376.673c-2.638 1.818-5.551 3.305-8.727 4.297l-78.706 24.596c-16.964 5.301-28.514 21.012-28.514 38.785v43.269c0 10.6 6.806 19.614 16.254 22.973v-66.242c0-1.692.228-3.33.557-4.936l29.682 20.777c6.508 4.556 10.397 12.024 10.397 19.972v31.836h16.254v-31.837c0-13.246-6.476-25.69-17.333-33.29l-30.546-21.382c2.358-1.914 5.056-3.461 8.102-4.412l78.698-24.595c6.101-1.906 11.572-4.942 16.29-8.784l1.352-8.139z" fill="#ff646f"/><path d="m323.217 361.671-118.218-6.601-15.694 32.63 18.101 16.089c27.713 24.634 69.474 24.634 97.187 0l30.507-27.117c-5.38-3.71-9.524-8.946-11.883-15.001z" fill="#fbbd80"/><path d="m323.221 361.671c-1.428-3.663-2.205-7.624-2.205-11.729l.105-41.116h-130.242l.105 41.116c0 10.891-5.449 20.777-14.085 26.731l12.406 11.028c3.725-3.035 6.958-6.592 9.613-10.549 4.674-6.968 12.236-11.437 20.626-11.437h77.091c9.255-.001 18.184-1.421 26.586-4.044z" fill="#f4aa73"/><path d="m345.397 316.952h-178.794v-235.682h178.794l32.508 97.524v16.254z" fill="#ffd18d"/><path d="m231.619 292.571h-8.127c-17.954 0-32.508-14.554-32.508-32.508v-113.777c0-13.465 10.916-24.381 24.381-24.381h32.508c31.397 0 50.77-8.77 60.603-15.032l20.667-17.476-146.286-16.254-48.762 105.651v16.254l32.508 121.905h89.397c0-13.466-10.916-24.382-24.381-24.382z" fill="#fbbd80"/><path d="m312.889 40.635h-73.143l-65.195 18.114 8.312 48.287c2.54-.897 5.274-1.385 8.121-1.385h56.889c40.635 0 56.889-16.254 56.889-16.254l30.858-12.004-1.286-33.138c-6.715-2.345-13.931-3.62-21.445-3.62z" fill="#ff8b57"/><path d="m288.508 308.416c-10.114-1.236-19.699-5.236-27.694-11.56-2.803-2.218-6.825-2.218-9.628 0-9.751 7.713-21.87 11.969-34.427 11.969h-1.394c-22.442 0-40.635-18.193-40.635-40.635v-48.762c0-13.465-10.916-24.381-24.381-24.381h-16.254v48.762l8.127 8.127v24.381c0 40.395 32.747 73.143 73.143 73.143h73.143l7.727-18.219z" fill="#ff8b57"/><path d="m337.27 219.429v48.762c0 22.442-18.193 40.635-40.635 40.635h-1.394c-2.271 0-4.501-.135-6.733-.409v41.044h8.127c40.396 0 73.143-32.748 73.143-73.143v-24.381l8.127-8.127v-48.762h-16.254c-13.465 0-24.381 10.915-24.381 24.381z" fill="#ffaa5a"/><path d="m207.238 219.429c-4.492 0-8.127-3.639-8.127-8.127v-8.127c0-4.488 3.635-8.127 8.127-8.127s8.127 3.639 8.127 8.127v8.127c0 4.488-3.635 8.127-8.127 8.127z" fill="#615260"/><path d="m304.762 219.429c-4.492 0-8.127-3.639-8.127-8.127v-8.127c0-4.488 3.635-8.127 8.127-8.127s8.127 3.639 8.127 8.127v8.127c0 4.488-3.635 8.127-8.127 8.127z" fill="#615260"/><g fill="#ff8b57"><path d="m215.365 186.921h-16.254c-4.492 0-8.127-3.639-8.127-8.127s3.635-8.127 8.127-8.127h16.254c4.492 0 8.127 3.639 8.127 8.127s-3.635 8.127-8.127 8.127z"/><path d="m312.889 186.921h-16.254c-4.492 0-8.127-3.639-8.127-8.127s3.635-8.127 8.127-8.127h16.254c4.492 0 8.127 3.639 8.127 8.127s-3.635 8.127-8.127 8.127z"/><path d="m231.619 268.19h-16.254c0-13.465 10.916-24.381 24.381-24.381h16.254c0 13.466-10.916 24.381-24.381 24.381z"/><path d="m280.381 268.19h16.254c0-13.465-10.916-24.381-24.381-24.381h-16.254c0 13.466 10.916 24.381 24.381 24.381z"/></g><path d="m418.54 195.048h-16.254v-89.397c0-49.294-40.103-89.397-89.397-89.397l-56.889-8.127-56.889 8.127c-49.294 0-89.397 40.103-89.397 89.397v89.397h-16.254v-89.397c0-58.258 47.397-105.651 105.651-105.651l56.889 8.127 56.889-8.127c58.254 0 105.651 47.393 105.651 105.651z" fill="#887f88"/><path d="m190.984 333.206h-24.381c-40.396 0-73.143-32.747-73.143-73.143v-16.253h16.254v16.254c0 31.419 25.47 56.889 56.889 56.889h24.381z" fill="#887f88"/><path d="m199.111 308.825h-8.127c-8.977 0-16.254 7.277-16.254 16.254 0 8.977 7.277 16.254 16.254 16.254h8.127c8.977 0 16.254-7.277 16.254-16.254 0-8.976-7.277-16.254-16.254-16.254z" fill="#615260"/><path d="m418.54 186.921-8.127 8.127v40.635l8.127 8.127 16.254-8.127v-32.508c0-8.978-7.278-16.254-16.254-16.254z" fill="#887f88"/><path d="m418.54 186.921h-24.381v65.016h24.381c8.977 0 16.254-7.277 16.254-16.254-8.977 0-16.254-7.277-16.254-16.254z" fill="#736572"/><path d="m386.032 178.794h8.127c4.488 0 8.127 3.639 8.127 8.127v56.889c0 4.488-3.639 8.127-8.127 8.127h-16.254v-65.016c0-4.489 3.638-8.127 8.127-8.127z" fill="#615260"/><path d="m402.286 243.81c-8.977 0-16.254-7.277-16.254-16.254v-48.762h-8.127c-4.488 0-8.127 3.639-8.127 8.127v65.016c0 4.488 3.639 8.127 8.127 8.127h16.254c4.488 0 8.127-3.639 8.127-8.127z" fill="#4e3d4d"/><path d="m199.111 0h113.778v16.254h-113.778z" fill="#615260"/><path d="m108.512 245.522-15.052-58.601c-8.977 0-16.254 7.277-16.254 16.254v32.508z" fill="#887f88"/><path d="m93.46 186.921v32.508c0 8.977-7.277 16.254-16.254 16.254 0 8.977 7.277 16.254 16.254 16.254h32.508v-65.016z" fill="#736572"/><path d="m125.968 178.794h8.127c4.488 0 8.127 3.639 8.127 8.127v56.889c0 4.488-3.639 8.127-8.127 8.127h-16.254v-65.016c0-4.489 3.639-8.127 8.127-8.127z" fill="#615260"/><path d="m142.222 243.81c-8.977 0-16.254-7.277-16.254-16.254v-48.762h-8.127c-4.488 0-8.127 3.639-8.127 8.127v65.016c0 4.488 3.639 8.127 8.127 8.127h16.254c4.488 0 8.127-3.639 8.127-8.127z" fill="#4e3d4d"/><path d="m345.397 130.032v32.508c0 8.977 7.277 16.254 16.254 16.254h16.254v-73.143c0-28.404-18.186-52.544-43.572-61.396-5.115 11.934-14.821 30.803-29.571 45.142 0 0 40.635 20.761 40.635 40.635z" fill="#ffaa5a"/><path d="m239.746 40.635h-40.635c-35.907 0-65.016 29.109-65.016 65.016v73.143h16.254c8.977 0 16.254-7.277 16.254-16.254v-32.508c0-10.6 6.806-19.653 16.254-23.012v-9.496c0-17.954 14.554-32.508 32.508-32.508 13.465 0 24.381-10.916 24.381-24.381z" fill="#ff744d"/></g></svg>