<svg id="Capa_1" enable-background="new 0 0 512 512" height="512" viewBox="0 0 512 512" width="512" xmlns="http://www.w3.org/2000/svg"><g><path d="m304.762 350.841v-11.592h-88.663l-19.923 52.668 57.808 75.901 69.592-87.493c-11.388-5.284-18.814-16.744-18.814-29.484z" fill="#fcdbb2"/><path d="m207.238 300.698v50.143c0 12.757-7.446 24.23-18.86 29.505l6.349 14.806c3.207-1.46 6.278-3.135 9.046-5.19 12.167-9.035 19.719-23.412 19.719-39.121 0-3.004 2.785-5.126 5.714-4.457 8.624 1.97 17.572 3.076 26.794 3.076 17.349 0 33.821-3.679 48.762-10.211v-38.551z" fill="#f5c89d"/><path d="m439.16 438.318-8.672-13.743c-5.344-5.971-12.19-10.663-20.1-13.454l-83.937-29.625c-.953-.336-1.97-.754-2.875-1.171l-63.268 39.586c-2.635 1.647-5.98 1.647-8.615 0l-47.919-29.949-97.73 26.668c-19.496 6.88-28.794 19.799-28.794 40.473v30.516l8.084 22.983c2.543.899 5.276 1.398 8.127 1.398h32.508l8.207-5.68 8.047 5.68h227.556l7.986-4.687 8.268 4.687h32.508c13.465 0 24.381-10.916 24.381-24.381v-30.516c-.001-6.591-1.326-12.952-3.762-18.785z" fill="#dfbdf0"/><path d="m256 332.199c-58.349 0-88.729-46.294-88.729-104.643v-162.54h167.026l36.185 60.808-8.832 101.732c0 52.769-38.686 96.502-89.244 104.384.001 0-10.825.259-16.406.259z" fill="#f8ebcc"/><path d="m150.349 65.016-16.254 113.778 16.254 48.762c0 58.349 47.302 105.651 105.651 105.651 5.542 0 11.095-.444 16.407-1.266-50.612-7.836-89.55-51.577-89.55-104.384v-44.369c0-5.707 3.064-10.915 7.911-13.928 23.22-14.436 40.683-30.3 53.248-44.126 6.408-7.051 17.603-6.997 24.008.057 19 20.925 49.176 46.514 93.627 64.729l16.254-11.126-24.381-113.778z" fill="#fcdbb2"/><path d="m272.254 211.302c-4.492 0-8.127-3.639-8.127-8.127 0-4.48-3.643-8.127-8.127-8.127s-8.127 3.647-8.127 8.127c0 4.488-3.635 8.127-8.127 8.127s-8.127-3.639-8.127-8.127c0-13.444 10.937-24.381 24.381-24.381s24.381 10.937 24.381 24.381c0 4.488-3.635 8.127-8.127 8.127z" fill="#736572"/><path d="m207.238 215.246c-4.492 0-8.127-3.639-8.127-8.127v-8.127c0-4.488 3.635-8.127 8.127-8.127s8.127 3.639 8.127 8.127v8.127c0 4.488-3.635 8.127-8.127 8.127z" fill="#c6805d"/><path d="m256 276.317c-12.19 0-23.444-3.913-30.087-10.468-3.198-3.151-3.23-8.298-.079-11.492 3.151-3.198 8.31-3.23 11.492-.079 2.706 2.671 9.222 5.786 18.675 5.786 9.452 0 15.968-3.115 18.675-5.786 3.183-3.151 8.341-3.119 11.492.079 3.151 3.194 3.119 8.341-.079 11.492-6.645 6.556-17.899 10.468-30.089 10.468z" fill="#f5c89d"/><path d="m207.238 243.81c-22.405 0-40.635-18.23-40.635-40.635s18.23-40.635 40.635-40.635 40.635 18.23 40.635 40.635-18.23 40.635-40.635 40.635zm0-65.016c-13.444 0-24.381 10.937-24.381 24.381s10.937 24.381 24.381 24.381 24.381-10.937 24.381-24.381-10.936-24.381-24.381-24.381z" fill="#615260"/><path d="m304.762 215.246c-4.492 0-8.127-3.639-8.127-8.127v-8.127c0-4.488 3.635-8.127 8.127-8.127s8.127 3.639 8.127 8.127v8.127c0 4.488-3.635 8.127-8.127 8.127z" fill="#c6805d"/><path d="m304.762 243.81c-22.405 0-40.635-18.23-40.635-40.635s18.23-40.635 40.635-40.635 40.635 18.23 40.635 40.635-18.23 40.635-40.635 40.635zm0-65.016c-13.444 0-24.381 10.937-24.381 24.381s10.937 24.381 24.381 24.381 24.381-10.937 24.381-24.381-10.937-24.381-24.381-24.381z" fill="#615260"/><path d="m134.095 178.794c89.397-32.508 121.905-97.524 121.905-97.524s32.508 65.016 121.905 97.524v-36.626l-101.533-101.533h-40.744l-101.533 101.533z" fill="#e29a6c"/><path d="m312.889 40.635h-36.517c18.139 46.429 55.104 83.393 101.533 101.533v-36.517c0-35.907-29.109-65.016-65.016-65.016z" fill="#f4aa73"/><path d="m199.111 40.635h36.517c-18.139 46.429-55.104 83.393-101.533 101.533v-36.517c0-35.907 29.109-65.016 65.016-65.016z" fill="#c6805d"/><path d="m418.54 195.048h-16.254v-89.397c0-49.294-40.103-89.397-89.397-89.397l-56.889-8.127-56.889 8.127c-49.294 0-89.397 40.103-89.397 89.397v89.397h-16.254v-89.397c0-58.258 47.397-105.651 105.651-105.651l56.889 8.127 56.889-8.127c58.254 0 105.651 47.393 105.651 105.651z" fill="#887f88"/><path d="m190.984 325.079h-24.381c-35.849 0-65.016-29.167-65.016-65.016v-16.253h16.254v16.254c0 26.889 21.873 48.762 48.762 48.762h24.381z" fill="#887f88"/><path d="m410.413 186.921-8.127 8.127v40.635l8.127 8.127 16.254-8.127v-32.508c0-8.978-7.278-16.254-16.254-16.254z" fill="#dfbdf0"/><path d="m410.413 186.921h-24.381v65.016h24.381c8.977 0 16.254-7.277 16.254-16.254-8.977 0-16.254-7.277-16.254-16.254z" fill="#cbb0f2"/><path d="m377.905 178.794h8.127c4.488 0 8.127 3.639 8.127 8.127v56.889c0 4.488-3.639 8.127-8.127 8.127h-16.254v-65.016c0-4.489 3.638-8.127 8.127-8.127z" fill="#615260"/><path d="m394.159 243.81c-8.977 0-16.254-7.277-16.254-16.254v-48.762h-8.127c-4.488 0-8.127 3.639-8.127 8.127v65.016c0 4.488 3.639 8.127 8.127 8.127h16.254c4.488 0 8.127-3.639 8.127-8.127z" fill="#4e3d4d"/><path d="m199.111 0h113.778v16.254h-113.778z" fill="#615260"/><path d="m117.841 243.81-16.254-56.889c-8.977 0-16.254 7.277-16.254 16.254v32.508z" fill="#dfbdf0"/><path d="m101.587 186.921v32.508c0 8.977-7.277 16.254-16.254 16.254 0 8.977 7.277 16.254 16.254 16.254h32.508v-65.016z" fill="#cbb0f2"/><path d="m134.095 178.794h8.127c4.488 0 8.127 3.639 8.127 8.127v56.889c0 4.488-3.639 8.127-8.127 8.127h-16.254v-65.016c0-4.489 3.639-8.127 8.127-8.127z" fill="#615260"/><path d="m150.349 243.81c-8.977 0-16.254-7.277-16.254-16.254v-48.762h-8.127c-4.488 0-8.127 3.639-8.127 8.127v65.016c0 4.488 3.639 8.127 8.127 8.127h16.254c4.488 0 8.127-3.639 8.127-8.127z" fill="#4e3d4d"/><path d="m207.238 300.698h-8.127c-8.977 0-16.254 7.277-16.254 16.254 0 8.977 7.277 16.254 16.254 16.254h8.127c8.977 0 16.254-7.277 16.254-16.254 0-8.976-7.277-16.254-16.254-16.254z" fill="#615260"/><g fill="#cbb0f2"><path d="m185.55 381.496-83.938 29.625c-19.496 6.88-32.533 25.308-32.533 45.982v30.516c0 10.6 6.806 19.624 16.254 22.983v-53.496c0-3.146.505-6.195 1.359-9.112l29.141 20.315c6.317 4.512 10.135 11.929 10.135 19.786v23.905h16.254v-23.905c0-13.095-6.357-25.456-17.016-33.067l-30.161-21.028c3.332-3.29 7.366-5.924 11.979-7.552l83.936-29.626c4.683-1.653 8.967-4.004 12.813-6.861l-15.395-9.616c-.905.418-1.875.815-2.828 1.151z"/><path d="m430.487 424.575-43.694 30.452c-10.659 7.611-17.016 19.972-17.016 33.067v23.906h16.254v-23.905c0-7.857 3.817-15.274 10.135-19.786l42.993-29.991c-2.108-5.06-5.028-9.675-8.672-13.743z"/></g></g></svg>