<svg id="Capa_1" enable-background="new 0 0 512 512" height="512" viewBox="0 0 512 512" width="512" xmlns="http://www.w3.org/2000/svg"><g><path d="m216.285 311.689-.84 31.711 83.402 3.867 6.701-16.942v-18.636z" fill="#ffd18d"/><path d="m206.452 272.516v57.808l15.078 12.636c.852-3.645 1.439-7.378 1.439-11.234 0-7.156 6.427-12.439 13.488-11.277 6.362 1.047 12.883 1.615 19.544 1.615 17.629 0 34.367-3.738 49.548-10.376v-39.172z" fill="#fbbd80"/><path d="m443.979 425.904-7.343-15.1c-5.778-8.048-13.966-14.37-23.758-17.826l-85.291-30.103c-13.207-4.661-22.038-17.144-22.038-31.149v-1.401c-15.515 5.349-32.188 8.256-49.548 8.256-11.371 0-22.529-1.282-33.178-3.646l-17.298 29.308-106.403 35.958c-19.81 6.991-25.428 25.716-25.428 46.723v40.301l8.882 23.363c2.584.914 5.365 1.411 8.263 1.411h33.032l8.564-7.68 7.953 7.68h231.226l8.451-8.017 8.065 8.017h33.032c13.682 0 24.774-11.092 24.774-24.774v-47.525c-.001-4.751-.678-9.386-1.957-13.796z" fill="#eceaec"/><path d="m214.642 41.121c-36.486 0-66.065 29.578-66.065 66.065l11.21 99.266c4.23 55.419 39.711 97.881 96.213 97.881 5.702 0 11.3.771 16.762-.085 26.124-4.096 49.122-17.613 65.41-36.965l-12.925-208.898z" fill="#ffe09c"/><path d="m231.226 33.032v33.032c0 9.122 7.395 16.516 16.516 16.516h24.774c27.365 0 49.548 22.184 49.548 49.548v74.323c0 21.856 5.845 42.706 16.108 60.831 15.715-18.671 25.182-42.774 25.182-69.089v-132.128z" fill="#ffd18d"/><path d="m181.677 198.194v-115.613c0-9.122 7.395-16.516 16.516-16.516l16.516-33.032h-16.516c-33.688 0-61.445 25.22-65.511 57.806l-.553 16.516v16.516l5.686 8.612-5.686 7.904v25.191c-10.555 2.143-18.185 12.333-16.201 23.889 1.72 10.017 11.025 16.985 21.189 16.985h11.946c4.23 55.419 50.435 99.097 106.938 99.097 5.632 0 11.364-.465 16.762-1.301-51.429-7.963-91.086-52.396-91.086-106.054z" fill="#ffd18d"/><path d="m256 256c-12.387 0-23.823-3.976-30.573-10.637-3.25-3.202-3.282-8.431-.081-11.677 3.202-3.25 8.444-3.282 11.677-.081 2.75 2.714 9.371 5.879 18.976 5.879s16.226-3.165 18.976-5.879c3.234-3.202 8.476-3.169 11.677.081 3.202 3.246 3.169 8.476-.081 11.677-6.748 6.661-18.184 10.637-30.571 10.637z" fill="#f4aa73"/><path d="m206.452 198.194c-4.565 0-8.258-3.698-8.258-8.258v-8.258c0-4.56 3.694-8.258 8.258-8.258s8.258 3.698 8.258 8.258v8.258c0 4.56-3.694 8.258-8.258 8.258z" fill="#4e3d4d"/><path d="m305.548 198.194c-4.565 0-8.258-3.698-8.258-8.258v-8.258c0-4.56 3.694-8.258 8.258-8.258 4.565 0 8.258 3.698 8.258 8.258v8.258c0 4.56-3.693 8.258-8.258 8.258z" fill="#4e3d4d"/><path d="m214.71 164.444h-16.516c-4.565 0-8.258-3.698-8.258-8.258s3.694-8.258 8.258-8.258h16.516c4.565 0 8.258 3.698 8.258 8.258s-3.694 8.258-8.258 8.258z" fill="#c6805d"/><path d="m313.806 164.444h-16.516c-4.565 0-8.258-3.698-8.258-8.258s3.694-8.258 8.258-8.258h16.516c4.565 0 8.258 3.698 8.258 8.258s-3.693 8.258-8.258 8.258z" fill="#c6805d"/><g fill="#9ae59c"><path d="m272.516 0h-8.258c-36.486 0-66.065 29.578-66.065 66.065h33.032l90.839-8.258 41.29 57.806v140.387l41.29 33.032v-156.903c.001-72.973-59.155-132.129-132.128-132.129z"/><path d="m198.194 239.484c-2.113 0-4.226-.806-5.839-2.419l-8.258-8.258c-3.226-3.226-3.226-8.452 0-11.677 3.226-3.226 8.452-3.226 11.677 0l8.258 8.258c3.226 3.226 3.226 8.452 0 11.677-1.613 1.612-3.726 2.419-5.838 2.419z"/><path d="m313.806 239.484c-2.113 0-4.226-.806-5.839-2.419-3.226-3.226-3.226-8.452 0-11.677l8.258-8.258c3.226-3.226 8.452-3.226 11.677 0 3.226 3.226 3.226 8.452 0 11.677l-8.258 8.258c-1.612 1.612-3.725 2.419-5.838 2.419z"/></g><path d="m419.232 286.758c-1.334-7.084-5.795-13.058-11.949-16.812-21.391-13.049-35.671-36.604-35.671-63.494v-74.323c0-54.73-44.367-99.097-99.097-99.097h-8.258c-18.243 0-33.032 14.789-33.032 33.032h16.516l24.774-8.053c36.486 0 72.012 29.578 72.012 66.065v82.376c0 46.984 25.619 76.153 67.652 90.707l8.521-2.6z" fill="#6fd6a2"/><path d="m173.419 90.839h-40.737c-.339 2.711-.553 5.455-.553 8.258v8.258h41.29c4.565 0 8.258-3.698 8.258-8.258 0-4.561-3.693-8.258-8.258-8.258z" fill="#9ae59c"/><path d="m156.903 123.871h-24.774v16.516h24.774c4.565 0 8.258-3.698 8.258-8.258s-3.693-8.258-8.258-8.258z" fill="#6fd6a2"/><path d="m206.452 330.325v1.401c0 14.005-8.832 26.488-22.039 31.149l-85.291 30.103c-19.81 6.991-33.057 25.716-33.057 46.723v47.525c0 10.771 6.916 19.938 16.516 23.35v-70.872c0-.956.141-1.883.221-2.823l30.698 21.924c6.492 4.645 10.371 12.181 10.371 20.161v33.034h16.516v-33.032c0-13.302-6.46-25.863-17.29-33.601l-34.506-24.647c3.862-5.498 9.39-9.824 16.03-12.167l85.29-30.104c18.825-6.645 31.675-23.788 32.911-43.514-5.533-1.236-11.088-2.789-16.37-4.61z" fill="#dbd8db"/><path d="m394.976 461.246 49.004-35.342c-1.58-5.446-4.077-10.551-7.343-15.1l-51.322 37.051c-8.581 6.194-13.702 16.206-13.702 26.782v37.363h16.516v-37.363c0-5.286 2.565-10.294 6.847-13.391z" fill="#dbd8db"/><path d="m355.097 206.811v-74.682c0-45.608-36.973-82.581-82.581-82.581h-8.258c-9.122 0-16.516 7.395-16.516 16.516h24.774c36.486 0 66.065 29.578 66.065 66.065v74.323c0 46.983 30.182 86.917 72.215 101.471 5.912 2.047 11.806-3.276 10.648-9.424l-.742-3.94c-1.689-1.055-2.925-1.66-4.097-2.099-36.334-13.586-61.508-46.859-61.508-85.649z" fill="#3ec2a3"/></g></svg>