<svg id="Capa_1" enable-background="new 0 0 512 512" height="512" viewBox="0 0 512 512" width="512" xmlns="http://www.w3.org/2000/svg"><g><path d="m418.626 361.152-30.497-8.97-50.098 25.061-13.022-44.729c-6.859-4.491-11.203-12.216-11.203-20.729v-20.591l-108.95-4.584v43.712l-111.482 38.345c-21.087 6.202-27.746 18.039-27.746 40.019v78.539l8.684 23.36c2.586.915 5.369 1.414 8.269 1.414h41.29l132.103-23.61 132.155 23.611h41.29c13.682 0 24.774-11.092 24.774-24.774v-78.539c.001-21.98-14.48-41.333-35.567-47.535z" fill="#fbbd80"/><path d="m165.161 355.097-16.516 16.516v123.871l16.516 16.516h132.129l8.258-16.516z" fill="#fb4455"/><path d="m363.355 363.355-16.516-23.317-15.249-4.485c-2.378-.699-4.584-1.731-6.581-3.039l-79.963 89.781 60.502 73.189 41.291 16.516 16.516-16.516z" fill="#ff646f"/><path d="m198.194 256v55.785c0 8.515-4.346 16.24-11.207 20.731l-12.846 12.273-28.81 10.425-21.46-3.033-30.497 8.97c-21.087 6.202-35.567 25.555-35.567 47.535v78.539c0 10.771 6.916 19.916 16.516 23.329v-101.869c0-14.652 9.653-27.552 23.71-31.685l87.048-25.597c4.752-1.402 9.114-3.631 12.945-6.5 10.233-7.662 16.684-19.89 16.684-33.121v-.346c0-6.89 6.577-11.699 13.23-9.91 9.012 2.423 18.393 4.022 28.06 4.022 20.89 0 40.542-5.222 57.806-14.354v-35.194z" fill="#f4aa73"/><path d="m375.742 148.645h-4.129v-49.548c0-25.279-9.465-48.347-25.044-65.853l-175.119 12.799-15.021 143.893c4.23 55.419 43.069 96.674 99.571 96.674 7.063 0 13.965 1.74 20.644.437 46.754-9.117 82.593-48.62 86.294-97.111h12.804c11.402 0 20.645-9.243 20.645-20.645 0-11.403-9.243-20.646-20.645-20.646z" fill="#ffd18d"/><path d="m181.677 173.419v-107.354c0-4.561 3.697-8.258 8.258-8.258h8.258l-32.721-24.484c-15.59 17.483-25.086 40.502-25.086 65.775v49.548h-2.952c-10.799 0-20.64 7.77-21.716 18.515-1.237 12.358 8.433 22.775 20.538 22.775h12.804c4.23 55.419 50.435 99.097 106.938 99.097 7.015 0 14.007-.7 20.644-1.985-53.914-9.805-94.965-56.884-94.965-113.629z" fill="#fbbd80"/><path d="m322.065 57.806 24.504-24.563c-18.152-20.416-44.585-33.243-74.053-33.243h-33.032c-29.468 0-55.86 12.906-74.011 33.322l24.463 24.484 67.159 22.988z" fill="#ff8086"/><path d="m206.452 173.419c-4.565 0-8.258-3.694-8.258-8.258v-8.258c0-4.565 3.694-8.258 8.258-8.258s8.258 3.694 8.258 8.258v8.258c0 4.565-3.694 8.258-8.258 8.258z" fill="#845252"/><path d="m305.548 173.419c-4.565 0-8.258-3.694-8.258-8.258v-8.258c0-4.565 3.694-8.258 8.258-8.258 4.565 0 8.258 3.694 8.258 8.258v8.258c0 4.565-3.693 8.258-8.258 8.258z" fill="#845252"/><g fill="#f4aa73"><path d="m214.71 140.387h-16.516c-4.565 0-8.258-3.694-8.258-8.258s3.694-8.258 8.258-8.258h16.516c4.565 0 8.258 3.694 8.258 8.258s-3.694 8.258-8.258 8.258z"/><path d="m313.806 140.387h-16.516c-4.565 0-8.258-3.694-8.258-8.258s3.694-8.258 8.258-8.258h16.516c4.565 0 8.258 3.694 8.258 8.258s-3.693 8.258-8.258 8.258z"/><path d="m280.774 222.968h-49.548c-4.565 0-8.258-3.694-8.258-8.258 0-4.565 3.694-8.258 8.258-8.258h49.548c4.565 0 8.258 3.694 8.258 8.258s-3.693 8.258-8.258 8.258z"/></g><path d="m189.935 57.806 60.225 60.225c3.225 3.225 8.454 3.225 11.678 0l60.225-60.225z" fill="#fff"/><path d="m153.598 350.644 143.692 161.356h49.549l-148.813-167.096z" fill="#ff8086"/><path d="m186.987 332.517c-1.996 1.307-4.199 2.337-6.577 3.036l-15.249 4.485-6.294 12.571 6.294 4.652 19.919-5.857c4.754-1.402 9.067-3.69 12.899-6.56z" fill="#ff646f"/><path d="m346.839 340.038v171.962h41.29v-159.818z" fill="#ff8086"/><path d="m165.161 357.261v154.739h-41.29v-142.598l22.91-16.293z" fill="#ff646f"/><path d="m165.161 357.261v-17.223l-41.29 12.144v17.22z" fill="#fb4455"/></g></svg>