<svg id="Capa_1" enable-background="new 0 0 512 512" height="512" viewBox="0 0 512 512" width="512" xmlns="http://www.w3.org/2000/svg"><g><path d="m305.548 396.387h-92.176v-55.405l92.176 3.739z" fill="#dbd8db"/><path d="m256 355.097c17.629 0 34.367-3.738 49.548-10.376v-30.914h-99.097v82.581h16.516v-25.846c0-9.819 8.519-17.584 18.262-16.369 4.84.603 9.766.924 14.771.924z" fill="#c9c5c9"/><circle cx="123.871" cy="57.806" fill="#c9c5c9" r="57.806"/><circle cx="388.129" cy="57.806" fill="#dbd8db" r="57.806"/><path d="m387.22 214.71c5.83-15.427 9.167-32.08 9.167-49.548 0-77.534-62.853-140.387-140.387-140.387-27.284 0-52.751 7.784-74.3 21.251l-28.189 168.684z" fill="#c9c5c9"/><path d="m181.677 46.026c-39.628 24.816-66.065 68.932-66.065 119.136 0 17.469 3.337 34.121 9.167 49.548h56.898z" fill="#b8b2b8"/><path d="m374.562 198.194h-11.208c-9.121 0-16.516-7.395-16.516-16.516v-42.662c0-13.682-11.092-24.774-24.774-24.774h-41.29c-7.851 0-14.85-3.652-19.389-9.351-2.702-3.392-8.07-3.392-10.771 0-4.539 5.699-11.537 9.351-19.389 9.351h-41.29c-2.908 0-5.665.501-8.258 1.421l-9.782 23.353.449 100.469c4.23 55.419 27.154 97.63 83.656 97.63 5.699 0 11.293 1.022 16.75.166 43.14-6.766 77.682-39.26 87.606-81.28l2.582-16.516h12.804c12.105 0 21.776-10.417 20.538-22.775-1.077-10.747-10.918-18.516-21.718-18.516z" fill="#eceaec"/><path d="m181.677 231.226v-115.564c-9.6 3.413-16.516 12.582-16.516 23.353v42.662c0 9.121-7.395 16.516-16.516 16.516h-11.208c-10.799 0-20.641 7.77-21.717 18.515-1.238 12.358 8.433 22.775 20.538 22.775h12.804l2.567 16.542c11.186 47.325 53.626 82.555 104.37 82.555 5.649 0 11.339-.459 16.75-1.3-51.453-7.94-91.072-52.377-91.072-106.054z" fill="#dbd8db"/><path d="m413.32 425.817-11.928-4.338-243.914-6.495-58.223 21.171c-19.581 7.12-24.662 15.392-24.662 36.228v14.843l7.988 23.342c2.585.914 5.36 1.432 8.258 1.432h330.323c13.682 0 24.774-11.092 24.774-24.774v-14.843c-.001-20.836-13.035-39.446-32.616-46.566z" fill="#dbd8db"/><path d="m401.391 421.479-46.294-16.834h-198.194l-58.223 21.172c-19.581 7.12-32.616 25.73-32.616 46.566v14.843c0 10.771 6.916 19.93 16.516 23.342v-38.189c0-13.839 8.734-26.315 21.742-31.04l22.845-8.306c37.203 23.812 81.383 37.677 128.833 37.677 54.693 0 105.073-18.373 145.391-49.231z" fill="#c9c5c9"/><path d="m256 289.032c-12.395 0-23.823-3.976-30.573-10.637-3.25-3.21-3.282-8.435-.081-11.677 3.218-3.25 8.444-3.282 11.677-.081 2.75 2.71 9.363 5.879 18.976 5.879s16.226-3.169 18.976-5.879c3.234-3.202 8.46-3.169 11.677.081 3.202 3.242 3.169 8.468-.081 11.677-6.748 6.661-18.176 10.637-30.571 10.637z" fill="#c9c5c9"/><path d="m206.452 222.968c-4.565 0-8.258-3.694-8.258-8.258v-8.258c0-4.565 3.694-8.258 8.258-8.258s8.258 3.694 8.258 8.258v8.258c0 4.564-3.694 8.258-8.258 8.258z" fill="#dfbdf0"/><path d="m305.548 222.968c-4.565 0-8.258-3.694-8.258-8.258v-8.258c0-4.565 3.694-8.258 8.258-8.258 4.565 0 8.258 3.694 8.258 8.258v8.258c0 4.564-3.693 8.258-8.258 8.258z" fill="#dfbdf0"/><path d="m198.185 189.935c-3.806 0-7.226-2.637-8.065-6.508-.968-4.46 1.863-8.855 6.323-9.823l16.516-3.581c4.452-.968 8.855 1.863 9.823 6.323s-1.863 8.855-6.323 9.823l-16.516 3.581c-.588.129-1.177.185-1.758.185z" fill="#c9c5c9"/><path d="m313.815 189.935c-.581 0-1.169-.056-1.758-.185l-16.516-3.581c-4.46-.968-7.29-5.363-6.323-9.823.968-4.46 5.371-7.298 9.823-6.323l16.516 3.581c4.46.968 7.29 5.363 6.323 9.823-.84 3.871-4.267 6.508-8.065 6.508z" fill="#c9c5c9"/><path d="m297.29 272.516v24.774c0 4.565 3.694 8.258 8.258 8.258 4.565 0 8.258-3.694 8.258-8.258v-24.774c0-9.105 7.411-16.516 16.516-16.516h30.033c1.271-5.374 2.151-10.864 2.582-16.516h-32.615c-18.217 0-33.032 14.814-33.032 33.032z" fill="#f2d1ff"/><path d="m182.021 239.492-6.19 3.328 8.803 13.526c7.493 1.562 13.142 8.221 13.142 16.17v24.774c0 4.565 3.694 8.258 8.258 8.258s8.258-3.694 8.258-8.258v-24.774c0-17.964-14.403-32.618-32.271-33.024z" fill="#f2d1ff"/><path d="m377.583 377.126-16.015-19.218c-2.863-3.436-7.865-3.87-11.441-1.184-26.222 19.706-58.8 31.405-94.128 31.405s-67.906-11.7-94.128-31.405c-3.576-2.686-8.578-2.252-11.441 1.184l-16.015 19.218-3.971 11.947c34.789 26.699 78.312 40.02 125.554 40.02s90.765-13.321 125.554-40.02z" fill="#f2d1ff"/><g fill="#dfbdf0"><path d="m377.583 377.126c-32.944 27.483-75.326 44.036-121.583 44.036s-88.639-16.552-121.583-44.036l-5.16 6.192c-2.968 3.562-2.49 8.954 1.189 11.777 34.789 26.699 78.312 42.583 125.554 42.583s90.765-15.884 125.554-42.583c3.678-2.823 4.157-8.215 1.189-11.777z"/><path d="m182.059 239.565c-.272-.007-.526-.081-.799-.081h-32.198c.431 5.652 1.296 11.168 2.567 16.542l29.631-.026c1.202 0 2.244.101 3.374.346-1.317-5.463-2.131-11.025-2.575-16.781z"/><path d="m206.034 305.548c1.653 0 3.102-.607 4.393-1.442-4.72-5.074-8.977-10.571-12.651-16.486v9.67c0 4.565 3.694 8.258 8.258 8.258z"/></g></g></svg>