<svg id="Capa_1" enable-background="new 0 0 512 512" height="512" viewBox="0 0 512 512" width="512" xmlns="http://www.w3.org/2000/svg"><g><path d="m256 45.318h33.334c64.435 0 116.671 52.235 116.671 116.671v291.676h-150.005z" fill="#f4aa73"/><path d="m256 45.318h-33.334c-64.435 0-116.671 52.235-116.671 116.671v291.676h150.005z" fill="#d48c64"/><path d="m164.33 303.66h183.339v125.004h-183.339z" fill="#c6805d"/><path d="m297.668 45.318-35.266-42.319c-3.332-3.999-9.472-3.999-12.804 0l-35.266 42.319-15.6 50.002h132.271l12.869-57.911c1.522-6.85-5.586-12.4-11.862-9.262z" fill="#dbd8db"/><path d="m168.128 37.408 12.869 57.911h45.129l-11.794-50.002-34.342-17.17c-6.276-3.138-13.384 2.411-11.862 9.261z" fill="#c9c5c9"/><path d="m315.613 403.498c-6.025-6.106-9.612-14.454-9.612-23.42v-20.221l-93.175 1.845-5.95 57.92 81.451 16.743z" fill="#fbbd80"/><path d="m103.238 457.603 86.066-30.373c19.992-7.055 33.361-25.951 33.361-47.151v-.037c0-7.202 6.469-12.521 13.576-11.349 6.431 1.061 13.024 1.636 19.759 1.636 17.79 0 34.681-3.772 50.002-10.471v-31.197h-100.004v51.418c0 14.133-8.913 26.73-22.24 31.434l-86.072 30.378c-19.991 7.056-33.36 25.951-33.36 47.151v.041c0 10.474 7.07 19.211 16.667 21.945v-21.986c.001-14.136 8.916-26.735 22.245-31.439z" fill="#f4aa73"/><path d="m414.313 441.891-86.071-30.378c-4.873-1.72-9.137-4.514-12.609-8.034-15.135 15.519-36.243 25.185-59.633 25.185s-40.775-2.572-55.911-18.091l-98.646 36.2c-19.991 7.055-28.508 21.068-28.508 42.268l8.058 22.066c1.994.567 4.075.892 6.25.892h337.511c12.657 0 22.917-10.261 22.917-22.917v-.041c.002-21.199-13.367-40.095-33.358-47.15z" fill="#eceaec"/><path d="m320.293 399c-3.223-3.288-8.496-3.353-11.784-.114-14.113 13.827-32.757 21.444-52.509 21.444s-38.396-7.617-52.5-21.444c-3.28-3.239-8.57-3.174-11.784.114-2.511 2.562-2.973 6.303-1.527 9.366-2.006 1.25-4.137 2.337-6.431 3.146l-86.071 30.378c-19.991 7.055-33.36 25.951-33.36 47.151v.041c0 10.474 7.07 19.291 16.667 22.025v-22.066c0-14.136 8.914-26.735 22.244-31.439l86.065-30.373c4.96-1.75 9.438-4.309 13.467-7.381 15.452 11.078 33.882 17.149 53.229 17.149 24.138 0 46.925-9.31 64.179-26.213 3.288-3.215 3.337-8.496.115-11.784z" fill="#dbd8db"/><path d="m256 352.059c-59.833 0-74.011-46.902-74.011-106.734v-114.625l81.451-25.793 42.562-1.255 58.335 41.668v100.003c0 52.673-37.591 96.567-87.409 106.317z" fill="#ffd18d"/><path d="m189.331 245.324v-75.003c0-23.013 18.656-41.668 41.668-41.668h25.001v-25.001h-50.002l-58.335 41.668v100.003c0 59.833 48.504 108.337 108.337 108.337 7.132 0 14.181-.704 20.928-2.02-49.857-9.717-87.597-53.615-87.597-106.316z" fill="#fbbd80"/><path d="m205.998 245.324c-4.606 0-8.334-3.727-8.334-8.334v-8.334c0-4.606 3.727-8.334 8.334-8.334 4.606 0 8.334 3.727 8.334 8.334v8.334c0 4.607-3.727 8.334-8.334 8.334z" fill="#fff"/><path d="m306.002 245.324c-4.606 0-8.334-3.727-8.334-8.334v-8.334c0-4.606 3.727-8.334 8.334-8.334 4.606 0 8.334 3.727 8.334 8.334v8.334c-.001 4.607-3.728 8.334-8.334 8.334z" fill="#fff"/><path d="m214.332 211.266h-16.667c-4.606 0-8.334-3.727-8.334-8.334s3.727-8.334 8.334-8.334h16.667c4.606 0 8.334 3.727 8.334 8.334s-3.728 8.334-8.334 8.334z" fill="#c6805d"/><path d="m314.335 211.266h-16.667c-4.606 0-8.334-3.727-8.334-8.334s3.727-8.334 8.334-8.334h16.667c4.606 0 8.334 3.727 8.334 8.334s-3.727 8.334-8.334 8.334z" fill="#c6805d"/><path d="m372.671 436.997v-266.55c0-32.641-16.242-63.798-44.299-80.478-25.996-15.455-52.437-13.928-72.373-2.369-19.935-11.561-46.386-13.086-72.382 2.377-28.052 16.686-44.288 47.846-44.288 80.486v266.535c0 18.667-12.341 34.507-29.291 39.791-7.183 2.239-12.377 8.448-12.377 15.971v19.24c41.423 0 75.002-33.58 75.002-75.003v-261.055c0-18.308 6.431-36.383 19.263-49.441 21.208-21.584 45.731-16.6 57.328-1.288 3.447 4.551 10.043 4.551 13.49 0 11.597-15.312 36.12-20.296 57.328 1.288 12.831 13.059 19.263 31.134 19.263 49.441v261.055c0 41.422 33.58 75.003 75.003 75.003v-19.24c0-7.523-5.194-13.732-12.377-15.971-16.95-5.284-29.29-21.125-29.29-39.792z" fill="#e29a6c"/><path d="m256 303.66c-12.509 0-24.041-4.012-30.852-10.734-3.28-3.239-3.312-8.513-.081-11.784 3.247-3.28 8.521-3.32 11.784-.081 2.775 2.734 9.449 5.933 19.149 5.933 9.701 0 16.374-3.198 19.149-5.933 3.263-3.239 8.537-3.198 11.784.081 3.231 3.272 3.198 8.545-.081 11.784-6.811 6.722-18.343 10.734-30.852 10.734z" fill="#f4aa73"/><path d="m250.107 434.557-15.118 15.118c-2.41 2.41-3.109 6.043-1.767 9.176l17.699 41.299c1.914 4.465 8.244 4.465 10.158 0l17.699-41.299c1.342-3.132.643-6.766-1.767-9.176l-15.118-15.118c-3.255-3.255-8.531-3.255-11.786 0z" fill="#dfbdf0"/></g></svg>