<svg id="Capa_1" enable-background="new 0 0 512 512" height="512" viewBox="0 0 512 512" width="512" xmlns="http://www.w3.org/2000/svg"><g><path d="m188.931 388.129v99.097l9.261 23.364c2.583.913 5.363 1.41 8.26 1.41h99.097c13.682 0 24.774-11.092 24.774-24.774v-66.065z" fill="#c9c5c9"/><path d="m222.968 421.161h107.355v-33.032h-148.646v99.097c0 10.771 6.916 19.948 16.516 23.36v-64.651c.001-13.682 11.092-24.774 24.775-24.774z" fill="#b8b2b8"/><path d="m396.387 388.129 49.548 16.516v99.097c0 4.561-3.697 8.258-8.258 8.258h-16.516c-3.625 0-6.827-2.364-7.893-5.829l-31.238-101.526z" fill="#c9c5c9"/><path d="m421.161 396.387h-41.29l-8.258 8.258 31.238 101.525c1.066 3.465 4.268 5.83 7.893 5.83h10.417l-24.662-80.152c-1.634-5.31 2.337-10.687 7.893-10.687h16.77v-24.774z" fill="#b8b2b8"/><path d="m115.613 388.129-41.29 16.516v99.097c0 4.561 3.697 8.258 8.258 8.258h18.675c3.625 0 6.827-2.364 7.893-5.829l31.239-101.525z" fill="#c9c5c9"/><path d="m313.806 346.839h-115.612l-115.613 33.032v24.774h132.129c13.682 0 24.774 11.092 24.774 24.774v8.258c0 9.121 7.395 16.516 16.516 16.516s16.516-7.395 16.516-16.516v-8.258c0-13.682 11.092-24.774 24.774-24.774h132.129v-24.774z" fill="#dbd8db"/><path d="m204.625 310.487v44.609l10.084 16.516h82.581c9.121 0 16.516-7.395 16.516-16.516 0 0 0-1.764 0-4.593 0-.574-1.957-4.218-1.957-4.873 0 0 1.957-15.044 1.957-23.566 0-3.608 0-14.431 0-14.431z" fill="#c9c5c9"/><path d="m225.075 318.051c9.887 2.591 20.235 4.014 30.925 4.014 20.882 0 40.528-5.267 57.806-14.431v-35.117h-115.612v82.581c0 9.121 7.395 16.516 16.516 16.516v-16.516h82.581c6.044 0 11.638-1.749 16.516-4.593v-28.439c0 9.105-7.411 16.516-16.516 16.516h-82.581v-12.593c0-5.426 5.118-9.313 10.365-7.938z" fill="#b8b2b8"/><path d="m378.321 107.355-89.288-64.227-66.065-10.096c-24.171 0-73.495 40.67-73.495 90.839l17.039 74.323c0 59.29 30.199 105.904 89.489 105.904 5.616 0 16.515.182 16.515.182 20.181-3.116 38.507-11.852 53.328-24.558l11.686-11.685c16.099-18.773 25.826-43.171 25.826-69.843 9.121 0 16.516-7.395 16.516-16.516v-57.806c-.001-5.645-.568-11.159-1.551-16.517z" fill="#dbd8db"/><path d="m264.257 189.934h-16.517c-4.561 0-8.258 3.698-8.258 8.258v95.067c-34.329-17.877-57.805-53.674-57.805-95.066v-122.107l-48.074 31.269c-.985 5.353-1.475 10.876-1.475 16.516v57.806c0 9.121 7.395 16.516 16.516 16.516 0 26.695 9.702 51.106 25.784 69.879l11.715 11.716c14.812 12.691 33.136 21.404 53.338 24.49 5.398.836 10.886 1.269 16.518 1.269 5.631 0 11.117-.433 16.515-1.269v-106.085c.001-4.561-3.697-8.259-8.257-8.259z" fill="#c9c5c9"/><path d="m231.226 33.032h49.548v16.516h-49.548z" fill="#c9c5c9"/><path d="m173.419 107.355 15.96-28.13-15.96-31.347c-20.424 13.331-35.229 34.604-39.815 59.477z" fill="#b8b2b8"/><path d="m198.194 148.645v85.411c0 5-1.531 9.851-4.267 13.904l1.593 12.197 7.727 2.452c7.397-7.72 11.462-17.824 11.462-28.553v-85.411z" fill="#91ccff"/><path d="m313.806 148.645v85.411c0 6.621 2.581 12.847 7.258 17.524l16.464 16.456c-3.59 4.186-7.5 8.095-11.686 11.685l-16.455-16.463c-7.798-7.798-12.097-18.169-12.097-29.202v-85.411z" fill="#91ccff"/><path d="m231.226 0h-8.258c-2.776 0-5.529.093-8.258.275l-16.517 2.232c-6.756 1.385-13.312 3.321-19.623 5.752-3.141 1.211-5.15 4.321-5.15 7.688v91.408h24.774l9.795-9.522 6.721 9.522h16.516c4.561 0 8.258-3.698 8.258-8.258v-90.839c0-4.561-3.697-8.258-8.258-8.258z" fill="#9e959e"/><path d="m222.968 156.903h-33.032c-4.565 0-8.258-3.694-8.258-8.258s3.694-8.258 8.258-8.258h33.032c4.565 0 8.258 3.694 8.258 8.258s-3.694 8.258-8.258 8.258z" fill="#fff"/><path d="m322.065 156.903h-33.032c-4.565 0-8.258-3.694-8.258-8.258s3.694-8.258 8.258-8.258h33.032c4.565 0 8.258 3.694 8.258 8.258s-3.694 8.258-8.258 8.258z" fill="#fff"/><path d="m198.194 107.355h16.516v-107.081c-5.616.376-11.132 1.132-16.516 2.237z" fill="#b8b2b8"/><path d="m338.581 107.355-20.51-32.614 20.51-26.863c20.424 13.331 35.153 34.604 39.739 59.477z" fill="#b8b2b8"/><path d="m333.431 8.259c-6.311-2.431-12.867-4.367-19.623-5.752l-16.516-2.232c-2.73-.182-5.484-.275-8.26-.275h-8.258c-4.561 0-8.258 3.697-8.258 8.258v90.839c0 4.56 3.697 8.258 8.258 8.258h16.516l8.674-8.625 7.842 8.625h24.774v-91.408c.001-3.367-2.008-6.477-5.149-7.688z" fill="#9e959e"/><g fill="#b8b2b8"><path d="m313.806 107.355h-16.516v-107.06c5.616.376 11.132 1.111 16.516 2.216z"/><circle cx="429.419" cy="404.645" r="24.774"/><path d="m82.581 379.871c-13.682 0-24.774 11.092-24.774 24.774 0 7.308 3.224 13.81 8.258 18.345v80.752c0 4.56 3.697 8.258 8.258 8.258h8.258v-82.581c13.682 0 24.774-11.092 24.774-24.774s-11.092-24.774-24.774-24.774z"/></g><path d="m202.613 263.258c.228-.228.412-.416.635-.649-3.467-4.604-6.621-9.511-9.321-14.649-.887 1.314-1.846 2.475-2.991 3.62l-16.506 16.492c3.59 4.186 7.529 8.127 11.715 11.716z" fill="#77b3ec"/></g></svg>