<svg id="Capa_1" enable-background="new 0 0 512 512" height="512" viewBox="0 0 512 512" width="512" xmlns="http://www.w3.org/2000/svg"><g><path d="m404.645 379.871h-285.138l80.636-58.644c6.41-4.662 10.203-12.11 10.203-20.036v-17.355h103.461v17.355c0 7.926 3.793 15.374 10.203 20.036z" fill="#e29a6c"/><path d="m197.702 334.581c10.686-7.772 17.008-20.188 17.008-33.402 0-5.138 4.781-8.982 9.768-7.747 10.101 2.5 20.647 3.859 31.522 3.859 20.761 0 40.326-4.922 57.806-13.455v-44.352h-115.612v61.707c0 7.926-3.793 15.374-10.203 20.036l-80.636 58.645h28.079z" fill="#d48c64"/><path d="m374.565 140.387h-2.952v-41.29c0-54.73-44.367-99.097-99.097-99.097h-33.032c-21.573 0-41.535 6.893-57.805 18.597l-19.617 80.5 1.314 82.581c8.034 56.006 34.396 96.866 92.624 96.866 7.138 0 14.123 1.583 20.901.344 48.505-8.872 86.35-48.07 93.399-97.21h5.443c12.105 0 21.776-10.417 20.538-22.775-1.077-10.746-10.918-18.516-21.716-18.516z" fill="#f4aa73"/><path d="m181.677 165.161v-146.566c-24.972 17.992-41.29 47.372-41.29 80.502v41.29h-2.952c-10.799 0-20.64 7.77-21.716 18.515-1.237 12.358 8.433 22.775 20.538 22.775h5.443c8.034 56.006 56.071 99.097 114.299 99.097 7.139 0 14.123-.647 20.9-1.887-54.106-9.647-95.222-56.845-95.222-113.726z" fill="#e29a6c"/><path d="m429.419 347.657-43.953-27.849-129.466 51.805-122.219-46.66-66.811 41.253v13.665 107.355l7.353 23.333c2.586.915 5.359 1.441 8.258 1.441h41.29l16.516-12.619h234.634l13.108 12.619h41.29c13.682 0 24.774-11.092 24.774-24.774v-107.355z" fill="#98db7c"/><path d="m139.807 330.922-13.273-11.114h-.001l-43.953 27.849-24.774 32.214v107.355c0 10.771 6.916 19.921 16.516 23.333v-135.161l2.68-4.708z" fill="#77cc7d"/><path d="m206.452 165.161c-4.565 0-8.258-3.694-8.258-8.258v-8.258c0-4.565 3.694-8.258 8.258-8.258s8.258 3.694 8.258 8.258v8.258c0 4.565-3.694 8.258-8.258 8.258z" fill="#845252"/><path d="m305.548 165.161c-4.565 0-8.258-3.694-8.258-8.258v-8.258c0-4.565 3.694-8.258 8.258-8.258 4.565 0 8.258 3.694 8.258 8.258v8.258c0 4.565-3.693 8.258-8.258 8.258z" fill="#fff"/><path d="m222.968 132.129h-24.774c-4.565 0-8.258-3.694-8.258-8.258 0-4.565 3.694-8.258 8.258-8.258h24.774c4.565 0 8.258 3.694 8.258 8.258s-3.694 8.258-8.258 8.258z" fill="#dbd8db"/><path d="m313.806 132.129h-24.774c-4.565 0-8.258-3.694-8.258-8.258 0-4.565 3.694-8.258 8.258-8.258h24.774c4.565 0 8.258 3.694 8.258 8.258.001 4.564-3.693 8.258-8.258 8.258z" fill="#dbd8db"/><path d="m272.516 214.71h-33.032c-4.565 0-8.258-3.694-8.258-8.258s3.694-8.258 8.258-8.258h33.032c4.565 0 8.258 3.694 8.258 8.258s-3.693 8.258-8.258 8.258z" fill="#d48c64"/><path d="m197.733 204.874c-9.394-3.532-16.074-12.607-16.056-23.239.013-7.533-5.816-13.839-12.981-15.79l-12.832 8.782-21.187 61.879 63.515 23.215v-18.288c0-8.897 1.518-17.704 4.465-26.049 1.52-4.301-.654-8.905-4.924-10.51z" fill="#dbd8db"/><path d="m159.027 83.762-4.477-11.192-13.146-1.412-32.285 36.096 45.94 28.322c6.127-4.51 10.102-11.773 10.102-19.964 0-10.91-2.081-21.72-6.134-31.85z" fill="#dbd8db"/><g fill="#a46a5a"><path d="m334.523 413.139-46.501 14.532c-20.85 6.516-43.192 6.516-64.042 0l-46.502-14.532c-1.366-.427-2.734-.78-4.099-1.061-25.195-5.186-41.727 36.297-41.727 36.297l8.735 63.625h247.742v-59.45c0-27.856-27.018-47.72-53.606-39.411z"/><path d="m78.606 330.623-2.775 1.759c-21.507 13.629-34.54 37.318-34.54 62.78 0 5.238 4.246 9.484 9.484 9.484h14.065c5.238 0 9.484-4.246 9.484-9.484 0-14.146 7.241-27.307 19.19-34.879l2.772-1.757c3.852-2.441 4.996-7.543 2.556-11.395l-8.839-13.951c-2.442-3.854-7.544-4.999-11.397-2.557z"/><path d="m433.394 330.623 2.775 1.759c21.507 13.629 34.54 37.318 34.54 62.78 0 5.238-4.246 9.484-9.484 9.484h-14.065c-5.238 0-9.484-4.246-9.484-9.484 0-14.146-7.241-27.307-19.19-34.879l-2.772-1.757c-3.852-2.441-4.996-7.543-2.556-11.395l8.839-13.951c2.442-3.854 7.544-4.999 11.397-2.557z"/><path d="m364.802 305.669c-3.527-2.413-8.405-1.811-11.03 1.561-22.662 29.117-58.017 47.866-97.772 47.866-36.147 0-68.657-15.5-91.294-40.201l-18.706.417-9.404 17.638c28.772 33.754 71.574 55.178 119.404 55.178 53.776 0 101.196-27.082 129.467-68.321z"/></g><path d="m330.712 181.634c-.016-9.077 8.423-16.473 17.499-16.473h1.697c8.263 0 15.598 5.287 18.211 13.126l18.231 54.695c1.257 3.77-.35 7.9-3.824 9.83l-68.332 37.962v-39.341c0-8.897-1.518-17.704-4.465-26.049-1.519-4.301.655-8.905 4.925-10.51 9.396-3.532 16.076-12.607 16.058-23.24z" fill="#dbd8db"/><path d="m372.6 66.662 34.169 34.169c3.48 3.48 3.163 9.213-.681 12.288l-34.086 27.269c-13.682 0-24.774-11.092-24.774-24.774 0-10.91 2.082-21.721 6.134-31.851l5.731-14.328c2.202-5.505 9.315-6.965 13.507-2.773z" fill="#dbd8db"/><path d="m164.876 241.211c-10.421-5.79-15.241-18.181-11.471-29.491l15.292-45.875c-1.469-.4-2.973-.683-4.518-.683h-1.697c-8.263 0-15.598 5.287-18.211 13.126l-18.231 54.695c-1.257 3.77.35 7.9 3.824 9.83l68.332 37.962v-21.053z" fill="#c9c5c9"/><path d="m126.97 113.119c-3.843-3.075-4.161-8.808-.681-12.288l28.261-28.261-1.254-3.135c-2.202-5.505-9.315-6.965-13.507-2.772l-34.169 34.169c-3.48 3.48-3.163 9.213.681 12.288l34.086 27.269c5.482 0 10.569-1.796 14.672-4.81z" fill="#c9c5c9"/><path d="m158.228 307.231c-2.625-3.372-7.503-3.975-11.03-1.561l-20.665 14.139c3.095 4.515 6.525 8.983 10.062 13.142l28.11-18.054c-2.278-2.484-4.405-5.003-6.477-7.666z" fill="#845252"/><path d="m173.378 412.079c-25.191-5.179-49.507 14.05-49.507 40.471v59.45h16.516v-59.45c0-20.504 14.662-36.676 32.991-40.471z" fill="#845252"/></g></svg>