<svg id="Capa_1" enable-background="new 0 0 512 512" height="512" viewBox="0 0 512 512" width="512" xmlns="http://www.w3.org/2000/svg"><g><path d="m418.435 195.048h-16.254v-89.397c0-49.294-40.103-89.397-89.397-89.397l-56.889-8.127-56.889 8.127c-49.294 0-89.397 40.103-89.397 89.397v89.397h-16.254v-89.397c0-58.258 47.397-105.651 105.651-105.651l56.889 8.127 56.889-8.127c58.254 0 105.651 47.393 105.651 105.651z" fill="#887f88"/><path d="m312.889 355.598v-20.315h-103.533l-22.548 72.52 68.84 49.865 74.254-78.829c-10.111-3.203-17.013-12.596-17.013-23.241z" fill="#ffd18d"/><path d="m199.006 284.444.105 71.154c0 10.607-6.852 19.97-16.903 23.206l-1.798 10.024 14.045 2.291c12.642-7.069 20.909-20.655 20.909-35.544-.009-7.077 6.732-12.204 13.544-10.285 8.676 2.445 17.698 4.169 26.987 4.169 20.6 0 39.979-5.156 56.994-14.177v-50.839h-113.883z" fill="#fbbd80"/><path d="m416.045 404.181-51.135-15.039-108.764 74.096c-36.846-25.581-62.063-46.961-86.327-72.865l-62.883 16.769c-20.752 6.104-36.327 22.189-36.327 43.82v36.658l6.595 22.972c2.544.9 5.276 1.409 8.129 1.409h341.333c13.465 0 24.381-10.916 24.381-24.381v-36.657c.001-21.633-14.25-40.678-35.002-46.782z" fill="#77b3ec"/><path d="m147.332 389.07-51.376 15.111c-20.752 6.104-35.003 25.149-35.003 46.78v36.658c0 10.6 6.805 19.614 16.252 22.972v-59.631c0-14.321 9.595-27.143 23.341-31.183l76.921-22.626z" fill="#5e9ad8"/><path d="m330.39 378.989c-.155-.046-.335-.101-.489-.149-21.471 22.281-44.423 42.685-68.847 60.86-2.897 2.156-6.916 2.156-9.813.001-19.885-14.783-38.843-31.03-56.787-48.581l-22.981-1.629-11.672 12.866c26.806 27.726 55.941 52.621 87.077 74.235 2.786 1.933 6.032 2.901 9.27 2.901s6.484-.968 9.27-2.905c35.998-24.997 69.35-54.375 99.492-87.446z" fill="#91ccff"/><path d="m255.895 331.572c-58.349 0-92.696-45.667-92.696-104.016v-138.159h198.346v138.159c0 52.76-38.674 96.488-89.219 104.381-5.354.835-10.842-.365-16.431-.365z" fill="#ffe09c"/><path d="m150.244 89.397-5.799 115.858 5.799 22.301c0 58.349 47.302 105.651 105.651 105.651 5.542 0 11.12-.448 16.432-1.27-50.612-7.836-89.574-51.574-89.574-104.381v-52.423c0-8.121 1.739-16.148 5.099-23.541l5.312-11.687c3.419-7.521 11.867-11.275 19.733-8.748 26.48 8.508 68.863 18.968 117.195 18.968 10.653 0 21.155-.582 31.454-1.613v-59.115z" fill="#ffd18d"/><path d="m361.546 195.048h8.127v-73.143h-24.381v56.889c0 8.976 7.277 16.254 16.254 16.254z" fill="#736572"/><path d="m377.253 97.183-207.905-39.805c-3.279 4.289-7.66 7.528-12.848 9.204-4.53 1.463-8.626 3.892-12.044 7.047l15.764 34.212 30.658-2.19s89.397 40.635 186.921 24.381v-24.381c.001-2.87-.185-5.696-.546-8.468z" fill="#615260"/><g fill="#4e3d4d"><path d="m133.99 97.524v97.524h16.254l40.635-89.397s-22.105-7.462-46.422-32.022c-6.446 5.94-10.467 14.438-10.467 23.895z"/><path d="m207.236 219.429c-4.492 0-8.127-3.639-8.127-8.127v-8.127c0-4.488 3.635-8.127 8.127-8.127s8.127 3.639 8.127 8.127v8.127c0 4.488-3.635 8.127-8.127 8.127z"/><path d="m304.76 219.429c-4.492 0-8.127-3.639-8.127-8.127v-8.127c0-4.488 3.635-8.127 8.127-8.127s8.127 3.639 8.127 8.127v8.127c0 4.488-3.635 8.127-8.127 8.127z"/></g><path d="m255.998 276.317c-12.19 0-23.444-3.913-30.087-10.468-3.198-3.151-3.23-8.298-.079-11.492 3.151-3.198 8.31-3.23 11.492-.079 2.706 2.671 9.222 5.786 18.675 5.786 9.452 0 15.968-3.115 18.675-5.786 3.183-3.151 8.341-3.119 11.492.079 3.151 3.194 3.119 8.341-.079 11.492-6.645 6.556-17.898 10.468-30.089 10.468z" fill="#f4aa73"/><path d="m223.395 190.877c-.429 0-.873-.032-1.317-.107l-24.278-3.956c-4.429-.722-7.437-4.897-6.714-9.325.722-4.425 4.849-7.46 9.333-6.714l24.278 3.956c4.429.722 7.437 4.897 6.714 9.325-.651 3.988-4.103 6.821-8.016 6.821z" fill="#615260"/><path d="m288.395 190.877c-3.921 0-7.373-2.837-8.016-6.829-.714-4.433 2.294-8.603 6.73-9.321l24.484-3.956c4.421-.722 8.603 2.298 9.317 6.726.714 4.433-2.294 8.603-6.73 9.321l-24.484 3.956c-.436.071-.873.103-1.301.103z" fill="#615260"/><path d="m190.879 325.079h-24.381c-35.849 0-65.016-29.167-65.016-65.016v-16.253h16.254v16.254c0 26.889 21.873 48.762 48.762 48.762h24.381z" fill="#887f88"/><path d="m207.133 300.698h-8.127c-8.977 0-16.254 7.277-16.254 16.254 0 8.977 7.277 16.254 16.254 16.254h8.127c8.977 0 16.254-7.277 16.254-16.254 0-8.976-7.277-16.254-16.254-16.254z" fill="#615260"/><path d="m410.308 186.921-8.127 8.127v40.635l8.127 8.127 16.254-8.127v-32.508c-.001-8.978-7.278-16.254-16.254-16.254z" fill="#91ccff"/><path d="m410.308 186.921h-24.381v65.016h24.381c8.977 0 16.254-7.277 16.254-16.254-8.977 0-16.254-7.277-16.254-16.254z" fill="#77b3ec"/><path d="m377.8 178.794h8.127c4.488 0 8.127 3.639 8.127 8.127v56.889c0 4.488-3.639 8.127-8.127 8.127h-16.254v-65.016c0-4.489 3.638-8.127 8.127-8.127z" fill="#615260"/><path d="m394.054 243.81c-8.977 0-16.254-7.277-16.254-16.254v-48.762h-8.127c-4.488 0-8.127 3.639-8.127 8.127v65.016c0 4.488 3.639 8.127 8.127 8.127h16.254c4.488 0 8.127-3.639 8.127-8.127z" fill="#4e3d4d"/><path d="m199.006 0h113.778v16.254h-113.778z" fill="#615260"/><path d="m116.534 245.522-15.052-58.601c-8.977 0-16.254 7.277-16.254 16.254v32.508z" fill="#91ccff"/><path d="m101.482 186.921v32.508c0 8.977-7.277 16.254-16.254 16.254 0 8.977 7.277 16.254 16.254 16.254h32.508v-65.016z" fill="#77b3ec"/><path d="m133.99 178.794h8.127c4.488 0 8.127 3.639 8.127 8.127v56.889c0 4.488-3.639 8.127-8.127 8.127h-16.254v-65.016c0-4.489 3.639-8.127 8.127-8.127z" fill="#615260"/><path d="m150.244 243.81c-8.977 0-16.254-7.277-16.254-16.254v-48.762h-8.127c-4.488 0-8.127 3.639-8.127 8.127v65.016c0 4.488 3.639 8.127 8.127 8.127h16.254c4.488 0 8.127-3.639 8.127-8.127z" fill="#4e3d4d"/><path d="m377.253 97.183c-4.155-31.901-31.436-56.548-64.47-56.548h-114.926c-11.423 0-21.406 5.919-27.172 14.843-.434.672-.855 1.273-1.337 1.901 13.666 10.565 79.475 54.746 207.905 39.804z" fill="#736572"/><path d="m194.454 391.12c-4.116-4.027-8.238-8.153-12.247-12.315-.201.064-.395.125-.598.184l-34.278 10.082c4.128 4.531 8.223 8.896 12.47 13.286l26.395-7.774c2.933-.862 5.662-2.006 8.258-3.463z" fill="#77b3ec"/></g></svg>