<svg id="Capa_1" enable-background="new 0 0 512 512" height="512" viewBox="0 0 512 512" width="512" xmlns="http://www.w3.org/2000/svg"><g><path d="m231.226 8.258c-63.851 0-115.613 51.762-115.613 115.613v181.677c0 49.548-16.491 63.242-16.491 107.942h148.62v-405.232z" fill="#4e3d4d"/><path d="m396.387 297.29v-156.903c0-77.534-62.853-140.387-140.387-140.387-22.804 0-41.29 18.486-41.29 41.29v338.581l214.71 41.29c-.001-66.064-33.033-66.064-33.033-123.871z" fill="#615260"/><path d="m272.516 57.806c-13.682 0-24.774 11.092-24.774 24.774v107.355h115.613v-41.29c0-50.169-40.67-90.839-90.839-90.839z" fill="#4e3d4d"/><path d="m409.313 399.977-81.726-28.844c-7.029-2.481-12.758-7.217-16.637-13.18l-89.284-17.969c0 14.005-13.452 31.158-34.88 39.169l-85.291 30.103 30.634 102.744h107.355l17.83-13.961 15.202 13.961h107.355z" fill="#736572"/><path d="m104.621 416.81 85.282-30.101c19.782-6.98 33.065-25.758 33.065-46.726v-13.992c10.576 2.728 21.604 4.331 33.032 4.331 17.536 0 34.237-3.491 49.548-9.695v-23.337h-99.097v42.694c0 14.005-8.832 26.488-22.038 31.149l-85.291 30.103c-19.81 6.991-33.057 25.716-33.057 46.723v39.267c0 10.771 6.916 19.844 16.516 23.257v-62.523c0-13.98 8.854-26.5 22.04-31.15z" fill="#615260"/><path d="m165.161 462.452h74.323v-16.517h-33.032z" fill="#887f88"/><path d="m132.129 512-16.516-66.065h90.839z" fill="#6fd6a2"/><path d="m346.839 462.452h-74.323v-16.517h33.032z" fill="#887f88"/><path d="m379.871 512 16.516-66.065h-90.839z" fill="#9ae59c"/><path d="m122.454 419.744-6.821-6.821-16.38-5.35s-24.55 10.089-24.55 40.385v39.267l7.878 23.347c2.584.914 5.36 1.427 8.258 1.427h41.29v-68.898c0-8.76-3.48-17.162-9.675-23.357z" fill="#887f88"/><path d="m389.546 419.744 19.767-19.767 3.565 1.259c19.81 6.991 33.057 25.716 33.057 46.723v39.267c0 13.682-11.092 24.774-24.774 24.774h-41.29v-68.898c0-8.761 3.48-17.163 9.675-23.358z" fill="#887f88"/><path d="m305.548 339.984v-21.081h-88.142l-4.487 50.925 14.47 14.465c7.743 7.743 12.094 18.246 12.094 29.197v98.51h33.032v-98.51c0-10.951 4.35-21.453 12.094-29.197l26.34-26.34c-3.407-5.24-5.401-11.419-5.401-17.969z" fill="#e29a6c"/><path d="m206.452 339.984c0 6.55-1.993 12.729-5.402 17.969l11.87 11.875c6.353-8.415 10.048-18.824 10.048-29.844 0-7.067 6.316-12.324 13.296-11.227 6.433 1.011 13.015 1.566 19.736 1.566 17.536 0 34.237-3.491 49.548-9.695v-23.338h-99.097v42.694z" fill="#d48c64"/><path d="m264.258 98.065h-49.548c-22.804 0-30.709 11.26-30.709 34.064l-18.833 74.323c0 61.011 34.372 110.135 96.022 107.232 57.742-2.719 102.165-52.459 102.165-110.265v-13.484s-15.688-91.87-99.097-91.87z" fill="#f4aa73"/><path d="m189.935 203.419v-54.774c0-22.804 18.486-41.29 41.29-41.29h33.032c41.044 0 75.094 29.943 81.498 69.175 1.283 7.86 8.46 13.405 16.424 13.405h1.175c0-54.73-44.367-99.097-99.097-99.097h-49.547c-22.804 0-41.29 18.486-41.29 41.29v8.258c0 13.682-11.092 24.774-24.774 24.774h-11.21c-10.799 0-20.64 7.77-21.716 18.515-1.237 12.358 8.433 22.775 20.538 22.775h12.387c0 61.011 50.895 110.135 112.545 107.232 5.287-.249 10.415-1.019 15.455-2.026-50.002-9.994-86.71-55.724-86.71-108.237z" fill="#e29a6c"/><path d="m250.161 197.12-51.967 51.967v49.077c16.697 10.704 36.501 16.988 57.806 16.988s41.109-6.284 57.806-16.988v-49.077l-51.967-51.967c-3.225-3.225-8.453-3.225-11.678 0z" fill="#9ae59c"/><path d="m256 222.968c-4.565 0-8.258 3.698-8.258 8.258v33.032h16.516v-33.032c0-4.561-3.693-8.258-8.258-8.258z" fill="#6fd6a2"/><path d="m214.71 256h82.581v16.516h-82.581z" fill="#3ec2a3"/><path d="m198.193 231.231h-16.516c-13.682 0-24.774 11.092-24.774 24.774v8.258l10.058 25.718-10.058 23.831v8.258c0 13.682 11.092 24.774 24.774 24.774h16.516c13.682 0 24.774-11.092 24.774-24.774v-66.065c.001-13.682-11.091-24.774-24.774-24.774z" fill="#6fd6a2"/><path d="m173.419 247.747c-9.122 0-16.516 7.395-16.516 16.516v49.548c0 9.122 7.395 16.516 16.516 16.516 9.122 0 16.516-7.395 16.516-16.516v-49.548c0-9.121-7.394-16.516-16.516-16.516z" fill="#3ec2a3"/><path d="m313.806 231.226h16.516c13.682 0 24.774 11.092 24.774 24.774v8.258l-8.775 23.929 8.775 25.619v8.258c0 13.682-11.092 24.774-24.774 24.774h-16.516c-13.682 0-24.774-11.092-24.774-24.774v-66.064c0-13.682 11.092-24.774 24.774-24.774z" fill="#6fd6a2"/><path d="m206.452 206.452c-4.565 0-8.258-3.698-8.258-8.258v-8.258c0-4.56 3.694-8.258 8.258-8.258s8.258 3.698 8.258 8.258v8.258c0 4.56-3.694 8.258-8.258 8.258z" fill="#4e3d4d"/><path d="m305.548 206.452c-4.565 0-8.258-3.698-8.258-8.258v-8.258c0-4.56 3.694-8.258 8.258-8.258 4.565 0 8.258 3.698 8.258 8.258v8.258c0 4.56-3.693 8.258-8.258 8.258z" fill="#4e3d4d"/><path d="m214.71 172.702h-16.516c-4.565 0-8.258-3.698-8.258-8.258s3.694-8.258 8.258-8.258h16.516c4.565 0 8.258 3.698 8.258 8.258s-3.694 8.258-8.258 8.258z" fill="#615260"/><path d="m313.806 172.702h-16.516c-4.565 0-8.258-3.698-8.258-8.258s3.694-8.258 8.258-8.258h16.516c4.565 0 8.258 3.698 8.258 8.258.001 4.56-3.693 8.258-8.258 8.258z" fill="#615260"/><path d="m338.581 247.742c9.122 0 16.516 7.395 16.516 16.516v49.548c0 9.122-7.395 16.516-16.516 16.516-9.122 0-16.516-7.395-16.516-16.516v-49.548c0-9.122 7.394-16.516 16.516-16.516z" fill="#9ae59c"/><path d="m99.122 401.236c-19.81 6.991-33.057 25.716-33.057 46.723v39.267c0 10.771 6.916 19.934 16.516 23.347v-62.613c0-13.98 8.855-26.5 22.04-31.149l11.012-3.887-12.946-12.946z" fill="#736572"/></g></svg>