<svg id="Capa_1" enable-background="new 0 0 512 512" height="512" viewBox="0 0 512 512" width="512" xmlns="http://www.w3.org/2000/svg"><g><path d="m396.359 256v-115.613c0-77.534-62.853-140.387-140.387-140.387l-42.372 140.387-12.555 289.033h211.831s0-33.032 0-57.806c0-57.808-16.517-66.066-16.517-115.614z" fill="#ffc263"/><path d="m256 .002c-.01 0-.018-.002-.028-.002h-.001c-77.533 0-140.387 62.853-140.387 140.387v115.613c0 49.548-16.516 57.806-16.516 115.613v57.806h156.932z" fill="#ffaa5a"/><path d="m370.767 388.093-43.18-15.24c-13.207-4.661-22.038-17.144-22.038-31.149v-13.5l-88.361-2.353v23.854c0 14.005-8.832 26.488-22.039 31.149l-85.291 30.103 146.142 101.043 88.533-50.283z" fill="#ffd18d"/><path d="m206.452 298.05v43.654c0 14.005-8.832 26.488-22.039 31.149l-43.179 15.24-2.965 10.623 15.19 2.576 36.454-12.868c19.808-6.992 33.055-25.716 33.055-46.722 0-4.329 4.029-7.541 8.236-6.521 8.01 1.942 16.289 3.4 24.796 3.4 17.629 0 34.367-3.738 49.548-10.376v-30.155z" fill="#fbbd80"/><path d="m360.194 376.508c-1.798-4.21-6.677-6.169-10.839-4.339l-93.355 40.008-114.258-48.817-6.5 15.177 117.508 50.213c1.032.444 2.145.669 3.25.669s2.218-.226 3.25-.669l96.605-41.403c4.193-1.799 6.137-6.653 4.339-10.839z" fill="#ffaa5a"/><path d="m443.496 173.419h-80.113c-9.121 0-16.516-7.395-16.516-16.516v-24.774c0-22.804-18.486-41.29-41.29-41.29h-16.544c-10.76 0-20.318-5.144-26.348-13.107-1.708-2.255-4.196-3.383-6.684-3.383l-17.85 24.388h-31.726c-22.804 0-34.525 18.486-34.525 41.29l-1.682 74.683c0 59.29 26.464 105.901 85.755 105.901h.056c5.676 0 11.25 1.013 16.688.164 51.365-8.017 90.666-52.452 90.666-106.066 46.618 0 72.672-20.577 83.965-32.679 3.053-3.271.623-8.611-3.852-8.611z" fill="#ffe09c"/><path d="m181.678 214.71v-82.581c0-13.682 11.092-24.774 24.774-24.774h16.542c18.229 0 33.006-14.777 33.006-33.006-2.488 0-4.976 1.128-6.684 3.383-6.031 7.963-15.589 13.107-26.348 13.107h-16.544c-22.804 0-41.29 18.486-41.29 41.29v24.774c0 9.122-7.395 16.516-16.516 16.516h-80.113c-4.476 0-6.906 5.339-3.852 8.611 11.292 12.103 37.347 32.68 83.965 32.68 0 59.29 48.064 107.355 107.354 107.355h.001.055.001c5.626 0 11.295-.455 16.688-1.289-51.436-7.957-91.039-52.403-91.039-106.066z" fill="#ffd18d"/><path d="m256.04 272.516c-12.395 0-23.823-3.976-30.573-10.637-3.25-3.21-3.282-8.435-.081-11.677 3.218-3.25 8.444-3.282 11.677-.081 2.75 2.71 9.363 5.879 18.976 5.879s16.226-3.169 18.976-5.879c3.234-3.202 8.46-3.169 11.677.081 3.202 3.242 3.169 8.468-.081 11.677-6.748 6.661-18.175 10.637-30.571 10.637z" fill="#fbbd80"/><path d="m206.492 214.71c-4.565 0-8.258-3.694-8.258-8.258v-8.258c0-4.565 3.694-8.258 8.258-8.258s8.258 3.694 8.258 8.258v8.258c0 4.564-3.693 8.258-8.258 8.258z" fill="#af6e4d"/><path d="m305.589 214.71c-4.565 0-8.258-3.694-8.258-8.258v-8.258c0-4.565 3.694-8.258 8.258-8.258 4.565 0 8.258 3.694 8.258 8.258v8.258c0 4.564-3.694 8.258-8.258 8.258z" fill="#af6e4d"/><path d="m214.75 181.677h-16.516c-4.565 0-8.258-3.694-8.258-8.258s3.694-8.258 8.258-8.258h16.516c4.565 0 8.258 3.694 8.258 8.258s-3.693 8.258-8.258 8.258z" fill="#ffaa5a"/><path d="m313.847 181.677h-16.516c-4.565 0-8.258-3.694-8.258-8.258s3.694-8.258 8.258-8.258h16.516c4.565 0 8.258 3.694 8.258 8.258s-3.694 8.258-8.258 8.258z" fill="#ffaa5a"/><circle cx="140.387" cy="222.968" fill="#ffefac" r="16.516"/><circle cx="371.613" cy="222.968" fill="#ffefac" r="16.516"/><g fill="#ffaa5a"><path d="m153.459 401.292-54.336 11.885c-19.81 6.992-25.087 15.494-25.087 36.502v37.546l8.546 23.364c2.583.913 5.362 1.41 8.258 1.41h165.16z"/><path d="m445.936 487.226v-37.546c0-21.008-13.248-39.732-33.058-46.724l-42.111-14.862c-51.56 55.666-114.767 123.906-114.767 123.906h165.161c13.683 0 24.775-11.092 24.775-24.774z"/><path d="m321.395 360.105c-1.798-4.21-6.685-6.161-10.839-4.339l-54.556 23.379-60.056-25.661-6.5 15.177 63.306 27.056c1.032.444 2.145.669 3.25.669s2.218-.226 3.25-.669l57.806-24.774c4.194-1.798 6.138-6.653 4.339-10.838z"/></g><path d="m256 388.129 20.821 20.821c2.388 2.388 3.081 5.989 1.751 9.092l-14.981 34.957c-2.86 6.673-12.321 6.673-15.181 0l-14.981-34.957c-1.33-3.104-.637-6.705 1.751-9.092z" fill="#ffefac"/><circle cx="256" cy="388.129" fill="#ffd05b" r="8.258"/><path d="m141.233 388.093-42.111 14.862c-19.81 6.992-33.058 25.716-33.058 46.724v37.546c0 10.771 6.916 19.954 16.516 23.367v-60.915c0-14.002 8.829-26.482 22.032-31.143l48.846-17.242z" fill="#ff8b57"/></g></svg>