<svg id="Capa_1" enable-background="new 0 0 512 512" height="512" viewBox="0 0 512 512" width="512" xmlns="http://www.w3.org/2000/svg"><g><path d="m416.872 387.617-53.56-16.15h-203.04l-65.143 23.658c-17.43 5.255-23.605 21.311-23.605 39.517v52.392l10.755 23.315c2.586.916 5.357 1.449 8.256 1.449h16.879l33.019-19.784 33.015 19.784h165.104l33.015-19.784 33.019 19.784h16.878c13.677 0 24.764-11.087 24.764-24.764v-59.902c.002-18.205-11.926-34.26-29.356-39.515z" fill="#ff9aa0"/><path d="m65.77 427.133v59.901c0 10.766 6.913 19.904 16.508 23.315v-83.219c0-11.004 7.078-20.532 17.614-23.708l53.56-16.147-4.764-15.808-53.559 16.15c-17.431 5.255-29.359 21.311-29.359 39.516z" fill="#ff8086"/><path d="m403.807 256.181-7.447-123.999c-4.46-74.25-65.976-132.182-140.36-132.182-74.384 0-135.9 57.932-140.36 132.182l-7.447 123.999c-2.321 38.642 11.738 78.954 36.839 106.744l222.32-.448c24.988-27.117 38.777-67.654 36.455-106.296z" fill="#ff9aa0"/><path d="m125.209 256.181 7.448-123.999c4.288-71.386 61.75-127.666 132.247-131.904-2.829-.17-6.036-.278-8.906-.278h-.001c-74.384 0-135.9 57.932-140.36 132.182l-7.447 123.999c-5.1 84.904 62.381 156.559 147.438 156.559h.739c2.751 0 5.356-.068 8.069-.216-81.149-4.426-144.162-74.185-139.227-156.343z" fill="#ff8086"/><path d="m189.962 280.664h132.077v140.332h-132.077z" fill="#d48c64"/><path d="m189.962 310.985c19.128 12.101 41.73 19.208 66.038 19.208s46.91-7.107 66.039-19.208v-30.321h-132.077z" fill="#c6805d"/><path d="m355.058 374.682c-26.301 23.589-60.947 38.059-99.058 38.059s-72.757-14.471-99.058-38.059v41.461c17.871 11.663 37.845 20.375 59.318 25.195 4.384.984 8.244 3.558 10.626 7.368l22.114 35.383c3.233 5.173 10.767 5.173 14 0l22.114-35.383c2.381-3.81 6.241-6.384 10.626-7.368 21.472-4.82 41.447-13.532 59.318-25.195z" fill="#eceaec"/><path d="m299.398 272.409s-1.068 55.723-1.068 63.991c0 24.892 6.784 49.738 22.564 70.045 3.797 4.885 6.989 10.536 4.341 25.716-3.37 19.283-1.121 39.186 6.506 57.558 3.686 8.863 5.501 15.353 6.292 19.061.343 1.607.493 2.692.52 3.221l33.015-.202 8.255-33.019-41.274-222.88z" fill="#7a4646"/><path d="m212.602 272.409s1.068 55.723 1.068 63.991c0 24.892-6.784 49.738-22.564 70.045-3.797 4.885-6.989 10.536-4.341 25.716 3.37 19.283 1.121 39.186-6.505 57.558-3.686 8.863-5.501 15.353-6.292 19.061-.343 1.607-.493 2.692-.52 3.221l-33.015-.202-8.255-33.019 41.274-222.88z" fill="#a46a5a"/><path d="m147.713 339.658c.473 9.563-2.885 18.717-8.76 26.279-15.98 20.569-22.894 45.19-17.242 77.572 1.227 7.03.301 14.282-2.44 20.871-4.883 11.737-11.858 31.322-11.858 47.419h33.019c0-7.707 3.487-20.693 9.331-34.744 5.216-12.56 6.763-26.119 4.474-39.218-3.72-21.322-.391-37.243 10.794-51.649 10.935-14.075 16.498-31.181 15.659-48.158-.781-15.825-1.438-86.141-1.099-102.846l-28.597-6.687c-5.359 45.458-4.378 88.955-3.281 111.161z" fill="#7a4646"/><path d="m392.729 464.38c-2.741-6.589-3.668-13.841-2.441-20.871 5.653-32.382-1.262-57.003-17.241-77.572-5.875-7.562-9.232-16.716-8.76-26.279 1.097-22.206 2.079-65.704-3.282-111.163l-28.597 35.66c.34 16.706-.317 58.049-1.099 73.874-.838 16.977 4.724 34.083 15.659 48.158 11.185 14.406 14.514 30.327 10.794 51.649-2.289 13.1-.742 26.659 4.474 39.218 5.844 14.051 9.331 27.038 9.331 34.744h33.019c.001-16.097-6.974-35.681-11.857-47.418z" fill="#a46a5a"/><path d="m345.763 156.133-89.763-68.193c-70.398 0-83.137 65.374-91.918 139.846 10.201 48.648 40.239 84.63 91.918 84.63 5.715 0 11.325.82 16.798-.041 44.016-6.922 79.134-40.613 88.207-83.881-2.897-24.565-7.648-49.703-15.242-72.361z" fill="#e29a6c"/><path d="m181.858 206.37v-23.412c0-17.896 4.177-35.684 13.016-51.244 7.337-12.917 15.466-22.013 23.845-28.33l-18.856-6.081c-29.454 29.059-42.984 81.306-48.867 131.192 10.201 48.648 53.325 85.188 105.005 85.188 5.719 0 11.322-.445 16.798-1.307-51.47-7.907-90.941-52.324-90.941-106.006z" fill="#d48c64"/><path d="m345.763 156.133c-3.358-10.016-7.273-19.549-11.828-28.335l-69.899-46.132-48.856 9.637-3.967 18.498c16.277 16.472 43.217 38.127 77.902 46.296-.011.155-.093.286-.095.443-.056 4.559 3.595 8.299 8.15 8.356l16.51.202h.105c3.672 0 6.681-2.45 7.748-5.78 7.795-.282 15.901-1.232 24.23-3.185z" fill="#a46a5a"/><path d="m256 264.154c-12.39 0-23.813-3.974-30.561-10.633-3.249-3.208-3.281-8.432-.081-11.673 3.216-3.257 8.44-3.281 11.673-.081 2.749 2.709 9.359 5.877 18.968 5.877s16.219-3.168 18.968-5.877c3.233-3.2 8.456-3.176 11.673.081 3.2 3.241 3.168 8.464-.081 11.673-6.746 6.659-18.168 10.633-30.559 10.633z" fill="#a46a5a"/><path d="m206.471 198.116c-4.563 0-8.255-3.692-8.255-8.255v-8.255c0-4.563 3.692-8.255 8.255-8.255s8.255 3.692 8.255 8.255v8.255c0 4.562-3.692 8.255-8.255 8.255z" fill="#7a4646"/><path d="m305.529 198.116c-4.563 0-8.255-3.692-8.255-8.255v-8.255c0-4.563 3.692-8.255 8.255-8.255s8.255 3.692 8.255 8.255v8.255c0 4.562-3.692 8.255-8.255 8.255z" fill="#7a4646"/><path d="m214.726 165.096c-.032 0-.064 0-.105 0l-16.51-.202c-4.555-.056-8.206-3.797-8.15-8.356.056-4.522 3.74-8.154 8.255-8.154h.105l16.51.202c4.555.056 8.206 3.797 8.15 8.356-.056 4.523-3.74 8.154-8.255 8.154z" fill="#a46a5a"/><path d="m333.935 127.797c-16.356-31.575-41.043-53.504-77.935-53.504-10.391 0-19.708 1.644-28.226 4.875-.281.088-2.799 1.082-2.784 1.097-9.452 3.995-17.77 9.782-25.127 17.038 2.836 3.416 6.723 7.799 11.349 12.497 5.257-5.203 10.755-9.065 16.21-11.945 5.984-3.159 13.225-2.383 18.403 1.973 21.187 17.824 52.011 36.187 88.11 27.969z" fill="#7a4646"/></g></svg>