<svg id="Capa_1" enable-background="new 0 0 512 512" height="512" viewBox="0 0 512 512" width="512" xmlns="http://www.w3.org/2000/svg"><g><path d="m412.877 384.683-85.29-30.103-143.173 6.439-77.776 30.103c-19.81 6.992-33.057 25.716-33.057 46.723v49.38l9 23.352c2.584.914 5.361 1.422 8.258 1.422h330.323c13.682 0 24.774-11.092 24.774-24.774v-55.818c0-21.007-13.248-39.732-33.059-46.724z" fill="#ffaa5a"/><path d="m130.959 373.447-31.837 11.237c-19.81 6.992-33.057 25.716-33.057 46.723v55.819c0 10.771 6.916 19.939 16.516 23.352v-79.171c0-13.98 8.855-26.496 22.04-31.149l29.908-10.556z" fill="#ff8b57"/><path d="m375.101 336.629c-.377-.283-.704-.614-1.072-.907h-236.058c-.367.292-.695.623-1.072.907-13.488 10.144-21.286 22.135-21.286 34.984 0 25.022 16.691 66.215 61.013 89.63l51.873 15.969c8.585 1.142 17.742 1.756 27.501 1.756 104.899 0 140.387-70.868 140.387-107.355 0-12.849-7.798-24.84-21.286-34.984z" fill="#ffc263"/><path d="m256 379.871c45.217 0 86.541-16.557 118.337-43.889-12.028-9.424-19.24-23.752-19.24-39.067v-32.657c0-90.839-49.548-206.452-99.097-206.452s-99.097 115.613-99.097 206.452v32.657c0 15.316-7.212 29.643-19.24 39.067 31.796 27.332 73.12 43.889 118.337 43.889z" fill="#ffaa5a"/><path d="m371.613 222.968h-231.226v63.043c25.321 36.723 67.633 60.828 115.613 60.828s90.292-24.105 115.613-60.828z" fill="#ff8b57"/><path d="m256 57.806c-59.29 0-95.318 48.064-95.318 107.355l19.505 90.242 169.929 2.683c8.424-15.323 13.238-32.913 13.238-51.634v-41.29c.001-59.292-48.064-107.356-107.354-107.356z" fill="#fcdbb2"/><path d="m247.742 58.206c-55.42 4.229-99.097 50.452-99.097 106.955v41.29c0 18.528 4.974 36.423 13.238 51.635l18.305-2.683 7.507-13.742c-4.035-11.588-6.223-24.054-6.001-37.078.103-6.024 1.789-15.673 3.396-21.48 3.82-13.805 8.404-27.004 13.48-39.15 3.072-7.35 12.286-9.783 18.691-5.046 6.102 4.513 14.495 4.286 20.345-.55l26.652-22.035z" fill="#f5c89d"/><path d="m314.177 173.298h-16.516c-4.565 0-8.258-3.694-8.258-8.258 0-4.565 3.694-8.258 8.258-8.258h16.516c4.565 0 8.258 3.694 8.258 8.258.001 4.565-3.693 8.258-8.258 8.258z" fill="#845252"/><path d="m214.71 173.298h-16.516c-4.565 0-8.258-3.698-8.258-8.258s3.694-8.258 8.258-8.258h16.516c4.565 0 8.258 3.698 8.258 8.258s-3.694 8.258-8.258 8.258z" fill="#845252"/><path d="m189.935 99.097 48.854 36.131c6.102 4.513 14.495 4.286 20.345-.55l26.652-22.035-73.986-58.516z" fill="#7a4646"/><path d="m363.355 188.389-173.42-133.939 112.442-12.879z" fill="#845252"/><path d="m350.117 258.086-80.816-51.428c-8.115-5.164-18.486-5.164-26.601 0l-55.005 35.003c-6.834 30.389 27.737 70.409 68.305 70.409 5.765 0 16.942.407 16.942.407 33.313-5.286 61.513-25.906 77.175-54.391z" fill="#ffc263"/><path d="m187.695 241.661-25.812 16.425c18.256 33.204 53.548 55.72 94.117 55.72 5.521 0 10.705-.375 16.002-1.179.096-.025.845-.137.941-.151-39.588-6.129-72.398-33.919-85.248-70.815z" fill="#ffaa5a"/><path d="m305.919 206.33c-4.565 0-8.258-3.694-8.258-8.258v-8.258c0-4.565 3.694-8.258 8.258-8.258s8.258 3.694 8.258 8.258v8.258c0 4.565-3.693 8.258-8.258 8.258z" fill="#7a4646"/><path d="m206.452 206.33c-4.565 0-8.258-3.694-8.258-8.258v-8.258c0-4.565 3.694-8.258 8.258-8.258s8.258 3.694 8.258 8.258v8.258c0 4.565-3.694 8.258-8.258 8.258z" fill="#7a4646"/><path d="m403.506 256.282-7.234-120.567c-4.298-71.644-60.333-131.342-131.987-135.476-77.886-4.493-143.718 54.826-148.328 131.652l-7.464 124.39c-2.877 47.943 17.462 91.515 50.979 120.438 3.034 2.618 7.513 2.089 10.375-.716.117-.114.234-.228.353-.341 2.687-2.564 3.563-6.593 1.601-9.746-9.419-15.136-14.899-32.968-14.899-52.111v-49.548c0-90.839 49.548-206.452 99.097-206.452s99.097 115.613 99.097 206.452v101.819c0 13.973-5.02 27.514-14.196 38.051-3.132 3.596-6.419 7.044-9.868 10.332-37.753 35.988-92.438 52.381-154.406 46.783 14.384 7.572 31.312 13.294 51.873 15.969 44.409-5.222 84.201-22.463 113.928-50.801 21.134-20.144 36.958-45.348 47.389-74.777-.018-.026-.036-.053-.054-.079-3.417-5.042-4.433-11.383-1.946-16.942 11.074-24.753 17.277-51.882 15.69-78.33z" fill="#ffaa5a"/></g></svg>