<svg id="Capa_1" enable-background="new 0 0 512 512" height="512" viewBox="0 0 512 512" width="512" xmlns="http://www.w3.org/2000/svg"><g><path d="m412.878 401.236-85.291-30.103c-13.207-4.661-22.038-17.144-22.038-31.149v-20.037l-90.158 1.421v18.616c0 14.005-10.11 31.427-23.317 36.088l-89.232 30.491c-19.81 6.991-26.904 20.388-26.904 41.396v39.267l6.641 23.363c2.584.914 5.364 1.411 8.261 1.411h74.323l24.222-16.653 25.325 16.653h82.581l23.026-16.653 26.522 16.653h74.323c13.682 0 24.774-11.092 24.774-24.774v-39.267c-.001-21.007-13.248-39.732-33.058-46.723z" fill="#e29a6c"/><path d="m104.622 416.806 85.273-30.096c19.782-6.968 33.073-25.75 33.073-46.726 0-7.156 6.428-12.439 13.488-11.276 6.362 1.047 12.883 1.615 19.544 1.615 17.629 0 34.367-3.738 49.548-10.376v-39.172h-99.097v59.21c0 14.005-8.832 26.488-22.038 31.149l-85.291 30.103c-19.81 6.992-33.057 25.716-33.057 46.723v39.267c0 10.771 6.916 19.943 16.516 23.356v-62.623c0-14.008 8.833-26.492 22.041-31.154z" fill="#d48c64"/><path d="m344.566 389.076c.673-12.107 6.044-22.951 9.757-27.694 3.241-4.139 3.241-9.953 0-14.092-4.951-6.323-7.955-14.526-7.955-23.538 0-8.707 2.812-16.648 7.469-22.875 2.794-3.736 2.794-9.091 0-12.827-4.657-6.227-7.469-14.168-7.469-22.874 0-1.124.046-2.236.137-3.334l8.121-55.39 20.174 7.3c12.647 5.333 21.587 18.19 21.587 33.258 0 8.603-2.94 16.45-7.809 22.603-2.921 3.692-2.921 8.983 0 12.675 4.869 6.153 7.809 14.001 7.809 22.604 0 8.905-3.141 17.011-8.318 23.259-3.388 4.09-3.388 9.835 0 13.924 5.177 6.248 8.318 14.354 8.318 23.26 0 1.589-.099 3.154-.292 4.688z" fill="#dfbdf0"/><path d="m166.963 389.076c-.673-12.107-6.044-22.951-9.757-27.694-3.241-4.139-3.241-9.953 0-14.092 4.951-6.323 7.955-14.526 7.955-23.538 0-8.707-2.812-16.648-7.469-22.875-2.794-3.736-2.794-9.091 0-12.827 4.657-6.227 7.469-14.168 7.469-22.874 0-1.124-.046-2.236-.137-3.334l-8.121-55.39-20.174 7.3c-12.647 5.333-21.587 18.19-21.587 33.258 0 8.603 2.94 16.45 7.809 22.603 2.921 3.692 2.921 8.983 0 12.675-4.869 6.153-7.809 14.001-7.809 22.604 0 8.905 3.141 17.011 8.318 23.259 3.388 4.09 3.388 9.835 0 13.924-5.177 6.248-8.318 14.354-8.318 23.26 0 1.589.099 3.154.292 4.688z" fill="#cbb0f2"/><path d="m256 0c77.534 0 140.387 62.853 140.387 140.387v57.807h-232.114l-5.381-105.511z" fill="#dfbdf0"/><path d="m148.645 140.387c0-59.291 48.065-107.355 107.355-107.355v-33.032c-77.534 0-140.387 62.853-140.387 140.387v57.807h33.032z" fill="#cbb0f2"/><path d="m144.083 12.32 21.078 70.261 41.29-41.29-55.157-34.474c-3.791-2.37-8.496 1.22-7.211 5.503z" fill="#ffe077"/><path d="m305.548 41.29 41.29 41.29 21.078-70.261c1.285-4.282-3.42-7.872-7.211-5.503z" fill="#ffe077"/><path d="m363.355 148.645c-4.565 0-8.258-3.698-8.258-8.258 0-54.641-44.452-99.097-99.097-99.097s-99.097 44.456-99.097 99.097c0 4.56-3.694 8.258-8.258 8.258s-8.258-3.698-8.258-8.258c0-63.75 51.863-115.613 115.613-115.613s115.613 51.863 115.613 115.613c0 4.561-3.694 8.258-8.258 8.258z" fill="#ffd05b"/><path d="m374.564 173.419h-65.428c-22.177-26.23-37.846-49.534-46.184-62.78-3.226-5.125-10.699-5.124-13.924.002-8.332 13.246-23.998 36.549-46.174 62.778l-26.476 41.29c4.23 55.419 23.118 97.384 79.621 97.384 5.642 0 16.586.438 16.586.438 48.725-7.565 86.544-47.937 90.351-97.822h12.804c12.105 0 21.776-10.417 20.538-22.775-1.074-10.745-10.915-18.515-21.714-18.515z" fill="#f4aa73"/><path d="m313.806 173.419h-176.371c-10.799 0-20.64 7.77-21.716 18.515-1.238 12.358 8.433 22.775 20.538 22.775h12.804c4.23 55.419 50.435 99.097 106.938 99.097 5.649 0 11.175-.433 16.586-1.275-34.79-5.369-64.03-27.531-79.335-57.827-3.518-6.964 1.381-15.22 9.183-15.22 17.526 0 34.334-6.962 46.727-19.355l6.84-6.839 6.839 6.839c6.885 6.885 15.132 12.094 24.109 15.364 11.235 4.093 23.16-4.448 23.926-16.381z" fill="#e29a6c"/><path d="m250.12 146.405-139.504-53.144-.152 14.22 46.746 53.808v20.389c0 22.804 19.458 34.54 42.262 34.54 13.141 0 25.744-5.22 35.037-14.513l6.841-6.841 14.65 1.913c4.227 0 8.454 1.612 11.678 4.837l6.841 6.841c9.292 9.292 21.895 14.513 35.037 14.513h12.508c22.804 0 41.29-18.486 41.29-41.29v-7.826c0-5.626 1.915-11.084 5.429-15.476l49.277-61.596c3.153-3.941-.917-9.522-5.633-7.726l-150.547 57.351c-3.787 1.443-7.973 1.443-11.76 0z" fill="#ffe077"/><path d="m256 264.258c-12.395 0-23.823-3.976-30.573-10.637-3.25-3.21-3.282-8.435-.081-11.677 3.218-3.258 8.444-3.282 11.677-.081 2.75 2.71 9.363 5.879 18.976 5.879s16.226-3.169 18.976-5.879c3.234-3.202 8.46-3.177 11.677.081 3.202 3.242 3.169 8.468-.081 11.677-6.748 6.661-18.176 10.637-30.571 10.637z" fill="#c6805d"/><path d="m247.18 417.801-142.762-54.385-.008 15.795 78.211 132.789h32.089l34.946-41.936c3.302-3.962 9.387-3.962 12.688 0l34.946 41.936h49.548l72.399-137.557c3.545-6.735-3.135-14.273-10.248-11.563l-144.17 54.922c-5.68 2.164-11.958 2.164-17.639-.001z" fill="#ffe077"/><path d="m206.452 198.194c-4.565 0-8.258-3.694-8.258-8.258v-8.258c0-4.565 3.694-8.258 8.258-8.258s8.258 3.694 8.258 8.258v8.258c0 4.564-3.694 8.258-8.258 8.258z" fill="#fff"/><path d="m305.548 198.194c-4.565 0-8.258-3.694-8.258-8.258v-8.258c0-4.565 3.694-8.258 8.258-8.258 4.565 0 8.258 3.694 8.258 8.258v8.258c0 4.564-3.693 8.258-8.258 8.258z" fill="#fff"/><g fill="#ffd05b"><path d="m256 196.776c0-9.853-11.191-16.1-19.203-10.366-1.456 1.042-2.846 2.217-4.152 3.525l-6.839 6.839c-6.196 6.196-14.6 9.677-23.363 9.677h-12.508c-13.682 0-24.774-11.092-24.774-24.774v-7.823c0-9.351-3.218-18.512-9.048-25.798l-45.496-54.796-11.044-4.207c-4.717-1.796-8.786 3.785-5.633 7.726l49.277 61.596c3.514 4.393 5.429 9.851 5.429 15.477v7.826c0 22.804 18.486 41.29 41.29 41.29h12.508c13.141 0 25.744-5.22 35.037-14.513l6.841-6.841c3.224-3.225 7.451-4.838 11.678-4.838z"/><path d="m103.01 362.88c-7.112-2.71-13.792 4.828-10.247 11.563l72.398 137.557h17.46l-78.202-148.584z"/></g></g></svg>