<svg id="Capa_1" enable-background="new 0 0 512 512" height="512" viewBox="0 0 512 512" width="512" xmlns="http://www.w3.org/2000/svg"><g><g><path d="m318.761 356.748c-8.318-6.238-13.213-16.029-13.213-26.426v-18.672h-91.639v18.673c0 10.397-4.895 20.188-13.213 26.426l-19.82 14.864 25.574 57.806h99.097l33.032-57.806z" fill="#f8ba7e"/></g><g><path d="m203.134 369.98c12.485-9.36 19.834-24.053 19.834-39.657 0-6.43 5.786-11.233 12.118-10.114 6.797 1.201 13.776 1.856 20.914 1.856 17.619 0 34.359-3.755 49.548-10.415v-39.134h-99.097v57.807c0 10.397-4.895 20.187-13.213 26.425l-19.82 14.864 9.911 13.214z" fill="#f1a673"/></g><path d="m413.052 392.901-82.729-29.546-49.548 8.258-16.516 38.538-1.396 9.098c-2.586 6.033-11.139 6.033-13.725 0l-1.396-9.098-16.516-38.538-39.694-8.258-82.729 29.546c-19.72 7.043-32.884 25.722-32.884 46.662v47.663l6.663 23.365c2.583.913 5.362 1.409 8.257 1.409h156.903l8.231-17.494 8.285 17.494h156.903c13.682 0 24.774-11.092 24.774-24.774v-47.663c.001-20.94-13.163-39.62-32.883-46.662z" fill="#47de9e"/><g><path d="m339.897 348.155c-5.567-5.567-14.29-6.431-20.84-2.064l-38.282 25.522 35.303 35.303c7.37 7.37 19.639 6.155 25.421-2.517l18.102-27.152c2.184-3.275 1.752-7.637-1.032-10.42z" fill="#43bfa0"/></g><g><path d="m192.944 346.091c-6.551-4.367-15.273-3.504-20.84 2.064l-18.671 18.671c-1.989 1.989-2.719 4.778-2.211 7.406l-52.273 18.669c-19.72 7.043-32.884 25.722-32.884 46.662v47.663c0 10.771 6.916 19.955 16.516 23.368v-71.029c0-13.923 8.815-26.427 21.927-31.113l55.486-19.816 10.508 15.763c5.781 8.672 18.051 9.887 25.421 2.517l35.303-35.302z" fill="#43bfa0"/></g><g><path d="m262.862 413.407c-2.586 6.033-11.139 6.033-13.725 0l-1.396-3.257v101.85h16.516v-101.849z" fill="#43bfa0"/></g><g><circle cx="289.032" cy="478.968" fill="#fd7" r="8.258"/></g><g><circle cx="289.032" cy="437.677" fill="#fd7" r="8.258"/></g><path d="m396.063 114.837c-4.627-64.195-58.173-114.837-123.547-114.837h-57.806c-10.899 0-21.459 7.268-24.774 17.046l-28.225 89.117 115.547 79.784h119.13v-53.209z" fill="#c2805d"/><g><path d="m264.258 107.355-58.8-23.672c-9.379-3.776-15.522-12.872-15.522-22.982v-43.655c-41.714 4.157-74.323 39.241-74.323 82.051v86.85h162.578z" fill="#ab6e4d"/></g><g><path d="m374.563 165.161h-1.61c-10.664 0-20.131-6.823-23.503-16.94l-.189-.567c-1.536-4.609-5.024-8.308-9.535-10.112l-75.468-30.188v20.968c0 5.806-5.834 9.799-11.246 7.698l-52.124-20.233-13.548 10.682-23.891 60.489c4.23 55.419 36.05 116.09 92.552 116.09 5.712 0 11.318 2.053 16.786 1.193 48.629-7.644 86.349-47.974 90.151-97.791h12.804c12.105 0 21.776-10.417 20.538-22.775-1.077-10.744-10.918-18.514-21.717-18.514z" fill="#ffce8a"/></g><g><path d="m181.677 198.194v-8.693c0-10.652 1.717-21.233 5.086-31.338l14.125-42.373-8.258-3.205c-4.352-1.689-9.237.562-10.781 4.967l-10.876 31.031c-3.481 9.932-12.856 16.58-23.38 16.58h-10.157c-10.799 0-20.64 7.77-21.716 18.515-1.238 12.358 8.433 22.775 20.538 22.775h12.804c4.23 55.419 50.435 99.097 106.938 99.097 5.649 0 11.375-.465 16.786-1.306-51.453-7.942-91.109-52.373-91.109-106.05z" fill="#f8ba7e"/></g><g><path d="m206.452 198.194c-4.565 0-8.258-3.694-8.258-8.258v-8.258c0-4.565 3.694-8.258 8.258-8.258 4.565 0 8.258 3.694 8.258 8.258v8.258c0 4.564-3.694 8.258-8.258 8.258z" fill="#61444f"/></g><g><path d="m305.548 198.194c-4.565 0-8.258-3.694-8.258-8.258v-8.258c0-4.565 3.694-8.258 8.258-8.258s8.258 3.694 8.258 8.258v8.258c0 4.564-3.693 8.258-8.258 8.258z" fill="#61444f"/></g><g><path d="m256 256c-12.395 0-23.823-3.976-30.573-10.637-3.25-3.21-3.282-8.435-.081-11.677 3.218-3.25 8.444-3.282 11.677-.081 2.75 2.71 9.363 5.879 18.976 5.879s16.226-3.169 18.976-5.879c3.234-3.202 8.46-3.169 11.677.081 3.202 3.242 3.169 8.468-.081 11.677-6.748 6.661-18.176 10.637-30.571 10.637z" fill="#f1a673"/></g><g><path d="m198.185 166.194c-3.798 0-7.218-2.629-8.056-6.492-.976-4.46 1.847-8.855 6.298-9.831l16.516-3.613c4.444-.968 8.863 1.839 9.831 6.298.976 4.46-1.847 8.855-6.298 9.831l-16.516 3.613c-.597.129-1.186.194-1.775.194z" fill="#ab6e4d"/></g><g><path d="m313.815 166.194c-.589 0-1.177-.065-1.774-.194l-16.516-3.613c-4.452-.976-7.274-5.371-6.298-9.831.968-4.46 5.379-7.274 9.831-6.298l16.516 3.613c4.452.976 7.274 5.371 6.298 9.831-.84 3.863-4.259 6.492-8.057 6.492z" fill="#ab6e4d"/></g><g><path d="m132.129 247.742c-4.565 0-8.258-3.694-8.258-8.258v-8.258c0-4.565 3.694-8.258 8.258-8.258 4.565 0 8.258 3.694 8.258 8.258v8.258c0 4.564-3.693 8.258-8.258 8.258z" fill="#fd7"/></g><g><path d="m379.871 247.742c-4.565 0-8.258-3.694-8.258-8.258v-8.258c0-4.565 3.694-8.258 8.258-8.258s8.258 3.694 8.258 8.258v8.258c0 4.564-3.694 8.258-8.258 8.258z" fill="#fd7"/></g><g><path d="m215.274 53c-1.661 4.25.435 9.04 4.685 10.702l176.427 69.037v-8.867c0-3.056-.107-6.033-.324-9.034l-170.086-66.523c-4.226-1.67-9.032.435-10.702 4.685z" fill="#ab6e4d"/></g></g></svg>