<svg id="Capa_1" enable-background="new 0 0 512 512" height="512" viewBox="0 0 512 512" width="512" xmlns="http://www.w3.org/2000/svg"><g><path d="m419.215 352.591-33.921-10.437-283.735 10.437c-20.79 6.396-34.977 25.605-34.977 47.357l7.736 110.639c2.585.914 5.366 1.412 8.264 1.412h165.161l8.342-6.955 8.175 6.955h165.161c13.682 0 24.774-11.092 24.774-24.774v-87.276c-.002-21.753-14.189-40.961-34.98-47.358z" fill="#47de9e"/><g><path d="m346.838 330.322h-181.676l-72.377 22.269c-20.79 6.397-34.977 25.605-34.977 47.357v87.276c0 10.771 6.916 19.95 16.516 23.362v-110.64c0-14.593 9.371-27.278 23.314-31.568l35.363-10.881c12.598 23.127 37.052 38.889 65.193 38.889h49.548v115.614h16.516v-115.614h49.548c34.012 0 62.693-22.993 71.488-54.232z" fill="#43bfa0"/></g><g><path d="m355.096 231.225h-198.192c-9.121 0-16.516 7.394-16.516 16.516v10.048s25.881 108.793 57.806 108.793c0 0 59.519 13.288 115.613 13.288 31.925 0 57.806-25.881 57.806-57.806v-34.452l-5.086-7.581 5.086-16.621v-15.668c0-9.123-7.396-16.517-16.517-16.517z" fill="#6b4f5a"/></g><g><path d="m371.613 263.41c-39.487 46.086-97.661 74.983-160.379 79.61-29.293-21.218-53.711-50.528-70.846-85.23v64.275c0 31.925 25.881 57.806 57.806 57.806h114.383 1.23c-28.602-1.348-55.686-9.522-80.194-22.785 52.677-8.324 101.243-32.804 138.001-69.474v-24.202z" fill="#61444f"/></g><g><circle cx="289.032" cy="421.16" fill="#6b4f5a" r="8.258"/></g><g><circle cx="289.032" cy="478.966" fill="#6b4f5a" r="8.258"/></g><path d="m379.871 149.061v-25.19c0-68.413-55.459-123.871-123.871-123.871-27.885 0-53.619 9.214-74.321 24.764l-24.31 143.737c4.23 55.418 42.129 118.262 98.631 118.262 5.682 0 11.26 1.826 16.702.975 48.669-7.611 86.431-47.958 90.236-97.804h12.804c11.402 0 20.645-9.244 20.645-20.645 0-9.987-7.093-18.315-16.516-20.228z" fill="#f8ba7e"/><g><path d="m181.678 181.677v-156.915c-30.037 22.603-49.548 58.622-49.548 99.108v25.19c-9.423 1.913-16.516 10.241-16.516 20.229 0 11.402 9.243 20.645 20.645 20.645h12.804c4.23 55.419 50.435 99.096 106.937 99.096 5.649 0 11.29-.451 16.702-1.293-51.454-7.939-91.024-52.383-91.024-106.06z" fill="#f1a673"/></g><g><path d="m206.452 173.419c-4.565 0-8.258-3.698-8.258-8.258v-8.258c0-4.56 3.694-8.258 8.258-8.258s8.258 3.698 8.258 8.258v8.258c0 4.56-3.694 8.258-8.258 8.258z" fill="#61444f"/></g><g><path d="m305.548 173.419c-4.564 0-8.258-3.698-8.258-8.258v-8.258c0-4.56 3.694-8.258 8.258-8.258 4.565 0 8.258 3.698 8.258 8.258v8.258c0 4.56-3.693 8.258-8.258 8.258z" fill="#61444f"/></g><g><path d="m256 231.225c-12.387 0-23.823-3.976-30.572-10.637-3.25-3.202-3.282-8.431-.081-11.677 3.202-3.25 8.444-3.282 11.677-.081 2.75 2.714 9.371 5.879 18.976 5.879s16.226-3.165 18.976-5.879c3.234-3.202 8.476-3.169 11.677.081 3.202 3.246 3.169 8.476-.081 11.677-6.749 6.661-18.185 10.637-30.572 10.637z" fill="#d18964"/></g><g><path d="m214.71 140.387h-16.516c-4.565 0-8.258-3.698-8.258-8.258s3.694-8.258 8.258-8.258h16.516c4.565 0 8.258 3.698 8.258 8.258s-3.694 8.258-8.258 8.258z" fill="#d18964"/></g><g><path d="m313.806 140.387h-16.516c-4.565 0-8.258-3.698-8.258-8.258s3.694-8.258 8.258-8.258h16.516c4.564 0 8.258 3.698 8.258 8.258s-3.693 8.258-8.258 8.258z" fill="#d18964"/></g></g></svg>