<svg id="Capa_1" enable-background="new 0 0 512 512" height="512" viewBox="0 0 512 512" width="512" xmlns="http://www.w3.org/2000/svg"><g><path d="m345.968 16.922-77.464 74.778 9.08 81.719h91.278l9.078-81.719c3.343-30.091-9.859-57.86-31.972-74.778z" fill="#87646f"/><path d="m149.323 34.044c-11.636 15.991-17.643 36.234-15.263 57.656l9.08 81.719h112.86v-120.902z" fill="#61444f"/><path d="m447.438 408.005-10.622-12.71c-5.035-4.3-10.982-7.634-17.599-9.67l-72.378-22.27h-181.678l-72.378 22.27c-6.644 2.044-12.613 5.397-17.661 9.723l-10.561 12.658c-4.324 7.404-6.755 15.973-6.755 24.977v54.243c0 13.682 11.092 24.774 24.774 24.774h41.29l8.084-8.588 8.432 8.588h107.355l7.796-8.588 8.72 8.588h107.355l8.92-8.588 7.596 8.588h41.29c13.682 0 24.774-11.092 24.774-24.774v-54.244c.002-9.004-2.43-17.573-6.754-24.977z" fill="#6b4f5a"/><g><path d="m205.258 299.203h108.549v80.668h-108.549z" fill="#f8ba7e"/></g><g><path d="m313.806 256h-115.612v123.871h16.516v-51.862c0-10.273 9.269-18.048 19.373-16.196 7.127 1.307 14.452 1.993 21.917 1.993 20.782 0 40.458-5.337 57.806-14.604z" fill="#f1a673"/></g><g><path d="m375.246 156.903h-11.891c-9.122 0-16.516-7.395-16.516-16.516v-33.032c0-13.682-11.092-24.774-24.774-24.774h-57.806l-24.774-17.683-59.529 20.851-9.557 112.446c4.23 55.419 29.099 99.097 85.602 99.097s102.708-43.678 106.938-99.097h12.804c12.013 0 21.629-10.26 20.564-22.494-.935-10.739-10.283-18.798-21.061-18.798z" fill="#ffce8a"/></g><g><path d="m181.677 189.935v-81.24c0-10.664 6.824-20.131 16.94-23.503l32.608-10.869h24.775l-16.516-16.516-57.383 19.128c-10.116 3.372-16.94 12.839-16.94 23.503v39.95c0 9.121-7.395 16.516-16.516 16.516h-11.209c-10.799 0-20.64 7.77-21.716 18.515-1.238 12.358 8.433 22.775 20.538 22.775h12.804c4.23 55.419 50.435 99.097 106.938 99.097 5.649 0 11.157-.55 16.568-1.392-51.454-7.941-90.891-52.287-90.891-105.964z" fill="#f8ba7e"/></g><g><path d="m294.555 206.452h-77.11c-10.122 0-17.863 9.023-16.324 19.028l7.31 47.517c3.612 23.479 23.814 40.81 47.569 40.81 23.755 0 43.957-17.332 47.569-40.81l7.31-47.517c1.539-10.006-6.201-19.028-16.324-19.028z" fill="#87646f"/></g><g><path d="m206.452 181.677c-4.565 0-8.258-3.694-8.258-8.258v-8.258c0-4.565 3.694-8.258 8.258-8.258s8.258 3.694 8.258 8.258v8.258c0 4.565-3.694 8.258-8.258 8.258z" fill="#61444f"/></g><g><path d="m305.548 181.677c-4.565 0-8.258-3.694-8.258-8.258v-8.258c0-4.565 3.694-8.258 8.258-8.258 4.565 0 8.258 3.694 8.258 8.258v8.258c0 4.565-3.693 8.258-8.258 8.258z" fill="#61444f"/></g><g><path d="m256 256c-12.395 0-23.823-3.976-30.573-10.637-3.25-3.21-3.282-8.435-.081-11.677 3.218-3.25 8.444-3.282 11.677-.081 2.75 2.71 9.363 5.879 18.976 5.879s16.226-3.169 18.976-5.879c3.234-3.202 8.46-3.169 11.677.081 3.202 3.242 3.169 8.468-.081 11.677-6.748 6.661-18.176 10.637-30.571 10.637z" fill="#61444f"/></g><g><path d="m214.71 148.645h-16.516c-4.565 0-8.258-3.694-8.258-8.258s3.694-8.258 8.258-8.258h16.516c4.565 0 8.258 3.694 8.258 8.258s-3.694 8.258-8.258 8.258z" fill="#6b4f5a"/></g><g><path d="m313.806 148.645h-16.516c-4.565 0-8.258-3.694-8.258-8.258s3.694-8.258 8.258-8.258h16.516c4.565 0 8.258 3.694 8.258 8.258s-3.693 8.258-8.258 8.258z" fill="#6b4f5a"/></g><g><path d="m334.18 338.037c-2.103-4.205-7.287-5.809-11.397-3.526l-66.783 37.102-66.783-37.102c-4.11-2.283-9.294-.679-11.397 3.526l-12.659 25.318 28.075 49.131c2.572 4.502 8.608 5.547 12.544 2.173l28.329-24.282c5.357-4.592 13.632-.785 13.632 6.27v115.353h16.516v-115.354c0-7.055 8.276-10.862 13.632-6.27l28.329 24.282c3.936 3.374 9.972 2.329 12.544-2.173l28.075-49.131z" fill="#87646f"/></g><g><path d="m396.919 450.613 50.519-42.608c-2.795-4.786-6.391-9.094-10.622-12.71l-50.542 42.689c-9.323 7.863-14.661 19.363-14.661 31.556v42.46h16.516v-42.46c0-7.314 3.202-14.217 8.79-18.927z" fill="#87646f"/></g><g><path d="m115.081 450.613-50.519-42.607c2.795-4.786 6.329-9.042 10.561-12.658l50.603 42.636c9.323 7.863 14.661 19.363 14.661 31.556v42.46h-16.516v-42.46c0-7.314-3.202-14.217-8.79-18.927z" fill="#87646f"/></g><g><path d="m295.864 0h-79.729c-27.666 0-51.877 13.518-66.812 34.044l56.648 36.217s95.154 52.183 150.684-43.505c6.144-11.873 6.649-20.831.09-23.98-3.01-1.445-5.714-.375-7.946 1.593-5.053 4.456-12.018 6.167-18.122 3.316-10.54-4.92-22.32-7.685-34.813-7.685z" fill="#6b4f5a"/></g></g></svg>