<svg id="Capa_1" enable-background="new 0 0 512 512" height="512" viewBox="0 0 512 512" width="512" xmlns="http://www.w3.org/2000/svg"><g><g><path d="m313.806 355.097h-107.787v-65.183l107.787 7.353z" fill="#f1a673"/></g><g><path d="m313.806 256h-115.612v99.097h16.516v-33.032c0-9.122 7.395-16.516 16.516-16.516h41.29c14.628 0 28.571-2.961 41.29-8.282z" fill="#df976c"/></g><g><path d="m256 338.581c-18.763 0-36.675-3.464-53.353-9.504l53.353 182.923 53.353-182.923c-16.678 6.04-34.59 9.504-53.353 9.504z" fill="#9b929b"/></g><path d="m388.129 152.775-8.258-28.904c0-68.412-55.459-123.871-123.871-123.871-24.29 0-46.946 6.991-66.068 19.071l-16.513 195.639h165.161c13.682 0 24.774-11.092 24.774-24.774h12.387c11.402 0 20.645-9.244 20.645-20.645.001-6.755-3.243-12.75-8.257-16.516z" fill="#f8ba7e"/><g><path d="m189.935 19.075c-34.697 21.951-57.806 60.701-57.806 104.796l-8.228 28.882c-5.031 3.764-8.288 9.77-8.288 16.537 0 11.402 9.243 20.645 20.645 20.645h12.387c0 13.682 11.092 24.774 24.774 24.774h16.516z" fill="#f1a673"/></g><g><path d="m338.581 206.452h-74.323l-8.258-8.258-8.258 8.258h-57.39l-6.27 6.684c0 50.169 25.738 65.158 40.724 70.697l47.71 5.077c1.399 0 2.791.091 4.174.029 48.231-2.182 86.664-41.975 86.664-90.745v-8.258c.001-.001-8.557 16.516-24.773 16.516z" fill="#c7c2c6"/></g><g><path d="m210.581 173.419c-4.565 0-8.258-3.698-8.258-8.258v-8.258c0-4.56 3.694-8.258 8.258-8.258s8.258 3.698 8.258 8.258v8.258c0 4.561-3.694 8.258-8.258 8.258z" fill="#61444f"/></g><g><path d="m222.968 140.387h-33.032c-4.565 0-8.258-3.698-8.258-8.258s3.694-8.258 8.258-8.258h33.032c4.565 0 8.258 3.698 8.258 8.258 0 4.561-3.694 8.258-8.258 8.258z" fill="#b5afb5"/></g><g><path d="m301.419 173.419c-4.565 0-8.258-3.698-8.258-8.258v-8.258c0-4.56 3.694-8.258 8.258-8.258s8.258 3.698 8.258 8.258v8.258c0 4.561-3.693 8.258-8.258 8.258z" fill="#61444f"/></g><g><path d="m322.065 140.387h-33.032c-4.565 0-8.258-3.698-8.258-8.258s3.694-8.258 8.258-8.258h33.032c4.565 0 8.258 3.698 8.258 8.258 0 4.561-3.694 8.258-8.258 8.258z" fill="#b5afb5"/></g><path d="m198.194 346.839-16.392-10.88-79.676 22.765c-21.271 6.077-36.957 19.883-36.957 42.005v86.497l9.154 23.365c2.583.913 5.362 1.41 8.258 1.41h132.129l8.258-49.548z" fill="#6b4f5a"/><g><path d="m57.806 400.729v86.496c0 10.771 6.916 19.952 16.516 23.365v-109.86c0-14.669 9.855-27.73 23.96-31.762l79.677-22.766-4.54-15.879-79.676 22.765c-21.271 6.077-35.937 25.519-35.937 47.641z" fill="#61444f"/></g><g><path d="m338.581 330.323 79.676 22.765c21.271 6.077 35.936 25.52 35.936 47.642v86.497c0 13.682-11.092 24.774-24.774 24.774h-132.129l-8.258-49.548 24.774-115.613z" fill="#6b4f5a"/></g><g><path d="m280.782 44.802c-.75 0-1.508-.105-2.258-.319-14.968-4.234-30.081-4.234-45.048 0-4.347 1.238-8.96-1.294-10.194-5.694-1.242-4.387 1.306-8.952 5.694-10.194 17.903-5.073 36.145-5.073 54.048 0 4.387 1.242 6.935 5.806 5.694 10.194-1.024 3.638-4.339 6.013-7.936 6.013z" fill="#b5afb5"/></g><g><path d="m256 198.194h-24.774c-13.682 0-24.774 11.092-24.774 24.774h24.774c13.682 0 24.774-11.092 24.774-24.774z" fill="#b5afb5"/></g><g><path d="m256 198.194h24.774c13.682 0 24.774 11.092 24.774 24.774h-24.774c-13.682 0-24.774-11.092-24.774-24.774z" fill="#b5afb5"/></g><g><path d="m136.258 148.645h4.129c9.122 0 16.516-7.395 16.516-16.516v-23.891c0-8.227-5.622-15.852-13.742-17.173-10.348-1.683-19.29 6.259-19.29 16.29l.03 45.398c3.458-2.614 7.687-4.108 12.357-4.108z" fill="#b5afb5"/></g><g><path d="m375.742 148.645h-4.129c-9.122 0-16.516-7.395-16.516-16.516v-23.891c0-8.227 5.622-15.852 13.742-17.173 10.348-1.683 19.29 6.259 19.29 16.29v45.421c-3.459-2.615-7.717-4.131-12.387-4.131z" fill="#c7c2c6"/></g><g><path d="m190.352 206.452h-16.933c-17.355 0-24.774-16.516-24.774-16.516v8.258c0 50.169 40.67 90.839 90.839 90.839h33.032c1.394 0 2.796-.032 4.174-.094-45.481-2.051-82.283-37.556-86.338-82.487z" fill="#b5afb5"/></g><g><path d="m198.194 297.29-41.167 27.445c-4.336 2.891-4.944 9.026-1.259 12.71l25.909 25.91-28.572 28.572c-2.634 2.633-3.178 6.703-1.331 9.936l62.936 110.137h41.29z" fill="#87646f"/></g><g><path d="m313.806 297.29 41.167 27.445c4.336 2.891 4.944 9.026 1.259 12.71l-25.909 25.91 28.572 28.572c2.634 2.633 3.178 6.703 1.331 9.936l-62.936 110.137h-41.29z" fill="#87646f"/></g></g></svg>