<svg id="Capa_1" enable-background="new 0 0 512 512" height="512" viewBox="0 0 512 512" width="512" xmlns="http://www.w3.org/2000/svg"><g><g><path d="m112.968 388.129h286.065c8.668-8.035 13.87-19.423 13.87-31.443 0-23.644-19.236-42.88-42.88-42.88h-228.047c-23.644 0-42.88 19.236-42.88 42.88.001 12.02 5.203 23.408 13.872 31.443z" fill="#ceeaff"/></g><g><path d="m370.024 330.323h-228.048c-14.56 0-26.363 11.803-26.363 26.363 0 9.261 4.859 17.842 12.799 22.606l32.112 19.267c24.369 14.621 42.97 37.178 52.682 63.887l18.02 49.554h49.548l18.02-49.554c9.712-26.708 28.312-49.265 52.682-63.887l32.112-19.267c7.941-4.764 12.799-13.346 12.799-22.606 0-14.56-11.803-26.363-26.363-26.363z" fill="#76d4ec"/></g><path d="m327.587 354.617c-13.207-4.661-22.038-17.144-22.038-31.149v-5.948h-83.021l-36.054 55.359 69.526 83.621 75.583-100.472z" fill="#f2c59a"/><path d="m206.452 264.258v59.209c0 14.005-8.832 26.488-22.038 31.149l-3.997 1.411 9.487 14.167c2.872-1.014 5.596-2.276 8.158-3.758 11.696-6.763 20-18.088 23.446-31.117 2.178-8.235 12.675-9.376 17.02-8.731 5.703.847 11.531 1.308 17.472 1.308 17.629 0 34.367-3.738 49.548-10.376v-53.262z" fill="#e6b287"/><path d="m331.583 356.028c-21.427 14.985-47.452 23.843-75.583 23.843-20.797 0-40.442-4.842-57.93-13.421l-77.19 24.565 110.346 120.985h49.548l107.1-136.105z" fill="#df976c"/><path d="m180.416 356.027-56.489 19.938 7.539 14.854 58.437-20.626c2.861-1.01 5.613-2.269 8.166-3.743-6.128-3.013-12.099-6.539-17.653-10.423z" fill="#c2805d"/><path d="m213.206 462.446c-9.712-26.708-28.312-49.265-52.682-63.887l-18.885-11.331-33.465-2.509c-19.81 6.991-33.058 25.716-33.058 46.723l57.013 80.558h99.097z" fill="#ceeaff"/><path d="m413.49 246.185c-7.276-2.489-17.103-8.939-17.103-25.626v-113.204c0-42.464-32.05-77.442-73.28-82.062-1.883-.211-3.74-.683-5.472-1.414l-124.755 108.784 119.565 164.09c44.043 16.516 67.426-15.979 67.426-15.979 25.146 1.372 35.104-13.659 38.957-23.903 1.661-4.418-.872-9.159-5.338-10.686z" fill="#4fc0ec"/><g><path d="m317.635 23.879c-2.801-1.191-5.312-3.081-7.018-5.631-8.068-12.057-26.311-18.248-54.62-18.248-57.804 0-140.385 40.86-140.385 123.871v96.688c0 16.686-9.827 23.137-17.103 25.626-4.466 1.528-6.999 6.269-5.338 10.686 3.852 10.244 13.811 25.275 38.957 23.903 0 0 23.061 32.685 67.104 16.169l46.244.347 53.935-222.968c.001.001 24.243-12.944 18.224-50.443z" fill="#24aadb"/></g><path d="m396.28 191.935c-1.076-10.745-10.917-18.515-21.716-18.515-6.191 0-11.209-5.019-11.209-11.209v-5.307c0-30.605-20.139-36.654-43.011-57.807-13.48-12.467-20.932-24.774-20.932-24.774-27.008 19.041-82.16 25.489-117.745 42.232l-24.95 81.593c4.23 55.419 42.78 114.76 99.283 114.76 5.722 0 11.339.451 16.817-.411 48.614-7.656 86.319-47.98 90.12-97.786h12.804c12.106-.001 21.777-10.419 20.539-22.776z" fill="#fbe7c3"/><g><path d="m181.677 206.452-.011-89.897c-19.417 9.14-33.022 21.354-33.022 40.349v5.307c0 6.191-5.019 11.209-11.209 11.209-10.799 0-20.64 7.77-21.716 18.515-1.237 12.358 8.433 22.775 20.538 22.775h12.804c4.23 55.419 50.435 99.097 106.938 99.097 5.649 0 11.406-.47 16.817-1.311-51.452-7.941-91.139-52.367-91.139-106.044z" fill="#f9d8af"/></g><g><path d="m256 264.258c-12.395 0-23.823-3.976-30.573-10.637-3.25-3.21-3.282-8.435-.081-11.677 3.218-3.258 8.444-3.282 11.677-.081 2.75 2.71 9.363 5.879 18.976 5.879s16.226-3.169 18.976-5.879c3.234-3.202 8.46-3.177 11.677.081 3.202 3.242 3.169 8.468-.081 11.677-6.748 6.661-18.176 10.637-30.571 10.637z" fill="#f2c59a"/></g><g><path d="m206.452 206.331c-4.565 0-8.258-3.694-8.258-8.258v-8.258c0-4.565 3.694-8.258 8.258-8.258s8.258 3.694 8.258 8.258v8.258c0 4.564-3.694 8.258-8.258 8.258z" fill="#6b4f5a"/></g><g><path d="m305.548 206.331c-4.565 0-8.258-3.694-8.258-8.258v-8.258c0-4.565 3.694-8.258 8.258-8.258 4.565 0 8.258 3.694 8.258 8.258v8.258c0 4.564-3.693 8.258-8.258 8.258z" fill="#6b4f5a"/></g><g><path d="m214.71 173.298h-16.516c-4.565 0-8.258-3.694-8.258-8.258 0-4.56 3.694-8.258 8.258-8.258h16.516c4.565 0 8.258 3.698 8.258 8.258 0 4.565-3.694 8.258-8.258 8.258z" fill="#c2805d"/></g><g><path d="m313.806 173.298h-16.516c-4.565 0-8.258-3.694-8.258-8.258 0-4.56 3.694-8.258 8.258-8.258h16.516c4.565 0 8.258 3.698 8.258 8.258.001 4.565-3.693 8.258-8.258 8.258z" fill="#c2805d"/></g><path d="m412.878 384.72-25.004-8.825c-1.329 1.235-2.696 2.443-4.287 3.398l-32.112 19.267c-24.369 14.621-42.97 37.178-52.682 63.887l-18.019 49.553h99.097l56.964-109.175c-5.788-8.181-14.052-14.61-23.957-18.105z" fill="#ceeaff"/><g><path d="m379.871 468.798c0-9.374 3.982-18.306 10.955-24.571l46.009-41.402c5.772 8.173 9.1 18.13 9.1 28.618v55.783c0 13.682-11.092 24.774-24.774 24.774h-41.29z" fill="#b0def5"/></g><g><path d="m94.555 420.31c-4.199-3.772-4.403-10.529-.095-14.177 2.948-2.497 6.363-4.498 10.161-5.838l37.018-13.066-13.227-7.936c-1.591-.954-3.156-2.092-4.485-3.327l-24.805 8.755c-19.81 6.992-33.057 25.716-33.057 46.724v55.782c0 10.771 6.916 19.844 16.516 23.257 2.595.922 5.347 1.517 8.258 1.517h41.29v-43.202c0-9.373-3.982-18.305-10.955-24.57z" fill="#b0def5"/></g></g></svg>