<svg id="Capa_1" enable-background="new 0 0 512 512" height="512" viewBox="0 0 512 512" width="512" xmlns="http://www.w3.org/2000/svg"><g><g><path d="m326.14 349.728c-4.941-2.868-8.72-7.355-10.727-12.645-1.043-2.749-107.355-8.782-107.355-8.782 0 10.99-7.349 28.45-17.892 31.551 0 0 59.946 41.267 124.452 26.498z" fill="#f9d8af"/></g><path d="m313.806 328.301v-39.269h-115.612v39.269c0 8.971-4.824 17.066-12.331 21.425l7.428 14.72c3.946-2.202 7.472-5.024 10.46-8.328 5.269-5.825 13.109-8.217 20.604-5.871 10.003 3.131 20.619 4.849 31.645 4.849 21.981 0 42.377-6.633 59.414-18.013-1.042-2.747-1.608-5.716-1.608-8.782z" fill="#f2c59a"/><path d="m418.626 377.668-80.614-23.71-82.012 34.171-74.304-29.579-81.049 19.118c-21.087 6.202-35.568 25.555-35.568 47.535v62.023l9.244 23.365c2.583.913 5.362 1.409 8.257 1.409h346.839c13.682 0 24.774-11.092 24.774-24.774v-62.023c.001-21.98-14.48-41.333-35.567-47.535z" fill="#d8d5d8"/><g><path d="m363.724 361.52-32.134-9.451c-1.926-.567-3.768-1.368-5.45-2.341-19.974 13.801-44.076 21.885-70.14 21.885-19.723 0-38.321-4.63-54.858-12.863l-52.865 2.77-54.903 16.148c-21.087 6.202-35.567 25.555-35.567 47.535v62.023c0 10.771 6.916 19.955 16.516 23.367v-85.392c0-14.651 9.651-27.55 23.706-31.684l65.674-19.32c25.927 19.023 57.744 30.448 92.297 30.448 41.72 0 79.589-16.474 107.724-43.125z" fill="#c7c2c6"/></g><g><path d="m374.564 165.161h-2.951l-16.516-90.839h-182.719l-7.841 132.129c4.23 55.419 34.96 99.097 91.463 99.097s102.708-43.678 106.938-99.097h11.627c11.402 0 20.645-9.243 20.645-20.645-.001-11.402-9.244-20.645-20.646-20.645z" fill="#fbe7c3"/></g><g><path d="m148.645 74.323-8.258 90.839h-2.95c-10.799 0-20.64 7.77-21.717 18.515-1.238 12.358 8.433 22.775 20.538 22.775h12.804c4.23 55.419 50.435 99.097 106.938 99.097 5.649 0 11.157-.55 16.568-1.392-51.454-7.941-90.891-52.286-90.891-105.963v-82.581c0-9.122 7.395-16.516 16.516-16.516h66.291c6.877 5.121 15.314 8.258 24.547 8.258 6.781 0 13.084-1.791 18.728-4.687 10.937 8.101 24.417 12.945 39.078 12.945 5.714 0 11.228-.801 16.516-2.165v-39.125z" fill="#f9d8af"/></g><g><path d="m377.931 75.665-31.092-75.665h-115.613c-65.168 0-88.605 33.747-84.716 72.638l18.651 39.533c0-18.243 14.789-33.032 33.032-33.032h148.646l-.001 69.505c0 9.122 7.395 16.517 16.516 16.517h8.259l6.872-89.333z" fill="#ffa65a"/></g><g><path d="m231.226 0h-34.355c-39.085 0-69.626 33.747-65.736 72.638l9.253 92.523h8.257c9.121 0 16.516-7.394 16.516-16.516l.001-41.291v-41.29c-.001-36.486 29.577-66.064 66.064-66.064z" fill="#ff8857"/></g><g><path d="m206.452 189.935c-4.565 0-8.258-3.698-8.258-8.258v-8.258c0-4.56 3.694-8.258 8.258-8.258s8.258 3.698 8.258 8.258v8.258c0 4.561-3.694 8.258-8.258 8.258z" fill="#6b4f5a"/></g><g><path d="m305.548 189.935c-4.565 0-8.258-3.698-8.258-8.258v-8.258c0-4.56 3.694-8.258 8.258-8.258s8.258 3.698 8.258 8.258v8.258c0 4.561-3.693 8.258-8.258 8.258z" fill="#6b4f5a"/></g><g><path d="m214.71 156.903h-16.516c-4.565 0-8.258-3.698-8.258-8.258s3.694-8.258 8.258-8.258h16.516c4.565 0 8.258 3.698 8.258 8.258s-3.694 8.258-8.258 8.258z" fill="#ff8857"/></g><g><path d="m313.806 156.903h-16.516c-4.565 0-8.258-3.698-8.258-8.258s3.694-8.258 8.258-8.258h16.516c4.565 0 8.258 3.698 8.258 8.258s-3.693 8.258-8.258 8.258z" fill="#ff8857"/></g><path d="m346.839 0c-25.099 0-45.826 18.667-49.088 42.873-2.712-1.02-5.649-1.582-8.719-1.582-13.682 0-24.774 11.091-24.774 24.774s11.092 24.774 24.774 24.774c8.004 0 15.117-3.799 19.646-9.688 9.089 10.962 22.808 17.946 38.161 17.946 27.365 0 49.548-22.184 49.548-49.548s-22.183-49.549-49.548-49.549z" fill="#ffa65a"/><g><path d="m322.064 214.71h-123.87c-13.682 0-20.19 11.092-20.19 24.774v8.258c0 50.169 27.828 89.523 77.996 89.523 5.688 0 16.651-.207 16.651-.207 42.216-7.821 74.187-44.835 74.187-89.316v-8.258c.001-13.683-11.091-24.774-24.774-24.774z" fill="#ffa65a"/></g><g><path d="m256 264.258c-12.387 0-23.823-3.976-30.573-10.637-3.25-3.202-3.282-8.431-.081-11.677 3.202-3.25 8.444-3.282 11.677-.081 2.75 2.714 9.371 5.879 18.976 5.879s16.226-3.165 18.976-5.879c3.234-3.202 8.476-3.169 11.677.081 3.202 3.246 3.169 8.476-.081 11.677-6.748 6.661-18.184 10.637-30.571 10.637z" fill="#ff8857"/></g><g><path d="m198.194 247.742v-33.032h-8.258c-13.682 0-24.774 11.092-24.774 24.774v8.258c0 50.169 40.67 90.839 90.838 90.839 5.649 0 11.288-.536 16.651-1.523-42.271-7.777-74.457-44.796-74.457-89.316z" fill="#ff8857"/></g><g><path d="m185.862 349.726c-1.681.973-3.527 1.776-5.453 2.343l-32.134 9.451c4.833 4.578 10.049 8.732 15.427 12.677l21.369-6.286c6.127-1.802 11.569-4.996 16.069-9.161-5.323-2.651-10.417-5.665-15.278-9.024z" fill="#b5afb5"/></g></g></svg>