<svg id="Capa_1" enable-background="new 0 0 512 512" height="512" viewBox="0 0 512 512" width="512" xmlns="http://www.w3.org/2000/svg"><g><g><path d="m280.774 99.097h-49.548c-27.365 0-49.548-22.184-49.548-49.548-.001-27.365 22.183-49.549 49.548-49.549h49.548c27.365 0 49.548 22.184 49.548 49.548.001 27.365-22.183 49.549-49.548 49.549z" fill="#6b4f5a"/></g><g><path d="m363.355 338.581h-214.71c-22.804 0-41.29 18.486-41.29 41.29v57.806h297.29v-57.806c0-22.804-18.486-41.29-41.29-41.29z" fill="#847f84"/></g><path d="m346.839 386.186-19.252-6.795c-13.207-4.661-22.039-17.144-22.039-31.149v-3.712h-86.605v3.712c0 14.005-8.832 26.488-22.039 31.149l-27.51 9.709-12.492 43.947h189.935v-46.861z" fill="#c7805d"/><g><path d="m206.452 305.548v42.693c0 14.005-8.832 26.488-22.039 31.15l-85.291 30.103c-19.81 6.992-33.057 25.716-33.057 46.723v31.009c0 10.771 6.916 19.844 16.516 23.257v-54.262c0-14.006 8.832-26.49 22.04-31.152l85.282-30.101c14.346-5.062 25.208-16.343 30.097-30.157 2.654-7.499 9.817-12.464 17.671-11.201 5.984.962 12.098 1.487 18.329 1.487 17.548 0 34.301-3.825 49.548-10.567v-38.982z" fill="#b06e4d"/></g><path d="m412.878 409.494-43.093-15.325-28.893 16.785c-24.058 16.825-53.301 26.723-84.892 26.723-42.121 0-76.144-9.386-103.192-37.535l-49.762 17.563c-19.81 6.991-33.058 25.715-33.058 46.723l12.593 46.162c2.583.913 5.362 1.409 8.257 1.409h49.548l21.326-11.188 19.965 11.189h148.645l21.869-11.84 19.422 11.84h49.548c13.682 0 24.774-11.092 24.774-24.774v-31.009c.001-21.008-13.247-39.732-33.057-46.723z" fill="#ff8087"/><g><path d="m104.621 425.069 58.194-20.54c-4.876-3.946-9.59-8.08-13.931-12.598h-.001l-49.762 17.563c-19.81 6.991-33.057 25.716-33.057 46.723v31.009c0 10.771 6.916 19.955 16.516 23.367v-54.372c.001-14.007 8.833-26.491 22.041-31.152z" fill="#ff646f"/></g><g><path d="m362.519 391.72-16.832-5.941c-23.587 21.881-55.053 35.382-89.687 35.382s-66.1-13.501-89.687-35.382l-21.335 7.53c-1.209 5.001-2.047 10.075-2.658 15.19 29.625 28.246 69.61 45.694 113.679 45.694 41.251 0 78.926-15.288 107.874-40.408-.833-7.328-1.377-14.68-1.354-22.065z" fill="#ff979d"/></g><g><path d="m363.355 123.871h-197.716l.417 115.613c4.23 55.419 33.441 98.106 89.943 98.106 5.642 0 16.586-.284 16.586-.284 48.725-7.565 86.544-47.937 90.351-97.822h12.804c11.402 0 20.645-9.243 20.645-20.645 0-6.755-3.243-12.754-8.258-16.521-3.448-2.591-24.772-78.447-24.772-78.447z" fill="#e0916d"/></g><g><path d="m280.774 132.129-147.297 53.968-9.618 16.593c-4.441 3.312-7.56 8.234-8.139 14.019-1.237 12.358 8.434 22.775 20.538 22.775h12.804c4.23 55.419 50.435 99.097 106.938 99.097 5.649 0 11.175-.433 16.586-1.275-51.454-7.941-90.909-52.403-90.909-106.08v-8.4c0-7.369 4.851-13.961 11.973-15.853 28.442-7.556 55.399-20.562 78.885-38.522l23.87-18.53z" fill="#c7805d"/></g><path d="m388.128 173.058-1.226-16.524c-3.996-27.261-17.522-51.417-37.07-69.017l-77.316 45.687c19.64 37.487 58.336 63.518 103.226 64.989 4.522.148 10.137 2.424 12.387 4.125v-28.898c0-.121 0-.241-.001-.362z" fill="#6b4f5a"/><g><path d="m255.629 289.032c-12.387 0-23.823-3.976-30.573-10.637-3.25-3.202-3.282-8.431-.081-11.677 3.202-3.25 8.444-3.282 11.677-.081 2.75 2.714 9.371 5.879 18.976 5.879s16.226-3.165 18.976-5.879c3.234-3.202 8.476-3.169 11.677.081 3.202 3.246 3.169 8.476-.081 11.677-6.748 6.661-18.184 10.637-30.571 10.637z" fill="#b06e4d"/></g><g><path d="m206.081 231.105c-4.565 0-8.258-3.698-8.258-8.258v-8.258c0-4.56 3.694-8.258 8.258-8.258s8.258 3.698 8.258 8.258v8.258c0 4.56-3.694 8.258-8.258 8.258z" fill="#61444f"/></g><g><path d="m305.177 231.105c-4.565 0-8.258-3.698-8.258-8.258v-8.258c0-4.56 3.694-8.258 8.258-8.258s8.258 3.698 8.258 8.258v8.258c0 4.56-3.693 8.258-8.258 8.258z" fill="#61444f"/></g><g><path d="m173.419 371.613h-16.516c-4.561 0-8.258 3.697-8.258 8.258l8.258 132.129h24.774v-57.806l-8.453-17.02 8.453-16.013v-41.29c0-4.561-3.697-8.258-8.258-8.258z" fill="#736572"/></g><path d="m386.903 156.534c-2.271.209-4.707.369-7.032.369-29.053 0-54.152-16.813-66.356-41.173l36.317-28.213c-20.486-18.451-47.575-29.71-77.316-29.71h-33.032c-63.851 0-115.613 51.761-115.613 115.613l-.012 29.271c3.809-2.841 8.59-4.497 13.577-4.497 45.765 0 88.713-15.062 125.067-42.863l37.723-29.285c15.437 28.181 45.309 47.374 79.645 47.374 2.779 0 5.541-.116 8.258-.361-.021-5.6-.436-11.141-1.226-16.525z" fill="#61444f"/><g><path d="m181.677 421.161h-24.774v-49.548h-8.258c-4.561 0-8.258 3.697-8.258 8.258v41.29l5.905 16.23-5.905 16.802v57.807h16.516v-57.806h24.774z" fill="#615260"/></g><g><path d="m140.387 421.161h16.516v33.032h-16.516z" fill="#4e3d4d"/></g><g><path d="m363.355 371.613h-16.516c-4.561 0-8.258 3.697-8.258 8.258l8.258 132.129h24.774v-57.806l-8.454-17.02 8.454-16.013v-41.29c0-4.561-3.697-8.258-8.258-8.258z" fill="#736572"/></g><g><path d="m371.613 421.161h-24.774v-49.548h-8.258c-4.561 0-8.258 3.697-8.258 8.258v41.29l5.905 16.23-5.905 16.802v57.807h16.516v-57.806h24.774z" fill="#615260"/></g><g><path d="m330.323 421.161h16.516v33.032h-16.516z" fill="#4e3d4d"/></g></g></svg>