<svg id="Capa_1" enable-background="new 0 0 512 512" height="512" viewBox="0 0 512 512" width="512" xmlns="http://www.w3.org/2000/svg"><g><g><path d="m379.871 222.968c-2.235 29.372 6.79 68.162 12.174 88.069 1.611 5.958-3.627 11.47-9.668 10.206l-35.539-7.436-16.516-41.29 41.29-57.807z" fill="#ffcd5c"/></g><g><path d="m297.29 330.324 48.469 14.682c6.075 1.84 11.881-3.521 10.452-9.705-5.405-23.39-15.783-70.602-17.631-95.815z" fill="#ffbf63"/></g><g><path d="m131.547 222.968c2.235 29.372-6.79 68.162-12.174 88.069-1.611 5.958 3.627 11.47 9.668 10.206l35.539-7.436 16.516-41.29-41.29-57.807z" fill="#ffbf63"/></g><g><path d="m214.128 330.324-48.469 14.682c-6.075 1.84-11.881-3.521-10.452-9.705 5.405-23.39 15.783-70.602 17.631-95.815z" fill="#ffa65a"/></g><path d="m426.738 194.526c-11.721-48.07-28.466-70.012-28.466-70.012l11.335-14.169c2.684-3.355 2.383-8.171-.739-11.122-9.215-8.712-28.375-27.742-45.604-50.713-2.378-3.171-4.655-6.649-7.192-10.242l-12.084-14.239c-5.529-5.136-12.581-9.984-22.239-13.961l-15.777-5.049c-10.935-2.656-24.3-4.419-40.838-4.891l-172.903 170.112c-2.471 7.423-4.832 15.513-6.971 24.275-1.392 5.705 3.376 11.072 9.19 10.242l45.937-6.563h231.227l45.932 6.562c5.801.829 10.58-4.536 9.192-10.23z" fill="#ffbf63"/><path d="m326.263 374.481c-7.557-4.345-12.456-12.401-12.456-21.406v-20.59l-103.009-21.293-11.294 90.353h129.882z" fill="#ffce8a"/><path d="m198.193 305.549v47.526c0 8.966-4.955 17.047-12.456 21.406l7.829 14.627c12.846-7.179 21.143-20.851 21.143-36.034 0-6.589 6.201-11.232 12.606-9.681 9.203 2.228 18.794 3.448 28.685 3.448 20.89 0 40.542-5.222 57.807-14.354v-26.936h-115.614z" fill="#f8ba7e"/><g><path d="m374.565 189.936h-11.21c-9.121 0-16.516-7.395-16.516-16.516v-50.374l-57.807 17.342-42.362-37.068-68.452-12.481v82.581c0 9.122-16.072 57.807-16.072 57.807 4.23 55.419 37.351 98.101 93.854 98.101 5.668 0 11.232.556 16.66-.29 48.69-7.595 86.472-47.951 90.277-97.811h12.804c12.105 0 21.776-10.417 20.538-22.775-1.074-10.746-10.915-18.516-21.714-18.516z" fill="#fd9"/></g><g><path d="m181.677 222.968v-57.955c0-5.786 2.979-11.229 7.982-14.136 20.623-11.983 40.814-27.49 57.011-47.557l-14.265-12.481h-67.245v82.581c0 9.122-7.395 16.516-16.516 16.516h-11.21c-10.799 0-20.64 7.77-21.716 18.515-1.238 12.358 8.433 22.775 20.538 22.775h12.804c4.23 55.419 50.435 99.097 106.938 99.097 5.649 0 11.249-.445 16.66-1.286-51.451-7.94-90.981-52.392-90.981-106.069z" fill="#ffce8a"/></g><g><path d="m265.133.127c-3-.088-5.918-.127-9.133-.127-82.581 0-93.139 29.676-107.264 48.509-13.925 18.566-28.592 32.756-38.34 41.316-4.787 4.204-3.168 11.982 2.876 13.997l10.598 3.533s-17.584 20.683-31.64 62.885c47.678-10.047 174.072-48.286 172.903-170.113z" fill="#ffa65a"/></g><g><path d="m206.451 214.71c-4.565 0-8.258-3.694-8.258-8.258v-8.258c0-4.565 3.694-8.258 8.258-8.258s8.258 3.694 8.258 8.258v8.258c.001 4.565-3.693 8.258-8.258 8.258z" fill="#61444f"/></g><g><path d="m305.549 214.71c-4.565 0-8.258-3.694-8.258-8.258v-8.258c0-4.565 3.694-8.258 8.258-8.258 4.565 0 8.258 3.694 8.258 8.258v8.258c0 4.565-3.694 8.258-8.258 8.258z" fill="#61444f"/></g><g><path d="m256 272.517c-12.387 0-23.815-3.976-30.573-10.637-3.25-3.202-3.282-8.427-.081-11.677 3.194-3.25 8.411-3.29 11.677-.081 2.75 2.71 9.371 5.879 18.976 5.879s16.226-3.169 18.976-5.879c3.258-3.202 8.484-3.153 11.677.081 3.202 3.25 3.169 8.476-.081 11.677-6.756 6.661-18.184 10.637-30.571 10.637z" fill="#f8ba7e"/></g><g><path d="m214.71 181.678h-16.516c-4.565 0-8.258-3.694-8.258-8.258s3.694-8.258 8.258-8.258h16.516c4.565 0 8.258 3.694 8.258 8.258s-3.694 8.258-8.258 8.258z" fill="#ff8857"/></g><g><path d="m313.807 181.678h-16.517c-4.565 0-8.258-3.694-8.258-8.258s3.694-8.258 8.258-8.258h16.516c4.565 0 8.258 3.694 8.258 8.258s-3.693 8.258-8.257 8.258z" fill="#ff8857"/></g><g><path d="m231.234 148.646c2.016 0 4.04-.734 5.629-2.226 2.711-2.533 59.268-56.246 84.886-136.353-4.626-1.907-9.835-3.606-15.777-5.049-24.558 76.215-79.756 128.753-80.391 129.338-3.323 3.121-3.5 8.347-.379 11.677 1.62 1.734 3.822 2.613 6.032 2.613z" fill="#ffa65a"/></g><g><path d="m312.847 104.968c2.573 0 5.113-1.202 6.726-3.452 1.137-1.593 23.398-32.866 36.499-63.249-3.314-4.694-7.08-9.587-12.084-14.239-11.342 30.605-37.552 67.467-37.85 67.875-2.653 3.71-1.798 8.863 1.911 11.524 1.459 1.041 3.137 1.541 4.798 1.541z" fill="#ffa65a"/></g><path d="m418.627 402.442-52.418-15.417-100.679 24.945-85.14-22.588-83.62 19.547c-21.087 6.202-31.059 19.067-31.059 41.047v37.249l8.615 23.366c2.582.912 5.36 1.408 8.254 1.408h346.84c13.682 0 24.774-11.092 24.774-24.774v-37.249c0-21.979-14.48-41.332-35.567-47.534z" fill="#d8d5d8"/><g><path d="m98.028 418.293 63.572-18.699 8.473-9.778-24.282-2.792-52.418 15.417c-21.087 6.202-35.568 25.555-35.568 47.535v37.249c0 10.771 6.916 19.965 16.516 23.378v-60.626c.001-14.65 9.652-27.549 23.707-31.684z" fill="#c7c2c6"/></g><g><path d="m256 429.421c42.41 0 80.961-16.122 110.209-42.396l-34.619-10.182c-1.907-.561-3.659-1.401-5.327-2.361-19.971 13.789-44.157 21.907-70.263 21.907-19.671 0-38.252-4.609-54.761-12.781l-39.639 15.986c26.749 18.751 59.249 29.827 94.4 29.827z" fill="#e9e7e9"/></g><g><path d="m185.737 374.481c-1.668.96-3.42 1.8-5.327 2.361l-34.619 10.182c5.034 4.522 10.251 8.678 15.809 12.569l23.474-6.91c6.146-1.808 11.646-4.962 16.165-9.076-5.367-2.662-10.607-5.746-15.502-9.126z" fill="#d8d5d8"/></g></g></svg>