<svg id="Capa_1" enable-background="new 0 0 512 512" height="512" viewBox="0 0 512 512" width="512" xmlns="http://www.w3.org/2000/svg"><g><path d="m325.642 344.522c-7.74-4.197-12.753-12.36-12.753-21.432v-20.264h-106v34.431l-10.86 5.213v92.09h141.611c0-.001-10.51-89.231-11.998-90.038z" fill="#f1a673"/><path d="m199.111 260.063v63.027c0 9.065-5.005 17.221-12.734 21.421l2.701 7.981 10.455 3.271c9.732-6.797 15.832-17.284 15.832-30.052 0-7.587 6.985-13.354 14.388-11.69 8.449 1.898 17.221 2.93 26.247 2.93 20.559 0 39.899-5.139 56.889-14.127v-42.762h-113.778z" fill="#df976c"/><path d="m445.978 396.8-9.599-13.21c-5.569-5.45-12.487-9.609-20.335-11.917l-56.691-16.674-87.099 50.227v8.38c0 8.097-5.532 15.601-13.524 16.901-10.183 1.657-18.984-6.16-18.984-16.031v-9.25l-73.255-46.793-65.158 22.262c-20.752 6.104-35.186 17.898-35.186 39.529l11.059 90.394c2.542.898 5.278 1.382 8.127 1.382h32.508l7.6-5.984 8.654 5.984h243.81l8.007-6.31 8.247 6.31h32.508c13.465 0 24.381-10.916 24.381-24.381v-69.165c0-7.702-1.807-15.075-5.07-21.654z" fill="#76d4ec"/><path d="m120.349 423.056-32.441-28.621c3.552-3.227 7.805-5.746 12.631-7.165l77.061-22.66-24.954-9.611-56.692 16.674c-20.752 6.104-35.003 25.149-35.003 46.781v69.165c0 10.6 6.806 19.641 16.254 22.999v-92.166c0-3.576.59-7.044 1.68-10.302l30.709 27.096c5.238 4.627 8.246 11.294 8.246 18.278v58.476h16.254v-58.476c.001-11.643-5.007-22.746-13.745-30.468z" fill="#4fc0ec"/><g><path d="m134.095 48.762 22.839 141.237c0 58.349 40.716 108.923 99.066 108.923 5.691 0 11.276 1.327 16.723.461 50.403-8.015 88.928-51.676 88.928-104.335l16.254-32.508v-113.778z" fill="#f8ba7e"/></g><g><path d="m182.857 195.048v-92.501c0-6.041 6.358-9.971 11.761-7.269l11.988 5.994c4.551 2.276 10.051-.144 11.449-5.036l13.564-47.473h-97.524v113.777l16.254 32.508c0 58.349 47.302 105.651 105.651 105.651 5.542 0 11.411-.494 16.723-1.316-50.612-7.837-89.866-51.528-89.866-104.335z" fill="#f1a673"/></g><g><path d="m386.032 162.54-16.254-16.254c-8.977 0-16.254-7.277-16.254-16.254v-65.016h32.508z" fill="#4fc0ec"/></g><g><path d="m125.968 154.413 16.254-8.127c8.977 0 16.254-7.277 16.254-16.254v-32.508c0-8.159 1.731-15.905 4.837-22.908 4.055-9.143 15.524-12.28 23.846-6.732l33.095 22.063c5.127 3.418 12.044.11 12.602-6.026l6.89-75.794h-24.381c-49.373 0-89.397 40.024-89.397 89.397z" fill="#4fc0ec"/></g><g><path d="m296.635 8.127h-81.27v17.91c0 9.285 3.971 18.128 10.911 24.297l52.203 46.403c4.563 4.056 11.803 1.82 13.284-4.103l4.872-19.49 21.39 14.26c1.905 1.27 4.258 1.678 6.479 1.122l58.284-14.571c-10.356-37.919-44.952-65.828-86.153-65.828z" fill="#76d4ec"/></g><g><path d="m394.159 162.54h-16.254v-65.016c0-44.81-36.46-81.27-81.27-81.27h-81.27c-44.81 0-81.27 36.46-81.27 81.27v65.016h-16.254v-65.016c0-53.778 43.746-97.524 97.524-97.524h81.27c53.778 0 97.524 43.746 97.524 97.524z" fill="#87646f"/></g><g><path d="m207.238 186.921c-4.492 0-8.127-3.635-8.127-8.127v-8.127c0-4.492 3.635-8.127 8.127-8.127s8.127 3.635 8.127 8.127v8.127c0 4.492-3.635 8.127-8.127 8.127z" fill="#61444f"/></g><g><path d="m304.762 186.921c-4.492 0-8.127-3.635-8.127-8.127v-8.127c0-4.492 3.635-8.127 8.127-8.127s8.127 3.635 8.127 8.127v8.127c0 4.492-3.635 8.127-8.127 8.127z" fill="#61444f"/></g><g><path d="m256 243.81c-12.198 0-23.444-3.913-30.087-10.468-3.198-3.159-3.23-8.302-.079-11.492 3.167-3.198 8.31-3.23 11.492-.079 2.706 2.667 9.214 5.786 18.675 5.786 9.46 0 15.968-3.119 18.675-5.786 3.183-3.151 8.325-3.119 11.492.079 3.151 3.19 3.119 8.333-.079 11.492-6.645 6.555-17.891 10.468-30.089 10.468z" fill="#d18964"/></g><g><path d="m215.365 154.413h-16.254c-4.492 0-8.127-3.635-8.127-8.127s3.635-8.127 8.127-8.127h16.254c4.492 0 8.127 3.635 8.127 8.127s-3.635 8.127-8.127 8.127z" fill="#87646f"/></g><g><path d="m312.889 154.413h-16.254c-4.492 0-8.127-3.635-8.127-8.127s3.635-8.127 8.127-8.127h16.254c4.492 0 8.127 3.635 8.127 8.127s-3.635 8.127-8.127 8.127z" fill="#87646f"/></g><g><path d="m377.905 146.286h-8.127c-4.488 0-8.127 3.639-8.127 8.127v40.635c0 11.35-1.796 22.26-5.109 32.508h21.363c13.465 0 24.381-10.916 24.381-24.381v-32.508c0-13.466-10.916-24.381-24.381-24.381z" fill="#6b4f5a"/></g><g><path d="m150.349 195.048v-40.635c0-4.488-3.639-8.127-8.127-8.127h-8.127c-13.465 0-24.381 10.916-24.381 24.381v32.508c0 13.465 10.916 24.381 24.381 24.381h21.357c-3.313-10.248-5.103-21.158-5.103-32.508z" fill="#61444f"/></g><g><path d="m359.353 354.999-28.962-8.518c-1.669-.491-3.264-1.154-4.749-1.958-12.619 12.901-28.755 22.19-46.892 26.523-3.752.897-6.496 4.092-6.496 7.95v26.231c35.484-4.436 66.449-23.146 87.099-50.228z" fill="#ffce8a"/></g><g><path d="m239.746 405.226v-26.231c0-3.858-2.744-7.053-6.496-7.95-12.306-2.94-23.713-8.184-33.717-15.281l-35.066 12.715c19.861 19.742 46.035 33.092 75.279 36.747z" fill="#ffce8a"/></g><g><path d="m402.405 435.246 43.573-38.446c-2.436-4.918-5.68-9.375-9.599-13.21l-44.729 39.465c-8.738 7.722-13.746 18.825-13.746 30.468v58.477h16.254v-58.476c.001-6.984 3.009-13.651 8.247-18.278z" fill="#4fc0ec"/></g><g><path d="m199.533 355.764c-4.712-3.35-9.121-7.127-13.156-11.253-1.485.804-3.099 1.478-4.768 1.969l-28.962 8.518c3.647 4.783 7.562 9.252 11.821 13.48l21.739-6.399c4.934-1.455 9.408-3.572 13.326-6.315z" fill="#f8ba7e"/></g></g></svg>