<svg id="Capa_1" enable-background="new 0 0 512 512" height="512" viewBox="0 0 512 512" width="512" xmlns="http://www.w3.org/2000/svg"><g><path d="m262.601 120.608-146.988 52.116v141.082l90.3 53.1z" fill="#61444f"/><path d="m336.265 25.193-80.265 16.899v329.041h71.587s68.8-56.639 68.8-167.434v-63.312c0-47.688-23.777-89.822-60.122-115.194z" fill="#87646f"/><g><path d="m99.122 401.236 85.291-30.103c13.207-4.661 22.039-17.144 22.039-31.149v-20.226h99.097v20.226c0 14.005 8.832 26.488 22.038 31.149l85.291 30.103c19.81 6.992 33.057 25.716 33.057 46.723v39.267c0 13.682-11.092 24.774-24.774 24.774h-330.322c-13.682 0-24.774-11.092-24.774-24.774v-39.267c-.001-21.007 13.247-39.731 33.057-46.723z" fill="#f5ab73"/></g><g><path d="m239.484 404.645 5.437 2.718c6.975 3.487 15.184 3.487 22.159 0l5.437-2.718 8.258 8.258v90.839l-8.259 8.258h-33.032l-8.258-8.258v-90.839z" fill="#61444f"/></g><path d="m206.452 371.613h-23.398l-45.666 16.117 11.257 124.27h90.839v-107.355z" fill="#ff7e8f"/><g><path d="m132.129 389.586-33.007 11.65c-19.81 6.991-33.057 25.716-33.057 46.723v39.267c0 13.682 11.092 24.774 24.774 24.774h24.774z" fill="#fc5f7a"/></g><g><path d="m188.097 333.093c.913-5.48 6.869-8.513 11.839-6.029l25.853 12.926c8.393 4.197 13.695 12.775 13.695 22.159v42.495l-57.806-33.032z" fill="#fc5f7a"/></g><path d="m441.91 428.392-9.067-13.99c-5.361-5.827-12.153-10.409-19.965-13.166l-83.932-29.623h-23.398l-33.032 33.032v107.355h99.097l7.621-7.61 8.895 7.61h33.032c13.682 0 24.774-11.092 24.774-24.774v-39.267c.001-6.877-1.419-13.511-4.025-19.567z" fill="#ff7e8f"/><g><path d="m386.032 454.552 46.811-40.15c3.786 4.119 6.862 8.829 9.075 13.986l-45.144 38.704c-5.492 4.71-8.645 11.565-8.645 18.81v26.098h-16.516v-26.097c0-12.072 5.258-23.5 14.419-31.351z" fill="#fc5f7a"/></g><g><path d="m305.548 319.758c-13.436 5.983-28.091 9.695-43.582 10.424-1.999.094-3.989.141-5.967.141-17.619 0-34.359-3.755-49.548-10.415v-30.876h99.097z" fill="#df976c"/></g><path d="m388.022 191.935c-1.076-10.745-10.917-18.515-21.716-18.515-10.752 0-19.468-8.716-19.468-19.468v-13.565c0-19.565-13.608-35.952-31.876-40.212l-149.801 40.212-5.62 61.343c4.23 55.419 39.956 110.28 96.458 110.28 5.672 0 11.24 1.356 16.672.508 48.684-7.599 86.461-47.953 90.266-97.809h4.546c12.105.001 21.777-10.417 20.539-22.774z" fill="#f8ba7e"/><g><path d="m314.963 100.175c-3.018-.702-6.182-1.078-9.414-1.078h-99.097c-9.339 0-17.857 3.217-24.774 8.445-9.974 7.537-16.516 19.381-16.516 32.845v14.409c0 10.709-8.982 18.518-19.69 18.624-10.711.106-20.424 7.842-21.493 18.514-1.237 12.358 8.433 22.775 20.538 22.775h4.546c4.23 55.419 50.435 99.097 106.938 99.097 5.649 0 11.26-.447 16.672-1.288-51.454-7.941-90.994-52.39-90.994-106.067v-2.87c0-10.948 7.223-20.492 17.7-23.668 45.931-13.926 86.339-41.894 115.584-79.738z" fill="#f5ab73"/></g><g><path d="m305.548 198.194c4.565 0 8.258-3.698 8.258-8.258v-8.258c0-4.56-3.694-8.258-8.258-8.258-4.565 0-8.258 3.698-8.258 8.258v8.258c0 4.56 3.694 8.258 8.258 8.258z" fill="#61444f"/></g><g><path d="m206.452 198.194c4.565 0 8.258-3.698 8.258-8.258v-8.258c0-4.56-3.694-8.258-8.258-8.258s-8.258 3.698-8.258 8.258v8.258c0 4.56 3.693 8.258 8.258 8.258z" fill="#61444f"/></g><g><path d="m256 256c12.387 0 23.823-3.976 30.573-10.637 3.25-3.202 3.282-8.431.081-11.677-3.202-3.25-8.444-3.282-11.677-.081-2.75 2.714-9.371 5.879-18.976 5.879s-16.226-3.165-18.976-5.879c-3.234-3.202-8.476-3.169-11.677.081-3.202 3.246-3.169 8.476.081 11.677 6.748 6.661 18.184 10.637 30.571 10.637z" fill="#fc5f7a"/></g><g><path d="m256 0c29.867 0 57.508 9.293 80.265 25.193-28.029 85.974-108.806 148.226-204.136 148.226-5.564 0-11.059-.279-16.516-.695v-32.338c0-77.533 62.853-140.386 140.387-140.386z" fill="#6b4f5a"/></g><g><path d="m206.452 313.806v33.032c0 72.919-57.806 99.097-57.806 165.161h-33.032v-198.193z" fill="#61444f"/></g><g><path d="m323.903 333.093c-.913-5.48-6.869-8.513-11.839-6.029l-25.853 12.926c-8.393 4.197-13.695 12.775-13.695 22.159v42.495l57.806-33.032z" fill="#fc5f7a"/></g><g><path d="m313.806 165.161h-16.516c-4.565 0-8.258-3.694-8.258-8.258s3.694-8.258 8.258-8.258h16.516c4.565 0 8.258 3.694 8.258 8.258s-3.693 8.258-8.258 8.258z" fill="#87646f"/></g><g><path d="m214.71 165.161h-16.516c-4.565 0-8.258-3.694-8.258-8.258s3.694-8.258 8.258-8.258h16.516c4.565 0 8.258 3.694 8.258 8.258s-3.694 8.258-8.258 8.258z" fill="#61444f"/></g></g></svg>