<svg id="Capa_1" enable-background="new 0 0 512 512" height="512" viewBox="0 0 512 512" width="512" xmlns="http://www.w3.org/2000/svg"><g><g><path d="m379.871 165.161v53.879c0 5.598-5.892 9.24-10.899 6.736l-22.133-11.067 8.258-57.806z" fill="#61444f"/></g><g><path d="m361.383 201.199-43.757 90.666c21.176 15.723 45.564 20.448 61.523 21.727 6.803.546 11.11-6.986 7.466-12.758-10.357-16.407-25.232-48.819-25.232-99.635z" fill="#6b4f5a"/></g><g><path d="m155.032 332.194c-3.427 0-6.629-2.153-7.806-5.573-1.484-4.306.568-8.221 5.097-10.488.258-.093 22.718-12.369 39.863-38.93 2.468-3.835 11.065-2.006 14.903.458 3.831 2.472 10.777 13.535 8.301 17.366-20.347 31.54-59.463 37.167-60.358 37.167z" fill="#6b4f5a"/></g><g><path d="m125.71 183.263c2.498 50.581-15.391 82.004-26.486 96.425-3.969 5.158-1.422 12.716 4.825 14.543 16.887 4.939 47.415 8.235 76.366-17.7l-24.214-111.203z" fill="#61444f"/></g><path d="m442.364 420.2-8.773-14.25c-5.176-5.886-11.778-10.583-19.418-13.521l-75.593-29.074-82.58 33.032-74.244-33.032-75.593 29.074c-19.135 7.36-31.762 25.744-31.762 46.246v48.551l8.181 23.365c2.583.913 5.362 1.409 8.257 1.409h33.032l7.434-5.978 9.082 5.978h231.226l8.597-5.652 7.919 5.652h33.032c13.682 0 24.774-11.092 24.774-24.774v-48.551c.001-6.462-1.254-12.713-3.571-18.475z" fill="#c8adef"/><g><path d="m125.968 446.294-34.746-29.784c3.412-3.768 7.679-6.8 12.601-8.695l91.514-35.693-21.917-8.767-75.593 29.074c-19.136 7.359-31.762 25.744-31.762 46.246v48.551c0 10.771 6.916 19.955 16.516 23.368v-71.92c0-2.416.358-4.768.873-7.074l31.772 27.235c5.492 4.71 8.645 11.565 8.645 18.81v34.355h16.516v-34.355c0-12.072-5.258-23.5-14.419-31.351z" fill="#ba91d9"/></g><g><path d="m213.839 319.947h91.709v92.957h-91.709z" fill="#f1a673"/></g><g><path d="m256 330.323c17.629 0 34.367-3.738 49.548-10.376v-39.172h-99.097v132.129h18.935v-66.877c0-9.776 8.434-17.414 18.155-16.374 4.093.437 8.247.67 12.459.67z" fill="#df976c"/></g><g><path d="m256 312.122c-59.291 0-94.396-46.38-94.396-105.67v-132.129h201.751v132.129c0 53.611-39.297 98.044-90.658 106.064-5.441.849-11.018-.394-16.697-.394z" fill="#f8ba7e"/></g><g><path d="m181.677 206.452v-15.718c0-7.583 2.659-14.885 7.423-20.785 6.801-8.422 12.675-17.815 17.408-27.991l7.103-15.274 6.233-13.403-71.199-38.959v132.129c0 59.29 48.065 107.355 107.355 107.355 5.632 0 11.299-.455 16.697-1.291-51.428-7.962-91.02-52.405-91.02-106.063z" fill="#f1a673"/></g><path d="m247.281.277c-41.938 2.646-79.716 24.095-103.739 56.314l-1.689 30.714 26.62 5.721c20.3 26.064 51.923 42.848 87.528 42.848 12.439 0 24.362-2.113 35.516-5.892 24.346 22.019 55.516 40.823 94.955 49.705 5.093 1.147 9.916-2.892 9.916-8.113v-22.634z" fill="#6b4f5a"/><g><path d="m256 0c-2.931 0-5.833.1-8.719.277 11.098 30.731 51.963 123.095 149.106 148.664v-8.555c0-77.533-62.853-140.386-140.387-140.386z" fill="#87646f"/></g><g><path d="m206.452 198.911c-4.565 0-8.258-3.698-8.258-8.258v-8.258c0-4.56 3.694-8.258 8.258-8.258s8.258 3.698 8.258 8.258v8.258c0 4.561-3.694 8.258-8.258 8.258z" fill="#61444f"/></g><g><path d="m305.548 198.911c-4.565 0-8.258-3.698-8.258-8.258v-8.258c0-4.56 3.694-8.258 8.258-8.258 4.565 0 8.258 3.698 8.258 8.258v8.258c0 4.561-3.693 8.258-8.258 8.258z" fill="#61444f"/></g><g><path d="m256 256.718c-12.387 0-23.823-3.976-30.573-10.637-3.25-3.202-3.282-8.431-.081-11.677 3.202-3.25 8.444-3.282 11.677-.081 2.75 2.714 9.371 5.879 18.976 5.879s16.226-3.165 18.976-5.879c3.234-3.202 8.476-3.169 11.677.081 3.202 3.246 3.169 8.476-.081 11.677-6.748 6.661-18.184 10.637-30.571 10.637z" fill="#d18964"/></g><g><path d="m239.484 396.387v90.839c0 4.56 3.697 8.258 8.258 8.258h16.516c4.561 0 8.258-3.698 8.258-8.258v-90.839z" fill="#ba91d9"/></g><g><path d="m204.033 344.42 51.967 51.967-41.154 34.295c-4.21 3.508-10.607 2.018-12.833-2.99l-28.594-64.337 18.935-18.935c3.225-3.225 8.454-3.225 11.679 0z" fill="#dcbaed"/></g><g><path d="m319.646 344.42c-3.225-3.225-8.454-3.225-11.678 0l-51.968 51.967 41.154 34.294c4.21 3.509 10.607 2.018 12.833-2.99l28.594-64.337z" fill="#dcbaed"/></g><g><path d="m396.863 458.851 45.501-38.651c-2.099-5.226-5.069-10.036-8.773-14.25l-47.422 40.312c-9.25 7.863-14.556 19.331-14.556 31.468v34.27h16.516v-34.27c0-7.282 3.185-14.161 8.734-18.879z" fill="#ba91d9"/></g><g><path d="m168.472 93.027-24.93-36.435c-17.494 23.386-27.929 52.341-27.929 83.795 0 16.357-8.013 29.22-12.877 35.521-2.985 3.867-3.614 9.285-.86 13.32 3.642 5.335 10.387 8.299 17.333 6.746 7.824-1.75 15.005-4.419 21.5-7.591 22.674-11.071 40.182-30.509 50.823-53.389l7.103-15.274c-11.588-7.042-21.86-16.034-30.163-26.693z" fill="#61444f"/></g></g></svg>