<svg id="Capa_1" enable-background="new 0 0 512 512" height="512" viewBox="0 0 512 512" width="512" xmlns="http://www.w3.org/2000/svg"><g><path d="m417.973 386.433-104.398-30.705-108.855 6.434-104.398 30.705c-21.002 6.177-35.425 25.452-35.425 47.344v47.114l10.156 23.271c2.573.909 5.341 1.404 8.225 1.404h123.373l21.96-10.106 27.389 10.106 30.819-10.106 18.53 10.106h123.373c13.627 0 24.675-11.047 24.675-24.675v-53.549c0-21.891-14.422-41.166-35.424-47.343z" fill="#47de9e"/><g><path d="m58.603 433.777v53.549c0 10.728 6.888 19.871 16.45 23.27v-76.82c0-14.49 9.711-27.47 23.614-31.558l104.401-30.707-4.643-15.783-104.398 30.704c-21.002 6.178-35.424 25.453-35.424 47.345z" fill="#43bfa0"/></g><g><path d="m205.588 316.507h107.986v105.019h-107.986z" fill="#e0916d"/></g><g><path d="m198.426 421.526h16.45v-76.328c0-10.232 9.231-17.976 19.295-16.131 7.099 1.301 14.394 1.985 21.829 1.985 20.699 0 40.295-5.315 57.574-14.545v-34.804h-115.148z" fill="#c7805d"/></g><path d="m398.407 150.105c0-8.667 6.886-17.822 5.44-26.074-1.487-8.485-11.112-14.737-13.993-22.651-2.933-8.055.395-19.024-3.843-26.346-4.277-7.391-15.46-9.97-20.92-16.47-5.476-6.519-6.088-17.975-12.607-23.45-6.5-5.46-17.885-4.086-25.277-8.362-7.322-4.236-11.802-14.804-19.855-17.736-7.914-2.881-18.127 2.31-26.612.824-8.25-1.446-16.075-9.84-24.74-9.84-8.667 0-16.493 8.394-24.746 9.84-2.585.453-5.33.286-8.122-.084l-76.62 189.698h241.087c3.473-4.233 15.377-18.297 16.25-23.281 1.445-8.251-5.442-17.403-5.442-26.068z" fill="#6b4f5a"/><g><path d="m223.132 9.756c-6.365-.845-12.995-2.74-18.491-.739-8.055 2.933-12.535 13.501-19.857 17.738-7.391 4.277-18.777 2.904-25.277 8.364-6.519 5.476-7.13 16.933-12.605 23.452-5.46 6.5-16.643 9.079-20.919 16.471-4.236 7.322-.908 18.29-3.84 26.344-2.881 7.914-12.506 14.166-13.992 22.651-1.445 8.25 5.441 17.404 5.441 26.068 0 8.667-6.886 17.822-5.44 26.074.873 4.983 12.777 19.043 16.249 23.275h98.699z" fill="#61444f"/></g><path d="m395.717 193.22c-1.072-10.702-10.873-18.441-21.629-18.441h-11.164c-9.085 0-16.45-7.365-16.45-16.45v-32.9c0-22.712-18.412-41.124-41.124-41.124h-98.699c-9.257 0-17.802 3.056-24.675 8.218l-21.998 112.467c4.213 55.196 39.747 108.489 96.022 108.489 5.622 0 16.526-.146 16.526-.146 48.526-7.537 86.19-47.746 89.982-97.428h12.753c12.056-.001 21.688-10.376 20.456-22.685z" fill="#f1a673"/><g><path d="m206.651 199.454c-4.546 0-8.225-3.683-8.225-8.225v-8.225c0-4.542 3.679-8.225 8.225-8.225s8.225 3.683 8.225 8.225v8.225c0 4.543-3.679 8.225-8.225 8.225z" fill="#61444f"/></g><g><path d="m305.349 199.454c-4.546 0-8.225-3.683-8.225-8.225v-8.225c0-4.542 3.679-8.225 8.225-8.225s8.225 3.683 8.225 8.225v8.225c0 4.543-3.679 8.225-8.225 8.225z" fill="#61444f"/></g><g><path d="m256 257.029c-12.337 0-23.727-3.96-30.45-10.594-3.237-3.189-3.269-8.398-.08-11.63 3.189-3.237 8.41-3.269 11.63-.08 2.739 2.703 9.333 5.855 18.9 5.855s16.161-3.153 18.9-5.855c3.221-3.189 8.442-3.157 11.63.08 3.189 3.233 3.157 8.442-.08 11.63-6.723 6.634-18.113 10.594-30.45 10.594z" fill="#d18964"/></g><g><path d="m214.876 166.555h-16.45c-4.546 0-8.225-3.683-8.225-8.225s3.679-8.225 8.225-8.225h16.45c4.546 0 8.225 3.683 8.225 8.225s-3.679 8.225-8.225 8.225z" fill="#6b4f5a"/></g><g><path d="m313.574 166.555h-16.45c-4.546 0-8.225-3.683-8.225-8.225s3.679-8.225 8.225-8.225h16.45c4.546 0 8.225 3.683 8.225 8.225s-3.679 8.225-8.225 8.225z" fill="#6b4f5a"/></g><g><path d="m181.976 207.679v-115.155c-9.934 7.507-16.45 19.496-16.45 32.906v32.9c0 9.085-7.365 16.45-16.45 16.45h-11.165c-10.755 0-20.557 7.738-21.628 18.441-1.232 12.308 8.4 22.684 20.456 22.684h12.753c4.213 55.196 50.232 98.699 106.508 98.699 5.626 0 11.136-.433 16.526-1.271-51.247-7.909-90.55-52.192-90.55-105.654z" fill="#e0916d"/></g><g><path d="m317.687 363.952-52.562 35.041c-5.525 3.684-12.724 3.684-18.249 0l-52.562-35.041 61.686 148.048z" fill="#fd7"/></g><g><path d="m198.426 339.277-52.507 60.008c-2.851 3.259-2.688 8.17.374 11.232l19.234 19.234-12.71 19.064c-2.175 3.262-1.745 7.606 1.028 10.378l52.806 52.807h49.349z" fill="#89ec9e"/></g><g><path d="m313.574 339.277 52.507 60.008c2.851 3.259 2.688 8.17-.374 11.232l-19.234 19.234 12.71 19.064c2.175 3.262 1.745 7.606-1.028 10.378l-52.806 52.807h-49.349z" fill="#89ec9e"/></g></g></svg>