<svg id="Capa_1" enable-background="new 0 0 512 512" height="512" viewBox="0 0 512 512" width="512" xmlns="http://www.w3.org/2000/svg"><g><g><path d="m239.484 16.516h-41.29c-36.486 0-66.065 29.578-66.065 66.065v90.839h107.355z" fill="#61444f"/></g><g><path d="m330.323 0h-123.871c-15.821 0-29.044 11.122-32.276 25.974-.873 4.012-.372 8.211.927 12.106l3.609 10.827c1.965 5.894 2.966 12.067 2.966 18.28v106.232h198.192v-123.871c.001-27.364-22.182-49.548-49.547-49.548z" fill="#6b4f5a"/></g><g><path d="m188.646 288.626h141.677v66.471h-141.677z" fill="#f8ba7e"/></g><g><path d="m181.677 355.097h16.516v-39.129c0-7.49 7.463-12.842 14.463-10.175 13.538 5.159 28.145 8.013 43.344 8.013 27.72 0 53.497-9.421 74.323-25.18v-98.691h-148.646z" fill="#f1a673"/></g><path d="m375.742 156.903h-12.387c-9.121 0-16.516-7.395-16.516-16.516v-24.774c0-18.243-14.789-33.032-33.032-33.032h-115.613c-6.017 0-11.658 1.609-16.517 4.42l-11.275 107.565c4.23 55.419 29.096 101.756 85.598 101.756 5.726 0 11.347.521 16.829-.344 48.607-7.661 86.302-47.982 90.103-97.784h11.632c10.8 0 20.641-7.771 21.716-18.516 1.237-12.359-8.434-22.775-20.538-22.775z" fill="#ffce8a"/><g><path d="m181.677 189.935v-102.935c-9.832 5.722-16.516 16.417-16.516 28.613v24.774c0 9.121-7.395 16.516-16.516 16.516h-11.208c-10.799 0-20.641 7.77-21.717 18.515-1.238 12.358 8.433 22.775 20.538 22.775h12.804c4.23 55.419 50.435 99.097 106.938 99.097 5.649 0 11.418-.471 16.829-1.313-51.454-7.94-91.152-52.365-91.152-106.042z" fill="#f8ba7e"/></g><path d="m470.629 391.628-11.341-12.027c-5.381-4.068-11.655-7.082-18.551-8.7l-66.716-15.612-235.274-.193-61.565 15.391c-22.057 5.514-37.531 25.333-37.531 48.069v68.669l9.899 23.365c2.583.913 5.362 1.409 8.257 1.409h49.549l8.205-5.218 8.311 5.218h264.258l8.806-7.281 7.71 7.281h49.548c13.682 0 24.774-11.092 24.774-24.774v-68.085c0-10.08-3.04-19.578-8.339-27.512z" fill="#fc5f7a"/><g><path d="m414.323 447.94 56.306-56.311c-3.076-4.61-6.893-8.666-11.341-12.027l-56.642 56.657c-9.363 9.355-14.516 21.798-14.516 35.04v40.701h16.516v-40.702c-.001-8.826 3.435-17.121 9.677-23.358z" fill="#f84455"/></g><g><path d="m64.205 391.108c3.081-2.06 6.534-3.639 10.287-4.576l126.888-31.049-60.463-2.583-70.354 17.588c-22.057 5.514-37.531 25.333-37.531 48.069v68.669c0 10.771 6.916 19.955 16.516 23.368v-92.037c0-5.396 1.352-10.511 3.685-15.064l44.444 44.451c6.242 6.234 9.677 14.528 9.677 23.355v40.701h16.516v-40.702c0-13.242-5.153-25.685-14.516-35.036z" fill="#f84455"/></g><path d="m377.061 351.823-35.636-41.58c-2.71-3.162-7.285-3.712-10.808-1.491-1.13.712-2.27 1.408-3.421 2.089l-5.628 6.792-9.062.771c-5.117 2.264-10.393 4.232-15.807 5.881l-6.549 6.685-9.508-2.822c-5.358.957-10.823 1.607-16.375 1.932l-8.267 4.304-8.252-4.302c-5.554-.325-11.02-.975-16.38-1.931l-9.084 1.089-6.973-4.951c-5.426-1.652-10.712-3.624-15.837-5.893l-10.746 1.518-3.916-9.068c-1.216-.719-2.42-1.456-3.612-2.209-3.447-2.18-7.971-1.49-10.625 1.607l-35.636 41.58c-1.53 1.785-1.194 4.494.716 5.867 6.062 4.357 12.374 8.393 18.91 12.083l14.738 7.557c9.521 4.407 19.437 8.112 29.677 11.049l16.084 3.919c10.626 2.14 21.543 3.467 32.678 3.912h16.516c11.16-.435 22.054-1.736 32.713-3.889l16.054-3.914c10.255-2.943 20.184-6.658 29.718-11.081l14.684-7.541c6.536-3.694 12.849-7.735 18.918-12.095 1.91-1.373 2.246-4.082.716-5.868z" fill="#ff8087"/><g><path d="m169.303 377.331 30.17-58.935c-5.059-2.239-9.934-4.754-14.662-7.55l-30.247 58.928c4.785 2.705 9.727 5.232 14.739 7.557z" fill="#fc5f7a"/></g><g><path d="m231.368 328.151c-5.468-.976-10.83-2.27-16.057-3.862l-16.331 64.091c5.266 1.512 10.655 2.825 16.084 3.919z" fill="#fc5f7a"/></g><g><path d="m264.258 396.21.009-66.129c-2.737.16-5.489.241-8.267.241s-5.515-.08-8.252-.241l-.006 66.128c2.755.109 5.477.177 8.258.177 2.781.001 5.504-.067 8.258-.176z" fill="#fc5f7a"/></g><g><path d="m296.699 324.286c-5.227 1.592-10.589 2.887-16.057 3.863l16.329 64.172c5.429-1.094 10.787-2.402 16.054-3.914z" fill="#fc5f7a"/></g><g><path d="m327.196 310.841c-4.727 2.796-9.63 5.324-14.69 7.563l30.236 58.922c5.012-2.325 9.9-4.836 14.684-7.541z" fill="#fc5f7a"/></g><g><path d="m206.452 181.677c-4.565 0-8.258-3.698-8.258-8.258v-8.258c0-4.56 3.694-8.258 8.258-8.258s8.258 3.698 8.258 8.258v8.258c0 4.561-3.694 8.258-8.258 8.258z" fill="#61444f"/></g><g><path d="m305.548 181.677c-4.565 0-8.258-3.698-8.258-8.258v-8.258c0-4.56 3.694-8.258 8.258-8.258s8.258 3.698 8.258 8.258v8.258c0 4.561-3.693 8.258-8.258 8.258z" fill="#61444f"/></g><g><path d="m256 239.484c-12.387 0-23.823-3.976-30.573-10.637-3.25-3.202-3.282-8.431-.081-11.677 3.202-3.25 8.444-3.282 11.677-.081 2.75 2.714 9.371 5.879 18.976 5.879s16.226-3.165 18.976-5.879c3.234-3.202 8.476-3.169 11.677.081 3.202 3.246 3.169 8.476-.081 11.677-6.748 6.661-18.184 10.637-30.571 10.637z" fill="#f1a673"/></g><g><path d="m214.71 148.645h-16.516c-4.565 0-8.258-3.698-8.258-8.258s3.694-8.258 8.258-8.258h16.516c4.565 0 8.258 3.698 8.258 8.258s-3.694 8.258-8.258 8.258z" fill="#6b4f5a"/></g><g><path d="m313.806 148.645h-16.516c-4.565 0-8.258-3.698-8.258-8.258s3.694-8.258 8.258-8.258h16.516c4.565 0 8.258 3.698 8.258 8.258s-3.693 8.258-8.258 8.258z" fill="#6b4f5a"/></g></g></svg>