<svg id="Capa_1" enable-background="new 0 0 512 512" height="512" viewBox="0 0 512 512" width="512" xmlns="http://www.w3.org/2000/svg"><g><path d="m429 261.916c-18.066-10.544-24.364-55.79-24.364-113.442l-249.561-108.044c-29.339 27.8-47.6 67.372-47.723 110.443-.161 56.561-6.514 100.6-24.33 111.03-4.307 2.522-5.229 8.405-2.32 12.461 11.033 15.384 37.166 44.135 84.46 55.958h181.677c47.291-11.823 73.424-40.571 84.458-55.956 2.902-4.046 2.004-9.939-2.297-12.45z" fill="#d18964"/><path d="m410.368 402.442-74.786-21.996c-33.201 20.431-79.582 48.973-79.582 48.973l-72.008-48.973-74.786 21.996c-21.087 6.202-35.568 25.555-35.568 47.535v37.249l8.941 23.364c2.583.913 5.363 1.41 8.26 1.41h91.032l6.771-6.627 9.745 6.627h115.419l7.324-6.627 9.192 6.627h90.839c13.682 0 24.774-11.092 24.774-24.774v-37.249c0-21.98-14.479-41.333-35.567-47.535z" fill="#89ec9e"/><g><path d="m388.129 396.387-15.946-53.155c-5.24-17.465-21.315-29.426-39.549-29.426h-18.07l-60.328 17.159-56.605-17.159h-18.07c-18.234 0-34.309 11.96-39.549 29.426l-15.768 52.56-22.611 6.65c-21.087 6.202-35.568 25.555-35.568 47.535v37.249c0 10.771 6.916 19.947 16.516 23.36v-60.61c0-14.65 9.651-27.55 23.706-31.684l34.729-10.216c5.158-1.517 10.669-1.316 15.702.575l93.481 35.107c3.741 1.405 7.864 1.406 11.606.003z" fill="#47de9e"/></g><g><path d="m314.563 313.807h-116.933c-24.512 0-34.137 31.791-13.742 45.388l15.286 11.385 113.713.068 15.419-11.453c20.395-13.598 10.769-45.388-13.743-45.388z" fill="#43bfa0"/></g><g><path d="m190.129 404.645c-4.565 0-8.258 3.698-8.258 8.258v99.097h16.516v-99.097c0-4.56-3.693-8.258-8.258-8.258z" fill="#d18964"/></g><g><path d="m322.064 404.645c-4.565 0-8.258 3.698-8.258 8.258v99.097h16.516v-99.097c.001-4.56-3.693-8.258-8.258-8.258z" fill="#d18964"/></g><path d="m305.548 353.076v-24.871l-91.277-4.406-1.85 56.648 38.652 28.788c2.924 2.178 6.93 2.18 9.857.006l51.956-38.593c-4.575-4.544-7.338-10.802-7.338-17.572z" fill="#f2c59a"/><g><path d="m305.548 328.205v-22.656h-99.097v47.527c0 6.738-2.742 12.966-7.278 17.504l13.248 9.867c6.567-7.38 10.546-16.981 10.546-27.369 0-9.553 8.442-16.718 17.914-15.485 4.948.644 9.989.989 15.118.989 17.63-.001 34.368-3.739 49.549-10.377z" fill="#e6b287"/></g><path d="m363.042 165.159c-4.218-55.43-50.531-99.095-107.042-99.095-59.29 0-92.769 48.064-92.769 107.355v41.291c0 59.29 33.479 106.374 92.769 106.374 5.61 0 11.12.551 16.498-.279 51.458-7.937 90.857-52.415 90.857-106.095v-33.032z" fill="#f9d8af"/><path d="m181.677 214.71v-41.291c0-53.659 39.411-97.993 90.839-105.955-5.398-.835-10.885-1.4-16.516-1.4-56.511 0-102.824 43.664-107.042 99.095l-.313 16.518v33.032c0 59.29 48.065 107.354 107.355 107.354 5.632 0 11.1-.424 16.498-1.26-51.428-7.961-90.821-52.434-90.821-106.093z" fill="#f2c59a"/><g><path d="m272.516 198.194h-33.032c-4.565 0-8.258-3.698-8.258-8.258s3.694-8.258 8.258-8.258h33.032c4.565 0 8.258 3.698 8.258 8.258s-3.693 8.258-8.258 8.258z" fill="#e6b287"/></g><g><path d="m148.957 165.161c-.209 2.734-.312 5.47-.312 8.258v8.258h33.032l8.258-16.516z" fill="#e6b287"/></g><g><path d="m363.036 165.161c.209 2.734.319 5.47.319 8.258v8.258h-33.032l-8.258-16.516z" fill="#e6b287"/></g><g><path d="m206.452 239.484c-22.766 0-41.29-18.524-41.29-41.29s18.524-41.29 41.29-41.29 41.29 18.524 41.29 41.29-18.524 41.29-41.29 41.29z" fill="#fff"/></g><g><path d="m256 272.516c-12.387 0-23.823-3.976-30.573-10.637-3.25-3.202-3.282-8.431-.081-11.677 3.202-3.25 8.444-3.286 11.677-.081 2.75 2.714 9.371 5.879 18.976 5.879s16.226-3.165 18.976-5.879c3.234-3.206 8.476-3.169 11.677.081 3.202 3.246 3.169 8.476-.081 11.677-6.748 6.661-18.184 10.637-30.571 10.637z" fill="#e6b287"/></g><g><path d="m155.075 40.43c23.193 25.116 108.053 105.003 249.561 108.044-.097-84.326-70.401-152.207-155.607-148.315-36.39 1.663-69.138 16.76-93.954 40.271z" fill="#df976c"/></g><g><circle cx="206.452" cy="198.194" fill="#f2c59a" r="24.774"/></g><g><path d="m206.452 207.169c-4.565 0-8.258-3.698-8.258-8.258v-8.258c0-4.56 3.694-8.258 8.258-8.258s8.258 3.698 8.258 8.258v8.258c0 4.561-3.694 8.258-8.258 8.258z" fill="#d18964"/></g><g><path d="m305.548 239.484c-22.766 0-41.29-18.524-41.29-41.29s18.524-41.29 41.29-41.29 41.29 18.524 41.29 41.29-18.524 41.29-41.29 41.29z" fill="#fff"/></g><g><circle cx="305.548" cy="198.194" fill="#f2c59a" r="24.774"/></g><g><path d="m305.548 207.169c-4.565 0-8.258-3.698-8.258-8.258v-8.258c0-4.56 3.694-8.258 8.258-8.258s8.258 3.698 8.258 8.258v8.258c0 4.561-3.693 8.258-8.258 8.258z" fill="#d18964"/></g></g></svg>