<svg id="Capa_1" enable-background="new 0 0 512 512" height="512" viewBox="0 0 512 512" width="512" xmlns="http://www.w3.org/2000/svg"><g><path d="m412.878 401.236-37.249-13.147h-225.29l-37.249 13.147c-19.81 6.992-33.058 25.716-33.058 46.724v46.555l52.097 17.485h57.806l8.156-6.3 8.36 6.3h99.097l8.199-6.3 8.317 6.3h57.806l58.629-90.148c-5.812-9.374-14.724-16.77-25.621-20.616z" fill="#c8adef"/><g><g><path d="m100.379 444.251c-9.299-7.749-7.382-23.241 4.002-27.355.08-.029.16-.057.24-.086l70.872-25.015-13.918-12.602-62.453 22.042c-19.81 6.992-33.057 25.716-33.057 46.723v39.267c0 13.682 11.092 24.774 24.774 24.774h41.29v-25.819c0-9.803-4.354-19.1-11.886-25.376z" fill="#ba91d9"/></g></g><path d="m412.414 297.485-13.534-165.795c-6.075-74.402-68.23-131.69-142.88-131.69-11.351 0-22.414 1.325-33.034 3.833l-62.585 393.287c11.669 4.844 24.487 7.525 37.974 7.525h115.29c57.909 0 103.48-49.442 98.769-107.16z" fill="#dcbaed"/><g><path d="m222.968 339.984v-336.145c-59.196 14.003-104.699 64.782-109.848 127.852l-13.534 165.794c-3.617 44.319 22.297 83.712 60.795 99.634l29.522-10.41c19.782-6.979 33.065-25.757 33.065-46.725z" fill="#c8adef"/></g><path d="m148.645 206.452v115.613c0 23.335 16.131 42.903 37.851 48.16l139.013-.001c21.717-5.259 37.846-24.825 37.846-48.158v-115.614z" fill="#61444f"/><path d="m305.548 339.984v-20.037h-89.538l-4.472 51.666h102.268c4.015 0 7.964-.489 11.703-1.39-11.979-5.214-19.961-17.026-19.961-30.239z" fill="#e0916d"/><g><path d="m206.452 280.774v59.21c0 13.213-7.976 25.027-19.955 30.24 3.738.901 7.682 1.389 11.697 1.389h13.345c7.304-8.722 11.429-19.816 11.429-31.629 0-7.003 6.234-12.544 13.138-11.368 6.47 1.102 13.106 1.707 19.895 1.707 17.629 0 34.367-3.738 49.548-10.376v-39.172h-99.097z" fill="#c7805d"/></g><path d="m363.291 186.191-99.498-93.92c-59.29 0-107.294 38.374-107.294 97.665v16.516c0 59.291 40.211 105.891 99.501 105.891 5.712 0 11.321 1.018 16.792.158 51.314-8.06 90.563-52.471 90.563-106.049v-16.516c0-1.254-.022-2.502-.064-3.745z" fill="#f1a673"/><g fill="#e0916d"><path d=""/><path d="m181.677 206.452v-33.032c0-25.993 12.238-50.469 33.032-66.064l-27.689.385c-23.452 19.681-38.376 49.181-38.376 82.195v16.516c0 59.291 48.064 107.355 107.355 107.355 5.632 0 11.395-.47 16.792-1.306-51.427-7.962-91.114-52.391-91.114-106.049z"/></g><g><g><path d="m206.452 206.452c-4.565 0-8.258-3.698-8.258-8.258v-8.258c0-4.56 3.694-8.258 8.258-8.258s8.258 3.698 8.258 8.258v8.258c0 4.56-3.694 8.258-8.258 8.258z" fill="#61444f"/></g></g><g><g><path d="m305.548 206.452c-4.565 0-8.258-3.698-8.258-8.258v-8.258c0-4.56 3.694-8.258 8.258-8.258 4.565 0 8.258 3.698 8.258 8.258v8.258c0 4.56-3.693 8.258-8.258 8.258z" fill="#61444f"/></g></g><g><g><path d="m256 264.258c-12.387 0-23.823-3.976-30.573-10.637-3.25-3.202-3.282-8.431-.081-11.677 3.202-3.25 8.444-3.282 11.677-.081 2.75 2.714 9.371 5.879 18.976 5.879s16.226-3.165 18.976-5.879c3.234-3.202 8.476-3.169 11.677.081 3.202 3.246 3.169 8.476-.081 11.677-6.748 6.661-18.184 10.637-30.571 10.637z" fill="#d18964"/></g></g><g><g><path d="m214.71 172.702h-16.516c-4.565 0-8.258-3.698-8.258-8.258s3.694-8.258 8.258-8.258h16.516c4.565 0 8.258 3.698 8.258 8.258s-3.694 8.258-8.258 8.258z" fill="#61444f"/></g></g><g><g><path d="m313.806 172.702h-16.516c-4.565 0-8.258-3.698-8.258-8.258s3.694-8.258 8.258-8.258h16.516c4.565 0 8.258 3.698 8.258 8.258.001 4.56-3.693 8.258-8.258 8.258z" fill="#61444f"/></g></g><g><path d="m224.826 87.301c-14.034 4.234-26.853 11.239-37.805 20.44 16.367 15.158 35.606 28.232 46.197 35.023 4.217 2.704 9.818 1.019 11.913-3.532l10.869-23.619z" fill="#61444f"/></g><g><path d="m363.291 186.191c-2.007-57.526-49.276-103.61-107.291-103.61-10.868 0-21.287 1.717-31.174 4.72 19.789 23.769 68.196 74.23 138.465 98.89z" fill="#6b4f5a"/></g><g><path d="m313.806 396.387c-4.565 0-8.258 3.698-8.258 8.258v107.355h16.516v-107.355c.001-4.56-3.693-8.258-8.258-8.258z" fill="#f5e8c9"/></g><g><path d="m198.194 396.387c-4.565 0-8.258 3.698-8.258 8.258v107.355h16.516v-107.355c0-4.56-3.694-8.258-8.258-8.258z" fill="#f5e8c9"/></g><g><path d="m438.499 421.853c4.748 7.663 7.437 16.661 7.437 26.107v39.267c0 13.682-11.092 24.774-24.774 24.774h-41.29v-25.819c0-9.803 4.354-19.1 11.885-25.376z" fill="#dcbaed"/></g></g></svg>