<svg id="Capa_1" enable-background="new 0 0 512 512" height="512" viewBox="0 0 512 512" width="512" xmlns="http://www.w3.org/2000/svg"><g><g><path d="m158.476 251.938c17.954 0 73.142 55.189 73.142 73.142s-14.554 32.508-32.508 32.508c-3.086 0-6.064-.439-8.884-1.253-5.312-1.533-10.721.791-13.33 5.665-5.457 10.194-16.152 17.137-28.533 17.137-17.954 0-32.508-14.554-32.508-32.508.001-17.953 26.361-94.691 42.621-94.691z" fill="#ffa65a"/></g><g><path d="m142.222 308.827c8.977 0 16.254 7.277 16.254 16.254 0 19.828-17.752 35.51-38.23 32.019-16.588-2.828-27.757-17.423-26.718-34.218 1.405-22.711 24.313-31.555 24.313-70.944 0-24.381 0-81.269 0-81.269 0-33.371 19.7-57.641 19.7-57.641l199.727 25.134-182.302 144.322c-8.049 6.373-12.744 16.076-12.744 26.343z" fill="#ffbf45"/></g><g><path d="m353.523 251.938c-17.954 0-73.142 55.189-73.142 73.142s14.554 32.508 32.508 32.508c3.086 0 6.064-.439 8.884-1.253 5.312-1.533 10.721.791 13.33 5.665 5.457 10.194 16.152 17.137 28.533 17.137 17.954 0 32.508-14.554 32.508-32.508-.001-17.953-26.361-94.691-42.621-94.691z" fill="#ffbf45"/></g><g><path d="m369.777 308.827c-8.977 0-16.254 7.277-16.254 16.254 0 19.828 17.752 35.51 38.23 32.019 16.588-2.828 27.757-17.423 26.718-34.218-1.405-22.711-24.313-31.555-24.313-70.944 0-24.381 0-81.269 0-81.269 0-33.371-19.7-57.641-19.7-57.641l-199.727 25.134 182.302 144.323c8.05 6.372 12.744 16.075 12.744 26.342z" fill="#ffcd5c"/></g><path d="m304.762 367.097v-19.72h-90.052l.326 55.046h77.212l14.333-24.597c-1.184-3.385-1.819-7.002-1.819-10.729z" fill="#f2c59a"/><g><path d="m256 438.857 99.989-30.681 54.397 19.199c19.495 6.88 32.533 25.307 32.533 45.981v14.262c0 13.465-10.916 24.381-24.381 24.381h-130.031z" fill="#fbe7c3"/></g><path d="m207.239 308.827v58.27c0 3.729-.677 7.312-1.863 10.699l7.861 19.204c6.495-8.366 10.255-18.813 10.255-29.912 0-7.038 6.322-12.234 13.267-11.09 6.263 1.031 12.683 1.591 19.241 1.591 17.349 0 33.821-3.679 48.762-10.211v-38.55h-97.523z" fill="#e6b287"/><path d="m164.321 412.848-54.397 19.199c-19.495 6.88-32.532 25.307-32.532 45.981v14.262l7.944 18.322c2.542.898 5.277 1.387 8.126 1.387h130.031l32.507-73.142z" fill="#fbe7c3"/><g><path d="m156.011 408.176-54.397 19.199c-19.495 6.88-32.533 25.307-32.533 45.981v14.262c0 10.6 6.806 19.638 16.254 22.997v-37.255c0-13.784 8.692-26.07 21.69-30.658l75.11-26.51z" fill="#f9d8af"/></g><path d="m326.45 397.75c-9.486-3.348-16.674-10.786-19.868-19.924-13.144 12.626-30.916 20.396-50.582 20.396-13.606 0-26.326-3.734-37.226-10.217l-50.467 33.057c23.12 21.143 53.894 34.049 87.693 34.049 40.208 0 76.137-18.266 99.989-46.935z" fill="#fff1d3"/><g><path d="m288.508 512-24.381-113.777h-16.254l-24.381 113.777" fill="#fc5f7a"/></g><g><path d="m212.298 40.564c4.407-2.591 9.589-4.346 15.549-4.974l-13.14-30.662c-1.77-4.127-6.579-6.04-10.667-4.266-4.127 1.766-6.04 6.544-4.27 10.671z" fill="#fbe7c3"/></g><g><path d="m338.127 172.385-8.985 4.493-48.762-37.814v29.687l-17.063-2.947-93.893-1.859v68.755c0 56.888 24.642 104.169 81.467 106.845 7.299.344 21.37.545 21.37.545 50.628-7.822 89.388-51.588 89.388-104.406v-48.762c.001-12.082-12.715-19.941-23.522-14.537z" fill="#f9d8af"/></g><g><path d="m272.262 340.09c-51.293-8.085-89.405-54.281-89.405-107.386v-43.494c0-9.557 8.207-17.052 17.726-16.187l45.818 4.165c7.837.713 14.706-4.279 16.917-11.386l-112.968-19.514v86.412c0 56.888 43.717 105.838 100.542 108.514 7.302.344 14.444-.053 21.37-1.124z" fill="#f2c59a"/></g><g><path d="m207.238 235.684c-4.492 0-8.127-3.639-8.127-8.127v-8.127c0-4.488 3.635-8.127 8.127-8.127s8.127 3.639 8.127 8.127v8.127c0 4.489-3.635 8.127-8.127 8.127z" fill="#6b4f5a"/></g><g><path d="m304.762 235.684c-4.492 0-8.127-3.639-8.127-8.127v-8.127c0-4.488 3.635-8.127 8.127-8.127s8.127 3.639 8.127 8.127v8.127c-.001 4.489-3.635 8.127-8.127 8.127z" fill="#6b4f5a"/></g><g><path d="m256 292.573c-12.19 0-23.444-3.913-30.087-10.468-3.198-3.151-3.23-8.298-.079-11.492 3.151-3.198 8.309-3.23 11.492-.079 2.706 2.671 9.222 5.786 18.674 5.786s15.968-3.115 18.674-5.786c3.183-3.151 8.341-3.119 11.492.079 3.151 3.194 3.119 8.341-.079 11.492-6.643 6.555-17.897 10.468-30.087 10.468z" fill="#e6b287"/></g><g><path d="m199.104 204.193c-3.738 0-7.103-2.591-7.929-6.389-.96-4.385 1.817-8.718 6.198-9.678l16.254-3.556c4.381-.948 8.722 1.813 9.675 6.202.96 4.385-1.817 8.718-6.198 9.678l-16.254 3.556c-.588.127-1.167.187-1.746.187z" fill="#df976c"/></g><g><path d="m312.896 204.193c-.579 0-1.159-.06-1.746-.187l-16.254-3.556c-4.381-.96-7.159-5.294-6.198-9.678.952-4.389 5.27-7.159 9.675-6.202l16.254 3.556c4.381.96 7.159 5.294 6.198 9.678-.825 3.797-4.191 6.389-7.929 6.389z" fill="#df976c"/></g><path d="m402.257 93.788c-.145-2.852-.876-5.735-2.273-8.496-16.884-33.37-60.294-84.749-163.748-64.412-4.747.933-9.435 1.87-13.923 3.28-68.526 21.521-127.494 126.752-127.494 126.752l6.069 9.55 291.216-56.138z" fill="#ff7e8f"/><g><circle cx="256" cy="406.35" fill="#ff7e8f" r="24.381"/></g><g><path d="m168.489 139.527c-13.229 2.588-25.531-7.54-25.531-21.02 0-3.789.976-7.494 2.897-10.76 8.177-13.902 33.861-53.262 76.458-83.588-82.775 22.852-130.451 95.37-142.208 115.36-1.921 3.266-2.897 6.971-2.897 10.76 0 13.48 12.302 23.608 25.531 21.02l281.931-55.161c10.971-2.146 18.099-12.049 17.588-22.351z" fill="#fc5f7a"/></g><g><path d="m205.416 377.833c-3.194 9.139-10.381 16.57-19.867 19.918l-29.539 10.426c3.822 4.594 7.886 8.859 12.297 12.886l22.646-7.982c12.546-4.428 22.375-13.562 27.821-25.075-4.83-2.88-9.326-6.3-13.358-10.173z" fill="#fbe7c3"/></g></g></svg>