<svg id="Capa_1" enable-background="new 0 0 512 512" height="512" viewBox="0 0 512 512" width="512" xmlns="http://www.w3.org/2000/svg"><g><g><path d="m361.597 67.949c23.07 5.428 32.454 23.964 29.563 41.31l-11.921 70.65-48.26-1.149-49.986-99.972z" fill="#845252"/></g><g><path d="m368.161 5.772c-1.577-4.911-7.302-7.271-11.804-4.753-8.665 4.848-24.814 11.12-50.371 11.12h-74.979c-22.344 0-42.071 11.035-54.163 27.91l-7.543.754c-25.98 2.597-45.219 25.332-43.482 51.384l5.216 78.241 66.648 16.662 109.55-91.641h15.415c7.461 0 14.885-1.76 21.691-5.008 21.783-10.391 36.894-43.96 23.822-84.669z" fill="#7a4646"/></g><g><path d="m326.78 339.969c-7.585-4.394-12.463-12.563-12.463-21.621v-4.363h-103.168l-11.21 51.513h126.841z" fill="#f1a673"/></g><g><path d="m420.062 368.15-87.805-25.825c-.731-.215-39.079 29.72-76.258 29.716-38.32-.003-75.504-29.938-76.258-29.716l-87.803 25.825c-21.273 6.257-35.882 25.781-35.882 47.955v70.902c0 13.803 11.19 24.993 24.993 24.993h33.324l143.34-33.56 139.914 33.56h33.324c13.803 0 24.993-11.19 24.993-24.993v-70.902c0-22.174-14.608-41.698-35.882-47.955z" fill="#fd7"/></g><g><path d="m342.673 359.183-10.702-9.934-75.971 12.793-75.971-12.792-10.702 9.934c-13.466 12.499-21.03 29.451-21.03 47.127v96.455l7.731 9.235h74.979l23.23-14.447 26.756 14.446h74.979l7.731-12.71v-92.98c0-17.676-7.564-34.628-21.03-47.127z" fill="#e9e7e9"/></g><g><path d="m336.451 359.183-9.934-9.934-70.517 12.793-70.518-12.792-9.934 9.934c-4.09 4.089-7.527 8.692-10.389 13.604l30.783 35.18c4.745 5.424 11.602 8.535 18.811 8.535 6.675 0 12.951-2.6 17.671-7.321l23.576-23.576 23.577 23.576c4.719 4.72 10.995 7.32 17.67 7.32 7.209 0 14.066-3.111 18.811-8.535l30.782-35.18c-2.862-4.912-6.299-9.515-10.389-13.604z" fill="#d8d5d8"/></g><g><path d="m243.966 403.697-12.959 108.303h49.986l-12.959-108.303z" fill="#61444f"/></g><g><path d="m266.657 412.028h-21.315c-3.586 0-6.77-2.295-7.903-5.697l-14.763-44.29h66.648l-14.763 44.29c-1.134 3.402-4.318 5.697-7.904 5.697z" fill="#6b4f5a"/></g><g><path d="m197.683 291.164v12.561c0 7.265-3.176 28.541-8.331 33.175v8.48h24.993v-3.411c0-10.012 9.164-17.281 18.998-15.403 7.358 1.406 14.928 2.152 22.657 2.152 20.966 0 40.815-5.384 58.317-14.733l3.83-4.251-3.83-6.009v-12.561z" fill="#df976c"/></g><g><path d="m192.118 326.552-21.952 26.655 38.315 43.789c3.173 3.627 8.753 3.813 12.161.405l35.358-35.359z" fill="#e9e7e9"/></g><g><path d="m319.882 326.552 21.952 26.655-38.315 43.789c-3.173 3.627-8.753 3.813-12.161.405l-35.358-35.359z" fill="#e9e7e9"/></g><g><path d="m114.373 512-14.678-57.719c-1.236-5.561.455-11.368 4.483-15.396l26.856-26.856-12.356-18.534c-2.909-4.363-3.532-9.842-1.876-14.817 19.865-59.698 80.88-74.952 80.88-74.952v16.07c0 11.048-4.389 21.643-12.2 29.455l-9.934 9.934c-12.499 12.499-19.521 29.451-19.521 47.127v105.688" fill="#ffcd5c"/></g><g><path d="m397.627 512 14.678-57.719c1.236-5.561-.455-11.368-4.483-15.396l-26.856-26.856 12.356-18.534c2.909-4.363 3.532-9.842 1.876-14.817-19.865-59.698-80.88-74.952-80.88-74.952v16.07c0 11.048 4.389 21.643 12.2 29.455l9.934 9.934c12.499 12.499 19.521 29.451 19.521 47.127v105.688" fill="#ffcd5c"/></g><g><path d="m376.8 170.429h-9.062-.359c-10.129 0-17.654-9.38-15.456-19.268 6.353-28.591-15.402-55.711-44.69-55.711l-127.71 14.737-16.941 101.897c0 37.433 36.417 98.709 93.419 98.709 5.697 0 11.291.823 16.749-.025 49.148-7.638 87.292-48.363 91.133-98.684h12.917c11.503 0 20.828-9.325 20.828-20.828-.001-11.503-9.325-20.827-20.828-20.827z" fill="#f8ba7e"/></g><g><path d="m206.014 195.422c-4.605 0-8.331-3.726-8.331-8.331v-8.331c0-4.605 3.726-8.331 8.331-8.331s8.331 3.726 8.331 8.331v8.331c0 4.605-3.726 8.331-8.331 8.331z" fill="#61444f"/></g><g><path d="m305.986 195.422c-4.605 0-8.331-3.726-8.331-8.331v-8.331c0-4.605 3.726-8.331 8.331-8.331s8.331 3.726 8.331 8.331v8.331c0 4.605-3.726 8.331-8.331 8.331z" fill="#61444f"/></g><g><path d="m214.345 162.098h-16.662c-4.605 0-8.331-3.726-8.331-8.331s3.726-8.331 8.331-8.331h16.662c4.605 0 8.331 3.726 8.331 8.331s-3.726 8.331-8.331 8.331z" fill="#845252"/></g><g><path d="m314.317 162.098h-16.662c-4.605 0-8.331-3.726-8.331-8.331s3.726-8.331 8.331-8.331h16.662c4.605 0 8.331 3.726 8.331 8.331s-3.726 8.331-8.331 8.331z" fill="#845252"/></g><g><path d="m204.767 95.45c-29.311 0-51.077 27.163-44.675 55.778 2.206 9.862-5.366 19.201-15.471 19.201h-.358-9.063c-11.503 0-20.828 9.325-20.828 20.828 0 11.502 9.325 20.828 20.828 20.828h12.918c4.267 55.908 50.88 99.972 107.882 99.972 5.699 0 11.29-.44 16.749-1.288-51.908-8.011-91.728-52.864-91.728-107.015v-49.986c0-23.005 18.65-41.655 41.655-41.655h66.648c9.202 0 16.66-7.46 16.659-16.662h-101.216z" fill="#f1a673"/></g><g><path d="m225.618 225.275c-3.946 0-7.145 3.658-6.159 7.479 3.819 14.803 18.73 25.845 36.542 25.845s32.723-11.042 36.542-25.845c.986-3.821-2.213-7.479-6.159-7.479z" fill="#fff"/></g></g></svg>