<svg id="Capa_1" enable-background="new 0 0 512 512" height="512" viewBox="0 0 512 512" width="512" xmlns="http://www.w3.org/2000/svg"><g><g><path d="m132.129 264.258c-10.129 25.323-32.683 44.434-48.611 55.428-6.166 4.256-14.33-1.3-12.692-8.611 4.879-21.771 11.754-59.068 11.754-96.365v-99.097c.001-63.851 51.762-115.613 115.614-115.613h82.581c18.243 0 33.032 14.789 33.032 33.032v82.581z" fill="#ffbf45"/></g><g><path d="m313.806 33.032h-115.612c-45.608 0-82.581 36.973-82.581 82.581v24.774c0 66.065 213.124 196.224 213.124 196.224l34.468-5.167c5.48-.731 10.192-4.12 12.642-9.077 7.077-14.317 20.54-46.356 20.54-82.883v-123.871c0-45.608-36.973-82.581-82.581-82.581z" fill="#ffcd5c"/></g><g><path d="m133.828 348.834c-3.022 6.015 1.699 12.966 8.371 12.077l171.607-22.881v-230.675c0-22.804-18.486-41.29-41.29-41.29h-82.581c-41.047 0-74.323 33.275-74.323 74.323v66.065c0 66.065 24.774 90.839 24.774 115.613.001 10.676-3.067 19.82-6.558 26.768z" fill="#ffa65a"/></g><path d="m420.807 418.73-82.227-34.977h-155.953l-82.227 34.977c-15.237 6.481-25.128 21.438-25.128 37.996v30.5l7.309 23.365c2.583.913 5.363 1.41 8.258 1.41h330.323c13.682 0 24.774-11.092 24.774-24.774v-30.5c0-16.559-9.892-31.516-25.129-37.997z" fill="#c7c2c6"/><path d="m173.419 383.753-82.227 34.977c-15.237 6.481-25.128 21.438-25.128 37.995v30.5c0 10.771 6.916 19.952 16.516 23.365v-53.865c0-9.952 5.919-18.903 14.952-22.742l87.313-36.27c2.612-1.085 4.584-3.387 5.085-6.103l-9.754-7.858h-6.757z" fill="#b5afb5"/><path d="m337.461 316.075-156.959 6.526 9.428 69.01c5.377 2.218 10.889 4.173 16.522 5.85l16.514 4.041c5.42 1.045 10.93 1.839 16.517 2.367l16.517.776c5.571 0 11.08-.263 16.516-.777l16.516-2.367c5.605-1.081 11.114-2.433 16.513-4.04l16.512-5.845c5.665-2.336 11.178-4.963 16.523-7.863v-61.689c.001-2.112-.396-4.132-1.119-5.989z" fill="#d8d5d8"/><g><path d="m272.516 345.611v58.255c5.579-.528 11.103-1.322 16.516-2.366v-59.253c5.673-1.569 11.201-3.461 16.516-5.785v61.01c5.63-1.677 11.142-3.638 16.516-5.856v-63.993c5.431-3.436 10.577-7.339 15.397-11.548-2.399-6.16-8.389-10.527-15.397-10.527h-132.129c-9.121 0-16.516 7.394-16.516 16.516v61.689c5.333 2.894 10.859 5.526 16.511 7.858l.005-63.988c5.264 3.33 10.756 6.321 16.516 8.839v61c5.409 1.611 10.9 2.955 16.516 4.039v-59.254c5.37 1.484 10.879 2.611 16.516 3.364v58.255c5.444.515 10.937.779 16.516.779v-57.806c5.615 0 11.101-.504 16.517-1.228z" fill="#c7c2c6"/></g><path d="m358.94 123.879-28.618-9.477h-133.837c-18.243 0-33.032 14.789-33.032 33.032v75.533c0 59.29 33.257 106.747 92.548 106.747 5.559 0 11.018.185 16.349-.629 51.531-7.874 91.006-52.386 91.006-106.118v-41.29l-5.297-8.397 5.297-8.119v-24.774c-.001-6.013-1.608-11.651-4.416-16.508z" fill="#fbe7c3"/><g><path d="m181.677 219.935v-79.548c0-9.122 7.395-16.516 16.516-16.516h160.761c-5.722-9.832-16.436-16.516-28.632-16.516h-148.645c-18.243 0-33.032 14.789-33.032 33.032v24.773l5.251 8.337-5.251 8.179v41.291c0 59.29 48.065 107.355 107.355 107.355 5.543 0 11.033-.427 16.349-1.237-51.987-8.332-90.672-55.279-90.672-109.15z" fill="#f9d8af"/></g><g><path d="m256 280.774c-12.387 0-23.823-3.976-30.573-10.637-3.25-3.202-3.282-8.431-.081-11.677 3.202-3.25 8.444-3.282 11.677-.081 2.75 2.714 9.371 5.879 18.976 5.879s16.226-3.165 18.976-5.879c3.234-3.202 8.476-3.169 11.677.081 3.202 3.246 3.169 8.476-.081 11.677-6.748 6.661-18.184 10.637-30.571 10.637z" fill="#ffa65a"/></g><g><g><path d="m272.516 214.71c-4.565 0-8.258-3.698-8.258-8.258 0-4.552-3.702-8.258-8.258-8.258s-8.258 3.706-8.258 8.258c0 4.56-3.694 8.258-8.258 8.258s-8.258-3.698-8.258-8.258c0-13.661 11.113-24.774 24.774-24.774s24.774 11.113 24.774 24.774c0 4.56-3.693 8.258-8.258 8.258z" fill="#b5afb5"/></g></g><g><path d="m305.548 165.161h57.806v16.516h-57.806z" fill="#b5afb5"/></g><g><path d="m181.677 165.161h24.775v16.516h-31.271z" fill="#b5afb5"/></g><g><path d="m148.645 165.161h33.032v16.516h-33.032z" fill="#ada4ac"/></g><g><path d="m206.452 247.742c-22.766 0-41.29-18.524-41.29-41.29s18.524-41.29 41.29-41.29 41.29 18.524 41.29 41.29-18.524 41.29-41.29 41.29z" fill="#615260"/></g><g><circle cx="206.452" cy="206.452" fill="#f9d8af" r="24.774"/></g><g><path d="m206.452 215.427c-4.565 0-8.258-3.698-8.258-8.258v-8.258c0-4.56 3.694-8.258 8.258-8.258s8.258 3.698 8.258 8.258v8.258c0 4.561-3.694 8.258-8.258 8.258z" fill="#6b4f5a"/></g><g><path d="m305.548 247.742c-22.766 0-41.29-18.524-41.29-41.29s18.524-41.29 41.29-41.29 41.29 18.524 41.29 41.29-18.523 41.29-41.29 41.29z" fill="#615260"/></g><g><circle cx="305.548" cy="206.452" fill="#f9d8af" r="24.774"/></g><g><path d="m305.548 215.427c-4.565 0-8.258-3.698-8.258-8.258v-8.258c0-4.56 3.694-8.258 8.258-8.258 4.565 0 8.258 3.698 8.258 8.258v8.258c0 4.561-3.693 8.258-8.258 8.258z" fill="#6b4f5a"/></g></g></svg>