<svg id="Capa_1" enable-background="new 0 0 512 512" height="512" viewBox="0 0 512 512" width="512" xmlns="http://www.w3.org/2000/svg"><g><path d="m327.473 375.222c-8.265-4.142-13.666-12.654-13.666-22.146v-20.59l-105.98-1.735v28.018c0 10.99-7.24 20.667-17.784 23.768l20.107 30.314h99.041z" fill="#c7805d"/><path d="m198.193 297.291v55.784c0 9.492-5.401 18.005-13.667 22.147l.546 17.464c17.452-5.133 29.637-18.594 29.637-36.783 0-7.96 7.411-13.574 15.188-11.878 8.41 1.834 17.138 2.815 26.102 2.815 20.89 0 40.542-5.223 57.807-14.354v-35.194h-115.613z" fill="#b06e4d"/><path d="m333.626 26.426c-12.477-16.635-32.057-26.426-52.852-26.426h-49.549c-2.779 0-5.536.174-8.258.517l-57.807 59.827h177.585l8.222-10.795z" fill="#f8ba7e"/><g><path d="m222.968 33.032v-32.516c-17.641 2.223-33.786 11.499-44.593 25.91l-29.729 39.639 16.516 16.516h181.678l16.516-16.516-12.387-16.516h-111.485c-9.122 0-16.516-7.395-16.516-16.517z" fill="#f1a673"/></g><g><path d="m375.742 189.936-12.387-74.323h-197.931l.417 115.613c0 33.062 33.656 98.22 90.158 98.22 5.646 0 16.597-.399 16.597-.399 48.72-7.569 86.534-47.939 90.341-97.821h12.804c11.402 0 20.645-9.243 20.645-20.645 0-6.757-3.246-12.756-8.263-16.522-3.448-2.589-7.735-4.123-12.381-4.123z" fill="#e0916d"/></g><g><path d="m181.677 222.968v-57.807c0-9.122 7.395-16.516 16.516-16.516h165.162v-33.032h-214.71l-11.21 74.323c-10.799 0-20.64 7.77-21.716 18.515-1.238 12.358 8.434 22.775 20.538 22.775h12.804c4.23 55.419 50.435 99.097 106.938 99.097 5.649 0 11.185-.435 16.597-1.276-51.453-7.94-90.919-52.402-90.919-106.079z" fill="#c7805d"/></g><g><path d="m206.451 214.71c-4.565 0-8.258-3.698-8.258-8.258v-8.258c0-4.561 3.694-8.258 8.258-8.258s8.258 3.698 8.258 8.258v8.258c.001 4.561-3.693 8.258-8.258 8.258z" fill="#61444f"/></g><g><path d="m305.549 214.71c-4.565 0-8.258-3.698-8.258-8.258v-8.258c0-4.561 3.694-8.258 8.258-8.258 4.565 0 8.258 3.698 8.258 8.258v8.258c0 4.561-3.694 8.258-8.258 8.258z" fill="#61444f"/></g><g><path d="m256 272.517c-12.387 0-23.823-3.976-30.573-10.637-3.25-3.202-3.282-8.431-.081-11.677 3.202-3.25 8.444-3.282 11.677-.081 2.75 2.714 9.371 5.879 18.976 5.879s16.226-3.165 18.976-5.879c3.234-3.202 8.476-3.169 11.677.081 3.202 3.246 3.169 8.476-.081 11.677-6.748 6.661-18.184 10.637-30.571 10.637z" fill="#b06e4d"/></g><g><path d="m214.71 181.678h-16.516c-4.565 0-8.258-3.698-8.258-8.258s3.694-8.258 8.258-8.258h16.516c4.565 0 8.258 3.698 8.258 8.258s-3.694 8.258-8.258 8.258z" fill="#6b4f5a"/></g><g><path d="m313.807 181.678h-16.517c-4.565 0-8.258-3.698-8.258-8.258s3.694-8.258 8.258-8.258h16.516c4.565 0 8.258 3.698 8.258 8.258.001 4.56-3.693 8.258-8.257 8.258z" fill="#6b4f5a"/></g><g><path d="m130.005 126.805s-6.134 12.217-6.134 30.098v37.524c3.459-2.614 8.686-4.491 13.565-4.491h11.21c9.121 0 16.516-7.395 16.516-16.516v-46.615z" fill="#61444f"/></g><g><path d="m378.475 126.805s9.655 12.597 9.655 30.098c0 9.289-.005 37.157-.005 37.157-3.459-2.614-8.095-4.123-12.382-4.123h-12.387c-9.121 0-16.516-7.395-16.516-16.516v-47.05z" fill="#6b4f5a"/></g><path d="m371.612 67.474-16.515-1.41h-16.516l-9.409 6.225-7.107-6.225h-16.516l-9.39 6.225-7.126-6.225h-16.516l-8.937 6.225-7.58-6.226h-16.516l-9.136 6.225-7.381-6.225h-16.516l-9.008 6.225-7.508-6.225h-16.516l-7.903 6.225-8.613-6.225h-8.258c-2.895 0-5.676.493-8.258 1.405l-9.079 31.97 9.083 34.098c2.582-.912 5.36-1.408 8.254-1.408h8.258l8.258-5.323 8.258 5.323h16.516l7.997-5.323 8.519 5.323h16.516l8.847-5.323 7.669 5.323h16.516l8.882-5.323 7.634 5.323h16.516l8.863-5.323 7.653 5.323h16.516l8.627-5.323 7.889 5.323h16.516l14.282-3.248 2.232 4.657c9.622 3.401 16.517 12.577 16.517 23.364v-66.063c.003-10.787-6.891-19.963-16.514-23.364z" fill="#ffce8a"/><g><path d="m222.968 66.065h16.516v66.065h-16.516z" fill="#f8ba7e"/></g><g><path d="m189.935 66.065h16.516v66.065h-16.516z" fill="#f8ba7e"/></g><g><path d="m156.903 66.065h16.516v66.065h-16.516z" fill="#f8ba7e"/></g><g><path d="m322.065 66.065h16.516v66.065h-16.516z" fill="#f8ba7e"/></g><g><path d="m289.032 66.065h16.516v66.065h-16.516z" fill="#f8ba7e"/></g><g><path d="m256 66.065h16.516v66.065h-16.516z" fill="#f8ba7e"/></g><g><path d="m140.391 133.536-.004-66.068c-9.6 3.413-16.516 12.598-16.516 23.369v66.065c0-10.771 6.919-19.953 16.52-23.366z" fill="#f8ba7e"/></g><g><path d="m355.097 132.129h8.258c2.911 0 5.663.484 8.258 1.406v-66.065c-2.595-.922-5.347-1.406-8.258-1.406h-8.258z" fill="#f8ba7e"/></g><path d="m418.626 402.442-52.503-15.442-110.123 25.904-83.643-26.887-71.394 20.998c-21.087 6.202-35.568 25.555-35.568 47.535v32.675l8.926 23.365c2.583.913 5.363 1.41 8.258 1.41h346.84c13.682 0 24.774-11.092 24.774-24.774v-37.249c.001-21.98-14.479-41.333-35.567-47.535z" fill="#b0def5"/><g><path d="m366.123 387-34.533-10.157c-1.433-.422-2.816-.97-4.117-1.621-20.635 13.344-45.124 21.167-71.473 21.167s-50.839-7.822-71.474-21.166c-1.301.651-2.683 1.199-4.116 1.621l-87.036 25.599c-21.087 6.202-35.568 25.555-35.568 47.535v37.249c0 10.771 6.916 19.952 16.516 23.365v-60.617c0-14.652 9.653-27.553 23.71-31.686l56.496-16.614c4.658-1.37 9.612-.515 13.711 2.088 25.437 16.152 55.455 25.66 87.761 25.66 42.33-.002 80.865-16.146 110.123-42.423z" fill="#76d4ec"/></g></g></svg>