<svg id="Capa_1" enable-background="new 0 0 512 512" height="512" viewBox="0 0 512 512" width="512" xmlns="http://www.w3.org/2000/svg"><g><g><path d="m421.161 388.129h-132.129v-272.516h74.323l57.806 74.322z" fill="#ada4ac"/></g><g><path d="m256 44.372c-13.201 0-121.864-8.588-130.122 60.918-4.878 41.053-20.817 45.935-29.591 74.839-9.429 31.061-1.323 50.22-9.29 78.279-6.827 24.043-44.401 66.119-44.401 66.119-.465 5.194-.711 10.972-.617 17.493.798 55.066-30.968 67.441-18.581 103.914 9.245 27.22 42.667 41.29 42.667 41.29h189.935z" fill="#9b929b"/></g><path d="m312.209 359.78c-4.197-5.585-6.661-12.472-6.661-19.796v-20.038h-96.923v89.421h85.575z" fill="#f2c59a"/><path d="m206.452 280.774v59.21c0 7.317-2.411 14.219-6.597 19.807l7.284 16.488c1.692-1.573 3.273-3.254 4.723-5.039 7.022-8.64 11.106-19.6 11.106-31.264 0-7.152 6.424-12.432 13.48-11.27 6.364 1.048 12.888 1.616 19.552 1.616 17.629 0 34.367-3.738 49.548-10.376v-39.172z" fill="#e6b287"/><g><path d="m256 311.766c-59.29 0-96.026-46.023-96.026-105.314v-132.129h203.381v132.129c0 53.615-39.303 98.051-90.67 106.066-5.437.848-16.685-.752-16.685-.752z" fill="#f9d8af"/></g><g><path d="m148.645 206.452c0 59.29 48.065 107.355 107.355 107.355 5.632 0 11.288-.453 16.685-1.289-51.428-7.963-91.007-52.407-91.007-106.066v-2.744c0-5.686 1.749-11.155 4.523-16.118 4.777-8.545 7.618-19.029 6.576-32.1-1.424-17.866 4.014-25.16 5.435-26.74l53.277-51.01-3.385-3.418h-99.46v132.13z" fill="#f2c59a"/></g><g><path d="m85.512 313.519c22.196-2.018 50.445-17.487 41.702-55.826-4.289-18.803-3.258-36.38 4.035-43.943 12.107-12.555 47.886-21.55 45.065-56.947-2.466-30.94 11.883-41.253 11.883-41.253l39.748-38.114-59.686-60.275c-30.411 16.981-59.391 46.441-64.344 88.13-4.878 41.053-20.817 45.935-29.591 74.839-9.429 31.061-1.323 50.22-9.29 78.279-6.823 24.03-19.505 33.539-22.437 66.119z" fill="#ada4ac"/></g><g><path d="m256 264.258c-12.395 0-23.823-3.976-30.573-10.637-3.25-3.21-3.282-8.435-.081-11.677 3.218-3.25 8.444-3.282 11.677-.081 2.75 2.71 9.363 5.879 18.976 5.879s16.226-3.169 18.976-5.879c3.234-3.202 8.46-3.169 11.677.081 3.202 3.242 3.169 8.468-.081 11.677-6.748 6.661-18.176 10.637-30.571 10.637z" fill="#e6b287"/></g><g><path d="m206.452 206.452c-4.565 0-8.258-3.694-8.258-8.258v-8.258c0-4.565 3.694-8.258 8.258-8.258s8.258 3.694 8.258 8.258v8.258c0 4.564-3.694 8.258-8.258 8.258z" fill="#6b4f5a"/></g><g><path d="m305.548 206.452c-4.565 0-8.258-3.694-8.258-8.258v-8.258c0-4.565 3.694-8.258 8.258-8.258 4.565 0 8.258 3.694 8.258 8.258v8.258c0 4.564-3.693 8.258-8.258 8.258z" fill="#6b4f5a"/></g><g><path d="m198.194 173.419c-3.355 0-6.508-2.056-7.742-5.395-1.589-4.274.597-9.024 4.879-10.605l16.516-6.113c4.266-1.605 9.024.597 10.605 4.879 1.589 4.274-.597 9.024-4.879 10.605l-16.516 6.113c-.944.355-1.912.516-2.863.516z" fill="#9b929b"/></g><g><path d="m313.806 173.419c-.952 0-1.919-.161-2.863-.516l-16.516-6.113c-4.282-1.581-6.468-6.331-4.879-10.605 1.589-4.282 6.347-6.476 10.605-4.879l16.516 6.113c4.282 1.581 6.468 6.331 4.879 10.605-1.233 3.339-4.387 5.395-7.742 5.395z" fill="#9b929b"/></g><g><path d="m488.602 445.935c12.387-36.473-19.379-48.849-18.581-103.914.688-47.484-15.14-55.742-23.054-83.613-7.967-28.059.139-47.218-9.29-78.279-8.774-28.903-24.714-33.786-29.591-74.839-8.258-69.505-83.269-105.29-120.43-105.29-10.508 0-52.803 0-63.311 0-14.872 0-35.794 5.83-56.086 17.161l5.589 36.958s3.587 33.63 40.356 31.836c40.124-1.957 51.258 12.677 65.018 24.662 27.801 24.214 45.001 13.202 71.744 31.388 22.42 15.245 4.698 41.861 33.181 63.224 17.761 13.321 31.415 44.853 7.802 87.953-15.732 28.716-29.253 58.605-38.661 89.967l-6.449 21.496 50.206 82.581h48.891c-.001 0 33.421-14.07 42.666-41.291z" fill="#b5afb5"/></g><path d="m412.878 401.236-56.16-19.821-108.129 46.74-92.525-38.769-72 33.882 48.065 88.732h248.111l53.931-96.094c-5.548-6.544-12.82-11.68-21.293-14.67z" fill="#d8d5d8"/><path d="m155.314 381.403-56.192 19.832c-8.393 2.962-15.607 8.03-21.136 14.485l4.05 8.884 8.477 1.896c3.691-4.323 8.509-7.718 14.108-9.694l69.654-24.585z" fill="#c7c2c6"/><path d="m327.587 371.133c-6.296-2.222-11.553-6.258-15.378-11.353-18.85 19.03-37.79 33.534-56.188 42.838-14.496-7.33-29.328-17.888-44.188-31.346l-44.514 23.415c25.793 27.219 52.247 46.683 79.044 57.946 3.095 1.304 6.371 1.952 9.651 1.952s6.555-.648 9.651-1.952c30.973-13.018 61.489-36.979 91.053-71.219z" fill="#e9e7e9"/><g><path d="m445.935 487.226v-39.267c0-12.018-4.342-23.302-11.761-32.056l-42.448 36.541c-7.292 6.275-11.486 15.418-11.486 25.038v34.518h40.921c13.683 0 24.774-11.092 24.774-24.774z" fill="#e9e7e9"/></g><path d="m120.643 452.445-30.13-25.945-21.598 10.776 13.68 73.185c2.682.995 5.584 1.538 8.613 1.538h40.921v-34.517c0-9.62-4.194-18.762-11.486-25.037z" fill="#e9e7e9"/><g><path d="m199.854 359.791c-3.825 5.106-9.136 9.117-15.442 11.342l-29.099 10.27c3.99 4.621 8.001 9.02 12.025 13.266l22.573-7.968c8.587-3.033 16.178-8.345 21.951-15.461z" fill="#d8d5d8"/></g><g><path d="m77.986 415.721c-7.419 8.754-11.552 20.221-11.552 32.238v39.267c0 10.636 6.736 19.842 16.147 23.354v-62.62c0-8.036 2.937-15.604 7.932-21.459z" fill="#d8d5d8"/></g></g></svg>