<svg id="Capa_1" enable-background="new 0 0 512 512" height="512" viewBox="0 0 512 512" width="512" xmlns="http://www.w3.org/2000/svg"><g><path d="m418.257 443.926-21.87-6.248-140.387 41.29-130.745-41.29-21.87 6.248c-21.271 6.077-35.937 25.52-35.937 47.642l6.875 20.432h99.097l7.404-6.201 9.112 6.201h132.129l8.188-6.201 8.328 6.201h99.097c9.122 0 16.516-7.395 16.516-16.516v-3.916c0-22.123-14.666-41.565-35.937-47.642z" fill="#ff7e8f"/><g><path d="m322.822 355.097h-133.644c-32.275 0-44.412 35.952-24.017 49.548l90.839 49.549 90.839-49.548c20.394-13.598 8.258-49.549-24.017-49.549z" fill="#d63f50"/></g><g><path d="m330.323 437.677v-20.034c-9.832-3.489-16.516-12.748-16.516-23.279v-20.59l-106.485 3.445v17.144c0 10.531-6.685 19.79-16.516 23.279l-9.128 20.034 74.322 33.034z" fill="#f8ba7e"/></g><g><path d="m198.194 338.581v55.784c0 10.99-7.24 20.666-17.784 23.768l4.663 15.844c17.452-5.133 29.637-18.594 29.637-36.783 0-7.96 7.411-13.574 15.188-11.878 8.411 1.834 17.138 2.815 26.102 2.815 20.89 0 40.542-5.222 57.806-14.354v-35.194h-115.612z" fill="#f1a673"/></g><g><path d="m380.441 384.522c-5.239-17.465-21.315-29.425-39.549-29.425h-18.07c24.512 0 34.137 31.791 13.742 45.388l-75.983 50.655c-2.774 1.849-6.388 1.849-9.161 0l-75.983-50.655c-20.395-13.597-10.769-45.388 13.742-45.388h-18.07c-18.234 0-34.309 11.96-39.549 29.425l-15.947 53.155-21.87 6.248c-21.271 6.078-35.936 25.52-35.936 47.642v3.916c0 10.771 8.258 16.516 16.516 16.516v-20.431c0-14.669 9.855-27.73 23.96-31.762l44.226-12.637 105.246 37.146c5.336 1.883 11.155 1.883 16.491 0l132.142-46.638z" fill="#fc5f7a"/></g><g><path d="m181.677 445.935c-4.565 0-8.258 3.698-8.258 8.258v57.807h16.516v-57.806c0-4.561-3.693-8.259-8.258-8.259z" fill="#6b4f5a"/></g><g><path d="m330.323 445.935c-4.565 0-8.258 3.698-8.258 8.258v57.807h16.516v-57.806c0-4.561-3.694-8.259-8.258-8.259z" fill="#6b4f5a"/></g><path d="m379.871 231.642v-25.191c0-68.412-55.459-123.871-123.871-123.871-27.883 0-53.621 9.204-74.323 24.752l-30.501 103.517s20.348 132.114 73.303 151.819c14.009 5.213 42.823 8.5 48.284 7.642 48.64-7.635 86.372-47.97 90.174-97.794h12.804c11.402 0 20.645-9.243 20.645-20.645.001-9.988-7.092-18.316-16.515-20.229z" fill="#ffce8a"/><g><path d="m181.677 264.258v-156.926c-30.037 22.603-49.548 58.633-49.548 99.119v25.191c-9.423 1.913-16.516 10.241-16.516 20.229 0 11.402 9.243 20.645 20.645 20.645h12.804c4.23 55.419 50.435 99.097 106.938 99.097 5.649 0 11.352-.461 16.763-1.302-51.454-7.941-91.086-52.376-91.086-106.053z" fill="#f8ba7e"/></g><g><path d="m206.452 256c-4.565 0-8.258-3.698-8.258-8.258v-8.258c0-4.56 3.694-8.258 8.258-8.258s8.258 3.698 8.258 8.258v8.258c0 4.56-3.694 8.258-8.258 8.258z" fill="#6b4f5a"/></g><g><path d="m305.548 256c-4.565 0-8.258-3.698-8.258-8.258v-8.258c0-4.56 3.694-8.258 8.258-8.258s8.258 3.698 8.258 8.258v8.258c0 4.56-3.693 8.258-8.258 8.258z" fill="#6b4f5a"/></g><g><path d="m221.754 289.032c-3.91 0-7.075 3.678-5.994 7.436 4.216 14.662 20.632 25.597 40.24 25.597s36.024-10.934 40.24-25.597c1.081-3.758-2.084-7.436-5.994-7.436z" fill="#fff"/></g><g><path d="m214.71 222.968h-16.516c-4.565 0-8.258-3.698-8.258-8.258s3.694-8.258 8.258-8.258h16.516c4.565 0 8.258 3.698 8.258 8.258s-3.694 8.258-8.258 8.258z" fill="#f1a673"/></g><g><path d="m313.806 222.968h-16.516c-4.565 0-8.258-3.698-8.258-8.258s3.694-8.258 8.258-8.258h16.516c4.565 0 8.258 3.698 8.258 8.258.001 4.56-3.693 8.258-8.258 8.258z" fill="#f1a673"/></g><g><path d="m295.79 108.609c.899 4.194-1.589 8.293-5.66 9.646-10.844 3.605-22.272 5.615-34.13 5.615-7.686 0-15.191-.845-22.473-2.42l-1.88-70.565 27.901-50.885h6.292c3.894 0 7.259 2.72 8.075 6.528z" fill="#fc5f7a"/></g><g><path d="m259.548 0h-13.388c-3.894 0-7.259 2.72-8.075 6.528l-21.875 102.081c-.899 4.194 1.59 8.293 5.66 9.646 3.812 1.267 7.707 2.34 11.657 3.195z" fill="#f84455"/></g></g></svg>