<svg id="Capa_1" enable-background="new 0 0 512 512" height="512" viewBox="0 0 512 512" width="512" xmlns="http://www.w3.org/2000/svg"><g><path d="m420.199 419.046-43.6-18.358-187.301-4.789-97.496 29.973c-15.267 6.428-19.137 14.555-19.137 31.12v30.305l10.409 23.297c2.576.911 5.349 1.406 8.237 1.406h329.379c13.643 0 24.704-11.06 24.704-24.704v-30.305c0-16.565-9.928-31.517-25.195-37.945z" fill="#c2805d"/><g><path d="m376.599 400.688-87.661-36.91h-65.876l-131.261 55.268c-15.267 6.428-25.195 21.38-25.195 37.945v30.305c0 10.74 6.896 19.888 16.469 23.291v-53.6c0-9.963 5.935-18.898 15.118-22.758l54.583-22.986c30.627 16.908 65.765 26.645 103.224 26.645 44.735.001 86.251-13.738 120.599-37.2z" fill="#a06a5a"/></g><path d="m337.685 315.965-147.758-16.5c-9.019.107-25.608 14.438-25.608 23.457l9.335 61.198c24.484 13.284 52.532 20.832 82.345 20.832 28.74 0 55.84-7.014 79.687-19.42 1.643-.855 2.658-2.57 2.658-4.422v-60.514c.001-1.608-.229-3.162-.659-4.631z" fill="#845252"/><g><path d="m256 347.31c31.092 0 59.786-11.922 81.685-31.345-1.658-5.729-6.332-10.13-12.2-11.442l-135.557 1.614c-6.911.082-12.753 4.426-15.122 10.504 21.736 19.032 50.101 30.669 81.194 30.669z" fill="#70393c"/></g><g><path d="m157.186 273.199s-51.937 96.455 6.175 169.635c3.374 4.249 10.293 1.721 10.293-3.704v-116.523c0-9.096 7.373-16.469 16.469-16.469h24.704l-32.938-32.938h-24.703z" fill="#61444f"/></g><g><path d="m280.706 0c-80.766 0-134.63 47.927-134.63 107.049v16.469h241.679v-16.469c0-59.122-47.928-107.049-107.049-107.049z" fill="#ffce8a"/></g><g><path d="m280.704 0h-49.405c-59.122 0-107.049 47.928-107.049 107.049v16.469h49.405v-16.469c0-59.121 47.927-107.049 107.049-107.049z" fill="#f8ba7e"/></g><g><path d="m375.401 186.13-12.352-77.622-107.049-16.469-107.049 16.469 7.116 115.283c0 59.121 40.812 106.053 99.933 106.053 5.68 0 11.256.553 16.695-.299 48.511-7.605 86.146-47.829 89.938-97.519h12.768c11.37 0 20.586-9.217 20.586-20.586 0-10.131-7.318-18.553-16.957-20.267z" fill="#f1a673"/></g><g><path d="m212.784 137.529c3.865-6.955 10.844-11.56 18.743-12.519 8.18-.993 16.362-1.493 24.476-1.493 37.639 0 74.45 10.246 106.454 29.631 2.457 1.484 5.084 2.607 7.8 3.406l-7.207-48.047-107.05-16.468-107.049 16.469v115.283c0 59.121 47.928 107.049 107.049 107.049 5.633 0 11.299-.456 16.695-1.295-51.307-7.918-90.805-52.23-90.805-105.753v-1.586c3.65-30.912 19.314-63.84 30.894-84.677z" fill="#e0916d"/></g><g><path d="m148.951 124.977s-41.173 57.642-16.469 181.16l24.704-16.469v-74.111l41.173-107.049z" fill="#61444f"/></g><g><path d="m121.007 314.685c-3.643 0-6.055-.378-6.345-.426-4.487-.748-7.519-4.994-6.771-9.473.748-4.487 4.986-7.575 9.473-6.771.105 0 14.153 2.059 23.369-6.892 7.865-7.639 10.727-22.026 8.283-41.607-8.532-68.24 48.402-150.497 50.831-153.963 2.597-3.731 7.72-4.648 11.467-2.026 3.723 2.605 4.632 7.744 2.026 11.467-.555.796-55.72 80.56-47.984 142.48 3.176 25.379-1.303 44.1-13.317 55.623-10.325 9.915-23.393 11.588-31.032 11.588z" fill="#6b4f5a"/></g><g><path d="m375.208 190.852.001.002h.192c1.241 0 2.448.108 3.629.319l8.723-57.96-41.366-16.469v45.288c0 15.916 12.903 28.82 28.821 28.82z" fill="#6b4f5a"/></g><g><path d="m272.469 42.632h-32.938c-9.095 0-16.469 7.373-16.469 16.469v32.938h65.876v-32.938c0-9.096-7.373-16.469-16.469-16.469z" fill="#61444f"/></g><g><path d="m388.052 110.885c-39.729-24.056-85.389-36.774-132.05-36.774s-92.321 12.718-132.05 36.774c-7.78 4.712-10.265 14.841-5.557 22.621 3.096 5.11 8.532 7.941 14.105 7.941 2.907 0 5.846-.772 8.516-2.384 34.579-20.944 74.34-32.013 114.986-32.013s80.407 11.069 114.986 32.013c2.67 1.612 5.609 2.384 8.516 2.384 5.573 0 11.009-2.831 14.105-7.941 4.708-7.781 2.223-17.909-5.557-22.621z" fill="#fd9"/></g><g><path d="m206.4 215.557c-4.551 0-8.235-3.683-8.235-8.235v-8.235c0-4.551 3.683-8.235 8.235-8.235s8.235 3.683 8.235 8.235v8.235c-.001 4.552-3.684 8.235-8.235 8.235z" fill="#61444f"/></g><g><path d="m305.214 215.557c-4.552 0-8.235-3.683-8.235-8.235v-8.235c0-4.551 3.683-8.235 8.235-8.235s8.235 3.683 8.235 8.235v8.235c0 4.552-3.683 8.235-8.235 8.235z" fill="#61444f"/></g><g><path d="m198.165 182.619c-3.546 0-6.819-2.3-7.889-5.862-1.303-4.359 1.166-8.95 5.516-10.261l16.469-4.946c4.407-1.311 8.95 1.166 10.261 5.516 1.303 4.359-1.166 8.95-5.516 10.261l-16.469 4.946c-.796.233-1.592.346-2.372.346z" fill="#6b4f5a"/></g><g><path d="m313.449 182.619c-.78 0-1.576-.113-2.372-.346l-16.469-4.946c-4.35-1.311-6.819-5.902-5.516-10.261 1.303-4.35 5.83-6.827 10.261-5.516l16.469 4.946c4.35 1.311 6.819 5.902 5.516 10.261-1.07 3.562-4.343 5.862-7.889 5.862z" fill="#6b4f5a"/></g><g><path d="m224.944 248.495c-5.732 0-10.064 5.854-7.726 11.087 5.69 12.737 20.906 21.851 38.782 21.851s33.092-9.114 38.782-21.851c2.338-5.233-1.995-11.087-7.726-11.087z" fill="#fff"/></g></g></svg>