<svg id="Capa_1" enable-background="new 0 0 512 512" height="512" viewBox="0 0 512 512" width="512" xmlns="http://www.w3.org/2000/svg"><g><path d="m418.626 394.184-41.916-12.328-229.275-3.572-10.192 4.534-35.092 15.612c-21.087 6.202-35.568 25.555-35.568 47.535v45.507l7.739 19.119c2.583.913 5.362 1.409 8.257 1.409h107.355l6.856-7.606 9.66 7.606h41.29l9.647-7.606 6.869 7.606h41.29l7.551-7.606 8.965 7.606h107.355c13.682 0 24.774-11.092 24.774-24.774v-45.507c.003-21.98-14.478-41.333-35.565-47.535z" fill="#6b4f5a"/><g><path d="m247.742 388.129h16.516v123.871h-16.516z" fill="#61444f"/></g><g><path d="m98.032 410.032 87.04-25.605c17.452-5.133 29.637-21.419 29.637-39.609h-16.516c0 10.99-7.241 20.666-17.784 23.767l-87.036 25.599c-21.087 6.202-35.568 25.555-35.568 47.535v45.507c0 10.771 6.916 19.953 16.516 23.366v-68.874c.002-14.549 9.752-27.581 23.711-31.686z" fill="#61444f"/></g><path d="m412.259 297.485-13.534-165.795c-6.074-74.402-68.229-131.69-142.879-131.69-11.235 0-22.186 1.298-32.706 3.756l-70.028 390.073c13.491 6.906 28.802 10.817 45.089 10.817h115.29c57.909-.001 103.48-49.443 98.768-107.161z" fill="#87646f"/><g><path d="m214.71 344.819 8.258-229.206s0-.158.172-111.857c-59.356 13.894-105.015 64.75-110.173 127.935l-13.535 165.794c-3.39 41.53 19.138 78.718 53.68 96.343l31.961-9.401c17.451-5.133 29.637-21.419 29.637-39.608z" fill="#6b4f5a"/></g><path d="m148.645 152.325v169.739c0 21.235 13.358 39.35 32.129 46.4l150.49-.017c18.762-7.055 32.091-25.155 32.091-46.383v-169.739z" fill="#61444f"/><g><path d="m210.149 315.808-5.362 55.804h109.019c6.118 0 12.048-1.137 17.458-3.166-10.306-3.237-17.458-12.792-17.458-23.63v-29.009h-103.657z" fill="#e0916d"/></g><g><path d="m313.806 289.032h-115.612v55.785c0 10.838-7.113 20.41-17.419 23.647 5.41 2.028 11.3 3.148 17.419 3.148h6.594c6.261-7.287 9.922-16.641 9.922-26.794v-10.475c0-5.351 5.017-9.314 10.197-7.969 10.057 2.611 20.443 3.948 30.94 3.948 20.279 0 40.111-5.018 57.96-14.514v-26.776z" fill="#c7805d"/></g><g><path d="m255.846 312.34c-59.291 0-97.497-46.598-97.497-105.889v-82.581l171.692-3.585 33.16 50.043v36.123c0 53.589-39.265 98.007-90.594 106.054-5.462.857-11.06-.165-16.761-.165z" fill="#f1a673"/></g><g><path d="m148.491 123.871v82.581c0 59.29 48.065 107.355 107.355 107.355 5.632 0 11.363-.465 16.76-1.301-51.428-7.963-91.083-52.395-91.083-106.054v-40.375c0-7.294 4.814-13.632 11.762-15.854 20.157-6.447 41.289-9.835 62.718-9.835 37.905 0 74.974 10.362 107.163 29.962.02-.011.015-.009.035-.02v-46.458h-214.71z" fill="#e0916d"/></g><g><path d="m206.452 206.452c-4.565 0-8.258-3.698-8.258-8.258v-8.258c0-4.56 3.694-8.258 8.258-8.258s8.258 3.698 8.258 8.258v8.258c0 4.56-3.694 8.258-8.258 8.258z" fill="#61444f"/></g><g><path d="m305.548 206.452c-4.565 0-8.258-3.698-8.258-8.258v-8.258c0-4.56 3.694-8.258 8.258-8.258s8.258 3.698 8.258 8.258v8.258c0 4.56-3.693 8.258-8.258 8.258z" fill="#61444f"/></g><g><path d="m256 264.258c-12.387 0-23.823-3.976-30.573-10.637-3.25-3.202-3.282-8.431-.081-11.677 3.202-3.25 8.444-3.282 11.677-.081 2.75 2.714 9.371 5.879 18.976 5.879s16.226-3.165 18.976-5.879c3.234-3.202 8.476-3.169 11.677.081 3.202 3.246 3.169 8.476-.081 11.677-6.748 6.661-18.184 10.637-30.571 10.637z" fill="#d18964"/></g><g><path d="m214.71 172.702h-16.516c-4.565 0-8.258-3.698-8.258-8.258s3.694-8.258 8.258-8.258h16.516c4.565 0 8.258 3.698 8.258 8.258s-3.694 8.258-8.258 8.258z" fill="#6b4f5a"/></g><g><path d="m313.806 172.702h-16.516c-4.565 0-8.258-3.698-8.258-8.258s3.694-8.258 8.258-8.258h16.516c4.565 0 8.258 3.698 8.258 8.258s-3.693 8.258-8.258 8.258z" fill="#6b4f5a"/></g><g><path d="m198.194 388.129c-4.565 0-8.258 3.698-8.258 8.258v115.613h16.516v-115.613c0-4.56-3.694-8.258-8.258-8.258z" fill="#c7c2c6"/></g><g><path d="m313.806 388.129c-4.565 0-8.258 3.698-8.258 8.258v115.613h16.516v-115.613c0-4.56-3.693-8.258-8.258-8.258z" fill="#c7c2c6"/></g><g><path d="m388.43 127.718c-39.843-24.125-85.633-36.879-132.427-36.879s-92.585 12.754-132.427 36.879c-7.802 4.726-10.294 14.883-5.573 22.685 3.105 5.125 8.556 7.964 14.145 7.964 2.915 0 5.863-.774 8.54-2.391 34.677-21.004 74.552-32.105 115.315-32.105s80.637 11.101 115.315 32.105c2.677 1.617 5.625 2.391 8.54 2.391 5.589 0 11.04-2.839 14.145-7.964 4.721-7.802 2.229-17.959-5.573-22.685z" fill="#61444f"/></g></g></svg>