<svg id="Capa_1" enable-background="new 0 0 512 512" height="512" viewBox="0 0 512 512" width="512" xmlns="http://www.w3.org/2000/svg"><g><path d="m419.321 377.279-33.943-10.444-220.275-3.525-65.285 22.284c-20.804 6.401-35 25.622-35 47.388v54.227l9.388 23.383c2.584.913 5.366 1.407 8.263 1.407h165.268l8.67-6.3 7.856 6.3h165.268c13.691 0 24.79-11.099 24.79-24.79v-62.541c0-21.767-14.196-40.988-35-47.389z" fill="#6b4f5a"/><g><path d="m346.897 354.996h-181.794l-72.424 22.284c-20.804 6.401-35 25.622-35 47.388v62.541c0 10.778 6.92 19.968 16.527 23.383v-85.926c0-14.51 9.463-27.322 23.331-31.589l22.889-7.043c6.77-2.083 14.332-.025 18.615 5.616 13.569 17.874 34.988 29.453 59.116 29.453h49.58v90.897h16.527v-90.897h49.58c34.035 0 62.734-23.008 71.534-54.267z" fill="#61444f"/></g><g><path d="m355.161 255.835h-198.322c-9.127 0-16.527 7.399-16.527 16.527v10.054l12.48 64.316c15.857 41.341 75.81 57.844 161.051 57.844 31.946 0 57.844-25.898 57.844-57.844v-34.474l-4.253-9.308 4.253-14.91v-15.678c.001-9.128-7.399-16.527-16.526-16.527z" fill="#d18964"/></g><g><path d="m132.049 123.621h41.317v49.58h-41.317z" fill="#b5afb5"/></g><g><path d="m338.634 123.621h41.317v49.58h-41.317z" fill="#c7c2c6"/></g><g><path d="m374.641 164.938h-11.217c-9.127 0-16.527-7.399-16.527-16.527l-20.979-24.79h-136.85l-32.583 82.634c3.829 18.858 13.419 33.054 33.408 33.054h132.214c19.988 0 36.655-14.195 40.484-33.054h13.228c12.113 0 21.79-10.424 20.552-22.79-1.078-10.753-10.925-18.527-21.73-18.527z" fill="#ffce8a"/></g><path d="m264.263 230.937-8.263-8.155-8.263 8.156c-24.261-.64-46.591-4.08-65.028-9.516l-17.534 8.298c14.212 42.686 43.365 82.761 90.826 82.761l16.565-.072c51.463-7.965 90.859-52.459 90.859-106.154v-.124c-20.104 13.976-56.672 23.685-99.162 24.806z" fill="#c7c2c6"/><g><path d="m181.629 206.254v-33.054c0-13.691 11.099-24.79 24.79-24.79h140.478v-24.79h-181.794v24.79c0 9.127-7.399 16.527-16.527 16.527h-11.217c-10.806 0-20.653 7.775-21.73 18.527-1.238 12.366 8.439 22.79 20.551 22.79h12.395c3.624 17.851 19.629 31.367 38.188 32.777-3.31-10.337-5.134-21.34-5.134-32.777z" fill="#f8ba7e"/></g><g><path d="m182.708 221.422c-13.838-4.082-25.515-9.176-34.132-15.167 0 59.329 48.096 107.424 107.424 107.424 5.635 0 11.164-.433 16.565-1.269-46.54-7.207-83.269-44.247-89.857-90.988z" fill="#b5afb5"/></g><path d="m356.712 36.474c-5.049-18.932-20.65-32.841-39.461-36.084-4.869-.839-9.888-.27-14.603 1.207l-19.496 6.102c-17.678 5.533-36.625 5.533-54.303 0l-19.496-6.102c-3.622-1.134-7.423-1.733-11.197-1.57l-49.58 98.804h214.848l3.306-24.79z" fill="#6b4f5a"/><g><path d="m198.156 40.987v-40.96c-20.492 1.773-37.518 16.383-42.868 36.447l-14.425 54.093 7.713 8.263h214.848l7.713-8.263-4.407-16.527h-135.52c-18.255 0-33.054-14.798-33.054-33.053z" fill="#61444f"/></g><g><path d="m371.688 90.567h-173.532c-4.564 0-8.263 3.7-8.263 8.263v24.79h190.058v-24.79c0-4.563-3.7-8.263-8.263-8.263z" fill="#d18964"/></g><g><path d="m198.156 90.567h-57.844c-4.564 0-8.263 3.699-8.263 8.263v24.79h66.107z" fill="#c2805d"/></g><g><path d="m256 222.78h-24.79c-13.691 0-24.79 11.099-24.79 24.79h24.79c13.691 0 24.79-11.099 24.79-24.79z" fill="#b5afb5"/></g><g><path d="m256 222.78h24.79c13.691 0 24.79 11.099 24.79 24.79h-24.79c-13.691 0-24.79-11.099-24.79-24.79z" fill="#b5afb5"/></g><g><path d="m264.263 272.362h-16.527c-4.567 0-8.263-3.7-8.263-8.263s3.696-8.263 8.263-8.263h16.527c4.567 0 8.263 3.7 8.263 8.263.001 4.563-3.695 8.263-8.263 8.263z" fill="#b5afb5"/></g><g><path d="m206.42 197.991c-4.567 0-8.263-3.7-8.263-8.263v-8.263c0-4.563 3.696-8.263 8.263-8.263s8.263 3.7 8.263 8.263v8.263c0 4.563-3.696 8.263-8.263 8.263z" fill="#6b4f5a"/></g><g><path d="m305.58 197.991c-4.567 0-8.263-3.7-8.263-8.263v-8.263c0-4.563 3.696-8.263 8.263-8.263s8.263 3.7 8.263 8.263v8.263c.001 4.563-3.695 8.263-8.263 8.263z" fill="#6b4f5a"/></g><g><path d="m198.148 165.97c-3.801 0-7.222-2.635-8.062-6.496-.976-4.459 1.848-8.865 6.302-9.841l16.527-3.615c4.446-.956 8.869 1.848 9.837 6.306.976 4.459-1.848 8.865-6.302 9.841l-16.527 3.615c-.597.13-1.186.19-1.775.19z" fill="#b5afb5"/></g><g><path d="m313.852 165.97c-.589 0-1.178-.061-1.775-.19l-16.527-3.615c-4.454-.976-7.279-5.383-6.302-9.841.968-4.463 5.383-7.267 9.837-6.306l16.527 3.615c4.454.976 7.279 5.383 6.302 9.841-.84 3.862-4.261 6.496-8.062 6.496z" fill="#b5afb5"/></g><g><path d="m413.004 131.884h-314.008c-4.567 0-8.263-3.7-8.263-8.263s3.696-8.263 8.263-8.263h314.009c4.567 0 8.263 3.7 8.263 8.263s-3.696 8.263-8.264 8.263z" fill="#6b4f5a"/></g><g><path d="m371.688 288.04c-39.513 46.116-97.725 75.031-160.483 79.661-29.312-21.231-53.746-50.561-70.892-85.285v64.316c0 31.946 25.898 57.844 57.844 57.844h115.688c-28.621-1.349-55.722-9.528-80.246-22.799 52.711-8.329 101.308-32.826 138.09-69.519v-24.218z" fill="#c2805d"/></g><g><circle cx="289.054" cy="445.893" fill="#c2805d" r="8.263"/></g><g><circle cx="289.054" cy="487.21" fill="#c2805d" r="8.263"/></g></g></svg>