<svg id="Capa_1" enable-background="new 0 0 512 512" height="512" viewBox="0 0 512 512" width="512" xmlns="http://www.w3.org/2000/svg"><g><path d="m413.785 417.363-45.61-17.104-169.981-20.388-106.685 52.015c-10.999 5.362-17.976 16.527-17.976 28.763v26.576l9.048 23.365c2.583.913 5.362 1.41 8.258 1.41h330.323c13.682 0 24.774-11.092 24.774-24.774v-23.469c0-20.654-12.812-39.142-32.151-46.394z" fill="#47de9e"/><g><path d="m313.806 379.871h-115.612l-99.979 37.492c-19.339 7.252-32.15 25.739-32.15 46.393v23.47c0 10.771 6.916 19.953 16.516 23.366v-46.833c0-13.77 8.542-26.096 21.435-30.932l41.029-15.386c8.226-3.085 17.362-2.798 25.314.936 26.844 12.606 56.061 19.277 85.63 19.296 36.365-.024 72.234-9.977 103.752-28.785 3.569-2.13 6.377-5.133 8.433-8.629z" fill="#43bfa0"/></g><g><path d="m206.452 431.37v64.114l49.548 16.516-.011-74.327z" fill="#d18964"/></g><g><path d="m255.989 437.673h.011v-24.769l-49.548-8.258v26.724c16.16 4.151 32.783 6.292 49.537 6.303z" fill="#ab6e4d"/></g><path d="m256 0c-17.617 0-34.375 1.306-49.548 3.663l-74.323 95.434h247.742v-55.054c0-24.324-55.459-44.043-123.871-44.043z" fill="#df976c"/><g><path d="m206.452 3.663c-43.732 6.799-74.323 22.324-74.323 40.38v55.054h74.323z" fill="#d18964"/></g><g><ellipse cx="256" cy="156.903" fill="#ab6e4d" rx="173.419" ry="107.355"/></g><g><path d="m411.302 263.07c-7.693-13.411-14.915-33.179-14.915-60.229 0-24.774 0-45.938 0-45.938 0-12.656-5.978-24.569-16.516-35 0 0-70.242-31.774-123.871-31.774-29.441 0-56.76 4.801-79.33 13l112.362 227.192c37.569-7.143 88.83-30.51 118.953-51.739 4.959-3.493 6.335-10.25 3.317-15.512z" fill="#47de9e"/></g><g><path d="m214.71 124.529c0-13.055 10.098-23.808 23.117-24.768 5.88-.433 11.941-.664 18.173-.664 48.627 0 87.435 13.518 107.929 30.626 6.312 5.269 15.942.403 15.942-7.819-23.629-23.419-70.216-39.323-123.871-39.323-77.534 0-140.387 33.275-140.387 74.323v45.939c0 27.194-7.299 47.029-15.038 60.442-3.053 5.292-1.363 11.928 3.637 15.439 26.053 18.291 73.803 38.114 110.498 47.788z" fill="#43bfa0"/></g><g><path d="m213.732 336.463h91.817v51.666h-91.817z" fill="#f9d8af"/></g><g><path d="m256 346.839c17.629 0 34.367-3.738 49.548-10.376v-30.914h-99.097v82.581h16.516v-25.846c0-9.819 8.519-17.584 18.262-16.369 4.84.603 9.766.924 14.771.924z" fill="#f2c59a"/></g><g><path d="m330.323 156.903-49.548-41.29v33.032l-16.516-1.57-100.372 3.763v69.097c0 57.806 29.182 106.358 86.924 109.077 7.42.349 21.722.045 21.722.045 51.441-7.951 90.823-52.421 90.823-106.09v-55.857c0-12.278-12.921-20.263-23.902-14.772z" fill="#fbe7c3"/></g><g><path d="m206.452 222.968c-4.565 0-8.258-3.698-8.258-8.258v-8.258c0-4.56 3.694-8.258 8.258-8.258s8.258 3.698 8.258 8.258v8.258c0 4.56-3.694 8.258-8.258 8.258z" fill="#6b4f5a"/></g><g><path d="m305.548 222.968c-4.565 0-8.258-3.698-8.258-8.258v-8.258c0-4.56 3.694-8.258 8.258-8.258 4.565 0 8.258 3.698 8.258 8.258v8.258c0 4.56-3.693 8.258-8.258 8.258z" fill="#6b4f5a"/></g><g><path d="m256 280.774c-12.387 0-23.823-3.976-30.573-10.637-3.25-3.202-3.282-8.431-.081-11.677s8.444-3.282 11.677-.081c2.75 2.714 9.371 5.879 18.976 5.879s16.226-3.165 18.976-5.879c3.234-3.202 8.476-3.165 11.677.081 3.202 3.246 3.169 8.476-.081 11.677-6.748 6.661-18.184 10.637-30.571 10.637z" fill="#f2c59a"/></g><g><path d="m198.185 190.968c-3.798 0-7.218-2.633-8.056-6.492-.976-4.456 1.847-8.859 6.298-9.835l16.516-3.613c4.444-.968 8.863 1.843 9.831 6.302.976 4.456-1.847 8.859-6.298 9.835l-16.516 3.613c-.597.129-1.186.19-1.775.19z" fill="#df976c"/></g><g><path d="m313.814 190.968c-.589 0-1.177-.06-1.774-.19l-16.516-3.613c-4.452-.976-7.274-5.379-6.298-9.835.968-4.46 5.379-7.278 9.831-6.302l16.516 3.613c4.452.976 7.274 5.379 6.298 9.835-.839 3.859-4.258 6.492-8.057 6.492z" fill="#df976c"/></g><g><path d="m162.769 375.493-4.756 7.95c-2.312 3.864-1.156 8.955 2.71 11.263 28.241 16.853 60.964 26.429 95.277 26.451 34.313-.022 67.036-9.599 95.277-26.451 3.866-2.307 5.022-7.399 2.71-11.263l-4.756-7.95z" fill="#d18964"/></g><g><path d="m181.677 219.935v-44.195c0-9.712 8.339-17.328 18.011-16.448l46.558 4.233c9.672.879 18.011-6.736 18.011-16.448v-.495l-97.047-12.132c-9.858-1.232-18.565 6.454-18.565 16.388v68.821c0 48.481 30.824 92.82 77.369 106.384 16.156 4.708 31.805 5.291 46.518 3.015-52.127-8.21-90.855-55.156-90.855-109.123z" fill="#f9d8af"/></g><g><path d="m256 404.645c33.785-.024 65.881-10.669 93.231-29.152l-8.042-13.443c-4.583-7.659-14.299-10.066-22.216-5.944-19.07 9.932-40.564 15.481-62.973 15.501-22.409-.02-43.903-5.569-62.973-15.501-7.916-4.122-17.633-1.716-22.216 5.944l-8.042 13.443c27.35 18.483 59.446 29.128 93.231 29.152z" fill="#df976c"/></g></g></svg>