<svg id="Capa_1" enable-background="new 0 0 512 512" height="512" viewBox="0 0 512 512" width="512" xmlns="http://www.w3.org/2000/svg"><g><g><path d="m206.891 299.452h106.915v80.419h-106.915z" fill="#f8ba7e"/></g><g><path d="m198.194 363.355h16.516v-35.298c0-10.47 9.562-18.019 19.867-16.167 6.953 1.249 14.106 1.917 21.423 1.917 20.89 0 40.542-5.222 57.806-14.354v-35.194h-115.612z" fill="#f1a673"/></g><g><path d="m375.742 156.903h-4.129v-82.58c0-23.708-61.785-53.735-131.613-53.735-26.039 0-81.76 20.899-81.76 41.513l2.606 136.093c4.23 55.419 38.651 97.565 95.154 97.565 5.658 0 11.212 1.094 16.632.25 48.702-7.583 86.493-47.946 90.3-97.815h11.633c10.8 0 20.641-7.771 21.716-18.517 1.236-12.358-8.435-22.774-20.539-22.774z" fill="#ffce8a"/></g><g><path d="m272.516 156.903h-33.032c-4.565 0-8.258-3.694-8.258-8.258s3.694-8.258 8.258-8.258h33.032c4.565 0 8.258 3.694 8.258 8.258s-3.693 8.258-8.258 8.258z" fill="#76d4ec"/></g><path d="m350.847 23.279-20.524 12.783v13.486c0 13.682 11.092 24.774 24.774 24.774h16.516v-2.952c0-18.43-7.677-35.762-20.766-48.091z" fill="#f8ba7e"/><path d="m181.677 189.935v-146.542l-41.29 30.93v82.581h-2.95c-10.799 0-20.641 7.77-21.717 18.515-1.238 12.358 8.434 22.775 20.538 22.775h12.804c4.23 55.419 50.435 99.097 106.938 99.097 5.649 0 11.221-.441 16.632-1.282-51.454-7.941-90.955-52.397-90.955-106.074z" fill="#f8ba7e"/><path d="m151.837 35.199c-7.058 6.791-11.45 16.333-11.45 26.901v12.222h16.516c13.682 0 24.774-11.092 24.774-24.774v-6.807z" fill="#f1a673"/><g><path d="m317.459 338.581-57.549 30.931c-2.441 1.312-5.378 1.312-7.819 0l-57.549-30.931 61.458 173.419z" fill="#87646f"/></g><g><path d="m322.065 338.581 96.89 29.227c20.922 6.311 35.239 25.584 35.239 47.437v71.981c0 13.682-11.092 24.774-24.774 24.774h-123.872z" fill="#4fc0ec"/></g><g><path d="m188.647 347.03-86.009 20.777c-20.922 6.311-35.239 25.584-35.239 47.437v71.981l6.924 23.372c2.582.912 5.363 1.402 8.258 1.402h123.871z" fill="#4fc0ec"/></g><g><path d="m57.806 415.244v71.981c0 10.771 6.916 19.959 16.516 23.372v-95.356c0-14.677 9.444-27.379 23.492-31.621l93.718-28.27-1.597-16.771-96.89 29.226c-20.922 6.313-35.239 25.586-35.239 47.439z" fill="#24aadb"/></g><g><path d="m198.194 313.806-38.712 19.356c-5.643 2.821-7.352 10.064-3.567 15.111l17.505 23.34-16.357 16.356c-5.027 5.027-6.273 12.707-3.094 19.065l52.483 104.966h49.548z" fill="#ffce8a"/></g><g><path d="m206.452 173.419c-4.565 0-8.258-3.694-8.258-8.258v-8.258c0-4.565 3.694-8.258 8.258-8.258s8.258 3.694 8.258 8.258v8.258c0 4.565-3.694 8.258-8.258 8.258z" fill="#6b4f5a"/></g><g><path d="m305.548 173.419c-4.565 0-8.258-3.694-8.258-8.258v-8.258c0-4.565 3.694-8.258 8.258-8.258 4.565 0 8.258 3.694 8.258 8.258v8.258c0 4.565-3.693 8.258-8.258 8.258z" fill="#6b4f5a"/></g><g><path d="m256 247.742c-12.395 0-23.823-3.976-30.573-10.637-3.25-3.21-3.282-8.435-.081-11.677 3.218-3.25 8.444-3.282 11.677-.081 2.75 2.71 9.363 5.879 18.976 5.879s16.226-3.169 18.976-5.879c3.234-3.202 8.46-3.169 11.677.081 3.202 3.242 3.169 8.468-.081 11.677-6.748 6.661-18.176 10.637-30.571 10.637z" fill="#f1a673"/></g><g><path d="m197.081 204.226c-6.411 0-12.766-1.927-18.177-5.677-8.605-5.96-13.742-15.774-13.742-26.242 0-17.597 14.323-31.919 31.919-31.919h42.403c4.565 0 8.258 3.694 8.258 8.258v16.637c0 13.234-8.323 25.242-20.718 29.887l-18.742 7.024c-3.629 1.362-7.427 2.032-11.201 2.032zm0-47.323c-8.492 0-15.403 6.911-15.403 15.403 0 5.129 2.419 9.742 6.629 12.661 4.21 2.927 9.387 3.581 14.177 1.758h.008l18.742-7.024c5.976-2.242 9.992-8.032 9.992-14.419v-8.379z" fill="#4fc0ec"/></g><g><path d="m314.919 204.226c-3.774 0-7.573-.669-11.202-2.032l-18.742-7.024c-12.395-4.645-20.718-16.653-20.718-29.887v-16.637c0-4.565 3.694-8.258 8.258-8.258h42.403c17.597 0 31.919 14.323 31.919 31.919 0 10.468-5.137 20.282-13.742 26.242-5.41 3.749-11.764 5.677-18.176 5.677zm-34.145-47.323v8.379c0 6.387 4.016 12.177 9.992 14.419l18.742 7.024h.008c4.79 1.815 9.952 1.161 14.177-1.758 4.21-2.919 6.629-7.532 6.629-12.661 0-8.492-6.911-15.403-15.403-15.403z" fill="#4fc0ec"/></g><g><path d="m313.806 313.806 38.712 19.356c5.643 2.821 7.352 10.064 3.567 15.111l-17.505 23.34 16.357 16.356c5.027 5.027 6.273 12.707 3.094 19.065l-52.483 104.966h-49.548z" fill="#ffce8a"/></g><path d="m338.326 14.011-24.52-14.011-106.108 28.182c18.058 24.24 42.683 39.227 69.875 39.227 28.942 0 55.005-17.059 73.275-44.13-3.754-3.538-7.933-6.645-12.522-9.268z" fill="#ffbf63"/><g><path d="m220.95 63.374c42.118 0 78.006-26.321 92.352-63.374-2.13 0-13.534 0-73.302 0-26.039 0-51.273 9.455-62.249 24.774h-.037c-10.05 0-19.166 3.965-25.876 10.425 17.852 17.378 42.23 28.175 69.112 28.175z" fill="#ffa65a"/></g></g></svg>