<svg id="Capa_1" enable-background="new 0 0 512 512" height="512" viewBox="0 0 512 512" width="512" xmlns="http://www.w3.org/2000/svg"><g><g><path d="m138.322 206.451c-4.736 27.833-20.668 29.572-21.529 69.002-.453 20.736.431 32.472-11.195 51.027-17.528 27.976-4.774 50.292-4.774 50.292l31.305 11.357h123.871v-181.678z" fill="#6b4f5a"/></g><g><path d="m373.678 206.451c4.736 27.833 20.668 29.572 21.529 69.002.453 20.736-.431 32.472 11.195 51.027 17.528 27.976 4.774 50.292 4.774 50.292l-31.305 11.357h-123.871v-181.678z" fill="#87646f"/></g><path d="m448.186 393.291-10.211-13.013c-5.419-4.929-11.98-8.702-19.348-10.869l-44.437-13.069-175.996-9.961-95.122 30.828c-21.087 6.202-35.568 17.756-35.568 39.737v70.281l6.82 23.365c2.583.913 5.362 1.409 8.257 1.409h33.032l7.55-3.376 8.967 3.376h247.743l7.507-4.897 9.009 4.897h33.032c13.682 0 24.774-11.092 24.774-24.774v-70.281c0-8.476-2.154-16.562-6.009-23.653z" fill="#dcbaed"/><g><path d="m313.807 338.581h-115.614l-19.541 5.747-85.279 25.081c-21.087 6.202-35.568 25.555-35.568 47.536v70.281c0 10.771 6.916 19.955 16.516 23.368v-93.649c0-4.189.888-8.215 2.372-11.976l29.999 24.984c5.669 4.718 8.919 11.653 8.919 19.032v63.015h16.516v-63.015c0-12.298-5.419-23.863-14.871-31.726l-30.841-25.686c3.371-2.8 7.253-5.032 11.615-6.315l50.277-14.787c25.724 30.91 64.33 50.691 107.692 50.691 49.684 0 93.238-25.879 118.19-64.822z" fill="#c8adef"/></g><path d="m375.743 173.417h-12.387v-66.064h-189.914v167.621c19.663 23.719 49.327 38.831 82.558 38.831 56.503 0 102.708-43.678 106.938-99.097h12.804c11.402 0 20.645-9.243 20.645-20.645.001-11.403-9.242-20.646-20.644-20.646z" fill="#e0916d"/><g><path d="m181.677 256v-99.097c0-9.122 7.395-16.516 16.516-16.516h165.162v-33.032h-214.711v66.064h-11.21c-10.799 0-20.64 7.77-21.716 18.515-1.238 12.358 8.434 22.775 20.538 22.775h12.805z" fill="#c7805d"/></g><g><path d="m123.87 148.643v28.997c3.459-2.614 7.717-4.222 12.387-4.222h12.387c9.122 0 16.516-7.395 16.516-16.516v-43.788c.001-.001-41.29-7.386-41.29 35.529z" fill="#61444f"/></g><g><path d="m388.13 148.643v28.997c-3.459-2.614-7.717-4.222-12.387-4.222h-12.387c-9.122 0-16.516-7.395-16.516-16.516v-49.87c-.001 0 41.29-4.779 41.29 41.611z" fill="#6b4f5a"/></g><path d="m355.097 198.193c-4.561 0-8.258 3.697-8.258 8.258v1.412c0 10.664-6.824 20.131-16.94 23.503l-49.125 16.375-24.774-10.662-24.774 10.663-49.549-16.555-19.42 25.275v24.313c0 59.291 34.452 106.003 93.743 106.003 5.661 0 11.219.914 16.642.07 51.388-7.997 90.713-52.443 90.713-106.073v-74.323c0-4.562-3.697-8.259-8.258-8.259z" fill="#6b4f5a"/><g><path d="m206.451 198.193c-4.565 0-8.258-3.694-8.258-8.258v-8.258c0-4.565 3.694-8.258 8.258-8.258s8.258 3.694 8.258 8.258v8.258c0 4.564-3.693 8.258-8.258 8.258z" fill="#61444f"/></g><g><path d="m305.549 198.193c-4.565 0-8.258-3.694-8.258-8.258v-8.258c0-4.565 3.694-8.258 8.258-8.258s8.258 3.694 8.258 8.258v8.258c0 4.564-3.694 8.258-8.258 8.258z" fill="#61444f"/></g><g><path d="m198.185 169.636c-3.637 0-6.968-2.419-7.96-6.097-1.194-4.403 1.403-8.936 5.806-10.129l16.516-4.476c4.419-1.21 8.944 1.403 10.129 5.806 1.194 4.403-1.403 8.936-5.806 10.129l-16.516 4.476c-.725.203-1.451.291-2.169.291z" fill="#6b4f5a"/></g><g><path d="m313.815 169.636c-.718 0-1.444-.089-2.169-.29l-16.516-4.476c-4.403-1.194-7-5.726-5.806-10.129 1.185-4.411 5.726-7.032 10.129-5.806l16.516 4.476c4.403 1.194 7 5.726 5.806 10.129-.992 3.677-4.323 6.096-7.96 6.096z" fill="#6b4f5a"/></g><g><path d="m198.193 250.812 27.619 6.479c13.321 3.125 26.653-5.141 29.777-18.462l.41-1.75-27.619-6.479c-13.321-3.125-26.653 5.141-29.777 18.462z" fill="#61444f"/></g><g><path d="m313.807 250.812-27.619 6.479c-13.321 3.125-26.653-5.141-29.777-18.462l-.41-1.75 27.619-6.479c13.321-3.125 26.653 5.141 29.777 18.462z" fill="#61444f"/></g><g><path d="m181.677 280.774v-49.587c-9.874-3.497-16.516-12.815-16.516-23.323v-1.412c0-4.561-3.697-8.258-8.258-8.258s-8.258 3.697-8.258 8.258v74.323c0 59.291 48.065 107.355 107.355 107.355 5.632 0 11.245-.446 16.642-1.282-51.428-7.963-90.965-52.415-90.965-106.074z" fill="#61444f"/></g><g><path d="m437.975 380.278-43.684 37.07c-9.161 7.855-14.419 19.282-14.419 31.355v63.297h16.516v-63.297c0-7.242 3.153-14.105 8.613-18.782l43.185-36.629c-2.649-4.875-6.101-9.276-10.211-13.014z" fill="#c8adef"/></g><g><path d="m333.626 26.426c-12.477-16.635-32.057-26.426-52.852-26.426h-49.549c-2.779 0-5.536.174-8.258.517l-57.807 59.827h177.585l8.222-10.795z" fill="#f9d8af"/><g><path d="m222.967 33.032v-32.516c-17.641 2.223-33.786 11.499-44.593 25.91l-29.729 39.639 16.516 16.516h181.678l16.516-16.516-12.387-16.516h-111.484c-9.122 0-16.517-7.395-16.517-16.517z" fill="#f2c59a"/></g><path d="m371.612 67.474-16.515-1.41h-16.516l-9.409 6.225-7.107-6.225h-16.516l-9.39 6.225-7.126-6.225h-16.516l-8.937 6.225-7.58-6.226h-16.516l-9.136 6.225-7.381-6.225h-16.516l-9.008 6.225-7.508-6.225h-16.516l-7.903 6.225-8.613-6.225h-8.258c-2.895 0-5.676.493-8.258 1.405l-9.079 31.97 9.083 25.839c2.582-.912 5.36-1.408 8.254-1.408h8.258l8.258-5.323 8.258 5.323h16.516l7.997-5.323 8.519 5.323h16.516l8.847-5.323 7.669 5.323h16.516l8.882-5.323 7.634 5.323h16.516l8.863-5.323 7.653 5.323h16.516l8.627-5.323 7.889 5.323h16.516l14.282-3.248 2.232 4.657c9.622 3.401 16.517 12.577 16.517 23.364v-57.804c.003-10.787-6.891-19.963-16.514-23.364z" fill="#fbe7c3"/><g><path d="m222.967 66.065h16.516v57.805h-16.516z" fill="#f9d8af"/></g><g><path d="m189.935 66.065h16.516v57.805h-16.516z" fill="#f9d8af"/></g><g><path d="m156.903 66.065h16.516v57.805h-16.516z" fill="#f9d8af"/></g><g><path d="m322.064 66.065h16.516v57.805h-16.516z" fill="#f9d8af"/></g><g><path d="m289.032 66.065h16.516v57.805h-16.516z" fill="#f9d8af"/></g><g><path d="m256 66.065h16.516v57.805h-16.516z" fill="#f9d8af"/></g><g><path d="m140.39 125.277-.004-57.808c-9.6 3.413-16.516 12.598-16.516 23.369v57.805c0-10.771 6.92-19.953 16.52-23.366z" fill="#f9d8af"/></g><g><path d="m355.097 123.869h8.258c2.911 0 5.663.484 8.258 1.406v-57.805c-2.595-.922-5.347-1.406-8.258-1.406h-8.258z" fill="#f9d8af"/></g></g></g></svg>