<svg id="Capa_1" enable-background="new 0 0 512 512" height="512" viewBox="0 0 512 512" width="512" xmlns="http://www.w3.org/2000/svg"><g><g><path d="m355.097 396.387h-198.194v-74.323c0-18.243 14.032-33.032 32.275-33.032h133.643c18.243 0 32.275 14.789 32.275 33.032v74.323z" fill="#47de9e"/></g><path d="m335.904 353.338-4.313-1.269c-10.543-3.101-17.784-12.778-17.784-23.768v-20.841h-104.31v87.568h126.407z" fill="#f2c59a"/><g><path d="m256 388.129c-23.656 0-45.982-5.402-66.065-14.819l33.033 138.69h66.065l33.032-138.69c-20.083 9.417-42.409 14.819-66.065 14.819z" fill="#fd7"/></g><g><path d="m198.194 289.032v39.269c0 7.201-3.148 13.796-8.258 18.39v8.406l24.774 17.996v-37.893c0-9.924 9.084-17.13 18.832-15.268 7.293 1.393 14.797 2.133 22.459 2.133 20.782 0 40.457-5.337 57.806-14.604v-18.428h-115.613z" fill="#e6b287"/></g><path d="m142.256 363.291-41.191 14.377c-21.087 6.202-35.568 25.555-35.568 47.535v62.023l8.826 23.371c2.582.912 5.363 1.403 8.258 1.403h90.839l6.756-6.962 9.76 6.962h33.032v-102.497z" fill="#47de9e"/><g><path d="m93.374 377.668c-21.087 6.202-35.568 25.555-35.568 47.535v62.023c0 10.771 6.916 19.958 16.516 23.371v-85.395c0-14.548 9.75-27.581 23.71-31.685l48.887-14.379-4.661-15.844-.003-.002z" fill="#43bfa0"/></g><g><path d="m289.032 409.503 80.712-46.212 48.882 14.377c21.087 6.202 35.568 25.555 35.568 47.535v62.023c0 13.682-11.092 24.774-24.774 24.774h-90.839l-7.238-8.265-9.278 8.265h-33.032v-102.497z" fill="#47de9e"/></g><path d="m315.474 0h-117.28l-33.005 173.419h206.424l6.292-66.065 3.639-41.29c.055-36.063-29.224-66.064-66.07-66.064z" fill="#845252"/><path d="m196.526 0c-36.846 0-66.125 30.001-66.07 66.065l3.639 41.29 6.292 66.065h57.806v-173.42z" fill="#7a4646"/><g><path d="m374.564 165.161h-11.21c-9.122 0-16.516-7.395-16.516-16.516v-24.774l-173.83-24.774v49.548c0 9.122-11.294 57.806-11.294 57.806 4.23 55.419 37.784 97.899 94.286 97.899 5.676 0 11.247.757 16.683-.092 48.679-7.603 86.45-47.955 90.255-97.807h12.804c12.105 0 21.776-10.417 20.538-22.775-1.076-10.745-10.917-18.515-21.716-18.515z" fill="#f9d8af"/></g><g><path d="m181.677 198.194v-49.548c0-13.682 11.092-24.774 24.774-24.774h140.387v-24.775h-181.677v49.548c0 9.122-7.395 16.516-16.516 16.516h-11.21c-10.799 0-20.64 7.77-21.716 18.515-1.238 12.358 8.433 22.775 20.538 22.775h12.804c4.23 55.419 50.435 99.097 106.938 99.097 5.649 0 11.271-.448 16.683-1.29-51.453-7.94-91.005-52.388-91.005-106.064z" fill="#f2c59a"/></g><g><path d="m206.452 189.935c-4.565 0-8.258-3.694-8.258-8.258v-8.258c0-4.565 3.694-8.258 8.258-8.258s8.258 3.694 8.258 8.258v8.258c0 4.565-3.694 8.258-8.258 8.258z" fill="#61444f"/></g><g><path d="m305.548 189.935c-4.565 0-8.258-3.694-8.258-8.258v-8.258c0-4.565 3.694-8.258 8.258-8.258 4.565 0 8.258 3.694 8.258 8.258v8.258c0 4.565-3.693 8.258-8.258 8.258z" fill="#61444f"/></g><g><path d="m256 247.742c-12.395 0-23.823-3.976-30.573-10.637-3.25-3.21-3.282-8.435-.081-11.677 3.218-3.25 8.444-3.282 11.677-.081 2.75 2.71 9.363 5.879 18.976 5.879s16.226-3.169 18.976-5.879c3.234-3.202 8.46-3.169 11.677.081 3.202 3.242 3.169 8.468-.081 11.677-6.748 6.661-18.176 10.637-30.571 10.637z" fill="#e6b287"/></g><g><path d="m214.71 156.903h-16.516c-4.565 0-8.258-3.694-8.258-8.258s3.694-8.258 8.258-8.258h16.516c4.565 0 8.258 3.694 8.258 8.258s-3.694 8.258-8.258 8.258z" fill="#845252"/></g><g><path d="m313.806 156.903h-16.516c-4.565 0-8.258-3.694-8.258-8.258s3.694-8.258 8.258-8.258h16.516c4.565 0 8.258 3.694 8.258 8.258s-3.693 8.258-8.258 8.258z" fill="#845252"/></g><path d="m198.194 66.065-23.231 26.522 105.812 14.769h97.131l3.336-35.027c.201-2.108.301-4.192.304-6.264z" fill="#89ec9e"/><g><path d="m280.774 90.839h-66.064c-9.122 0-16.516-7.395-16.516-16.516v-8.258h-67.735c.003 2.072.101 4.156.301 6.264l3.336 35.027h146.679v-16.517z" fill="#47de9e"/></g><g><path d="m355.097 41.29-21.156 35.26c-2.085 3.476-6.385 4.924-10.148 3.419l-34.76-13.904v35.483c0 7.667-9.539 11.195-14.528 5.374l-35.02-40.857 8.258-33.032z" fill="#845252"/></g><g><path d="m211.935 358.753-36.499-24.333c-20.395-13.597-10.77-45.388 13.742-45.388h-18.07c-18.234 0-34.309 11.96-39.549 29.425l-15.947 53.155 107.355 37.89v-30.137c.001-8.282-4.139-16.018-11.032-20.612z" fill="#89ec9e"/></g><g><path d="m300.065 358.753 36.5-24.333c20.395-13.597 10.77-45.388-13.742-45.388h18.07c18.234 0 34.309 11.96 39.549 29.425l15.947 53.155-107.355 37.89v-30.137c-.002-8.282 4.138-16.018 11.031-20.612z" fill="#89ec9e"/></g><g><path d="m181.677 379.871c-4.565 0-8.258 3.694-8.258 8.258v123.871h16.516v-123.871c0-4.564-3.693-8.258-8.258-8.258z" fill="#ffcd5c"/></g><g><path d="m330.323 379.871c-4.565 0-8.258 3.694-8.258 8.258v123.871h16.516v-123.871c0-4.564-3.694-8.258-8.258-8.258z" fill="#ffcd5c"/></g></g></svg>