<svg id="Capa_1" enable-background="new 0 0 512 512" height="512" viewBox="0 0 512 512" width="512" xmlns="http://www.w3.org/2000/svg"><g><path d="m256 15.71c-27.341 0-52.859 7.803-74.45 21.304l-28.091 119.312v272.96h243.156v-231.603c0-13.255-1.834-67.439-5.262-79.597-16.656-59.077-70.948-102.376-135.353-102.376z" fill="#c2805d"/><g><path d="m181.557 37.014c-29.216 18.296-51.274 47.056-60.882 81.017-3.445 12.177-5.29 45.58-5.29 79.653v231.602h149.821v-141.874l-83.649-17.593z" fill="#ab6e4d"/></g><path d="m442.365 445.326-8.983-14.094c-5.458-6.022-12.426-10.742-20.462-13.537l-156.92-54.582-148.709 62.799c-19.952 6.94-33.325 25.75-33.325 46.874v14.399l8.332 23.402c2.587.915 5.372 1.413 8.272 1.413h33.086l7.215-4.462 9.328 4.462h231.602l7.432-7.286 9.111 7.286h33.086c13.705 0 24.815-11.11 24.815-24.815v-22.617c0-6.755-1.368-13.273-3.88-19.242z" fill="#fc5f7a"/><path d="m99.08 417.694c-8.029 2.793-14.992 7.507-20.447 13.521l-8.993 14.1c-2.516 5.972-3.885 12.494-3.885 19.254v22.617c0 10.789 6.927 19.982 16.543 23.401v-46.018c0-14.071 8.926-26.632 22.221-31.252l85.308-29.673v-17.514z" fill="#f84455"/><g><path d="m305.629 421.013h-92.876v-73.982l92.876 5.689z" fill="#f1a673"/></g><g><path d="m206.371 421.013h16.543v-42.431c0-9.835 8.533-17.613 18.292-16.395 4.847.605 9.781.926 14.794.926 17.658 0 34.423-3.744 49.629-10.393v-30.965h-99.258z" fill="#df976c"/></g><path d="m355.26 148.053-33.088-8.876h-119.102c-22.841 0-41.357 18.516-41.357 41.357v58.507c0 59.387 34.9 105.384 94.287 105.384 5.804 0 11.502 1.685 17.057.8 51.281-8.173 90.473-52.602 90.473-106.184v-66.172c0-9.311-3.077-17.904-8.27-24.816z" fill="#f8ba7e"/><g><path d="m181.557 239.04v-66.173c0-13.705 11.11-24.814 24.814-24.814h148.889c-7.55-9.99-19.601-16.542-33.088-16.542h-132.344c-22.841 0-41.358 18.516-41.358 41.357v66.172c0 59.387 48.143 107.53 107.53 107.53 5.641 0 11.65-.508 17.057-1.345-51.512-7.976-91.5-52.438-91.5-106.185z" fill="#f1a673"/></g><g><path d="m206.371 223.943c-4.572 0-8.271-3.7-8.271-8.271v-17.254c0-4.572 3.7-8.272 8.271-8.272s8.271 3.7 8.271 8.272v17.254c.001 4.572-3.699 8.271-8.271 8.271z" fill="#61444f"/></g><g><path d="m305.629 223.943c-4.572 0-8.271-3.7-8.271-8.271v-17.254c0-4.572 3.7-8.272 8.271-8.272 4.572 0 8.272 3.7 8.272 8.272v17.254c0 4.572-3.7 8.271-8.272 8.271z" fill="#61444f"/></g><g><path d="m256 297.676c-12.407 0-23.853-3.982-30.622-10.654-3.255-3.207-3.288-8.441-.081-11.696 3.191-3.247 8.425-3.296 11.696-.081 2.754 2.714 9.386 5.889 19.007 5.889 9.62 0 16.252-3.174 19.007-5.889 3.271-3.207 8.506-3.158 11.696.081 3.207 3.255 3.175 8.49-.081 11.696-6.769 6.672-18.215 10.654-30.622 10.654z" fill="#d18964"/></g><g><path d="m173.285 206.69h-24.815c-4.572 0-8.271-3.7-8.271-8.271 0-4.572 3.7-8.272 8.271-8.272h24.815c4.572 0 8.271 3.7 8.271 8.272.001 4.571-3.699 8.271-8.271 8.271z" fill="#fc5f7a"/></g><g><path d="m363.53 206.69h-24.815c-4.572 0-8.271-3.7-8.271-8.271 0-4.572 3.7-8.272 8.271-8.272h24.815c4.572 0 8.271 3.7 8.271 8.272 0 4.571-3.7 8.271-8.271 8.271z" fill="#fc5f7a"/></g><g><path d="m272.543 214.961h-33.086c-4.572 0-8.271-3.7-8.271-8.271 0-4.572 3.7-8.271 8.271-8.271h33.086c4.572 0 8.272 3.7 8.272 8.271s-3.7 8.271-8.272 8.271z" fill="#fc5f7a"/></g><g><path d="m198.091 181.875c-3.708 0-7.076-2.504-8.013-6.268-1.115-4.427 1.583-8.918 6.018-10.024l16.543-4.136c4.418-1.123 8.918 1.583 10.024 6.018 1.115 4.427-1.583 8.918-6.018 10.024l-16.543 4.136c-.67.169-1.348.25-2.011.25z" fill="#c2805d"/></g><g><path d="m313.909 181.875c-.662 0-1.341-.081-2.011-.25l-16.543-4.136c-4.435-1.107-7.133-5.598-6.018-10.024 1.099-4.435 5.598-7.149 10.024-6.018l16.543 4.136c4.435 1.107 7.133 5.598 6.018 10.024-.937 3.764-4.306 6.268-8.013 6.268z" fill="#c2805d"/></g><g><path d="m294.987.311c-22.295 4.871-38.987 24.729-38.987 48.485 23.756 0 43.614-16.692 48.485-38.987 1.262-5.776-3.722-10.76-9.498-9.498z" fill="#ff7e8f"/></g><g><path d="m216.212.143c22.695 4.565 39.788 24.613 39.788 48.653-24.04 0-44.088-17.093-48.653-39.788-1.034-5.14 3.725-9.899 8.865-8.865z" fill="#fc5f7a"/></g><path d="m391.353 118.086c-27.391-46.229-77.835-77.562-135.353-77.562-26.958 0-52.321 6.844-74.482 18.876l-1.995 9.079 1.954 10.001c21.619-13.563 47.171-21.412 74.523-21.412 77.537 0 140.615 63.078 140.615 140.615v-41.358c0-13.337-1.792-26.014-5.262-38.239z" fill="#ff7e8f"/><g><path d="m305.629 256.319c-22.803 0-41.357-18.554-41.357-41.357v-16.543c0-4.572 3.7-8.272 8.271-8.272h66.172c4.572 0 8.272 3.7 8.272 8.272v16.543c0 22.802-18.555 41.357-41.358 41.357zm-24.814-49.629v8.271c0 13.684 11.131 24.814 24.814 24.814 13.684 0 24.815-11.131 24.815-24.814v-8.271z" fill="#ff7e8f"/></g><g><path d="m206.371 256.319c-22.803 0-41.357-18.554-41.357-41.357v-16.543c0-4.572 3.7-8.272 8.271-8.272h66.172c4.572 0 8.271 3.7 8.271 8.272v16.543c.001 22.802-18.554 41.357-41.357 41.357zm-24.814-49.629v8.271c0 13.684 11.131 24.814 24.814 24.814s24.814-11.131 24.814-24.814v-8.271z" fill="#ff7e8f"/></g><g><path d="m181.477 78.481.041-19.081c-25.121 13.64-46.291 34.069-60.844 58.63-3.469 12.225-5.29 24.957-5.29 38.295v41.358c0-50.184 26.428-94.313 66.093-119.202z" fill="#fc5f7a"/></g><g><path d="m334.698 383.91-14.949-14.949c-3.23-3.23-8.467-3.23-11.697 0l-46.203 46.203c-3.23 3.23-8.467 3.23-11.698 0l-46.203-46.203c-3.23-3.23-8.467-3.23-11.697 0l-14.949 14.949c-2.42 2.42-3.1 6.081-1.71 9.208l26.333 59.25c2.229 5.016 8.637 6.509 12.854 2.995l19.382-16.152c5.387-4.49 13.567-.659 13.567 6.354v41.619c0 4.568 3.703 8.272 8.271 8.272s8.272-3.704 8.272-8.272v-41.619c0-7.013 8.179-10.844 13.567-6.354l19.382 16.152c4.217 3.514 10.624 2.021 12.854-2.995l26.333-59.25c1.391-3.127.711-6.787-1.709-9.208z" fill="#ff7e8f"/></g><g><path d="m394.2 486.071 48.164-40.745c-2.179-5.186-5.22-9.941-8.983-14.094l-49.86 42.206c-7.448 6.292-11.721 15.501-11.721 25.259v13.303h16.543v-13.304c.001-4.879 2.134-9.483 5.857-12.625z" fill="#ff7e8f"/></g><g><path d="m117.8 486.071-48.16-40.756c2.179-5.186 5.23-9.947 8.993-14.1l49.845 42.223c7.448 6.292 11.721 15.501 11.721 25.259v13.303h-16.543v-13.304c0-4.879-2.133-9.483-5.856-12.625z" fill="#ff7e8f"/></g></g></svg>