<svg id="Capa_1" enable-background="new 0 0 512 512" height="512" viewBox="0 0 512 512" width="512" xmlns="http://www.w3.org/2000/svg"><g><g><path d="m363.355 189.935 105.027 148.339c18.411 26.089 12.194 62.153-13.891 80.564-4.385 3.097-20.254 8.855-25.072 10.581l-165.161-82.581z" fill="#87646f"/></g><g><path d="m148.645 189.935-105.027 148.339c-18.411 26.089-12.194 62.153 13.891 80.564 4.385 3.097 20.254 8.855 25.072 10.581l165.161-82.581z" fill="#61444f"/></g><g><path d="m132.129 99.097 8.258 94.096h115.613v-94.096z" fill="#61444f"/></g><g><path d="m379.871 99.097-8.258 94.096h-115.613v-94.096z" fill="#87646f"/></g><path d="m410.368 402.442-74.786-21.996c-33.201 20.431-79.582 48.973-79.582 48.973l-68.658-48.973-74.786 21.996c-21.087 6.202-35.568 25.555-35.568 47.535v37.248l5.593 23.364c2.583.913 5.363 1.41 8.258 1.41h91.032l8.077-9.677 8.439 9.677h115.419l8.63-9.677 7.886 9.677h90.839c13.682 0 24.774-11.092 24.774-24.774v-37.248c0-21.98-14.479-41.333-35.567-47.535z" fill="#b0def5"/><g><path d="m388.129 396.387-15.947-53.155c-5.24-17.465-21.315-29.426-39.549-29.426h-18.07l-58.563 15.956-58.37-15.956h-18.07c-18.234 0-34.309 11.96-39.549 29.426l-15.768 52.56-22.611 6.65c-21.087 6.202-35.568 25.555-35.568 47.535v37.249c0 10.771 6.916 19.951 16.516 23.364v-60.614c0-14.65 9.651-27.55 23.706-31.684l34.729-10.216c5.158-1.517 10.669-1.316 15.702.575l93.481 35.107c3.741 1.405 7.864 1.406 11.606.003z" fill="#76d4ec"/></g><g><path d="m314.563 313.807h-116.933c-24.512 0-34.137 31.791-13.742 45.388l67.186 50.04c2.924 2.178 6.93 2.18 9.857.006l67.375-50.046c20.395-13.598 10.769-45.388-13.743-45.388z" fill="#4fc0ec"/></g><g><path d="m190.129 404.645c-4.565 0-8.258 3.698-8.258 8.258v99.097h16.516v-99.097c0-4.56-3.693-8.258-8.258-8.258z" fill="#6b4f5a"/></g><g><path d="m322.064 404.645c-4.565 0-8.258 3.698-8.258 8.258v99.097h16.516v-99.097c.001-4.56-3.693-8.258-8.258-8.258z" fill="#6b4f5a"/></g><g><path d="m260.931 409.241 51.956-38.593c-4.575-4.543-7.338-10.801-7.338-17.572v-24.871h-90.623l-2.504 52.241 38.652 28.788c2.924 2.178 6.93 2.181 9.857.007z" fill="#e0916d"/></g><g><path d="m305.548 328.205v-22.656h-99.097v47.527c0 6.738-2.742 12.966-7.278 17.504l13.248 9.867c6.567-7.38 10.546-16.981 10.546-27.369 0-9.553 8.442-16.718 17.914-15.485 4.948.644 9.989.989 15.118.989 17.63-.001 34.368-3.739 49.549-10.377z" fill="#c2805d"/></g><g><path d="m374.564 181.677h-19.468c-9.122 0-16.516-7.395-16.516-16.516v-16.516l-23.095-24.24-138.134-25.308v66.064c0 9.122-10.208 49.597-10.208 49.597 4.23 55.419 32.355 106.099 88.858 106.099 6.349 0 18.611-.402 18.611-.402 47.745-8.355 84.571-48.296 88.326-97.488h12.804c12.105 0 21.776-10.417 20.538-22.775-1.076-10.745-10.917-18.515-21.716-18.515z" fill="#f1a673"/></g><g><path d="m206.452 206.452c-4.565 0-8.258-3.694-8.258-8.258v-8.258c0-4.565 3.694-8.258 8.258-8.258s8.258 3.694 8.258 8.258v8.258c0 4.564-3.694 8.258-8.258 8.258z" fill="#61444f"/></g><g><path d="m305.548 206.452c-4.565 0-8.258-3.694-8.258-8.258v-8.258c0-4.565 3.694-8.258 8.258-8.258s8.258 3.694 8.258 8.258v8.258c0 4.564-3.693 8.258-8.258 8.258z" fill="#61444f"/></g><g><path d="m198.194 173.419c-3.556 0-6.839-2.306-7.911-5.879-1.306-4.371 1.169-8.976 5.532-10.29l16.516-4.96c4.427-1.306 8.984 1.169 10.29 5.532 1.306 4.371-1.169 8.976-5.532 10.29l-16.516 4.96c-.799.234-1.597.347-2.379.347z" fill="#6b4f5a"/></g><g><path d="m313.806 173.419c-.782 0-1.581-.113-2.379-.347l-16.516-4.96c-4.363-1.315-6.839-5.919-5.532-10.29 1.306-4.363 5.855-6.839 10.29-5.532l16.516 4.96c4.363 1.315 6.839 5.919 5.532 10.29-1.072 3.573-4.354 5.879-7.911 5.879z" fill="#6b4f5a"/></g><g><path d="m225.049 239.484c-5.748 0-10.093 5.871-7.748 11.119 5.706 12.773 20.965 21.914 38.893 21.914s33.187-9.14 38.893-21.914c2.344-5.248-2.001-11.119-7.748-11.119z" fill="#fff"/></g><g><path d="m173.419 99.097v66.064c0 9.122-7.395 16.516-16.516 16.516h-19.468c-10.799 0-20.64 7.77-21.716 18.515-1.238 12.358 8.433 22.775 20.538 22.775h12.804c4.23 55.419 50.435 99.097 106.937 99.097 6.332 0 12.583-.557 18.611-1.609-52.685-8.88-92.934-54.664-92.934-109.875v-49.326c0-7.066 4.425-13.571 11.188-15.616 6.865-2.076 13.375-5.265 19.305-9.573.019-.025.02-.047.008-.068 13.14 8.275 28.285 12.647 43.821 12.647 15.509 0 30.63-4.357 43.753-12.604 11.484 8.279 24.846 12.604 38.828 12.604v-49.547z" fill="#e0916d"/></g><g><path d="m348.288 33.973c-7.366-1.427-14.488-1.18-21.098.394-6.498 1.548-13.347-.794-17.188-6.259-11.942-16.99-31.655-28.108-54.002-28.108s-42.06 11.118-54.002 28.108c-3.841 5.465-10.69 7.807-17.188 6.259-6.609-1.574-13.731-1.821-21.097-.394-20.895 4.047-37.205 21.834-39.531 42.99-3.286 29.881 20.023 55.166 49.239 55.166 10.856 0 20.887-3.5 29.045-9.426 5.411-3.93 12.65-4.406 18.295-.82 10.194 6.476 22.267 10.246 35.241 10.246s25.047-3.77 35.241-10.246c5.645-3.586 12.884-3.11 18.295.82 8.158 5.926 18.189 9.426 29.045 9.426 29.215 0 52.525-25.285 49.239-55.166-2.329-21.156-18.639-38.942-39.534-42.99z" fill="#6b4f5a"/></g></g></svg>