<svg id="Capa_1" enable-background="new 0 0 512 512" height="512" viewBox="0 0 512 512" width="512" xmlns="http://www.w3.org/2000/svg"><g><path d="m412.536 367.742-74.986-26.245-106.29-6.414-131.796 46.129c-19.845 6.946-23.758 17.985-23.758 39.011l56.596 91.777h247.395l57.519-125.216c-5.826-8.641-14.368-15.432-24.68-19.042z" fill="#845252"/><g><path d="m280.74 321.614h-49.48l-131.796 46.129c-10.327 3.614-19.01 10.437-24.804 19.112 0 0-4.349 8.006-4.341 8.007-2.618 6.033-3.989 12.716-3.989 19.581v72.817c0 13.663 11.076 24.74 24.74 24.74h41.233v-59.592c0-9.467-4.068-18.479-11.169-24.741l-21.371-18.846c-8.596-7.58-5.88-21.607 4.924-25.431l.228-.081 66.199-23.169c3.936-1.377 8.354.367 10.096 4.155 13.026 28.332 41.561 48.03 74.792 48.03 41.583 0 75.882-30.809 81.55-70.828z" fill="#70393c"/></g><path d="m210.796 303.008 12.218 63.745c8.753 7.829 20.311 12.586 32.978 12.586 27.327 0 49.479-22.152 49.479-49.479l.004-26.852z" fill="#f5ab73"/><g><path d="m206.513 329.86c0 14.64 6.396 27.833 16.501 36.893v-37.963c0-9.805 8.507-17.56 18.237-16.346 4.832.603 9.751.923 14.749.923 17.603 0 34.315-3.732 49.474-10.359l.005-30.873h-98.958z" fill="#df976c"/></g><g><path d="m189.815 181.529c.11-1.4.213-2.801.213-4.229 0-29.604-23.999-53.602-53.602-53.602s-53.603 23.998-53.603 53.602c0 19.055 9.972 35.745 24.953 45.25-.11 1.4-.213 2.801-.213 4.229 0 29.604 23.999 53.602 53.602 53.602s53.602-23.999 53.602-53.602c0-19.055-9.972-35.745-24.952-45.25z" fill="#9b929b"/></g><g><path d="m322.185 181.529c-.11-1.4-.213-2.801-.213-4.229 0-29.604 23.999-53.602 53.602-53.602s53.602 23.999 53.602 53.602c0 19.055-9.972 35.745-24.953 45.25.11 1.4.213 2.801.213 4.229 0 29.604-23.999 53.602-53.602 53.602-29.604 0-53.602-23.999-53.602-53.602.001-19.055 9.973-35.745 24.953-45.25z" fill="#ada4ac"/></g><g><path d="m255.992 12.767c-68.317 0-99.272 42.614-99.272 110.93v41.233h222.97v-41.233c0-45.387-24.444-85.064-60.885-106.586 0 .001-39.883-4.344-62.813-4.344z" fill="#b5afb5"/></g><g><path d="m256 74.219 62.805-57.107c-18.406-10.865-39.892-17.112-62.813-17.112-68.317 0-123.698 55.381-123.698 123.698v41.233h123.706z" fill="#ada4ac"/></g><g><path d="m374.398 156.684h-14.963c-8.208 0-16.121-3.06-22.193-8.582l-68.986-62.737-100.895 80.307-3.475 23.891c4.224 55.341 35.69 106.154 92.113 106.154 5.64 0 11.177.721 16.579-.118 48.649-7.561 86.407-47.873 90.208-97.683h12.786c12.088 0 21.745-10.403 20.509-22.743-1.072-10.73-10.899-18.489-21.683-18.489z" fill="#f8ba7e"/></g><g><path d="m181.781 189.67v-11.094c0-9.293 3.92-18.155 10.796-24.407l75.679-68.804-12.256-11.146-81.275 73.886c-6.072 5.52-13.984 8.579-22.19 8.579h-14.934c-10.784 0-20.611 7.759-21.685 18.489-1.236 12.341 8.422 22.743 20.509 22.743h12.787c4.224 55.341 50.364 98.958 106.788 98.958 5.641 0 11.176-.435 16.579-1.275-51.381-7.93-90.798-52.328-90.798-105.929z" fill="#f5ab73"/></g><g><path d="m206.521 182.14c-4.558 0-8.247-3.688-8.247-8.247v-8.247c0-4.558 3.688-8.247 8.247-8.247 4.558 0 8.246 3.688 8.246 8.247v8.247c0 4.558-3.688 8.247-8.246 8.247z" fill="#61444f"/></g><g><path d="m305.479 182.14c-4.558 0-8.247-3.688-8.247-8.247v-8.247c0-4.558 3.688-8.247 8.247-8.247 4.558 0 8.246 3.688 8.246 8.247v8.247c.001 4.558-3.688 8.247-8.246 8.247z" fill="#61444f"/></g><g><path d="m256 239.865c-12.378 0-23.789-3.97-30.53-10.622-3.245-3.205-3.278-8.424-.081-11.661 3.213-3.237 8.432-3.278 11.661-.081 2.746 2.706 9.35 5.871 18.949 5.871s16.203-3.165 18.949-5.871c3.229-3.197 8.448-3.157 11.661.081 3.197 3.237 3.165 8.456-.081 11.661-6.739 6.652-18.15 10.622-30.528 10.622z" fill="#df976c"/></g><g><path d="m437.216 386.784c5.38 7.986 8.453 17.566 8.453 27.66v72.817c0 13.663-11.076 24.74-24.74 24.74h-41.233v-59.593c0-9.467 4.068-18.478 11.169-24.74z" fill="#70393c"/></g></g></svg>