<svg id="Capa_1" enable-background="new 0 0 512 512" height="512" viewBox="0 0 512 512" width="512" xmlns="http://www.w3.org/2000/svg"><g><path d="m428.447 294.608c-7.659-8.812-30.574-38.624-30.574-79.893l-.134-41.313v-29.333c0-21.462-4.79-42.041-13.353-60.593l-8.74-16.186c-2.751-4.41-5.729-8.665-8.917-12.746l-11.297-12.84c-4.421-4.469-9.125-8.649-14.083-12.503l-113.837 56.407 80.375 277.759h65.21c30.044-7.175 32.676-36.836 32.676-36.836 17.568-5.856 22.858-18.105 24.45-24.736.61-2.545-.06-5.213-1.776-7.187z" fill="#ffa65a"/><path d="m166.167 107.359-50.694 41.087v24.959l.134 41.313c0 41.269-22.915 71.081-30.574 79.893-1.716 1.975-2.387 4.642-1.777 7.186 1.591 6.631 6.881 18.88 24.449 24.736 0 0 2.632 29.661 32.676 36.836h115.619v-256.01z" fill="#ff744d"/><path d="m334.63 342.1c-4.413-3.494-7.861-8.051-10.02-13.214l-128.144 1.856-14.769 22.154 120.326 57.991z" fill="#f2c59a"/><path d="m322.067 316.209v-10.648h-132.134v10.648c0 10.27-4.765 19.739-12.558 25.898l7.439 15.025c4.438-3.03 8.309-6.722 11.49-10.929 4.239-5.605 11.488-7.815 18.193-5.713 13.109 4.109 27.032 6.363 41.503 6.363 24.963 0 48.299-6.545 68.61-17.967-1.637-3.941-2.543-8.238-2.543-12.677z" fill="#e6b287"/><path d="m388.629 365.198-45.797-18.319c-3.006-1.203-5.746-2.836-8.202-4.778-23.138 13.444-49.943 21.27-78.63 21.27-22.41 0-43.67-4.776-62.932-13.274l-82.611 29.298 28.67 37.357s254.551 40.832 254.552 40.832z" fill="#fbe7c3"/><path d="m177.37 342.1c-2.456 1.942-5.196 3.576-8.202 4.778l-45.801 18.321-1.507 12.348 11.032 1.631 42.411-16.961c6.929-2.773 12.928-6.924 17.765-12.121-5.365-2.371-10.662-5.07-15.698-7.996z" fill="#f9d8af"/><path d="m409.604 373.588-20.975-8.39c-1.333 5.096-3.077 9.678-6.412 12.267-8.726 6.771-26.264-1.576-35.948 3.695-9.583 5.216-13.526 25.277-23.9 28.87-10.195 3.529-24.428-10.205-35.249-8.391-10.542 1.767-20.113 19.541-31.12 19.541s-20.578-17.774-31.12-19.541c-10.823-1.813-25.058 11.92-35.255 8.389-10.375-3.592-14.318-23.654-23.902-28.871-8.64-4.704-23.532 1.433-32.84-1.998l-30.488 1.511c-21.948 8.779-29.405 30.036-29.405 53.674v52.881l9.582 23.365c2.583.913 5.363 1.41 8.259 1.41h330.336c13.683 0 24.775-11.092 24.775-24.775v-59.963c.001-23.638-14.39-44.895-36.338-53.674z" fill="#d8d5d8"/><g><path d="m108.532 388.92 24.352-9.762c-1.159-.418-2.142-.949-3.109-1.699-3.333-2.587-5.076-7.167-6.409-12.26l-20.971 8.388c-21.947 8.779-36.339 30.036-36.339 53.674v59.963c0 10.772 6.916 19.951 16.517 23.364v-83.328c0-16.886 10.281-32.07 25.959-38.34z" fill="#c7c2c6"/></g><path d="m392.264 173.427h-12.118l-.042-.021c-10.116 0-19.216-6.15-22.988-15.537l-14.662-36.485 1.483-1.865-3.805-5.707c-6.126-9.19-16.441-14.71-27.486-14.71h-15.539l-131.483 56.582-9.557 48.217c4.268 64.546 34.305 123.366 99.932 123.366 8.478 0 24.75.594 24.75.594 53.894-10.944 94.992-56.934 98.709-113.142h11.627c10.8 0 20.641-7.771 21.716-18.517 1.239-12.359-8.432-22.775-20.537-22.775z" fill="#f9d8af"/><g><path d="m181.674 206.46v-38.034c0-7.461 5.045-13.846 12.207-15.937 37.595-10.975 72.58-28.994 103.226-53.388h-115.433l-26.804 58.73c-3.762 9.406-12.872 15.574-23.003 15.574l-10.953.021c-10.813.021-20.672 7.81-21.722 18.572-1.203 12.334 8.457 22.72 20.545 22.72h12.804c4.268 64.546 57.832 115.618 123.459 115.618 8.464 0 16.768-.857 24.75-2.476-56.503-11.508-99.076-61.498-99.076-121.4z" fill="#f2c59a"/></g><g><path d="m206.312 198.92c-4.565 0-8.258-3.694-8.258-8.258v-8.258c0-4.565 3.694-8.258 8.258-8.258 4.565 0 8.258 3.694 8.258 8.258v8.258c.001 4.564-3.693 8.258-8.258 8.258z" fill="#6b4f5a"/></g><g><path d="m305.413 198.92c-4.565 0-8.258-3.694-8.258-8.258v-8.258c0-4.565 3.694-8.258 8.258-8.258 4.565 0 8.258 3.694 8.258 8.258v8.258c.001 4.564-3.693 8.258-8.258 8.258z" fill="#6b4f5a"/></g><g><path d="m224.449 235.802c-5.633 0-9.75 5.565-7.895 10.885 5.218 14.957 20.905 25.819 39.446 25.819s34.229-10.863 39.446-25.819c1.856-5.319-2.261-10.885-7.895-10.885z" fill="#fff"/></g><g><path d="m189.933 173.427c-3.46 0-6.678-2.186-7.831-5.645-1.444-4.331.895-9.008 5.218-10.444l24.775-8.258c4.371-1.452 9 .895 10.444 5.218 1.444 4.331-.895 9.008-5.218 10.444l-24.775 8.258c-.871.289-1.75.427-2.613.427z" fill="#ff744d"/></g><g><path d="m322.067 173.427c-.863 0-1.742-.137-2.613-.427l-24.775-8.258c-4.323-1.436-6.662-6.113-5.218-10.444 1.436-4.323 6.089-6.67 10.444-5.218l24.775 8.258c4.323 1.436 6.662 6.113 5.218 10.444-1.153 3.459-4.371 5.645-7.831 5.645z" fill="#ff744d"/></g><g><path d="m341.349 29.202c-23.689-18.24-53.273-29.202-85.483-29.202-77.537 0-140.393 62.856-140.393 140.392v8.054c92.91-2.572 174.829-48.936 225.876-119.244z" fill="#ff8857"/></g><g><path d="m267.799 148.474c1.645 0 3.307-.492 4.75-1.508 2.785-1.961 57.295-40.822 94.18-92.421-3.494-4.505-7.291-8.796-11.297-12.84-35.443 51.094-91.73 91.29-92.399 91.761-3.726 2.629-4.621 7.783-1.992 11.509 1.613 2.281 4.161 3.499 6.758 3.499z" fill="#ff8857"/></g><g><path d="m375.646 67.29c-24.4 35.141-52.806 58.13-53.143 58.4-3.565 2.847-4.145 8.041-1.298 11.605 1.629 2.04 4.032 3.105 6.46 3.105 1.807 0 3.621-.589 5.145-1.807 1.376-1.092 27.268-22.094 51.577-55.119-2.508-5.66-5.537-10.945-8.741-16.184z" fill="#ff8857"/></g></g></svg>