<svg id="Capa_1" enable-background="new 0 0 512 512" height="512" viewBox="0 0 512 512" width="512" xmlns="http://www.w3.org/2000/svg"><g><path d="m419.216 410.398-33.921-10.437-213.095-11.832-72.378 22.269c-20.79 6.397-34.977 25.605-34.977 47.357v29.47l9.479 23.365c2.583.913 5.362 1.409 8.257 1.409h346.839c13.682 0 24.774-11.092 24.774-24.774v-29.469c0-21.752-14.188-40.961-34.978-47.358z" fill="#df976c"/><g><path d="m346.839 388.129h-181.678l-72.378 22.269c-20.79 6.397-34.977 25.605-34.977 47.357v29.47c0 10.771 6.916 19.956 16.516 23.369v-52.842c0-14.499 9.456-27.303 23.315-31.567l22.876-7.039c6.765-2.082 14.323-.025 18.603 5.612 13.56 17.862 34.965 29.434 59.078 29.434h115.613c34.013 0 62.694-22.993 71.488-54.232z" fill="#d18964"/><g><path d="m355.097 289.032h-198.322c-9.127 0-16.527 7.399-16.527 16.527v10.054l12.48 64.316c15.857 41.341 75.81 57.844 161.051 57.844 31.946 0 57.844-25.898 57.844-57.844v-34.474l-4.253-9.308 4.253-14.91v-15.678c.001-9.128-7.399-16.527-16.526-16.527z" fill="#d8d5d8"/></g><g><path d="m371.624 321.237c-39.513 46.116-97.725 75.031-160.483 79.661-29.312-21.231-53.746-50.561-70.892-85.285v64.316c0 31.946 25.898 57.844 57.844 57.844h115.687c-28.621-1.349-55.722-9.528-80.246-22.799 52.711-8.329 101.308-32.826 138.09-69.519z" fill="#c7c2c6"/></g></g><g><path d="m272.516 0h-33.032c-27.365 0-49.548 22.184-49.548 49.548 0 27.365 22.184 49.548 49.548 49.548h33.032c27.365 0 49.548-22.184 49.548-49.548 0-27.364-22.183-49.548-49.548-49.548z" fill="#ffce8a"/></g><path d="m273.694 41.29h-41.679c-18.294 0-35.394 4.535-50.334 12.482l-29.089 152.679h219.021l7.35-36.752c13.286-66.43-37.524-128.409-105.269-128.409z" fill="#f1a673"/><g><path d="m181.677 53.767c-38.612 20.584-62.848 64.021-55.831 110.803l6.282 41.882h49.548v-152.685z" fill="#df976c"/></g><path d="m396.28 216.709c-1.076-10.745-10.917-18.515-21.716-18.515h-11.21c-9.122 0-16.516-7.395-16.516-16.516v-41.29c0-13.683-11.092-24.774-24.774-24.774h-132.128c-2.895 0-5.675.494-8.258 1.407l-11.928 183.75 144.056 29.191c29.798-19.077 49.548-52.471 49.548-90.478h12.387c12.106 0 21.777-10.417 20.539-22.775z" fill="#f9d8af"/><path d="m181.677 239.484v-122.464c-9.6 3.413-16.516 12.596-16.516 23.367v41.29c0 9.121-7.395 16.516-16.516 16.516h-11.21c-10.799 0-20.64 7.77-21.716 18.515-1.237 12.358 8.434 22.775 20.538 22.775h12.387c0 38.007 19.751 71.401 49.548 90.478l8.037-22.234c-15.334-18.527-24.552-42.294-24.552-68.243z" fill="#f2c59a"/><g><path d="m255.759 345.079c5.594 1.13 17.007.463 17.007.463 14.926-2.335 28.816-7.743 41.04-15.58v-57.446c0-13.682-11.092-24.774-24.774-24.774h-66.065c-13.682 0-24.774 11.092-24.774 24.774v24.128l8.208 25.303c16.698 10.704 17.647 16.725 49.358 23.132z" fill="#f1a673"/></g><g><path d="m206.452 231.226c-4.565 0-8.258-3.694-8.258-8.258v-8.258c0-4.565 3.694-8.258 8.258-8.258s8.258 3.694 8.258 8.258v8.258c0 4.564-3.694 8.258-8.258 8.258z" fill="#6b4f5a"/></g><g><path d="m305.548 231.226c-4.565 0-8.258-3.694-8.258-8.258v-8.258c0-4.565 3.694-8.258 8.258-8.258s8.258 3.694 8.258 8.258v8.258c0 4.564-3.693 8.258-8.258 8.258z" fill="#6b4f5a"/></g><g><path d="m198.185 199.226c-3.798 0-7.218-2.629-8.056-6.492-.976-4.46 1.847-8.855 6.298-9.831l16.516-3.613c4.444-.976 8.863 1.839 9.831 6.298.976 4.46-1.847 8.855-6.298 9.831l-16.516 3.613c-.597.129-1.186.194-1.775.194z" fill="#d18964"/></g><g><path d="m313.814 199.226c-.589 0-1.177-.065-1.774-.194l-16.516-3.613c-4.452-.976-7.274-5.371-6.298-9.831.968-4.46 5.379-7.282 9.831-6.298l16.516 3.613c4.452.976 7.274 5.371 6.298 9.831-.839 3.863-4.258 6.492-8.057 6.492z" fill="#d18964"/></g><g><path d="m256 289.032c-12.395 0-23.823-3.976-30.573-10.637-3.25-3.21-3.282-8.435-.081-11.677 3.218-3.25 8.444-3.282 11.677-.081 2.75 2.71 9.363 5.879 18.976 5.879s16.226-3.169 18.976-5.879c3.234-3.202 8.46-3.169 11.677.081 3.202 3.242 3.169 8.468-.081 11.677-6.748 6.661-18.176 10.637-30.571 10.637z" fill="#d18964"/></g><g><path d="m272.766 345.542c.005-.018 0 0 0 0-31.311-4.848-58.353-23.189-74.572-48.897v33.318c16.697 10.704 36.501 16.877 57.806 16.877 5.611-.001 11.392-.461 16.766-1.298z" fill="#df976c"/></g></g></svg>