<svg id="Capa_1" enable-background="new 0 0 512 512" height="512" viewBox="0 0 512 512" width="512" xmlns="http://www.w3.org/2000/svg"><g><g><path d="m207.323 299.452h106.483v121.709h-106.483z" fill="#e0916d"/></g><g><path d="m198.194 363.355h16.516v-35.298c0-10.47 9.562-18.019 19.867-16.167 6.953 1.249 14.106 1.917 21.423 1.917 20.89 0 40.542-5.222 57.806-14.354v-35.194h-115.612z" fill="#c2805d"/></g><path d="m419.216 369.108-72.378-22.27-74.323 32.272v25.534c0 4.561-3.697 8.258-8.258 8.258h-16.516c-4.561 0-8.258-3.697-8.258-8.258v-25.534l-67.78-28.386-103.384 41.702 55.552 119.574h123.871l9.21-5.981 7.306 5.981h123.871l53.826-128.138c-5.918-6.776-13.705-11.974-22.739-14.754z" fill="#ff7e8f"/><path d="m165.161 346.839-72.378 22.269c-9.047 2.784-16.844 7.994-22.766 14.783l.473 12.987 11.259-1.322c4.014-4.913 9.459-8.688 15.887-10.669l91.538-27.621z" fill="#fc5f7a"/><g><path d="m375.742 156.903h-12.387l-16.516-49.548h-189.936l6.981 85.687c4.23 55.419 35.613 102.434 92.115 102.434 5.704 0 11.303 1.369 16.764.512 48.639-7.636 86.37-47.97 90.173-97.794h12.804c11.402 0 20.645-9.243 20.645-20.645.002-11.403-9.241-20.646-20.643-20.646z" fill="#f1a673"/></g><g><path d="m181.677 189.935v-41.29c0-13.682 11.092-24.774 24.774-24.774h148.645l-8.258-26.395h-189.935l-16.516 59.427h-2.951c-10.799 0-20.64 7.77-21.716 18.515-1.238 12.358 8.434 22.775 20.538 22.775h12.804c4.23 55.419 50.435 99.097 106.938 99.097 5.649 0 11.353-.461 16.764-1.302-51.453-7.941-91.087-52.376-91.087-106.053z" fill="#e0916d"/></g><g><path d="m156.903 156.903h-16.516v-49.548l33.032-8.258v41.29c0 9.122-7.394 16.516-16.516 16.516z" fill="#61444f"/></g><g><path d="m355.097 156.903h16.516v-49.548l-33.032-8.258v41.29c0 9.122 7.394 16.516 16.516 16.516z" fill="#6b4f5a"/></g><g><path d="m206.452 181.677c-4.565 0-8.258-3.694-8.258-8.258v-8.258c0-4.565 3.694-8.258 8.258-8.258s8.258 3.694 8.258 8.258v8.258c0 4.565-3.694 8.258-8.258 8.258z" fill="#61444f"/></g><g><path d="m305.548 181.677c-4.565 0-8.258-3.694-8.258-8.258v-8.258c0-4.565 3.694-8.258 8.258-8.258 4.565 0 8.258 3.694 8.258 8.258v8.258c0 4.565-3.693 8.258-8.258 8.258z" fill="#61444f"/></g><g><path d="m140.387 107.355h-66.064c-4.565 0-8.258-3.694-8.258-8.258 0-4.565 3.694-8.258 8.258-8.258h66.065c4.565 0 8.258 3.694 8.258 8.258-.001 4.564-3.694 8.258-8.259 8.258z" fill="#fc5f7a"/></g><path d="m370.115 74.322c-7.767-42.283-44.813-74.322-89.341-74.322-79.749 0-114.935 40.67-114.935 90.839v6.638h175.927z" fill="#ff7e8f"/><path d="m231.226 0c-44.528 0-81.565 32.04-89.332 74.323l24.815 17.062 24.726-17.068c7.769-42.281 44.813-74.317 89.339-74.317z" fill="#fc5f7a"/><g><path d="m272.516 231.226h-33.032c-4.565 0-8.258-3.694-8.258-8.258s3.694-8.258 8.258-8.258h33.032c4.565 0 8.258 3.694 8.258 8.258s-3.693 8.258-8.258 8.258z" fill="#c2805d"/></g><g><path d="m214.71 148.645h-16.516c-4.565 0-8.258-3.694-8.258-8.258s3.694-8.258 8.258-8.258h16.516c4.565 0 8.258 3.694 8.258 8.258s-3.694 8.258-8.258 8.258z" fill="#6b4f5a"/></g><g><path d="m313.806 148.645h-16.516c-4.565 0-8.258-3.694-8.258-8.258s3.694-8.258 8.258-8.258h16.516c4.565 0 8.258 3.694 8.258 8.258s-3.693 8.258-8.258 8.258z" fill="#6b4f5a"/></g><g><circle cx="189.935" cy="470.71" fill="#c7c2c6" r="33.032"/></g><g><path d="m191.434 74.317-6.048 14.906 4.549 18.132h181.677v-16.516c0-5.649-.516-11.153-1.503-16.516z" fill="#d8d5d8"/></g><g><path d="m191.434 74.317-49.541.006c-.986 5.363-1.507 10.867-1.507 16.516v16.516h49.548v-16.516c.001-5.649.514-11.159 1.5-16.522z" fill="#c7c2c6"/></g><g><path d="m353.014 353.034c-23.946 14.294-51.235 23.554-80.498 26.077v-35.932c0-7.791 5.472-14.442 13.087-16.089 12.53-2.709 24.426-7.11 35.465-12.923 8.033-4.231 17.933-1.689 22.437 6.194l12.309 21.54c2.205 3.858 1.016 8.856-2.8 11.133z" fill="#d8d5d8"/></g><g><path d="m158.986 353.034c23.946 14.294 51.235 23.554 80.498 26.077v-35.932c0-7.791-5.472-14.442-13.087-16.089-12.53-2.709-24.426-7.11-35.465-12.923-8.033-4.231-17.933-1.689-22.437 6.194l-12.309 21.54c-2.205 3.858-1.016 8.856 2.8 11.133z" fill="#c7c2c6"/></g><g><path d="m454.194 487.226v-70.76c0-12.298-4.538-23.788-12.238-32.604l-41.733 41.722c-7.743 7.743-12.094 18.246-12.094 29.197v57.219h41.29c13.683 0 24.775-11.092 24.775-24.774z" fill="#d8d5d8"/></g><path d="m111.777 425.584-30.027-30.028-13.974 3.711v87.958l6.546 23.365c2.583.913 5.363 1.41 8.258 1.41h41.29v-57.22c.001-10.95-4.349-21.453-12.093-29.196z" fill="#d8d5d8"/><g><circle cx="189.935" cy="470.71" fill="#d8d5d8" r="16.516"/></g><g><path d="m247.742 412.903h16.516v99.097h-16.516z" fill="#d8d5d8"/></g><g><path d="m70.018 383.891c-7.7 8.817-12.212 20.276-12.212 32.574v70.76c0 10.771 6.916 19.951 16.516 23.364v-94.122c0-7.861 2.736-15.168 7.427-20.911z" fill="#c7c2c6"/></g></g></svg>