<svg id="Capa_1" enable-background="new 0 0 512 512" height="512" viewBox="0 0 512 512" width="512" xmlns="http://www.w3.org/2000/svg"><g><path d="m328.082 350.731-14.276-36.925v-6.345l-107.57 1.958v109.938h121.846z" fill="#f2c59a"/><g><path d="m198.194 289.032v24.774c0 7.201-3.148 28.291-8.258 32.885v8.406h24.774v-19.897c0-9.924 9.084-17.13 18.832-15.268 7.293 1.393 14.797 2.133 22.459 2.133 20.782 0 40.457-5.337 57.806-14.604v-18.428h-115.613z" fill="#e6b287"/></g><g><path d="m418.626 377.668-87.036-25.599c-1.472-.433-75.594 70.329-75.594 70.329s-74.114-70.762-75.586-70.329l-87.036 25.599c-21.087 6.202-35.568 25.555-35.568 47.535v62.023c0 13.682 11.092 24.774 24.774 24.774h33.032l140.388-76.353 140.387 76.353h33.032c13.682 0 24.774-2.834 24.774-16.516v-70.281c.001-21.98-14.48-41.333-35.567-47.535z" fill="#ceeaff"/></g><g><path d="m156.903 512-16.516-115.613 48.172-66.514s17.493 34.986 60.814 54.956c4.165 1.92 9.089 1.92 13.255 0 43.32-19.97 60.814-54.956 60.814-54.956l48.172 66.514-16.517 115.613z" fill="#d18964"/></g><g><path d="m323.441 322.065s-17.493 34.986-60.814 54.956c-4.165 1.92-9.09 1.92-13.255 0-43.32-19.97-60.814-54.956-60.814-54.956l-9.996 15.423c8.429 12.856 28.468 38.198 63.905 54.537 4.299 1.983 8.912 2.975 13.533 2.975s9.242-.992 13.548-2.976c35.425-16.338 55.461-41.681 63.889-54.537z" fill="#c2805d"/></g><g><path d="m118.021 388.102c-1.641 4.932-1.024 10.362 1.86 14.687l12.248 18.372-26.42 26.42c-4.102 4.102-5.751 10.056-4.344 15.684l14.248 48.735h41.29v-96.506c0-17.521 6.96-34.325 19.35-46.715l9.847-9.847c7.744-7.744 12.094-18.246 12.094-29.197v-15.929s-60.481 15.12-80.173 74.296z" fill="#b0def5"/></g><g><path d="m406.291 447.581-26.42-26.42 12.248-18.372c2.883-4.325 3.501-9.755 1.86-14.686-19.691-59.176-80.172-74.296-80.172-74.296v15.929c0 10.951 4.35 21.454 12.094 29.197l9.847 9.847c12.39 12.389 19.35 29.193 19.35 46.715v96.505h41.29l14.248-48.734c1.406-5.629-.243-11.583-4.345-15.685z" fill="#b0def5"/></g><path d="m347.335 15.75c-25.192-9.855-56.863-15.75-91.335-15.75-20.521 0-40.049 2.089-57.809 5.859l-27.357 84.98h192.521v-51.879c0-10.318-6.41-19.45-16.02-23.21z" fill="#d8d5d8"/><g><path d="m198.194 5.859c-12.059 2.562-23.344 5.907-33.529 9.892-9.609 3.76-16.02 12.891-16.02 23.209v51.879h49.548v-84.98z" fill="#c7c2c6"/></g><g><ellipse cx="256" cy="123.871" fill="#b5afb5" rx="148.645" ry="74.323"/></g><g><path d="m374.564 165.161h-11.21c-9.122 0-16.516-7.395-16.516-16.516v-7.019c0-18.243-40.67-48.061-90.839-48.061-24.952 0-47.551 3.666-63.968 9.588-16.592 5.985-18.375 2.093-18.375 11.263l.217 77.755c4.23 55.419 25.623 112.099 82.126 112.099 5.699 0 11.293.833 16.75-.023 48.646-7.63 86.384-47.967 90.188-97.797h12.804c12.105 0 21.776-10.417 20.538-22.775-1.075-10.744-10.916-18.514-21.715-18.514z" fill="#f9d8af"/></g><path d="m181.677 198.194v-66.065c0-13.682 11.092-24.774 24.774-24.774h30.409l-44.829-15.187c-16.592 5.985-26.87 14.275-26.87 23.445v33.032c0 9.122-7.395 16.516-16.516 16.516h-11.21c-10.799 0-20.64 7.77-21.716 18.515-1.237 12.358 8.434 22.775 20.538 22.775h12.804c4.23 55.419 50.435 99.097 106.938 99.097 5.649 0 11.339-.459 16.75-1.3-51.453-7.94-91.072-52.378-91.072-106.054z" fill="#f2c59a"/><g><path d="m206.452 189.935c-4.565 0-8.258-3.694-8.258-8.258v-8.258c0-4.565 3.694-8.258 8.258-8.258s8.258 3.694 8.258 8.258v8.258c0 4.565-3.694 8.258-8.258 8.258z" fill="#61444f"/></g><g><path d="m305.548 189.935c-4.565 0-8.258-3.694-8.258-8.258v-8.258c0-4.565 3.694-8.258 8.258-8.258 4.565 0 8.258 3.694 8.258 8.258v8.258c0 4.565-3.693 8.258-8.258 8.258z" fill="#61444f"/></g><g><path d="m214.71 156.903h-16.516c-4.565 0-8.258-3.694-8.258-8.258s3.694-8.258 8.258-8.258h16.516c4.565 0 8.258 3.694 8.258 8.258s-3.694 8.258-8.258 8.258z" fill="#845252"/></g><g><path d="m313.806 156.903h-16.516c-4.565 0-8.258-3.694-8.258-8.258s3.694-8.258 8.258-8.258h16.516c4.565 0 8.258 3.694 8.258 8.258s-3.693 8.258-8.258 8.258z" fill="#845252"/></g><g><g><path d="m256 247.742c-12.387 0-23.815-3.976-30.573-10.637-3.25-3.202-3.282-8.427-.081-11.677 3.194-3.25 8.411-3.298 11.677-.081 2.75 2.71 9.371 5.879 18.976 5.879s16.226-3.169 18.976-5.879c3.258-3.21 8.484-3.161 11.677.081 3.202 3.25 3.169 8.476-.081 11.677-6.756 6.661-18.184 10.637-30.571 10.637z" fill="#e6b287"/></g></g><path d="m256 82.581c-2.951 0-5.868.06-8.746.16l.684 16.852 22.764 9.678 76.138 32.356v-26.014c-.001-18.244-40.671-33.032-90.84-33.032z" fill="#845252"/><g><path d="m192.032 92.168 55.917 28.803c2.867 1.477 6.332 1.15 8.871-.838l13.881-10.863-23.448-26.53c-21.463.747-40.745 4.206-55.221 9.428z" fill="#7a4646"/></g></g></svg>