<svg id="Capa_1" enable-background="new 0 0 512 512" height="512" viewBox="0 0 512 512" width="512" xmlns="http://www.w3.org/2000/svg"><g><path d="m347.422 386.392-19.835-7.001c-13.207-4.661-22.039-17.144-22.039-31.149v-20.037l-91.391 5.577v14.461c0 14.005-8.832 26.488-22.038 31.149l-22.154 7.171v68.413h188.09z" fill="#c7805d"/><g><path d="m104.622 425.064 85.273-30.096c19.782-6.968 33.073-25.75 33.073-46.726 0-7.156 6.428-12.439 13.488-11.276 6.362 1.047 12.883 1.615 19.544 1.615 17.629 0 34.367-3.738 49.548-10.376v-22.656h-99.097v42.694c0 14.005-8.832 26.488-22.038 31.149l-85.291 30.103c-19.81 6.992-33.057 25.716-33.057 46.723v31.009c0 10.771 6.916 19.844 16.516 23.257v-54.265c0-14.008 8.833-26.493 22.041-31.155z" fill="#ab6e4d"/></g><g><path d="m412.878 409.494-65.456-23.102c-18.887 30.726-52.711 51.286-91.422 51.286s-72.535-20.559-91.422-51.285l-65.456 23.102c-19.81 6.991-33.057 25.716-33.057 46.723v31.009c0 13.682 11.092 24.774 24.774 24.774h330.323c13.682 0 24.774-11.092 24.774-24.774v-31.009c-.001-21.008-13.248-39.733-33.058-46.724z" fill="#ffbf63"/></g><g><circle cx="379.871" cy="57.806" fill="#87646f" r="57.806"/></g><g><circle cx="132.129" cy="57.806" fill="#61444f" r="57.806"/></g><path d="m396.26 142.861-32.713-33.033c-25.752 3.382-64.374 22.302-107.547 22.302-75.486 0-140.256 10.66-140.256 10.66-.087 1.858-.131 3.809-.131 5.857 0 23.893 6.005 46.369 16.533 66.065h247.708c10.528-19.695 16.533-42.172 16.533-66.065 0-2.023-.043-3.95-.127-5.786z" fill="#61444f"/><g><path d="m374.564 181.677h-2.951c-13.682 0-24.774-11.092-24.774-24.774v-82.58h-153.852l-30.407 148.645c4.23 55.419 36.917 97.673 93.42 97.673 5.688 0 11.272.981 16.719.128 48.661-7.618 86.414-47.962 90.218-97.801h12.804c12.105 0 21.776-10.417 20.538-22.775-1.075-10.746-10.916-18.516-21.715-18.516z" fill="#e0916d"/></g><g><path d="m181.677 214.71v-42.225c0-6.828 4.21-12.947 10.6-15.354 36.714-13.83 65.082-44.59 75.648-82.808h-102.764v82.581c0 13.682-11.092 24.774-24.774 24.774h-2.952c-10.799 0-20.64 7.77-21.716 18.515-1.238 12.358 8.433 22.775 20.538 22.775h12.804c4.23 55.419 50.435 99.097 106.938 99.097 5.649 0 11.308-.454 16.719-1.295-51.452-7.941-91.041-52.383-91.041-106.06z" fill="#c7805d"/></g><g><path d="m256 272.516c-12.395 0-23.823-3.976-30.573-10.637-3.25-3.21-3.282-8.435-.081-11.677 3.218-3.25 8.444-3.282 11.677-.081 2.75 2.71 9.363 5.879 18.976 5.879s16.226-3.169 18.976-5.879c3.234-3.202 8.46-3.169 11.677.081 3.202 3.242 3.169 8.468-.081 11.677-6.748 6.661-18.176 10.637-30.571 10.637z" fill="#ab6e4d"/></g><g><path d="m206.452 206.452c-4.565 0-8.258-3.694-8.258-8.258v-8.258c0-4.565 3.694-8.258 8.258-8.258s8.258 3.694 8.258 8.258v8.258c0 4.564-3.694 8.258-8.258 8.258z" fill="#61444f"/></g><g><path d="m305.548 206.452c-4.565 0-8.258-3.694-8.258-8.258v-8.258c0-4.565 3.694-8.258 8.258-8.258 4.565 0 8.258 3.694 8.258 8.258v8.258c0 4.564-3.693 8.258-8.258 8.258z" fill="#61444f"/></g><g><path d="m214.71 173.419c-.032 0-.065 0-.105 0l-16.516-.202c-4.556-.056-8.21-3.798-8.153-8.355.056-4.532 3.742-8.161 8.258-8.161h.105l16.516.202c4.556.056 8.21 3.798 8.153 8.355-.057 4.532-3.742 8.161-8.258 8.161z" fill="#6b4f5a"/></g><g><path d="m297.29 173.419c-4.516 0-8.202-3.629-8.258-8.161-.056-4.556 3.597-8.298 8.153-8.355l16.516-.202h.105c4.516 0 8.202 3.629 8.258 8.161.056 4.556-3.597 8.298-8.153 8.355l-16.516.202c-.04 0-.072 0-.105 0z" fill="#6b4f5a"/></g><g><circle cx="256" cy="388.129" fill="#fd7" r="16.516"/></g><g><circle cx="297.29" cy="379.871" fill="#fd7" r="12.387"/></g><g><circle cx="214.71" cy="379.871" fill="#ffbf63" r="12.387"/></g><g><path d="m256 8.258c-75.596 0-137.223 59.679-140.256 134.531 10.482 2.859 24.061 5.857 32.902 5.857 41.997 0 78.362-24.116 96.003-59.255 2.298-4.578 6.825-6.867 11.352-6.867s9.054 2.289 11.352 6.867c17.64 35.139 54.005 59.255 96.003 59.255 8.841 0 22.423-2.925 32.905-5.785-3.035-74.852-64.665-134.603-140.261-134.603z" fill="#6b4f5a"/></g><path d="m412.878 409.494-65.456-23.102c-18.887 30.726-52.711 51.286-91.422 51.286-32.521 0-61.593-14.51-81.257-37.367l-66.852 9.184c-19.81 6.991-33.058 25.716-33.058 46.723v31.009l7.748 23.365c2.583.913 5.362 1.409 8.257 1.409h330.323c13.682 0 24.774-11.092 24.774-24.774v-31.009c0-21.008-13.247-39.733-33.057-46.724z" fill="#ffbf63"/><g><path d="m104.622 425.064 70.121-24.754c-3.75-4.357-7.141-8.997-10.165-13.918l-65.456 23.102c-19.81 6.991-33.057 25.716-33.057 46.723v31.009c0 10.771 6.916 19.954 16.516 23.367v-54.375c0-14.008 8.833-26.492 22.041-31.154z" fill="#ffa65a"/></g></g></svg>