<svg id="Capa_1" enable-background="new 0 0 512 512" height="512" viewBox="0 0 512 512" width="512" xmlns="http://www.w3.org/2000/svg"><g><g><path d="m133.489 280.566v-57.598h48.189l33.032 107.355c-23.694 23.694-68.633 38.89-92.148 45.589-5.663 1.613-10.353-4.29-7.772-9.582 20.9-42.856 18.699-85.764 18.699-85.764z" fill="#61444f"/></g><g><path d="m378.511 280.566v-57.598h-48.189l-33.032 107.355c23.694 23.694 68.633 38.89 92.148 45.589 5.663 1.613 10.353-4.29 7.772-9.582-20.899-42.856-18.699-85.764-18.699-85.764z" fill="#87646f"/></g><path d="m322.961 385.597c-10.6-5.686-17.412-16.8-17.412-29.097v-20.037h-91.278v20.038c0 14.005-8.832 26.488-22.038 31.149l-.115 59.513h143.348z" fill="#f1a673"/><path d="m206.452 305.549v50.951c0 12.296-6.808 23.419-17.408 29.105l.859 17.621c19.782-6.98 33.065-25.758 33.065-46.726 0-7.003 6.234-12.544 13.138-11.368 6.47 1.102 13.106 1.707 19.895 1.707 17.629 0 34.367-3.738 49.548-10.376v-30.914z" fill="#df976c"/><path d="m412.878 417.752-64.631-22.811-91.406 52.221-85.574-45.176-63.009 15.766c-19.81 6.991-33.057 25.716-33.057 46.723v22.75l7.382 23.365c2.583.913 5.362 1.409 8.257 1.409h156.903l8.339-12.168 8.176 12.169h156.903c13.682 0 24.774-11.092 24.774-24.774v-22.75c.001-21.008-13.247-39.732-33.057-46.724z" fill="#76d4ec"/><g><path d="m256 328.833c-59.291 0-92.769-46.574-92.769-105.865v-99.097h200.124v99.097c0 53.667-39.379 98.136-90.818 106.089-5.39.833-10.913-.224-16.537-.224z" fill="#f8ba7e"/></g><g><path d="m181.678 222.968v-57.806c0-9.122 7.395-16.516 16.516-16.516h165.161v-24.774h-214.71v99.097c0 59.29 48.065 107.355 107.355 107.355 5.632 0 11.139-.43 16.537-1.266-51.428-7.964-90.859-52.431-90.859-106.09z" fill="#f1a673"/></g><g><path d="m206.452 214.71c-4.565 0-8.258-3.698-8.258-8.258v-8.258c0-4.56 3.694-8.258 8.258-8.258 4.565 0 8.258 3.698 8.258 8.258v8.258c0 4.56-3.694 8.258-8.258 8.258z" fill="#61444f"/></g><g><path d="m305.548 214.71c-4.565 0-8.258-3.698-8.258-8.258v-8.258c0-4.56 3.694-8.258 8.258-8.258s8.258 3.698 8.258 8.258v8.258c.001 4.56-3.693 8.258-8.258 8.258z" fill="#61444f"/></g><g><path d="m214.71 181.678h-16.516c-4.565 0-8.258-3.698-8.258-8.258s3.694-8.258 8.258-8.258h16.516c4.565 0 8.258 3.698 8.258 8.258s-3.694 8.258-8.258 8.258z" fill="#6b4f5a"/></g><g><path d="m313.807 181.678h-16.517c-4.565 0-8.258-3.698-8.258-8.258s3.694-8.258 8.258-8.258h16.516c4.565 0 8.258 3.698 8.258 8.258s-3.693 8.258-8.257 8.258z" fill="#6b4f5a"/></g><g><path d="m388.129 156.867c0-13.68-11.094-35.061-24.774-35.061h-16.516v76.388c0 33.116 25.823 47.788 42.95 53.877 4.924 1.751 9.369-3.233 7.382-8.067-9.046-22.012-9.042-60.111-9.042-87.137z" fill="#6b4f5a"/></g><g><path d="m123.871 156.867c0 27.026.004 65.125-9.042 87.137-1.987 4.834 2.458 9.817 7.382 8.067 17.127-6.089 42.95-20.761 42.95-53.877 0-66.066 0-75.953 0-75.953h-16.516c-13.68-.001-24.774 20.946-24.774 34.626z" fill="#61444f"/></g><g><path d="m231.571 247.742c-4.977 0-8.634 4.817-7.192 9.58 4.106 13.571 16.71 23.452 31.622 23.452 14.911 0 27.515-9.881 31.622-23.452 1.441-4.763-2.216-9.58-7.192-9.58z" fill="#fff"/></g><g><path d="m327.587 387.649c-1.611-.569-3.153-1.262-4.626-2.052l-66.961 52.081-66.961-52.081c-1.473.79-3.015 1.484-4.626 2.052l-85.291 30.103c-19.81 6.992-33.057 25.716-33.057 46.723v22.75c0 10.771 6.916 19.955 16.516 23.368v-46.115c0-14.006 8.833-26.49 22.04-31.152l58.858-20.773c4.038-1.425 8.495.472 10.266 4.37l16.951 37.291c4.024 8.852 14.787 12.33 23.23 7.505l21.461-12.264c5.505-3.146 12.355.829 12.355 7.17v55.375h8.258 8.258v-55.374c0-6.341 6.85-10.316 12.355-7.17l21.461 12.264c8.443 4.825 19.206 1.347 23.23-7.505l26.943-59.273z" fill="#4fc0ec"/></g><path d="m333.626 26.426c-12.477-16.635-32.057-26.426-52.852-26.426h-49.549c-2.779 0-5.536.174-8.258.517l-57.807 59.827h177.585l8.222-10.795z" fill="#76d4ec"/><g><path d="m222.967 33.032v-32.516c-17.641 2.223-33.786 11.499-44.593 25.91l-29.729 39.639 16.516 16.516h181.678l16.516-16.516-12.387-16.516h-111.484c-9.122 0-16.517-7.395-16.517-16.517z" fill="#4fc0ec"/></g><path d="m371.612 67.474-16.515-1.41h-16.516l-9.409 6.225-7.107-6.225h-16.516l-9.39 6.225-7.126-6.225h-16.516l-8.937 6.225-7.58-6.226h-16.516l-9.136 6.225-7.381-6.225h-16.516l-9.008 6.225-7.508-6.225h-16.516l-7.903 6.225-8.613-6.225h-8.258c-2.895 0-5.676.493-8.258 1.405l-9.079 31.97 9.083 34.098c2.582-.912 5.36-1.408 8.254-1.408h8.258l8.258-5.323 8.258 5.323h16.516l7.997-5.323 8.519 5.323h16.516l8.847-5.323 7.669 5.323h16.516l8.882-5.323 7.634 5.323h16.516l8.863-5.323 7.653 5.323h16.516l8.627-5.323 7.889 5.323h16.516l14.282-3.248 2.232 4.657c9.622 3.401 16.517 12.577 16.517 23.364v-66.063c.003-10.787-6.891-19.963-16.514-23.364z" fill="#76d4ec"/><g><path d="m222.967 66.065h16.516v66.065h-16.516z" fill="#4fc0ec"/></g><g><path d="m189.935 66.065h16.516v66.065h-16.516z" fill="#4fc0ec"/></g><g><path d="m156.903 66.065h16.516v66.065h-16.516z" fill="#4fc0ec"/></g><g><path d="m322.064 66.065h16.516v66.065h-16.516z" fill="#4fc0ec"/></g><g><path d="m289.032 66.065h16.516v66.065h-16.516z" fill="#4fc0ec"/></g><g><path d="m256 66.065h16.516v66.065h-16.516z" fill="#4fc0ec"/></g><g><path d="m140.39 133.536-.004-66.068c-9.6 3.413-16.516 12.598-16.516 23.369v66.065c0-10.771 6.92-19.953 16.52-23.366z" fill="#4fc0ec"/></g><g><path d="m355.097 132.129h8.258c2.911 0 5.663.484 8.258 1.406v-66.065c-2.595-.922-5.347-1.406-8.258-1.406h-8.258z" fill="#4fc0ec"/></g></g></svg>