<svg id="Capa_1" enable-background="new 0 0 512 512" height="512" viewBox="0 0 512 512" width="512" xmlns="http://www.w3.org/2000/svg"><g><path d="m256 0c-17.735 0-34.538 1.521-49.558 4.24l-66.055 78.34h231.226v-38.537c0-24.324-51.762-44.043-115.613-44.043z" fill="#ffcd5c"/><g><path d="m140.387 44.043v38.538h66.065l-.01-78.341c-39.024 7.074-66.055 22.244-66.055 39.803z" fill="#ffbf45"/></g><g><ellipse cx="256" cy="152.774" fill="#ffa65a" rx="239.484" ry="103.226"/></g><g><path d="m397.339 340.65c39.011-31.612-.952-79.367-.952-137.808 0-24.774 0-45.939 0-45.939 0-41.047-62.853-74.323-140.387-74.323-17.429 0-34.117 1.682-49.515 4.755l-31.8 69.568-13.731 272.516h249.165c-.001 0-43.545-63.839-12.78-88.769z" fill="#e0916d"/></g><g><path d="m247.742 429.419v-156.903l-41.29-99.097v-86.084c-53.046 10.613-90.839 37.768-90.839 69.568v45.939c0 58.442-39.963 106.196-.952 137.808 30.765 24.93-12.779 88.769-12.779 88.769z" fill="#d18964"/></g><path d="m189.623 388.129-82.729 29.546c-19.72 7.043-32.884 25.722-32.884 46.662v22.889l8.572 23.365c2.583.913 5.362 1.409 8.257 1.409h165.161v-123.871z" fill="#ff8857"/><g><path d="m66.065 464.337v22.889c0 10.771 6.916 19.957 16.516 23.37v-46.261c0-13.923 8.815-26.423 21.927-31.109l82.726-29.544-5.556-15.552-82.729 29.546c-19.721 7.042-32.884 25.721-32.884 46.661z" fill="#ff744d"/></g><g><path d="m330.323 388.129 82.729 29.546c19.72 7.043 32.884 25.722 32.884 46.662v22.889c0 13.682-11.092 24.774-24.774 24.774h-165.162v-123.871z" fill="#ff8857"/></g><g><path d="m210.148 336.463h95.4v51.666h-95.4z" fill="#f9d8af"/></g><g><path d="m206.452 297.29v82.581h16.516v-17.569c0-10.063 8.888-17.549 18.878-16.331 4.639.566 9.359.868 14.155.868 17.629 0 34.367-3.738 49.548-10.376v-39.173z" fill="#f2c59a"/></g><g><path d="m222.968 434.795v52.431l33.032 24.774 33.032-24.774v-52.431z" fill="#ffbf45"/></g><g><path d="m326.173 153.446-45.399-37.833v23.678c0 4.967-4.354 8.81-9.282 8.194l-89.814-11.227-12.579 14.58v69.097c0 57.806 23.97 106.299 81.712 109.018 7.466.352 14.774 1.187 21.853.084 51.377-8.006 90.692-52.447 90.692-106.069v-55.857c0-12.278-12.921-20.263-23.902-14.772l-4.299 2.15c-2.936 1.466-6.461 1.057-8.982-1.043z" fill="#fbe7c3"/></g><g><path d="m181.677 219.935v-83.677l-14.468-1.808c-9.857-1.232-18.565 6.454-18.565 16.389v69.097c0 57.806 44.423 107.546 102.165 110.265 7.425.35 14.81-.073 21.853-1.163-52.128-8.21-90.985-55.136-90.985-109.103z" fill="#f9d8af"/></g><g><path d="m206.452 222.968c-4.565 0-8.258-3.698-8.258-8.258v-8.258c0-4.56 3.694-8.258 8.258-8.258s8.258 3.698 8.258 8.258v8.258c0 4.56-3.694 8.258-8.258 8.258z" fill="#6b4f5a"/></g><g><path d="m305.548 222.968c-4.565 0-8.258-3.698-8.258-8.258v-8.258c0-4.56 3.694-8.258 8.258-8.258 4.565 0 8.258 3.698 8.258 8.258v8.258c0 4.56-3.693 8.258-8.258 8.258z" fill="#6b4f5a"/></g><g><path d="m198.185 190.968c-3.798 0-7.218-2.633-8.056-6.492-.976-4.456 1.847-8.859 6.298-9.835l16.516-3.613c4.444-.976 8.863 1.847 9.831 6.302.976 4.456-1.847 8.859-6.298 9.835l-16.516 3.613c-.597.129-1.186.19-1.775.19z" fill="#c2805d"/></g><g><path d="m313.815 190.968c-.589 0-1.177-.06-1.774-.19l-16.516-3.613c-4.452-.976-7.274-5.379-6.298-9.835.968-4.464 5.379-7.286 9.831-6.302l16.516 3.613c4.452.976 7.274 5.379 6.298 9.835-.84 3.859-4.259 6.492-8.057 6.492z" fill="#c2805d"/></g><g><path d="m230.206 252.114c-4.295 0-7.267 4.103-6.196 8.263 3.669 14.244 16.601 24.769 31.99 24.769 15.65 0 28.759-10.884 32.169-25.496.907-3.889-2.342-7.536-6.335-7.536z" fill="#fff"/></g><g><path d="m289.032 404.645h-66.065v30.15c5.638.946 11.32 1.595 17.025 2.032 4.35.333 7.749 3.871 7.749 8.234v25.65c0 4.56 3.694 8.258 8.258 8.258s8.258-3.698 8.258-8.258v-25.651c0-4.363 3.399-7.9 7.749-8.234 5.706-.437 11.387-1.086 17.025-2.032v-30.149z" fill="#ffa65a"/></g><g><path d="m162.845 375.498-4.756 7.95c-2.312 3.864-1.156 8.955 2.71 11.263 28.241 16.853 60.964 26.429 95.277 26.451 34.313-.022 67.036-9.599 95.277-26.451 3.866-2.307 5.022-7.399 2.71-11.263l-4.756-7.95z" fill="#ffbf45"/></g><g><path d="m256.076 404.65c33.785-.024 65.881-10.669 93.231-29.152l-8.042-13.443c-4.583-7.659-14.299-10.066-22.216-5.944-19.07 9.932-40.564 15.481-62.973 15.501-22.409-.02-43.903-5.569-62.973-15.501-7.916-4.122-17.633-1.716-22.216 5.944l-8.042 13.443c27.35 18.483 59.446 29.128 93.231 29.152z" fill="#ffcd5c"/></g></g></svg>