<svg id="Capa_1" enable-background="new 0 0 512 512" height="512" viewBox="0 0 512 512" width="512" xmlns="http://www.w3.org/2000/svg"><g><g><path d="m412.878 401.236-85.291-30.103c-13.207-4.661-22.039-17.144-22.039-31.149v-20.219h-83.672l-15.425 20.219c0 14.005-8.832 26.488-22.039 31.149l-85.291 30.103c-19.81 6.992-33.057 25.716-33.057 46.723v39.267c0 13.682 11.092 24.774 24.774 24.774h330.323c13.682 0 24.774-11.092 24.774-24.774v-39.267c0-21.007-13.247-39.731-33.057-46.723z" fill="#f8ba7e"/></g><g><path d="m104.618 416.811 85.285-30.102c19.814-6.994 33.065-25.722 33.065-46.734 0-7.132 6.403-12.4 13.442-11.249 6.392 1.046 12.935 1.595 19.59 1.595 17.546 0 34.302-3.816 49.548-10.558v-22.473h-99.097v42.694c0 14.005-8.832 26.488-22.038 31.149l-85.291 30.103c-19.81 6.992-33.057 25.716-33.057 46.723v39.267c0 10.771 6.916 19.844 16.516 23.257v-62.523c0-14.005 8.831-26.487 22.037-31.149z" fill="#f1a673"/></g><path d="m412.878 401.236-85.291-30.103c-13.207-4.661-22.039-17.144-22.039-31.149v-2.84c-15.311 6.203-32.012 9.695-49.548 9.695-11.436 0-22.517-1.485-33.089-4.238l-16.459-2.616c0 14.005-8.832 26.488-22.039 31.149l-77.866 33.895c-19.81 6.992-33.058 25.716-33.058 46.724v39.267l9.094 19.573c2.582.912 5.361 1.409 8.256 1.409h330.323c13.682 0 24.774-11.092 24.774-24.774v-39.267c0-21.009-13.248-39.734-33.058-46.725z" fill="#a06a5a"/><g><path d="m329.196 371.701-1.609-.568c-5.888-2.078-10.834-5.769-14.587-10.398-17.695 6.932-36.878 10.878-57 10.878-14.09 0-27.642-2.115-40.606-5.689 4.282-6.984 7.095-14.809 7.518-23.324-5.574-1.46-11.192-3.322-16.46-5.456v2.84c0 14.005-8.832 26.488-22.039 31.149l-85.291 30.103c-19.81 6.991-33.057 25.716-33.057 46.723v39.267c0 10.771 6.916 19.959 16.516 23.372v-62.638c0-14.005 8.831-26.487 22.037-31.148l85.285-30.102c4.877-1.721 9.329-4.173 13.298-7.178 16.669 5.429 34.336 8.597 52.799 8.597 26.176 0 50.921-5.998 73.196-16.428z" fill="#845252"/></g><g><path d="m173.419 330.323-24.771-115.613 57.803-8.258v115.613l-5.86 7.163 5.86 9.353v152.703c0 6.206-8.049 8.643-11.491 3.479l-20.273-30.409c-11.44-17.16-16.045-37.981-12.909-58.365z" fill="#d18964"/></g><path d="m396.136 131.916-235.777-94.298c-27.529 25.631-44.746 62.189-44.746 102.769 0 77.534 62.854 140.387 140.387 140.387s140.387-62.853 140.387-140.387c0-2.844-.085-5.669-.251-8.471z" fill="#d18964"/><g><path d="m338.581 330.323 24.771-115.613-57.803-8.258v115.613l4.726 7.814-4.726 8.702v152.703c0 6.206 8.049 8.643 11.491 3.479l20.273-30.409c11.44-17.16 16.045-37.981 12.909-58.365z" fill="#df976c"/></g><g><path d="m374.564 173.419h-5.983c-2.887 0-5.226-2.34-5.226-5.226v-11.29c0-59.291-48.065-107.355-107.355-107.355s-94.269 48.064-94.269 107.355l.417 57.806c4.23 55.419 37.349 97.576 93.852 97.576 5.683 0 11.261 1.079 16.704.227 48.668-7.612 86.429-47.959 90.234-97.804h12.804c12.105 0 21.776-10.417 20.538-22.775-1.076-10.744-10.917-18.514-21.716-18.514z" fill="#ffce8a"/></g><g><path d="m181.677 206.452v-57.806c0-44.226 26.758-82.179 64.956-98.623-54.895 4.755-97.988 50.753-97.988 106.882v11.29c0 2.887-2.34 5.226-5.226 5.226h-5.983c-10.799 0-20.64 7.77-21.716 18.515-1.237 12.358 8.433 22.775 20.538 22.775h12.804c4.23 55.419 50.435 99.097 106.938 99.097 5.649 0 11.292-.452 16.704-1.293-51.454-7.942-91.027-52.386-91.027-106.063z" fill="#f8ba7e"/></g><g><path d="m224.313 227.067c-3.098 0-5.501 2.85-4.886 5.887 3.124 15.434 18.31 27.145 36.573 27.145s33.449-11.711 36.573-27.145c.615-3.037-1.788-5.887-4.886-5.887z" fill="#fff"/></g><g><path d="m305.548 198.194c-4.565 0-8.258-3.698-8.258-8.258v-8.258c0-4.56 3.694-8.258 8.258-8.258 4.565 0 8.258 3.698 8.258 8.258v8.258c0 4.56-3.693 8.258-8.258 8.258z" fill="#61444f"/></g><g><path d="m198.185 166.194c-3.798 0-7.218-2.633-8.056-6.492-.976-4.456 1.847-8.859 6.298-9.835l16.516-3.613c4.444-.956 8.863 1.847 9.831 6.302.976 4.456-1.847 8.859-6.298 9.835l-16.516 3.613c-.597.129-1.186.19-1.775.19z" fill="#c2805d"/></g><g><path d="m313.814 166.194c-.589 0-1.177-.06-1.774-.19l-16.516-3.613c-4.452-.976-7.274-5.379-6.298-9.835.968-4.46 5.379-7.266 9.831-6.302l16.516 3.613c4.452.976 7.274 5.379 6.298 9.835-.839 3.858-4.258 6.492-8.057 6.492z" fill="#c2805d"/></g><g><path d="m256 0c-36.978 0-70.567 14.25-95.641 37.618 27.738 27.957 105.218 91.557 235.777 94.298-4.38-73.59-65.447-131.916-140.136-131.916z" fill="#df976c"/></g><g><path d="m206.452 338.581h-33.032c-4.561 0-8.258-3.697-8.258-8.258 0-4.561 3.697-8.258 8.258-8.258h33.032z" fill="#845252"/></g><g><path d="m305.548 322.065h33.032c4.561 0 8.258 3.697 8.258 8.258 0 4.561-3.697 8.258-8.258 8.258h-33.032z" fill="#845252"/></g><g><path d="m206.452 198.194c-4.565 0-8.258-3.698-8.258-8.258v-8.258c0-4.56 3.694-8.258 8.258-8.258s8.258 3.698 8.258 8.258v8.258c0 4.56-3.694 8.258-8.258 8.258z" fill="#61444f"/></g></g></svg>