<svg id="Capa_1" enable-background="new 0 0 512 512" height="512" viewBox="0 0 512 512" width="512" xmlns="http://www.w3.org/2000/svg"><g><g><path d="m165.161 239.484c0 53.995-33.032 97.191-33.032 140.387h99.097v-140.387z" fill="#ffbf45"/></g><path d="m410.814 377.44-154.814-47.117-146.914 47.117c-20.863 6.35-35.122 25.594-35.122 47.402v62.384l8.614 23.363c2.584.914 5.364 1.411 8.261 1.411h123.879l14.757-14.885 26.525 14.885 26.47-16.188 14.812 16.188h123.879c13.682 0 24.774-11.092 24.774-24.774v-62.384c0-21.809-14.258-41.053-35.121-47.402z" fill="#b0ff97"/><g><path d="m198.194 346.839h115.612l-57.806 165.161z" fill="#87646f"/></g><path d="m210.796 311.507 12.161 47.819c10.591 2.608 21.643 4.029 33.043 4.029 17.469 0 34.121-3.337 49.548-9.167v-42.681z" fill="#f2c59a"/><g><path d="m206.452 354.188c5.361 2.026 10.855 3.773 16.506 5.138l.01-21.798c0-9.805 8.498-17.571 18.231-16.373 4.859.598 9.798.909 14.801.909 17.546 0 34.302-3.816 49.548-10.557v-30.733h-99.097v73.414z" fill="#e6b287"/></g><g><circle cx="140.387" cy="214.71" fill="#ffa65a" r="16.516"/></g><g><circle cx="371.613" cy="214.71" fill="#ffbf45" r="16.516"/></g><g><path d="m272.516 0h-33.032s-89.068 55.459-89.068 123.871v61.935h245.971v-61.935c0-68.412-55.459-123.871-123.871-123.871z" fill="#ffcd5c"/></g><g><path d="m206.093 106.637.761-1.113c21.257-31.086 32.63-67.866 32.63-105.524-68.412 0-123.871 55.459-123.871 123.871v61.935h90.79z" fill="#ffbf45"/></g><path d="m375.742 165.161h-12.387c-9.122 0-16.516-7.395-16.516-16.516v-36.187c0-6.139-6.46-10.132-11.951-7.386l-24.3 12.15c-4.907 2.454-10.331-2.25-8.596-7.456l11.815-35.444c-57.806 41.29-99.097 49.549-99.097 49.549l-8.617-17.234-34.391 29.284-8.471 70.531c4.23 55.419 36.267 97.74 92.769 97.74 5.716 0 11.327.909 16.8.048 48.622-7.65 86.336-47.976 90.138-97.789h11.626c10.799 0 20.64-7.771 21.716-18.516 1.237-12.358-8.434-22.774-20.538-22.774z" fill="#f9d8af"/><g><path d="m181.677 198.194v-51.666c0-5.509 1.836-10.861 5.219-15.21l19.197-24.681-7.899-15.798-29.413 36.766c-2.343 2.928-3.619 6.567-3.619 10.317v10.724c0 9.122-7.395 16.516-16.516 16.516h-11.208c-10.799 0-20.641 7.77-21.717 18.516-1.238 12.358 8.433 22.775 20.538 22.775h12.804c4.23 55.419 50.435 99.097 106.938 99.097 5.649 0 11.389-.467 16.8-1.308-51.455-7.942-91.124-52.372-91.124-106.048z" fill="#f2c59a"/></g><g><path d="m256 256.121c-12.395 0-23.823-3.976-30.573-10.637-3.25-3.21-3.282-8.435-.081-11.677 3.218-3.25 8.444-3.282 11.677-.081 2.75 2.71 9.363 5.879 18.976 5.879s16.226-3.169 18.976-5.879c3.234-3.202 8.46-3.169 11.677.081 3.202 3.242 3.169 8.468-.081 11.677-6.748 6.661-18.176 10.637-30.571 10.637z" fill="#e6b287"/></g><g><path d="m206.452 198.194c-4.565 0-8.258-3.694-8.258-8.258v-8.258c0-4.565 3.694-8.258 8.258-8.258s8.258 3.694 8.258 8.258v8.258c0 4.564-3.694 8.258-8.258 8.258z" fill="#61444f"/></g><g><path d="m305.548 198.194c-4.565 0-8.258-3.694-8.258-8.258v-8.258c0-4.565 3.694-8.258 8.258-8.258 4.565 0 8.258 3.694 8.258 8.258v8.258c0 4.564-3.693 8.258-8.258 8.258z" fill="#61444f"/></g><g><path d="m214.71 165.161h-16.516c-4.565 0-8.258-3.698-8.258-8.258s3.694-8.258 8.258-8.258h16.516c4.565 0 8.258 3.698 8.258 8.258s-3.694 8.258-8.258 8.258z" fill="#ffa65a"/></g><g><path d="m313.806 165.161h-16.516c-4.565 0-8.258-3.698-8.258-8.258s3.694-8.258 8.258-8.258h16.516c4.565 0 8.258 3.698 8.258 8.258s-3.693 8.258-8.258 8.258z" fill="#ffa65a"/></g><g><path d="m165.293 349.509c-3.2 2.134-4.334 6.029-3.246 9.408l-60.86 18.523c-20.863 6.35-35.122 25.594-35.122 47.402v62.385c0 10.771 6.916 19.942 16.516 23.355v-85.742c0-14.637 9.411-27.331 23.411-31.597l68.282-20.783 15.67 15.67-28.348 28.348c-2.737 2.737-3.206 7.008-1.128 10.273l54.25 85.25h41.282l-49.54-189.935z" fill="#89ec9e"/></g><g><path d="m350.405 416.477-28.348-28.348 25.909-25.91c3.685-3.684 3.078-9.82-1.259-12.71l-41.167-27.445-49.54 189.936h41.282l54.25-85.25c2.078-3.266 1.61-7.536-1.127-10.273z" fill="#89ec9e"/></g></g></svg>