<svg id="Capa_1" enable-background="new 0 0 512 512" height="512" viewBox="0 0 512 512" width="512" xmlns="http://www.w3.org/2000/svg"><g><path d="m418.626 394.184-53.708-15.796-203.172-3.659-59.112 19.456c-21.087 6.202-35.568 25.555-35.568 47.535v45.507l7.257 23.365c2.583.913 5.362 1.409 8.258 1.409h346.839c13.682 0 24.774-11.092 24.774-24.774v-45.507c0-21.981-14.481-41.334-35.568-47.536z" fill="#ffa65a"/><path d="m180.41 368.585-87.036 25.599c-21.087 6.202-35.568 25.555-35.568 47.535v45.507c0 10.771 6.916 19.953 16.516 23.366v-68.874c0-14.548 9.75-27.581 23.71-31.686l87.04-25.605z" fill="#ff8857"/><path d="m412.259 297.485-13.534-165.795c-6.074-74.402-68.229-131.69-142.879-131.69-11.235 0-22.187 1.298-32.707 3.756l-70.035 390.068c13.493 6.909 28.807 10.821 45.098 10.821h115.29c57.908 0 103.479-49.442 98.767-107.16z" fill="#ffbf63"/><g><path d="m214.71 344.819 8.258-229.206s0-.152.172-111.851c-59.356 13.894-105.015 64.743-110.173 127.929l-13.535 165.794c-3.39 41.53 19.13 78.713 53.671 96.338l31.97-9.396c17.451-5.133 29.637-21.419 29.637-39.608z" fill="#ffa65a"/></g><path d="m148.645 206.452v115.613c0 21.233 13.356 39.347 32.125 46.398l150.492-.013c18.752-7.06 32.092-25.165 32.092-46.386v-115.613h-214.709z" fill="#ff8857"/><path d="m313.806 344.818v-29.009h-110.394l1.349 55.804h109.046c6.118 0 12.046-1.134 17.457-3.162-10.307-3.237-17.458-12.795-17.458-23.633z" fill="#c7805d"/><g><path d="m313.806 289.032h-115.612v55.785c0 10.838-7.117 20.408-17.423 23.645 5.41 2.028 11.305 3.15 17.423 3.15h6.567c6.261-7.287 9.949-16.641 9.949-26.794v-10.475c0-5.351 5.017-9.314 10.197-7.969 10.057 2.611 20.443 3.948 30.94 3.948 20.279 0 40.111-5.018 57.96-14.514v-26.776z" fill="#ab6e4d"/></g><g><path d="m255.992 495.484c-69.677 0-133.411-35.278-170.492-94.371-2.427-3.867-1.258-8.964 2.605-11.387 3.855-2.427 8.952-1.254 11.379 2.605 34.04 54.25 92.548 86.637 156.508 86.637 64.113 0 122.694-32.508 156.71-86.956 2.411-3.867 7.516-5.048 11.371-2.629 3.871 2.415 5.048 7.512 2.629 11.379-37.041 59.311-100.863 94.722-170.71 94.722z" fill="#fd7"/></g><g><path d="m256 312.286c-59.291 0-92.769-46.544-92.769-105.834v-57.807c0-59.29 33.479-93.734 92.769-93.734 47.765 0 102.177 60.702 102.177 60.702 3.362 10.406 5.178 21.507 5.178 33.032v57.807c0 53.697-39.423 98.186-90.905 106.102-5.363.825-10.857-.268-16.45-.268z" fill="#e0916d"/></g><path d="m181.677 206.452v-97.405l-27.83 6.566c-3.375 10.401-5.202 21.5-5.202 33.032v57.807c0 59.29 48.065 107.355 107.355 107.355 5.632 0 11.052-.417 16.45-1.252-51.428-7.964-90.773-52.445-90.773-106.103z" fill="#c7805d"/><g><path d="m206.452 206.452c-4.565 0-8.258-3.698-8.258-8.258v-8.258c0-4.56 3.694-8.258 8.258-8.258s8.258 3.698 8.258 8.258v8.258c0 4.56-3.694 8.258-8.258 8.258z" fill="#61444f"/></g><g><path d="m305.548 206.452c-4.565 0-8.258-3.698-8.258-8.258v-8.258c0-4.56 3.694-8.258 8.258-8.258 4.565 0 8.258 3.698 8.258 8.258v8.258c0 4.56-3.693 8.258-8.258 8.258z" fill="#61444f"/></g><g><path d="m214.71 172.702h-16.516c-4.565 0-8.258-3.698-8.258-8.258s3.694-8.258 8.258-8.258h16.516c4.565 0 8.258 3.698 8.258 8.258s-3.694 8.258-8.258 8.258z" fill="#6b4f5a"/></g><g><path d="m313.806 172.702h-16.516c-4.565 0-8.258-3.698-8.258-8.258s3.694-8.258 8.258-8.258h16.516c4.565 0 8.258 3.698 8.258 8.258.001 4.56-3.693 8.258-8.258 8.258z" fill="#6b4f5a"/></g><g><path d="m206.452 206.452c-4.565 0-8.258-3.698-8.258-8.258v-8.258c0-4.56 3.694-8.258 8.258-8.258s8.258 3.698 8.258 8.258v8.258c0 4.56-3.694 8.258-8.258 8.258z" fill="#61444f"/></g><g><path d="m305.548 206.452c-4.565 0-8.258-3.698-8.258-8.258v-8.258c0-4.56 3.694-8.258 8.258-8.258 4.565 0 8.258 3.698 8.258 8.258v8.258c0 4.56-3.693 8.258-8.258 8.258z" fill="#61444f"/></g><g><path d="m214.71 172.702h-16.516c-4.565 0-8.258-3.698-8.258-8.258s3.694-8.258 8.258-8.258h16.516c4.565 0 8.258 3.698 8.258 8.258s-3.694 8.258-8.258 8.258z" fill="#6b4f5a"/></g><g><path d="m204.277 250.015 24.12 5.658c13.321 3.125 26.653-5.141 29.777-18.462l-24.12-5.658c-13.32-3.125-26.652 5.141-29.777 18.462z" fill="#ab6e4d"/></g><g><path d="m312.071 250.015-24.12 5.658c-13.321 3.125-26.653-5.141-29.777-18.462l24.12-5.658c13.321-3.125 26.652 5.141 29.777 18.462z" fill="#ab6e4d"/></g><path d="m256 41.29c-28.859 0-55.044 11.391-74.323 29.924l-11.605 27.57 11.602 16.028c6.685-1.64 12.613-5.728 16.519-11.587 5.159-7.739 13.845-12.387 23.146-12.387h69.322c9.301 0 17.986 4.648 23.146 12.387 5.159 7.739 13.845 12.387 23.146 12.387h21.224c-13.94-43.116-54.42-74.322-102.177-74.322z" fill="#6b4f5a"/><g><path d="m181.677 71.214c-12.599 12.128-22.322 27.36-27.83 44.399h21.201c2.262 0 4.48-.273 6.627-.8z" fill="#4e3d4d"/></g></g></svg>