<svg id="Capa_1" enable-background="new 0 0 512 512" height="512" viewBox="0 0 512 512" width="512" xmlns="http://www.w3.org/2000/svg"><g><path d="m328.517 350.542c-8.784-3.971-14.597-12.751-14.597-22.601v-12.357l-107.152-3.08v15.437c0 11.012-7.255 20.707-17.819 23.814l-2.478.729v61.232h142.045v-63.174z" fill="#f1a673"/><g><path d="m256 404.435c-17.122 0-33.433-3.469-48.271-9.739l6.9 117.305h82.743l6.9-117.305c-14.839 6.27-31.15 9.739-48.272 9.739z" fill="#9b929b"/></g><g><path d="m198.08 280.321v47.62c0 11.012-7.255 20.707-17.819 23.814l-87.207 25.649c-21.128 6.214-35.637 25.605-35.637 47.628v62.145c0 10.792 6.929 19.883 16.549 23.303v-85.448c0-14.679 9.67-27.604 23.753-31.747l87.217-25.657c14.402-4.237 25.112-15.821 28.532-29.943.896-3.702 3.281-6.864 6.557-8.808 3.181-1.887 6.938-2.381 10.556-1.609 8.199 1.75 16.693 2.698 25.419 2.698 20.931 0 40.622-5.233 57.92-14.382v-35.263z" fill="#df976c"/></g><path d="m180.262 357.381-79.364 25.649c-21.128 6.214-35.637 25.605-35.637 47.628v56.519l8.708 23.411c2.587.914 5.372 1.412 8.272 1.412h99.291l21.772-113.812z" fill="#b0def5"/><g><path d="m97.719 393.285 87.217-25.657c5.12-1.506 9.744-3.977 13.769-7.124l-10.605-12.725c-2.32 1.738-4.938 3.125-7.839 3.978l-87.206 25.649c-21.129 6.214-35.637 25.605-35.637 47.628v62.145c0 10.792 6.929 19.996 16.549 23.416v-85.562c-.001-14.681 9.67-27.605 23.752-31.748z" fill="#76d4ec"/></g><g><path d="m181.532 371.338v140.662h33.097v-114.414c0-9.35-2.751-18.396-7.659-26.248z" fill="#76d4ec"/></g><g><path d="m393.374 65.19h-29.891l12.01-30.024c2.174-5.435-1.829-11.347-7.682-11.347h-37.424l-18.973-18.972c-3.683-3.683-8.885-5.417-14.042-4.681l-49.729 7.104-25.456-6.364c-4.834-1.209-9.956-.174-13.943 2.816l-26.796 20.097h-.67l-48.894 165.485h248.228l22.543-52.775c1.328-3.108.632-6.711-1.758-9.101l-12.592-12.592 12.918-38.755c1.787-5.358-2.201-10.891-7.849-10.891z" fill="#a06a5a"/></g><g><path d="m180.78 23.819h-32.427c-4.57 0-8.274 3.705-8.274 8.274v33.097h-21.617c-5.648 0-9.636 5.533-7.85 10.891l12.918 38.755-12.582 12.582c-2.395 2.395-3.089 6.008-1.751 9.12l22.689 52.767h49.646z" fill="#845252"/></g><path d="m375.977 172.756h-12.412c-9.139 0-16.549-7.409-16.549-16.549v-15.966c0-5.533-2.765-10.7-7.369-13.77l-17.453-11.636-12.331 12.332c-2.518 2.518-6.366 3.143-9.551 1.55l-60.86-30.43-13.135 26.14c-1.964 3.909-6.632 5.614-10.653 3.891l-34.132-14.628-15.476 89.35c4.238 55.527 33.332 109.249 89.945 109.249 5.727 0 11.348.683 16.83-.18 48.717-7.664 86.501-48.071 90.311-97.98h11.651c10.822 0 20.683-7.786 21.761-18.554 1.24-12.384-8.449-22.819-20.577-22.819z" fill="#f8ba7e"/><g><path d="m181.532 205.853v-92.164l-16.631-7.127.082 49.646c0 9.139-7.409 16.548-16.548 16.548h-11.228c-10.821 0-20.682 7.785-21.761 18.552-1.24 12.382 8.449 22.819 20.578 22.819h12.83c4.238 55.527 50.534 99.291 107.147 99.291 5.66 0 11.409-.467 16.83-1.31-51.555-7.956-91.299-52.473-91.299-106.255z" fill="#f1a673"/></g><g><path d="m206.354 205.853c-4.573 0-8.274-3.705-8.274-8.274v-8.274c0-4.569 3.701-8.274 8.274-8.274s8.274 3.705 8.274 8.274v8.274c.001 4.569-3.7 8.274-8.274 8.274z" fill="#61444f"/></g><g><path d="m305.646 205.853c-4.573 0-8.274-3.705-8.274-8.274v-8.274c0-4.569 3.701-8.274 8.274-8.274s8.274 3.705 8.274 8.274v8.274c0 4.569-3.701 8.274-8.274 8.274z" fill="#61444f"/></g><g><path d="m256 255.498c-12.411 0-23.869-3.984-30.633-10.658-3.256-3.208-3.289-8.448-.081-11.7 3.208-3.256 8.46-3.289 11.7-.081 2.755 2.719 9.389 5.891 19.013 5.891s16.258-3.172 19.013-5.891c3.24-3.208 8.492-3.176 11.7.081 3.208 3.252 3.176 8.492-.081 11.7-6.762 6.675-18.22 10.658-30.631 10.658z" fill="#d18964"/></g><g><path d="m179.696 337.693c-3.118-3.741-9.012-3.223-11.428 1.006l-23.145 40.504c-2.033 3.558.89 7.904 4.952 7.362l60.571-8.076c-1.896-4.534-4.331-8.853-7.523-12.685z" fill="#ceeaff"/></g><g><path d="m214.629 172.756h-16.549c-4.573 0-8.274-3.705-8.274-8.274s3.701-8.274 8.274-8.274h16.549c4.573 0 8.274 3.705 8.274 8.274s-3.701 8.274-8.274 8.274z" fill="#845252"/></g><g><path d="m313.92 172.756h-16.549c-4.573 0-8.274-3.705-8.274-8.274s3.701-8.274 8.274-8.274h16.549c4.573 0 8.274 3.705 8.274 8.274s-3.701 8.274-8.274 8.274z" fill="#845252"/></g><path d="m418.945 377.404-87.206-25.649-15.385 68.912 14.114 91.333h99.291c13.709 0 24.823-11.114 24.823-24.823v-62.145c0-22.022-14.509-41.413-35.637-47.628z" fill="#b0def5"/><g><path d="m330.468 371.338v140.662h-33.097v-114.414c0-9.35 2.751-18.396 7.659-26.248z" fill="#76d4ec"/></g><g><path d="m332.304 337.693c3.118-3.741 9.012-3.223 11.428 1.006l23.145 40.504c2.033 3.558-.89 7.904-4.952 7.362l-60.571-8.076c1.896-4.534 4.331-8.853 7.523-12.685z" fill="#ceeaff"/></g></g></svg>