<svg id="Capa_1" enable-background="new 0 0 512 512" height="512" viewBox="0 0 512 512" width="512" xmlns="http://www.w3.org/2000/svg"><g><g><path d="m198.194 346.839h115.612l-57.806 165.161z" fill="#87646f"/></g><g><path d="m330.323 338.581 89.499 28.797c20.484 6.591 34.372 25.649 34.372 47.167v72.681c0 13.682-11.092 24.774-24.774 24.774h-123.872z" fill="#ffce8a"/></g><path d="m208.357 299.452 6.35 63.066c10.492 10.709 25.117 17.353 41.293 17.353 31.926 0 57.806-25.881 57.806-57.806v-22.612h-105.449z" fill="#f2c59a"/><g><path d="m198.194 256v66.065c0 15.74 6.31 30.029 16.516 40.453v-34.493c0-10.267 9.256-18.039 19.357-16.199 7.115 1.296 14.441 1.981 21.934 1.981 20.89 0 40.542-5.222 57.806-14.354v-43.453z" fill="#e6b287"/></g><g><path d="m375.742 156.903-12.387-16.516v-74.322h-214.71v74.323l13.504 50.917c4.23 55.419 37.348 103.819 93.851 103.819 7.15 0 14.134 1.468 20.89.134 46.634-9.208 82.353-48.657 86.048-97.063h12.804c11.402 0 20.645-9.243 20.645-20.645 0-11.404-9.243-20.647-20.645-20.647z" fill="#f9d8af"/></g><g><path d="m189.935 189.935v-77.075c0-8.934 2.898-17.627 8.258-24.774l16.516-22.022h-66.065v74.323l-12.387 16.516c-12.104 0-21.775 10.416-20.538 22.774 1.075 10.746 10.916 18.516 21.715 18.516h11.628c4.23 55.419 50.435 99.097 106.938 99.097 7.103 0 14.175-.716 20.89-2.033-49.46-9.588-86.955-53.059-86.955-105.322z" fill="#f2c59a"/></g><g><path d="m346.839 132.129c0 13.682 11.092 24.774 24.774 24.774h4.129c1.414 0 2.794.145 4.129.416v-58.222c0-36.486-29.578-66.065-66.065-66.065h-33.032l42.777 26.735c14.487 9.054 23.288 24.933 23.288 42.017z" fill="#f1a673"/></g><g><path d="m136.258 156.903h4.129c13.682 0 24.774-11.092 24.774-24.774v-15.652c0-11.251 3.829-22.167 10.857-30.953l22.175-27.718 8.258-41.29h-24.774c-27.365 0-49.548 22.183-49.548 49.548v91.255c1.335-.271 2.715-.416 4.129-.416z" fill="#d18964"/></g><g><path d="m256 239.484c-12.395 0-23.823-3.976-30.573-10.637-3.25-3.21-3.282-8.435-.081-11.677 3.218-3.25 8.444-3.282 11.677-.081 2.75 2.71 9.363 5.879 18.976 5.879s16.226-3.169 18.976-5.879c3.234-3.202 8.46-3.169 11.677.081 3.202 3.242 3.169 8.468-.081 11.677-6.748 6.661-18.176 10.637-30.571 10.637z" fill="#d18964"/></g><g><path d="m364.218 21.602-.066.16c-2.813 6.872-11.074 9.717-17.417 5.857-17.323-10.544-53.583-27.619-106.735-27.619-17.705 0-35.061 4.362-47.808 11.97-12.427 7.417-18.568 22.085-15.73 36.276 3.291 16.455 15.759 29.58 31.992 33.833 134.98 35.369 172.245-14.735 173.481-42.165.384-8.516-2.213-15.042-5.237-19.678-3.096-4.748-10.332-3.88-12.48 1.366z" fill="#df976c"/></g><g><path d="m354.938 387.969-16.357-16.356 17.505-23.34c3.785-5.047 2.076-12.29-3.567-15.111l-38.712-19.356-57.807 198.194h49.548l52.483-104.966c3.179-6.358 1.933-14.038-3.093-19.065z" fill="#f8ba7e"/></g><path d="m182.131 347.684-81.61 19.693c-20.484 6.591-34.372 25.649-34.372 47.167v72.681l8.174 23.365c2.583.913 5.362 1.409 8.257 1.409h123.871z" fill="#ffce8a"/><g><path d="m210.581 173.419c-4.565 0-8.258-3.694-8.258-8.258v-8.258c0-4.565 3.694-8.258 8.258-8.258s8.258 3.694 8.258 8.258v8.258c0 4.565-3.694 8.258-8.258 8.258z" fill="#6b4f5a"/></g><g><path d="m301.419 173.419c-4.565 0-8.258-3.694-8.258-8.258v-8.258c0-4.565 3.694-8.258 8.258-8.258s8.258 3.694 8.258 8.258v8.258c0 4.565-3.693 8.258-8.258 8.258z" fill="#6b4f5a"/></g><g><path d="m272.516 181.677c-4.565 0-8.258-3.694-8.258-8.258 0-4.556-3.702-8.258-8.258-8.258s-8.258 3.702-8.258 8.258c0 4.565-3.694 8.258-8.258 8.258s-8.258-3.694-8.258-8.258c0-13.661 11.113-24.774 24.774-24.774s24.774 11.113 24.774 24.774c0 4.565-3.693 8.258-8.258 8.258z" fill="#6b4f5a"/></g><g><path d="m181.677 156.903h-49.548c0-9.122 7.395-16.516 16.516-16.516h33.032z" fill="#6b4f5a"/></g><g><path d="m330.322 156.903h49.548c0-9.122-7.395-16.516-16.516-16.516h-33.032z" fill="#6b4f5a"/></g><g><path d="m222.968 198.194h-24.774c-13.661 0-24.774-11.113-24.774-24.774v-24.774c0-4.565 3.694-8.258 8.258-8.258h57.806c4.565 0 8.258 3.694 8.258 8.258v24.774c0 13.661-11.113 24.774-24.774 24.774zm-33.033-41.291v16.516c0 4.556 3.702 8.258 8.258 8.258h24.774c4.556 0 8.258-3.702 8.258-8.258v-16.516z" fill="#87646f"/></g><g><path d="m313.806 198.194h-24.774c-13.661 0-24.774-11.113-24.774-24.774v-24.774c0-4.565 3.694-8.258 8.258-8.258h57.806c4.565 0 8.258 3.694 8.258 8.258v24.774c.001 13.661-11.112 24.774-24.774 24.774zm-33.032-41.291v16.516c0 4.556 3.702 8.258 8.258 8.258h24.774c4.556 0 8.258-3.702 8.258-8.258v-16.516z" fill="#87646f"/></g><g><path d="m198.194 313.806-38.712 19.356c-5.223 2.611-7.015 8.991-4.261 13.931l-63.043 20.284c-20.484 6.591-34.372 25.649-34.372 47.167v72.681c0 10.771 6.916 19.955 16.516 23.367v-96.045c0-14.403 9.21-27.04 22.911-31.444l68.318-21.982 7.868 10.49-16.357 16.356c-5.027 5.027-6.273 12.707-3.094 19.065l52.484 104.968h49.548z" fill="#f8ba7e"/></g></g></svg>