<svg id="Capa_1" enable-background="new 0 0 512 512" height="512" viewBox="0 0 512 512" width="512" xmlns="http://www.w3.org/2000/svg"><g><g><path d="m455.436 173.245c-1.106-8.482-16.823-14.009-18.988-22.11-2.202-8.238 8.642-20.868 5.42-28.636-3.258-7.857-19.871-9.104-24.093-16.4-4.251-7.346 2.944-22.362-2.202-29.059-5.163-6.718-21.53-3.632-27.512-9.613s-2.896-22.349-9.614-27.511c-6.696-5.145-21.711 2.05-29.058-2.2-7.295-4.221-8.543-20.833-16.399-24.091-7.765-3.221-20.392 7.625-28.628 5.423-8.101-2.165-13.627-17.882-22.109-18.988-8.288-1.08-17.67 12.669-26.253 12.669-8.582 0-17.963-13.749-26.251-12.668-8.482 1.107-14.009 16.823-22.11 18.989-8.238 2.202-20.868-8.642-28.636-5.421-7.857 3.259-9.104 19.871-16.4 24.093l-50.847 78.002 113.375 263.96h80.742c8.209-.703 19.816 8.711 27.123 5.681 7.857-3.258 9.104-19.871 16.4-24.093 7.346-4.251 22.363 2.944 29.059-2.202 6.718-5.163 3.632-21.531 9.613-27.512 5.981-5.982 22.349-2.895 27.511-9.614 5.145-6.696-2.05-21.711 2.2-29.057 4.221-7.296 20.833-8.543 24.091-16.399 3.22-7.765-7.625-20.392-5.424-28.628 2.165-8.101 17.882-13.627 18.988-22.109 1.081-8.288-12.668-17.67-12.668-26.254.001-8.583 13.75-17.964 12.67-26.252z" fill="#6b4f5a"/></g><g><path d="m133.545 39.924c-6.718 5.163-3.632 21.53-9.613 27.512-5.981 5.981-22.349 2.895-27.511 9.613-5.145 6.696 2.05 21.712-2.2 29.058-4.221 7.296-20.833 8.543-24.091 16.399-3.22 7.766 7.625 20.392 5.424 28.628-2.165 8.101-17.882 13.627-18.988 22.109-1.081 8.288 12.668 17.67 12.668 26.253 0 8.582-13.749 17.964-12.668 26.251 1.106 8.482 16.823 14.009 18.988 22.11 2.202 8.239-8.642 20.868-5.42 28.636 3.258 7.857 19.871 9.104 24.093 16.4 4.251 7.346-2.944 22.363 2.202 29.059 5.163 6.718 21.53 3.632 27.512 9.613s2.896 22.349 9.614 27.511c6.696 5.146 21.711-2.05 29.058 2.2 7.295 4.221 8.543 20.834 16.399 24.091 7.304 3.029 18.91-6.386 27.117-5.683h37.38l-37.38-216.802 8.019-33.07c-4.439-17.767 7.296-36.272-17.754-45.525-23.117-8.539-33.046-20.013-33.787-46.566-7.35 4.251-22.366-2.943-29.062 2.203z" fill="#61444f"/></g><path d="m328.057 420.081c-13.293-4.692-22.183-17.257-22.183-31.354v-20.352h-87.258l-3.91 20.352c0 36.715-34.489 43.751-47.783 48.443l-13.466 59.077h166.805l28.618-68.816z" fill="#c7805d"/><g><path d="m181.189 469.982 16.625 42.018h116.373l16.625-42.018c-22.69 10.833-47.984 17.081-74.811 17.081s-52.122-6.248-74.812-17.081z" fill="#61444f"/></g><g><path d="m206.126 337.441v51.286c0 14.097-8.89 26.661-22.183 31.353l-20.824 7.35 3.491 16.398 22.866-8.071c19.94-7.038 33.274-25.885 33.274-47.03 0-7.085 6.319-12.682 13.3-11.472 6.501 1.127 13.156 1.747 19.95 1.747 17.661 0 34.528-3.841 49.874-10.627v-30.934z" fill="#ab6e4d"/></g><g><path d="m376.529 221.068h-12.889c-1.141-14.942-5.393-28.987-11.983-41.615-1.449.175-2.882.679-4.164 1.632-4.458 3.311-8.851 5.962-13.016 5.391-10.293-1.411-16.998-21.464-26.828-24.227-9.994-2.809-25.316 11.028-34.739 6.919-9.534-4.157-11.047-25.352-19.9-30.737-8.914-5.423-27.135 3.758-35.26-2.807-1.682-1.359-2.742-3.466-3.604-5.813-12.313 5.192-23.469 12.589-32.956 21.71l-16.329 100.709c4.258 55.783 34.265 108.651 91.139 108.651 5.714 0 16.796.198 16.796.198 48.997-7.655 87.014-48.271 90.844-98.449h12.889c11.477 0 20.781-9.304 20.781-20.781s-9.304-20.781-20.781-20.781z" fill="#e0916d"/></g><g><path d="m181.189 254.317v-102.795c-18.534 17.844-30.75 42.299-32.829 69.546h-12.889c-11.477 0-20.781 9.304-20.781 20.781s9.304 20.781 20.781 20.781h12.889c4.258 55.783 50.766 99.748 107.64 99.748 5.686 0 11.349-.452 16.796-1.299-51.792-7.993-91.607-52.732-91.607-106.762z" fill="#c7805d"/></g><g><path d="m256 312.504c-12.469 0-23.979-4.002-30.774-10.707-3.271-3.223-3.304-8.487-.081-11.754 3.223-3.271 8.499-3.304 11.754-.081 2.768 2.732 9.433 5.918 19.101 5.918s16.332-3.186 19.101-5.918c3.255-3.223 8.532-3.19 11.754.081 3.223 3.267 3.19 8.532-.081 11.754-6.795 6.705-18.305 10.707-30.774 10.707z" fill="#ab6e4d"/></g><g><path d="m206.126 246.005c-4.595 0-8.312-3.722-8.312-8.312v-8.312c0-4.59 3.718-8.312 8.312-8.312s8.312 3.722 8.312 8.312v8.312c0 4.59-3.718 8.312-8.312 8.312z" fill="#61444f"/></g><g><path d="m305.874 246.005c-4.595 0-8.312-3.722-8.312-8.312v-8.312c0-4.59 3.718-8.312 8.312-8.312 4.595 0 8.312 3.722 8.312 8.312v8.312c0 4.59-3.717 8.312-8.312 8.312z" fill="#61444f"/></g><g><path d="m214.438 212.756c-.032 0-.065 0-.106 0l-16.625-.203c-4.586-.057-8.264-3.823-8.207-8.414.057-4.554 3.767-8.211 8.312-8.211h.106l16.625.203c4.586.057 8.264 3.823 8.207 8.414-.056 4.554-3.766 8.211-8.312 8.211z" fill="#6b4f5a"/></g><g><path d="m297.562 212.756c-4.546 0-8.256-3.653-8.312-8.211-.057-4.59 3.62-8.357 8.207-8.414l16.625-.203h.106c4.546 0 8.256 3.653 8.312 8.211.057 4.59-3.62 8.357-8.207 8.414l-16.625.203c-.041 0-.074 0-.106 0z" fill="#6b4f5a"/></g><g><path d="m419.455 452.339-70.574-24.909-27.391 27.391c-4.677 4.677-7.304 11.02-7.304 17.633v39.546h112.529c11.304 0 20.468-9.164 20.468-20.468.001-17.622-11.112-33.328-27.728-39.193z" fill="#76d4ec"/></g><g><path d="m101.332 454.546 74.818-14.085 14.36 14.36c4.677 4.677 7.304 11.02 7.304 17.633v39.546h-112.529c-1.315 0-2.598-.136-3.844-.373l-7.838-17.889c0-17.621 11.112-33.327 27.729-39.192z" fill="#76d4ec"/></g><g><path d="m98.082 468.015 78.068-27.554-13.031-13.031-70.574 24.909c-16.617 5.865-27.729 21.571-27.729 39.192 0 9.988 7.162 18.293 16.625 20.096v-20.091c0-10.575 6.668-20.001 16.641-23.521z" fill="#4fc0ec"/></g></g></svg>