<svg xmlns="http://www.w3.org/2000/svg" version="1.1" xmlns:xlink="http://www.w3.org/1999/xlink" width="512" height="512" x="0" y="0" viewBox="0 0 512 512" style="enable-background:new 0 0 512 512" xml:space="preserve" class=""><g><path fill="#dbdfe0" d="M491.1 2H20.9C10.5 2 2 10.5 2 20.9v470.2c0 10.4 8.5 18.9 18.9 18.9h470.2c10.4 0 18.9-8.5 18.9-18.9V20.9C510 10.5 501.5 2 491.1 2z" opacity="1" data-original="#dbdfe0" class=""></path><path fill="#788d9a30" d="M491.1 498.4H20.9C10.5 498.4 2 490 2 479.5v11.6c0 10.4 8.5 18.9 18.9 18.9h470.2c10.4 0 18.9-8.5 18.9-18.9v-11.6c0 10.5-8.5 18.9-18.9 18.9z" opacity="1" data-original="#788d9a30"></path><path fill="#eff3f5" d="M428 66.2H84c-9.8 0-17.8 8-17.8 17.8v344c0 9.8 8 17.8 17.8 17.8h344c9.8 0 17.8-8 17.8-17.8V84c0-9.9-7.9-17.8-17.8-17.8z" opacity="1" data-original="#eff3f5" class=""></path><path fill="#ffffff" d="M428 436.5H84c-9.8 0-17.8-8-17.8-17.8v9.3c0 9.8 8 17.8 17.8 17.8h344c9.8 0 17.8-8 17.8-17.8v-9.3c0 9.8-7.9 17.8-17.8 17.8z" opacity="1" data-original="#ffffff"></path><circle cx="256" cy="256" r="88" fill="#788d9a" opacity="1" data-original="#788d9a"></circle><circle cx="256" cy="256" r="36.2" fill="#445c6c" opacity="1" data-original="#445c6c"></circle><g fill="#788d9a"><path d="M66.1 122.8c-5.7 0-10.2 4.6-10.2 10.2v54.4c0 5.7 4.6 10.2 10.2 10.2 5.7 0 10.2-4.6 10.2-10.2V133c0-5.6-4.5-10.2-10.2-10.2zM66.1 314.3c-5.7 0-10.2 4.6-10.2 10.2v54.4c0 5.7 4.6 10.2 10.2 10.2 5.7 0 10.2-4.6 10.2-10.2v-54.4c0-5.6-4.5-10.2-10.2-10.2z" fill="#788d9a" opacity="1" data-original="#788d9a"></path></g><g fill="#dbdfe0"><path d="M256 178.7c-5 0-9.1 4.1-9.1 9.1v12.3c0 5 4.1 9.1 9.1 9.1s9.1-4.1 9.1-9.1v-12.3c0-5-4.1-9.1-9.1-9.1zM256 302.8c-5 0-9.1 4.1-9.1 9.1v12.3c0 5 4.1 9.1 9.1 9.1s9.1-4.1 9.1-9.1v-12.3c0-5-4.1-9.1-9.1-9.1zM333.3 256c0-5-4.1-9.1-9.1-9.1h-12.3c-5 0-9.1 4.1-9.1 9.1s4.1 9.1 9.1 9.1h12.3c5 0 9.1-4.1 9.1-9.1zM209.2 256c0-5-4.1-9.1-9.1-9.1h-12.3c-5 0-9.1 4.1-9.1 9.1s4.1 9.1 9.1 9.1h12.3c5 0 9.1-4.1 9.1-9.1zM310.6 201.4c-3.5-3.5-9.3-3.5-12.8 0l-8.7 8.7c-3.5 3.5-3.5 9.3 0 12.8s9.3 3.5 12.8 0l8.7-8.7c3.6-3.5 3.6-9.3 0-12.8zM222.9 289.1c-3.5-3.5-9.3-3.5-12.8 0l-8.7 8.7c-3.5 3.5-3.5 9.3 0 12.8s9.3 3.5 12.8 0l8.7-8.7c3.5-3.5 3.5-9.3 0-12.8zM310.6 310.6c3.5-3.5 3.5-9.3 0-12.8l-8.7-8.7c-3.5-3.5-9.3-3.5-12.8 0s-3.5 9.3 0 12.8l8.7 8.7c3.5 3.6 9.3 3.6 12.8 0zM222.9 222.9c3.5-3.5 3.5-9.3 0-12.8l-8.7-8.7c-3.5-3.5-9.3-3.5-12.8 0s-3.5 9.3 0 12.8l8.7 8.7c3.5 3.5 9.3 3.5 12.8 0z" fill="#dbdfe0" opacity="1" data-original="#dbdfe0" class=""></path></g></g></svg>