<svg xmlns="http://www.w3.org/2000/svg" version="1.1" xmlns:xlink="http://www.w3.org/1999/xlink" width="512" height="512" x="0" y="0" viewBox="0 0 512 512" style="enable-background:new 0 0 512 512" xml:space="preserve" class=""><g><path d="M449.439 0H62.561C28.065 0 0 28.065 0 62.561v386.878C0 483.935 28.065 512 62.561 512h386.878C483.935 512 512 483.935 512 449.439V62.561C512 28.065 483.936 0 449.439 0z" style="" fill="#444347" data-original="#444347" class=""></path><path d="M449.439 0H256.918v512h192.521C483.935 512 512 483.935 512 449.439V62.561C512 28.065 483.936 0 449.439 0z" style="" fill="#313033" data-original="#313033"></path><path d="M445.842 462.763H66.16c-9.345 0-16.922-7.576-16.922-16.922V66.16c0-9.345 7.576-16.922 16.922-16.922h379.682c9.345 0 16.922 7.576 16.922 16.922v379.682c-.001 9.345-7.577 16.921-16.922 16.921zM83.081 428.92H428.92V83.081H83.081V428.92z" style="" fill="#57565c" data-original="#57565c" class=""></path><path d="M256.001 135.938c-66.203 0-120.063 53.86-120.063 120.062 0 66.203 53.86 120.063 120.063 120.063 66.202 0 120.062-53.86 120.062-120.063-.001-66.202-53.861-120.062-120.062-120.062z" style="" fill="#898890" data-original="#898890"></path><circle cx="256.003" cy="256.003" r="41.686" style="" fill="#313033" data-original="#313033"></circle><path d="M319.74 272.922H192.263c-9.345 0-16.922-7.576-16.922-16.922 0-9.345 7.576-16.922 16.922-16.922H319.74c9.345 0 16.922 7.576 16.922 16.922-.001 9.345-7.577 16.922-16.922 16.922z" style="" fill="#313033" data-original="#313033"></path><path d="M92.213 213.144c-9.345 0-16.922-7.576-16.922-16.922v-51.917c0-9.345 7.576-16.922 16.922-16.922s16.922 7.576 16.922 16.922v51.917c0 9.346-7.576 16.922-16.922 16.922zM92.213 384.618c-9.345 0-16.922-7.576-16.922-16.922v-51.917c0-9.345 7.576-16.922 16.922-16.922s16.922 7.576 16.922 16.922v51.917c0 9.345-7.576 16.922-16.922 16.922z" style="" fill="#57565c" data-original="#57565c" class=""></path><path d="M256.001 336.66c-9.345 0-16.922-7.576-16.922-16.922V192.261c0-9.345 7.576-16.922 16.922-16.922s16.922 7.576 16.922 16.922v127.477c0 9.346-7.577 16.922-16.922 16.922z" style="" fill="#444347" data-original="#444347" class=""></path></g></svg>