<svg xmlns="http://www.w3.org/2000/svg"
     version="1.1"
     xmlns:xlink="http://www.w3.org/1999/xlink"
     width="512"
     height="512"
     x="0"
     y="0"
     viewBox="0 0 24 24"
     style="enable-background:new 0 0 512 512"
     xml:space="preserve"
     class="">
  <g>
    <linearGradient id="a" x1="3.549" x2="20.451" y1="12" y2="12" gradientUnits="userSpaceOnUse">
      <stop offset="0" stop-color="#1c92d2"></stop>
      <stop offset="1" stop-color="#004e92"></stop>
    </linearGradient>

    <linearGradient id="c" x1="3.549" x2="20.451" y1="12" y2="12" gradientUnits="userSpaceOnUse">
      <stop offset="0" stop-color="#88ccee"></stop>
      <stop offset="1" stop-color="#446699"></stop>
    </linearGradient>

    <linearGradient id="d" x1="3.549" x2="20.451" y1="12" y2="12" gradientUnits="userSpaceOnUse">
      <stop offset="0" stop-color="#88ccee"></stop>
      <stop offset="1" stop-color="white"></stop>
    </linearGradient>

    <linearGradient xlink:href="#a" id="b" x1="9.5" x2="14.5" y1="12.125" y2="12.125"></linearGradient>

    <g data-name="1">
      <path fill="url(#a)"
            d="m13.036 2.11 5.5 2.063a3.179 3.179 0 0 1 1.914 2.762v8.1a3.335 3.335 0 0 1-1.183 2.365l-5.5 4.11a3.136 3.136 0 0 1-3.532 0l-5.5-4.11a3.335 3.335 0 0 1-1.184-2.363v-8.1a3.179 3.179 0 0 1 1.912-2.764l5.5-2.063a3.424 3.424 0 0 1 2.073 0z"
            opacity="1"
            data-original="url(#a)"
            class="">
      </path>

       <path fill="#1c1c1c" 
            d="m13.036 2.11 5.5 2.063a3.179 3.179 0 0 1 1.914 2.762v8.1a3.335 3.335 0 0 1-1.183 2.365l-5.5 4.11a3.136 3.136 0 0 1-3.532 0l-5.5-4.11a3.335 3.335 0 0 1-1.184-2.363v-8.1a3.179 3.179 0 0 1 1.912-2.764l5.5-2.063a3.424 3.424 0 0 1 2.073 0z" 
            opacity="0.2">
      </path>

      <path fill="url(#d)"
            d="M12.75 12.872V15.5a.75.75 0 0 1-1.5 0v-2.628a2.5 2.5 0 1 1 1.5 0z"
            opacity="1"
            data-original="url(#c)">
      </path>

      <path fill="white"
            d="M12.75 12.872V15.5a.75.75 0 0 1-1.5 0v-2.628a2.5 2.5 0 1 1 1.5 0z"
            opacity="0.35">
      </path>
    </g>
  </g>
</svg>