<svg id="Capa_1" enable-background="new 0 0 512 512" height="512" viewBox="0 0 512 512" width="512" xmlns="http://www.w3.org/2000/svg"><g><path d="m188.67 349.853h134.66v131.185h-134.66z" fill="#7ad7ee"/><path d="m267.331 395.859-22.263.011-11.564 98.214 22.665 17.916 22.361-20.584z" fill="#615260"/><path d="m164.317 370.703-61.249 1.303c-20.614 6.51-38.661 22.561-38.661 44.178v71.041l10.085 23.371c2.582.912 5.363 1.403 8.258 1.403h123.871z" fill="#008cca"/><path d="m57.976 416.184v71.041c0 10.771 6.916 19.958 16.516 23.371v-94.411c0-14.48 9.282-27.137 23.089-31.5l34.29-10.828-7.83-14.742-31.436 9.821c-20.615 6.51-34.629 25.632-34.629 47.248z" fill="#0074a7"/><path d="m151.038 426.559 6.034-30.172h-16.516c-9.121 0-16.516-7.395-16.516-16.516v-3.541l50.936-21.451 81.193 157.121h-49.548l-50.845-65.372c-4.421-5.684-6.15-13.009-4.738-20.069z" fill="#1badde"/><path d="m173.04 360.856-1.427-16.963-47.573 15.222v17.215z" fill="#008cca"/><path d="m223.137 355.097 12.752 38.255c2.248 6.744 8.559 11.293 15.668 11.293h9.224c7.109 0 13.42-4.549 15.668-11.293l12.752-38.255z" fill="#4e3d4d"/><path d="m313.976 355.097h-105.352v-44.339l105.352-3.048z" fill="#e29a6c"/><path d="m198.363 363.355h16.516v-27.04c0-10.47 9.562-18.019 19.867-16.167 6.953 1.249 14.106 1.917 21.423 1.917 20.89 0 40.542-5.222 57.806-14.354v-43.452h-115.612z" fill="#d48c64"/><path d="m181.765 16.516h49.548v156.903h-107.354v-99.096c0-31.926 25.88-57.807 57.806-57.807z" fill="#615260"/><path d="m214.797 0h74.323c54.73 0 99.097 44.367 99.097 99.097v82.581h-206.452v-148.646c0-18.243 14.789-33.032 33.032-33.032z" fill="#736572"/><path d="m375.912 165.161h-12.387c-9.122 0-16.516-7.395-16.516-16.517l-.041-20.831c-.024-11.877-8.472-22.065-20.139-24.287l-133.715-25.47c-1.04-.198-2.072-.294-3.086-.297l-17.674 108.328-7.819 19.547c4.23 55.419 34.393 96.434 90.896 96.434 7.103 0 14.783 2.788 21.497 1.471 46.697-9.16 82.477-48.638 86.175-97.09h11.63c10.8 0 20.642-7.771 21.718-18.517 1.236-12.355-8.435-22.771-20.539-22.771z" fill="#f4aa73"/><path d="m190.023 198.194v-120.434c-8.913-.014-16.516 7.224-16.516 16.521v29.59c0 22.804-18.486 41.29-41.29 41.29h5.392c-10.799 0-20.641 7.77-21.718 18.515-1.238 12.358 8.432 22.775 20.537 22.775h12.804c4.23 55.419 50.435 99.097 106.937 99.097 7.092 0 14.052-.694 20.757-2.007-49.485-9.568-86.903-53.068-86.903-105.347z" fill="#e29a6c"/><path d="m206.621 189.935c-4.565 0-8.258-3.694-8.258-8.258v-8.258c0-4.565 3.694-8.258 8.258-8.258s8.258 3.694 8.258 8.258v8.258c0 4.565-3.694 8.258-8.258 8.258z" fill="#4e3d4d"/><path d="m305.718 189.935c-4.565 0-8.258-3.694-8.258-8.258v-8.258c0-4.565 3.694-8.258 8.258-8.258s8.258 3.694 8.258 8.258v8.258c0 4.565-3.694 8.258-8.258 8.258z" fill="#4e3d4d"/><path d="m256.169 247.742c-12.395 0-23.823-3.976-30.573-10.637-3.25-3.21-3.282-8.435-.081-11.677 3.218-3.25 8.444-3.282 11.677-.081 2.75 2.71 9.363 5.879 18.976 5.879s16.226-3.169 18.976-5.879c3.234-3.202 8.46-3.169 11.677.081 3.202 3.242 3.169 8.468-.081 11.677-6.748 6.661-18.175 10.637-30.571 10.637z" fill="#d48c64"/><path d="m214.879 156.903h-16.516c-4.565 0-8.258-3.694-8.258-8.258s3.694-8.258 8.258-8.258h16.516c4.565 0 8.258 3.694 8.258 8.258s-3.693 8.258-8.258 8.258z" fill="#615260"/><path d="m313.976 156.903h-16.516c-4.565 0-8.258-3.694-8.258-8.258s3.694-8.258 8.258-8.258h16.516c4.565 0 8.258 3.694 8.258 8.258s-3.694 8.258-8.258 8.258z" fill="#615260"/><path d="m454.024 487.226v-71.041c0-21.617-14.014-40.739-34.628-47.249l-31.098-9.821-38.932 10.502-43.648 142.383h123.532c13.682 0 24.774-11.092 24.774-24.774z" fill="#008cca"/><path d="m361.3 426.559-6.034-30.172h16.516c9.121 0 16.516-7.395 16.516-16.516v-20.756l-46.335-14.722-85.794 167.607h49.548l50.845-65.372c4.422-5.684 6.151-13.009 4.738-20.069z" fill="#1badde"/><g fill="#d1edff"><path d="m189.304 317.995c-4.11-2.283-9.294-.679-11.397 3.526l-10.682 21.365c-1.235 2.47-1.154 5.393.216 7.79l25.882 45.293c2.572 4.501 8.608 5.547 12.544 2.173l50.22-43.045z"/><path d="m334.267 321.521c-2.103-4.205-7.287-5.809-11.397-3.526l-66.783 37.102 50.219 43.045c3.936 3.374 9.972 2.329 12.544-2.173l25.882-45.293c1.37-2.397 1.451-5.321.216-7.79z"/></g></g></svg>