<svg id="Capa_1" enable-background="new 0 0 511.999 511.999" height="512" viewBox="0 0 511.999 511.999" width="512" xmlns="http://www.w3.org/2000/svg"><g><path d="m462.451 396.387c-4.565 0-8.258-3.698-8.258-8.258v-231.226c0-4.56 3.694-8.258 8.258-8.258s8.258 3.698 8.258 8.258v231.226c0 4.56-3.693 8.258-8.258 8.258z" fill="#008cca"/><path d="m470.128 130.492-207.638-124.67-26.606-1.894c-2.297.933-4.544 2.033-6.725 3.299l-204.366 118.665c-11.05 6.416-11.05 22.375 0 28.791l92.259 53.564 272.28-1.895 88.615-55.444z" fill="#008cca"/><path d="m487.207 125.892-204.368-118.665c-14.415-8.37-31.768-9.469-46.955-3.299l210.021 121.964c11.05 6.416 11.05 22.375 0 28.791l-88.985 51.669 34.909 3.633 95.377-55.302c11.051-6.416 11.051-22.375.001-28.791z" fill="#1badde"/><path d="m411.971 339.118c-7.05-8.967-15.584-27.829-15.584-66.602v-82.68l-140.387-24.675v289.032l76.423-44.784c35.808-4.286 39.19-37.797 39.19-37.797 17.409 4.352 30.231-2.765 38.465-10.471 6.188-5.79 7.131-15.361 1.893-22.023z" fill="#615260"/><path d="m208.957 163.026-93.344 26.81v82.68c0 38.774-8.534 57.636-15.584 66.602-5.238 6.662-4.295 16.233 1.893 22.024 8.234 7.706 21.056 14.823 38.465 10.471 0 0 3.884 33.847 39.692 38.133l9.857 3.157 63.273 39.545z" fill="#4e3d4d"/><path d="m412.878 459.042-107.33-37.881-98.008 8.299-106.534 34.86c-16.305 5.755-29.403 14.584-29.403 30.543l10.973 15.72c2.702.906 5.527 1.418 8.261 1.418h82.581l82.582-21.401 82.58 21.4h82.581c10.976 0 23.43-8.258 23.43-17.074 0-15.959-15.408-30.13-31.713-35.884z" fill="#1badde"/><path d="m164.805 435.86-65.683 23.182c-16.361 5.774-31.754 19.925-31.754 36.055 0 8.645 8.058 13.333 15.213 15.485v-4.816c0-13.98 8.855-26.496 22.04-31.149l107.331-37.883z" fill="#008cca"/><path d="m200.393 423.299-35.588 12.56 8.614 76.14h74.323l9.97-11.843 6.546 11.843h74.322l8.581-76.151-20.094-7.092z" fill="#dbd8db"/><path d="m305.548 437.677-49.548 5.111-43.03-5.111v-74.788l92.578 23.122z" fill="#e29a6c"/><path d="m256 396.387c17.629 0 34.367-3.738 49.548-10.376v-47.43h-99.097v115.613h16.516v-52.02c0-5.134 4.639-9.079 9.677-8.09 7.562 1.484 15.358 2.303 23.356 2.303z" fill="#d48c64"/><path d="m363.24 267.326c-1.087-23.08-9.687-44.033-23.311-60.871l-146.724-37.954s-11.077 47.24-43.004 75.584l2.389 33.231c4.23 55.419 46.915 100.995 103.417 100.995 5.62 0 11.14 1.128 16.527.296 53.094-8.205 93.342-55.311 90.706-111.281z" fill="#f4aa73"/><path d="m181.677 272.516v-28.567c0-8.405 1.604-16.733 4.725-24.537 3.131-7.828 10.713-12.961 19.144-12.961h134.387c-20.463-25.242-52.293-41.29-86.958-41.29h-30.008c-4.892 0-9.571-.798-14.016-2.137-1.552-.467-3.077-.994-4.568-1.589-1.535-.634-3.052-1.303-4.506-2.083-4.594-2.466-10.275.117-11.63 5.152-6.417 23.852-23.497 74.978-51.991 74.978-12.104 0-21.775 10.415-20.538 22.773 1.076 10.746 10.917 18.517 21.717 18.517h11.633c4.23 55.419 50.435 99.097 106.937 99.097 5.622 0 11.138-.431 16.527-1.264-51.415-7.971-90.855-52.438-90.855-106.089z" fill="#e29a6c"/><path d="m156.903 231.225c-4.565 0-8.258 3.698-8.258 8.258s3.694 8.258 8.258 8.258h16.516v-16.516z" fill="#736572"/><path d="m355.096 231.225h-16.516v16.516h16.516c4.565 0 8.258-3.698 8.258-8.258s-3.693-8.258-8.258-8.258z" fill="#736572"/><path d="m272.516 256h-33.032c-4.565 0-8.258-3.698-8.258-8.258s3.694-8.258 8.258-8.258h33.032c4.565 0 8.258 3.698 8.258 8.258s-3.694 8.258-8.258 8.258z" fill="#736572"/><g fill="#4e3d4d"><path d="m206.451 264.975c-4.565 0-8.258-3.698-8.258-8.258v-17.234c0-4.56 3.694-8.258 8.258-8.258s8.258 3.698 8.258 8.258v17.234c0 4.561-3.693 8.258-8.258 8.258z"/><path d="m305.548 264.975c-4.565 0-8.258-3.698-8.258-8.258v-17.234c0-4.56 3.694-8.258 8.258-8.258s8.258 3.698 8.258 8.258v17.234c0 4.561-3.693 8.258-8.258 8.258z"/><path d="m305.548 297.29c-22.766 0-41.29-18.524-41.29-41.29v-16.516c0-4.56 3.694-8.258 8.258-8.258h66.065c4.565 0 8.258 3.698 8.258 8.258v16.516c-.001 22.766-18.525 41.29-41.291 41.29zm-24.774-49.549v8.259c0 13.661 11.113 24.774 24.774 24.774s24.774-11.113 24.774-24.774v-8.258h-49.548z"/><path d="m206.451 297.29c-22.766 0-41.29-18.524-41.29-41.29v-16.516c0-4.56 3.694-8.258 8.258-8.258h66.064c4.565 0 8.258 3.698 8.258 8.258v16.516c.001 22.766-18.524 41.29-41.29 41.29zm-24.774-49.549v8.259c0 13.661 11.113 24.774 24.774 24.774s24.774-11.113 24.774-24.774v-8.258h-49.548z"/></g><path d="m256 330.322c-12.387 0-23.823-3.976-30.573-10.637-3.25-3.202-3.282-8.431-.081-11.677 3.202-3.25 8.444-3.282 11.677-.081 2.75 2.714 9.371 5.879 18.976 5.879s16.226-3.165 18.976-5.879c3.234-3.202 8.476-3.169 11.677.081 3.202 3.246 3.169 8.476-.081 11.677-6.749 6.661-18.184 10.637-30.571 10.637z" fill="#d48c64"/><path d="m247.742 442.992h16.516v69.007h-16.516z" fill="#c9c5c9"/><path d="m177.82 409.211c2.103-4.205 7.287-5.809 11.397-3.526l66.783 37.103-50.219 43.045c-3.936 3.374-9.972 2.329-12.544-2.173l-25.951-45.413c-1.327-2.322-1.406-5.154-.209-7.547z" fill="#eceaec"/><path d="m334.179 409.211c-2.103-4.205-7.287-5.809-11.397-3.526l-66.782 37.103 50.219 43.045c3.936 3.374 9.972 2.329 12.544-2.173l25.951-45.413c1.327-2.322 1.406-5.154.209-7.547z" fill="#eceaec"/><path d="m256 98.997c-27.286 0-52.754 2.29-74.305 6.251l-10.644 44.031 10.625 40.557h214.71v-49.548c.001-22.805-62.853-41.291-140.386-41.291z" fill="#736572"/><path d="m181.677 105.248c-39.628 7.299-66.064 20.273-66.064 35.039v49.548h66.064z" fill="#615260"/><path d="m462.451 371.612c-9.122 0-16.516 7.395-16.516 16.516v41.29c0 4.561 3.697 8.258 8.258 8.258h16.516c4.561 0 8.258-3.697 8.258-8.258v-41.29c0-9.121-7.394-16.516-16.516-16.516z" fill="#ffe077"/><circle cx="256" cy="148.645" fill="#ffe077" r="24.774"/></g></svg>