<svg id="Capa_1" enable-background="new 0 0 512 512" height="512" viewBox="0 0 512 512" width="512" xmlns="http://www.w3.org/2000/svg"><g><path d="m280.774 0-33.032 6.912c-72.93 0-124.945 52.8-124.909 125.729.049 100.582 15.985 167.577 22.805 193.676l78.624 12.263 81.287-.736c53.083-20.028 90.838-71.301 90.838-131.393v-90.839c0-63.85-51.762-115.612-115.613-115.612z" fill="#615260"/><path d="m115.613 131.539c-.056 101.195 14.425 168.585 21.27 194.779 1.899 7.265 8.455 12.263 15.965 12.263h53.604l57.38-.426-65.638-65.638v-206.452c0-27.365 22.184-49.548 49.548-49.548h16.516c9.122 0 16.516-7.395 16.516-16.516h-33.032c-72.724-.001-132.088 58.814-132.129 131.538z" fill="#4e3d4d"/><path d="m310.1 354.798c-2.858-3.005-4.552-7.05-4.552-11.387v-23.465l-89.974-2.229-19.113 79.493 43.023 77.755h33.032z" fill="#e29a6c"/><path d="m256 445.936c-11.637 0-22.912-1.524-33.657-4.353l17.141 70.417h33.032l8.781-68.506c-8.188 1.59-16.641 2.442-25.297 2.442z" fill="#615260"/><path d="m206.452 280.774v62.637c0 4.337-1.694 8.383-4.553 11.388l9.585 13.631c7.138-6.152 11.484-15.206 11.484-25.019v-.01c0-8.806 7.79-15.497 16.508-14.259 5.398.767 10.909 1.181 16.524 1.181 17.629 0 34.367-3.738 49.548-10.376v-39.172h-99.096z" fill="#d48c64"/><path d="m224.775 370.064-9.047-6.031-108.055 32.431c-19.81 6.991-33.057 25.715-33.057 46.723v47.525l7.965 19.883c2.582.913 5.363 1.404 8.258 1.404h148.645v-114.45c0-11.045-5.52-21.358-14.709-27.485z" fill="#1badde"/><path d="m104.621 408.556 96.307-33.993c5.963-2.105 11.031-5.816 14.8-10.53l-13.829-9.234c-1.752 1.832-3.966 3.305-6.466 4.187l-96.31 33.992c-19.81 6.991-33.057 25.716-33.057 46.723v47.525c0 10.771 6.916 19.957 16.516 23.37v-70.887c-.001-14.006 8.831-26.491 22.039-31.153z" fill="#008cca"/><path d="m375.742 173.419c-29.417 0-47.332-55.677-53.524-78.89-.855-3.204-4.512-4.6-7.327-2.847-7.514 4.677-16.345 7.414-25.858 7.414l-30.008 10.766c-57.806 0-96.767 33.657-99.486 91.399-2.903 61.65 35.442 111.568 96.454 111.568 5.684 0 16.706-.317 16.706-.317 48.667-7.613 86.427-47.959 90.232-97.803h11.633c10.8 0 20.641-7.771 21.717-18.517 1.236-12.357-8.435-22.773-20.539-22.773z" fill="#f4aa73"/><path d="m181.677 206.452v-8.258c0-45.608 36.973-82.581 82.581-82.581h8.258c9.122 0 16.516-7.395 16.516-16.516h-30.008c-57.806 0-107.546 44.423-110.265 102.165-2.903 61.65 46.221 112.545 107.232 112.545 5.65 0 11.294-.452 16.706-1.293-51.451-7.944-91.02-52.387-91.02-106.062z" fill="#e29a6c"/><path d="m206.452 198.911c-4.565 0-8.258-3.698-8.258-8.258v-8.258c0-4.56 3.694-8.258 8.258-8.258s8.258 3.698 8.258 8.258v8.258c0 4.561-3.694 8.258-8.258 8.258z" fill="#4e3d4d"/><path d="m305.548 198.911c-4.565 0-8.258-3.698-8.258-8.258v-8.258c0-4.56 3.694-8.258 8.258-8.258 4.565 0 8.258 3.698 8.258 8.258v8.258c0 4.561-3.693 8.258-8.258 8.258z" fill="#4e3d4d"/><path d="m230.797 229.005c-6.086 0-10.086 6.361-7.488 11.865 5.311 11.251 17.947 19.166 32.691 19.166s27.38-7.915 32.691-19.166c2.598-5.504-1.401-11.865-7.488-11.865z" fill="#fff"/><path d="m214.71 165.161h-16.516c-4.565 0-8.258-3.698-8.258-8.258s3.694-8.258 8.258-8.258h16.516c4.565 0 8.258 3.698 8.258 8.258s-3.694 8.258-8.258 8.258z" fill="#615260"/><path d="m313.806 165.161h-16.516c-4.565 0-8.258-3.698-8.258-8.258s3.694-8.258 8.258-8.258h16.516c4.565 0 8.258 3.698 8.258 8.258s-3.693 8.258-8.258 8.258z" fill="#615260"/><path d="m219.937 425.133c-10.186-8.289-27.083-12.284-45.391-9.272-15.793 2.598-28.921 9.797-36.72 18.861-2.045 2.377-1.444 6.03 1.254 7.627 10.291 6.088 25.034 8.704 40.826 6.107 18.309-3.012 33.037-12.208 40.031-23.323z" fill="#dbd8db"/><path d="m445.935 487.226v-47.525c0-21.008-13.248-39.732-33.057-46.723l-96.31-33.992c-2.5-.883-4.715-2.356-6.467-4.188l-22.875 15.267c-9.19 6.127-14.709 16.44-14.709 27.485v114.45h148.645c13.682 0 24.773-11.092 24.773-24.774z" fill="#1badde"/><path d="m379.871 454.194h-16.516c0-4.56-3.694-8.258-8.258-8.258s-8.258 3.698-8.258 8.258h-16.516c-4.565 0-8.258 3.698-8.258 8.258s3.694 8.258 8.258 8.258h16.516c0 4.56 3.694 8.258 8.258 8.258s8.258-3.698 8.258-8.258h16.516c4.565 0 8.258-3.698 8.258-8.258 0-4.561-3.694-8.258-8.258-8.258z" fill="#ffe077"/><path d="m214.55 420.851c11.122 7.042 20.333 21.857 23.361 40.267 2.611 15.874.011 30.689-6.065 41.03-1.594 2.713-5.264 3.317-7.643 1.257-9.067-7.85-16.275-21.051-18.886-36.926-3.028-18.41.952-35.395 9.233-45.628z" fill="#fff"/><path d="m256 421.161c-36.565 0-70.282-18.407-90.185-49.238-2.476-3.831-1.379-8.944 2.46-11.419 3.815-2.468 8.935-1.371 11.411 2.46 16.855 26.101 45.379 41.681 76.315 41.681s59.46-15.581 76.315-41.681c2.476-3.831 7.597-4.923 11.411-2.46 3.839 2.476 4.935 7.589 2.46 11.419-19.905 30.831-53.622 49.238-90.187 49.238z" fill="#dbd8db"/><circle cx="222.968" cy="410.238" fill="#fff" r="16.516"/></g></svg>