<svg id="Capa_1" enable-background="new 0 0 512 512" height="512" viewBox="0 0 512 512" width="512" xmlns="http://www.w3.org/2000/svg"><g><path d="m347.09 340.112-15.499-4.558c-10.544-3.101-17.784-12.778-17.784-23.768v-20.591l-103.006 5.016-28.018 61.9 114.678 44.959z" fill="#ffd18d"/><path d="m98.029 377.001 87.046-25.607c17.57-5.169 29.635-21.294 29.635-39.608 0-6.591 6.203-11.235 12.61-9.684 9.201 2.228 18.791 3.447 28.681 3.447 20.89 0 40.542-5.222 57.806-14.354v-59.968h-115.613v80.559c0 10.99-7.24 20.666-17.784 23.767l-87.036 25.599c-21.087 6.202-35.568 25.555-35.568 47.535v78.538c0 10.771 6.916 19.844 16.516 23.257v-101.796c.001-14.651 9.652-27.55 23.707-31.685z" fill="#fbbd80"/><path d="m418.626 361.152-71.536-21.04c-27.045 14.811-58.08 23.243-91.09 23.243-24.164 0-47.27-4.519-68.527-12.75l-35.538 1.823-58.561 17.224c-21.087 6.202-28.962 25.555-28.962 47.535v70.038l9.911 23.365c2.583.913 5.363 1.41 8.258 1.41h41.29l9.392-6.197 7.125 6.197h289.032c13.682 0 24.774-11.092 24.774-24.774v-78.538c0-21.981-14.481-41.334-35.568-47.536z" fill="#4ce1a1"/><path d="m98.029 377.001 87.046-25.607c.793-.233 1.628-.513 2.398-.79-7.734-3.002-15.357-6.547-22.563-10.493l-71.536 21.04c-21.087 6.202-35.568 25.555-35.568 47.535v78.538c0 10.771 6.916 19.953 16.516 23.365v-101.903c.001-14.651 9.652-27.55 23.707-31.685z" fill="#3ec2a3"/><path d="m379.871 149.062-35.17-73.738-179.511 7.257 20.199 142.824 144.935 33.674c14.603-14.057 25.233-32.218 30.052-52.627l2.561-16.517h11.944c10.164 0 19.469-6.967 21.19-16.984 1.986-11.555-5.646-21.746-16.2-23.889z" fill="#ffe09c"/><path d="m156.903 82.581-24.774 66.481c-10.554 2.142-18.186 12.333-16.201 23.889 1.72 10.017 11.026 16.985 21.19 16.985h11.944l2.561 16.516c4.819 20.41 15.45 38.571 30.054 52.629l31.339-10.958c-14.442-18.272-23.081-41.339-23.081-66.444v-49.549c0-9.122 7.395-16.516 16.516-16.516h107.355c9.122 0 16.516-7.395 16.516-16.516v-8.258z" fill="#ffd18d"/><path d="m189.935 189.935-40.873.001c.431 5.652 1.288 11.142 2.559 16.516h38.314z" fill="#7ad7ee"/><path d="m322.064 189.935 40.873.001c-.431 5.652-1.293 11.142-2.564 16.516h-38.309z" fill="#b3e1f8"/><path d="m136.258 148.646h12.387c9.122 0 16.516-7.395 16.516-16.516v-41.29l-33.032 8.258v49.965c1.335-.272 2.715-.417 4.129-.417z" fill="#845252"/><path d="m375.742 148.646h-12.387c-9.122 0-16.516-7.395-16.516-16.516v-41.29l33.033 8.258v49.965c-1.336-.272-2.716-.417-4.13-.417z" fill="#a46a5a"/><path d="m206.452 173.42c-4.565 0-8.258-3.694-8.258-8.258v-8.258c0-4.56 3.694-8.258 8.258-8.258 4.565 0 8.258 3.698 8.258 8.258v8.258c0 4.564-3.694 8.258-8.258 8.258z" fill="#c6805d"/><path d="m305.548 173.42c-4.565 0-8.258-3.694-8.258-8.258v-8.258c0-4.56 3.694-8.258 8.258-8.258s8.258 3.698 8.258 8.258v8.258c0 4.564-3.693 8.258-8.258 8.258z" fill="#c6805d"/><path d="m214.71 140.388h-16.516c-4.565 0-8.258-3.698-8.258-8.258s3.694-8.258 8.258-8.258h16.516c4.565 0 8.258 3.698 8.258 8.258s-3.694 8.258-8.258 8.258z" fill="#845252"/><path d="m313.806 140.388h-16.516c-4.565 0-8.258-3.698-8.258-8.258s3.694-8.258 8.258-8.258h16.516c4.565 0 8.258 3.698 8.258 8.258s-3.693 8.258-8.258 8.258z" fill="#845252"/><path d="m140.387 512v-91.314c0-16.484 9.774-31.355 24.895-37.895l53.471-23.122c-8.716-1.735-17.193-4.111-25.434-6.995l-34.586 14.956c-21.177 9.153-34.863 29.976-34.863 53.056v91.314z" fill="#3ec2a3"/><circle cx="165.161" cy="429.42" fill="#d1edff" r="8.258"/><circle cx="165.161" cy="478.968" fill="#d1edff" r="8.258"/><path d="m297.291 0h-82.581c-8.632 0-16.954 1.326-24.775 3.783l-14.972 52.971 14.972 42.344h189.936v-16.517c.001-45.609-36.972-82.581-82.58-82.581z" fill="#4ce1a1"/><path d="m189.935 99.097v-95.314c-33.501 10.525-57.806 41.823-57.806 78.798v16.517h57.806z" fill="#3ec2a3"/><path d="m322.064 189.936h-11.05c-8.98 0-17.792-2.441-25.493-7.061l-8.279-4.967c-13.076-7.845-29.411-7.845-42.487 0l-8.279 4.967c-7.701 4.62-16.512 7.061-25.493 7.061h-10.744l-6.156 30.04 33.882 57.991s52.078 10.379 58.791 9.064c20.584-4.03 39.031-13.946 53.563-27.953v-60.884c.003-4.561-3.694-8.258-8.255-8.258z" fill="#d1edff"/><path d="m276.757 287.02c-46.801-9.095-82.817-48.575-86.516-97.085h-.306c-4.561 0-8.258 3.697-8.258 8.258v60.887c19.272 18.575 45.427 29.953 74.323 29.953 7.09 0 14.058-.696 20.757-2.013z" fill="#b3e1f8"/></g></svg>