<svg id="Capa_1" enable-background="new 0 0 512 512" height="512" viewBox="0 0 512 512" width="512" xmlns="http://www.w3.org/2000/svg"><g><path d="m313.806 320.044v-18.792l-107.567-.808-.977 23.131-22.805 36.814 104.669 30.341 39.636-48.91c-7.863-4.265-12.956-12.559-12.956-21.776z" fill="#615260"/><path d="m198.194 264.258v55.786c0 9.21-5.087 17.493-12.94 21.761l7.496 14.713c13.242-7.073 21.96-21.096 21.96-36.477 0-6.089 5.602-10.696 11.552-9.408 9.585 2.074 19.532 3.174 29.738 3.174 20.632 0 40.161-4.562 57.806-12.555v-36.993h-115.612z" fill="#4e3d4d"/><path d="m418.626 369.41-87.036-25.599c-1.696-.499-3.319-1.175-4.828-1.992-17.99 18.393-43.001 29.793-70.763 29.793-21.564 0-41.5-6.907-57.757-18.611l-104.868 21.428c-21.087 6.202-27.876 25.555-27.876 47.535v65.263l8.826 23.365c2.583.913 5.362 1.409 8.257 1.409h24.774l21.347-10.978 19.943 10.977h90.839l19.534-10.978 13.498 10.978h90.839l18.595-10.978 22.695 10.978h24.774c13.682 0 24.774-11.092 24.774-24.774v-70.281c.001-21.98-14.48-41.333-35.567-47.535z" fill="#736572"/><g fill="#615260"><path d="m181.677 429.419h-41.29v66.065h41.29c4.561 0 8.258-3.698 8.258-8.258v-49.548c0-4.562-3.697-8.259-8.258-8.259z"/><path d="m330.323 495.484h41.29v-66.065h-41.29c-4.561 0-8.258 3.698-8.258 8.258v49.548c-.001 4.562 3.697 8.259 8.258 8.259z"/><path d="m239.484 362.887h33.032v149.114h-33.032z"/><path d="m98.032 385.258 87.048-25.597c4.862-1.434 9.268-3.694 13.162-6.659-4.648-3.352-8.991-7.11-12.989-11.197-1.509.817-3.148 1.508-4.844 2.007l-87.035 25.598c-21.087 6.202-35.568 25.555-35.568 47.535v70.281c0 10.771 6.916 19.955 16.516 23.368v-93.65c.001-14.549 9.751-27.581 23.71-31.686z"/></g><path d="m137.934 345.585-24.774 7.706c-3.453 1.074-5.805 4.27-5.805 7.886v150.823h41.29v-158.529c0-5.567-5.395-9.539-10.711-7.886z" fill="#4e3d4d"/><path d="m374.065 345.585 24.774 7.706c3.453 1.074 5.805 4.27 5.805 7.886v150.823h-41.29v-158.529c.001-5.567 5.396-9.539 10.711-7.886z" fill="#4e3d4d"/><path d="m256 295.068c-59.291 0-87.552-45.842-87.552-105.132v-66.065l194.907 55.4v10.664c0 52.223-37.289 95.738-86.695 105.369 0 0-13.593-.236-20.66-.236z" fill="#736572"/><path d="m189.935 189.935v-66.065l-41.29 55.4v10.664c0 59.29 48.065 107.355 107.355 107.355 7.067 0 13.975-.683 20.66-1.986-49.405-9.63-86.725-53.144-86.725-105.368z" fill="#615260"/><path d="m148.645 115.613v63.658c0 11.172 7.477 20.962 18.256 23.901l41.29 11.261c15.76 4.298 31.293-7.566 31.293-23.902v-.596c0-9.122 7.395-16.516 16.516-16.516s16.516 7.394 16.516 16.516v.596c0 16.336 15.533 28.2 31.293 23.902l41.29-11.261c10.778-2.94 18.256-12.729 18.256-23.901v-63.658z" fill="#1badde"/><path d="m280.774 0h-49.548c-8.495 0-16.801.917-24.774 2.656l-44.737 109.154 44.737 20.319h140.387c9.121 0 16.516 7.394 16.516 16.516v24.774c0 18.243 14.789 33.032 33.032 33.032v-90.839c0-63.85-51.762-115.612-115.613-115.612z" fill="#615260"/><path d="m206.452 2.656c-51.934 11.35-90.839 57.618-90.839 112.957v90.839c18.243 0 33.032-14.789 33.032-33.032v-24.774c0-9.122 7.395-16.516 16.516-16.516h41.29v-129.474z" fill="#4e3d4d"/><path d="m165.161 156.903v22.369c0 3.721 2.491 6.982 6.081 7.962l41.298 11.266c3.395.927 5.968-.484 7.177-1.403 1.218-.927 3.25-3.008 3.25-6.565 0-24.562 25.249-42.307 50.356-29.172 10.462 5.473 15.407 17.096 15.712 28.898.102 3.939 2.06 5.936 3.246 6.839 1.202.919 3.758 2.331 7.177 1.403l41.303-11.27c3.588-.979 6.076-4.238 6.076-7.956v-22.371c0-4.561-3.697-8.258-8.258-8.258h-165.16c-4.56 0-8.258 3.697-8.258 8.258z" fill="#4bc3ef"/></g></svg>