<svg id="Capa_1" enable-background="new 0 0 512 512" height="512" viewBox="0 0 512 512" width="512" xmlns="http://www.w3.org/2000/svg"><g><path d="m404.645 222.968c0-82.095-66.551-148.645-148.645-148.645v297.29c82.094 0 148.645-66.551 148.645-148.645z" fill="#615260"/><path d="m107.355 222.968c0 82.095 66.551 148.645 148.645 148.645v-297.29c-82.094 0-148.645 66.55-148.645 148.645z" fill="#4e3d4d"/><path d="m325.796 378.759-9.229-3.257c-6.603-2.331-11.019-8.572-11.019-15.575v-23.465l-91.709-1.376-16.941 74.715 110.769 45.611z" fill="#e29a6c"/><path d="m206.452 297.29v62.637c0 7.003-4.416 13.244-11.019 15.575l-96.31 33.992c-19.81 6.992-33.057 25.716-33.057 46.723v31.009c0 10.771 6.916 19.844 16.516 23.257v-54.258c0-14.006 8.832-26.491 22.04-31.153l96.307-33.993c13.208-4.662 22.04-17.146 22.04-31.152v-.01c0-8.805 7.79-15.497 16.508-14.259 5.398.767 10.909 1.18 16.524 1.18 17.629 0 34.367-3.738 49.548-10.376v-39.172z" fill="#d48c64"/><path d="m412.878 409.494-41.265-14.564-18.335 5.75-14.697-17.408-12.784-4.512c-18.775 16.101-43.124 25.886-69.796 25.886-19.43 0-37.626-5.193-53.334-14.236l-18.175-5.666-85.369 33.747c-19.81 6.991-27.762 25.716-27.762 46.723v22.013l11.222 23.365c2.583.913 5.362 1.409 8.257 1.409h49.548l15.027-13.149h197.429l18.769 13.148h49.548c13.682 0 24.774-11.092 24.774-24.774v-31.009c.001-21.007-13.247-39.732-33.057-46.723z" fill="#ffc263"/><path d="m104.621 425.073 96.307-33.993c.593-.209 1.163-.43 1.738-.67-5.831-3.362-11.383-7.294-16.463-11.65l-12.784 4.512-14.53 18.277-18.502-6.618-41.265 14.564c-19.81 6.991-33.057 25.716-33.057 46.723v31.009c0 .429.011.856.033 1.28.523 10.214 7.266 18.812 16.483 22.089v-54.37c0-14.007 8.832-26.492 22.04-31.153z" fill="#ffaa5a"/><path d="m396.28 208.109c-1.077-10.745-10.918-18.515-21.717-18.515h-11.209c0-11.729-2.717-22.824-7.556-32.689l-15.58-11.456-125.945 1.547c-32.22 21.479-42.826 46.681-49.086 66.305-3.687 11.556-4.347 23.905-1.383 35.666 11.735 46.546 42.003 79.929 92.195 79.929 5.293 0 15.582-.039 15.582-.039 49.209-7.163 87.522-47.746 91.355-97.973h12.804c12.107.001 21.778-10.417 20.54-22.775z" fill="#f4aa73"/><path d="m181.677 222.968c0-36.486 29.578-66.065 66.065-66.065h108.061c-2.947-6.006-6.686-11.559-11.072-16.52l-138.279.004c-32.22 21.479-46.803 53.291-53.063 72.914-3.686 11.555-4.347 23.905-1.383 35.666 11.735 46.546 53.802 81.014 103.994 81.014 5.252 0 10.534-.395 15.582-1.124-50.893-8.418-89.905-52.611-89.905-105.889z" fill="#e29a6c"/><path d="m206.452 215.427c-4.565 0-8.258-3.694-8.258-8.258v-8.258c0-4.565 3.694-8.258 8.258-8.258s8.258 3.694 8.258 8.258v8.258c0 4.565-3.694 8.258-8.258 8.258z" fill="#4e3d4d"/><path d="m305.548 215.427c-4.565 0-8.258-3.694-8.258-8.258v-8.258c0-4.565 3.694-8.258 8.258-8.258 4.565 0 8.258 3.694 8.258 8.258v8.258c0 4.565-3.693 8.258-8.258 8.258z" fill="#4e3d4d"/><path d="m214.71 181.677h-16.516c-4.565 0-8.258-3.694-8.258-8.258s3.694-8.258 8.258-8.258h16.516c4.565 0 8.258 3.694 8.258 8.258s-3.694 8.258-8.258 8.258z" fill="#615260"/><path d="m313.806 181.677h-16.516c-4.565 0-8.258-3.694-8.258-8.258s3.694-8.258 8.258-8.258h16.516c4.565 0 8.258 3.694 8.258 8.258s-3.693 8.258-8.258 8.258z" fill="#615260"/><path d="m228.749 244.301c-5.633 0-9.908 5.623-7.852 10.868 5.056 12.904 18.863 22.164 35.103 22.164s30.047-9.26 35.103-22.164c2.055-5.245-2.219-10.868-7.852-10.868z" fill="#fff"/><path d="m355.099 50.22v-17.191c-.002-9.121-7.396-16.513-16.517-16.513l-16.518 9.096c-12.583-5.783-26.535-9.096-41.29-9.096h-8.258v-8.258c0-4.561-3.697-8.258-8.258-8.258h-8.258l-16.516 16.516h-8.258c-5.632 0-11.15.467-16.516 1.386l-24.774 7.711v-.838c0-4.561-3.697-8.258-8.258-8.258h-8.26l-25.606 115.613h232.059v-16.516c0-25.091-9.399-47.936-24.772-65.394z" fill="#ffc263"/><g fill="#ffaa5a"><path d="m189.935 25.612v15.678c0 4.56-3.697 8.258-8.258 8.258s-8.258-3.698-8.258-8.258v-24.774h-.002c-9.12 0-16.515 7.393-16.516 16.514l-.001 17.191c-15.372 17.458-24.772 40.302-24.772 65.392v16.516h82.581v-114.227c-8.674 1.489-17.008 4.141-24.774 7.71z"/><path d="m247.742 41.29c-4.561 0-8.258-3.697-8.258-8.258v-24.774c0-4.561 3.697-8.258 8.258-8.258h8.258v33.032c0 4.561-3.697 8.258-8.258 8.258z"/><path d="m330.323 49.548c-4.561 0-8.258-3.697-8.258-8.258v-16.516c0-4.561 3.697-8.258 8.258-8.258h8.258v24.774c0 4.561-3.698 8.258-8.258 8.258z"/></g><path d="m256.013 107.355c-53.648 0-102.205 9.021-137.39 23.602-4.933 2.044-3.382 9.43 1.957 9.43h135.433 135.433c5.34 0 6.89-7.386 1.957-9.43-35.185-14.581-83.742-23.602-137.39-23.602z" fill="#ff8b57"/><path d="m338.581 383.271v54.406c0 13.682-11.092 24.774-24.774 24.774h-115.613c-13.682 0-24.774-11.092-24.774-24.774v-36.889l-18.657-2.716-14.375 14.375v99.553h231.226v-117.07z" fill="#4bc3ef"/><path d="m173.419 400.789v-17.518l-3.335 1.177-29.697 10.482v17.518z" fill="#1badde"/></g></svg>