<svg id="Capa_1" enable-background="new 0 0 512 512" height="512" viewBox="0 0 512 512" width="512" xmlns="http://www.w3.org/2000/svg"><g><path d="m419.396 368.936-31.129-9.83-53.235 10.299-37.911-39.082h-74.595l-122.275 38.614c-20.614 6.51-34.628 25.632-34.628 47.249v71.041l8.87 23.365c2.583.913 5.362 1.41 8.258 1.41h346.5c13.682 0 24.774-11.092 24.774-24.774v-71.041c-.001-21.619-14.015-40.741-34.629-47.251z" fill="#c9c5c9"/><path d="m57.976 416.184v71.041c0 10.771 6.916 19.952 16.516 23.365v-94.406c0-14.48 9.282-27.137 23.089-31.5l122.274-38.613-95.815 12.936-31.436 9.927c-20.614 6.512-34.628 25.634-34.628 47.25z" fill="#b8b2b8"/><path d="m313.976 355.097h-106.111v-66.054l106.111 18.667z" fill="#fbbd80"/><path d="m198.363 363.355h16.516v-27.04c0-10.47 9.562-18.019 19.867-16.167 6.953 1.249 14.106 1.917 21.423 1.917 20.89 0 40.542-5.222 57.806-14.354v-43.452h-115.612z" fill="#f4aa73"/><path d="m181.847 16.516h49.548v156.903l-107.355-8.258v-90.838c0-31.926 25.881-57.807 57.807-57.807z" fill="#4e3d4d"/><path d="m214.879 0h74.323c54.73 0 99.097 44.367 99.097 99.097v66.065l-206.452 16.516v-148.646c0-18.243 14.789-33.032 33.032-33.032z" fill="#615260"/><path d="m335.116 342.214-37.657 37.657-23.772 23.772c-4.838 4.837-11.177 7.256-17.518 7.256s-12.68-2.419-17.518-7.256l-23.772-23.772-37.657-37.657-53.182 34.116v135.67h132.129 132.129v-152.991z" fill="#c6805d"/><path d="m124.04 376.33 66.347-20.951-13.165-13.165-53.182 16.795z" fill="#af6e4d"/><path d="m375.993 165.161h-12.387c-9.122 0-16.516-7.395-16.516-16.517l-.041-20.831c-.024-11.877-8.472-22.065-20.139-24.287l-133.715-25.47c-1.041-.198-2.074-.301-3.09-.303l-8.629 16.527v29.59c0 22.804-16.724 82.581-16.724 82.581 4.23 55.419 34.997 97.74 91.499 97.74 7.101 0 20.726-.649 20.726-.649 46.7-9.158 82.507-48.638 86.206-97.092h11.63c10.8 0 20.642-7.771 21.718-18.517 1.238-12.356-8.433-22.772-20.538-22.772z" fill="#ffd18d"/><path d="m190.105 198.194v-120.44c-8.913-.014-16.516 7.23-16.516 16.527v29.59c0 22.804-18.486 41.29-41.29 41.29h5.392c-10.799 0-20.641 7.77-21.718 18.515-1.238 12.358 8.432 22.775 20.537 22.775h12.804c4.23 55.419 50.435 99.097 106.938 99.097 7.092 0 14.021-.692 20.726-2.005-49.486-9.568-86.873-53.07-86.873-105.349z" fill="#fbbd80"/><path d="m189.304 317.995c-4.11-2.283-9.294-.679-11.397 3.526l-12.659 25.318 28.075 49.131c2.572 4.501 8.608 5.547 12.544 2.173l50.22-43.045z" fill="#b8b2b8"/><path d="m334.267 321.521c-2.102-4.205-7.287-5.809-11.397-3.526l-66.783 37.102 50.219 43.045c3.936 3.374 9.972 2.329 12.544-2.173l28.075-49.131z" fill="#b8b2b8"/><path d="m272.685 247.742h-33.032c-4.565 0-8.258-3.698-8.258-8.258s3.694-8.258 8.258-8.258h33.032c4.565 0 8.258 3.698 8.258 8.258s-3.693 8.258-8.258 8.258z" fill="#d48c64"/><path d="m272.766 247.742h-33.032c-4.565 0-8.258-3.694-8.258-8.258s3.694-8.258 8.258-8.258h33.032c4.564 0 8.258 3.694 8.258 8.258s-3.694 8.258-8.258 8.258z" fill="#d48c64"/><path d="m223.137 140.387h-24.774c-4.565 0-8.258-3.698-8.258-8.258s3.694-8.258 8.258-8.258h24.774c4.565 0 8.258 3.698 8.258 8.258 0 4.561-3.693 8.258-8.258 8.258z" fill="#615260"/><path d="m313.976 140.387h-24.774c-4.565 0-8.258-3.698-8.258-8.258s3.694-8.258 8.258-8.258h24.774c4.565 0 8.258 3.698 8.258 8.258 0 4.561-3.694 8.258-8.258 8.258z" fill="#615260"/><g fill="#887f88"><path d="m181.847 173.419h-49.548c-4.565 0-8.258-3.698-8.258-8.258s3.694-8.258 8.258-8.258h49.548c4.565 0 8.258 3.698 8.258 8.258s-3.694 8.258-8.258 8.258z"/><path d="m380.04 173.419h-49.548c-4.565 0-8.258-3.698-8.258-8.258s3.694-8.258 8.258-8.258h49.548c4.565 0 8.258 3.698 8.258 8.258s-3.693 8.258-8.258 8.258z"/><path d="m272.685 189.935c-4.565 0-8.258-3.698-8.258-8.258 0-4.552-3.702-8.258-8.258-8.258s-8.258 3.706-8.258 8.258c0 4.56-3.694 8.258-8.258 8.258-4.565 0-8.258-3.698-8.258-8.258 0-13.661 11.113-24.774 24.774-24.774s24.774 11.113 24.774 24.774c.001 4.561-3.693 8.258-8.258 8.258z"/></g><path d="m210.75 181.677c-4.565 0-8.258-3.698-8.258-8.258v-8.258c0-4.56 3.694-8.258 8.258-8.258s8.258 3.698 8.258 8.258v8.258c0 4.561-3.694 8.258-8.258 8.258z" fill="#845252"/><path d="m223.137 206.452h-24.774c-13.661 0-24.774-11.113-24.774-24.774v-24.774c0-4.56 3.694-8.258 8.258-8.258h57.806c4.565 0 8.258 3.698 8.258 8.258v24.774c0 13.661-11.113 24.774-24.774 24.774zm-33.032-41.291v16.516c0 4.552 3.702 8.258 8.258 8.258h24.774c4.556 0 8.258-3.706 8.258-8.258v-16.516z" fill="#615260"/><path d="m301.589 181.677c-4.565 0-8.258-3.698-8.258-8.258v-8.258c0-4.56 3.694-8.258 8.258-8.258s8.258 3.698 8.258 8.258v8.258c0 4.561-3.694 8.258-8.258 8.258z" fill="#845252"/><path d="m313.976 206.452h-24.774c-13.661 0-24.774-11.113-24.774-24.774v-24.774c0-4.56 3.694-8.258 8.258-8.258h57.806c4.565 0 8.258 3.698 8.258 8.258v24.774c0 13.661-11.113 24.774-24.774 24.774zm-33.032-41.291v16.516c0 4.552 3.702 8.258 8.258 8.258h24.774c4.556 0 8.258-3.706 8.258-8.258v-16.516z" fill="#615260"/></g></svg>