<svg id="Capa_1" enable-background="new 0 0 512 512" height="512" viewBox="0 0 512 512" width="512" xmlns="http://www.w3.org/2000/svg"><g><path d="m363.355 74.323c-16.516-41.29-42.332-65.814-54.003-70.418-30.011-11.838-40.014 7.015-53.352 7.015-6.317 0-11.895-4.211-19.196-7.405-8.114-3.55-17.374-.562-33.171 5.67l-48.543 76.561 100.91 38.125z" fill="#ffe077"/><path d="m181.677 74.323c16.516-41.29 42.332-65.814 54.003-70.418.391-.154.74-.246 1.123-.39-8.116-3.554-18.35-5.845-34.156.39-11.671 4.604-37.487 29.128-54.003 70.418z" fill="#ffd05b"/><path d="m379.871 57.806c-41.29 0-75.699 33.032-123.871 33.032s-82.581-33.032-123.871-33.032c-41.047 0-74.323 27.729-74.323 61.935s33.275 61.935 74.323 61.935h247.742c41.047 0 74.323-27.729 74.323-61.935s-33.276-61.935-74.323-61.935z" fill="#ffc263"/><path d="m419.565 410.226-31.441-9.929-16.545 1.303-24.745-14.342-49.543-15.645-82.242 5.992-122.276 38.614c-20.614 6.51-30.099 25.632-30.099 47.249v23.758l11.988 23.365c2.583.913 5.362 1.409 8.257 1.409h40.952l14.821-12.717h239.348l10.084 12.717h41.295c13.682 0 24.774-11.092 24.774-24.774v-29.751c.001-21.617-14.014-40.739-34.628-47.249z" fill="#ff5f7a"/><path d="m58.145 457.475v29.751c0 10.771 6.916 19.954 16.516 23.367v-53.117c0-14.48 9.282-27.137 23.089-31.5l122.274-38.613-4.976-15.75-49.887 15.754-20.822 15.211-20.468-2.172-31.098 9.82c-20.614 6.51-34.628 25.632-34.628 47.249z" fill="#fb4455"/><path d="m314.145 396.387h-105.951v-45.665l105.951-1.721z" fill="#ffd18d"/><path d="m198.532 404.645h16.516v-27.04c0-10.47 9.562-18.019 19.867-16.167 6.953 1.249 14.106 1.917 21.423 1.917 20.89 0 40.542-5.222 57.806-14.354v-43.452h-115.612z" fill="#fbbd80"/><path d="m346.839 214.71h-214.371v-74.323c0-9.122 7.395-16.516 16.516-16.516h173.08z" fill="#845252"/><path d="m363.694 123.871h-41.629c0 9.122-7.395 16.516-16.516 16.516h-109.872c-7.732 0-14 6.025-14 13.757v60.566h198.533v-74.323c0-9.122-7.395-16.516-16.516-16.516z" fill="#a46a5a"/><path d="m170.403 170.451 11.275-16.307c1.411.004 2.853.191 4.298.58 28.165 7.589 83 20.298 152.664 26.286 4.634.398 8.2 4.273 8.2 8.924v.002c0 9.122 7.395 16.516 16.516 16.516h11.89c10.778 0 20.126 8.059 21.06 18.796 1.065 12.234-8.551 22.494-20.564 22.494h-12.804c-3.806 49.872-41.606 90.235-90.312 97.816-5.417.843-10.97.386-16.625.386-56.502 0-89.838-42.784-94.068-98.202z" fill="#ffe09c"/><path d="m181.677 239.484v-85.34c-8.848-.021-16.516 7.14-16.516 16.525v19.267c0 9.121-7.395 16.516-16.516 16.516h-12.387c-12.104 0-21.775 10.415-20.538 22.773 1.076 10.746 10.918 18.517 21.718 18.517h11.63c4.23 55.418 50.43 99.097 106.932 99.097 5.648 0 11.215-.44 16.625-1.281-51.453-7.941-90.948-52.397-90.948-106.074z" fill="#ffd18d"/><path d="m189.473 359.285c-4.11-2.283-9.294-.679-11.397 3.526l-12.915 24.556 28.331 49.893c2.572 4.501 8.608 5.547 12.544 2.173l50.22-43.045z" fill="#ffc263"/><path d="m334.436 362.811c-2.102-4.205-7.287-5.809-11.397-3.526l-66.783 37.102 50.219 43.045c3.936 3.374 9.972 2.329 12.544-2.173l27.814-50.002z" fill="#ffc263"/><g fill="#845252"><path d="m206.79 231.226c-4.565 0-8.258-3.698-8.258-8.258v-8.258c0-4.56 3.694-8.258 8.258-8.258s8.258 3.698 8.258 8.258v8.258c0 4.56-3.693 8.258-8.258 8.258z"/><path d="m305.887 231.226c-4.565 0-8.258-3.698-8.258-8.258v-8.258c0-4.56 3.694-8.258 8.258-8.258 4.565 0 8.258 3.698 8.258 8.258v8.258c0 4.56-3.693 8.258-8.258 8.258z"/><path d="m214.71 198.194h-16.516c-4.565 0-8.258-3.698-8.258-8.258s3.694-8.258 8.258-8.258h16.516c4.565 0 8.258 3.698 8.258 8.258s-3.694 8.258-8.258 8.258z"/><path d="m313.806 198.194h-16.516c-4.565 0-8.258-3.698-8.258-8.258s3.694-8.258 8.258-8.258h16.516c4.565 0 8.258 3.698 8.258 8.258s-3.693 8.258-8.258 8.258z"/></g><path d="m264.301 305.556h-16.355c-4.565 0-8.258-3.698-8.258-8.258s3.694-8.258 8.258-8.258h16.355c4.565 0 8.258 3.698 8.258 8.258s-3.693 8.258-8.258 8.258z" fill="#fbbd80"/><path d="m232.029 284.056c-6.379 0-12.758-1.855-18.323-5.565l-11.032-7.355c-3.798-2.528-4.823-7.657-2.29-11.452 2.516-3.802 7.637-4.831 11.452-2.29l11.032 7.355c5.565 3.71 12.758 3.71 18.323 0l1.871-1.25c3.798-2.532 8.919-1.504 11.452 2.298 2.532 3.794 1.5 8.923-2.29 11.452l-1.871 1.246c-5.566 3.706-11.945 5.561-18.324 5.561z" fill="#a46a5a"/><path d="m279.763 284.056c-6.379 0-12.758-1.855-18.323-5.565l-1.871-1.242c-3.79-2.528-4.823-7.657-2.29-11.452 2.524-3.802 7.637-4.831 11.452-2.298l1.871 1.246c5.573 3.722 12.766 3.71 18.323.004l11.032-7.355c3.806-2.54 8.927-1.512 11.452 2.29 2.532 3.794 1.508 8.923-2.29 11.452l-11.032 7.355c-5.566 3.71-11.945 5.565-18.324 5.565z" fill="#a46a5a"/><path d="m388.124 400.297-41.29-13.039v66.935c0 13.682-11.092 24.774-24.774 24.774l-132.124.001c-13.682 0-24.774-11.092-24.774-24.774v-49.506l-20.605-3.359-20.686 16.399v94.272l264.253-.001z" fill="#845252"/><path d="m123.871 417.727 41.29-13.039v-17.321l-18.691 5.902-22.599 7.137z" fill="#7a4646"/></g></svg>