<svg id="Capa_1" enable-background="new 0 0 512 512" height="512" viewBox="0 0 512 512" width="512" xmlns="http://www.w3.org/2000/svg"><g><path d="m313.806 320.044v-18.792l-105.615-1.35-17.376 76.018 123.366 13.032 12.579-47.132c-7.861-4.267-12.954-12.56-12.954-21.776z" fill="#615260"/><path d="m198.194 264.258v55.786c0 9.22-5.096 17.516-12.963 21.78l4.81 16.013c14.749-6.529 24.669-21.39 24.669-37.796 0-6.089 5.602-10.696 11.552-9.408 9.585 2.074 19.532 3.174 29.738 3.174 20.632 0 40.161-4.562 57.806-12.555v-36.993h-115.612z" fill="#4e3d4d"/><path d="m418.627 369.41-87.036-25.599c-1.696-.499-3.321-1.176-4.83-1.993-17.99 18.393-42.999 29.794-70.761 29.794-21.566 0-41.502-6.908-57.76-18.613l-17.83-.259-87.036 25.599c-21.087 6.202-29.834 25.555-29.834 47.535v61.352l10.784 23.365c2.583.913 5.361 1.409 8.257 1.409h24.774l20.692-15.755 20.598 15.755h214.71l21.415-15.755 19.875 15.755h24.774c13.682 0 24.774-11.092 24.774-24.774v-70.281c.001-21.98-14.48-41.333-35.566-47.535z" fill="#736572"/><path d="m98.032 385.258 87.048-25.597c4.862-1.434 9.265-3.696 13.16-6.661-4.648-3.352-9.012-7.089-13.01-11.176-1.509.817-3.124 1.489-4.82 1.988l-87.036 25.598c-21.087 6.202-35.568 25.555-35.568 47.535v70.281c0 10.771 6.916 19.956 16.516 23.369v-93.651c.001-14.549 9.751-27.581 23.71-31.686z" fill="#615260"/><path d="m272.516 0h-33.032c-21.282 0-41.119 6.193-57.804 16.875l-29.525 90.48c0 92.42 35.433 188.936 103.845 188.936 8.494 0 24.801-1.484 24.801-1.484 56.527-11.488 99.07-61.469 99.07-121.388v-66.065c0-59.29-48.064-107.354-107.355-107.354z" fill="#736572"/><path d="m181.677 173.419v-156.547c-29.768 19.083-49.548 52.499-49.548 90.483v66.065c0 68.412 55.459 123.871 123.871 123.871 8.485 0 16.795-.858 24.801-2.483-56.539-11.479-99.124-61.462-99.124-121.389z" fill="#615260"/><path d="m214.791 123.871h-16.64c-12.082 0-22.926 8.629-24.466 20.612-.503 3.916-.307 8.059.727 12.319 2.861 11.786 12.486 21.32 24.314 24 21.603 4.894 40.757-11.394 40.757-32.156 0-1.61-.118-3.19-.344-4.733-1.721-11.737-12.487-20.042-24.348-20.042z" fill="#ffd18d"/><path d="m313.888 123.871h-16.64c-12.082 0-22.926 8.629-24.466 20.612-.503 3.916-.307 8.059.727 12.319 2.861 11.786 12.486 21.32 24.314 24 21.603 4.894 40.758-11.394 40.758-32.156 0-1.61-.118-3.19-.344-4.733-1.722-11.737-12.488-20.042-24.349-20.042z" fill="#ffd18d"/><path d="m137.934 345.585-24.774 7.706c-3.453 1.074-5.805 4.27-5.805 7.886v150.823h41.29v-158.529c0-5.567-5.395-9.539-10.711-7.886z" fill="#4e3d4d"/><path d="m206.452 165.161c-4.565 0-8.258-3.694-8.258-8.258v-8.258c0-4.565 3.694-8.258 8.258-8.258s8.258 3.694 8.258 8.258v8.258c0 4.565-3.694 8.258-8.258 8.258z" fill="#4e3d4d"/><ellipse cx="256" cy="231.226" fill="#ffd18d" rx="41.29" ry="33.032"/><path d="m270.452 239.484h-28.903c-4.565 0-8.258-3.694-8.258-8.258 0-4.565 3.694-8.258 8.258-8.258h28.903c4.565 0 8.258 3.694 8.258 8.258s-3.694 8.258-8.258 8.258z" fill="#f4aa73"/><g fill="#4e3d4d"><path d="m305.548 165.161c-4.565 0-8.258-3.694-8.258-8.258v-8.258c0-4.565 3.694-8.258 8.258-8.258s8.258 3.694 8.258 8.258v8.258c0 4.565-3.693 8.258-8.258 8.258z"/><path d="m374.066 345.585 24.774 7.706c3.453 1.074 5.805 4.27 5.805 7.886v150.823h-41.29v-158.529c0-5.567 5.395-9.539 10.711-7.886z"/></g></g></svg>