<svg id="Capa_1" enable-background="new 0 0 512 512" height="512" viewBox="0 0 512 512" width="512" xmlns="http://www.w3.org/2000/svg"><g><path d="m272.516 0h-33.032c-22.804 0-41.29 18.486-41.29 41.29 0 22.804 18.486 41.29 41.29 41.29h33.032c22.804 0 41.29-18.486 41.29-41.29 0-22.804-18.486-41.29-41.29-41.29z" fill="#d48c64"/><path d="m280.774 41.29h-49.548c-14.548 0-28.468 2.687-41.291 7.592l-24.773 60.324v125.823h231.226v-78.126c-.001-63.851-51.762-115.613-115.614-115.613z" fill="#e29a6c"/><path d="m189.935 48.884c-43.431 16.637-74.323 58.737-74.323 108.019v78.126h74.323z" fill="#d48c64"/><path d="m412.878 434.268-107.33-37.881h-91.632l-107.33 37.881c-19.81 6.992-33.057 25.716-33.057 46.723v6.234l9.052 23.365c2.583.913 5.362 1.409 8.257 1.409h330.323c13.682 0 24.774-11.092 24.774-24.774v-6.234c0-21.007-13.247-39.731-33.057-46.723z" fill="#e29a6c"/><path d="m66.065 480.991v6.234c0 10.771 6.916 19.955 16.516 23.368v-29.602c0-13.98 8.855-26.496 22.04-31.149l107.331-37.883-5.5-15.573-107.33 37.881c-19.81 6.993-33.057 25.717-33.057 46.724z" fill="#d48c64"/><path d="m305.548 412.903-49.548 5.111-40.86-5.111v-59.136l90.408 7.47z" fill="#ffd18d"/><path d="m256 371.613c17.629 0 34.367-3.738 49.548-10.376v-47.43h-99.097v115.613h16.516v-52.02c0-5.134 4.639-9.079 9.677-8.09 7.562 1.484 15.358 2.303 23.356 2.303z" fill="#fbbd80"/><path d="m374.563 214.71h-11.208c0-41.047-33.275-74.323-74.323-74.323h-60.64c-8.761 0-17.163-3.48-23.358-9.675l-15.099-15.099-9.887 3.638-.254 57.829-12.871 78.92c4.23 55.419 32.575 97.984 89.077 97.984 7.116 0 20.795-.902 20.795-.902 46.68-9.173 82.446-48.643 86.143-97.082h12.804c12.105 0 21.776-10.417 20.538-22.775-1.076-10.745-10.917-18.515-21.717-18.515z" fill="#ffe09c"/><path d="m189.935 247.742v-132.129l-2.165-2.165c-5.19-5.19-14.065-1.537-14.097 5.803l-.254 57.829c0 20.597-16.493 37.37-37.089 37.632l-.924.012c-6.863.089-13.591 3.44-16.846 9.482-8.533 15.842 2.719 31.794 17.698 31.794h12.804c4.23 55.419 50.435 99.097 106.938 99.097 7.103 0 14.079-.698 20.795-2.015-49.46-9.587-86.86-53.078-86.86-105.34z" fill="#ffd18d"/><g fill="#eceaec"><path d="m177.821 384.438c2.103-4.205 7.287-5.809 11.397-3.526l66.782 37.102-50.219 43.045c-3.936 3.374-9.972 2.329-12.544-2.173l-25.42-44.484c-1.659-2.903-1.757-6.443-.262-9.434z"/><path d="m334.18 384.438c-2.103-4.205-7.287-5.809-11.397-3.526l-66.783 37.102 50.219 43.045c3.936 3.374 9.972 2.329 12.544-2.173l25.42-44.484c1.659-2.903 1.757-6.443.262-9.434z"/><circle cx="256" cy="470.71" r="8.258"/></g><path d="m256 305.548c-12.387 0-23.823-3.976-30.573-10.637-3.25-3.202-3.282-8.431-.081-11.677 3.202-3.25 8.444-3.282 11.677-.081 2.75 2.714 9.371 5.879 18.976 5.879s16.226-3.165 18.976-5.879c3.234-3.202 8.476-3.169 11.677.081 3.202 3.246 3.169 8.476-.081 11.677-6.748 6.662-18.184 10.637-30.571 10.637z" fill="#fbbd80"/><path d="m206.452 240.202c-4.565 0-8.258-3.694-8.258-8.258v-8.976c0-4.565 3.694-8.258 8.258-8.258s8.258 3.694 8.258 8.258v8.976c0 4.564-3.694 8.258-8.258 8.258z" fill="#7a4646"/><path d="m173.419 222.968h-36.581c-4.565 0-8.258-3.694-8.258-8.258 0-4.565 3.694-8.258 8.258-8.258h36.581c4.565 0 8.258 3.694 8.258 8.258s-3.693 8.258-8.258 8.258z" fill="#af6e4d"/><path d="m363.355 222.968h-24.774c-4.565 0-8.258-3.694-8.258-8.258 0-4.565 3.694-8.258 8.258-8.258h24.774c4.565 0 8.258 3.694 8.258 8.258s-3.694 8.258-8.258 8.258z" fill="#af6e4d"/><path d="m272.516 231.226h-33.032c-4.565 0-8.258-3.694-8.258-8.258s3.694-8.258 8.258-8.258h33.032c4.565 0 8.258 3.694 8.258 8.258s-3.693 8.258-8.258 8.258z" fill="#af6e4d"/><path d="m206.452 272.516c-22.766 0-41.29-18.524-41.29-41.29s18.524-41.29 41.29-41.29 41.29 18.524 41.29 41.29-18.524 41.29-41.29 41.29zm0-66.064c-13.661 0-24.774 11.113-24.774 24.774s11.113 24.774 24.774 24.774 24.774-11.113 24.774-24.774-11.113-24.774-24.774-24.774z" fill="#7a4646"/><path d="m305.548 240.202c-4.565 0-8.258-3.694-8.258-8.258v-8.976c0-4.565 3.694-8.258 8.258-8.258 4.565 0 8.258 3.694 8.258 8.258v8.976c0 4.564-3.693 8.258-8.258 8.258z" fill="#7a4646"/><path d="m305.548 272.516c-22.766 0-41.29-18.524-41.29-41.29s18.524-41.29 41.29-41.29 41.29 18.524 41.29 41.29-18.523 41.29-41.29 41.29zm0-66.064c-13.661 0-24.774 11.113-24.774 24.774s11.113 24.774 24.774 24.774 24.774-11.113 24.774-24.774c.001-13.661-11.112-24.774-24.774-24.774z" fill="#7a4646"/></g></svg>