<svg id="Capa_1" enable-background="new 0 0 512 512" height="512" viewBox="0 0 512 512" width="512" xmlns="http://www.w3.org/2000/svg"><g><path d="m140.509 85.962c-15.47 22.868-24.896 51.835-24.896 79.2v64.065c0 59.037 6.679 100.569 11.542 122.985 2.466 11.366 12.56 19.402 24.191 19.402h104.654l49.548-305.548z" fill="#7a4646"/><path d="m371.491 85.962c15.47 22.868 24.896 51.835 24.896 79.2v64.065c0 59.037-6.679 100.569-11.542 122.985-2.466 11.366-12.56 19.402-24.191 19.402h-104.654l-24.774-231.226 57.806-74.323z" fill="#a46a5a"/><path d="m316.568 392.018c-6.603-2.331-11.019-8.572-11.019-15.574v-23.465l-86.495 1.66-8.253 35.62-25.196 16.941 3.041 62.552 120.76-7.385 11.205-68.922z" fill="#e29a6c"/><path d="m256 454.194c-19.662 0-38.464-3.636-55.796-10.252l31.022 68.058h49.548l34.534-69.448c-18.292 7.496-38.311 11.642-59.308 11.642z" fill="#ff5f7a"/><path d="m206.452 313.806v62.637c0 7.003-4.416 13.244-11.019 15.574l-4.043 1.427-.554 17.713 10.093-3.562c13.208-4.662 22.04-17.146 22.04-31.152v-.01c0-8.805 7.79-15.497 16.508-14.259 5.398.767 10.909 1.18 16.524 1.18 17.629 0 34.367-3.738 49.548-10.376v-39.172z" fill="#d48c64"/><path d="m375.742 206.452c-29.417 0-47.332-55.677-53.524-78.89-.855-3.204-4.512-4.6-7.327-2.847-7.514 4.677-16.345 7.414-25.858 7.414l-30.008 3.633c-57.806 0-96.003 40.79-98.722 98.532-2.903 61.65 34.609 110.463 95.62 110.463 5.645 0 16.666.806 16.666.806 48.72-7.569 86.534-47.939 90.341-97.821h11.633c10.8 0 20.641-7.771 21.717-18.517 1.237-12.358-8.434-22.773-20.538-22.773z" fill="#f4aa73"/><path d="m181.677 239.484v-8.258c0-45.608 36.973-82.581 82.581-82.581h8.258c9.122 0 16.516-7.395 16.516-16.516h-30.008c-57.806 0-107.546 44.423-110.265 102.165-2.903 61.65 46.221 112.545 107.232 112.545 5.65 0 11.184-.434 16.596-1.276-51.451-7.944-90.91-52.404-90.91-106.079z" fill="#e29a6c"/><path d="m323.306 460.63-9.5 51.37h107.355c13.682 0 24.774-11.092 24.774-24.774v-14.492c0-21.008-13.247-39.732-33.057-46.723l-40.56-14.316z" fill="#eceaec"/><path d="m176.266 407.634-76.235 22.805c-19.81 6.991-29.321 20.694-29.321 41.701l11.873 38.45c2.583.913 5.362 1.409 8.257 1.409h107.355z" fill="#eceaec"/><path d="m206.452 231.944c-4.565 0-8.258-3.698-8.258-8.258v-8.258c0-4.56 3.694-8.258 8.258-8.258s8.258 3.698 8.258 8.258v8.258c0 4.56-3.694 8.258-8.258 8.258z" fill="#4e3d4d"/><path d="m305.548 231.944c-4.565 0-8.258-3.698-8.258-8.258v-8.258c0-4.56 3.694-8.258 8.258-8.258 4.565 0 8.258 3.698 8.258 8.258v8.258c0 4.56-3.693 8.258-8.258 8.258z" fill="#4e3d4d"/><path d="m256 289.75c-12.387 0-23.823-3.976-30.573-10.637-3.25-3.202-3.282-8.431-.081-11.677 3.202-3.25 8.444-3.282 11.677-.081 2.75 2.714 9.371 5.879 18.976 5.879s16.226-3.165 18.976-5.879c3.234-3.202 8.476-3.169 11.677.081 3.202 3.246 3.169 8.476-.081 11.677-6.748 6.661-18.184 10.637-30.571 10.637z" fill="#d48c64"/><path d="m214.71 198.194h-16.516c-4.565 0-8.258-3.698-8.258-8.258s3.694-8.258 8.258-8.258h16.516c4.565 0 8.258 3.698 8.258 8.258s-3.694 8.258-8.258 8.258z" fill="#7a4646"/><path d="m313.806 198.194h-16.516c-4.565 0-8.258-3.698-8.258-8.258s3.694-8.258 8.258-8.258h16.516c4.565 0 8.258 3.698 8.258 8.258s-3.693 8.258-8.258 8.258z" fill="#7a4646"/><path d="m396.813 47.82c-38.995-29.986-87.819-47.82-140.813-47.82-32.14 0-62.746 6.56-90.556 18.412l7.89 66.038 30.884 16.255c16.021-6.366 33.493-9.866 51.783-9.866 31.19 0 59.998 10.179 83.299 27.388 3.526 2.604 8.427 2.163 11.222-1.214l26.519-32.044.565-10.619 9.96-2.098 10.465-12.645c2.955-3.573 2.458-8.961-1.218-11.787z" fill="#eceaec"/><g fill="#dbd8db"><path d="m165.444 18.412c-18.039 7.69-34.916 17.611-50.257 29.408-3.675 2.826-4.172 8.214-1.216 11.786l10.465 12.645 11.432 1.881-.907 10.836 26.519 32.043c2.794 3.377 7.696 3.818 11.221 1.214 9.635-7.115 20.219-13.032 31.517-17.522z"/><path d="m372.318 411.695-51.707-18.25-39.837 118.555h33.032z"/><path d="m231.226 512-39.837-118.555-92.267 32.565c-19.81 6.991-33.057 25.716-33.057 46.723v14.492c0 10.771 6.916 19.956 16.516 23.369v-37.854c0-14.006 8.833-26.49 22.04-31.152l43.535-15.366 50.038 85.778z"/></g><path d="m256 24.774c-28.336 0-55.354 5.74-79.957 16.117l-1.924 7.918 8.966 7.037c22.461-9.374 47.094-14.556 72.915-14.556 45.959 0 88.152 16.414 121.04 43.679l10.525-12.718c-35.748-29.636-81.61-47.477-131.565-47.477z" fill="#ff5f7a"/><path d="m183.085 55.847-7.042-14.956c-18.763 7.916-36.143 18.539-51.607 31.36l3.942 4.763 6.583 7.955c14.404-11.942 30.613-21.81 48.124-29.122z" fill="#fb4455"/></g></svg>