<svg id="Capa_1" enable-background="new 0 0 512 512" height="512" viewBox="0 0 512 512" width="512" xmlns="http://www.w3.org/2000/svg"><g><path d="m312.889 512h-113.778l-8.127-146.286h130.032z" fill="#615260"/><path d="m193.802 416.439c16.882 13.997 38.554 22.419 62.198 22.419s45.315-8.422 62.198-22.419l2.818-50.724h-130.032z" fill="#736572"/><path d="m182.857 292.571v40.635l32.508 60.825c11.622 7.78 25.599 12.318 40.635 12.318 40.396 0 73.143-32.747 73.143-73.143v-40.635z" fill="#d48c64"/><path d="m182.857 333.206c0 25.356 12.91 47.703 32.508 60.825v-38.674c0-10.304 9.411-17.733 19.552-15.911 6.843 1.23 13.882 1.886 21.083 1.886 27.483 0 52.754-9.204 73.143-24.547v-24.215h-146.286z" fill="#c6805d"/><path d="m337.27 373.841 78.413 22.407c20.933 5.982 35.364 25.115 35.364 46.885v44.486c0 13.465-10.916 24.381-24.381 24.381h-81.27z" fill="#ffd05b"/><path d="m395.63 352.163c7.616 6.981 6.871 19.202-1.535 25.208l-29.19 20.851 15.081 29.005c3.775 7.261 3.655 15.933-.319 23.087l-34.27 61.686h-32.508v-235.683z" fill="#ffe077"/><path d="m107.375 396.248c-20.933 5.981-35.364 25.115-35.364 46.885v44.486l5.197 22.994c2.542.898 5.277 1.387 8.126 1.387h81.27l8.127-138.159z" fill="#ffd05b"/><path d="m60.952 443.133v44.486c0 10.6 6.806 19.638 16.254 22.997v-67.481c0-14.436 9.698-27.29 23.579-31.258l72.933-20.843 1.011-17.193-78.414 22.407c-20.931 5.982-35.363 25.115-35.363 46.885z" fill="#ffc244"/><path d="m116.37 352.163c-7.616 6.981-6.871 19.202 1.535 25.208l29.19 20.851-15.081 29.005c-3.775 7.261-3.655 15.933.319 23.087l34.27 61.686h32.508v-235.683z" fill="#ffe077"/><path d="m256 16.254-127.992 106.963c-1.34 7.487-2.04 15.196-2.04 23.069 0 71.814 58.217 130.032 130.032 130.032s130.032-58.218 130.032-130.032-58.217-130.032-130.032-130.032z" fill="#ff5f7a"/><path d="m256 16.254c-63.925 0-117.085 46.177-127.992 106.963 4.585-.803 9.399-1.312 14.214-1.312h56.889z" fill="#fb4455"/><path d="m134.096 138.662c-32.072 3.999-56.889 31.358-56.889 64.513 0 35.907 29.109 65.016 65.016 65.016h113.777v-112.392z" fill="#d93f50"/><path d="m377.905 138.662-121.905 16.338v113.19h113.778c35.907 0 65.016-29.108 65.016-65.016 0-33.154-24.818-60.513-56.889-64.512z" fill="#fb4455"/><path d="m134.095 195.048h40.635l-8.127-56.889h-24.381c-2.758 0-5.458.17-8.127.503z" fill="#4e3d4d"/><path d="m377.905 195.048h-40.635l8.127-56.889h24.381c2.758 0 5.459.17 8.127.503z" fill="#615260"/><path d="m372.682 186.921h-11.032c-8.977 0-16.254-7.277-16.254-16.254v-16.254l-8.193-8.713-162.027-2.172-3.475 84.028c4.163 54.539 28.692 96.189 84.298 96.189 5.561 0 11.022.905 16.349.077 47.939-7.455 85.145-47.181 88.891-96.265h12.601c11.912 0 21.43-10.252 20.212-22.414-1.057-10.576-10.742-18.222-21.37-18.222z" fill="#e29a6c"/><path d="m182.857 219.429v-48.762c0-8.977 7.277-16.254 16.254-16.254h146.286v-16.254h-178.794v32.508c0 8.977-7.277 16.254-16.254 16.254h-11.032c-10.628 0-20.312 7.647-21.371 18.221-1.218 12.162 8.299 22.414 20.212 22.414h12.601c4.163 54.539 49.634 97.524 105.24 97.524 5.559 0 11.024-.431 16.349-1.259-50.636-7.815-89.491-51.568-89.491-104.392z" fill="#d48c64"/><path d="m207.238 211.306c-4.492 0-8.127-3.639-8.127-8.127v-8.127c0-4.488 3.635-8.127 8.127-8.127s8.127 3.639 8.127 8.127v8.127c0 4.488-3.635 8.127-8.127 8.127z" fill="#4e3d4d"/><path d="m304.762 211.306c-4.492 0-8.127-3.639-8.127-8.127v-8.127c0-4.488 3.635-8.127 8.127-8.127s8.127 3.639 8.127 8.127v8.127c0 4.488-3.635 8.127-8.127 8.127z" fill="#4e3d4d"/><path d="m256 268.194c-12.19 0-23.444-3.913-30.087-10.468-3.198-3.151-3.23-8.298-.079-11.492 3.151-3.198 8.31-3.23 11.492-.079 2.706 2.671 9.222 5.786 18.675 5.786 9.452 0 15.968-3.115 18.675-5.786 3.183-3.151 8.341-3.119 11.492.079 3.151 3.194 3.119 8.341-.079 11.492-6.645 6.556-17.899 10.468-30.089 10.468z" fill="#c6805d"/><path d="m215.365 178.798h-16.254c-4.492 0-8.127-3.639-8.127-8.127s3.635-8.127 8.127-8.127h16.254c4.492 0 8.127 3.639 8.127 8.127s-3.635 8.127-8.127 8.127z" fill="#615260"/><path d="m312.889 178.798h-16.254c-4.492 0-8.127-3.639-8.127-8.127s3.635-8.127 8.127-8.127h16.254c4.492 0 8.127 3.639 8.127 8.127s-3.635 8.127-8.127 8.127z" fill="#615260"/><path d="m288.508 0h-65.016c-13.465 0-24.381 10.916-24.381 24.381v97.524h113.778v-97.524c0-13.465-10.916-24.381-24.381-24.381z" fill="#ff7e92"/><ellipse cx="256" cy="65.016" fill="#ffd05b" rx="24.381" ry="32.508"/></g></svg>