<svg id="Capa_1" enable-background="new 0 0 512 512" height="512" viewBox="0 0 512 512" width="512" xmlns="http://www.w3.org/2000/svg"><g><path d="m280.766 0h-49.548c-22.804 0-41.29 18.486-41.29 41.29 0 22.804 18.486 41.29 41.29 41.29h49.548c22.804 0 41.29-18.486 41.29-41.29 0-22.804-18.486-41.29-41.29-41.29z" fill="#a46a5a"/><path d="m297.282 49.548h-82.581c-4.87 0-9.658.351-14.34 1.03l-42.34 176.917h238.358v-78.85c0-54.73-44.367-99.097-99.097-99.097z" fill="#845252"/><path d="m214.702 123.871c0-40.611-14.34-73.293-14.34-73.293-47.919 6.962-84.757 48.218-84.757 98.067v78.85h93.74z" fill="#7a4646"/><path d="m418.619 427.216-38.748-11.397-22.899 6.794-9.453-16.31-33.712-9.916h-115.613l-102.507 35.999c-21.087 6.203-30.407 20.384-30.407 42.364v12.476l9.05 23.364c2.583.913 5.363 1.41 8.26 1.41h49.548l30.011-15.759 44.295 15.759h99.097l35.141-20.537 39.189 20.537h49.54c13.682 0 24.774-11.092 24.774-24.774v-12.476c.001-21.979-14.48-41.332-35.566-47.534z" fill="#ffeac6"/><path d="m379.871 415.817v96.183h-74.331l41.979-105.699z" fill="#ff7e92"/><path d="m305.548 437.677v-84.698l-90.839-1.389v86.087z" fill="#e29a6c"/><path d="m206.452 313.806v123.871h16.516v-61.244c0-8.805 7.79-15.497 16.508-14.259 5.398.767 10.909 1.18 16.524 1.18 17.629 0 34.367-3.738 49.548-10.376v-39.172z" fill="#d48c64"/><path d="m374.556 206.452h-2.756c-9.243 0-17.802-5.111-21.941-13.376-23.143-46.222-87.714-62.047-118.466-67.064l-13.345 3.308c-20.731 62.192-54.883 79.288-66.76 82.832l9.122 35.59c4.23 55.419 39.079 97.169 95.581 97.169 5.682 0 11.26 1.486 16.702.635 48.669-7.611 86.431-47.958 90.235-97.804h12.804c12.105 0 21.776-10.417 20.538-22.775-1.074-10.745-10.915-18.515-21.714-18.515z" fill="#f4aa73"/><path d="m181.669 239.484v-24.885c0-6.939 2.988-13.45 8.02-18.228 14.686-13.945 29.966-35.135 40.682-67.275l1.023-3.086-.176-.027c-10.101-1.641-16.516-2.113-16.516-2.113-8.947 26.84-21.124 45.032-33.032 57.363-15.684 16.241-30.902 22.291-37.654 24.306-2.071.617-4.212.893-6.372.91-8.873.07-17.52 4.502-20.6 12.824-5.43 14.672 5.276 28.467 19.206 28.467h12.804c4.23 55.419 50.435 99.097 106.938 99.097 5.649 0 11.291-.452 16.702-1.293-51.453-7.939-91.025-52.383-91.025-106.06z" fill="#e29a6c"/><path d="m206.452 231.944c-4.565 0-8.258-3.698-8.258-8.258v-8.258c0-4.56 3.694-8.258 8.258-8.258s8.258 3.698 8.258 8.258v8.258c0 4.56-3.694 8.258-8.258 8.258z" fill="#4e3d4d"/><path d="m305.548 231.944c-4.565 0-8.258-3.698-8.258-8.258v-8.258c0-4.56 3.694-8.258 8.258-8.258 4.565 0 8.258 3.698 8.258 8.258v8.258c0 4.56-3.693 8.258-8.258 8.258z" fill="#4e3d4d"/><path d="m214.71 198.194h-16.516c-4.565 0-8.258-3.698-8.258-8.258s3.694-8.258 8.258-8.258h16.516c4.565 0 8.258 3.698 8.258 8.258s-3.694 8.258-8.258 8.258z" fill="#7a4646"/><path d="m313.806 198.194h-16.516c-4.565 0-8.258-3.698-8.258-8.258s3.694-8.258 8.258-8.258h16.516c4.565 0 8.258 3.698 8.258 8.258s-3.693 8.258-8.258 8.258z" fill="#7a4646"/><path d="m230.797 262.037c-6.086 0-10.086 6.361-7.488 11.865 5.311 11.251 17.947 19.166 32.691 19.166s27.38-7.915 32.691-19.166c2.598-5.504-1.401-11.865-7.488-11.865z" fill="#fff"/><path d="m256.008 421.161-59.458-44.594c-3.648-2.736-8.824-1.997-11.561 1.652l-15.113 20.15c-1.506 2.008-1.959 4.489-1.445 6.772l-3.942 1.16-15.589 15.66-16.762-6.145-38.756 11.399c-21.086 6.202-35.567 25.554-35.567 47.534v12.476c0 10.771 6.916 19.948 16.516 23.361v-35.836c0-14.548 9.75-27.581 23.71-31.685l83.689-24.617 32.98 27.488z" fill="#fcdbb2"/><path d="m327.019 378.219 15.113 20.15c2.638 3.517 2.058 8.484-1.319 11.298l-43.514 36.268-41.299-24.774 59.458-44.594c3.649-2.736 8.825-1.996 11.561 1.652z" fill="#fcdbb2"/><path d="m264.258 454.194h-16.516c-4.561 0-8.258-3.697-8.258-8.258v-16.516c0-4.561 3.697-8.258 8.258-8.258h16.516c4.561 0 8.258 3.697 8.258 8.258v16.516c0 4.56-3.697 8.258-8.258 8.258z" fill="#4e3d4d"/><path d="m201.887 410.62c-5.491-2.745-11.951 1.247-11.951 7.387v39.341c0 6.139 6.46 10.132 11.951 7.386l37.597-18.798v-16.516z" fill="#615260"/><path d="m310.113 410.62-37.597 18.799v16.516l37.597 18.798c5.491 2.745 11.951-1.247 11.951-7.386v-39.341c.001-6.138-6.46-10.131-11.951-7.386z" fill="#615260"/><path d="m132.137 433.035v78.965h74.307l-35.554-90.364-24.597-.761z" fill="#ff7e92"/><path d="m170.89 421.636-6.401-15.335-32.352 9.516v17.218z" fill="#ff5f7a"/></g></svg>