<svg id="Capa_1" enable-background="new 0 0 512 512" height="512" viewBox="0 0 512 512" width="512" xmlns="http://www.w3.org/2000/svg"><g><path d="m360.665 433.263-11.935-77.753-34.416-10.122h-116.628l-52.912 29.233 44.664 137.379h133.124z" fill="#dbd8db"/><path d="m153.971 375.598 40.961-12.047-2.766-16.539-28.896 8.499z" fill="#c9c5c9"/><path d="m166.038 372.065-71.654 9.94c-21.272 6.256-29.104 20.262-29.104 42.436v62.567l7.446 23.572c2.605.921 5.41 1.42 8.331 1.42h108.381z" fill="#9e959e"/><path d="m348.73 355.511 71.324 20.978c21.272 6.256 35.88 25.779 35.88 47.953v62.567c0 13.803-11.189 24.992-24.992 24.992h-108.38z" fill="#9e959e"/><path d="m314.314 362.049h-104.382v-65.618l104.382 9.485z" fill="#ffd18d"/><path d="m197.686 378.711h16.661v-43.939c0-10.562 9.646-18.177 20.042-16.309 7.014 1.26 14.23 1.934 21.611 1.934 21.074 0 40.898-5.268 58.314-14.48v-35.503h-116.628z" fill="#fbbd80"/><path d="m163.55 62.148h9.144v99.967l-38.876 16.661-11.355-68.128c-4.231-25.388 15.348-48.5 41.087-48.5z" fill="#ff8b57"/><path d="m348.45 62.148h-9.144v99.967l38.876 16.661 11.355-68.128c4.231-25.388-15.348-48.5-41.087-48.5z" fill="#ffaa5a"/><path d="m375.606 162.115h-11.308c-9.202 0-16.661-7.459-16.661-16.661v-66.645h-174.628v66.645c0 9.202-13.683 58.314-13.683 58.314 4.267 55.906 39.675 98.799 96.674 98.799 5.711 0 11.318.726 16.789-.126 49.126-7.654 87.249-48.369 91.088-98.672h12.917c12.211 0 21.967-10.509 20.719-22.975-1.086-10.841-11.013-18.679-21.907-18.679z" fill="#ffe09c"/><path d="m355.967 162.115v24.992c0 33.925-25.482 62.013-58.311 66.126l-6.385 8.447 6.383 8.32c42.036-4.193 74.975-39.768 74.975-82.893v-24.992z" fill="#c9c5c9"/><path d="m322.645 87.14h-144.857c-9.202 0-13.424 7.459-13.424 16.661v41.653c0 9.202-7.459 16.661-16.661 16.661h-11.308c-10.894 0-20.821 7.838-21.906 18.678-1.248 12.466 8.507 22.975 20.719 22.975h12.917c4.267 55.906 50.878 99.967 107.877 99.967 5.698 0 11.33-.446 16.789-1.295-51.906-8.01-91.764-52.855-91.764-107.003v-74.975c0-9.202 7.459-16.661 16.661-16.661h108.298c9.199 0 16.659-7.46 16.659-16.661z" fill="#ffd18d"/><path d="m370.072 12.117-13.736-3.936c-8.668 4.846-24.812 11.111-50.353 11.111h-74.975c-36.807 0-62.778 22.711-62.778 59.518l12.794 8.331h141.62c30.017-.001 60.032-27.038 47.428-75.024z" fill="#ffaa5a"/><g fill="#ff8b57"><path d="m231.008 28.826h74.975c34.38 0 54.738-10.284 64.088-16.709-.552-2.111-1.162-4.165-1.882-6.356-1.617-4.922-7.293-7.26-11.814-4.729-8.659 4.849-24.813 11.133-50.392 11.133h-74.975c-36.807 0-66.645 29.838-66.645 66.645v24.992c0-9.202 7.459-16.661 16.661-16.661v-8.331c.001-27.606 22.379-49.984 49.984-49.984z"/><path d="m222.678 137.123h-24.992c-4.605 0-8.331-3.73-8.331-8.331s3.726-8.331 8.331-8.331h24.992c4.605 0 8.331 3.73 8.331 8.331s-3.727 8.331-8.331 8.331z"/><path d="m314.314 137.123h-24.992c-4.605 0-8.331-3.73-8.331-8.331s3.726-8.331 8.331-8.331h24.992c4.605 0 8.331 3.73 8.331 8.331s-3.726 8.331-8.331 8.331z"/></g><path d="m181.025 170.446h-41.653c-4.605 0-8.331-3.73-8.331-8.331s3.726-8.331 8.331-8.331h41.653c4.605 0 8.331 3.73 8.331 8.331s-3.727 8.331-8.331 8.331z" fill="#887f88"/><path d="m372.628 170.446h-41.653c-4.605 0-8.331-3.73-8.331-8.331s3.726-8.331 8.331-8.331h41.653c4.605 0 8.331 3.73 8.331 8.331s-3.726 8.331-8.331 8.331z" fill="#887f88"/><path d="m272.661 187.107c-4.605 0-8.331-3.73-8.331-8.331 0-4.592-3.734-8.331-8.331-8.331s-8.331 3.738-8.331 8.331c0 4.601-3.726 8.331-8.331 8.331s-8.331-3.73-8.331-8.331c0-13.781 11.21-24.992 24.992-24.992s24.992 11.211 24.992 24.992c.002 4.601-3.724 8.331-8.329 8.331z" fill="#887f88"/><path d="m256 245.421c-12.496 0-24.032-4.011-30.841-10.731-3.279-3.23-3.311-8.505-.081-11.78 3.23-3.274 8.518-3.311 11.78-.081 2.774 2.738 9.453 5.931 19.142 5.931s16.368-3.193 19.142-5.931c3.262-3.23 8.55-3.193 11.78.081s3.197 8.55-.081 11.78c-6.809 6.72-18.345 10.731-30.841 10.731z" fill="#fbbd80"/><path d="m247.669 362.049v58.314c0 4.601 3.726 8.331 8.331 8.331s8.331-3.73 8.331-8.331v-58.314z" fill="#c9c5c9"/><path d="m256 362.049-67.37-37.428c-4.146-2.303-9.376-.685-11.497 3.557l-9.861 19.723c-1.71 3.419-.873 7.563 2.03 10.051l40.29 34.534c7.154 6.132 17.967 5.116 23.853-2.242z" fill="#eceaec"/><path d="m256 362.049 67.37-37.428c4.146-2.303 9.376-.685 11.497 3.557l9.861 19.723c1.71 3.419.873 7.563-2.03 10.051l-40.29 34.534c-7.154 6.132-17.967 5.116-23.853-2.242z" fill="#eceaec"/><circle cx="256" cy="470.347" fill="#c9c5c9" r="8.331"/><path d="m163.27 355.511-71.324 20.978c-21.272 6.256-35.88 25.779-35.88 47.953v62.567c0 10.866 6.977 20.129 16.661 23.572v-86.141c0-14.676 9.836-27.823 23.918-31.964l69.393-20.41z" fill="#887f88"/><g fill="#615260"><path d="m239.339 145.454h-58.314c-4.605 0-8.331 3.73-8.331 8.331v24.992c0 13.781 11.21 24.992 24.992 24.992h24.992c13.781 0 24.992-11.21 24.992-24.992v-24.992c-.001-4.601-3.727-8.331-8.331-8.331zm-8.331 33.322c0 4.592-3.734 8.331-8.331 8.331h-24.992c-4.596 0-8.331-3.738-8.331-8.331v-16.661h12.496v8.331c0 4.6 3.726 8.331 8.331 8.331s8.331-3.73 8.331-8.331v-8.331h12.496z"/><path d="m330.975 145.454h-58.314c-4.604 0-8.331 3.73-8.331 8.331v24.992c0 13.781 11.21 24.992 24.992 24.992h24.992c13.781 0 24.992-11.21 24.992-24.992v-24.992c0-4.601-3.726-8.331-8.331-8.331zm-8.33 33.322c0 4.592-3.734 8.331-8.331 8.331h-24.992c-4.596 0-8.331-3.738-8.331-8.331v-16.661h12.496v8.331c0 4.6 3.726 8.331 8.331 8.331 4.604 0 8.331-3.73 8.331-8.331v-8.331h12.496z"/></g><path d="m297.653 253.233c-2.736.343-5.504.518-8.331.518h-8.331c-4.605 0-8.331 3.73-8.331 8.331s3.726 8.331 8.331 8.331h8.331c2.812 0 5.589-.14 8.331-.413z" fill="#615260"/></g></svg>