<svg id="Capa_1" enable-background="new 0 0 512 512" height="512" viewBox="0 0 512 512" width="512" xmlns="http://www.w3.org/2000/svg"><g><path d="m256 132.129h-124.006v99.097c-1.115 33.244-8.919 50.039-15.449 58.344-5.238 6.662-4.295 16.233 1.893 22.024 8.234 7.706 21.056 14.823 38.465 10.471 0 0 6.775 30.431 24.774 41.29h74.323z" fill="#4e3d4d"/><path d="m256 132.129h124.006v99.097c1.115 33.244 8.919 50.039 15.449 58.344 5.238 6.662 4.295 16.233-1.893 22.024-8.234 7.706-21.056 14.823-38.465 10.471 0 0-6.775 30.431-24.774 41.29h-74.323z" fill="#615260"/><path d="m412.878 401.236-65.716-23.194-132.453-14.687-107.33 37.881c-19.81 6.992-33.058 25.716-33.058 46.723v39.267l8.258 23.364c2.583.913 5.363 1.41 8.259 1.41h8.258l33.187-9.238 32.878 9.238h24.382l66.868-26.831 65.655 26.831h24.773l35.979-9.673 30.085 9.673h8.258c13.682 0 24.774-11.092 24.774-24.774v-39.267c.001-21.007-13.247-39.731-33.057-46.723z" fill="#1badde"/><path d="m148.645 503.742c-4.565 0-8.258-3.694-8.258-8.258v-24.774c0-4.565 3.694-8.258 8.258-8.258s8.258 3.694 8.258 8.258v24.774c0 4.564-3.693 8.258-8.258 8.258z" fill="#fff"/><path d="m115.613 503.742c-4.565 0-8.258-3.694-8.258-8.258v-41.29c0-4.565 3.694-8.258 8.258-8.258 4.565 0 8.258 3.694 8.258 8.258v41.29c0 4.564-3.694 8.258-8.258 8.258z" fill="#ffc263"/><path d="m66.064 447.959v39.267c0 10.771 6.916 19.95 16.516 23.363v-62.629c0-13.98 8.855-26.496 22.04-31.149l107.331-37.883-5.5-15.573-107.33 37.881c-19.809 6.991-33.057 25.716-33.057 46.723z" fill="#008cca"/><path d="m200.394 365.493-35.589 12.56 24.738 133.947h132.523l25.096-133.958-20.094-7.092z" fill="#dbd8db"/><path d="m305.548 388.129-49.548 5.111-43.246-5.111v-58.362l92.794 6.696z" fill="#e29a6c"/><path d="m256 346.839c17.629 0 34.367-3.738 49.548-10.376v-47.43h-99.097v115.613h16.516v-52.02c0-5.134 4.639-9.079 9.677-8.09 7.562 1.484 15.358 2.303 23.356 2.303z" fill="#d48c64"/><path d="m374.564 189.935h-2.951c-13.682 0-24.774-11.092-24.774-24.774v-8.258l-29.18-33.032h-145.086v41.29c0 13.682-7.548 66.065-7.548 66.065 4.23 55.419 34.471 98.052 90.974 98.052 5.688 0 16.718-.251 16.718-.251 48.662-7.617 86.416-47.961 90.22-97.802h12.804c12.105 0 21.776-10.417 20.538-22.775-1.075-10.745-10.916-18.515-21.715-18.515z" fill="#f4aa73"/><path d="m181.677 222.968v-49.548c0-9.122 7.395-16.516 16.516-16.516h148.645v-33.032h-181.677v41.29c0 13.682-11.092 24.774-24.774 24.774h-2.952c-10.799 0-20.64 7.77-21.716 18.515-1.238 12.358 8.433 22.775 20.538 22.775h12.804c4.23 55.419 50.435 99.097 106.938 99.097 5.649 0 11.306-.454 16.718-1.295-51.453-7.941-91.04-52.383-91.04-106.06z" fill="#e29a6c"/><path d="m256 272.516c-12.387 0-23.823-3.976-30.573-10.637-3.25-3.202-3.282-8.431-.081-11.677 3.202-3.25 8.444-3.282 11.677-.081 2.75 2.714 9.371 5.879 18.976 5.879s16.226-3.165 18.976-5.879c3.234-3.202 8.476-3.169 11.677.081 3.202 3.246 3.169 8.476-.081 11.677-6.748 6.661-18.184 10.637-30.571 10.637z" fill="#d48c64"/><path d="m247.742 384.969v77.482c0 4.56 3.694 8.258 8.258 8.258s8.258-3.698 8.258-8.258v-77.482z" fill="#c9c5c9"/><path d="m177.821 351.406c2.102-4.205 7.287-5.809 11.397-3.526l66.782 37.102-50.219 43.045c-3.936 3.374-9.972 2.329-12.544-2.173l-28.075-49.131z" fill="#eceaec"/><path d="m334.18 351.406c-2.102-4.205-7.287-5.809-11.397-3.526l-66.783 37.102 50.219 43.045c3.936 3.374 9.972 2.329 12.544-2.173l28.075-49.131z" fill="#eceaec"/><path d="m206.452 215.427c-4.565 0-8.258-3.694-8.258-8.258v-8.258c0-4.565 3.694-8.258 8.258-8.258s8.258 3.694 8.258 8.258v8.258c0 4.565-3.694 8.258-8.258 8.258z" fill="#615260"/><path d="m305.548 215.427c-4.565 0-8.258-3.694-8.258-8.258v-8.258c0-4.565 3.694-8.258 8.258-8.258 4.565 0 8.258 3.694 8.258 8.258v8.258c0 4.565-3.693 8.258-8.258 8.258z" fill="#615260"/><path d="m214.71 181.677h-16.516c-4.565 0-8.258-3.694-8.258-8.258s3.694-8.258 8.258-8.258h16.516c4.565 0 8.258 3.694 8.258 8.258s-3.694 8.258-8.258 8.258z" fill="#4e3d4d"/><path d="m313.806 181.677h-16.516c-4.565 0-8.258-3.694-8.258-8.258s3.694-8.258 8.258-8.258h16.516c4.565 0 8.258 3.694 8.258 8.258s-3.693 8.258-8.258 8.258z" fill="#4e3d4d"/><path d="m156.903 495.484h-49.548c-4.561 0-8.258 3.697-8.258 8.258v8.258h66.065v-8.258c-.001-4.561-3.698-8.258-8.259-8.258z" fill="#008cca"/><path d="m404.645 495.484h-49.548c-4.561 0-8.258 3.697-8.258 8.258v8.258h66.065v-8.258c-.001-4.561-3.698-8.258-8.259-8.258z" fill="#008cca"/><path d="m355.099 50.22v-17.191c-.002-9.121-7.396-16.513-16.517-16.513l-16.518 9.096c-12.583-5.783-26.535-9.096-41.29-9.096h-8.258v-8.258c0-4.561-3.697-8.258-8.258-8.258h-8.258l-16.516 16.516h-8.258c-14.756 0-28.708 3.313-41.29 9.096v-.838c0-4.561-3.697-8.258-8.258-8.258h-8.26l-22.89 98.228 45.502 17.384h183.84v-16.516c.001-25.089-9.398-47.934-24.771-65.392z" fill="#ffc263"/><g fill="#ffaa5a"><path d="m189.935 25.612v15.678c0 4.56-3.697 8.258-8.258 8.258s-8.258-3.698-8.258-8.258v-24.774h-.002c-9.12 0-16.515 7.393-16.516 16.514l-.001 17.191c-15.372 17.458-24.772 40.302-24.772 65.392v16.516h82.581v-114.063c-8.674 1.489-17.008 3.977-24.774 7.546z"/><path d="m247.742 41.29c-4.561 0-8.258-3.697-8.258-8.258v-24.774c0-4.561 3.697-8.258 8.258-8.258h8.258v33.032c0 4.561-3.697 8.258-8.258 8.258z"/><path d="m330.323 49.548c-4.561 0-8.258-3.697-8.258-8.258v-16.516c0-4.561 3.697-8.258 8.258-8.258h8.258v24.774c0 4.561-3.698 8.258-8.258 8.258z"/></g><path d="m256.013 107.355c-53.648 0-102.205 9.021-137.39 23.602-4.933 2.044-3.382 9.43 1.957 9.43h135.433 135.433c5.34 0 6.89-7.386 1.957-9.43-35.185-14.581-83.742-23.602-137.39-23.602z" fill="#ff8b57"/></g></svg>