<svg id="Capa_1" enable-background="new 0 0 512 512" height="512" viewBox="0 0 512 512" width="512" xmlns="http://www.w3.org/2000/svg"><g><path d="m419.396 410.227-122.275-38.614h-82.242l-122.275 42.856c-20.614 6.509-27.76 25.631-27.76 47.249v25.508l9.647 23.364c2.583.913 5.363 1.41 8.259 1.41h107.355l66.304-22.698 65.743 22.698h107.098c13.682 0 24.774-11.092 24.774-24.774v-29.75c0-21.618-14.014-40.74-34.628-47.249z" fill="#615260"/><path d="m57.976 457.475v29.751c0 10.771 6.916 19.951 16.516 23.364v-53.114c0-14.48 9.282-27.137 23.089-31.5l122.274-38.613-4.976-15.75-122.275 38.613c-20.614 6.51-34.628 25.632-34.628 47.249z" fill="#4e3d4d"/><path d="m165.249 388.129 24.856 123.871h41.29l26.317-15.748 23.231 15.748h41.209l24.856-123.871-90.921 8.258z" fill="#dbd8db"/><path d="m267.331 437.149-22.263.011-13.673 74.84h49.548z" fill="#615260"/><path d="m223.137 396.387 12.752 38.255c2.248 6.744 8.559 11.293 15.668 11.293h9.224c7.109 0 13.42-4.549 15.668-11.293l12.752-38.255z" fill="#4e3d4d"/><path d="m417.732 84.016c-21.862-42.585-71.891-74.414-132.631-82.186 0 0-19.074-.944-28.932-.944-40.593 0-114.741 33.948-139.99 83.129-11.279 21.969 4.766 48.113 29.461 48.113h242.631c24.696.001 40.741-26.143 29.461-48.112z" fill="#eceaec"/><path d="m152.335 84.016c21.868-42.596 72.005-74.424 132.766-82.186-9.394-1.2-19.09-1.83-28.932-1.83-73.496 0-136.314 34.834-161.563 84.016-11.279 21.969 4.766 48.113 29.461 48.113h57.728c-24.695 0-40.74-26.144-29.46-48.113z" fill="#dbd8db"/><path d="m210.473 348.997h103.503v47.39h-103.503z" fill="#ffd18d"/><path d="m198.363 404.645h16.516v-27.04c0-10.47 9.562-18.019 19.867-16.167 6.953 1.249 14.106 1.917 21.423 1.917 20.89 0 40.542-5.222 57.806-14.354v-43.452h-115.612z" fill="#fbbd80"/><path d="m132.299 148.645h49.548v66.065h-49.548z" fill="#845252"/><path d="m330.492 148.645h49.548v66.065h-49.548z" fill="#a46a5a"/><path d="m396.449 224.967c-1.076-10.745-10.917-18.515-21.716-18.515h-11.21c-7.79 0-14.32-5.393-16.061-12.648l-166.202-28.556-14.769 64.29c4.23 55.418 33.176 116.253 89.678 116.253 5.607 0 16.485-.211 16.485-.211 48.774-7.525 86.642-47.918 90.452-97.837h12.804c12.106-.001 21.777-10.418 20.539-22.776z" fill="#ffe09c"/><path d="m181.847 239.484v-21.114c0-10.276 9.248-17.897 19.391-16.25 17.616 2.86 36.395 4.331 54.932 4.331 32.091 0 65.211-4.12 91.294-12.648-.299-1.243-.455-2.533-.455-3.868v-41.29h-181.678v41.29c0 9.122-7.395 16.516-16.516 16.516h-11.21c-10.799 0-20.64 7.77-21.716 18.515-1.238 12.358 8.433 22.775 20.538 22.775h12.804c4.23 55.419 50.435 99.097 106.938 99.097 5.649 0 11.074-.418 16.486-1.259-51.454-7.94-90.808-52.418-90.808-106.095z" fill="#ffd18d"/><path d="m189.304 359.285c-4.11-2.283-9.294-.679-11.397 3.526l-12.659 25.318 28.075 49.131c2.572 4.501 8.608 5.547 12.544 2.173l50.22-43.045z" fill="#eceaec"/><path d="m334.267 362.811c-2.102-4.205-7.287-5.809-11.397-3.526l-66.783 37.102 50.219 43.045c3.936 3.374 9.972 2.329 12.544-2.173l28.075-49.131z" fill="#eceaec"/><path d="m206.621 231.226c-4.565 0-8.258-3.698-8.258-8.258v-8.258c0-4.56 3.694-8.258 8.258-8.258 4.565 0 8.258 3.698 8.258 8.258v8.258c0 4.56-3.693 8.258-8.258 8.258z" fill="#845252"/><path d="m305.718 231.226c-4.565 0-8.258-3.698-8.258-8.258v-8.258c0-4.56 3.694-8.258 8.258-8.258s8.258 3.698 8.258 8.258v8.258c0 4.56-3.694 8.258-8.258 8.258z" fill="#845252"/><path d="m272.685 289.032h-33.032c-4.565 0-8.258-3.698-8.258-8.258s3.694-8.258 8.258-8.258h33.032c4.565 0 8.258 3.698 8.258 8.258s-3.693 8.258-8.258 8.258z" fill="#fbbd80"/><path d="m165.269 380.275c-1.287-4.375-5.877-6.879-10.252-5.592l-27.392 8.057-6.419 7.467-9.421-2.808-15.161 4.459c-4.375 1.287-6.879 5.877-5.592 10.252l4.662 15.849c1.287 4.375 5.877 6.879 10.252 5.592l15.163-4.46 6.939-8.849 8.9 4.19 27.391-8.056c4.376-1.287 6.879-5.877 5.592-10.253z" fill="#736572"/><path d="m363.524 99.097h-32.466c-5.355 0-10.595-2.447-13.465-6.967-9.696-15.269-33.541-26.066-61.423-26.066s-51.728 10.797-61.423 26.066c-2.87 4.52-8.11 6.967-13.465 6.967h-15.95c-9.121 0-16.516 7.394-16.516 16.516v33.032l16.516 16.516h173.418l41.29-16.516v-33.032c0-9.122-7.394-16.516-16.516-16.516z" fill="#736572"/><path d="m280.944 99.097h-16.516c0-4.56-3.694-8.258-8.258-8.258-4.565 0-8.258 3.698-8.258 8.258h-16.516c-4.565 0-8.258 3.698-8.258 8.258s3.694 8.258 8.258 8.258h16.516c0 4.56 3.694 8.258 8.258 8.258 4.565 0 8.258-3.698 8.258-8.258h16.516c4.565 0 8.258-3.698 8.258-8.258 0-4.561-3.694-8.258-8.258-8.258z" fill="#ffe077"/><path d="m116.111 384.398h16.51v33.036h-16.51z" fill="#ffe077" transform="matrix(.959 -.282 .282 .959 -108.075 51.386)"/><path d="m347.695 380.275c1.287-4.375 5.877-6.879 10.252-5.592l27.392 8.057 6.599 9.476 9.24-4.817 15.161 4.459c4.375 1.287 6.879 5.877 5.592 10.252l-4.662 15.849c-1.287 4.375-5.877 6.879-10.252 5.592l-15.163-4.46-4.912-11.021-10.927 6.362-27.391-8.056c-4.376-1.287-6.879-5.877-5.592-10.253z" fill="#736572"/><path d="m372.079 392.661h33.036v16.51h-33.036z" fill="#ffe077" transform="matrix(.282 -.959 .959 .282 -105.679 660.592)"/><path d="m148.815 99.097h16.516v61.807l-33.032-12.259v-33.032c-.001-9.122 7.394-16.516 16.516-16.516z" fill="#615260"/><path d="m132.298 148.645c0 22.804 55.459 41.29 123.871 41.29s123.871-18.486 123.871-41.29z" fill="#4e3d4d"/></g></svg>