<svg id="Capa_1" enable-background="new 0 0 512 512" height="512" viewBox="0 0 512 512" width="512" xmlns="http://www.w3.org/2000/svg"><g><path d="m419.217 385.625-39.348-12.107-15.462 11.476-17.568-21.639h-166.016l-79.702 22.27c-20.79 6.397-34.977 25.605-34.977 47.357v54.243l8.178 23.369c2.583.913 5.363 1.406 8.258 1.406h49.548l21.979-13.142h215.022l10.74 13.142h49.55c13.682 0 24.774-11.092 24.774-24.774v-54.243c.001-21.753-14.186-40.961-34.976-47.358z" fill="#736572"/><path d="m313.806 371.613h-108.222v-66.492l108.222 10.847z" fill="#f4aa73"/><path d="m198.194 371.613h16.516v-27.04c0-10.47 9.562-18.019 19.867-16.167 6.953 1.249 14.106 1.917 21.423 1.917 20.89 0 40.542-5.222 57.806-14.354v-43.452h-115.612z" fill="#e29a6c"/><path d="m132.129 123.871h41.29v57.806h-41.29z" fill="#7a4646"/><path d="m338.581 123.871h41.29v57.806h-41.29z" fill="#845252"/><path d="m374.564 173.419h-11.21c-9.122 0-16.516-7.395-16.516-16.516v-16.516l-24.838-24.774h-146.389l-6.516 41.29c0 9.122-6.95 57.806-6.95 57.806 4.23 55.419 37.353 97.47 93.855 97.47 5.65 0 11.198 1.19 16.61.348 48.714-7.575 86.521-47.941 90.327-97.818h12.804c12.105 0 21.776-10.417 20.538-22.775-1.075-10.745-10.916-18.515-21.715-18.515z" fill="#fbbd80"/><path d="m181.677 206.452v-49.548c0-9.122 7.395-16.516 16.516-16.516h148.645v-24.774h-181.677v41.29c0 9.122-7.395 16.516-16.516 16.516h-11.21c-10.799 0-20.64 7.77-21.716 18.515-1.238 12.358 8.433 22.775 20.538 22.775h12.804c4.23 55.419 50.435 99.097 106.938 99.097 5.649 0 11.199-.437 16.61-1.278-51.453-7.941-90.932-52.4-90.932-106.077z" fill="#f4aa73"/><path d="m256 371.613 66.783-37.102c4.11-2.283 9.294-.679 11.397 3.526l12.659 25.318-44.834 38.429c-7.092 6.079-17.81 5.072-23.645-2.222z" fill="#615260"/><path d="m357.284 30.188-80.392-26.798c-6.781-2.26-13.836-3.39-20.892-3.39l-45.855 115.613h169.726v-54.088c0-14.218-9.099-26.841-22.587-31.337z" fill="#4bc3ef"/><path d="m256 0c-7.056 0-14.111 1.13-20.892 3.39l-80.393 26.797c-13.488 4.496-22.587 17.119-22.587 31.337v54.088h123.872z" fill="#1badde"/><path d="m206.452 198.194c-4.565 0-8.258-3.698-8.258-8.258v-8.258c0-4.56 3.694-8.258 8.258-8.258s8.258 3.698 8.258 8.258v8.258c0 4.56-3.694 8.258-8.258 8.258z" fill="#7a4646"/><path d="m305.548 198.194c-4.565 0-8.258-3.698-8.258-8.258v-8.258c0-4.56 3.694-8.258 8.258-8.258s8.258 3.698 8.258 8.258v8.258c0 4.56-3.693 8.258-8.258 8.258z" fill="#7a4646"/><path d="m256 256c-12.387 0-23.823-3.976-30.573-10.637-3.25-3.202-3.282-8.431-.081-11.677s8.444-3.282 11.677-.081c2.75 2.714 9.371 5.879 18.976 5.879s16.226-3.165 18.976-5.879c3.234-3.202 8.476-3.165 11.677.081s3.169 8.476-.081 11.677c-6.748 6.661-18.184 10.637-30.571 10.637z" fill="#e29a6c"/><path d="m214.71 165.161h-16.516c-4.565 0-8.258-3.698-8.258-8.258s3.694-8.258 8.258-8.258h16.516c4.565 0 8.258 3.698 8.258 8.258s-3.694 8.258-8.258 8.258z" fill="#845252"/><path d="m313.806 165.161h-16.516c-4.565 0-8.258-3.698-8.258-8.258s3.694-8.258 8.258-8.258h16.516c4.565 0 8.258 3.698 8.258 8.258s-3.693 8.258-8.258 8.258z" fill="#845252"/><path d="m256 90.839c-53.648 0-102.205 9.021-137.39 23.602-4.933 2.044-3.382 9.43 1.957 9.43h135.433 135.433c5.34 0 6.89-7.386 1.957-9.43-35.185-14.581-83.742-23.602-137.39-23.602z" fill="#4e3d4d"/><path d="m189.217 334.511c-4.11-2.283-9.294-.679-11.397 3.526l-12.659 25.318-16.048 14.526-16.984-4.362-39.346 12.106c-20.79 6.397-34.977 25.605-34.977 47.357v54.244c0 10.771 6.916 19.956 16.516 23.368v-77.61c0-14.597 9.371-27.282 23.298-31.569l82.459-25.273 29.915 25.642c7.092 6.079 17.81 5.072 23.646-2.222l22.36-27.949z" fill="#615260"/><path d="m150.199 376.143-18.07 14.695v121.162h247.74v-138.482l-33.03-10.163h-.002v90.84c0 9.121-7.395 16.516-16.516 16.516l-148.643-.001c-9.121 0-16.516-7.395-16.516-16.516v-73.479z" fill="#4bc3ef"/><path d="m132.129 390.839 33.032-10.124v-17.36l-33.032 10.164z" fill="#1badde"/><circle cx="256" cy="429.419" fill="#615260" r="8.258"/></g></svg>