<svg id="Capa_1" enable-background="new 0 0 512 512" height="512" viewBox="0 0 512 512" width="512" xmlns="http://www.w3.org/2000/svg"><g><path d="m313.806 346.839h-108.222v-70.506l108.222 23.119z" fill="#fbbd80"/><path d="m198.194 346.839h16.516v-18.782c0-10.47 9.562-18.019 19.867-16.167 6.953 1.249 14.106 1.917 21.423 1.917 20.89 0 40.542-5.222 57.806-14.354v-43.453h-115.612z" fill="#f4aa73"/><path d="m181.677 165.161h-49.548l.082-57.806 49.466-8.258z" fill="#a46a5a"/><path d="m379.871 165.161h-49.548v-66.064l49.63 8.258z" fill="#c6805d"/><path d="m374.564 156.903h-11.21c-9.122 0-16.516-7.395-16.516-16.516v-16.516l-168.187-10.324-7.385 26.841-11.946 57.806c4.23 55.419 40.176 97.144 96.679 97.144 5.73 0 11.355 1.503 16.84.638 48.603-7.666 86.297-47.984 90.097-97.782h12.804c12.105 0 21.776-10.417 20.538-22.775-1.074-10.746-10.915-18.516-21.714-18.516z" fill="#ffd18d"/><path d="m165.161 99.097v41.29c0 9.122-7.395 16.516-16.516 16.516h-11.208c-10.799 0-20.64 7.77-21.717 18.515-1.238 12.358 8.433 22.775 20.538 22.775h12.804c4.23 55.419 50.435 99.097 106.938 99.097 5.649 0 11.429-.473 16.84-1.314-51.454-7.941-91.163-52.364-91.163-106.04v-49.548c0-9.122 7.395-16.516 16.516-16.516h148.645v-24.775z" fill="#fbbd80"/><path d="m206.452 181.677c-4.565 0-8.258-3.698-8.258-8.258v-8.258c0-4.56 3.694-8.258 8.258-8.258s8.258 3.698 8.258 8.258v8.258c0 4.561-3.694 8.258-8.258 8.258z" fill="#615260"/><path d="m305.548 181.677c-4.565 0-8.258-3.698-8.258-8.258v-8.258c0-4.56 3.694-8.258 8.258-8.258 4.565 0 8.258 3.698 8.258 8.258v8.258c0 4.561-3.693 8.258-8.258 8.258z" fill="#615260"/><path d="m214.71 148.645h-16.516c-4.565 0-8.258-3.698-8.258-8.258s3.694-8.258 8.258-8.258h16.516c4.565 0 8.258 3.698 8.258 8.258s-3.694 8.258-8.258 8.258z" fill="#c9c5c9"/><path d="m313.806 148.645h-16.516c-4.565 0-8.258-3.698-8.258-8.258s3.694-8.258 8.258-8.258h16.516c4.565 0 8.258 3.698 8.258 8.258s-3.693 8.258-8.258 8.258z" fill="#c9c5c9"/><path d="m379.871 41.29c0-22.804-55.459-41.29-123.871-41.29-17.617 0-34.375 1.222-49.548 3.432l-43.221 49.735c0 .183 43.221 54.188 43.221 54.188h173.502l-.082-24.774-9.003-8.781 9.003-7.735.082-24.774h-.083z" fill="#f2d1ff"/><path d="m206.452 107.355v-103.923c-43.732 6.374-74.323 20.931-74.323 37.859 0 .183.075.36.082.542v24.232l6.259 8.604-6.259 7.912v24.774z" fill="#dfbdf0"/><path d="m418.626 369.41-104.819-30.829h-102.359l-104.82 30.829c-21.087 6.202-35.568 25.555-35.568 47.535v70.28l3.262 23.364c2.583.913 5.363 1.41 8.258 1.41h41.29l8.953-8.807 7.564 8.807h289.032c13.682 0 24.774-11.092 24.774-24.774v-70.28c.001-21.98-14.48-41.333-35.567-47.535z" fill="#dfbdf0"/><path d="m206.452 181.677c-4.565 0-8.258-3.694-8.258-8.258v-8.258c0-4.565 3.694-8.258 8.258-8.258s8.258 3.694 8.258 8.258v8.258c0 4.565-3.694 8.258-8.258 8.258z" fill="#845252"/><path d="m305.548 181.677c-4.565 0-8.258-3.694-8.258-8.258v-8.258c0-4.565 3.694-8.258 8.258-8.258 4.565 0 8.258 3.694 8.258 8.258v8.258c0 4.565-3.693 8.258-8.258 8.258z" fill="#845252"/><path d="m214.71 148.645h-16.516c-4.565 0-8.258-3.694-8.258-8.258s3.694-8.258 8.258-8.258h16.516c4.565 0 8.258 3.694 8.258 8.258s-3.694 8.258-8.258 8.258z" fill="#a46a5a"/><path d="m313.806 148.645h-16.516c-4.565 0-8.258-3.694-8.258-8.258s3.694-8.258 8.258-8.258h16.516c4.565 0 8.258 3.694 8.258 8.258s-3.693 8.258-8.258 8.258z" fill="#a46a5a"/><path d="m228.749 210.551c-5.633 0-9.908 5.623-7.852 10.868 5.056 12.904 18.863 22.164 35.103 22.164s30.047-9.26 35.103-22.164c2.055-5.245-2.219-10.868-7.852-10.868z" fill="#fff"/><path d="m313.806 454.194h57.806c4.561 0 8.258-3.697 8.258-8.258v-8.258c0-4.561-3.697-8.258-8.258-8.258h-57.806c-4.561 0-8.258 3.697-8.258 8.258v8.258c0 4.56 3.698 8.258 8.258 8.258z" fill="#ffe077"/><path d="m345.57 338.423-8.482-14.842c-4.343-7.6-13.765-10.297-21.683-6.568-18.038 8.496-38.14 13.309-59.404 13.309s-41.366-4.812-59.404-13.309c-7.919-3.73-17.341-1.033-21.683 6.568l-8.482 14.842c-1.73 3.029-1.341 6.728.715 9.289l-73.772 21.698c-21.087 6.202-35.568 25.555-35.568 47.535v70.28c0 10.771 6.916 19.951 16.516 23.364v-93.645c0-14.548 9.75-27.581 23.71-31.685l90.512-26.621c.116.046.233.089.349.135l-33.07 16.535c-19.71 9.863-31.952 29.669-31.952 51.702v84.99h16.516v-84.992c0-15.734 8.742-29.887 22.823-36.927l48.091-24.045c14.3 3.63 29.269 5.578 44.7 5.578 31.316 0 60.774-7.932 86.492-21.885 4.015-2.181 5.343-7.337 3.076-11.306z" fill="#cbb0f2"/><circle cx="165.161" cy="478.968" fill="#ffe077" r="8.258"/><circle cx="165.161" cy="429.419" fill="#ffe077" r="8.258"/><path d="m322.065 445.935c-4.561 0-8.258-3.698-8.258-8.258v-8.258h-8.258c-4.561 0-8.258 3.697-8.258 8.258v16.516c0 4.56 3.697 8.258 8.258 8.258h66.065c4.56 0 8.258-3.698 8.258-8.258v-8.258z" fill="#ffd05b"/><path d="m379.871 82.581h-173.419l-8.362-7.912 8.362-8.604h173.419z" fill="#ffe077"/><path d="m132.129 66.065h74.323v16.516h-74.323z" fill="#ffd05b"/></g></svg>