<svg id="Capa_1" enable-background="new 0 0 512 512" height="512" viewBox="0 0 512 512" width="512" xmlns="http://www.w3.org/2000/svg"><g><path d="m188.724 337.581h134.552v122.172h-134.552z" fill="#dbd8db"/><path d="m267.331 387.601-22.263.011-13.673 74.84h49.548z" fill="#c6805d"/><path d="m223.137 346.839 12.752 38.255c2.248 6.744 8.559 11.293 15.668 11.293h9.224c7.109 0 13.42-4.549 15.668-11.293l12.752-38.255z" fill="#a46a5a"/><path d="m419.397 360.678-71.886-22.69-48.442 83.53c-19.101 32.934-66.666 32.915-85.741-.034l-38.527-69.84-11.293-5.839-70.904 22.391c-20.614 6.51-25.151 25.632-25.151 47.248v71.781l7.039 23.365c2.583.913 5.362 1.41 8.258 1.41h346.5c13.682 0 24.774-11.092 24.774-24.774v-79.299c0-21.617-14.014-40.739-34.627-47.249z" fill="#736572"/><path d="m313.976 346.839h-109.365v-49.33l109.365-6.315z" fill="#fbbd80"/><path d="m198.363 346.839h16.516v-27.04c0-10.47 9.562-18.019 19.867-16.167 6.953 1.249 14.106 1.917 21.423 1.917 20.89 0 40.542-5.222 57.806-14.354v-43.452h-115.612z" fill="#f4aa73"/><path d="m379.702 149.062-39.08-128.827c-7.04-5.366-14.819-9.81-23.159-13.154h-123.262c-1.496.6-2.974 1.235-4.432 1.904l-26.533 68.941-.652 102.298c4.23 55.419 36.744 107.728 93.247 107.728 7.116 0 14.069.388 20.796-.934 46.68-9.174 82.445-48.643 86.142-97.082h12.804c11.402 0 20.645-9.243 20.645-20.645 0-9.988-7.093-18.316-16.516-20.229z" fill="#ffd18d"/><path d="m189.766 181.678v-172.698c-6.664 3.063-12.931 6.844-18.702 11.245l-39.104 128.837c-9.423 1.913-16.517 10.241-16.517 20.229 0 11.402 9.243 20.645 20.645 20.645h12.804c4.23 55.419 50.435 99.097 106.938 99.097 7.104 0 14.081-.698 20.796-2.015-49.46-9.588-86.86-53.078-86.86-105.34z" fill="#fbbd80"/><path d="m280.605 0h-49.548c-13.034 0-25.457 2.507-36.856 7.08 9.527 24.777 33.498 42.468 61.63 42.468s52.106-17.691 61.632-42.468c-11.399-4.573-23.824-7.08-36.858-7.08z" fill="#c9c5c9"/><path d="m131.96 99.097v49.549h8.258c13.682 0 24.774-11.092 24.774-24.774v-14.019c0-5.044 1.542-9.965 4.452-14.086 7.583-10.738 12.065-23.813 12.065-37.96 0-11.391-4.067-26.257-10.444-37.581-23.748 18.103-39.105 46.705-39.105 78.871z" fill="#b8b2b8"/><path d="m379.701 99.097v49.549h-8.258c-13.682 0-24.774-11.092-24.774-24.774v-14.019c0-5.044-1.542-9.965-4.452-14.086-7.583-10.738-12.065-23.813-12.065-37.96 0-11.391 4.091-26.248 10.469-37.572 23.748 18.104 39.08 46.696 39.08 78.862z" fill="#c9c5c9"/><path d="m222.798 123.871h-24.774c-4.565 0-8.258-3.698-8.258-8.258s3.694-8.258 8.258-8.258h24.774c4.565 0 8.258 3.698 8.258 8.258 0 4.561-3.693 8.258-8.258 8.258z" fill="#c9c5c9"/><path d="m313.637 123.871h-24.774c-4.565 0-8.258-3.698-8.258-8.258s3.694-8.258 8.258-8.258h24.774c4.565 0 8.258 3.698 8.258 8.258 0 4.561-3.693 8.258-8.258 8.258z" fill="#c9c5c9"/><g fill="#736572"><path d="m189.766 156.903h-49.548c-4.565 0-8.258-3.694-8.258-8.258s3.694-8.258 8.258-8.258h49.548c4.565 0 8.258 3.694 8.258 8.258s-3.693 8.258-8.258 8.258z"/><path d="m371.444 156.903h-49.548c-4.565 0-8.258-3.694-8.258-8.258s3.694-8.258 8.258-8.258h49.548c4.565 0 8.258 3.694 8.258 8.258s-3.694 8.258-8.258 8.258z"/><path d="m280.605 168.871c-4.331 0-7.879-3.331-8.234-7.573-1.21-1.339-6.71-4.395-16.54-4.395-9.831 0-15.331 3.056-16.54 4.395-.355 4.242-3.903 7.573-8.234 7.573-4.565 0-8.258-3.694-8.258-8.258 0-11.718 13.895-20.226 33.032-20.226s33.032 8.508 33.032 20.226c0 4.564-3.694 8.258-8.258 8.258z"/></g><path d="m301.25 189.935c-15.935 0-28.903-12.968-28.903-28.903s12.968-28.903 28.903-28.903 28.903 12.968 28.903 28.903-12.968 28.903-28.903 28.903z" fill="#615260"/><path d="m263.461 248.35h-16.355c-4.565 0-8.258-3.698-8.258-8.258s3.694-8.258 8.258-8.258h16.355c4.565 0 8.258 3.698 8.258 8.258s-3.694 8.258-8.258 8.258z" fill="#fbbd80"/><path d="m231.188 226.85c-6.379 0-12.758-1.855-18.323-5.565l-11.032-7.355c-3.798-2.528-4.823-7.657-2.29-11.452 2.516-3.802 7.637-4.831 11.452-2.29l11.032 7.355c5.565 3.71 12.758 3.71 18.323 0l1.871-1.25c3.798-2.532 8.919-1.504 11.452 2.298 2.532 3.794 1.5 8.923-2.29 11.452l-1.871 1.246c-5.566 3.706-11.945 5.561-18.324 5.561z" fill="#c9c5c9"/><path d="m278.922 226.85c-6.379 0-12.758-1.855-18.323-5.565l-1.871-1.242c-3.79-2.528-4.823-7.657-2.29-11.452 2.524-3.802 7.637-4.831 11.452-2.298l1.871 1.246c5.573 3.722 12.766 3.71 18.323.004l11.032-7.355c3.806-2.54 8.927-1.512 11.452 2.29 2.532 3.794 1.508 8.923-2.29 11.452l-11.032 7.355c-5.566 3.71-11.945 5.565-18.324 5.565z" fill="#c9c5c9"/><circle cx="301.25" cy="161.032" fill="#eceaec" r="12.387"/><path d="m210.411 189.935c-15.935 0-28.903-12.968-28.903-28.903s12.968-28.903 28.903-28.903 28.903 12.968 28.903 28.903-12.967 28.903-28.903 28.903z" fill="#615260"/><circle cx="210.411" cy="161.032" fill="#eceaec" r="12.387"/><path d="m58.792 493.227c.233.933.512 1.846.848 2.733.221.578.452 1.15.715 1.706.332.709.72 1.382 1.114 2.053.364.612.703 1.243 1.117 1.82.204.286.454.534.669.811 1.283 1.633 2.741 3.12 4.39 4.387.093.072.177.154.272.224.911.679 1.878 1.286 2.879 1.839.15.083.3.165.452.245 1.043.548 2.12 1.148 3.243 1.547v-102.665c0-14.48 9.282-27.137 23.089-31.5l77.383-24.457-9.215-14.391-73.145 23.098c-20.614 6.51-34.628 25.632-34.628 47.249v79.299c0 1.551.184 3.055.457 4.527.094.503.237.984.36 1.475z" fill="#615260"/><path d="m189.304 309.737c-4.11-2.283-9.294-.679-11.397 3.526l-12.158 24.317 27.574 50.132c2.572 4.502 8.608 5.547 12.544 2.173l50.22-43.045z" fill="#eceaec"/><path d="m334.267 313.263c-2.102-4.205-7.287-5.809-11.397-3.526l-66.783 37.102 50.219 43.045c3.936 3.374 9.972 2.329 12.544-2.173l28.66-49.723z" fill="#eceaec"/></g></svg>