<svg id="Capa_1" enable-background="new 0 0 512 512" height="512" viewBox="0 0 512 512" width="512" xmlns="http://www.w3.org/2000/svg"><g><path d="m404.645 231.226c0-82.095-66.551-148.645-148.645-148.645v297.29c82.094 0 148.645-66.551 148.645-148.645z" fill="#a46a5a"/><path d="m107.355 231.226c0 82.095 66.551 148.645 148.645 148.645v-297.29c-82.094 0-148.645 66.551-148.645 148.645z" fill="#845252"/><path d="m316.568 383.76c-6.603-2.331-11.019-8.572-11.019-15.575v-23.465l-92.796-1.925v36.489l-25.086 21.502 94.805 72 43.325-85.769z" fill="#fbbd80"/><path d="m206.452 305.548v62.637c0 7.003-4.416 13.244-11.019 15.575l-9.229 3.257 4.805 15.821 9.919-3.501c13.208-4.662 22.04-17.146 22.04-31.152v-.01c0-8.805 7.79-15.497 16.508-14.259 5.398.767 10.909 1.18 16.524 1.18 17.629 0 34.367-3.738 49.548-10.376v-39.172z" fill="#f4aa73"/><path d="m339.548 391.871-13.752-4.854c-18.775 16.101-43.123 25.886-69.796 25.886-19.432 0-37.63-5.193-53.338-14.239l-41.059 6.683 36.591 106.653h115.613l45.889-90.474z" fill="#615260"/><path d="m186.204 387.017-13.752 4.854-3.692 18.821 32.168-11.354c.593-.209 1.159-.432 1.734-.673-5.83-3.363-11.379-7.292-16.458-11.648z" fill="#4e3d4d"/><path d="m396.28 216.367c-1.077-10.745-10.918-18.515-21.717-18.515h-11.209c0-3.372-.225-6.692-.66-9.945l-156.244-39.262c-32.22 21.479-34.136 53.291-40.396 72.914-3.686 11.555-4.347 23.905-1.383 35.666 11.735 46.546 41.135 80.113 91.327 80.113 5.26 0 15.486-.209 15.486-.209 49.255-7.124 87.616-47.727 91.452-97.987h12.804c12.107.001 21.778-10.417 20.54-22.775z" fill="#ffd18d"/><path d="m181.677 231.226c0-6.006.836-11.802 2.371-17.31 2.188-7.852 10.111-12.74 18.166-11.49 17.298 2.684 35.697 4.026 53.785 4.026 38.76 0 79.225-5.989 106.695-18.545-2.002-14.948-8.449-28.503-17.965-39.265l-138.279.004c-16.22 10.813-28.053 24.13-36.504 37.302-.021-.017-4.815 8.08-4.811 8.082-5.642 10.165-9.288 19.816-11.757 27.561-3.618 11.347-4.362 23.509-1.513 35.073 11.537 46.831 53.74 81.576 104.134 81.576 5.252 0 10.437-.381 15.486-1.11-50.892-8.419-89.808-52.625-89.808-105.904z" fill="#fbbd80"/><path d="m206.452 223.685c-4.565 0-8.258-3.694-8.258-8.258v-8.258c0-4.565 3.694-8.258 8.258-8.258s8.258 3.694 8.258 8.258v8.258c0 4.565-3.694 8.258-8.258 8.258z" fill="#845252"/><path d="m305.548 223.685c-4.565 0-8.258-3.694-8.258-8.258v-8.258c0-4.565 3.694-8.258 8.258-8.258 4.565 0 8.258 3.694 8.258 8.258v8.258c0 4.565-3.693 8.258-8.258 8.258z" fill="#845252"/><path d="m256 280.774c-12.395 0-23.823-3.976-30.573-10.637-3.25-3.21-3.282-8.435-.081-11.677 3.218-3.25 8.444-3.282 11.677-.081 2.75 2.71 9.363 5.879 18.976 5.879s16.226-3.169 18.976-5.879c3.234-3.202 8.46-3.169 11.677.081 3.202 3.242 3.169 8.468-.081 11.677-6.748 6.661-18.176 10.637-30.571 10.637z" fill="#f4aa73"/><path d="m417.563 84.016c-21.87-42.6-71.925-74.435-132.693-82.193-9.389-1.199-19.034-.293-28.87-.293-73.496 0-119.972 42.203-145.221 91.384l40.072 39.215h237.25c24.696 0 40.741-26.144 29.462-48.113z" fill="#ffc263"/><path d="m152.165 84.016c21.868-42.596 71.945-74.432 132.705-82.193-9.394-1.2-19.029-1.823-28.87-1.823-73.496 0-136.314 34.834-161.563 84.016-11.279 21.969 4.766 48.113 29.461 48.113h57.728c-24.695 0-40.74-26.144-29.461-48.113z" fill="#ffaa5a"/><path d="m363.355 99.097h-198.194c-9.121 0-16.516 7.394-16.516 16.516v33.032l16.516 16.516h173.419l41.29-16.516v-33.032c.001-9.122-7.394-16.516-16.515-16.516z" fill="#c6805d"/><path d="m148.645 99.097h16.516v61.582l-33.032-12.034v-33.032c0-9.122 7.395-16.516 16.516-16.516z" fill="#a46a5a"/><g fill="#4e3d4d"><path d="m239.484 74.323c-4.565 0-8.298-3.694-8.298-8.258 0-4.565 3.653-8.258 8.218-8.258h.081c4.565 0 8.258 3.694 8.258 8.258-.001 4.564-3.695 8.258-8.259 8.258z"/><path d="m272.597 74.323c-4.565 0-8.298-3.694-8.298-8.258 0-4.565 3.653-8.258 8.218-8.258h.081c4.564 0 8.258 3.694 8.258 8.258-.001 4.564-3.695 8.258-8.259 8.258z"/><path d="m256.081 49.548c-4.565 0-8.298-3.694-8.298-8.258s3.653-8.258 8.218-8.258h.081c4.564 0 8.258 3.694 8.258 8.258s-3.695 8.258-8.259 8.258z"/><path d="m289.113 49.548c-4.565 0-8.298-3.694-8.298-8.258s3.653-8.258 8.218-8.258h.081c4.564 0 8.258 3.694 8.258 8.258s-3.695 8.258-8.259 8.258z"/><path d="m223.048 49.548c-4.565 0-8.298-3.694-8.298-8.258s3.653-8.258 8.218-8.258h.081c4.564 0 8.258 3.694 8.258 8.258s-3.694 8.258-8.259 8.258z"/></g><path d="m175.942 408.157-70.874 9.595c-19.81 6.991-33.058 25.716-33.058 46.723v22.751l10.57 23.373c2.582.912 5.363 1.401 8.258 1.401h107.355z" fill="#a46a5a"/><path d="m172.452 391.871-73.33 25.881c-19.81 6.991-33.057 25.716-33.057 46.723v22.75c0 10.771 6.916 19.96 16.516 23.373v-46.116c0-14.006 8.833-26.49 22.04-31.152l71.321-25.174z" fill="#845252"/><path d="m339.548 391.871 73.33 25.881c19.81 6.991 33.057 25.716 33.057 46.723v22.75c0 13.682-11.092 24.774-24.774 24.774h-107.355z" fill="#a46a5a"/><path d="m132.129 148.645c0 22.804 55.459 41.29 123.871 41.29s123.871-18.486 123.871-41.29z" fill="#4e3d4d"/></g></svg>