<svg id="Capa_1" enable-background="new 0 0 512.002 512.002" height="512" viewBox="0 0 512.002 512.002" width="512" xmlns="http://www.w3.org/2000/svg"><g><path d="m309.353 3.907c-30.01-11.838-40.014 7.015-53.352 7.015-6.316 0-11.884-4.228-19.183-7.422l-18.415-.715c-11.671 4.604-34.09 30.249-50.606 71.539l88.204 49.549 107.355-49.549c-16.516-41.29-42.332-65.813-54.003-70.417z" fill="#f8ebcc"/><path d="m202.649 3.907c-11.671 4.604-37.487 29.127-54.003 70.418h33.032c16.516-41.29 42.332-65.814 54.003-70.418.391-.154.753-.263 1.137-.406-8.116-3.555-18.364-5.829-34.169.406z" fill="#fcdbb2"/><circle cx="256.001" cy="74.324" fill="#ffd05b" r="33.032"/><path d="m379.872 57.808c-41.29 0-75.699 33.032-123.871 33.032s-82.581-33.032-123.871-33.032c-41.047 0-74.323 27.729-74.323 61.935s33.275 61.935 74.323 61.935h247.742c41.047 0 74.323-27.729 74.323-61.935s-33.276-61.935-74.323-61.935z" fill="#fcdbb2"/><path d="m419.566 410.228-122.275-38.614h-82.242l-114.365 38.614c-20.614 6.51-34.628 25.632-34.628 47.249v29.751l8.606 23.365c2.583.913 5.362 1.41 8.258 1.41h33.032l37.944-9.236 36.378 9.236h41.29l26.585-9.236 22.963 9.236h41.291l33.483-9.236 40.839 9.236h32.694c13.682 0 24.774-11.092 24.774-24.774v-29.751c.001-21.618-14.013-40.74-34.627-47.25z" fill="#e29a6c"/><path d="m267.501 437.151-22.263.011-13.673 74.84h49.548z" fill="#845252"/><path d="m223.307 396.389 12.752 38.255c2.248 6.744 8.559 11.293 15.668 11.293h9.224c7.109 0 13.42-4.549 15.668-11.293l12.752-38.255z" fill="#7a4646"/><path d="m314.146 396.389h-102.476v-50.003l102.476 2.616z" fill="#ffd18d"/><path d="m198.533 404.647h16.516v-27.04c0-10.47 9.562-18.019 19.867-16.167 6.953 1.249 14.106 1.917 21.423 1.917 20.89 0 40.542-5.222 57.806-14.354v-43.453h-115.612z" fill="#fbbd80"/><path d="m346.84 214.712h-214.371v-74.323c0-9.122 7.395-16.516 16.516-16.516h181.677z" fill="#845252"/><path d="m380.211 214.712h-49.548v-90.839h33.032c9.122 0 16.516 7.395 16.516 16.516z" fill="#a46a5a"/><path d="m375.743 206.453h-12.387c-9.121 0-16.516-7.395-16.516-16.516v-19.267c0-10.885-10.303-18.776-20.814-15.945-3.802 1.024-7.947 1.948-12.219 3.17-28.605 8.185-68.546 20.238-132.544 25.161l-19.982 64.688c4.23 55.419 38.217 97.584 94.719 97.584 5.638 0 16.575.24 16.575.24 48.729-7.561 86.549-47.935 90.357-97.824h11.63c10.8 0 20.642-7.771 21.718-18.517 1.238-12.358-8.433-22.774-20.537-22.774z" fill="#ffe09c"/><path d="m313.807 157.895c-28.95 7.237-75.274 16.939-132.129 22.347-2.751.262-5.518.517-8.31.761-4.64.406-8.207 4.277-8.207 8.934 0 9.122-7.395 16.516-16.516 16.516h-11.89c-10.778 0-20.126 8.059-21.061 18.796-1.065 12.234 8.551 22.494 20.563 22.494h12.804c4.23 55.419 50.435 99.097 106.938 99.097 5.649 0 11.164-.432 16.575-1.273-51.454-7.941-90.898-52.405-90.898-106.082v-20.365c0-12.544 9.388-23.119 21.847-24.577 37.159-4.349 69.075-10.312 93.49-15.732 9.812-2.178 16.794-10.866 16.794-20.916z" fill="#ffd18d"/><path d="m189.474 359.287c-4.11-2.283-9.294-.679-11.397 3.526l-12.158 24.317-73.145 23.099c-20.614 6.51-34.628 25.632-34.628 47.249v29.751c0 10.771 6.916 19.952 16.516 23.365v-53.115c0-14.48 9.282-27.137 23.089-31.5l75.645-23.888 20.098 35.171c2.572 4.502 8.608 5.547 12.544 2.173l50.22-43.045z" fill="#d48c64"/><path d="m334.437 362.813c-2.102-4.205-7.287-5.809-11.397-3.526l-66.783 37.102 50.219 43.045c3.936 3.374 9.972 2.329 12.544-2.173l28.075-49.131z" fill="#d48c64"/><path d="m206.791 231.228c-4.565 0-8.258-3.698-8.258-8.258v-8.258c0-4.56 3.694-8.258 8.258-8.258s8.258 3.698 8.258 8.258v8.258c0 4.56-3.693 8.258-8.258 8.258z" fill="#845252"/><path d="m305.888 231.228c-4.565 0-8.258-3.698-8.258-8.258v-8.258c0-4.56 3.694-8.258 8.258-8.258 4.565 0 8.258 3.698 8.258 8.258v8.258c0 4.56-3.693 8.258-8.258 8.258z" fill="#845252"/><path d="m272.856 289.034h-33.032c-4.565 0-8.258-3.698-8.258-8.258s3.694-8.258 8.258-8.258h33.032c4.565 0 8.258 3.698 8.258 8.258s-3.694 8.258-8.258 8.258z" fill="#fbbd80"/><path d="m182.017 487.228h-57.806c-4.561 0-8.258 3.697-8.258 8.258v16.516h74.323v-16.516c-.001-4.561-3.698-8.258-8.259-8.258z" fill="#d48c64"/><path d="m388.469 487.228h-57.806c-4.561 0-8.258 3.697-8.258 8.258v16.516h74.323v-16.516c-.001-4.561-3.698-8.258-8.259-8.258z" fill="#d48c64"/><g><path d="m214.711 198.195h-16.516c-4.565 0-8.258-3.698-8.258-8.258s3.694-8.258 8.258-8.258h16.516c4.565 0 8.258 3.698 8.258 8.258s-3.694 8.258-8.258 8.258z" fill="#845252"/></g><g><path d="m313.807 198.195h-16.516c-4.565 0-8.258-3.698-8.258-8.258s3.694-8.258 8.258-8.258h16.516c4.565 0 8.258 3.698 8.258 8.258s-3.693 8.258-8.258 8.258z" fill="#845252"/></g></g></svg>