<svg id="Capa_1" enable-background="new 0 0 512 512" height="512" viewBox="0 0 512 512" width="512" xmlns="http://www.w3.org/2000/svg"><g><path d="m419.396 360.678-122.275-38.613h-82.242l-117.456 42.558c-20.614 6.51-33.882 21.687-33.882 43.304v79.299l10.951 23.362c2.583.913 5.362 1.412 8.258 1.412h346.5c13.682 0 24.774-11.092 24.774-24.774v-79.299c0-21.617-14.014-40.739-34.628-47.249z" fill="#1badde"/><path d="m208.844 291.194h105.132v55.645h-105.132z" fill="#e29a6c"/><path d="m198.363 346.839h16.516v-27.04c0-10.47 9.562-18.019 19.867-16.167 6.953 1.249 14.106 1.917 21.423 1.917 20.89 0 40.542-5.222 57.806-14.354v-43.452h-115.612z" fill="#d48c64"/><path d="m189.304 309.737c-4.11-2.283-9.294-.679-11.397 3.526l-12.158 24.317-73.145 23.098c-20.614 6.51-34.628 25.632-34.628 47.249v79.299c0 10.771 6.916 19.949 16.516 23.362v-102.66c0-14.48 9.282-27.137 23.089-31.5l75.644-23.888 20.098 35.171c2.572 4.502 8.608 5.547 12.544 2.173l50.22-43.045z" fill="#008cca"/><path d="m334.267 313.263c-2.102-4.205-7.287-5.809-11.397-3.526l-66.783 37.102 50.219 43.045c3.936 3.374 9.972 2.329 12.544-2.173l28.075-49.131z" fill="#008cca"/><path d="m379.702 149.062-39.092-128.836c-7.027-5.354-14.791-9.791-23.114-13.131l-123.304-.01c-1.493.599-2.968 1.233-4.424 1.901l-19.368 164.072c4.23 55.419 28.928 114.787 85.43 114.787 7.103 0 20.758-.819 20.758-.819 46.698-9.16 82.481-48.637 86.179-97.089h12.804c11.402 0 20.645-9.243 20.645-20.645.002-9.989-7.091-18.317-16.514-20.23z" fill="#f4aa73"/><path d="m189.766 181.678v-172.697c-6.67 3.066-12.942 6.851-18.718 11.257l-39.088 128.824c-9.423 1.913-16.517 10.241-16.517 20.229 0 11.402 9.243 20.645 20.645 20.645h12.804c4.23 55.419 50.435 99.097 106.938 99.097 7.103 0 14.043-.69 20.758-2.007-49.459-9.588-86.822-53.086-86.822-105.348z" fill="#e29a6c"/><path d="m280.605 0h-49.548c-13.034 0-25.466 2.51-36.865 7.084 9.527 24.777 33.506 42.465 61.639 42.465s52.139-17.677 61.666-42.454c-11.4-4.574-23.858-7.095-36.892-7.095z" fill="#dbd8db"/><path d="m131.96 99.097v49.549h8.258c13.682 0 24.774-11.092 24.774-24.774v-14.019c0-5.044 1.542-9.965 4.452-14.086 7.583-10.738 12.065-23.813 12.065-37.96 0-11.391-4.082-26.244-10.46-37.569-23.748 18.104-39.089 46.693-39.089 78.859z" fill="#c9c5c9"/><g fill="#dbd8db"><path d="m379.701 99.097v49.549h-8.258c-13.682 0-24.774-11.092-24.774-24.774v-14.019c0-5.044-1.542-9.965-4.452-14.086-7.583-10.738-12.065-23.813-12.065-37.96 0-11.391 4.079-26.257 10.457-37.581 23.748 18.104 39.092 46.705 39.092 78.871z"/><path d="m222.798 123.871h-24.774c-4.565 0-8.258-3.698-8.258-8.258s3.694-8.258 8.258-8.258h24.774c4.565 0 8.258 3.698 8.258 8.258 0 4.561-3.693 8.258-8.258 8.258z"/><path d="m313.637 123.871h-24.774c-4.565 0-8.258-3.698-8.258-8.258s3.694-8.258 8.258-8.258h24.774c4.565 0 8.258 3.698 8.258 8.258 0 4.561-3.693 8.258-8.258 8.258z"/></g><path d="m189.766 156.903h-49.548c-4.565 0-8.258-3.694-8.258-8.258s3.694-8.258 8.258-8.258h49.548c4.565 0 8.258 3.694 8.258 8.258s-3.693 8.258-8.258 8.258z" fill="#736572"/><path d="m371.444 156.903h-49.548c-4.565 0-8.258-3.694-8.258-8.258s3.694-8.258 8.258-8.258h49.548c4.565 0 8.258 3.694 8.258 8.258s-3.694 8.258-8.258 8.258z" fill="#736572"/><path d="m280.605 168.871c-4.331 0-7.879-3.331-8.234-7.573-1.21-1.339-6.71-4.395-16.54-4.395-9.831 0-15.331 3.056-16.54 4.395-.355 4.242-3.903 7.573-8.234 7.573-4.565 0-8.258-3.694-8.258-8.258 0-11.718 13.895-20.226 33.032-20.226s33.032 8.508 33.032 20.226c0 4.564-3.694 8.258-8.258 8.258z" fill="#736572"/><path d="m301.25 189.935c-15.935 0-28.903-12.968-28.903-28.903s12.968-28.903 28.903-28.903 28.903 12.968 28.903 28.903-12.968 28.903-28.903 28.903z" fill="#615260"/><path d="m263.461 248.35h-16.355c-4.565 0-8.258-3.698-8.258-8.258s3.694-8.258 8.258-8.258h16.355c4.565 0 8.258 3.698 8.258 8.258s-3.694 8.258-8.258 8.258z" fill="#d48c64"/><path d="m231.188 226.85c-6.379 0-12.758-1.855-18.323-5.565l-11.032-7.355c-3.798-2.528-4.823-7.657-2.29-11.452 2.516-3.802 7.637-4.831 11.452-2.29l11.032 7.355c5.565 3.71 12.758 3.71 18.323 0l1.871-1.25c3.798-2.532 8.919-1.504 11.452 2.298 2.532 3.794 1.5 8.923-2.29 11.452l-1.871 1.246c-5.566 3.706-11.945 5.561-18.324 5.561z" fill="#dbd8db"/><path d="m278.922 226.85c-6.379 0-12.758-1.855-18.323-5.565l-1.871-1.242c-3.79-2.528-4.823-7.657-2.29-11.452 2.524-3.802 7.637-4.831 11.452-2.298l1.871 1.246c5.573 3.722 12.766 3.71 18.323.004l11.032-7.355c3.806-2.54 8.927-1.512 11.452 2.29 2.532 3.794 1.508 8.923-2.29 11.452l-11.032 7.355c-5.566 3.71-11.945 5.565-18.324 5.565z" fill="#dbd8db"/><circle cx="301.25" cy="161.032" fill="#eceaec" r="12.387"/><path d="m210.411 189.935c-15.935 0-28.903-12.968-28.903-28.903s12.968-28.903 28.903-28.903 28.903 12.968 28.903 28.903-12.967 28.903-28.903 28.903z" fill="#615260"/><circle cx="210.411" cy="161.032" fill="#eceaec" r="12.387"/></g></svg>