<svg id="Capa_1" enable-background="new 0 0 512 512" height="512" viewBox="0 0 512 512" width="512" xmlns="http://www.w3.org/2000/svg"><g><path d="m280.774 0-33.032 9.194c-72.929 0-111.909 50.518-111.874 123.448l113.375 205.939 56.306-.736c53.083-20.028 90.838-71.301 90.838-131.393v-90.839c0-63.851-51.762-115.613-115.613-115.613z" fill="#615260"/><path d="m115.613 131.539c-.056 101.195 14.425 168.585 21.27 194.779 1.899 7.265 8.455 12.263 15.965 12.263h53.604l57.38-.426-65.638-65.638v-206.452c0-27.365 22.184-49.548 49.548-49.548h16.516c9.122 0 16.516-7.395 16.516-16.516h-33.032c-72.724-.001-132.088 58.814-132.129 131.538z" fill="#4e3d4d"/><path d="m320.611 360.413-4.043-1.427c-6.603-2.33-11.019-8.571-11.019-15.574v-23.465l-82.151.812-11.729 31.71-66.027 72.76 173.972 37.792z" fill="#d48c64"/><path d="m256 421.161c-21.865 0-42.672-4.486-61.57-12.579l36.796 103.418h49.548l36.951-103.484c-18.939 8.135-39.801 12.645-61.725 12.645z" fill="#615260"/><path d="m206.452 280.774v62.637c0 7.003-4.416 13.244-11.019 15.575l-4.043 1.427.337 17.398 9.202-3.248c13.208-4.662 22.04-17.146 22.04-31.152v-.01c0-8.806 7.79-15.497 16.508-14.259 5.398.767 10.909 1.181 16.524 1.181 17.629 0 34.367-3.738 49.548-10.376v-39.172h-99.097z" fill="#c6805d"/><path d="m375.742 173.419c-29.417 0-47.332-55.677-53.524-78.89-.855-3.204-4.512-4.6-7.327-2.847-7.514 4.677-16.345 7.414-25.858 7.414l-30.008 7.943c-57.806 0-95.026 36.48-97.745 94.222-2.903 61.65 33.701 111.651 94.713 111.651 5.724 0 16.822-.418 16.822-.418 48.611-7.659 86.314-47.981 90.115-97.785h11.633c10.8 0 20.641-7.771 21.717-18.517 1.237-12.357-8.434-22.773-20.538-22.773z" fill="#e29a6c"/><path d="m181.677 206.452v-8.258c0-45.608 36.973-82.581 82.581-82.581h8.258c9.122 0 16.516-7.395 16.516-16.516h-30.008c-57.806 0-107.546 44.423-110.265 102.165-2.903 61.65 46.221 112.545 107.232 112.545 5.65 0 11.41-.47 16.822-1.312-51.451-7.943-91.136-52.368-91.136-106.043z" fill="#d48c64"/><path d="m280.774 512h140.387c13.682 0 24.774-11.092 24.774-24.774v-47.525c0-21.008-13.247-39.732-33.057-46.723l-92.267-32.565z" fill="#eceaec"/><path d="m195.602 376.443-87.426 19.791c-19.81 6.991-33.556 22.459-33.556 43.467v47.524l7.962 23.366c2.583.913 5.363 1.408 8.258 1.408h140.387z" fill="#eceaec"/><path d="m206.452 198.911c-4.565 0-8.258-3.698-8.258-8.258v-8.258c0-4.56 3.694-8.258 8.258-8.258s8.258 3.698 8.258 8.258v8.258c0 4.561-3.694 8.258-8.258 8.258z" fill="#4e3d4d"/><path d="m305.548 198.911c-4.565 0-8.258-3.698-8.258-8.258v-8.258c0-4.56 3.694-8.258 8.258-8.258 4.565 0 8.258 3.698 8.258 8.258v8.258c0 4.561-3.693 8.258-8.258 8.258z" fill="#4e3d4d"/><path d="m256 256.718c-12.387 0-23.823-3.976-30.573-10.637-3.25-3.202-3.282-8.431-.081-11.677 3.202-3.25 8.444-3.282 11.677-.081 2.75 2.714 9.371 5.879 18.976 5.879s16.226-3.165 18.976-5.879c3.234-3.202 8.476-3.169 11.677.081 3.202 3.246 3.169 8.476-.081 11.677-6.748 6.661-18.184 10.637-30.571 10.637z" fill="#c6805d"/><path d="m375.742 413.606v-36.631c0-4.56-3.694-8.258-8.258-8.258-4.565 0-8.258 3.698-8.258 8.258v36.631c-25.68 3.993-45.419 26.193-45.419 52.974v37.161h16.516v-37.161c0-20.492 16.669-37.161 37.161-37.161s37.161 16.669 37.161 37.161v37.161h16.516v-37.161c0-26.781-19.739-48.981-45.419-52.974z" fill="#c9c5c9"/><path d="m214.71 165.161h-16.516c-4.565 0-8.258-3.698-8.258-8.258s3.694-8.258 8.258-8.258h16.516c4.565 0 8.258 3.698 8.258 8.258s-3.694 8.258-8.258 8.258z" fill="#615260"/><path d="m313.806 165.161h-16.516c-4.565 0-8.258-3.698-8.258-8.258s3.694-8.258 8.258-8.258h16.516c4.565 0 8.258 3.698 8.258 8.258s-3.693 8.258-8.258 8.258z" fill="#615260"/><path d="m191.389 360.413-92.267 32.565c-19.81 6.991-33.057 25.716-33.057 46.723v47.525c0 10.771 6.916 19.953 16.516 23.366v-70.883c0-14.006 8.833-26.49 22.04-31.152l90.981-32.113z" fill="#dbd8db"/><circle cx="322.065" cy="503.742" fill="#615260" r="8.258"/><circle cx="412.903" cy="503.742" fill="#615260" r="8.258"/><path d="m165.161 463.969v-89.662c0-4.56-3.694-8.258-8.258-8.258s-8.258 3.698-8.258 8.258v89.662c-9.6 3.413-16.516 12.486-16.516 23.257 0 13.682 11.092 24.774 24.774 24.774s24.774-11.092 24.774-24.774c0-10.771-6.915-19.844-16.516-23.257z" fill="#c9c5c9"/><circle cx="156.903" cy="487.226" fill="#615260" r="8.258"/></g></svg>