<svg id="Capa_1" enable-background="new 0 0 512 512" height="512" viewBox="0 0 512 512" width="512" xmlns="http://www.w3.org/2000/svg"><g><path d="m330.323 214.71h-110.836c-36.486 0-66.065-29.578-66.065-66.065v-41.29c0-59.29 10.254-106.098 69.545-106.098l66.065-1.1c1.45 0 2.893-.129 4.329-.072 57.283 2.272 103.026 49.429 103.026 107.269v41.29c0 36.488-29.578 66.066-66.064 66.066z" fill="#7ad7ee"/><path d="m189.935 107.355c0-57.896 46.065-105.082 103.426-107.269-1.381-.053-2.935-.086-4.329-.086h-66.065c-59.29 0-107.355 48.065-107.355 107.355v41.29c0 36.486 29.578 66.065 66.065 66.065h8.258z" fill="#4bc3ef"/><path d="m217.315 306.306v30.082l77.756 2.389 10.477-17.621v-17.726z" fill="#7ad7ee"/><path d="m206.452 264.258v56.898l15.864 12.154c.413-2.088.652-4.229.652-6.415v-.01c0-8.805 7.79-15.497 16.508-14.259 5.398.767 10.909 1.18 16.524 1.18 17.629 0 34.367-3.738 49.548-10.376v-39.172z" fill="#4bc3ef"/><path d="m412.878 376.462-72.559-25.609-145.483 2.693-88.788 22.916c-19.81 6.991-33.058 25.716-33.058 46.723v64.041l9.592 23.365c2.583.913 5.362 1.409 8.257 1.409h132.129l9.117-10.979 7.399 10.979h181.677c13.682 0 24.774-11.092 24.774-24.774v-64.041c.001-21.008-13.247-39.732-33.057-46.723z" fill="#eceaec"/><path d="m316.568 342.47c-6.603-2.331-11.019-8.572-11.019-15.575v-5.739c-15.427 5.83-32.08 9.167-49.548 9.167-11.392 0-22.436-1.419-33.02-4.023l-21.628 24.803-29.671-.25-72.559 25.609c-19.81 6.991-33.058 25.716-33.058 46.723v64.041c0 10.771 6.916 19.954 16.516 23.367v-87.4c0-14.006 8.833-26.49 22.041-31.152l89.148-31.467c-.001-.001-.002-.001-.003-.002 9.395 3.435 19.161 6.091 29.202 7.959v143.469h16.516v-141.153c5.439.498 10.945.766 16.516.766 30.444 0 59.115-7.526 84.319-20.76z" fill="#dbd8db"/><path d="m312.447 142.65-83.837-18.78v91.322l101.711 52.212c14.657-14.065 25.327-32.251 30.156-52.695z" fill="#f4aa73"/><path d="m151.536 214.71c4.833 20.388 15.489 38.514 30.115 52.553l6.994-62.495z" fill="#e29a6c"/><path d="m363.355 189.935c0 8.542-.993 16.809-2.878 24.775h-38.413v-16.517l41.29-27.527v19.269z" fill="#b3e1f8"/><path d="m148.645 189.935c0 8.542 1.006 16.809 2.891 24.775h38.399v-16.517l-41.29-27.527z" fill="#7ad7ee"/><path d="m148.645 123.871v57.806c0 9.122 7.395 16.516 16.516 16.516h74.323v-41.29c0-9.122 7.395-16.516 16.516-16.516 9.122 0 16.516 7.395 16.516 16.516v41.29h74.323c9.122 0 16.516-7.395 16.516-16.516v-57.806c0-9.122-7.395-16.516-16.516-16.516h-181.678c-9.121 0-16.516 7.394-16.516 16.516z" fill="#eceaec"/><path d="m206.452 321.156v5.739c0 7.003-4.416 13.244-11.019 15.575l-23.752 8.383c7.063 3.709 14.378 7.001 21.951 9.769.001 0 7.296-2.575 7.296-2.575 13.208-4.662 22.04-17.146 22.04-31.152v-.01c0-.243 0-.345.012-.585-5.652-1.391-11.156-3.114-16.528-5.144z" fill="#c9c5c9"/><circle cx="264.258" cy="412.903" fill="#dbd8db" r="8.258"/><circle cx="264.258" cy="470.71" fill="#dbd8db" r="8.258"/><path d="m322.064 198.193h-11.05c-8.98 0-17.792-2.441-25.493-7.061l-8.279-4.967c-13.076-7.845-29.411-7.845-42.487 0l-8.279 4.967c-7.701 4.62-16.512 7.061-25.493 7.061h-10.682l-4.589 10.05 13.357 60.923 46.588 25.412 31.072.727c20.595-4.007 39.052-13.885 53.591-27.898v-60.955c.003-4.561-3.695-8.259-8.256-8.259z" fill="#d1edff"/><path d="m276.732 295.304c-46.801-9.095-82.73-48.601-86.429-97.111h-.367c-4.561 0-8.258 3.697-8.258 8.258v60.841c19.272 18.575 45.427 29.998 74.323 29.998 7.089.001 14.032-.669 20.731-1.986z" fill="#b3e1f8"/><g fill="#fff"><path d="m206.452 181.677h-33.032c-4.561 0-8.258-3.697-8.258-8.258v-41.29c0-4.561 3.697-8.258 8.258-8.258h41.29c4.561 0 8.258 3.697 8.258 8.258v33.032c0 9.122-7.395 16.516-16.516 16.516z"/><path d="m305.548 181.677h33.032c4.561 0 8.258-3.697 8.258-8.258v-41.29c0-4.561-3.697-8.258-8.258-8.258h-41.29c-4.561 0-8.258 3.697-8.258 8.258v33.032c0 9.122 7.395 16.516 16.516 16.516z"/></g></g></svg>