<svg id="Capa_1" enable-background="new 0 0 512 512" height="512" viewBox="0 0 512 512" width="512" xmlns="http://www.w3.org/2000/svg"><g><path d="m313.806 512h-115.612l-8.259-123.871h132.13z" fill="#615260"/><path d="m192.799 439.671c17.155 14.223 39.176 22.78 63.201 22.78s46.046-8.557 63.201-22.78l2.863-51.542h-132.129z" fill="#736572"/><path d="m193.859 313.806 20.845 103.094c11.811 7.907 26.015 12.519 41.296 12.519 41.047 0 74.323-33.275 74.323-74.323v-41.29z" fill="#f4aa73"/><path d="m181.677 355.097c0 25.765 13.113 48.47 33.027 61.804l.006-39.295c0-10.47 9.562-18.019 19.867-16.167 6.953 1.249 14.106 1.917 21.423 1.917 27.926 0 53.605-9.352 74.323-24.943v-24.605h-148.646z" fill="#e29a6c"/><path d="m338.581 396.387 79.678 22.768c21.27 6.078 35.935 25.52 35.935 47.641v20.429c0 13.682-11.092 24.774-24.774 24.774h-82.581z" fill="#736572"/><path d="m397.882 374.359c7.739 7.094 6.982 19.513-1.56 25.615l-29.661 21.187 11.329 21.79c6.142 11.812 4.592 26.157-3.931 36.385l-27.22 32.664h-33.032v-214.71z" fill="#887f88"/><path d="m100.128 419.155c-21.271 6.078-35.935 25.52-35.935 47.642v20.429l10.13 23.365c2.583.913 5.362 1.409 8.257 1.409h82.581l8.258-100.784z" fill="#736572"/><path d="m57.806 466.797v20.429c0 10.771 6.916 19.954 16.516 23.366v-43.794c0-14.669 9.855-27.73 23.96-31.762l74.109-21.179 1.028-17.47-79.678 22.768c-21.27 6.078-35.935 25.52-35.935 47.642z" fill="#615260"/><path d="m114.118 374.359c-7.739 7.094-6.982 19.513 1.56 25.615l29.661 21.187-11.329 21.79c-6.142 11.812-4.592 26.157 3.931 36.385l27.22 32.664h33.032v-214.71z" fill="#887f88"/><path d="m363.355 74.323c-16.516-41.29-42.332-65.814-54.003-70.418-30.011-11.838-40.014 7.015-53.352 7.015-6.317 0-11.895-4.211-19.196-7.405-8.114-3.55-16.398-.231-32.194 6-11.671 4.604-27.791 31.687-44.308 72.977l95.698 41.379z" fill="#887f88"/><path d="m181.677 74.323c16.516-41.29 42.332-65.814 54.003-70.418.391-.154.74-.246 1.123-.39-8.116-3.554-18.35-5.845-34.156.39-11.671 4.604-37.487 29.128-54.003 70.418z" fill="#736572"/><path d="m379.871 57.806c-41.29 0-75.699 33.032-123.871 33.032s-82.581-33.032-123.871-33.032c-41.047 0-74.323 27.729-74.323 61.935s33.275 61.935 74.323 61.935h247.742c41.047 0 74.323-27.729 74.323-61.935s-33.276-61.935-74.323-61.935z" fill="#736572"/><path d="m346.839 214.71h-214.371v-74.323c0-9.122 7.395-16.516 16.516-16.516h181.677z" fill="#7a4646"/><path d="m380.21 214.71h-49.548v-90.839h33.032c9.122 0 16.516 7.395 16.516 16.516z" fill="#845252"/><path d="m375.742 206.452h-12.387c-9.121 0-16.516-7.395-16.516-16.516v-19.267c0-10.885-10.303-18.776-20.814-15.945-3.637.98-7.718 2.045-12.219 3.17-31.711 7.928-71.499 25.852-135.912 30.807l-15.964 59.042c4.23 55.419 37.566 97.555 94.069 97.555 5.649 0 16.607.263 16.607.263 48.714-7.574 86.517-47.941 90.325-97.819h11.63c10.8 0 20.642-7.771 21.718-18.517 1.238-12.358-8.433-22.773-20.537-22.773z" fill="#fbbd80"/><path d="m313.806 157.894c-28.95 7.237-75.274 16.939-132.129 22.347-5.422.516-10.907 1.006-16.516 1.437v8.258c0 9.122-7.395 16.516-16.516 16.516h-11.207c-10.8 0-20.641 7.77-21.718 18.516-1.238 12.358 8.433 22.775 20.537 22.775h12.804c4.23 55.419 50.435 99.097 106.938 99.097 5.649 0 11.196-.437 16.607-1.278-51.454-7.941-90.93-52.4-90.93-106.077v-20.365c0-12.581 9.486-23.129 21.982-24.593 37.133-4.351 69.024-10.313 93.417-15.73 9.806-2.179 16.731-10.86 16.731-20.903z" fill="#f4aa73"/><path d="m272.855 289.032h-33.032c-4.565 0-8.258-3.698-8.258-8.258s3.694-8.258 8.258-8.258h33.032c4.565 0 8.258 3.698 8.258 8.258s-3.694 8.258-8.258 8.258z" fill="#e29a6c"/><g fill="#887f88"><path d="m181.677 214.71h-41.29c-4.565 0-8.258-3.698-8.258-8.258s3.694-8.258 8.258-8.258h41.29c4.565 0 8.258 3.698 8.258 8.258s-3.693 8.258-8.258 8.258z"/><path d="m371.613 214.71h-41.29c-4.565 0-8.258-3.698-8.258-8.258s3.694-8.258 8.258-8.258h41.29c4.565 0 8.258 3.698 8.258 8.258s-3.694 8.258-8.258 8.258z"/><path d="m272.516 231.226c-4.565 0-8.258-3.698-8.258-8.258 0-4.552-3.702-8.258-8.258-8.258s-8.258 3.706-8.258 8.258c0 4.56-3.694 8.258-8.258 8.258s-8.258-3.698-8.258-8.258c0-13.661 11.113-24.774 24.774-24.774s24.774 11.113 24.774 24.774c0 4.56-3.693 8.258-8.258 8.258z"/></g><path d="m239.484 189.935h-57.806c-4.565 0-8.258 3.698-8.258 8.258v24.774c0 13.661 11.113 24.774 24.774 24.774h24.774c13.661 0 24.774-11.113 24.774-24.774v-24.774c0-4.56-3.694-8.258-8.258-8.258z" fill="#615260"/><path d="m189.935 206.452v16.516c0 4.552 3.702 8.258 8.258 8.258h24.774c4.556 0 8.258-3.706 8.258-8.258v-16.516h-12.387l-8.039 4.077-8.477-4.077z" fill="#fbbd80"/><path d="m330.323 189.935h-57.806c-4.565 0-8.258 3.698-8.258 8.258v24.774c0 13.661 11.113 24.774 24.774 24.774h24.774c13.661 0 24.774-11.113 24.774-24.774v-24.774c0-4.56-3.694-8.258-8.258-8.258z" fill="#615260"/><path d="m280.774 206.452v16.516c0 4.552 3.702 8.258 8.258 8.258h24.774c4.556 0 8.258-3.706 8.258-8.258v-16.516h-12.387l-8.308 5.706-8.208-5.706z" fill="#fbbd80"/><path d="m293.161 206.452v8.258c0 4.56 3.694 8.258 8.258 8.258s8.258-3.698 8.258-8.258v-8.258z" fill="#7a4646"/><path d="m202.323 206.452v8.258c0 4.56 3.694 8.258 8.258 8.258s8.258-3.698 8.258-8.258v-8.258z" fill="#7a4646"/></g></svg>