<svg id="Capa_1" enable-background="new 0 0 512 512" height="512" viewBox="0 0 512 512" width="512" xmlns="http://www.w3.org/2000/svg"><g><path d="m420.054 376.488-39.096-11.499-22.248 13.652-9.836-23.088-34.559-10.165-116.628 8.607-105.74 31.1c-21.272 6.257-28.403 25.78-28.403 47.953v53.96l9.184 23.571c2.605.921 5.41 1.421 8.331 1.421h49.983l28.285-43.115 71.681 43.115h49.984l64.035-43.115 35.931 43.115h49.984c13.803 0 24.992-11.189 24.992-24.992v-62.568c0-22.172-14.608-41.695-35.88-47.952z" fill="#eceaec"/><path d="m56.066 424.441v62.567c0 10.866 6.977 20.128 16.661 23.571v-86.14c0-14.676 9.836-27.823 23.918-31.964l105.743-31.101-4.702-15.986-34.56 10.165-11.619 14.075-20.466-4.638-39.095 11.499c-21.272 6.255-35.88 25.778-35.88 47.952z" fill="#dbd8db"/><path d="m314.314 378.711-108.726 10.425v-84.449l108.726 1.229z" fill="#e29a6c"/><path d="m343.301 347.939-15.658-20.878c-2.761-3.681-7.982-4.427-11.663-1.666l-59.98 44.985v16.661h58.314l28.213-28.213c2.932-2.932 3.262-7.573.774-10.889z" fill="#dbd8db"/><path d="m197.686 378.711h16.661v-43.939c0-10.562 9.646-18.177 20.042-16.309 7.014 1.26 14.23 1.934 21.611 1.934 21.074 0 40.898-5.268 58.314-14.48v-35.503h-116.628z" fill="#d48c64"/><path d="m168.698 347.939 15.658-20.878c2.761-3.681 7.982-4.427 11.663-1.666l59.981 44.985v16.661h-58.314l-28.213-28.213c-2.932-2.932-3.262-7.573-.775-10.889z" fill="#dbd8db"/><path d="m163.55 62.148h9.144v99.967l-38.876 16.661-11.355-68.128c-4.231-25.388 15.348-48.5 41.087-48.5z" fill="#4e3d4d"/><path d="m348.45 62.148h-9.144v99.967l38.876 16.661 11.355-68.128c4.231-25.388-15.348-48.5-41.087-48.5z" fill="#615260"/><path d="m375.606 162.115h-11.308c-9.202 0-16.661-7.459-16.661-16.661v-66.645h-173.325v116.737l-9.774 8.221c0 32.177 34.463 99.072 91.462 99.072l16.943-.424c49.051-7.715 87.098-48.397 90.934-98.648h12.917c12.211 0 21.967-10.509 20.719-22.975-1.086-10.839-11.014-18.677-21.907-18.677z" fill="#f4aa73"/><path d="m322.645 87.14h-145.726c-9.202 0-12.555 7.459-12.555 16.661v41.653c0 9.202-7.459 16.661-16.661 16.661h-11.308c-10.894 0-20.821 7.838-21.906 18.678-1.248 12.466 8.507 22.975 20.719 22.975h12.917c4.267 55.906 50.878 99.967 107.877 99.967 5.698 0 11.484-.47 16.943-1.319-51.906-8.01-91.918-52.831-91.918-106.979v-74.975c0-9.202 7.459-16.661 16.661-16.661h108.298c9.199 0 16.659-7.46 16.659-16.661z" fill="#e29a6c"/><path d="m370.055 12.053-37.083 6.263h-101.964c-53.764 0-57.999 57.991-57.999 57.991l8.016 10.833h141.62c30.029 0 60.058-27.061 47.41-75.087z" fill="#615260"/><path d="m206.016 187.831c-4.605 0-8.331-3.73-8.331-8.331v-8.331c0-4.601 3.726-8.331 8.331-8.331s8.331 3.73 8.331 8.331v8.331c0 4.601-3.726 8.331-8.331 8.331z" fill="#4e3d4d"/><path d="m305.984 187.831c-4.605 0-8.331-3.73-8.331-8.331v-8.331c0-4.601 3.726-8.331 8.331-8.331s8.331 3.73 8.331 8.331v8.331c-.001 4.601-3.727 8.331-8.331 8.331z" fill="#4e3d4d"/><path d="m214.347 153.784h-16.661c-4.605 0-8.331-3.73-8.331-8.331s3.726-8.331 8.331-8.331h16.661c4.605 0 8.331 3.73 8.331 8.331s-3.726 8.331-8.331 8.331z" fill="#615260"/><path d="m314.314 153.784h-16.661c-4.605 0-8.331-3.73-8.331-8.331s3.726-8.331 8.331-8.331h16.661c4.605 0 8.331 3.73 8.331 8.331s-3.726 8.331-8.331 8.331z" fill="#615260"/><path d="m228.51 216.958c-5.683 0-9.995 5.672-7.921 10.964 5.1 13.017 19.029 22.359 35.411 22.359s30.311-9.341 35.411-22.359c2.073-5.291-2.239-10.964-7.921-10.964z" fill="#fff"/><path d="m264.331 403.702h-16.661c-4.601 0-8.331-3.73-8.331-8.331v-16.661c0-4.601 3.73-8.331 8.331-8.331h16.661c4.601 0 8.331 3.73 8.331 8.331v16.661c-.001 4.602-3.731 8.331-8.331 8.331z" fill="#4e3d4d"/><path d="m201.411 359.746c-5.539-2.77-12.056 1.258-12.056 7.451v39.686c0 6.193 6.517 10.221 12.056 7.451l37.927-18.964v-16.661z" fill="#615260"/><path d="m310.589 359.746-37.927 18.964v16.661l37.927 18.964c5.539 2.77 12.056-1.258 12.056-7.451v-39.686c0-6.193-6.517-10.221-12.056-7.452z" fill="#615260"/><path d="m231.008 28.826h74.975c34.38 0 54.721-10.348 64.072-16.773-.552-2.111-1.146-4.101-1.865-6.292-1.617-4.922-7.293-7.26-11.814-4.729-8.659 4.849-24.813 11.133-50.392 11.133h-74.975c-36.807 0-66.645 29.838-66.645 66.645v24.992c0-9.202 7.459-16.661 16.661-16.661v-8.331c0-27.606 22.378-49.984 49.983-49.984z" fill="#4e3d4d"/><path d="m145.425 369.845-14.384 12.514v129.641h99.967l-61.198-141.044z" fill="#615260"/><path d="m380.958 364.99v147.01h-99.966l67.882-156.447z" fill="#615260"/><circle cx="256" cy="445.355" fill="#dbd8db" r="8.331"/><circle cx="256" cy="487.008" fill="#dbd8db" r="8.331"/><path d="m169.81 370.956-6.684-15.403-9.626 2.831-22.459 6.606v17.369z" fill="#4e3d4d"/></g></svg>