<svg id="Capa_1" enable-background="new 0 0 512 512" height="512" viewBox="0 0 512 512" width="512" xmlns="http://www.w3.org/2000/svg"><g><path d="m346.97 354.269-50.018-15.688h-82.242l-59.513 30.826 34.821 142.593h132.046l45.114-87.426z" fill="#1badde"/><path d="m346.97 354.269 72.596 22.925c20.614 6.51 34.628 25.632 34.628 47.248v62.783c0 13.682-11.092 24.774-24.774 24.774h-74.24z" fill="#eceaec"/><path d="m159.975 369.407-64.724 13.032c-20.614 6.51-31.276 20.387-31.276 42.004v62.783l10.347 23.371c2.582.912 5.363 1.403 8.258 1.403h74.322z" fill="#eceaec"/><path d="m267.161 404.117-22.263.011-13.673 107.872h49.549z" fill="#615260"/><path d="m222.968 363.355 12.752 38.255c2.248 6.744 8.559 11.293 15.668 11.293h9.224c7.109 0 13.42-4.549 15.668-11.293l12.752-38.255z" fill="#4e3d4d"/><path d="m313.806 363.355h-104.311v-42.165l104.311-5.222z" fill="#e29a6c"/><path d="m198.194 371.613h16.516v-27.04c0-10.47 9.562-18.019 19.867-16.167 6.953 1.249 14.106 1.917 21.423 1.917 20.89 0 40.542-5.222 57.806-14.354v-43.452h-115.612z" fill="#d48c64"/><path d="m181.677 181.677h-49.548v-57.806l49.548-8.258z" fill="#b8b2b8"/><path d="m379.871 181.677h-49.548v-66.064l49.548 8.258z" fill="#c9c5c9"/><path d="m374.564 173.419h-11.21c-9.122 0-16.516-7.395-16.516-16.516v-16.516l-169.488-9.025-10.425 83.347c4.23 55.419 32.572 98.335 89.075 98.335 5.642 0 16.585-.513 16.585-.513 48.726-7.565 86.545-47.937 90.352-97.822h12.804c12.105 0 21.776-10.417 20.538-22.775-1.075-10.745-10.916-18.515-21.715-18.515z" fill="#f4aa73"/><g><path d="m165.161 115.613v41.29c0 9.122-7.395 16.516-16.516 16.516h-11.208c-10.799 0-20.64 7.77-21.717 18.515-1.238 12.358 8.433 22.775 20.538 22.775h12.804c4.23 55.419 50.435 99.097 106.938 99.097 5.649 0 11.174-.433 16.585-1.275-51.454-7.941-90.908-52.403-90.908-106.08v-49.548c0-9.122 7.395-16.516 16.516-16.516h148.645v-24.774z" fill="#e29a6c"/></g><path d="m189.135 326.253c-4.11-2.283-9.294-.679-11.397 3.526l-12.158 24.317-.55.174-1.343 17.745 9.368-2.958 20.098 35.172c2.572 4.501 8.608 5.547 12.544 2.173l50.22-43.045z" fill="#008cca"/><path d="m334.097 329.779c-2.102-4.205-7.287-5.809-11.397-3.526l-66.783 37.102 50.219 43.045c3.936 3.374 9.972 2.329 12.544-2.173l28.075-49.131z" fill="#008cca"/><path d="m206.452 198.194c-4.565 0-8.258-3.698-8.258-8.258v-8.258c0-4.56 3.694-8.258 8.258-8.258s8.258 3.698 8.258 8.258v8.258c0 4.56-3.694 8.258-8.258 8.258z" fill="#615260"/><path d="m305.548 198.194c-4.565 0-8.258-3.698-8.258-8.258v-8.258c0-4.56 3.694-8.258 8.258-8.258 4.565 0 8.258 3.698 8.258 8.258v8.258c0 4.56-3.693 8.258-8.258 8.258z" fill="#615260"/><path d="m214.71 165.161h-16.516c-4.565 0-8.258-3.698-8.258-8.258s3.694-8.258 8.258-8.258h16.516c4.565 0 8.258 3.698 8.258 8.258s-3.694 8.258-8.258 8.258z" fill="#c9c5c9"/><path d="m313.806 165.161h-16.516c-4.565 0-8.258-3.698-8.258-8.258s3.694-8.258 8.258-8.258h16.516c4.565 0 8.258 3.698 8.258 8.258s-3.693 8.258-8.258 8.258z" fill="#c9c5c9"/><path d="m379.871 41.29c0-22.804-55.459-41.29-123.871-41.29-17.617 0-34.375 1.226-49.549 3.436l-19.436 70.261 19.436 50.174h173.502v-82.581z" fill="#eceaec"/><path d="m165.03 354.269-72.596 22.925c-20.614 6.51-34.628 25.632-34.628 47.249v62.783c0 10.771 6.916 19.958 16.516 23.371v-86.153c0-14.48 9.282-27.137 23.089-31.5l48.414-15.289-20.29 23.671c-6.085 7.099-7.655 17.02-4.059 25.651l35.427 85.023h33.115z" fill="#dbd8db"/><path d="m264.258 272.516h-16.355c-4.565 0-8.258-3.698-8.258-8.258s3.694-8.258 8.258-8.258h16.355c4.565 0 8.258 3.698 8.258 8.258s-3.693 8.258-8.258 8.258z" fill="#e29a6c"/><g fill="#dbd8db"><path d="m231.985 251.016c-6.379 0-12.758-1.855-18.323-5.565l-11.032-7.355c-3.798-2.528-4.823-7.657-2.29-11.452 2.516-3.802 7.637-4.831 11.452-2.29l11.032 7.355c5.565 3.71 12.758 3.71 18.323 0l1.871-1.25c3.798-2.532 8.919-1.504 11.452 2.298 2.532 3.794 1.5 8.923-2.29 11.452l-1.871 1.246c-5.565 3.706-11.944 5.561-18.324 5.561z"/><path d="m279.719 251.016c-6.379 0-12.758-1.855-18.323-5.565l-1.871-1.242c-3.79-2.528-4.823-7.657-2.29-11.452 2.524-3.802 7.637-4.831 11.452-2.298l1.871 1.246c5.573 3.722 12.766 3.71 18.323.004l11.032-7.355c3.806-2.54 8.927-1.512 11.452 2.29 2.532 3.794 1.508 8.923-2.29 11.452l-11.032 7.355c-5.566 3.71-11.945 5.565-18.324 5.565z"/><path d="m206.452 123.871v-120.434c-43.732 6.374-74.323 20.925-74.323 37.853 0 .183.075.36.082.542v82.038h74.241z"/><path d="m346.921 355.097 39.625 46.23c6.085 7.099 7.655 17.02 4.059 25.651l-35.426 85.022h-33.115z"/></g></g></svg>