<svg id="Capa_1" enable-background="new 0 0 512 512" height="512" viewBox="0 0 512 512" width="512" xmlns="http://www.w3.org/2000/svg"><g><path d="m272.516 0h-8.258c-86.366 0-127.415 55.459-127.415 123.871v280.774h259.544v-280.774c0-68.412-55.459-123.871-123.871-123.871z" fill="#615260"/><path d="m264.258 0h-24.774c-68.412 0-123.871 55.459-123.871 123.871v280.774h140.387v-206.451l-74.323-74.323v-41.29c0-45.609 36.973-82.581 82.581-82.581z" fill="#4e3d4d"/><path d="m416.257 394.311c-1.103-.482-2.23-.927-3.379-1.333l-96.31-33.992c-6.603-2.331-11.019-8.572-11.019-15.575v-23.465l-77.375-3.976-32.741 53.801-96.31 33.992-8.283 89.22h330.323z" fill="#eceaec"/><path d="m416.257 394.311c-37.855 46.522-95.604 76.399-160.257 76.399-58.355 0-111.036-24.226-148.581-63.154l-17.599-2.102c-6.517 8.425-15.204 23.069-15.204 34.247v47.525l7.964 23.365c2.583.913 5.362 1.41 8.258 1.41h330.323c13.682 0 24.774-11.092 24.774-24.774v-47.525c.001-19.783-11.767-37.549-29.678-45.391z" fill="#615260"/><path d="m206.452 280.774v62.637c0 7.003-4.416 13.244-11.019 15.575l-96.31 33.992c-1.164.411-2.305.862-3.423 1.352l1.271 11.521 10.453 1.717 93.505-33.004c13.208-4.662 22.04-17.146 22.04-31.152v-.01c0-8.805 7.79-15.497 16.508-14.259 5.398.767 10.909 1.18 16.524 1.18 17.629 0 34.367-3.738 49.548-10.376v-39.172h-99.097z" fill="#dbd8db"/><path d="m396.28 191.935c-1.076-10.745-10.917-18.515-21.716-18.515h-2.951c-13.682 0-24.774-11.092-24.774-24.774l-22.232-11.643-147.258 4.344-11.294 73.364c4.23 55.419 33.442 98.03 89.945 98.03 5.635 0 16.567-.205 16.567-.205 48.735-7.557 86.563-47.933 90.371-97.825h12.804c12.105-.001 21.776-10.419 20.538-22.776z" fill="#ffd18d"/><path d="m346.839 148.645v-16.516l-95.643-19.018-86.034 19.018v16.516c0 13.682-11.092 24.774-24.774 24.774h-2.952c-10.799 0-20.64 7.77-21.716 18.515-1.238 12.358 8.433 22.775 20.538 22.775h12.804c4.23 55.419 50.435 99.097 106.938 99.097 5.649 0 11.155-.43 16.567-1.272-51.454-7.941-90.889-52.406-90.889-106.083v-41.29c0-9.122 7.395-16.516 16.516-16.516z" fill="#fbbd80"/><path d="m206.452 198.911c-4.565 0-8.258-3.694-8.258-8.258v-8.258c0-4.565 3.694-8.258 8.258-8.258s8.258 3.694 8.258 8.258v8.258c0 4.565-3.694 8.258-8.258 8.258z" fill="#845252"/><path d="m305.548 198.911c-4.565 0-8.258-3.694-8.258-8.258v-8.258c0-4.565 3.694-8.258 8.258-8.258 4.565 0 8.258 3.694 8.258 8.258v8.258c0 4.565-3.693 8.258-8.258 8.258z" fill="#845252"/><path d="m256 256.718c-12.395 0-23.823-3.976-30.573-10.637-3.25-3.21-3.282-8.435-.081-11.677 3.218-3.25 8.444-3.282 11.677-.081 2.75 2.71 9.363 5.879 18.976 5.879s16.226-3.169 18.976-5.879c3.234-3.202 8.46-3.169 11.677.081 3.202 3.242 3.169 8.468-.081 11.677-6.748 6.661-18.176 10.637-30.571 10.637z" fill="#f4aa73"/><path d="m214.71 165.161h-16.516c-4.565 0-8.258-3.694-8.258-8.258s3.694-8.258 8.258-8.258h16.516c4.565 0 8.258 3.694 8.258 8.258s-3.694 8.258-8.258 8.258z" fill="#e29a6c"/><path d="m313.806 165.161h-16.516c-4.565 0-8.258-3.694-8.258-8.258s3.694-8.258 8.258-8.258h16.516c4.565 0 8.258 3.694 8.258 8.258s-3.693 8.258-8.258 8.258z" fill="#e29a6c"/><path d="m256 429.419c-38.492 0-73.815-22.581-89.976-57.532-1.919-4.137-.113-9.048 4.024-10.96 4.137-1.919 9.048-.113 10.96 4.024 13.476 29.129 42.911 47.952 74.992 47.952 32.065 0 61.5-18.815 74.984-47.927 1.911-4.137 6.831-5.968 10.96-4.024 4.137 1.911 5.944 6.823 4.024 10.96-16.178 34.935-51.492 57.507-89.968 57.507z" fill="#c9c5c9"/><path d="m272.516 462.452h-8.258v-8.258c0-4.565-3.694-8.258-8.258-8.258s-8.258 3.694-8.258 8.258v8.258h-8.258c-4.565 0-8.258 3.694-8.258 8.258s3.694 8.258 8.258 8.258h8.258v33.032h16.516v-33.032h8.258c4.565 0 8.258-3.694 8.258-8.258s-3.693-8.258-8.258-8.258z" fill="#dbd8db"/><path d="m338.581 99.097h-156.904l-9.541 19.227 9.541 13.805h165.161v-24.774c.001-4.561-3.696-8.258-8.257-8.258z" fill="#eceaec"/><path d="m95.699 394.33c-17.911 7.842-29.635 25.589-29.635 45.371v47.525c0 10.771 6.916 19.953 16.516 23.366v-70.883c0-14.006 8.833-26.49 22.04-31.152l2.798-1c-4.063-4.213-8.021-8.683-11.719-13.227z" fill="#4e3d4d"/><path d="m181.677 99.097h-8.258c-4.561 0-8.258 3.697-8.258 8.258v24.774h16.516z" fill="#dbd8db"/></g></svg>