<svg id="Capa_1" enable-background="new 0 0 512 512" height="512" viewBox="0 0 512 512" width="512" xmlns="http://www.w3.org/2000/svg"><g><path d="m231.226 90.839h33.032c99.097 0 132.164 59.712 132.129 132.642-.049 100.582-14.449 134.545-21.27 160.644-1.899 7.265-8.455 12.263-15.964 12.263h-53.604l-53.699-.736z" fill="#d48c64"/><path d="m115.613 206.452v57.806c0 60.092 37.755 111.365 90.838 131.393l23.215.172-22.048-241.49s23.607-21.024 23.607-63.494c-63.85 0-115.612 51.761-115.612 115.613z" fill="#c6805d"/><path d="m305.549 401.218v-23.465l-88.667.344-10.425 48.651 49.543 27.446 60.568-37.401c-6.603-2.331-11.019-8.573-11.019-15.575z" fill="#fbbd80"/><path d="m206.452 338.581v62.637c0 6.153-3.411 11.716-8.718 14.557 4.275 3.779 8.716 7.369 13.186 10.926 7.47-6.155 12.049-15.417 12.049-25.483v-.01c0-8.805 7.79-15.497 16.508-14.259 5.398.767 10.909 1.18 16.524 1.18 17.629 0 34.367-3.738 49.548-10.376v-39.172z" fill="#f4aa73"/><path d="m412.878 450.784-96.31-33.992c-1.335-.471-2.507-1.202-3.645-1.966-14.818 14.126-34.833 22.851-56.923 22.851-19.243 0-36.912-6.621-50.942-17.667l-97.859 35.516c-17.962 6.339-31.619 15.245-33.231 36.196l8.614 19.014c2.654.823 5.457 1.263 8.257 1.263h330.323c12.142 0 24.321-8.258 24.321-20.277-.001-21.012-14.642-34.598-32.605-40.938z" fill="#eceaec"/><path d="m104.621 466.363 96.307-33.993c4.442-1.568 8.331-4.079 11.614-7.176-4.831-3.012-9.363-6.457-13.465-10.367h-.001c-1.138.765-2.309 1.495-3.644 1.966l-96.31 33.992c-17.967 6.341-32.605 19.925-32.605 40.952 0 9.838 7.72 16.342 16.064 19.001v-13.222c0-14.007 8.833-26.491 22.04-31.153z" fill="#dbd8db"/><path d="m363.241 259.068c-1.479-31.41-16.852-58.87-39.888-77.391l-128.191-9.915-26.932 86.443c4.23 55.419 31.276 112.615 87.778 112.615 5.644 0 16.594-.483 16.594-.483 53.061-8.232 93.274-55.322 90.639-111.269z" fill="#ffd18d"/><path d="m181.678 264.258v-16.222c0-15.204 2.93-30.318 8.857-44.319.058-.138.116-.275.174-.413 5.513-13.073 18.193-21.628 32.381-21.628h100.263c-19.3-15.489-44.051-24.774-70.377-24.774h-30.008c-5.387 0-10.516-.96-15.349-2.571-1.836-.612-3.632-1.311-5.375-2.106-1.762-.829-3.492-1.716-5.134-2.738-2.816-1.753-6.473-.357-7.328 2.848-6.191 23.212-24.106 78.89-53.524 78.89-12.104 0-21.775 10.415-20.537 22.773 1.076 10.746 10.918 18.517 21.718 18.517h11.632c4.23 55.419 50.435 99.097 106.938 99.097 5.622 0 11.205-.442 16.594-1.275-51.418-7.97-90.925-52.428-90.925-106.079z" fill="#fbbd80"/><path d="m206.452 256.718c-4.565 0-8.258-3.698-8.258-8.258v-8.258c0-4.56 3.694-8.258 8.258-8.258s8.258 3.698 8.258 8.258v8.258c0 4.56-3.693 8.258-8.258 8.258z" fill="#7a4646"/><path d="m305.549 256.718c-4.565 0-8.258-3.698-8.258-8.258v-8.258c0-4.56 3.694-8.258 8.258-8.258s8.258 3.698 8.258 8.258v8.258c0 4.56-3.694 8.258-8.258 8.258z" fill="#7a4646"/><path d="m214.71 222.968h-16.516c-4.565 0-8.258-3.698-8.258-8.258s3.694-8.258 8.258-8.258h16.516c4.565 0 8.258 3.698 8.258 8.258s-3.693 8.258-8.258 8.258z" fill="#af6e4d"/><path d="m313.807 222.968h-16.516c-4.565 0-8.258-3.698-8.258-8.258s3.694-8.258 8.258-8.258h16.516c4.565 0 8.258 3.698 8.258 8.258s-3.694 8.258-8.258 8.258z" fill="#af6e4d"/><path d="m230.797 286.811c-6.086 0-10.086 6.361-7.488 11.865 5.311 11.251 17.947 19.166 32.691 19.166 14.743 0 27.38-7.915 32.691-19.166 2.598-5.504-1.401-11.865-7.488-11.865z" fill="#fff"/><path d="m258.81 451.107c-13.062-.843-29.035 5.678-42.057 18.699-13.022 13.022-19.541 28.994-18.699 42.056 13.062.843 29.035-5.677 42.056-18.699 13.022-13.021 19.543-28.994 18.7-42.056z" fill="#ff5f7a"/><path d="m253.19 451.107c13.062-.843 29.035 5.678 42.057 18.699 13.022 13.022 19.541 28.994 18.699 42.056-13.062.843-29.035-5.677-42.056-18.699-13.023-13.021-19.543-28.994-18.7-42.056z" fill="#ff7e92"/><path d="m362.218 0h-164.024l-23.013 57.519 18.679 82.099 177.754-15.747 7.084-106.257c.635-9.532-6.926-17.614-16.48-17.614z" fill="#eceaec"/><path d="m198.194 123.871h181.677c4.561 0 8.258 3.697 8.258 8.258v24.774c0 4.561-3.697 8.258-8.258 8.258h-181.677c-4.561 0-8.258-3.697-8.258-8.258v-24.774c0-4.561 3.697-8.258 8.258-8.258z" fill="#dbd8db"/><path d="m256 445.935c-22.976 0-45.371-8.044-63.064-22.657-3.516-2.903-4.016-8.109-1.113-11.625 2.903-3.512 8.105-4.02 11.629-1.109 14.742 12.173 33.403 18.875 52.548 18.875s37.806-6.702 52.548-18.875c3.524-2.903 8.726-2.399 11.629 1.109 2.903 3.516 2.403 8.722-1.113 11.625-17.693 14.613-40.088 22.657-63.064 22.657z" fill="#ff5f7a"/><circle cx="256" cy="437.677" fill="#ff7e92" r="16.516"/><path d="m198.194 123.871h-66.064c-4.561 0-8.258 3.697-8.258 8.258v24.774c0 4.56 3.697 8.258 8.258 8.258h66.065v-41.29z" fill="#c9c5c9"/><path d="m198.194 0h-48.411c-9.554 0-17.115 8.082-16.479 17.614l7.084 106.257h57.806z" fill="#dbd8db"/></g></svg>