<svg id="Capa_1" enable-background="new 0 0 512 512" height="512" viewBox="0 0 512 512" width="512" xmlns="http://www.w3.org/2000/svg"><g><path d="m231.226 0h33.032c72.93 0 132.164 59.712 132.129 132.642-.049 100.582-14.449 167.577-21.27 193.676-1.899 7.265-8.455 12.263-15.964 12.263h-53.605l-84.326-.736c-53.083-20.028-88.615-71.301-88.615-131.393v-90.839z" fill="#ffaa5a"/><path d="m115.613 115.613v90.839c0 60.092 37.755 111.365 90.838 131.393l23.215.172-22.093-241.41s23.652-54.137 23.652-96.607c-63.85 0-115.612 51.762-115.612 115.613z" fill="#ff8b57"/><path d="m305.548 343.411v-23.464l-87.258-5.486-11.49 57.268 49.2 36.342 60.568-49.085c-6.604-2.331-11.02-8.572-11.02-15.575z" fill="#fbbd80"/><path d="m206.452 280.774v62.637c0 7.003-4.416 13.244-11.019 15.575l-96.31 33.992c-19.81 6.992-33.057 25.716-33.057 46.723v47.525c0 10.771 6.916 19.844 16.516 23.257v-70.774c0-14.006 8.832-26.491 22.04-31.153l96.307-33.993c13.208-4.662 22.04-17.146 22.04-31.152v-.01c0-8.805 7.79-15.497 16.508-14.259 5.398.767 10.909 1.18 16.524 1.18 17.629 0 34.367-3.738 49.548-10.376v-39.172z" fill="#f4aa73"/><path d="m412.878 392.978-33.012-11.651-18.879 7.414-14.153-19.073-17.219-6.077-73.615 24.538-73.615-16.655-83.263 29.387c-19.81 6.991-28.089 25.715-28.089 46.723v39.641l11.547 23.365c2.583.913 5.363 1.41 8.259 1.41h41.29l13.51-28.78h212.416l21.811 28.78h41.295c13.682 0 24.774-11.092 24.774-24.774v-47.524c0-21.009-13.247-39.733-33.057-46.724z" fill="#7ad7ee"/><path d="m104.621 408.556 96.307-33.993c2.088-.737 4.02-1.731 5.872-2.834l-24.415-8.138-17.224 6.079-15.45 15.161-17.582-3.503-33.007 11.65c-19.81 6.991-33.057 25.716-33.057 46.723v47.525c0 10.771 6.916 19.948 16.516 23.361v-70.878c0-14.006 8.832-26.491 22.04-31.153z" fill="#4bc3ef"/><path d="m363.241 201.262c-2.719-57.742-52.459-102.165-110.265-102.165h-30.008c-5.389 0-10.559-.878-15.394-2.49l-12.089 6.089c-6.191 23.212-21.298 76.018-50.715 76.018l12.597 35.995c4.23 55.419 42.138 98.013 98.641 98.013 5.645 0 16.599-.192 16.599-.192 53.058-8.234 93.268-55.323 90.634-111.268z" fill="#ffd18d"/><path d="m181.677 206.452v-16.222c0-15.336 3.049-30.549 9.01-44.68 7.641-18.11 13.089-35.205 16.886-48.943-3.703-1.234-7.205-2.896-10.464-4.925-2.816-1.753-6.473-.357-7.328 2.848-6.191 23.212-24.106 78.89-53.524 78.89-12.104 0-21.775 10.415-20.537 22.773 1.076 10.746 10.917 18.517 21.717 18.517h11.633c4.23 55.419 50.435 99.097 106.938 99.097 5.622 0 11.21-.442 16.599-1.275-51.417-7.972-90.93-52.429-90.93-106.08z" fill="#fbbd80"/><path d="m206.452 198.911c-4.565 0-8.258-3.698-8.258-8.258v-8.258c0-4.56 3.694-8.258 8.258-8.258s8.258 3.698 8.258 8.258v8.258c0 4.561-3.694 8.258-8.258 8.258z" fill="#af6e4d"/><path d="m305.548 198.911c-4.565 0-8.258-3.698-8.258-8.258v-8.258c0-4.56 3.694-8.258 8.258-8.258 4.565 0 8.258 3.698 8.258 8.258v8.258c0 4.561-3.693 8.258-8.258 8.258z" fill="#af6e4d"/><path d="m214.71 165.161h-16.516c-4.565 0-8.258-3.698-8.258-8.258s3.694-8.258 8.258-8.258h16.516c4.565 0 8.258 3.698 8.258 8.258s-3.694 8.258-8.258 8.258z" fill="#ff8b57"/><path d="m313.806 165.161h-16.516c-4.565 0-8.258-3.698-8.258-8.258s3.694-8.258 8.258-8.258h16.516c4.565 0 8.258 3.698 8.258 8.258s-3.693 8.258-8.258 8.258z" fill="#ff8b57"/><path d="m230.797 229.005c-6.086 0-10.086 6.361-7.488 11.865 5.311 11.251 17.947 19.166 32.691 19.166s27.38-7.915 32.691-19.166c2.598-5.504-1.401-11.865-7.488-11.865z" fill="#fff"/><g fill="#eceaec"><path d="m379.866 381.327-33.032-11.658v84.524c0 9.121-7.394 16.516-16.516 16.516l-148.641.001c-9.121.001-16.516-7.394-16.516-16.516v-67.006l-16.59-3.985-16.442 15.645v113.152l247.737-.002z"/><path d="m165.161 369.67 13.721 31.679c9.266 21.395 37.182 26.715 53.669 10.229l23.449-23.449-56.647-31.471c-5.611-3.117-12.519-2.701-17.715 1.066z"/><path d="m346.839 369.67-13.721 31.679c-9.266 21.395-37.182 26.715-53.669 10.229l-23.449-23.449 56.647-31.471c5.611-3.117 12.519-2.701 17.715 1.066z"/></g><path d="m132.129 398.847 33.032-11.659v-17.518l-18.167 6.412-14.865 5.246z" fill="#dbd8db"/></g></svg>