<svg id="Capa_1" enable-background="new 0 0 512 512" height="512" viewBox="0 0 512 512" width="512" xmlns="http://www.w3.org/2000/svg"><g><path d="m417.682 295.591-54.327-14.817v-8.258h-214.71v13.918l-48.591 14.817c-21.557 5.879-36.512 25.459-36.512 47.802v138.173l10.782 23.365c2.583.913 5.362 1.409 8.257 1.409h24.774l19.391-17.711 21.9 17.711h214.71l18.159-17.711 23.13 17.711h24.774c13.682 0 24.774-11.092 24.774-24.774v-143.833c.001-22.344-14.954-41.923-36.511-47.802z" fill="#eceaec"/><path d="m404.645 288.107c0-3.616-2.352-6.812-5.806-7.886l-35.485-11.22v3.514h-214.71v-3.514l-35.485 11.22c-3.453 1.074-5.805 4.27-5.805 7.886v3.928l-13.037 3.555c-21.557 5.879-36.512 25.459-36.512 47.802v143.833c0 10.771 6.916 19.955 16.516 23.368v-167.198c0-14.855 10.008-27.968 24.339-31.871l8.694-2.37v37.685l13.201 17.134-13.201 15.898v132.129h41.29v-132.129l-9.194-14.27 9.194-18.763v-52.908c29.878 12.518 66.822 19.877 107.355 19.877s77.477-7.359 107.355-19.877v52.909l8.386 18.111-8.386 14.921v132.129h41.29v-132.129l-9.774-15.573 9.774-17.46v-58.731z" fill="#dbd8db"/><path d="m82.581 189.935h33.032v-99.096h-33.032c-13.682 0-24.774 11.092-24.774 24.774v49.548c-.001 13.683 11.091 24.774 24.774 24.774z" fill="#c9c5c9"/><path d="m429.419 90.839h-33.032v99.097h33.032c13.682 0 24.774-11.092 24.774-24.774v-49.548c.001-13.684-11.091-24.775-24.774-24.775z" fill="#dbd8db"/><path d="m280.774 0h-49.548c-20.608 0-40.178 4.441-57.806 12.417l-44.72 127.97v68.424c0 48.866 36.083 87.071 127.3 87.071 14.333 0 41.5-1.408 41.5-1.408 71.129-9.861 123.661-44.475 123.661-85.663v-68.424c0-77.533-62.853-140.387-140.387-140.387z" fill="#eceaec"/><path d="m173.419 208.811v-196.394c-48.665 22.046-82.581 71.068-82.581 127.97v68.424c0 48.866 73.945 88.479 165.161 88.479 14.285 0 28.28-.99 41.5-2.816-71.195-9.836-124.08-44.45-124.08-85.663z" fill="#dbd8db"/><path d="m346.839 90.839h-181.678c-22.804 0-41.29 18.486-41.29 41.29v76.685c0 22.073 52.698 55.444 132.129 55.444s132.129-33.371 132.129-55.444v-76.685c0-22.804-18.486-41.29-41.29-41.29z" fill="#ffc263"/><path d="m313.806 346.839h-115.612l-8.797 16.516v75.323c0 9.121 7.395 16.516 16.516 16.516h107.894l16.516-9.259v-57.806l-9.405-9.17 9.405-7.346v-8.258c0-9.122-7.395-16.516-16.517-16.516z" fill="#dbd8db"/><path d="m330.323 388.129v-16.516h-132.129v-24.774c-9.121 0-16.516 7.394-16.516 16.516v82.581c0 9.121 7.395 16.516 16.516 16.516h115.613c9.121 0 16.516-7.395 16.516-16.516h-115.613c-9.121 0-16.516-7.395-16.516-16.516v-41.29h132.129z" fill="#c9c5c9"/><g><path d="m222.968 470.71c-4.565 0-8.258-3.694-8.258-8.258v-16.516c0-4.565 3.694-8.258 8.258-8.258s8.258 3.694 8.258 8.258v16.516c0 4.564-3.694 8.258-8.258 8.258z" fill="#ffc263"/></g><g><path d="m289.032 470.71c-4.565 0-8.258-3.694-8.258-8.258v-16.516c0-4.565 3.694-8.258 8.258-8.258s8.258 3.694 8.258 8.258v16.516c0 4.564-3.693 8.258-8.258 8.258z" fill="#ffc263"/></g><g><path d="m256 470.71c-4.565 0-8.258-3.694-8.258-8.258v-16.516c0-4.565 3.694-8.258 8.258-8.258s8.258 3.694 8.258 8.258v16.516c0 4.564-3.693 8.258-8.258 8.258z" fill="#ffc263"/></g><path d="m198.661 241c4.434 1.112 8.239-3.605 6.057-7.622-4.234-7.795-6.525-16.034-6.525-24.568v-93.198c0-4.561-3.697-8.258-8.258-8.258h-24.774c-13.682 0-24.774 11.092-24.774 24.774v76.685c1.142 6.215 20.866 22.807 58.274 32.187z" fill="#ffaa5a"/><g fill="#c9c5c9"><path d="m107.355 346.839h41.29v33.032h-41.29z"/><path d="m363.355 346.839h41.29v33.032h-41.29z"/></g></g></svg>