<svg id="Capa_1" enable-background="new 0 0 512 512" height="512" viewBox="0 0 512 512" width="512" xmlns="http://www.w3.org/2000/svg"><g><path d="m164.188 53.794h33.324v129.131h-83.31v-20.828l6.351-15.755-6.351-17.569v-24.993c0-27.606 22.379-49.986 49.986-49.986z" fill="#c6805d"/><path d="m347.47 53.794h-33.324v129.131h83.31v-20.828l-6.171-17.384 6.171-15.941v-24.992c0-27.606-22.379-49.986-49.986-49.986z" fill="#e29a6c"/><path d="m355.801 128.773h41.655v33.324h-41.655z" fill="#736572"/><path d="m114.202 128.773h41.655v33.324h-41.655z" fill="#615260"/><path d="m155.857 203.752h-20.828c-11.503 0-20.828-9.325-20.828-20.828 0-11.503 9.325-20.828 20.828-20.828h20.828z" fill="#f4aa73"/><path d="m355.801 162.097h20.828c11.503 0 20.828 9.325 20.828 20.828 0 11.503-9.325 20.828-20.828 20.828h-20.828z" fill="#fbbd80"/><path d="m420.84 367.672-31.72-10.017-20.477-1.177-20.686-11.821-50.473-15.939h-82.968l-121.004 46.765c-20.796 6.567-28.67 18.048-28.67 39.856v71.669l8.047 23.571c2.605.921 5.409 1.422 8.33 1.422h41.313l38.093-24.88h192.868l35.627 24.879h41.661c13.803 0 24.993-11.19 24.993-24.993v-71.669c-.001-21.808-14.139-41.099-34.934-47.666z" fill="#98db7c"/><path d="m314.488 353.711h-107.166v-55.984l107.166 8.179z" fill="#fbbd80"/><path d="m197.854 362.042h16.662v-27.279c0-10.562 9.647-18.178 20.043-16.31 7.014 1.26 14.231 1.934 21.613 1.934 21.075 0 40.901-5.268 58.317-14.481v-43.836h-116.635z" fill="#f4aa73"/><path d="m188.715 316.281c-4.146-2.303-9.376-.685-11.497 3.557l-12.265 24.531-.764.241-24.576 17.406-17.08-4.251-31.372 9.907c-20.796 6.567-34.934 25.858-34.934 47.666v71.669c0 10.866 6.977 20.133 16.662 23.576v-95.243c0-14.608 9.364-27.377 23.293-31.778l76.313-24.099 20.276 35.482c2.595 4.541 8.684 5.596 12.655 2.192l50.663-43.426z" fill="#77cc7d"/><path d="m334.958 319.838c-2.121-4.242-7.351-5.86-11.497-3.557l-67.373 37.43 50.663 43.426c3.971 3.404 10.06 2.349 12.655-2.192l28.059-50.443z" fill="#77cc7d"/><path d="m369.893 12.039-13.722-11.011c-8.669 4.847-24.813 22.818-50.355 22.818h-74.979c-36.809 0-59.134 18.133-59.134 54.942v24.993l150.775-16.662c30.027-.001 60.056-27.059 47.415-75.08z" fill="#d48c64"/><path d="m180.85 78.787c0-27.564 22.422-49.986 49.986-49.986h74.979c34.382 0 54.727-10.337 64.078-16.762-.555-2.12-1.153-4.13-1.877-6.331-1.61-4.892-7.35-7.194-11.845-4.68-8.669 4.846-24.814 11.111-50.355 11.111h-74.979c-36.809 0-66.648 29.839-66.648 66.648v24.993l16.662-1.754v-23.239z" fill="#c6805d"/><path d="m339.139 87.118h-166.62c-2.921 0-5.724.501-8.33 1.422l-10.731 23.571v142.658c0 23.005 18.65 41.655 41.655 41.655h127.364l33.327-9.362c5.229-6.962 8.328-15.615 8.328-24.993v-149.958c0-13.803-11.189-24.993-24.993-24.993z" fill="#615260"/><path d="m389.12 357.656-41.655-13.155v67.526c0 13.803-11.19 24.993-24.993 24.993l-133.292.001c-13.803 0-24.993-11.19-24.993-24.993v-49.943l-18.548-3.001-23.107 16.155v136.761l266.587-.001v-154.343z" fill="#b8b2b8"/><path d="m164.187 362.085v-17.474l-4.669 1.474-36.986 11.68v17.474z" fill="#9e959e"/><path d="m164.188 262.07v-173.534c-9.685 3.443-16.662 12.709-16.662 23.575v149.959c0 23.005 18.65 41.655 41.655 41.655h133.296c13.584 0 25.724-6.6 33.328-16.662h-166.624c-13.803 0-24.993-11.19-24.993-24.993z" fill="#4e3d4d"/><path d="m322.477 187.09h-133.296c-4.601 0-8.331-3.73-8.331-8.331v-16.662c0-4.601 3.73-8.331 8.331-8.331h133.296c4.601 0 8.331 3.73 8.331 8.331v16.662c0 4.601-3.73 8.331-8.331 8.331z" fill="#98db7c"/></g></svg>