<svg id="Capa_1" enable-background="new 0 0 512 512" height="512" viewBox="0 0 512 512" width="512" xmlns="http://www.w3.org/2000/svg"><g><path d="m411.971 273.054c-7.05-8.967-15.584-27.829-15.584-66.602v-90.839c0-63.851-51.762-115.613-115.613-115.613h-24.774c-83.644 0-92.114 51.762-92.114 115.613v90.839l92.114 181.677 76.423-44.784c35.808-4.286 39.19-37.797 39.19-37.797 17.409 4.352 30.231-2.765 38.465-10.471 6.188-5.79 7.132-15.361 1.893-22.023z" fill="#c6805d"/><path d="m256 0h-24.774c-63.851 0-115.613 51.762-115.613 115.613v90.839c0 38.807-8.548 57.668-15.602 66.625-5.25 6.667-4.229 16.273 1.976 22.061 8.236 7.683 21.037 14.751 38.401 10.411 0 0 3.884 33.847 39.692 38.133l9.857 3.157 63.273 39.545-38.5-287.287v-57.807c0-22.804 18.486-41.29 41.29-41.29z" fill="#af6e4d"/><path d="m412.878 392.978-107.33-37.881h-99.097l-96.386 37.881c-19.81 6.992-33.058 25.716-33.058 46.723v47.525l5.573 23.365c2.583.913 5.363 1.41 8.258 1.41h222.968l28.613-9.67 37.452 9.67h41.29c13.682 0 24.774-11.092 24.774-24.774v-47.525c.001-21.008-13.247-39.733-33.057-46.724z" fill="#ff5f7a"/><path d="m346.839 470.71c-4.565 0-8.258-3.698-8.258-8.258v-24.774c0-4.56 3.694-8.258 8.258-8.258s8.258 3.698 8.258 8.258v24.774c0 4.56-3.694 8.258-8.258 8.258z" fill="#615260"/><path d="m66.064 439.701v47.525c0 10.771 6.916 19.952 16.516 23.365v-70.889c0-13.98 8.855-26.496 22.04-31.149l107.331-37.883-5.5-15.573-107.33 37.881c-19.809 6.991-33.057 25.716-33.057 46.723z" fill="#fb4455"/><path d="m305.548 371.613-49.548 5.111-44.048-5.111v-59.111l93.596 7.445z" fill="#fbbd80"/><path d="m256 330.323c17.629 0 34.367-3.738 49.548-10.376v-47.43h-99.097v115.613h16.516v-52.02c0-5.134 4.639-9.079 9.677-8.09 7.562 1.484 15.358 2.303 23.356 2.303z" fill="#f4aa73"/><path d="m375.742 173.419h-17.79c-2.943-8.833-7.03-17.143-12.081-24.774l-165.044-8.161-13.466 74.225c4.23 55.419 32.145 97.813 88.647 97.813 5.651 0 16.613.005 16.613.005 48.716-7.575 86.536-47.94 90.342-97.818h12.779c11.402 0 20.645-9.243 20.645-20.645s-9.243-20.645-20.645-20.645z" fill="#ffd18d"/><path d="m181.677 206.452v-33.032c0-13.682 11.092-24.774 24.774-24.774h139.419c-19.885-29.969-54.584-49.548-92.895-49.548h-30.008c-8.397 0-16.263-2.131-23.161-5.847-4.572-2.463-10.2.143-11.549 5.158-3.469 12.901-10.093 33.768-19.933 50.238-8.342 13.963-18.987 24.774-32.067 24.774-12.104 0-21.775 10.415-20.538 22.773 1.076 10.746 10.917 18.517 21.717 18.517h11.633c4.23 55.419 50.435 99.097 106.938 99.097 5.622 0 11.224-.446 16.613-1.279-51.417-7.973-90.943-52.426-90.943-106.077z" fill="#fbbd80"/><path d="m256 256.718c-12.387 0-23.823-3.976-30.573-10.637-3.25-3.202-3.282-8.431-.081-11.677 3.202-3.25 8.444-3.282 11.677-.081 2.75 2.714 9.371 5.879 18.976 5.879s16.226-3.165 18.976-5.879c3.234-3.202 8.476-3.169 11.677.081 3.202 3.246 3.169 8.476-.081 11.677-6.748 6.661-18.184 10.637-30.571 10.637z" fill="#f4aa73"/><path d="m177.821 343.147c2.102-4.205 7.287-5.809 11.397-3.526l66.782 37.103-50.219 43.045c-3.936 3.374-9.972 2.329-12.544-2.173l-28.075-49.131z" fill="#eceaec"/><path d="m334.18 343.147c-2.102-4.205-7.287-5.809-11.397-3.526l-66.783 37.103 50.219 43.045c3.936 3.374 9.972 2.329 12.544-2.173l28.075-49.131z" fill="#eceaec"/><path d="m313.806 41.29h-99.096c-45.608 0-82.581 36.972-82.581 82.581v3.846h264.258v-3.846c0-45.608-36.973-82.581-82.581-82.581z" fill="#ff5f7a"/><path d="m214.71 41.29h-16.516c-45.608 0-82.581 36.972-82.581 82.581v3.846h99.097z" fill="#fb4455"/><path d="m206.452 198.911c-4.565 0-8.258-3.698-8.258-8.258v-8.258c0-4.56 3.694-8.258 8.258-8.258s8.258 3.698 8.258 8.258v8.258c0 4.561-3.694 8.258-8.258 8.258z" fill="#7a4646"/><path d="m305.548 198.911c-4.565 0-8.258-3.698-8.258-8.258v-8.258c0-4.56 3.694-8.258 8.258-8.258 4.565 0 8.258 3.698 8.258 8.258v8.258c0 4.561-3.693 8.258-8.258 8.258z" fill="#7a4646"/><path d="m214.71 165.161h-16.516c-4.565 0-8.258-3.698-8.258-8.258s3.694-8.258 8.258-8.258h16.516c4.565 0 8.258 3.698 8.258 8.258s-3.694 8.258-8.258 8.258z" fill="#af6e4d"/><path d="m313.806 165.161h-16.516c-4.565 0-8.258-3.698-8.258-8.258s3.694-8.258 8.258-8.258h16.516c4.565 0 8.258 3.698 8.258 8.258s-3.693 8.258-8.258 8.258z" fill="#af6e4d"/><path d="m379.871 503.742h-66.065v-33.032c0-4.561 3.697-8.258 8.258-8.258h57.806c4.561 0 8.258 3.697 8.258 8.258v24.774c.001 4.561-3.696 8.258-8.257 8.258z" fill="#eceaec"/><path d="m256.013 99.097c-53.648 0-102.205 9.021-137.39 23.602-4.933 2.044-3.382 9.43 1.957 9.43h135.433 135.433c5.34 0 6.89-7.386 1.957-9.43-35.185-14.581-83.742-23.602-137.39-23.602z" fill="#d93f50"/><circle cx="256" cy="429.419" fill="#eceaec" r="8.258"/><circle cx="256" cy="470.71" fill="#eceaec" r="8.258"/><path d="m338.581 495.484c-9.122 0-16.516-7.395-16.516-16.516v-16.516h-8.258c-4.561 0-8.258 3.697-8.258 8.258v33.032c0 4.561 3.697 8.258 8.258 8.258h66.065c4.561 0 8.258-3.697 8.258-8.258v-8.258z" fill="#dbd8db"/></g></svg>