<svg id="Capa_1" enable-background="new 0 0 512 512" height="512" viewBox="0 0 512 512" width="512" xmlns="http://www.w3.org/2000/svg"><g><path d="m411.971 273.054c-7.05-8.967-15.584-27.829-15.584-66.602v-90.839c0-63.851-51.762-115.613-115.613-115.613h-24.774-24.774l-93.405 206.948 52.114 139.891 66.065 41.29 76.423-44.784c35.808-4.286 39.19-37.797 39.19-37.797 17.409 4.352 30.231-2.765 38.465-10.471 6.188-5.79 7.132-15.361 1.893-22.023z" fill="#d48c64"/><path d="m115.613 115.613v90.839c0 38.774-8.534 57.636-15.584 66.602-5.238 6.662-4.295 16.233 1.893 22.024 8.234 7.706 21.056 14.823 38.465 10.471 0 0 3.884 33.847 39.692 38.133l9.857 3.157 63.273 39.545-44.252-289.422s22.269-67.686 22.269-96.962c-63.852 0-115.613 51.762-115.613 115.613z" fill="#c6805d"/><path d="m412.878 392.978-107.33-37.881h-99.097l-125.1 56.882-8.253 76.887 9.484 21.725c2.583.913 5.362 1.409 8.257 1.409h98.704l66.457-24.774 66.066 24.774h99.095c13.682 0 24.774-11.092 24.774-24.774v-47.525c.001-21.008-13.247-39.731-33.057-46.723z" fill="#736572"/><path d="m66.064 439.701v47.525c0 10.771 6.916 19.955 16.516 23.367v-70.892c0-13.98 8.855-26.496 22.04-31.149l107.331-37.883-47.147-.874-65.683 23.182c-19.809 6.992-33.057 25.717-33.057 46.724z" fill="#615260"/><path d="m200.394 357.235-35.589 12.56 24.738 142.205h132.523l25.096-142.216-20.094-7.092z" fill="#dbd8db"/><path d="m305.548 371.613-49.548 5.111-42.269-5.111v-51.666h91.817z" fill="#ffd18d"/><path d="m256 330.323c17.629 0 34.367-3.738 49.548-10.376v-47.43h-99.097v115.613h16.516v-52.02c0-5.134 4.639-9.079 9.677-8.09 7.562 1.484 15.358 2.303 23.356 2.303z" fill="#fbbd80"/><path d="m363.24 201.262c-2.719-57.742-52.459-102.165-110.265-102.165h-30.008c-4.886 0-9.593-.722-14.034-2.057l-15.402 8.587-36.163 97.737c4.23 55.419 42.137 109.249 98.639 109.249 5.632 0 11.162.76 16.56-.076 53.078-8.218 93.308-55.316 90.673-111.275z" fill="#ffe09c"/><path d="m181.677 206.452v-28.568c0-8.405 1.604-16.732 4.725-24.536l22.531-56.309c-3.16-.951-6.195-2.216-9.055-3.751-4.594-2.466-10.275.117-11.63 5.152-6.417 23.852-23.497 74.978-51.991 74.978-12.104 0-21.775 10.415-20.538 22.773 1.076 10.746 10.917 18.517 21.716 18.517h11.634c4.23 55.419 50.435 99.097 106.938 99.097 5.622 0 11.17-.436 16.56-1.269-51.417-7.971-90.89-52.433-90.89-106.084z" fill="#ffd18d"/><path d="m156.903 165.161c-4.565 0-8.258 3.698-8.258 8.258s3.694 8.258 8.258 8.258h16.516v-16.516z" fill="#736572"/><path d="m355.097 165.161h-16.516v16.516h16.516c4.565 0 8.258-3.698 8.258-8.258s-3.694-8.258-8.258-8.258z" fill="#736572"/><path d="m272.516 189.935h-33.032c-4.565 0-8.258-3.698-8.258-8.258s3.694-8.258 8.258-8.258h33.032c4.565 0 8.258 3.698 8.258 8.258s-3.693 8.258-8.258 8.258z" fill="#736572"/><g fill="#4e3d4d"><path d="m206.452 198.911c-4.565 0-8.258-3.698-8.258-8.258v-17.234c0-4.56 3.694-8.258 8.258-8.258s8.258 3.698 8.258 8.258v17.234c0 4.561-3.694 8.258-8.258 8.258z"/><path d="m305.548 198.911c-4.565 0-8.258-3.698-8.258-8.258v-17.234c0-4.56 3.694-8.258 8.258-8.258 4.565 0 8.258 3.698 8.258 8.258v17.234c0 4.561-3.693 8.258-8.258 8.258z"/><path d="m305.548 231.226c-22.766 0-41.29-18.524-41.29-41.29v-16.516c0-4.56 3.694-8.258 8.258-8.258h66.065c4.565 0 8.258 3.698 8.258 8.258v16.516c0 22.766-18.525 41.29-41.291 41.29zm-24.774-49.549v8.258c0 13.661 11.113 24.774 24.774 24.774s24.774-11.113 24.774-24.774v-8.258z"/><path d="m206.452 231.226c-22.766 0-41.29-18.524-41.29-41.29v-16.516c0-4.56 3.694-8.258 8.258-8.258h66.065c4.565 0 8.258 3.698 8.258 8.258v16.516c-.001 22.766-18.525 41.29-41.291 41.29zm-24.775-49.549v8.258c0 13.661 11.113 24.774 24.774 24.774s24.774-11.113 24.774-24.774v-8.258z"/></g><path d="m256 264.258c-12.387 0-23.823-3.976-30.573-10.637-3.25-3.202-3.282-8.431-.081-11.677 3.202-3.25 8.444-3.282 11.677-.081 2.75 2.714 9.371 5.879 18.976 5.879s16.226-3.165 18.976-5.879c3.234-3.202 8.476-3.169 11.677.081 3.202 3.246 3.169 8.476-.081 11.677-6.748 6.661-18.184 10.637-30.571 10.637z" fill="#fbbd80"/><path d="m247.742 376.929v52.491c0 4.56 3.694 8.258 8.258 8.258s8.258-3.698 8.258-8.258v-52.491z" fill="#c9c5c9"/><path d="m177.821 343.147c2.103-4.205 7.287-5.809 11.397-3.526l66.782 37.103-50.219 43.045c-3.936 3.374-9.972 2.329-12.544-2.173l-26.216-45.878c-1.161-2.032-1.23-4.51-.183-6.604z" fill="#eceaec"/><path d="m334.18 343.147c-2.103-4.205-7.287-5.809-11.397-3.526l-66.783 37.103 50.219 43.045c3.936 3.374 9.972 2.329 12.544-2.173l26.216-45.878c1.161-2.032 1.23-4.51.183-6.604z" fill="#eceaec"/><circle cx="256" cy="478.968" fill="#c9c5c9" r="8.258"/></g></svg>