<svg id="Capa_1" enable-background="new 0 0 512 512" height="512" viewBox="0 0 512 512" width="512" xmlns="http://www.w3.org/2000/svg"><g><path d="m419.396 410.226-122.275-38.613h-82.242l-113.223 38.613c-20.614 6.51-34.628 25.632-34.628 47.249v29.751l7.464 23.36c2.583.913 5.362 1.414 8.258 1.414h346.5c13.682 0 24.774-11.092 24.774-24.774v-29.751c0-21.617-14.014-40.739-34.628-47.249z" fill="#eceaec"/><path d="m57.976 457.475v29.751c0 10.771 6.916 19.948 16.516 23.36v-53.11c0-14.48 9.282-27.137 23.089-31.5l122.274-38.613-4.976-15.75-122.275 38.613c-20.614 6.51-34.628 25.632-34.628 47.249z" fill="#dbd8db"/><path d="m267.331 437.149-22.263.011-13.673 74.84h49.548z" fill="#736572"/><path d="m223.137 396.387 12.752 38.255c2.248 6.744 8.559 11.293 15.668 11.293h9.224c7.109 0 13.42-4.549 15.668-11.293l12.752-38.255z" fill="#615260"/><path d="m417.732 84.016c-21.833-42.529-71.758-74.329-132.388-82.154-9.485-1.224-19.232-.386-29.174-.386-73.496 0-120.825 33.359-146.074 82.54-11.279 21.969 4.766 48.113 29.461 48.113h248.715c24.695 0 40.74-26.144 29.46-48.113z" fill="#eceaec"/><path d="m152.335 84.016c21.868-42.596 72.248-74.393 133.009-82.154-9.394-1.2-19.333-1.862-29.175-1.862-73.496 0-136.314 34.834-161.563 84.016-11.279 21.969 4.766 48.113 29.461 48.113h57.728c-24.695 0-40.74-26.144-29.46-48.113z" fill="#dbd8db"/><path d="m313.976 396.387h-109.696v-44.469l109.696-2.917z" fill="#fbbd80"/><path d="m198.363 404.645h16.516v-27.04c0-10.47 9.562-18.019 19.867-16.167 6.953 1.249 14.106 1.917 21.423 1.917 20.89 0 40.542-5.222 57.806-14.354v-43.452h-115.612z" fill="#f4aa73"/><path d="m132.299 148.645h49.548v66.065h-49.548z" fill="#845252"/><path d="m330.492 148.645h49.548v66.065h-49.548z" fill="#a46a5a"/><path d="m396.449 224.967c-1.076-10.745-10.917-18.515-21.716-18.515h-11.21c-7.787 0-14.315-5.389-16.059-12.641l-72.651-25.313-95.294 5.213-20.851 74.032c4.23 55.419 40.997 97.579 97.5 97.579 5.652 0 11.202 1.081 16.616.238 48.711-7.577 86.515-47.943 90.321-97.817h12.804c12.107-.001 21.778-10.418 20.54-22.776z" fill="#ffd18d"/><path d="m181.847 239.484v-21.114c0-10.276 9.248-17.897 19.391-16.25 17.616 2.86 36.395 4.331 54.932 4.331 32.091 0 65.213-4.112 91.296-12.641-.299-1.243-.457-2.541-.457-3.876v-41.29h-181.678v41.29c0 9.122-7.395 16.516-16.516 16.516h-11.21c-10.799 0-20.64 7.77-21.716 18.515-1.238 12.358 8.433 22.775 20.538 22.775h12.804c4.23 55.419 50.435 99.097 106.938 99.097 5.649 0 11.205-.438 16.616-1.279-51.453-7.939-90.938-52.397-90.938-106.074z" fill="#fbbd80"/><path d="m189.304 359.285c-4.11-2.283-9.294-.679-11.397 3.526l-12.659 25.318 28.075 49.131c2.572 4.501 8.608 5.547 12.544 2.173l50.22-43.045z" fill="#dbd8db"/><path d="m334.267 362.811c-2.102-4.205-7.287-5.809-11.397-3.526l-66.783 37.102 50.219 43.045c3.936 3.374 9.972 2.329 12.544-2.173l28.075-49.131z" fill="#dbd8db"/><path d="m206.621 231.226c-4.565 0-8.258-3.698-8.258-8.258v-8.258c0-4.56 3.694-8.258 8.258-8.258 4.565 0 8.258 3.698 8.258 8.258v8.258c0 4.56-3.694 8.258-8.258 8.258z" fill="#845252"/><path d="m305.718 231.226c-4.565 0-8.258-3.698-8.258-8.258v-8.258c0-4.56 3.694-8.258 8.258-8.258s8.258 3.698 8.258 8.258v8.258c0 4.56-3.694 8.258-8.258 8.258z" fill="#845252"/><path d="m165.269 380.275c-1.287-4.375-5.877-6.879-10.252-5.592l-27.392 8.057-6.421 5.83-9.419-1.171-15.161 4.459c-4.375 1.287-6.879 5.877-5.592 10.252l4.662 15.849c1.287 4.375 5.877 6.879 10.252 5.592l15.163-4.46 5.959-7.554 9.88 2.895 27.391-8.056c4.376-1.287 6.879-5.877 5.592-10.253z" fill="#736572"/><path d="m363.524 99.097h-198.193c-9.121 0-16.516 7.394-16.516 16.516v33.032l16.516 16.516h173.419l41.29-16.516v-33.032c0-9.122-7.394-16.516-16.516-16.516z" fill="#736572"/><path d="m132.298 148.645c0 22.804 55.459 41.29 123.871 41.29s123.871-18.486 123.871-41.29l-120.158-6.428z" fill="#4e3d4d"/><path d="m116.111 384.398h16.51v33.036h-16.51z" fill="#ffe077" transform="matrix(.959 -.282 .282 .959 -108.075 51.386)"/><path d="m347.695 380.275c1.287-4.375 5.877-6.879 10.252-5.592l27.392 8.057 6.923 6.862 8.917-2.203 15.161 4.459c4.375 1.287 6.879 5.877 5.592 10.252l-4.662 15.849c-1.287 4.375-5.877 6.879-10.252 5.592l-15.163-4.46-5.566-7.336-10.273 2.678-27.391-8.056c-4.376-1.287-6.879-5.877-5.592-10.253z" fill="#736572"/><path d="m372.079 392.661h33.036v16.51h-33.036z" fill="#ffe077" transform="matrix(.282 -.959 .959 .282 -105.679 660.592)"/><path d="m148.814 99.097h16.516v38.994l-33.032-5.962v-16.516c0-9.122 7.395-16.516 16.516-16.516z" fill="#615260"/><path d="m280.944 41.29c-4.565 0-8.258 3.694-8.258 8.258 0 6.084-3.346 11.352-8.258 14.218v-30.734c0-4.565-3.694-8.258-8.258-8.258-4.565 0-8.258 3.694-8.258 8.258v30.734c-4.912-2.865-8.258-8.134-8.258-14.218 0-4.565-3.694-8.258-8.258-8.258s-8.258 3.694-8.258 8.258c0 18.218 14.815 33.032 33.032 33.032s33.032-14.815 33.032-33.032c0-4.564-3.694-8.258-8.258-8.258z" fill="#736572"/><path d="m380.04 132.129h-214.709l-14.698 9.219 14.698 7.297h214.709z" fill="#ffe077"/><path d="m132.299 132.129h33.032v16.516h-33.032z" fill="#ffd05b"/><path d="m264.343 305.548h-16.355c-4.565 0-8.258-3.698-8.258-8.258s3.694-8.258 8.258-8.258h16.355c4.565 0 8.258 3.698 8.258 8.258s-3.693 8.258-8.258 8.258z" fill="#fbbd80"/><g fill="#a46a5a"><path d="m232.07 284.048c-6.379 0-12.758-1.855-18.323-5.565l-11.032-7.355c-3.798-2.528-4.823-7.657-2.29-11.452 2.516-3.802 7.637-4.831 11.452-2.29l11.032 7.355c5.565 3.71 12.758 3.71 18.323 0l1.871-1.25c3.798-2.532 8.919-1.504 11.452 2.298 2.532 3.794 1.5 8.923-2.29 11.452l-1.871 1.246c-5.565 3.707-11.945 5.561-18.324 5.561z"/><path d="m279.804 284.048c-6.379 0-12.758-1.855-18.323-5.565l-1.871-1.242c-3.79-2.528-4.823-7.657-2.29-11.452 2.524-3.802 7.637-4.831 11.452-2.298l1.871 1.246c5.573 3.722 12.766 3.71 18.323.004l11.032-7.355c3.806-2.54 8.927-1.512 11.452 2.29 2.532 3.794 1.508 8.923-2.29 11.452l-11.032 7.355c-5.566 3.711-11.945 5.565-18.324 5.565z"/></g></g></svg>