<svg id="Capa_1" enable-background="new 0 0 512 512" height="512" viewBox="0 0 512 512" width="512" xmlns="http://www.w3.org/2000/svg"><g><path d="m362.681 380.359-32.291-9.497c-10.376-3.052-17.501-12.575-17.501-23.39v-20.264l-100.788-.37-12.989 45.611-48.912 15.962 5.864 85.683h212.416z" fill="#fbbd80"/><path d="m199.111 284.444v63.027c0 10.816-7.125 20.339-17.502 23.39l-32.291 9.497-16.229 21.717 53.111-15.624c17.291-5.086 29.164-20.956 29.164-38.979 0-6.487 6.105-11.057 12.409-9.531 9.055 2.192 18.493 3.392 28.226 3.392 20.559 0 39.899-5.139 56.889-14.126v-42.762h-113.777z" fill="#f4aa73"/><path d="m256 323.905c-58.349 0-88.334-46.127-88.334-104.476l-8.127-48.762 20.633-65.016h181.478l8.127 65.016-8.127 48.762c0 51.398-36.703 94.224-85.329 103.698-6.576 1.281-13.37.778-20.321.778z" fill="#ffd18d"/><path d="m190.984 219.429v-73.143c0-8.977 7.277-16.254 16.254-16.254h89.397c8.977 0 16.254-7.277 16.254-16.254v-8.127h-162.54l-8.127 65.016 8.127 48.762c0 58.349 47.302 105.651 105.651 105.651 6.955 0 13.742-.67 20.322-1.953-48.621-9.478-85.338-52.304-85.338-103.698z" fill="#fbbd80"/><path d="m337.27 40.635h-105.651c-8.531 0-16.86 1.964-24.381 5.642l-11.102 28.397 11.101 39.103h113.778c8.977 0 16.254 7.277 16.254 16.254v16.254c0 13.465 10.916 24.381 24.381 24.381h8.127v-97.523c.001-17.954-14.553-32.508-32.507-32.508z" fill="#d48c64"/><path d="m207.238 46.277c-5.445 2.666-10.492 6.244-14.86 10.612h-17.648c-17.954 0-32.508 14.554-32.508 32.508v81.27h8.127c13.465 0 24.381-10.916 24.381-24.381v-16.254c0-8.977 7.277-16.254 16.254-16.254h16.254z" fill="#c6805d"/><path d="m394.159 195.048c-4.492 0-8.127-3.639-8.127-8.127v-113.778c0-31.369-25.524-56.889-56.889-56.889h-146.286c-31.365 0-56.889 25.52-56.889 56.889v113.778c0 4.488-3.635 8.127-8.127 8.127s-8.127-3.639-8.127-8.127v-113.778c0-40.33 32.81-73.143 73.143-73.143h146.286c40.333 0 73.143 32.813 73.143 73.143v113.778c0 4.488-3.635 8.127-8.127 8.127z" fill="#615260"/><path d="m223.492 170.667h-24.381c-4.492 0-8.127-3.639-8.127-8.127s3.635-8.127 8.127-8.127h24.381c4.492 0 8.127 3.639 8.127 8.127s-3.635 8.127-8.127 8.127z" fill="#c6805d"/><path d="m312.889 170.667h-24.381c-4.492 0-8.127-3.639-8.127-8.127s3.635-8.127 8.127-8.127h24.381c4.492 0 8.127 3.639 8.127 8.127s-3.635 8.127-8.127 8.127z" fill="#c6805d"/><path d="m256 276.317c-12.19 0-23.444-3.913-30.087-10.468-3.198-3.151-3.23-8.298-.079-11.492 3.151-3.198 8.31-3.23 11.492-.079 2.706 2.671 9.222 5.786 18.675 5.786 9.452 0 15.968-3.115 18.675-5.786 3.183-3.151 8.341-3.119 11.492.079 3.151 3.194 3.119 8.341-.079 11.492-6.645 6.556-17.899 10.468-30.089 10.468z" fill="#f4aa73"/><g fill="#887f88"><path d="m182.857 203.175h-40.635c-4.492 0-8.127-3.639-8.127-8.127s3.635-8.127 8.127-8.127h40.635c4.492 0 8.127 3.639 8.127 8.127s-3.635 8.127-8.127 8.127z"/><path d="m369.778 203.175h-40.635c-4.492 0-8.127-3.639-8.127-8.127s3.635-8.127 8.127-8.127h40.635c4.492 0 8.127 3.639 8.127 8.127s-3.635 8.127-8.127 8.127z"/><path d="m272.254 219.429c-4.492 0-8.127-3.639-8.127-8.127 0-4.48-3.643-8.127-8.127-8.127s-8.127 3.647-8.127 8.127c0 4.488-3.635 8.127-8.127 8.127s-8.127-3.639-8.127-8.127c0-13.444 10.937-24.381 24.381-24.381s24.381 10.937 24.381 24.381c0 4.488-3.635 8.127-8.127 8.127z"/></g><path d="m239.746 178.794h-56.889c-4.492 0-8.127 3.639-8.127 8.127v24.381c0 13.444 10.937 24.381 24.381 24.381h24.381c13.444 0 24.381-10.937 24.381-24.381v-24.381c0-4.488-3.635-8.127-8.127-8.127z" fill="#615260"/><path d="m190.984 195.048v16.254c0 4.48 3.643 8.127 8.127 8.127h24.381c4.484 0 8.127-3.647 8.127-8.127v-16.254z" fill="#ff7e92"/><path d="m329.143 178.794h-56.889c-4.492 0-8.127 3.639-8.127 8.127v24.381c0 13.444 10.937 24.381 24.381 24.381h24.381c13.444 0 24.381-10.937 24.381-24.381v-24.381c0-4.488-3.635-8.127-8.127-8.127z" fill="#615260"/><path d="m280.381 195.048v16.254c0 4.48 3.643 8.127 8.127 8.127h24.381c4.484 0 8.127-3.647 8.127-8.127v-16.254z" fill="#ff7e92"/><path d="m292.571 195.048v8.127c0 4.488 3.635 8.127 8.127 8.127s8.127-3.639 8.127-8.127v-8.127z" fill="#ff5f7a"/><path d="m142.222 227.556h-27.207v-40.635l10.954-16.254h16.254c4.488 0 8.127 3.639 8.127 8.127v40.635c-.001 4.488-3.639 8.127-8.128 8.127z" fill="#615260"/><path d="m377.905 170.667h8.127c8.977 0 16.254 7.277 16.254 16.254v32.508l-16.254 11.843h-16.254v-52.478c0-4.489 3.638-8.127 8.127-8.127z" fill="#736572"/><path d="m377.905 211.302v-40.635h-8.127c-4.489 0-8.127 3.638-8.127 8.127v48.762c0 4.488 3.638 8.127 8.127 8.127h16.254c8.977 0 16.254-7.277 16.254-16.254h-16.254c-4.489 0-8.127-3.639-8.127-8.127z" fill="#615260"/><path d="m125.968 211.302v-40.635c-8.977 0-16.254 7.277-16.254 16.254v32.508c0 8.977 7.277 16.254 16.254 16.254h16.254c4.488 0 8.127-3.639 8.127-8.127v-8.127h-16.254c-4.488 0-8.127-3.639-8.127-8.127z" fill="#4e3d4d"/><path d="m416.045 396.054-20.127-5.92-142.55 66.585s-106.425-62.117-106.425-62.118l-49.194 5.538c-20.752 6.104-31.276 21.063-31.276 42.695v44.785l10.735 22.995c2.542.898 5.278 1.386 8.127 1.386h341.333c13.465 0 24.381-10.916 24.381-24.381v-44.785c-.001-21.631-14.252-40.676-35.004-46.78z" fill="#ff7e92"/><path d="m362.681 380.359c-25.339 30.758-63.718 50.371-106.681 50.371s-81.342-19.614-106.681-50.372l-53.364 15.695c-20.752 6.104-35.003 25.149-35.003 46.78v44.785c0 10.6 6.806 19.636 16.254 22.995v-67.78c0-14.418 9.498-27.113 23.33-31.182l26.323-7.744c31.282 36.282 77.475 59.33 129.14 59.33 57.95 0 109.069-28.948 139.918-73.104z" fill="#ff5f7a"/><path d="m203.175 195.048v8.127c0 4.488 3.635 8.127 8.127 8.127s8.127-3.639 8.127-8.127v-8.127z" fill="#ff5f7a"/></g></svg>