<svg id="Capa_1" enable-background="new 0 0 512 512" height="512" viewBox="0 0 512 512" width="512" xmlns="http://www.w3.org/2000/svg"><g><path d="m424.57 387.615-30.27 2.508-18.102-17.734-29.36-9.034h-173.18l-72.378 22.27c-20.79 6.397-34.977 25.605-34.977 47.357v54.244l8.022 23.365c2.582.912 5.361 1.409 8.256 1.409h206.44l41.018-19.008 16.8 19.008h82.581c13.682 0 24.774-11.092 24.774-24.774v-54.243c0-19.83-11.79-37.545-29.624-45.368z" fill="#ff7e92"/><path d="m313.806 371.613h-109.523v-65.626l109.523 9.981z" fill="#fbbd80"/><path d="m198.194 371.613h16.516v-27.04c0-10.47 9.562-18.019 19.867-16.167 6.953 1.249 14.106 1.917 21.423 1.917 20.89 0 40.542-5.222 57.806-14.354v-43.452h-115.612z" fill="#f4aa73"/><path d="m132.129 123.871h41.29v57.806h-41.29z" fill="#c6805d"/><path d="m338.581 123.871h41.29v57.806h-41.29z" fill="#d48c64"/><path d="m374.564 173.419h-11.21c-9.122 0-16.516-7.395-16.516-16.516v-16.516l-41.561-12.282-133.574 4.235v24.562c0 9.122-16.072 53.084-16.072 53.084 4.23 55.419 43.866 103.004 100.369 103.004 5.636 0 11.17.38 16.57-.458 48.733-7.559 86.56-47.934 90.368-97.825h12.804c12.105 0 21.776-10.417 20.538-22.775-1.076-10.743-10.917-18.513-21.716-18.513z" fill="#ffd18d"/><path d="m181.677 206.452v-49.548c0-9.122 7.395-16.516 16.516-16.516h148.645v-24.774h-181.677v41.29c0 9.122-7.395 16.516-16.516 16.516h-11.21c-10.799 0-20.64 7.77-21.716 18.515-1.238 12.358 8.433 22.775 20.538 22.775h12.804c4.23 55.419 50.435 99.097 106.938 99.097 5.649 0 11.158-.431 16.57-1.272-51.453-7.941-90.892-52.406-90.892-106.083z" fill="#fbbd80"/><path d="m256 371.613 66.783-37.102c4.11-2.283 9.294-.679 11.397 3.526l12.659 25.318-44.834 38.429c-7.092 6.079-17.81 5.072-23.645-2.222z" fill="#ff5f7a"/><path d="m357.284 30.188-80.392-26.798c-6.781-2.26-13.836-3.39-20.892-3.39l-12.622 61.525v54.088h136.493v-54.088c0-14.218-9.099-26.841-22.587-31.337z" fill="#ffc263"/><path d="m256 0c-7.056 0-14.111 1.13-20.892 3.39l-80.393 26.797c-13.488 4.496-22.587 17.119-22.587 31.337v54.088h123.872z" fill="#ffaa5a"/><path d="m298.865 107.355c4.225-7.294 6.683-15.738 6.683-24.774 0-27.365-22.183-49.548-49.548-49.548s-49.548 22.183-49.548 49.548c0 9.036 2.458 17.48 6.683 24.774z" fill="#ff5f7a"/><circle cx="256" cy="82.581" fill="#ff7e92" r="33.032"/><path d="m206.452 198.194c-4.565 0-8.258-3.698-8.258-8.258v-8.258c0-4.56 3.694-8.258 8.258-8.258s8.258 3.698 8.258 8.258v8.258c0 4.56-3.694 8.258-8.258 8.258z" fill="#7a4646"/><path d="m305.548 198.194c-4.565 0-8.258-3.698-8.258-8.258v-8.258c0-4.56 3.694-8.258 8.258-8.258s8.258 3.698 8.258 8.258v8.258c0 4.56-3.693 8.258-8.258 8.258z" fill="#7a4646"/><path d="m256 256c-12.387 0-23.823-3.976-30.573-10.637-3.25-3.202-3.282-8.431-.081-11.677s8.444-3.282 11.677-.081c2.75 2.714 9.371 5.879 18.976 5.879s16.226-3.165 18.976-5.879c3.234-3.202 8.476-3.165 11.677.081s3.169 8.476-.081 11.677c-6.748 6.661-18.184 10.637-30.571 10.637z" fill="#f4aa73"/><path d="m214.71 165.161h-16.516c-4.565 0-8.258-3.698-8.258-8.258s3.694-8.258 8.258-8.258h16.516c4.565 0 8.258 3.698 8.258 8.258s-3.694 8.258-8.258 8.258z" fill="#c6805d"/><path d="m313.806 165.161h-16.516c-4.565 0-8.258-3.698-8.258-8.258s3.694-8.258 8.258-8.258h16.516c4.565 0 8.258 3.698 8.258 8.258s-3.693 8.258-8.258 8.258z" fill="#c6805d"/><path d="m256 90.839c-53.648 0-102.205 9.021-137.39 23.602-4.933 2.044-3.382 9.43 1.957 9.43h135.433 135.433c5.34 0 6.89-7.386 1.957-9.43-35.185-14.581-83.742-23.602-137.39-23.602z" fill="#4e3d4d"/><g fill="#ff5f7a"><path d="m189.217 334.511c-4.11-2.283-9.294-.679-11.397 3.526l-12.659 25.318-72.378 22.27c-20.79 6.397-34.977 25.605-34.977 47.357v54.244c0 10.771 6.916 19.959 16.516 23.372v-77.614c0-14.597 9.371-27.282 23.298-31.569l82.459-25.273 29.915 25.642c7.092 6.079 17.81 5.072 23.646-2.222l22.36-27.949z"/><circle cx="256" cy="429.419" r="8.258"/><circle cx="256" cy="487.226" r="8.258"/></g><path d="m289.02 512h57.819l77.731-124.385c-1.731-.76-3.514-1.424-5.353-1.99l-43.018-13.236z" fill="#615260"/></g></svg>