<svg id="Capa_1" enable-background="new 0 0 512 512" height="512" viewBox="0 0 512 512" width="512" xmlns="http://www.w3.org/2000/svg"><g><path d="m379.871 198.194h16.516v173.419h-16.516z" fill="#736572"/><path d="m419.217 369.109-72.378-22.27-181.677 5.936-72.378 22.27c-20.79 6.397-28.81 25.605-28.81 47.357v64.823l10.35 23.357c2.584.914 5.362 1.417 8.258 1.417h346.839c13.682 0 24.774-11.092 24.774-24.774v-70.76c-.001-21.751-14.188-40.959-34.978-47.356z" fill="#a7a07c"/><path d="m207.212 299.452h106.594v55.645h-106.594z" fill="#f4aa73"/><path d="m198.194 355.097h16.516v-27.04c0-10.47 9.562-18.019 19.867-16.167 6.953 1.249 14.106 1.917 21.423 1.917 20.89 0 40.542-5.222 57.806-14.354v-43.453h-115.612z" fill="#e29a6c"/><path d="m256 296.538c-59.291 0-101.674-47.312-101.674-106.603v-41.29h170.28l38.749 28.872v12.418c0 53.657-39.365 98.12-90.79 106.085-5.4.836-10.932.518-16.565.518z" fill="#fbbd80"/><path d="m181.677 189.935v-41.29l-33.032 28.872v12.418c0 59.29 48.065 107.355 107.355 107.355 5.632 0 11.167-.434 16.564-1.27-51.428-7.962-90.887-52.426-90.887-106.085z" fill="#f4aa73"/><path d="m206.452 181.677c-4.565 0-8.258-3.698-8.258-8.258v-8.258c0-4.56 3.694-8.258 8.258-8.258s8.258 3.698 8.258 8.258v8.258c0 4.561-3.694 8.258-8.258 8.258z" fill="#7a4646"/><path d="m305.548 181.677c-4.565 0-8.258-3.698-8.258-8.258v-8.258c0-4.56 3.694-8.258 8.258-8.258s8.258 3.698 8.258 8.258v8.258c0 4.561-3.693 8.258-8.258 8.258z" fill="#7a4646"/><path d="m272.516 247.742h-33.032c-4.565 0-8.258-3.698-8.258-8.258s3.694-8.258 8.258-8.258h33.032c4.565 0 8.258 3.698 8.258 8.258s-3.693 8.258-8.258 8.258z" fill="#e29a6c"/><path d="m280.774 0h-49.548c-8.527 0-16.821.994-24.774 2.873l-19.982 107.204 19.981 46.826h181.677v-49.548c.001-59.291-48.063-107.355-107.354-107.355z" fill="#938c6d"/><path d="m206.452 2.873c-47.325 11.2-82.581 53.734-82.581 104.482v49.548h82.581z" fill="#80795e"/><path d="m165.161 247.742c-18.218 0-33.032-14.819-33.032-33.032v-16.516c0-4.561-3.694-8.258-8.258-8.258s-8.258 3.698-8.258 8.258v16.516c0 27.323 22.226 49.548 49.548 49.548h33.032v-16.516z" fill="#736572"/><path d="m334.18 321.521c-2.103-4.205-7.287-5.809-11.397-3.526l-66.783 37.102-66.783-37.102c-4.11-2.283-9.294-.679-11.397 3.526l-12.659 25.318-72.378 22.27c-20.79 6.397-34.977 25.605-34.977 47.357v70.76c0 10.771 6.916 19.945 16.516 23.357v-94.115c0-14.597 9.371-27.282 23.298-31.569l82.459-25.273 29.915 25.642c7.092 6.079 17.81 5.072 23.646-2.222l14.101-17.626v72.258c0 4.56 3.694 8.258 8.258 8.258s8.258-3.698 8.258-8.258v-72.258l14.101 17.626c5.835 7.294 16.553 8.301 23.646 2.222l44.834-38.429z" fill="#938c6d"/><path d="m388.129 140.387h-8.258c-4.561 0-8.258 3.697-8.258 8.258v49.549l33.032-8.258v-33.032c0-9.122-7.394-16.517-16.516-16.517z" fill="#a7a07c"/><path d="m379.871 181.677v-41.29h-8.258c-4.56 0-8.258 3.697-8.258 8.258v49.548c0 4.56 3.698 8.258 8.258 8.258h16.516c9.121 0 16.516-7.395 16.516-16.516h-16.516c-4.56 0-8.258-3.697-8.258-8.258z" fill="#938c6d"/><path d="m140.387 140.387h-16.516l-9.075 50.052 25.591 7.755c4.561 0 8.258-3.697 8.258-8.258v-41.291c0-4.561-3.697-8.258-8.258-8.258z" fill="#938c6d"/><path d="m140.387 189.935c-9.121 0-16.516-7.395-16.516-16.516v-33.032c-9.121 0-16.516 7.394-16.516 16.516v33.032c0 9.121 7.395 16.516 16.516 16.516h16.516c4.561 0 8.258-3.698 8.258-8.258v-8.258z" fill="#80795e"/><path d="m214.71 264.258h-16.516c-4.561 0-8.258-3.697-8.258-8.258 0-4.561 3.697-8.258 8.258-8.258h16.516c4.561 0 8.258 3.697 8.258 8.258 0 4.561-3.698 8.258-8.258 8.258z" fill="#615260"/><path d="m355.097 140.387h-198.194c-4.561 0-8.258 3.697-8.258 8.258v28.872c0 11.973 8.562 22.233 20.342 24.374l46.992 8.544c12.466 2.267 23.924-7.531 23.492-20.315-.253-7.508 6.517-15.379 13.944-16.505 10.267-1.557 19.1 6.35 19.1 16.32v.884c0 12.439 11.266 21.842 23.505 19.616l46.992-8.544c11.78-2.142 20.342-12.402 20.342-24.374v-28.872c.001-4.561-3.697-8.258-8.257-8.258z" fill="#736572"/><path d="m272.516 156.903v4.595c9.825 5.73 16.516 16.266 16.516 28.438v.884c0 2.05 1.748 3.427 3.38 3.427.215 0 .428-.02.653-.061l46.992-8.544c3.929-.714 6.781-4.131 6.781-8.124v-20.614h-74.322z" fill="#c9bb96"/><path d="m239.484 156.903h-74.323v20.614c0 3.993 2.852 7.41 6.78 8.124l46.992 8.544c.222.04.442.061.654.061 1.223 0 2.049-.665 2.432-1.062.66-.682.978-1.526.945-2.507-.392-11.632 6.54-22.996 16.519-29.102v-4.672z" fill="#c9bb96"/><g fill="#a7a07c"><path d="m206.452 181.677c-4.565 0-8.258-3.698-8.258-8.258v-8.258c0-4.56 3.694-8.258 8.258-8.258s8.258 3.698 8.258 8.258v8.258c0 4.561-3.694 8.258-8.258 8.258z"/><path d="m305.548 181.677c-4.565 0-8.258-3.698-8.258-8.258v-8.258c0-4.56 3.694-8.258 8.258-8.258s8.258 3.698 8.258 8.258v8.258c0 4.561-3.693 8.258-8.258 8.258z"/></g></g></svg>