<svg id="Capa_1" enable-background="new 0 0 512 512" height="512" viewBox="0 0 512 512" width="512" xmlns="http://www.w3.org/2000/svg"><g><path d="m418.619 394.183-104.812-30.828-115.613 7.356-104.813 30.829c-21.086 6.202-29.407 18.198-29.407 40.178v45.508l10.355 23.364c2.583.913 5.364 1.41 8.26 1.41h49.548l31.746-24.438 58.517 24.438h67.208l49.768-21.398 40.495 21.398h49.54c13.682 0 24.774-11.092 24.774-24.774v-45.508c0-21.98-14.48-41.332-35.566-47.535z" fill="#eceaec"/><path d="m379.871 382.784v129.216h-90.263l57.911-138.731z" fill="#615260"/><path d="m231.226 0h33.032c72.93 0 132.164 59.712 132.129 132.642-.049 100.582-14.449 167.577-21.27 193.676-1.899 7.265-8.455 12.263-15.964 12.263h-53.605l-75.882-.736c-53.083-20.028-90.838-71.301-90.838-131.393v-90.839z" fill="#615260"/><path d="m115.613 115.613v90.839c0 60.092 37.755 111.365 90.838 131.393l23.215.172-22.053-241.397s23.613-54.15 23.613-96.62c-63.851 0-115.613 51.762-115.613 115.613z" fill="#4e3d4d"/><path d="m305.548 404.645v-84.698l-91.276-12.656v97.354z" fill="#d48c64"/><path d="m206.452 280.774v123.871h16.516v-61.244c0-8.805 7.79-15.497 16.508-14.259 5.398.767 10.909 1.18 16.524 1.18 17.629 0 34.367-3.738 49.548-10.376v-39.172z" fill="#c6805d"/><path d="m363.241 201.262c-2.719-57.742-52.459-102.165-110.265-102.165h-30.008c-5.374 0-10.531-.874-15.355-2.477l-11.802 4.771-35.837 106.208c4.23 55.418 39.063 103.71 95.565 103.71 5.629 0 17.02 1.23 17.02 1.23 53.082-8.215 93.317-55.315 90.682-111.277z" fill="#e29a6c"/><path d="m181.677 206.452v-16.222c0-15.336 3.049-30.549 9.01-44.68 7.641-18.11 13.128-35.192 16.925-48.93-3.703-1.234-7.244-2.909-10.503-4.938-2.816-1.753-6.473-.357-7.328 2.848-6.191 23.212-24.106 78.89-53.524 78.89-12.104 0-21.775 10.415-20.537 22.773 1.076 10.746 10.917 18.517 21.717 18.517h11.633c4.23 55.419 50.435 99.097 106.938 99.097 5.622 0 11.162-.435 16.551-1.268-51.417-7.972-90.882-52.436-90.882-106.087z" fill="#d48c64"/><path d="m206.452 198.911c-4.565 0-8.258-3.698-8.258-8.258v-8.258c0-4.56 3.694-8.258 8.258-8.258s8.258 3.698 8.258 8.258v8.258c0 4.561-3.694 8.258-8.258 8.258z" fill="#4e3d4d"/><path d="m305.548 198.911c-4.565 0-8.258-3.698-8.258-8.258v-8.258c0-4.56 3.694-8.258 8.258-8.258 4.565 0 8.258 3.698 8.258 8.258v8.258c0 4.561-3.693 8.258-8.258 8.258z" fill="#4e3d4d"/><path d="m214.71 165.161h-16.516c-4.565 0-8.258-3.698-8.258-8.258s3.694-8.258 8.258-8.258h16.516c4.565 0 8.258 3.698 8.258 8.258s-3.694 8.258-8.258 8.258z" fill="#615260"/><path d="m313.806 165.161h-16.516c-4.565 0-8.258-3.698-8.258-8.258s3.694-8.258 8.258-8.258h16.516c4.565 0 8.258 3.698 8.258 8.258s-3.693 8.258-8.258 8.258z" fill="#615260"/><path d="m230.797 229.005c-6.086 0-10.086 6.361-7.488 11.865 5.311 11.251 17.947 19.166 32.691 19.166s27.38-7.915 32.691-19.166c2.598-5.504-1.401-11.865-7.488-11.865z" fill="#fff"/><path d="m184.989 345.187-15.113 20.15c-2.638 3.517-2.058 8.484 1.319 11.298l43.514 36.268 41.298-24.774-59.458-44.594c-3.648-2.736-8.824-1.997-11.56 1.652z" fill="#dbd8db"/><path d="m57.815 441.718v45.508c0 10.771 6.916 19.946 16.516 23.359v-68.867c0-14.548 9.75-27.581 23.71-31.685l104.815-30.831-4.661-15.847-33.705 9.914-16.461 12.212-15.891-2.696-38.756 11.399c-21.087 6.202-35.567 25.554-35.567 47.534z" fill="#dbd8db"/><path d="m327.019 345.187 15.113 20.15c2.638 3.517 2.058 8.484-1.319 11.298l-43.514 36.268-41.299-24.774 59.458-44.594c3.649-2.736 8.825-1.997 11.561 1.652z" fill="#dbd8db"/><path d="m264.258 421.161h-16.516c-4.561 0-8.258-3.697-8.258-8.258v-16.516c0-4.561 3.697-8.258 8.258-8.258h16.516c4.561 0 8.258 3.697 8.258 8.258v16.516c0 4.561-3.697 8.258-8.258 8.258z" fill="#4e3d4d"/><g fill="#615260"><path d="m201.887 377.588c-5.491-2.745-11.951 1.247-11.951 7.387v39.341c0 6.139 6.46 10.132 11.951 7.386l37.597-18.798v-16.516z"/><path d="m310.113 377.588-37.597 18.799v16.516l37.597 18.798c5.491 2.745 11.951-1.247 11.951-7.386v-39.341c.001-6.138-6.46-10.131-11.951-7.386z"/><path d="m150.635 387.435-18.498 12.568v111.997h90.263l-51.51-123.396z"/></g><circle cx="256" cy="462.452" fill="#dbd8db" r="8.258"/><path d="m170.89 388.604-6.401-15.335-32.352 9.515v17.219z" fill="#4e3d4d"/></g></svg>