<svg id="Capa_1" enable-background="new 0 0 512 512" height="512" viewBox="0 0 512 512" width="512" xmlns="http://www.w3.org/2000/svg"><g><path d="m379.188 397.582-82.236-25.969-109.78 12.23-62.552 27.693 73.574 100.464h33.031l25.015-10.98 24.534 10.98h33.033l70.577-63.976z" fill="#eceaec"/><path d="m115.824 417.4-22.48 1.955c-20.614 6.51-28.344 27.903-28.344 49.52l9.322 41.711c2.677.99 5.576 1.414 8.597 1.414h65.726z" fill="#1badde"/><path d="m267.161 437.149-22.263.011-13.673 74.84h49.549z" fill="#615260"/><path d="m222.968 396.387 12.752 38.255c2.248 6.744 8.559 11.293 15.668 11.293h9.224c7.109 0 13.42-4.549 15.668-11.293l12.752-38.255z" fill="#4e3d4d"/><path d="m417.563 84.016c-21.866-42.591-71.906-74.423-132.657-82.189-9.4-1.202-19.057-1.033-28.906-1.033-73.496 0-121.257 34.04-146.506 83.221-11.279 21.969 4.766 48.113 29.461 48.113h249.147c24.695.001 40.74-26.143 29.461-48.112z" fill="#1badde"/><path d="m152.165 84.016c21.868-42.596 71.98-74.427 132.741-82.188-9.394-1.201-19.065-1.828-28.906-1.828-73.496 0-136.314 34.834-161.563 84.016-11.279 21.969 4.766 48.113 29.461 48.113h57.728c-24.695 0-40.74-26.144-29.461-48.113z" fill="#008cca"/><path d="m313.806 396.387h-108.389v-44.797l108.389-2.589z" fill="#a46a5a"/><path d="m198.194 404.645h16.516v-27.04c0-10.47 9.562-18.019 19.867-16.167 6.953 1.249 14.106 1.917 21.423 1.917 20.89 0 40.542-5.222 57.806-14.354v-43.452h-115.612z" fill="#845252"/><path d="m132.129 148.645h49.548v66.065h-49.548z" fill="#b8b2b8"/><path d="m330.323 148.645h49.548v66.065h-49.548z" fill="#c9c5c9"/><path d="m396.28 224.967c-1.076-10.745-10.917-18.515-21.716-18.515h-11.21c-7.792 0-14.324-5.396-16.062-12.655l-47.071-45.151h-118.544l-17.962 99.097c4.23 55.419 35.782 98.147 92.285 98.147 5.634 0 11.165.516 16.562-.321 48.737-7.556 86.567-47.932 90.375-97.826h12.804c12.106-.001 21.777-10.418 20.539-22.776z" fill="#c6805d"/><path d="m181.677 239.484v-21.114c0-10.276 9.248-17.897 19.391-16.25 17.616 2.86 36.395 4.331 54.932 4.331 32.091 0 65.209-4.127 91.292-12.655-.299-1.243-.454-2.526-.454-3.861v-41.29h-181.677v41.29c0 9.122-7.395 16.516-16.516 16.516h-11.21c-10.799 0-20.64 7.77-21.716 18.515-1.238 12.358 8.433 22.775 20.538 22.775h12.804c4.23 55.419 50.435 99.097 106.938 99.097 5.649 0 11.151-.43 16.562-1.271-51.452-7.94-90.884-52.406-90.884-106.083z" fill="#a46a5a"/><path d="m189.135 359.285c-4.11-2.283-9.294-.679-11.397 3.526l-12.158 24.317-32.819 10.364-8.792 9.048 17.176 5.625 31.911-10.077 20.098 35.172c2.572 4.501 8.608 5.547 12.544 2.173l50.22-43.045z" fill="#dbd8db"/><path d="m334.097 362.811c-2.102-4.205-7.287-5.809-11.397-3.526l-66.783 37.102 50.219 43.045c3.936 3.374 9.972 2.329 12.544-2.173l28.075-49.131z" fill="#dbd8db"/><path d="m206.452 231.226c-4.565 0-8.258-3.698-8.258-8.258v-8.258c0-4.56 3.694-8.258 8.258-8.258s8.258 3.698 8.258 8.258v8.258c0 4.56-3.694 8.258-8.258 8.258z" fill="#4e3d4d"/><path d="m305.548 231.226c-4.565 0-8.258-3.698-8.258-8.258v-8.258c0-4.56 3.694-8.258 8.258-8.258s8.258 3.698 8.258 8.258v8.258c0 4.56-3.693 8.258-8.258 8.258z" fill="#4e3d4d"/><path d="m363.355 99.097h-198.194c-9.121 0-16.516 7.394-16.516 16.516v33.032l16.516 16.516h173.419l41.29-16.516v-33.032c.001-9.122-7.394-16.516-16.515-16.516z" fill="#008cca"/><path d="m148.645 99.097h16.516v62.883l-33.032-13.334v-33.032c0-9.123 7.395-16.517 16.516-16.517z" fill="#0074a7"/><path d="m256 99.097c-13.682 0-24.774-11.092-24.774-24.774v-24.775c0-4.561 3.697-8.258 8.258-8.258h33.032c4.561 0 8.258 3.697 8.258 8.258v24.774c0 13.683-11.092 24.775-24.774 24.775z" fill="#ffe077"/><path d="m313.806 512h115.274c13.682 0 24.774-11.092 24.774-24.774v-29.751c0-21.617-14.014-40.739-34.628-47.248l-40.039-12.644z" fill="#1badde"/><path d="m90.856 410.868c-19.563 7.06-32.711 25.665-32.711 46.606v29.751c0 10.647 6.751 19.856 16.177 23.361v-53.111c0-14.48 9.282-27.137 23.089-31.5l1.76-.556.255-8.997z" fill="#008cca"/><path d="m141.145 412.165-27.384-1.607-14.59 14.862 49.474 86.58h49.549z" fill="#615260"/><path d="m141.145 412.165-8.385-14.673-40.326 12.734c-.549.173-1.039.451-1.579.642l8.315 14.551z" fill="#4e3d4d"/><path d="m263.612 306.173h-16.355c-4.565 0-8.258-3.698-8.258-8.258s3.694-8.258 8.258-8.258h16.355c4.565 0 8.258 3.698 8.258 8.258s-3.694 8.258-8.258 8.258z" fill="#a46a5a"/><path d="m231.339 284.673c-6.379 0-12.758-1.855-18.323-5.565l-11.032-7.355c-3.798-2.528-4.823-7.657-2.29-11.452 2.516-3.802 7.637-4.831 11.452-2.29l11.032 7.355c5.565 3.71 12.758 3.71 18.323 0l1.871-1.25c3.798-2.532 8.919-1.504 11.452 2.298 2.532 3.794 1.5 8.923-2.29 11.452l-1.871 1.246c-5.566 3.706-11.945 5.561-18.324 5.561z" fill="#c9c5c9"/><path d="m279.073 284.673c-6.379 0-12.758-1.855-18.323-5.565l-1.871-1.242c-3.79-2.528-4.823-7.657-2.29-11.452 2.524-3.802 7.637-4.831 11.452-2.298l1.871 1.246c5.573 3.722 12.766 3.71 18.323.004l11.032-7.355c3.806-2.54 8.927-1.512 11.452 2.29 2.532 3.794 1.508 8.923-2.29 11.452l-11.032 7.355c-5.566 3.71-11.945 5.565-18.324 5.565z" fill="#c9c5c9"/><path d="m132.129 148.645c0 22.804 55.459 41.29 123.871 41.29s123.871-18.486 123.871-41.29z" fill="#4e3d4d"/></g></svg>