<svg id="Capa_1" enable-background="new 0 0 512 512" height="512" viewBox="0 0 512 512" width="512" xmlns="http://www.w3.org/2000/svg"><g><path d="m326.753 341.815c-7.858-4.266-12.947-12.557-12.947-21.771v-18.792l-105.182-4.391-22.588 81.448 151.167 11.728z" fill="#736572"/><path d="m198.194 264.258v55.786c0 9.225-5.133 17.467-13.007 21.729l4.04 16.407c3.246-1.354 6.272-3.099 9.018-5.183 10.107-7.672 16.466-19.82 16.466-32.957 0-6.089 5.602-10.696 11.552-9.408 9.585 2.074 19.532 3.174 29.738 3.174 20.632 0 40.161-4.562 57.806-12.555v-36.993z" fill="#615260"/><path d="m447.277 391.694-10.678-12.62c-5.14-4.34-11.217-7.676-17.972-9.663l-87.036-25.599c-1.696-.499-3.328-1.18-4.837-1.997-17.99 18.393-42.992 29.798-70.753 29.798-21.56 0-41.491-6.904-57.747-18.604l-17.843-2.875-87.036 25.599c-21.087 6.202-28.532 25.555-28.532 47.535v63.958l9.481 23.365c2.583.913 5.363 1.41 8.258 1.41h33.032l8.767-4.841 7.749 4.841h247.742l8.59-7.067 7.926 7.067h33.032c13.682 0 24.774-11.092 24.774-24.774v-70.281c0-9.121-2.493-17.789-6.917-25.252z" fill="#4ce1a1"/><path d="m185.081 359.661c4.862-1.434 9.278-3.687 13.172-6.652-4.648-3.352-9.068-7.149-13.066-11.236-1.509.817-3.081 1.54-4.777 2.039l-87.036 25.598c-21.087 6.202-35.568 25.555-35.568 47.535v70.281c0 10.771 6.916 19.951 16.516 23.364v-93.646c0-5.157 1.276-10.098 3.479-14.543l25.698 21.027c7.694 6.29 12.113 15.605 12.113 25.556v63.016h16.516v-63.016c0-14.927-6.629-28.903-18.177-38.347l-25.418-20.798c2.854-1.996 6.045-3.565 9.499-4.581z" fill="#3ec2a3"/><path d="m272.516 0h-33.032c-21.282 0-41.121 6.19-57.806 16.872l-23.008 90.483v66.065c0 68.412 28.918 122.138 97.33 122.138 8.485 0 24.774-.755 24.774-.755 35.612-7.229 65.677-29.727 83.054-60.372l16.042-118.818v-8.258c.001-59.291-48.063-107.355-107.354-107.355z" fill="#8ceea1"/><path d="m181.677 173.419v-156.547c-29.768 19.083-49.548 52.499-49.548 90.483v8.258l16.087 118.897c21.295 37.49 61.586 62.78 107.784 62.78 8.485 0 16.768-.862 24.774-2.487-56.539-11.478-99.097-61.457-99.097-121.384z" fill="#4ce1a1"/><path d="m153.131 197.566 52.371 48.918 27.161 5.68c7.709 1.614 15.469 2.425 23.229 2.425 7.746 0 15.497-.811 23.178-2.425l84.757-17.733c6.431-11.321 11.044-23.679 13.651-36.865z" fill="#b5ff9b"/><path d="m148.216 234.509 57.286 11.974c-10.484-14.301-17.823-30.874-21.393-48.918h-49.589c2.612 13.21 7.247 25.607 13.696 36.944z" fill="#8ceea1"/><path d="m408.5 423.427 38.777-31.734c-2.826-4.77-6.424-9.029-10.678-12.62l-38.55 31.564c-11.548 9.444-18.177 23.419-18.177 38.347v63.016h16.516v-63.016c-.001-9.952 4.418-19.266 12.112-25.557z" fill="#3ec2a3"/><path d="m181.677 115.613-15.515 29.103 89.838 78.252 121.48-25.402c1.544-7.814 2.391-15.879 2.391-24.146v-57.807z" fill="#736572"/><path d="m181.677 115.613h-49.548v57.806c0 8.267.847 16.333 2.392 24.146l121.479 25.403v-66.065c0-13.682-11.092-24.774-24.774-24.774h-33.032c-9.122 0-16.517-7.394-16.517-16.516z" fill="#615260"/></g></svg>