<svg id="Capa_1" enable-background="new 0 0 512 512" height="512" viewBox="0 0 512 512" width="512" xmlns="http://www.w3.org/2000/svg"><g><path d="m132.129 132.129h41.29v57.806h-41.29z" fill="#a46a5a"/><path d="m338.581 132.129h41.29v57.806h-41.29z" fill="#d48c64"/><path d="m348.065 373.431-34.259-10.076-115.612 7.61-51.251 15.378 84.282 125.657h49.549l67.291-86.127z" fill="#eceaec"/><path d="m313.806 396.387h-106.483v-70.858l106.483-1.303z" fill="#ffd18d"/><path d="m342.541 365.883-15.522-20.696c-2.736-3.649-7.913-4.388-11.561-1.652l-59.458 44.594v16.516h57.806l27.968-27.968c2.906-2.906 3.233-7.506.767-10.794z" fill="#dbd8db"/><path d="m198.194 396.387h16.516v-43.556c0-10.47 9.562-18.019 19.867-16.167 6.953 1.249 14.106 1.917 21.423 1.917 20.89 0 40.542-5.222 57.806-14.354v-35.194h-115.612z" fill="#fbbd80"/><path d="m196.542 343.535c-3.649-2.736-8.825-1.997-11.561 1.652l-15.522 20.696c-1.411 1.882-1.904 4.193-1.525 6.372l-3.999 1.176 5.407 15.628 10.25-3.015 18.602 18.601h57.806v-16.516z" fill="#dbd8db"/><path d="m374.564 181.677h-11.21c-9.122 0-16.516-7.395-16.516-16.516v-4.41l-167.968-7.892-16.29 70.108c4.23 55.419 35.975 98.156 92.478 98.156 5.628 0 12.094.508 17.486-.327 48.745-7.549 86.584-47.929 90.392-97.828h12.804c12.105 0 21.776-10.417 20.538-22.775-1.074-10.746-10.915-18.516-21.714-18.516z" fill="#ffe09c"/><path d="m256 165.161c30.619 0 61.161-1.505 90.839-4.41v-50.04c-59.149 5.916-122.519 5.914-181.677-.003v54.453c0 9.122-7.395 16.516-16.516 16.516h-11.21c-10.799 0-20.64 7.77-21.716 18.515-1.238 12.358 8.433 22.775 20.538 22.775h12.804c4.23 55.419 50.435 99.097 106.938 99.097 5.649 0 11.134-.427 16.545-1.268-51.454-7.941-90.868-52.41-90.868-106.087v-34.834c0-9.576 8.109-17.054 17.667-16.469 18.731 1.147 37.671 1.755 56.656 1.755z" fill="#ffd18d"/><path d="m206.452 207.169c-4.565 0-8.258-3.698-8.258-8.258v-8.258c0-4.56 3.694-8.258 8.258-8.258s8.258 3.698 8.258 8.258v8.258c0 4.561-3.694 8.258-8.258 8.258z" fill="#845252"/><path d="m305.548 207.169c-4.565 0-8.258-3.698-8.258-8.258v-8.258c0-4.56 3.694-8.258 8.258-8.258 4.565 0 8.258 3.698 8.258 8.258v8.258c0 4.561-3.693 8.258-8.258 8.258z" fill="#845252"/><path d="m214.71 173.419h-16.516c-4.565 0-8.258-3.698-8.258-8.258s3.694-8.258 8.258-8.258h16.516c4.565 0 8.258 3.698 8.258 8.258s-3.694 8.258-8.258 8.258z" fill="#a46a5a"/><path d="m313.806 173.419h-16.516c-4.565 0-8.258-3.698-8.258-8.258s3.694-8.258 8.258-8.258h16.516c4.565 0 8.258 3.698 8.258 8.258s-3.693 8.258-8.258 8.258z" fill="#a46a5a"/><path d="m228.749 236.043c-5.633 0-9.908 5.623-7.852 10.868 5.056 12.904 18.863 22.164 35.103 22.164s30.047-9.26 35.103-22.164c2.055-5.245-2.219-10.868-7.852-10.868z" fill="#fff"/><path d="m264.258 421.161h-16.516c-4.561 0-8.258-3.697-8.258-8.258v-16.516c0-4.561 3.697-8.258 8.258-8.258h16.516c4.561 0 8.258 3.697 8.258 8.258v16.516c0 4.561-3.697 8.258-8.258 8.258z" fill="#845252"/><path d="m201.887 377.588c-5.491-2.745-11.951 1.247-11.951 7.387v39.341c0 6.139 6.46 10.132 11.951 7.386l37.597-18.798v-16.516z" fill="#a46a5a"/><path d="m310.113 377.588-37.597 18.799v16.516l37.597 18.798c5.491 2.745 11.951-1.247 11.951-7.386v-39.341c.001-6.138-6.46-10.131-11.951-7.386z" fill="#a46a5a"/><circle cx="256" cy="454.194" fill="#dbd8db" r="8.258"/><circle cx="256" cy="495.484" fill="#dbd8db" r="8.258"/><path d="m171.251 388.497-67.964 11.994c-21.087 6.202-35.568 25.555-35.568 47.535v39.199l6.603 23.368c2.583.913 5.363 1.406 8.258 1.406h148.645z" fill="#a46a5a"/><path d="m98.032 410.032 73.219-21.535-7.317-15.066-70.56 20.753c-21.087 6.202-35.568 25.555-35.568 47.535v45.507c0 10.771 6.916 19.955 16.516 23.368v-68.876c.001-14.549 9.751-27.581 23.71-31.686z" fill="#845252"/><path d="m454.194 487.226v-45.507c0-21.98-14.48-41.333-35.568-47.535l-70.56-20.753-67.292 138.569h148.645c13.683 0 24.775-11.092 24.775-24.774z" fill="#a46a5a"/><path d="m346.839 0h-148.645c-18.243 0-33.032 14.789-33.032 33.032v99.097l214.71-41.29v-57.807c-.001-18.243-14.79-33.032-33.033-33.032z" fill="#a46a5a"/><path d="m198.194 0h-33.032c-18.243 0-33.032 14.789-33.032 33.032v57.806l66.065 17.062v-107.9z" fill="#845252"/><path d="m198.194 90.839-15.631 46.166 73.437 3.382 123.871-8.258v-41.29z" fill="#b0a8af"/><path d="m198.194 90.839h-66.065v41.29l66.065 4.404z" fill="#9e959e"/><path d="m256 148.645c-60.879 0-121.444-6-175.129-17.355-4.46-.944-7.315-5.331-6.371-9.79s5.266-7.315 9.79-6.371c105.161 22.242 238.258 22.242 343.419 0 4.5-.944 8.847 1.911 9.79 6.371s-1.911 8.847-6.371 9.79c-53.684 11.355-114.249 17.355-175.128 17.355z" fill="#845252"/></g></svg>