<svg id="Capa_1" enable-background="new 0 0 512 512" height="512" viewBox="0 0 512 512" width="512" xmlns="http://www.w3.org/2000/svg"><g><path d="m348.874 355.553-34.56-10.165h-116.628l-43.792 26.189 77.114 140.423h49.984l69.68-63.102z" fill="#eceaec"/><path d="m422.614 377.316-17.535 5.012-15.789-14.888-33.322-9.801-33.322 58.365-41.654 95.996h41.652l18.47-10.867 14.853 10.867h33.322l16.549-7.935 16.774 7.935h8.331c13.803 0 24.992-11.189 24.992-24.992v-62.568c-.001-21.272-13.445-40.105-33.321-47.124z" fill="#ff5f7a"/><path d="m189.355 416.003-32.397-51.012-58.232 19.121c-21.272 6.257-35.88 25.779-35.88 47.952v54.943l9.877 23.568c2.607.922 5.412 1.423 8.334 1.423h8.331l16.506-18.686 16.816 18.688h33.322l15.345-18.686 17.978 18.686h41.653z" fill="#ff5f7a"/><g fill="#fb4455"><path d="m91.946 376.488c-.889.261-1.692.678-2.558.985v134.527h33.322v-144.561z"/><path d="m420.054 376.488c.889.261 1.692.526 2.558.833v134.679h-33.322v-144.561z"/><path d="m156.033 357.639v154.361h33.322v-95.997l-26.229-60.45z"/><path d="m355.967 357.639v154.361h-33.322v-95.997l26.229-60.45z"/></g><path d="m206.237 305.916h108.077v72.795h-108.077z" fill="#ffd18d"/><path d="m343.301 347.939-15.658-20.878c-2.761-3.681-7.982-4.427-11.663-1.666l-59.98 44.985v16.661h58.314l28.213-28.213c2.932-2.932 3.262-7.573.774-10.889z" fill="#dbd8db"/><path d="m197.686 378.711h16.661v-43.939c0-10.562 9.646-18.177 20.042-16.309 7.014 1.26 14.23 1.934 21.611 1.934 21.074 0 40.898-5.268 58.314-14.48v-35.503h-116.628z" fill="#fbbd80"/><path d="m196.02 325.395c-3.681-2.761-8.902-2.015-11.663 1.666l-15.658 20.878c-1.424 1.898-1.92 4.23-1.538 6.428l-4.034 1.186-.705 17.577 16.5-4.853 18.765 18.765h58.313v-16.662z" fill="#dbd8db"/><path d="m163.55 62.148h9.144v99.967l-38.876 16.661-11.355-68.128c-4.231-25.388 15.348-48.5 41.087-48.5z" fill="#fb4455"/><path d="m348.45 62.148h-9.144v99.967l38.876 16.661 11.355-68.128c4.231-25.388-15.348-48.5-41.087-48.5z" fill="#ff5f7a"/><path d="m375.606 162.115h-11.308c-9.202 0-16.661-7.459-16.661-16.661v-66.645h-175.282l-6.733 124.959c4.267 55.906 33.379 99.012 90.378 99.012 5.741 0 11.377.508 16.875-.353 49.084-7.688 87.164-48.385 91.001-98.659h12.917c12.211 0 21.967-10.509 20.719-22.975-1.085-10.84-11.013-18.678-21.906-18.678z" fill="#ffe09c"/><path d="m322.645 87.14h-141.62c-9.202 0-16.661 7.459-16.661 16.661v41.653c0 9.202-7.459 16.661-16.661 16.661h-11.308c-10.894 0-20.821 7.838-21.906 18.678-1.248 12.466 8.507 22.975 20.719 22.975h12.917c4.267 55.906 50.878 99.967 107.877 99.967 5.698 0 11.416-.46 16.875-1.308-51.906-8.01-91.851-52.841-91.851-106.99v-74.975c0-9.202 7.459-16.661 16.661-16.661h108.298c9.2 0 16.66-7.46 16.66-16.661z" fill="#ffd18d"/><g fill="#ff5f7a"><path d=""/><path d="m370.063 12.083-13.727-2.929c-8.668 4.846-24.812 11.111-50.353 11.111h-74.975c-36.807 0-66.798 37.14-49.984 66.875h141.62c30.023 0 60.046-27.05 47.419-75.057z"/></g><path d="m206.016 187.831c-4.605 0-8.331-3.73-8.331-8.331v-8.331c0-4.601 3.726-8.331 8.331-8.331s8.331 3.73 8.331 8.331v8.331c0 4.601-3.726 8.331-8.331 8.331z" fill="#c6805d"/><path d="m305.984 187.831c-4.605 0-8.331-3.73-8.331-8.331v-8.331c0-4.601 3.726-8.331 8.331-8.331s8.331 3.73 8.331 8.331v8.331c-.001 4.601-3.727 8.331-8.331 8.331z" fill="#c6805d"/><path d="m214.347 153.784h-16.661c-4.605 0-8.331-3.73-8.331-8.331s3.726-8.331 8.331-8.331h16.661c4.605 0 8.331 3.73 8.331 8.331s-3.726 8.331-8.331 8.331z" fill="#ff5f7a"/><path d="m314.314 153.784h-16.661c-4.605 0-8.331-3.73-8.331-8.331s3.726-8.331 8.331-8.331h16.661c4.605 0 8.331 3.73 8.331 8.331s-3.726 8.331-8.331 8.331z" fill="#ff5f7a"/><path d="m228.51 216.958c-5.683 0-9.995 5.672-7.921 10.964 5.1 13.017 19.029 22.359 35.411 22.359s30.311-9.341 35.411-22.359c2.073-5.291-2.239-10.964-7.921-10.964z" fill="#fff"/><path d="m264.331 403.702h-16.661c-4.601 0-8.331-3.73-8.331-8.331v-16.661c0-4.601 3.73-8.331 8.331-8.331h16.661c4.601 0 8.331 3.73 8.331 8.331v16.661c-.001 4.602-3.731 8.331-8.331 8.331z" fill="#fb4455"/><path d="m201.411 359.746c-5.539-2.77-12.056 1.258-12.056 7.451v39.686c0 6.193 6.517 10.221 12.056 7.451l37.927-18.964v-16.661z" fill="#ff5f7a"/><path d="m310.589 359.746-37.927 18.964v16.661l37.927 18.964c5.539 2.77 12.056-1.258 12.056-7.451v-39.686c0-6.193-6.517-10.221-12.056-7.452z" fill="#ff5f7a"/><path d="m231.008 28.826h74.975c34.38 0 54.729-10.317 64.08-16.742-.552-2.111-1.154-4.132-1.874-6.323-1.617-4.922-7.293-7.26-11.814-4.729-8.659 4.849-24.813 11.133-50.392 11.133h-74.975c-36.807 0-66.645 29.838-66.645 66.645v24.992c0-9.202 7.459-16.661 16.661-16.661v-8.331c.001-27.606 22.379-49.984 49.984-49.984z" fill="#fb4455"/><circle cx="256" cy="445.355" fill="#dbd8db" r="8.331"/><circle cx="256" cy="487.008" fill="#dbd8db" r="8.331"/><path d="m96.645 392.475 73.165-21.52-6.684-15.403-71.18 20.935c-21.272 6.256-35.88 25.779-35.88 47.953v62.567c0 10.866 6.977 20.116 16.661 23.559v-86.128c0-14.675 9.836-27.822 23.918-31.963z" fill="#fb4455"/></g></svg>