<svg id="Capa_1" enable-background="new 0 0 512 512" height="512" viewBox="0 0 512 512" width="512" xmlns="http://www.w3.org/2000/svg"><g><path d="m418.626 394.185-5.723-1.683-16.516-16.799-16.516 7.084-15.785 3.83-17.247-13.546-15.248-4.485c-10.544-3.101-17.784-12.778-17.784-23.768v-18.792l-105.612 1.221-10.001 43.689-104.82 30.829c-21.087 6.202-28.541 25.555-28.541 47.535v29.668c0 13.682 11.092 24.774 24.774 24.774h339.813c13.682 0 24.774-11.092 24.774-24.774v-37.249c0-21.98-14.481-41.332-35.568-47.534z" fill="#736572"/><path d="m198.194 289.032v55.786c0 10.99-7.24 20.666-17.784 23.768l-87.036 25.599c-21.087 6.202-35.568 25.555-35.568 47.535v37.248l16.516 15.54v-52.79c0-14.548 9.75-27.581 23.71-31.685l34.097-10.026v78.962l18.52-18.52c9.292-9.292 14.513-21.895 14.513-35.036v-35.119l19.919-5.857c17.444-5.145 29.629-21.435 29.629-39.621v-12.428c13.057 4.013 26.917 6.194 41.29 6.194 20.632 0 40.161-4.561 57.806-12.555v-36.993h-115.612z" fill="#615260"/><path d="m256 .635c-68.412 0-112.964 54.824-112.964 123.236h236.835c0-62.793-46.722-114.672-107.297-122.772-5.422-.725-10.954-.464-16.574-.464z" fill="#ffd05b"/><path d="m272.573 1.099c-5.416-.724-10.959-1.099-16.573-1.099-68.412 0-123.871 55.459-123.871 123.871h33.032c0-62.798 46.829-114.679 107.412-122.772z" fill="#ffc244"/><ellipse cx="256" cy="148.645" fill="#ffaa5a" rx="214.71" ry="66.065"/><path d="m256 122.671c-68.412 0-100.801 24.247-100.801 42.49v33.032c0 68.412 32.389 123.871 100.801 123.871s123.871-55.459 123.871-123.871v-33.032c0-24.246-55.459-42.49-123.871-42.49z" fill="#615260"/><path d="m388.9 347.901 7.487 39.742 16.516 4.858v-37.405c0-41.047-33.275-74.323-74.323-74.323h-27.2l-3.06 23.448h30.26c22.805.001 50.32 20.876 50.32 43.68z" fill="#b8b2b8"/><path d="m338.581 297.29h-10.184c-7.591 0-14.327-5.153-15.985-12.56-.299-1.336-.644-2.655-1.031-3.956h-47.123v33.032h74.323c22.804 0 41.29 18.486 41.29 41.29v27.689l16.516 4.858v-32.547c0-31.925-25.881-57.806-57.806-57.806z" fill="#9e959e"/><path d="m346.838 126.187h-181.677c-20.5 5.894-33.032 13.785-33.032 22.458v49.548c0 68.412 55.459 123.871 123.871 123.871v-189.935c68.412 0 123.871 14.789 123.871 33.032v-16.516c0-8.673-12.533-16.564-33.033-22.458z" fill="#4e3d4d"/><path d="m346.839 142.7c-10.5-15.251-54.895-23.504-90.839-23.504s-61.667 4.107-84.294 10.628v51.854c0 50.169 34.125 90.839 84.294 90.839s90.839-40.67 90.839-90.839z" fill="#eceaec"/><path d="m256 115.613c-35.944 0-68.211 4.053-90.839 10.574v55.49c0 50.169 40.67 90.839 90.839 90.839v-16.516c-41.047 0-74.323-33.275-74.323-74.323v-28.972c0-8.135 5.874-15.122 13.919-16.335 17.852-2.691 38.419-4.242 60.404-4.242 35.944 0 68.211 4.05 90.839 10.571v-16.516c-22.628-6.52-54.895-10.57-90.839-10.57z" fill="#dbd8db"/><circle cx="256" cy="297.29" fill="#c9c5c9" r="41.29"/><path d="m256 445.935c-4.565 0-8.258-3.694-8.258-8.258v-8.258c0-4.565 3.694-8.258 8.258-8.258s8.258 3.694 8.258 8.258v8.258c0 4.565-3.693 8.258-8.258 8.258z" fill="#615260"/><path d="m256 396.387c-4.565 0-8.258-3.694-8.258-8.258v-8.258c0-4.565 3.694-8.258 8.258-8.258s8.258 3.694 8.258 8.258v8.258c0 4.565-3.693 8.258-8.258 8.258z" fill="#615260"/><circle cx="256" cy="297.29" fill="#b8b2b8" r="24.774"/><path d="m74.323 478.968-7.956 13.15 7.957 18.473c2.583.913 5.361 1.409 8.256 1.409h346.839c13.682 0 24.774-11.092 24.774-24.774v-8.258z" fill="#ffd05b"/><path d="m74.323 510.595v-31.627h-16.517v8.258c0 10.771 6.916 19.956 16.517 23.369z" fill="#ffc244"/><path d="m379.871 478.968v-96.182l-33.032-9.715v52.341c0 13.141 5.22 25.744 14.513 35.036z" fill="#615260"/></g></svg>