<svg id="Capa_1" enable-background="new 0 0 512 512" height="512" viewBox="0 0 512 512" width="512" xmlns="http://www.w3.org/2000/svg"><g><path d="m313.806 512h-115.612l-8.259-140.387h132.13z" fill="#4e3d4d"/><path d="m192.799 423.155c17.155 14.223 39.176 22.78 63.201 22.78s46.046-8.557 63.201-22.78l2.863-51.542h-132.129z" fill="#615260"/><path d="m181.677 297.29v41.29c0 41.047 33.275 74.323 74.323 74.323s74.323-33.275 74.323-74.323v-41.29z" fill="#f4aa73"/><path d="m181.677 338.581c0 25.765 13.118 48.456 33.032 61.79v-39.281c0-10.47 9.562-18.019 19.867-16.167 6.953 1.249 14.106 1.917 21.423 1.917 27.926 0 53.605-9.352 74.323-24.943v-24.607h-148.645z" fill="#e29a6c"/><path d="m338.581 379.871 79.678 22.768c21.27 6.078 35.935 25.52 35.935 47.641v36.945c0 13.682-11.092 24.774-24.774 24.774h-82.581z" fill="#887f88"/><path d="m397.882 357.843c7.739 7.094 6.982 19.513-1.56 25.615l-29.661 21.187 12.763 24.547c5.394 10.375 4.901 22.829-1.296 32.745l-31.289 50.063h-33.032v-231.226z" fill="#9e959e"/><path d="m93.741 412.59c-21.27 6.078-29.768 25.52-29.768 47.642v26.994l10.35 23.365c2.583.913 5.362 1.409 8.258 1.409h82.581l8.258-122.178z" fill="#887f88"/><path d="m57.806 450.281v36.945c0 10.771 6.916 19.954 16.516 23.366v-60.31c0-14.669 9.855-27.73 23.96-31.762l74.109-21.179 1.028-17.47-79.678 22.768c-21.27 6.078-35.935 25.52-35.935 47.642z" fill="#736572"/><path d="m114.118 357.843c-7.739 7.094-6.982 19.513 1.56 25.615l29.661 21.187-12.763 24.547c-5.394 10.375-4.901 22.829 1.296 32.745l31.289 50.063h33.032v-231.226z" fill="#9e959e"/><path d="m132.129 132.129h41.29v66.065h-41.29z" fill="#4e3d4d"/><path d="m338.581 132.129h41.29v66.065h-41.29z" fill="#615260"/><path d="m374.564 189.935h-11.21c-9.122 0-16.516-7.395-16.516-16.516v-16.516l-9.636-9.035-165.502 4.778v20.773c0 9.122-15.638 57.806-15.638 57.806 4.23 55.419 43.434 98.461 99.937 98.461 5.673 0 11.241.196 16.674-.652 48.683-7.6 86.458-47.953 90.263-97.808h12.804c12.105 0 21.776-10.417 20.538-22.775-1.074-10.746-10.915-18.516-21.714-18.516z" fill="#fbbd80"/><path d="m181.677 222.968v-49.548c0-9.122 7.395-16.516 16.516-16.516h148.645v-24.774h-181.677v41.29c0 9.122-7.395 16.516-16.516 16.516h-11.21c-10.799 0-20.64 7.77-21.716 18.515-1.238 12.358 8.433 22.775 20.538 22.775h12.804c4.23 55.419 50.435 99.097 106.938 99.097 5.649 0 11.263-.447 16.674-1.288-51.452-7.941-90.996-52.39-90.996-106.067z" fill="#f4aa73"/><path d="m206.452 214.714c-4.565 0-8.258-3.698-8.258-8.258v-8.258c0-4.56 3.694-8.258 8.258-8.258s8.258 3.698 8.258 8.258v8.258c0 4.56-3.694 8.258-8.258 8.258z" fill="#4e3d4d"/><path d="m305.548 214.714c-4.565 0-8.258-3.698-8.258-8.258v-8.258c0-4.56 3.694-8.258 8.258-8.258 4.565 0 8.258 3.698 8.258 8.258v8.258c0 4.56-3.693 8.258-8.258 8.258z" fill="#4e3d4d"/><path d="m256 272.52c-12.387 0-23.823-3.976-30.573-10.637-3.25-3.202-3.282-8.431-.081-11.677 3.202-3.25 8.444-3.282 11.677-.081 2.75 2.714 9.371 5.879 18.976 5.879s16.226-3.165 18.976-5.879c3.234-3.202 8.476-3.169 11.677.081 3.202 3.246 3.169 8.476-.081 11.677-6.748 6.661-18.184 10.637-30.571 10.637z" fill="#e29a6c"/><path d="m214.71 181.681h-16.516c-4.565 0-8.258-3.698-8.258-8.258s3.694-8.258 8.258-8.258h16.516c4.565 0 8.258 3.698 8.258 8.258s-3.694 8.258-8.258 8.258z" fill="#615260"/><path d="m313.806 181.681h-16.516c-4.565 0-8.258-3.698-8.258-8.258s3.694-8.258 8.258-8.258h16.516c4.565 0 8.258 3.698 8.258 8.258s-3.693 8.258-8.258 8.258z" fill="#615260"/><path d="m355.099 50.22v-17.191c-.002-9.121-7.396-16.513-16.517-16.513l-16.518 9.096c-12.583-5.783-26.535-9.096-41.29-9.096h-8.258v-8.258c0-4.561-3.697-8.258-8.258-8.258h-8.258l-16.516 16.516h-8.258c-5.634 0-11.152.483-16.52 1.402l-24.77 7.694v-.838c0-4.561-3.697-8.258-8.258-8.258h-8.26l-19.526 76.619 37.357 38.994h188.622v-16.516c0-25.09-9.399-47.935-24.772-65.393z" fill="#ffc263"/><g fill="#ffaa5a"><path d="m189.935 25.612v15.678c0 4.56-3.697 8.258-8.258 8.258s-8.258-3.698-8.258-8.258v-24.774h-.002c-9.12 0-16.515 7.393-16.516 16.514l-.001 17.191c-15.372 17.458-24.772 40.302-24.772 65.392v16.516h82.581v-114.211c-8.674 1.49-17.008 4.125-24.774 7.694z"/><path d="m247.742 41.29c-4.561 0-8.258-3.697-8.258-8.258v-24.774c0-4.561 3.697-8.258 8.258-8.258h8.258v33.032c0 4.561-3.697 8.258-8.258 8.258z"/><path d="m330.323 49.548c-4.561 0-8.258-3.697-8.258-8.258v-16.516c0-4.561 3.697-8.258 8.258-8.258h8.258v24.774c0 4.561-3.698 8.258-8.258 8.258z"/></g><path d="m231.226 90.839h-90.839c-4.565 0-8.258-3.698-8.258-8.258s3.694-8.258 8.258-8.258h90.839c4.565 0 8.258 3.698 8.258 8.258s-3.694 8.258-8.258 8.258z" fill="#4e3d4d"/><path d="m371.613 90.839h-90.839c-4.565 0-8.258-3.698-8.258-8.258s3.694-8.258 8.258-8.258h90.839c4.565 0 8.258 3.698 8.258 8.258s-3.694 8.258-8.258 8.258z" fill="#615260"/><path d="m256.013 107.355c-53.648 0-102.205 9.021-137.39 23.602-4.933 2.044-3.382 9.43 1.957 9.43h135.433 135.433c5.34 0 6.89-7.386 1.957-9.43-35.185-14.581-83.742-23.602-137.39-23.602z" fill="#ff8b57"/><circle cx="256" cy="82.581" fill="#615260" r="33.032"/><circle cx="256" cy="82.581" fill="#fff" r="16.516"/></g></svg>