<svg id="Capa_1" enable-background="new 0 0 512 512" height="512" viewBox="0 0 512 512" width="512" xmlns="http://www.w3.org/2000/svg"><g><path d="m326.764 350.079c-7.864-4.265-12.958-12.559-12.958-21.777v-20.591l-103.658-6.289-17.593 66.461 120.543 54.733z" fill="#fbbd80"/><path d="m198.194 247.742v80.559c0 9.217-5.092 17.509-12.954 21.775l4.955 15.948c14.75-6.55 24.515-21.248 24.515-37.722 0-6.591 6.203-11.235 12.61-9.684 9.201 2.228 18.791 3.447 28.681 3.447 20.89 0 40.542-5.222 57.806-14.354v-59.968h-115.613z" fill="#f4aa73"/><path d="m418.626 377.668-87.035-25.599c-1.696-.499-3.318-1.173-4.826-1.991-17.99 18.393-43.003 29.792-70.764 29.792-21.559 0-41.489-6.904-57.744-18.602l-17.846.268-87.035 25.599c-21.087 6.202-30.701 25.555-30.701 47.535v52.556l11.65 23.365c2.583.913 5.362 1.409 8.257 1.409h24.774l21.78-14.018 19.509 14.018h214.71l21.743-11.846 19.547 11.846h24.774c13.682 0 24.774-11.092 24.774-24.774v-62.023c.001-21.98-14.48-41.333-35.567-47.535z" fill="#1badde"/><path d="m185.24 350.076c-1.509.817-3.134 1.494-4.83 1.993l-87.036 25.599c-21.087 6.202-35.568 25.555-35.568 47.535v62.022c0 10.771 6.916 19.955 16.516 23.367v-85.391c0-14.651 9.651-27.55 23.706-31.685l87.046-25.607c4.889-1.438 9.286-3.697 13.18-6.642-4.658-3.356-9.008-7.094-13.014-11.191z" fill="#008cca"/><path d="m181.596 16.516h49.548v156.903h-107.355v-99.096c0-31.926 25.881-57.807 57.807-57.807z" fill="#c6805d"/><path d="m214.628 0h74.323c54.73 0 99.097 44.367 99.097 99.097v82.581h-206.452v-148.646c0-18.243 14.789-33.032 33.032-33.032z" fill="#d48c64"/><path d="m375.742 165.161h-12.387c-9.122 0-16.516-7.395-16.516-16.517l-.041-20.831c-.024-11.876-8.472-22.065-20.139-24.287l-133.715-25.47c-1.041-.198-2.074-.295-3.09-.297l-25.534 128.693c0 25.685 35.178 99.097 91.68 99.097s102.702-43.678 106.932-99.097h11.63c10.8 0 20.642-7.771 21.718-18.517 1.238-12.358-8.433-22.774-20.538-22.774z" fill="#ffd18d"/><path d="m239.484 148.645v33.032c0-4.561 7.395-8.258 16.516-8.258s16.516 3.697 16.516 8.258v-33.032z" fill="#736572"/><path d="m387.379 322.924v43.346l25.525 9.716v-45.663c0-41.047-33.275-74.323-74.323-74.323h-27.2l-9.034 25.634h43.741c22.804 0 41.291 18.486 41.291 41.29z" fill="#c9c5c9"/><path d="m338.581 272.516h-17.093c-4.091 0-7.614-2.997-8.119-7.057-.403-3.243-1.077-6.402-1.988-9.459h-47.123v33.032h74.323c22.804 0 41.29 18.486 41.29 41.29v35.947l16.516 4.858v-40.805c0-31.925-25.881-57.806-57.806-57.806z" fill="#b8b2b8"/><path d="m189.854 198.194v-120.434c-8.913-.014-16.516 7.224-16.516 16.521v29.59c0 22.804-13.095 41.29-35.899 41.29-10.799 0-20.641 7.77-21.718 18.515-1.238 12.358 8.432 22.775 20.537 22.775h12.804c4.23 55.419 50.435 99.097 106.938 99.097 7.092 0 14.021-.692 20.726-2.005-49.485-9.568-86.872-53.07-86.872-105.349z" fill="#fbbd80"/><path d="m214.71 214.71h-24.774c-13.661 0-24.774-11.113-24.774-24.774v-41.29c0-4.565 3.694-8.258 8.258-8.258h66.065c4.565 0 8.258 3.694 8.258 8.258v33.032c-.001 18.217-14.816 33.032-33.033 33.032z" fill="#615260"/><circle cx="256" cy="272.516" fill="#736572" r="41.29"/><path d="m137.934 353.843-24.774 7.706c-3.453 1.074-5.805 4.27-5.805 7.886v142.565h41.29v-150.271c0-5.567-5.395-9.539-10.711-7.886z" fill="#615260"/><circle cx="256" cy="272.516" fill="#c9c5c9" r="24.774"/><path d="m374.066 353.843 24.774 7.706c3.453 1.074 5.805 4.27 5.805 7.886v142.565h-41.29v-150.271c0-5.567 5.395-9.539 10.711-7.886z" fill="#615260"/><path d="m181.677 156.903v33.032c0 4.556 3.702 8.258 8.258 8.258h24.774c9.105 0 16.516-7.411 16.516-16.516v-24.774z" fill="#eceaec"/><path d="m297.29 214.71h24.774c13.661 0 24.774-11.113 24.774-24.774v-41.29c0-4.565-3.694-8.258-8.258-8.258h-66.065c-4.565 0-8.258 3.694-8.258 8.258v33.032c.001 18.217 14.816 33.032 33.033 33.032z" fill="#615260"/><path d="m330.323 156.903v33.032c0 4.556-3.702 8.258-8.258 8.258h-24.775c-9.105 0-16.516-7.411-16.516-16.516v-24.774z" fill="#eceaec"/></g></svg>