<svg id="Capa_1" enable-background="new 0 0 512 512" height="512" viewBox="0 0 512 512" width="512" xmlns="http://www.w3.org/2000/svg"><g><path d="m418.626 361.152-87.035-25.599c-10.544-3.101-17.784-12.778-17.784-23.768v-20.591h-110.177v39.128l-110.256 35.609c-21.087 6.202-26.577 20.776-26.577 42.756v78.539l7.525 23.364c2.583.913 5.363 1.41 8.258 1.41h346.838c13.682 0 24.774-11.092 24.774-24.774v-78.538c.001-21.981-14.479-41.334-35.566-47.536z" fill="#615260"/><path d="m98.029 377.001 87.046-25.606c17.57-5.169 29.635-21.294 29.635-39.608 0-6.591 6.203-11.235 12.61-9.684 9.201 2.228 18.791 3.447 28.681 3.447 20.89 0 40.542-5.222 57.806-14.354v-59.968h-115.613v80.559c0 10.99-7.24 20.666-17.784 23.767l-87.036 25.599c-21.087 6.202-35.568 25.555-35.568 47.535v78.538c0 10.771 6.916 19.952 16.516 23.364v-101.904c.001-14.651 9.652-27.55 23.707-31.685z" fill="#4e3d4d"/><path d="m231.226 302.982v19.083c0 4.56 3.697 8.258 8.258 8.258h33.032c4.561 0 8.258-3.698 8.258-8.258v-19.206z" fill="#eceaec"/><path d="m231.226 302.982c8.017 1.674 16.257 2.567 24.774 2.567 8.493 0 16.767-.857 24.774-2.496v-30.537h-49.548z" fill="#dbd8db"/><path d="m379.871 149.062-39.091-128.836c-7.033-5.359-14.805-9.799-23.135-13.14l-123.294.002c-1.49.598-2.962 1.231-4.416 1.898l-23.446 180.95c4.23 55.419 33.008 97.479 89.51 97.479 7.165 0 20.934-.425 20.934-.425 46.612-9.224 82.31-48.663 86.004-97.055h12.804c11.402 0 20.645-9.243 20.645-20.645.001-9.987-7.092-18.315-16.515-20.228z" fill="#ffe09c"/><path d="m189.936 181.678v-172.692c-6.667 3.064-12.937 6.848-18.711 11.251l-39.095 128.825c-9.423 1.913-16.517 10.241-16.517 20.229 0 11.402 9.243 20.645 20.645 20.645h12.804c4.23 55.419 50.435 99.097 106.937 99.097 7.103 0 14.218-.725 20.934-2.042-49.46-9.588-86.997-53.051-86.997-105.313z" fill="#ffd18d"/><path d="m280.775 0h-49.548c-13.034 0-25.476 2.514-36.875 7.088 9.527 24.777 33.516 42.461 61.649 42.461s52.118-17.686 61.644-42.463c-11.4-4.574-23.837-7.086-36.87-7.086z" fill="#c9c5c9"/><path d="m132.13 99.097v49.549h8.258c13.682 0 24.774-11.092 24.774-24.774v-14.019c0-5.044 1.542-9.965 4.452-14.086 7.583-10.738 12.064-23.813 12.064-37.96 0-11.391-4.075-26.245-10.453-37.57-23.747 18.104-39.095 46.694-39.095 78.86z" fill="#b8b2b8"/><path d="m379.87 99.097v49.549h-8.258c-13.682 0-24.774-11.092-24.774-24.774v-14.019c0-5.044-1.542-9.965-4.452-14.086-7.583-10.738-12.065-23.813-12.065-37.96 0-11.391 4.08-26.256 10.457-37.581 23.749 18.104 39.092 46.705 39.092 78.871z" fill="#c9c5c9"/><path d="m181.677 156.904h-49.548c-4.565 0-8.258-3.698-8.258-8.258s3.694-8.258 8.258-8.258h49.548c4.565 0 8.258 3.698 8.258 8.258.001 4.56-3.693 8.258-8.258 8.258z" fill="#887f88"/><path d="m379.871 156.904h-49.548c-4.565 0-8.258-3.698-8.258-8.258s3.694-8.258 8.258-8.258h49.548c4.565 0 8.258 3.698 8.258 8.258s-3.694 8.258-8.258 8.258z" fill="#887f88"/><path d="m272.516 173.42c-4.565 0-8.258-3.698-8.258-8.258 0-4.552-3.702-8.258-8.258-8.258s-8.258 3.706-8.258 8.258c0 4.56-3.694 8.258-8.258 8.258s-8.258-3.698-8.258-8.258c0-13.661 11.113-24.774 24.774-24.774s24.774 11.113 24.774 24.774c0 4.56-3.693 8.258-8.258 8.258z" fill="#887f88"/><g fill="#b8b2b8"><path d="m222.968 123.871h-24.774c-4.565 0-8.258-3.698-8.258-8.258s3.694-8.258 8.258-8.258h24.774c4.565 0 8.258 3.698 8.258 8.258 0 4.561-3.694 8.258-8.258 8.258z"/><path d="m313.806 123.871h-24.774c-4.565 0-8.258-3.698-8.258-8.258s3.694-8.258 8.258-8.258h24.774c4.565 0 8.258 3.698 8.258 8.258 0 4.561-3.693 8.258-8.258 8.258z"/><path d="m256 421.161c-49.21 0-95.443-26.282-120.669-68.593-2.331-3.919-1.048-8.988 2.871-11.323 3.911-2.343 8.984-1.052 11.323 2.863 22.258 37.339 63.056 60.536 106.476 60.536 43.694 0 84.621-23.415 106.822-61.113 2.298-3.931 7.355-5.246 11.306-2.927 3.927 2.315 5.234 7.375 2.919 11.306-25.145 42.715-71.532 69.251-121.048 69.251z"/></g><path d="m280.774 462.452h-16.516v-16.516c0-4.56-3.694-8.258-8.258-8.258s-8.258 3.698-8.258 8.258v16.516h-16.516c-4.565 0-8.258 3.698-8.258 8.258s3.694 8.258 8.258 8.258h16.516v33.032h16.516v-33.032h16.516c4.565 0 8.258-3.698 8.258-8.258s-3.693-8.258-8.258-8.258z" fill="#eceaec"/><path d="m256 231.226c-12.387 0-23.823-3.976-30.573-10.637-3.25-3.202-3.282-8.431-.081-11.677 3.202-3.25 8.444-3.282 11.677-.081 2.75 2.714 9.371 5.879 18.976 5.879s16.226-3.165 18.976-5.879c3.234-3.202 8.476-3.169 11.677.081 3.202 3.246 3.169 8.476-.081 11.677-6.748 6.661-18.184 10.637-30.571 10.637z" fill="#fbbd80"/><path d="m210.581 165.162c-4.565 0-8.258-3.698-8.258-8.258v-8.258c0-4.56 3.694-8.258 8.258-8.258s8.258 3.698 8.258 8.258v8.258c0 4.56-3.694 8.258-8.258 8.258z" fill="#845252"/><path d="m222.968 189.936h-24.774c-13.661 0-24.774-11.113-24.774-24.774v-24.774c0-4.56 3.694-8.258 8.258-8.258h57.806c4.565 0 8.258 3.698 8.258 8.258v24.774c0 13.661-11.113 24.774-24.774 24.774zm-33.032-41.29v16.516c0 4.552 3.702 8.258 8.258 8.258h24.774c4.556 0 8.258-3.706 8.258-8.258v-16.516z" fill="#615260"/><path d="m301.419 165.162c-4.565 0-8.258-3.698-8.258-8.258v-8.258c0-4.56 3.694-8.258 8.258-8.258s8.258 3.698 8.258 8.258v8.258c0 4.56-3.693 8.258-8.258 8.258z" fill="#845252"/><path d="m313.806 189.936h-24.774c-13.661 0-24.774-11.113-24.774-24.774v-24.774c0-4.56 3.694-8.258 8.258-8.258h57.806c4.565 0 8.258 3.698 8.258 8.258v24.774c.001 13.661-11.112 24.774-24.774 24.774zm-33.032-41.29v16.516c0 4.552 3.702 8.258 8.258 8.258h24.774c4.556 0 8.258-3.706 8.258-8.258v-16.516z" fill="#615260"/></g></svg>