<svg id="Capa_1" enable-background="new 0 0 512 512" height="512" viewBox="0 0 512 512" width="512" xmlns="http://www.w3.org/2000/svg"><g><path d="m132.129 140.387h41.29v57.806h-41.29z" fill="#845252"/><path d="m338.581 140.387h41.29v57.806h-41.29z" fill="#a46a5a"/><path d="m331.204 376.726c-10.333-3.222-17.397-12.795-17.397-23.65v-20.591l-109.96 1.738v37.39l-39.095 24.727 77.755 77.755h88.832z" fill="#ffd18d"/><g><path d="m198.194 289.032v64.043c0 10.828-7.106 20.405-17.397 23.651l4.278 15.958c17.57-5.169 29.635-21.294 29.635-39.608 0-6.591 6.203-11.235 12.61-9.685 9.201 2.228 18.791 3.447 28.681 3.447 20.89 0 40.542-5.222 57.806-14.354v-43.452z" fill="#fbbd80"/></g><path d="m374.564 189.935h-11.21c-9.122 0-16.516-7.395-16.516-16.516v-16.516l-165.364-24.237-16.941 98.559c4.23 55.419 34.964 98.219 91.466 98.219 5.64 0 11.178.443 16.581-.396 48.728-7.563 86.549-47.936 90.356-97.823h12.804c12.105 0 21.776-10.417 20.538-22.775-1.074-10.745-10.915-18.515-21.714-18.515z" fill="#ffe09c"/><path d="m181.677 222.968v-49.548c0-9.122 7.395-16.516 16.516-16.516h148.645v-33.032h-181.677v49.548c0 9.122-7.395 16.516-16.516 16.516h-11.21c-10.799 0-20.64 7.77-21.716 18.515-1.238 12.358 8.433 22.775 20.538 22.775h12.804c4.23 55.419 50.435 99.097 106.938 99.097 5.649 0 11.17-.433 16.581-1.274-51.452-7.941-90.903-52.404-90.903-106.081z" fill="#ffd18d"/><path d="m206.452 214.71c-4.565 0-8.258-3.698-8.258-8.258v-8.258c0-4.56 3.694-8.258 8.258-8.258s8.258 3.698 8.258 8.258v8.258c0 4.56-3.694 8.258-8.258 8.258z" fill="#845252"/><path d="m305.548 214.71c-4.565 0-8.258-3.698-8.258-8.258v-8.258c0-4.56 3.694-8.258 8.258-8.258s8.258 3.698 8.258 8.258v8.258c0 4.56-3.693 8.258-8.258 8.258z" fill="#845252"/><path d="m256 272.516c-12.387 0-23.823-3.976-30.573-10.637-3.25-3.202-3.282-8.431-.081-11.677s8.444-3.282 11.677-.081c2.75 2.714 9.371 5.879 18.976 5.879s16.226-3.165 18.976-5.879c3.234-3.202 8.476-3.165 11.677.081s3.169 8.476-.081 11.677c-6.748 6.661-18.184 10.637-30.571 10.637z" fill="#fbbd80"/><path d="m214.71 181.677h-16.516c-4.565 0-8.258-3.698-8.258-8.258s3.694-8.258 8.258-8.258h16.516c4.565 0 8.258 3.698 8.258 8.258s-3.694 8.258-8.258 8.258z" fill="#845252"/><path d="m313.806 181.677h-16.516c-4.565 0-8.258-3.698-8.258-8.258s3.694-8.258 8.258-8.258h16.516c4.565 0 8.258 3.698 8.258 8.258s-3.693 8.258-8.258 8.258z" fill="#845252"/><path d="m355.099 50.22v-17.191c-.002-9.121-7.396-16.513-16.517-16.513l-16.518 9.096c-12.583-5.783-26.535-9.096-41.29-9.096h-8.258v-8.258c0-4.561-3.697-8.258-8.258-8.258h-8.258l-16.516 16.516h-8.258c-5.633 0-11.149.483-16.517 1.402l-24.774 7.695v-.838c0-4.561-3.697-8.258-8.258-8.258h-8.26l-34.296 115.613h240.749v-16.516c.001-25.091-9.398-47.936-24.771-65.394z" fill="#ffc263"/><g fill="#ffaa5a"><path d="m189.935 25.612v15.678c0 4.56-3.697 8.258-8.258 8.258s-8.258-3.698-8.258-8.258v-24.774h-.002c-9.12 0-16.515 7.393-16.516 16.514l-.001 17.191c-15.372 17.458-24.772 40.302-24.772 65.392v16.516h82.581v-114.209c-8.674 1.49-17.008 4.123-24.774 7.692z"/><path d="m247.742 41.29c-4.561 0-8.258-3.697-8.258-8.258v-24.774c0-4.561 3.697-8.258 8.258-8.258h8.258v33.032c0 4.561-3.697 8.258-8.258 8.258z"/><path d="m330.323 49.548c-4.561 0-8.258-3.697-8.258-8.258v-16.516c0-4.561 3.697-8.258 8.258-8.258h8.258v24.774c0 4.561-3.698 8.258-8.258 8.258z"/></g><path d="m256.013 107.355c-53.648 0-102.205 9.021-137.39 23.602-4.933 2.044-3.382 9.43 1.957 9.43h135.433 135.433c5.34 0 6.89-7.386 1.957-9.43-35.185-14.581-83.742-23.602-137.39-23.602z" fill="#ff8b57"/><path d="m418.626 402.442-38.757-11.399-17.58 8.772-15.452-18.488-15.247-4.484c-.124-.036-.264-.079-.387-.117-20.229 17.375-46.445 27.919-75.204 27.919-22.034 0-42.594-6.202-60.102-16.917l-16.54-2.248-85.52 24.434c-21.087 6.202-26.063 18.082-26.063 40.062v37.249l6.547 23.364c2.583.913 5.364 1.41 8.26 1.41h49.548l19.047-16.728h207.855l20.838 16.729h49.55c13.682 0 24.774-11.092 24.774-24.774v-37.249c.001-21.98-14.479-41.333-35.567-47.535z" fill="#ffc263"/><path d="m57.806 449.977v37.249c0 10.771 6.916 19.946 16.516 23.359v-60.609c0-14.651 9.651-27.55 23.706-31.684l87.046-25.607c3.905-1.149 7.533-2.821 10.823-4.956-5.313-3.258-10.395-6.96-15.101-11.002-.123.038-.263.081-.387.117l-15.248 4.485-16.917 11.971-16.115-2.256-38.755 11.399c-21.087 6.201-35.568 25.554-35.568 47.534z" fill="#ffaa5a"/><path d="m379.869 391.043-33.032-9.715v72.867c0 9.121-7.395 16.516-16.516 16.516l-148.643-.001c-9.121 0-16.516-7.395-16.516-16.516v-55.651l-17.894-3.126-15.138 12.843v103.74h247.74v-120.957z" fill="#4bc3ef"/><path d="m132.129 408.26 33.032-9.717v-17.215l-5.064 1.49-27.968 8.225z" fill="#1badde"/></g></svg>