<svg id="Capa_1" enable-background="new 0 0 512 512" height="512" viewBox="0 0 512 512" width="512" xmlns="http://www.w3.org/2000/svg"><g><path d="m425.697 388.126c-2.077-.974-4.24-1.812-6.48-2.501l-72.378-22.27h-158.844l-86.334 22.27c-20.79 6.397-34.977 25.605-34.977 47.357v54.244l7.639 23.376c2.582.912 5.364 1.398 8.258 1.398h91.836l56.583-14.015 58.032 14.015h140.387c13.682 0 24.774-11.092 24.774-24.774v-24.755z" fill="#a7a07c"/><path d="m313.806 371.613h-109.087v-65.628l109.087 9.983z" fill="#c6805d"/><path d="m198.194 371.613h16.516v-27.04c0-10.47 9.562-18.019 19.867-16.167 6.953 1.249 14.106 1.917 21.423 1.917 20.89 0 40.542-5.222 57.806-14.354v-43.452h-115.612z" fill="#af6e4d"/><path d="m189.217 334.511c-4.11-2.283-9.294-.679-11.397 3.526l-12.659 25.318-72.378 22.27c-20.79 6.397-34.977 25.605-34.977 47.357v21.211l8.126 15.339-8.126 17.694c0 10.771 6.916 19.964 16.516 23.377v-77.618c0-14.597 9.371-27.282 23.298-31.569l82.459-25.273 29.915 25.642c7.092 6.079 17.81 5.072 23.646-2.222l22.36-27.95z" fill="#938c6d"/><path d="m215.706 445.935c-2.685 0-5.203-1.141-6.993-3.199-13.355-15.358-34.496-21.574-54.848-21.574h-21.433c-10.782 0-21.136-4.217-28.85-11.751l-7.544-7.475-24.023 2.005-4.778 66.77h31.861l57.806 16.516h90.839v-9.254c-.001-17.695-14.344-32.038-32.037-32.038z" fill="#938c6d"/><path d="m83.613 389.624c-15.639 8.565-25.806 25.009-25.806 43.358v21.211l16.516 16.516v-37.726c0-14.048 8.647-26.324 21.714-31.049z" fill="#80795e"/><path d="m425.695 388.129h-43.608c-11.214 0-21.968 4.455-29.898 12.384l-.006.007c-7.929 7.929-18.684 12.384-29.898 12.384h-41.512c-9.121 0-16.516 7.394-16.516 16.516s7.395 16.516 16.516 16.516h82.581l24.774 8.258 64.653-33.032c-3.519-14.47-13.397-26.673-27.086-33.033z" fill="#938c6d"/><path d="m132.129 123.871h41.29v57.806h-41.29z" fill="#4e3d4d"/><path d="m338.581 123.871h41.29v57.806h-41.29z" fill="#615260"/><path d="m374.564 173.42h-11.21c-9.122 0-16.516-7.395-16.516-16.516v-16.516l-172.526-24.774v41.29l-10.86 57.806c4.23 55.419 36.045 98.198 92.547 98.198 5.637 0 16.572-.374 16.572-.374 48.732-7.56 86.557-47.934 90.365-97.824h12.804c12.105 0 21.776-10.417 20.538-22.775-1.074-10.745-10.915-18.515-21.714-18.515z" fill="#d48c64"/><path d="m181.677 206.452v-49.548c0-9.122 7.395-16.516 16.516-16.516h148.645v-24.774h-181.677v41.29c0 9.122-7.395 16.516-16.516 16.516h-11.21c-10.799 0-20.64 7.77-21.716 18.515-1.238 12.358 8.433 22.775 20.538 22.775h12.804c4.23 55.419 50.435 99.097 106.937 99.097 5.649 0 11.161-.431 16.572-1.273-51.451-7.94-90.893-52.405-90.893-106.082z" fill="#c6805d"/><path d="m256 371.613 66.783-37.102c4.11-2.283 9.294-.679 11.397 3.526l12.659 25.318-44.834 38.429c-7.092 6.079-17.81 5.072-23.645-2.222z" fill="#938c6d"/><path d="m363.475 32.986-123.353 25.072 12.054 57.555h127.695v-54.088c0-11.914-6.389-22.708-16.396-28.539z" fill="#a7a07c"/><path d="m190.124 18.385-35.408 11.803c-13.488 4.496-22.587 17.119-22.587 31.337v8.668l123.871 45.42v-82.581z" fill="#938c6d"/><path d="m132.129 115.023 107.355-7.668-27.486-27.486c-6.195-6.195-14.597-9.675-23.357-9.675h-56.511v44.829z" fill="#c6805d"/><path d="m276.892 3.39c-6.781-2.26-13.836-3.39-20.892-3.39l-15.444 41.877 54.299-.434 13.445-27.583z" fill="#938c6d"/><path d="m206.452 33.032h49.548v-33.032c-7.056 0-14.111 1.13-20.892 3.39l-44.984 14.995c.939 8.23 7.846 14.647 16.328 14.647z" fill="#80795e"/><g fill="#4e3d4d"><path d="m206.452 198.194c-4.565 0-8.258-3.698-8.258-8.258v-8.258c0-4.56 3.694-8.258 8.258-8.258s8.258 3.698 8.258 8.258v8.258c0 4.56-3.694 8.258-8.258 8.258z"/><path d="m305.548 198.194c-4.565 0-8.258-3.698-8.258-8.258v-8.258c0-4.56 3.694-8.258 8.258-8.258s8.258 3.698 8.258 8.258v8.258c0 4.56-3.693 8.258-8.258 8.258z"/><path d="m214.71 165.162h-16.516c-4.565 0-8.258-3.698-8.258-8.258s3.694-8.258 8.258-8.258h16.516c4.565 0 8.258 3.698 8.258 8.258s-3.694 8.258-8.258 8.258z"/><path d="m313.806 165.162h-16.516c-4.565 0-8.258-3.698-8.258-8.258s3.694-8.258 8.258-8.258h16.516c4.565 0 8.258 3.698 8.258 8.258s-3.693 8.258-8.258 8.258z"/></g><path d="m256 90.839c-53.648 0-102.205 9.021-137.39 23.602-4.933 2.044-3.382 9.43 1.957 9.43h135.433 135.433c5.34 0 6.89-7.386 1.957-9.43-35.185-14.581-83.742-23.602-137.39-23.602z" fill="#80795e"/><path d="m272.516 256h-33.032c-4.565 0-8.258-3.698-8.258-8.258s3.694-8.258 8.258-8.258h33.032c4.565 0 8.258 3.698 8.258 8.258s-3.693 8.258-8.258 8.258z" fill="#af6e4d"/><path d="m454.193 432.982c0-4.069-.467-7.997-1.41-11.821h-14.108c-11.214 0-21.968 4.455-29.898 12.384l-.006.007c-7.929 7.929-18.684 12.384-29.898 12.384h-15.519c-9.121 0-16.516 7.394-16.516 16.516 0 9.121 7.395 16.516 16.516 16.516h56.809c11.214 0 21.968-4.455 29.898-12.384l.006-.007c.256-.256 1.912-1.905 4.126-4.106z" fill="#c6805d"/><path d="m305.548 495.484c0-9.122-7.395-16.516-16.516-16.516h-73.325c-11.214 0-21.968-4.455-29.898-12.384l-.006-.007c-7.929-7.929-18.684-12.384-29.898-12.384h-81.582l-7.087 15.773 7.087 17.259h40.293c11.214 0 21.968 4.455 29.898 12.384l.006.007c7.929 7.929 18.684 12.384 29.898 12.384h114.615c9.121 0 16.515-7.395 16.515-16.516z" fill="#f4aa73"/><path d="m57.807 454.193h16.516v33.032h-16.516z" fill="#e29a6c"/><path d="m357.284 30.188-48.984-16.328c-3.676 3.612-6.314 6.218-6.878 6.782l-.006.007c-7.929 7.929-18.684 12.384-29.898 12.384h-15.518l-9.362 16.516 9.362 16.515h56.809c11.214 0 21.968-4.455 29.897-12.384l.006-.007c.437-.437 10.345-10.309 20.762-20.688-1.928-1.121-4.012-2.072-6.19-2.797z" fill="#f4aa73"/><path d="m239.484 49.548c0 9.121 7.395 16.516 16.516 16.516v-33.032c-9.121 0-16.516 7.394-16.516 16.516z" fill="#e29a6c"/></g></svg>